<?xml version="1.0" encoding="UTF-8"?>
<svg viewBox="-3.2603874536821955 -5.684753996834716 13.019507993669432 11.369507993669432" height="11.369507993669432mm" width="13.019507993669432mm" xmlns:svgjs="http://svgjs.com/svgjs" xmlns:xlink="http://www.w3.org/1999/xlink" version="1.1" xmlns="http://www.w3.org/2000/svg" id="SvgjsSvg1170">
  <desc>Created with svg.js [http://svgjs.com]</desc>
  <defs id="SvgjsDefs1171">
  </defs>
  <defs id="SvgjsDefs1171">
  </defs>
  <g id="SvgjsG1172">
    <g transform="matrix(1,0,0,1,4.074366569519043,0)" id="SvgjsG1173">
      <g fill="none" stroke-width="0.04" stroke="blue" id="SvgjsG1174">
        <circle cy="0" cx="0" r="4.074366543152521" id="SvgjsCircle1175">
        </circle>
        <circle cy="0" cx="0" r="5.092958178940651" id="SvgjsCircle1176">
        </circle>
        <line y2="0.11835916357881303" x2="0" y1="-0.11835916357881303" x1="0" id="SvgjsLine1177">
        </line>
        <line y2="0" x2="0.11835916357881303" y1="0" x1="-0.11835916357881303" id="SvgjsLine1178">
        </line>
      </g>
      <g fill="none" stroke-width="0.1" stroke="black" id="SvgjsG1179">
        <circle cy="0" cx="0" r="2" id="SvgjsCircle1180">
        </circle>
        <path d="M-2.2149766367278003 4.489696725398053  L-2.2438407355358354 4.361314418205824 -2.266164096617895 4.238030350905949 -2.2823639129748785 4.1207425491105365 -2.292956372557053 4.010080337854841 -2.2985778714674865 3.90537903676455 -2.2997233844530083 3.8064123716696803 -2.296986881209816 3.7159097747456142 -2.2907784836709983 3.6300528693739436 -2.271028991272458 3.4836181260580212 -2.244448847367656 3.3632897651035067 -2.2159807283570854 3.271662868397354 -2.191048143252448 3.209833451450402 -2.124346760583121 3.149340466319893 -2.0509278634925217 3.0758791428224224 -1.9872811821179206 3.0020925502056066 -1.9332935793743276 2.928631226708136 -1.8888236339055058 2.8561881369755744 -1.8536733558127219 2.785427961382236 -1.8276023287903742 2.71698709603119 -1.810363065465046 2.651509008093316 -1.8016373677852042 2.5895947383326217 -1.8010858244958787 2.5318382564453046 -1.8083407400708529 2.4788052478563136 -1.8229990636448499 2.4310543269227862 -1.8446223890135343 2.3890804683915525 -1.8807201901931077 2.345501477467026 -2.040809165453742 2.2067671269982254 -2.125400349687089 2.125400349687089 -2.206767126998225 2.0408091654537426 -2.3455014774670255 1.880720190193108 -2.389080468391552 1.844622389013535 -2.431054326922786 1.8229990636448505 -2.4788052478563136 1.8083407400708529 -2.531838256445304 1.8010858244958792 -2.5895947383326217 1.8016373677852044 -2.6515090080933157 1.8103630654650467 -2.7169870960311897 1.8276023287903747 -2.7854279613822355 1.8536733558127225 -2.856188136975574 1.8888236339055062 -2.9286312267081356 1.933293579374328 -3.002092550205606 1.987281182117921 -3.075879142822422 2.050927863492522 -3.1493404663198925 2.1243467605831214 -3.2098334514504017 2.1910481432524485 -3.2716628683973537 2.215980728357086 -3.3632897651035063 2.2444488473676563 -3.483618126058021 2.2710289912724586 -3.630052869373943 2.290778483670999 -3.715909774745614 2.2969868812098166 -3.80641237166968 2.2997233844530087 -3.9053790367645496 2.298577871467487 -4.010080337854841 2.2929563725570534 -4.1207425491105365 2.282363912974879 -4.238030350905949 2.2661640966178958 -4.361314418205824 2.2438407355358363 -4.489696725398053 2.214976636727801 -4.600138290762971 2.1855308249334064 A5.092958178940651 5.092958178940651 0 0 1 -4.798192646597032 1.707385312991751 L-4.74092 1.6084700000000003 -4.67055 1.4972800000000002 -4.59916 1.3943200000000002 -4.52768 1.2999300000000003 -4.45692 1.2141900000000003 -4.38686 1.1361800000000002 -4.31769 1.0653900000000003 -4.25176 1.0033300000000003 -4.18666 0.9470100000000002 -4.06915 0.8574300000000002 -3.96527 0.7911400000000002 -3.88035 0.7464800000000003 -3.819 0.7203900000000002 -3.72906 0.7247800000000002 -3.6252 0.7247500000000002 -3.52802 0.7175800000000002 -3.4379 0.7038100000000003 -3.35523 0.6840300000000002 -3.28034 0.6588500000000003 -3.21351 0.6288900000000002 -3.15502 0.5947800000000002 -3.10507 0.5571700000000003 -3.06384 0.5167200000000002 -3.03147 0.4740900000000002 -3.00807 0.4299600000000002 -2.99368 0.38499000000000017 -2.98839 0.32865000000000016 -3.00349 0.11735000000000018 -3.00577 1.84050330473657e-16 -3.00349 -0.11734999999999982 -2.98839 -0.32864999999999983 -2.99368 -0.38498999999999983 -3.00807 -0.42995999999999984 -3.03147 -0.47408999999999984 -3.06384 -0.5167199999999997 -3.10507 -0.5571699999999998 -3.15502 -0.5947799999999998 -3.21351 -0.6288899999999997 -3.28034 -0.6588499999999998 -3.35523 -0.6840299999999998 -3.4379 -0.7038099999999998 -3.52802 -0.7175799999999998 -3.6252 -0.7247499999999998 -3.72906 -0.7247799999999998 -3.819 -0.7203899999999998 -3.88035 -0.7464799999999998 -3.96527 -0.7911399999999997 -4.06915 -0.8574299999999998 -4.18666 -0.9470099999999998 -4.25176 -1.0033299999999998 -4.31769 -1.0653899999999998 -4.38686 -1.1361799999999997 -4.45692 -1.2141899999999999 -4.52768 -1.2999299999999998 -4.59916 -1.3943199999999998 -4.67055 -1.4972799999999997 -4.74092 -1.6084699999999998 -4.798192646597032 -1.7073853129917504 A5.092958178940651 5.092958178940651 0 0 1 -4.600138290762972 -2.185530824933406 L-4.489696725398053 -2.2149766367278003 -4.361314418205824 -2.2438407355358354 -4.238030350905949 -2.266164096617895 -4.1207425491105365 -2.2823639129748785 -4.010080337854841 -2.292956372557053 -3.90537903676455 -2.2985778714674865 -3.8064123716696803 -2.2997233844530083 -3.7159097747456142 -2.296986881209816 -3.6300528693739436 -2.2907784836709983 -3.4836181260580212 -2.271028991272458 -3.3632897651035067 -2.244448847367656 -3.271662868397354 -2.2159807283570854 -3.209833451450402 -2.191048143252448 -3.149340466319893 -2.124346760583121 -3.0758791428224224 -2.0509278634925217 -3.0020925502056066 -1.9872811821179206 -2.928631226708136 -1.9332935793743276 -2.8561881369755744 -1.8888236339055058 -2.785427961382236 -1.8536733558127219 -2.71698709603119 -1.8276023287903742 -2.651509008093316 -1.810363065465046 -2.5895947383326217 -1.8016373677852042 -2.5318382564453046 -1.8010858244958787 -2.4788052478563136 -1.8083407400708529 -2.4310543269227862 -1.8229990636448499 -2.3890804683915525 -1.8446223890135343 -2.345501477467026 -1.8807201901931077 -2.2067671269982254 -2.040809165453742 -2.125400349687089 -2.125400349687089 -2.0408091654537426 -2.206767126998225 -1.880720190193108 -2.3455014774670255 -1.844622389013535 -2.389080468391552 -1.8229990636448505 -2.431054326922786 -1.8083407400708529 -2.4788052478563136 -1.8010858244958792 -2.531838256445304 -1.8016373677852044 -2.5895947383326217 -1.8103630654650467 -2.6515090080933157 -1.8276023287903747 -2.7169870960311897 -1.8536733558127225 -2.7854279613822355 -1.8888236339055062 -2.856188136975574 -1.933293579374328 -2.9286312267081356 -1.987281182117921 -3.002092550205606 -2.050927863492522 -3.075879142822422 -2.1243467605831214 -3.1493404663198925 -2.1910481432524485 -3.2098334514504017 -2.215980728357086 -3.2716628683973537 -2.2444488473676563 -3.3632897651035063 -2.2710289912724586 -3.483618126058021 -2.290778483670999 -3.630052869373943 -2.2969868812098166 -3.715909774745614 -2.2997233844530087 -3.80641237166968 -2.298577871467487 -3.9053790367645496 -2.2929563725570534 -4.010080337854841 -2.282363912974879 -4.1207425491105365 -2.2661640966178958 -4.238030350905949 -2.2438407355358363 -4.361314418205824 -2.214976636727801 -4.489696725398053 -2.1855308249334064 -4.600138290762971 A5.092958178940651 5.092958178940651 0 0 1 -1.7073853129917513 -4.798192646597032 L-1.6084700000000007 -4.74092 -1.4972800000000006 -4.67055 -1.3943200000000007 -4.59916 -1.2999300000000005 -4.52768 -1.2141900000000005 -4.45692 -1.1361800000000004 -4.38686 -1.0653900000000005 -4.31769 -1.0033300000000005 -4.25176 -0.9470100000000006 -4.18666 -0.8574300000000005 -4.06915 -0.7911400000000004 -3.96527 -0.7464800000000005 -3.88035 -0.7203900000000004 -3.819 -0.7247800000000004 -3.72906 -0.7247500000000004 -3.6252 -0.7175800000000004 -3.52802 -0.7038100000000005 -3.4379 -0.6840300000000005 -3.35523 -0.6588500000000005 -3.28034 -0.6288900000000004 -3.21351 -0.5947800000000003 -3.15502 -0.5571700000000004 -3.10507 -0.5167200000000003 -3.06384 -0.4740900000000004 -3.03147 -0.4299600000000004 -3.00807 -0.3849900000000004 -2.99368 -0.3286500000000004 -2.98839 -0.11735000000000037 -3.00349 -3.68100660947314e-16 -3.00577 0.11734999999999962 -3.00349 0.3286499999999996 -2.98839 0.3849899999999996 -2.99368 0.4299599999999996 -3.00807 0.4740899999999996 -3.03147 0.5167199999999996 -3.06384 0.5571699999999997 -3.10507 0.5947799999999996 -3.15502 0.6288899999999995 -3.21351 0.6588499999999996 -3.28034 0.6840299999999996 -3.35523 0.7038099999999996 -3.4379 0.7175799999999996 -3.52802 0.7247499999999996 -3.6252 0.7247799999999995 -3.72906 0.7203899999999995 -3.819 0.7464799999999996 -3.88035 0.7911399999999995 -3.96527 0.8574299999999996 -4.06915 0.9470099999999995 -4.18666 1.0033299999999996 -4.25176 1.0653899999999996 -4.31769 1.1361799999999995 -4.38686 1.2141899999999997 -4.45692 1.2999299999999996 -4.52768 1.3943199999999993 -4.59916 1.4972799999999993 -4.67055 1.6084699999999994 -4.74092 1.70738531299175 -4.798192646597032 A5.092958178940651 5.092958178940651 0 0 1 2.1855308249334056 -4.600138290762972 L2.2149766367278003 -4.489696725398053 2.2438407355358354 -4.361314418205824 2.266164096617895 -4.23803035090595 2.282363912974878 -4.1207425491105365 2.292956372557053 -4.010080337854843 2.2985778714674865 -3.9053790367645504 2.299723384453008 -3.8064123716696807 2.296986881209816 -3.7159097747456147 2.2907784836709983 -3.630052869373944 2.2710289912724577 -3.4836181260580217 2.244448847367656 -3.363289765103507 2.2159807283570854 -3.271662868397354 2.1910481432524476 -3.2098334514504026 2.124346760583121 -3.1493404663198934 2.050927863492521 -3.075879142822423 1.9872811821179206 -3.002092550205607 1.9332935793743273 -2.9286312267081365 1.8888236339055056 -2.8561881369755744 1.8536733558127219 -2.7854279613822364 1.827602328790374 -2.7169870960311906 1.810363065465046 -2.6515090080933166 1.8016373677852042 -2.589594738332622 1.8010858244958785 -2.531838256445305 1.8083407400708529 -2.478805247856314 1.8229990636448499 -2.4310543269227862 1.8446223890135343 -2.389080468391553 1.8807201901931077 -2.345501477467026 2.040809165453742 -2.206767126998226 2.125400349687089 -2.1254003496870895 2.206767126998225 -2.040809165453743 2.3455014774670255 -1.880720190193108 2.389080468391552 -1.8446223890135354 2.4310543269227862 -1.8229990636448505 2.4788052478563136 -1.8083407400708533 2.531838256445304 -1.8010858244958796 2.5895947383326217 -1.801637367785205 2.6515090080933157 -1.810363065465047 2.7169870960311897 -1.827602328790375 2.785427961382236 -1.853673355812723 2.856188136975574 -1.8888236339055062 2.9286312267081356 -1.9332935793743284 3.002092550205606 -1.9872811821179215 3.0758791428224224 -2.0509278634925225 3.1493404663198925 -2.124346760583122 3.209833451450402 -2.191048143252449 3.2716628683973537 -2.2159807283570867 3.3632897651035063 -2.2444488473676567 3.4836181260580212 -2.271028991272459 3.630052869373943 -2.2907784836709992 3.715909774745614 -2.296986881209817 3.8064123716696803 -2.299723384453009 3.9053790367645496 -2.2985778714674874 4.010080337854841 -2.2929563725570543 4.1207425491105365 -2.2823639129748794 4.238030350905949 -2.2661640966178958 4.361314418205824 -2.2438407355358367 4.489696725398053 -2.2149766367278017 4.600138290762972 -2.185530824933407 A5.092958178940651 5.092958178940651 0 0 1 4.798192646597032 -1.7073853129917516 L4.74092 -1.608470000000001 4.67055 -1.4972800000000008 4.59916 -1.394320000000001 4.52768 -1.299930000000001 4.45692 -1.214190000000001 4.38686 -1.1361800000000009 4.31769 -1.065390000000001 4.25176 -1.003330000000001 4.18666 -0.9470100000000008 4.06915 -0.8574300000000008 3.96527 -0.7911400000000007 3.88035 -0.7464800000000007 3.819 -0.7203900000000006 3.72906 -0.7247800000000006 3.6252 -0.7247500000000007 3.52802 -0.7175800000000007 3.4379 -0.7038100000000007 3.35523 -0.6840300000000007 3.28034 -0.6588500000000006 3.21351 -0.6288900000000005 3.15502 -0.5947800000000005 3.10507 -0.5571700000000006 3.06384 -0.5167200000000005 3.03147 -0.47409000000000057 3.00807 -0.42996000000000056 2.99368 -0.38499000000000055 2.98839 -0.32865000000000055 3.00349 -0.11735000000000055 3.00577 -5.521509914209709e-16 3.00349 0.11734999999999944 2.98839 0.32864999999999944 2.99368 0.38498999999999944 3.00807 0.42995999999999945 3.03147 0.47408999999999946 3.06384 0.5167199999999994 3.10507 0.5571699999999995 3.15502 0.5947799999999994 3.21351 0.6288899999999994 3.28034 0.6588499999999995 3.35523 0.6840299999999994 3.4379 0.7038099999999994 3.52802 0.7175799999999993 3.6252 0.7247499999999993 3.72906 0.7247799999999993 3.819 0.7203899999999993 3.88035 0.7464799999999994 3.96527 0.7911399999999992 4.06915 0.8574299999999992 4.18666 0.9470099999999992 4.25176 1.0033299999999992 4.31769 1.0653899999999992 4.38686 1.136179999999999 4.45692 1.2141899999999992 4.52768 1.2999299999999991 4.59916 1.3943199999999991 4.67055 1.497279999999999 4.74092 1.6084699999999992 4.798192646597032 1.7073853129917498 A5.092958178940651 5.092958178940651 0 0 1 4.600138290762972 2.185530824933405 L4.489696725398053 2.2149766367278 4.361314418205824 2.2438407355358354 4.23803035090595 2.2661640966178944 4.1207425491105365 2.282363912974878 4.010080337854842 2.292956372557052 3.9053790367645504 2.2985778714674856 3.8064123716696807 2.2997233844530074 3.7159097747456142 2.2969868812098158 3.630052869373944 2.290778483670998 3.4836181260580217 2.2710289912724573 3.3632897651035067 2.2444488473676554 3.271662868397354 2.215980728357085 3.2098334514504026 2.1910481432524476 3.1493404663198934 2.12434676058312 3.075879142822423 2.0509278634925208 3.002092550205607 1.9872811821179202 2.9286312267081365 1.9332935793743269 2.8561881369755744 1.8888236339055051 2.7854279613822364 1.8536733558127219 2.7169870960311906 1.8276023287903735 2.651509008093316 1.8103630654650456 2.589594738332622 1.8016373677852038 2.531838256445305 1.801085824495878 2.478805247856314 1.8083407400708524 2.4310543269227862 1.8229990636448494 2.389080468391553 1.8446223890135338 2.345501477467026 1.8807201901931072 2.206767126998226 2.0408091654537417 2.1254003496870895 2.1254003496870886 2.040809165453743 2.2067671269982245 1.8807201901931083 2.345501477467025 1.8446223890135354 2.3890804683915516 1.8229990636448505 2.4310543269227853 1.8083407400708533 2.478805247856313 1.8010858244958796 2.5318382564453037 1.801637367785205 2.5895947383326217 1.810363065465047 2.6515090080933152 1.827602328790375 2.7169870960311893 1.853673355812723 2.785427961382236 1.8888236339055062 2.8561881369755735 1.9332935793743284 2.928631226708135 1.9872811821179215 3.0020925502056057 2.0509278634925225 3.075879142822422 2.124346760583122 3.1493404663198925 2.191048143252449 3.209833451450401 2.2159807283570867 3.271662868397353 2.244448847367657 3.363289765103506 2.271028991272459 3.483618126058021 2.2907784836709992 3.6300528693739427 2.2969868812098175 3.7159097747456133 2.299723384453009 3.80641237166968 2.2985778714674874 3.9053790367645496 2.2929563725570543 4.010080337854841 2.28236391297488 4.120742549110536 2.266164096617896 4.238030350905949 2.243840735535837 4.361314418205823 2.2149766367278017 4.489696725398053 2.185530824933407 4.600138290762971 A5.092958178940651 5.092958178940651 0 0 1 1.7073853129917518 4.798192646597032 L1.6084700000000012 4.74092 1.497280000000001 4.67055 1.3943200000000011 4.59916 1.2999300000000011 4.52768 1.2141900000000012 4.45692 1.136180000000001 4.38686 1.0653900000000012 4.31769 1.0033300000000012 4.25176 0.947010000000001 4.18666 0.857430000000001 4.06915 0.791140000000001 3.96527 0.746480000000001 3.88035 0.7203900000000009 3.819 0.7247800000000009 3.72906 0.7247500000000009 3.6252 0.7175800000000009 3.52802 0.7038100000000009 3.4379 0.6840300000000008 3.35523 0.6588500000000008 3.28034 0.6288900000000007 3.21351 0.5947800000000008 3.15502 0.5571700000000008 3.10507 0.5167200000000007 3.06384 0.47409000000000073 3.03147 0.42996000000000073 3.00807 0.3849900000000007 2.99368 0.3286500000000007 2.98839 0.11735000000000073 3.00349 7.36201321894628e-16 3.00577 -0.11734999999999926 3.00349 -0.3286499999999993 2.98839 -0.3849899999999993 2.99368 -0.4299599999999993 3.00807 -0.4740899999999993 3.03147 -0.5167199999999992 3.06384 -0.5571699999999993 3.10507 -0.5947799999999992 3.15502 -0.6288899999999992 3.21351 -0.6588499999999993 3.28034 -0.6840299999999992 3.35523 -0.7038099999999992 3.4379 -0.7175799999999991 3.52802 -0.7247499999999991 3.6252 -0.7247799999999991 3.72906 -0.7203899999999991 3.819 -0.746479999999999 3.88035 -0.791139999999999 3.96527 -0.857429999999999 4.06915 -0.947009999999999 4.18666 -1.003329999999999 4.25176 -1.065389999999999 4.31769 -1.1361799999999989 4.38686 -1.214189999999999 4.45692 -1.299929999999999 4.52768 -1.394319999999999 4.59916 -1.4972799999999988 4.67055 -1.608469999999999 4.74092 -1.7073853129917496 4.798192646597032 A5.092958178940651 5.092958178940651 0 0 1 -2.185530824933406 4.600138290762972 Z" id="SvgjsPath1181">
        </path>
      </g>
    </g>
    <g transform="matrix(1,0,0,1,0,0)" id="SvgjsG1182">
      <g fill="none" stroke-width="0.04" stroke="blue" id="SvgjsG1183">
        <line y2="-6.4" x2="0" y1="6.4" x1="0" id="SvgjsLine1184">
        </line>
      </g>
      <g fill="none" stroke-width="0.1" stroke="black" id="SvgjsG1185">
        <path d="M-1.0685916357881302 4.375633325856762  L1.0185916357881302 3.6159607415446513 1.0185916357881302 2.784039258455349 -1.0685916357881302 2.0243666741432387 -1.0685916357881302 1.1756333258567613 1.0185916357881302 0.4159607415446512 1.0185916357881302 -0.4159607415446512 -1.0685916357881302 -1.1756333258567613 -1.0685916357881302 -2.0243666741432387 1.0185916357881302 -2.784039258455349 1.0185916357881302 -3.6159607415446513 -1.0685916357881302 -4.375633325856762 -2.6685916357881303 -4.375633325856762 -2.6685916357881303 4.375633325856762 Z" id="SvgjsPath1186">
        </path>
      </g>
    </g>
  </g>
</svg>
