  0
SECTION
  2
HEADER
  9
$ACADVER
  1
AC1014
  9
$HANDSEED
  5
FFFF
  9
$MEASUREMENT
 70
     1
  0
ENDSEC
  0
SECTION
  2
TABLES
  0
TABLE
  2
VPORT
  5
8
330
0
100
AcDbSymbolTable
 70
     4
  0
VPORT
  5
2E
330
8
100
AcDbSymbolTableRecord
100
AcDbViewportTableRecord
  2
*ACTIVE
 70
     0
 10
0.0
 20
0.0
 11
1.0
 21
1.0
 12
210.0
 22
148.5
 13
0.0
 23
0.0
 14
10.0
 24
10.0
 15
10.0
 25
10.0
 16
0.0
 26
0.0
 36
1.0
 17
0.0
 27
0.0
 37
0.0
 40
341.0
 41
1.24
 42
50.0
 43
0.0
 44
0.0
 50
0.0
 51
0.0
 71
     0
 72
   100
 73
     1
 74
     3
 75
     0
 76
     0
 77
     0
 78
     0
  0
ENDTAB
  0
TABLE
  2
LTYPE
  5
5
330
0
100
AcDbSymbolTable
 70
     1
  0
LTYPE
  5
14
330
5
100
AcDbSymbolTableRecord
100
AcDbLinetypeTableRecord
  2
BYBLOCK
 70
     0
  3

 72
    65
 73
     0
 40
0.0
  0
LTYPE
  5
15
330
5
100
AcDbSymbolTableRecord
100
AcDbLinetypeTableRecord
  2
BYLAYER
 70
     0
  3

 72
    65
 73
     0
 40
0.0
  0
LTYPE
  5
16
330
5
100
AcDbSymbolTableRecord
100
AcDbLinetypeTableRecord
  2
CONTINUOUS
 70
     0
  3
Solid line
 72
    65
 73
     0
 40
0.0
  0
ENDTAB
  0
TABLE
  2
LAYER
  5
2
100
AcDbSymbolTable
 70
1
  0
LAYER
  5
50
100
AcDbSymbolTableRecord
100
AcDbLayerTableRecord
  2
0
 70
0
  6
CONTINUOUS
  0
ENDTAB
  0
TABLE
  2
STYLE
  5
3
330
0
100
AcDbSymbolTable
 70
     1
  0
STYLE
  5
11
330
3
100
AcDbSymbolTableRecord
100
AcDbTextStyleTableRecord
  2
STANDARD
 70
     0
 40
0.0
 41
1.0
 50
0.0
 71
     0
 42
2.5
  3
txt
  4

  0
ENDTAB
  0
TABLE
  2
VIEW
  5
6
330
0
100
AcDbSymbolTable
 70
     0
  0
ENDTAB
  0
TABLE
  2
UCS
  5
7
330
0
100
AcDbSymbolTable
 70
     0
  0
ENDTAB
  0
TABLE
  2
APPID
  5
9
330
0
100
AcDbSymbolTable
 70
     2
  0
APPID
  5
12
330
9
100
AcDbSymbolTableRecord
100
AcDbRegAppTableRecord
  2
ACAD
 70
     0
  0
ENDTAB
  0
TABLE
  2
DIMSTYLE
  5
A
330
0
100
AcDbSymbolTable
 70
     1
  0
DIMSTYLE
105
27
330
A
100
AcDbSymbolTableRecord
100
AcDbDimStyleTableRecord
  2
ISO-25
 70
     0
  3

  4

  5

  6

  7

 40
1.0
 41
2.5
 42
0.625
 43
3.75
 44
1.25
 45
0.0
 46
0.0
 47
0.0
 48
0.0
140
2.5
141
2.5
142
0.0
143
0.03937007874016
144
1.0
145
0.0
146
1.0
147
0.625
 71
     0
 72
     0
 73
     0
 74
     0
 75
     0
 76
     0
 77
     1
 78
     8
170
     0
171
     3
172
     1
173
     0
174
     0
175
     0
176
     0
177
     0
178
     0
270
     2
271
     2
272
     2
273
     2
274
     3
340
11
275
     0
280
     0
281
     0
282
     0
283
     0
284
     8
285
     0
286
     0
287
     3
288
     0
  0
ENDTAB
  0
TABLE
  2
BLOCK_RECORD
  5
1
330
0
100
AcDbSymbolTable
 70
     1
  0
BLOCK_RECORD
  5
1F
330
1
100
AcDbSymbolTableRecord
100
AcDbBlockTableRecord
  2
*MODEL_SPACE
  0
BLOCK_RECORD
  5
1B
330
1
100
AcDbSymbolTableRecord
100
AcDbBlockTableRecord
  2
*PAPER_SPACE
  0
ENDTAB
  0
ENDSEC
  0
SECTION
  2
BLOCKS
  0
BLOCK
  5
20
330
1F
100
AcDbEntity
  8
0
100
AcDbBlockBegin
  2
*MODEL_SPACE
 70
     0
 10
0.0
 20
0.0
 30
0.0
  3
*MODEL_SPACE
  1

  0
ENDBLK
  5
21
330
1F
100
AcDbEntity
  8
0
100
AcDbBlockEnd
  0
BLOCK
  5
1C
330
1B
100
AcDbEntity
 67
     1
  8
0
100
AcDbBlockBegin
  2
*PAPER_SPACE
  1

  0
ENDBLK
  5
1D
330
1B
100
AcDbEntity
 67
     1
  8
0
100
AcDbBlockEnd
  0
ENDSEC
  0
SECTION
  2
ENTITIES
  0
LWPOLYLINE
  5
100
100
AcDbEntity
  8
0
 62
7
100
AcDbPolyline
 90
2
 70
0
 10
199.226711
 20
399.256514
 30
0.0
 10
199.226711
 20
392.453369
 30
0.0
  0
LWPOLYLINE
  5
101
100
AcDbEntity
  8
0
 62
7
100
AcDbPolyline
 90
2
 70
0
 10
195.825138
 20
395.854941
 30
0.0
 10
202.628284
 20
395.854941
 30
0.0
  0
SPLINE
  5
102
100
AcDbEntity
  8
0
 62
7
100
AcDbSpline
 70
8
 71
3
 72
8
 73
4
 74
0
 40
0
 40
0
 40
0
 40
0
 40
1
 40
1
 40
1
 40
1
 10
170.305998
 20
386.760248
 30
0.0
 10
170.045982
 20
387.587098
 30
0.0
 10
169.821545
 20
388.424718
 30
0.0
 10
169.633306
 20
389.270800
 30
0.0
  0
LWPOLYLINE
  5
103
100
AcDbEntity
  8
0
 62
7
100
AcDbPolyline
 90
52
 70
0
 10
177.020416
 20
375.965830
 30
0.0
 10
177.192340
 20
376.638516
 30
0.0
 10
177.381233
 20
377.266566
 30
0.0
 10
177.579530
 20
377.837955
 30
0.0
 10
177.787295
 20
378.364599
 30
0.0
 10
178.000302
 20
378.844582
 30
0.0
 10
178.213113
 20
379.274504
 30
0.0
 10
178.425493
 20
379.661855
 30
0.0
 10
178.627606
 20
379.996408
 30
0.0
 10
178.822794
 20
380.291023
 30
0.0
 10
179.167927
 20
380.748571
 30
0.0
 10
179.437664
 20
381.050582
 30
0.0
 10
179.603527
 20
381.208565
 30
0.0
 10
180.015388
 20
381.457450
 30
0.0
 10
180.392136
 20
381.726616
 30
0.0
 10
180.713069
 20
382.000216
 30
0.0
 10
180.978539
 20
382.274068
 30
0.0
 10
181.189190
 20
382.544059
 30
0.0
 10
181.345838
 20
382.806046
 30
0.0
 10
181.449677
 20
383.056036
 30
0.0
 10
181.501996
 20
383.290095
 30
0.0
 10
181.504385
 20
383.504394
 30
0.0
 10
181.458682
 20
383.695183
 30
0.0
 10
181.406597
 20
383.800883
 30
0.0
 10
180.972544
 20
384.470140
 30
0.0
 10
180.595595
 20
385.098261
 30
0.0
 10
180.240101
 20
385.738770
 30
0.0
 10
179.877534
 20
386.449299
 30
0.0
 10
179.812042
 20
386.547259
 30
0.0
 10
179.669666
 20
386.682233
 30
0.0
 10
179.482883
 20
386.787313
 30
0.0
 10
179.254023
 20
386.859033
 30
0.0
 10
178.985604
 20
386.894100
 30
0.0
 10
178.680392
 20
386.889423
 30
0.0
 10
178.341248
 20
386.841991
 30
0.0
 10
177.971349
 20
386.749012
 30
0.0
 10
177.573937
 20
386.607875
 30
0.0
 10
177.152459
 20
386.416185
 30
0.0
 10
176.730988
 20
386.183945
 30
0.0
 10
176.511238
 20
386.119296
 30
0.0
 10
176.114821
 20
386.036703
 30
0.0
 10
175.546005
 20
385.966582
 30
0.0
 10
175.193266
 20
385.944840
 30
0.0
 10
174.802479
 20
385.937073
 30
0.0
 10
174.360832
 20
385.946825
 30
0.0
 10
173.882104
 20
385.977487
 30
0.0
 10
173.359924
 20
386.033009
 30
0.0
 10
172.799953
 20
386.116401
 30
0.0
 10
172.205966
 20
386.230365
 30
0.0
 10
171.567614
 20
386.380806
 30
0.0
 10
170.899088
 20
386.568258
 30
0.0
 10
170.305998
 20
386.760248
 30
0.0
  0
SPLINE
  5
104
100
AcDbEntity
  8
0
 62
7
100
AcDbSpline
 70
8
 71
3
 72
8
 73
4
 74
0
 40
0
 40
0
 40
0
 40
0
 40
1
 40
1
 40
1
 40
1
 10
169.633306
 20
402.439082
 30
0.0
 10
169.821546
 20
403.285156
 30
0.0
 10
170.045983
 20
404.122769
 30
0.0
 10
170.305998
 20
404.949611
 30
0.0
  0
LWPOLYLINE
  5
105
100
AcDbEntity
  8
0
 62
7
100
AcDbPolyline
 90
53
 70
0
 10
169.633306
 20
389.270800
 30
0.0
 10
170.050940
 20
389.733613
 30
0.0
 10
170.536174
 20
390.230214
 30
0.0
 10
171.013784
 20
390.679675
 30
0.0
 10
171.471210
 20
391.075363
 30
0.0
 10
171.914463
 20
391.427568
 30
0.0
 10
172.338923
 20
391.736742
 30
0.0
 10
172.738182
 20
392.002660
 30
0.0
 10
173.115785
 20
392.231926
 30
0.0
 10
173.458097
 20
392.420600
 30
0.0
 10
173.774443
 20
392.578150
 30
0.0
 10
174.302112
 20
392.801831
 30
0.0
 10
174.686717
 20
392.928512
 30
0.0
 10
174.909350
 20
392.982398
 30
0.0
 10
175.390474
 20
392.992008
 30
0.0
 10
175.851330
 20
393.036738
 30
0.0
 10
176.266067
 20
393.113217
 30
0.0
 10
176.632898
 20
393.217645
 30
0.0
 10
176.950322
 20
393.346140
 30
0.0
 10
177.216977
 20
393.494703
 30
0.0
 10
177.431899
 20
393.659283
 30
0.0
 10
177.594239
 20
393.835824
 30
0.0
 10
177.703458
 20
394.020218
 30
0.0
 10
177.759272
 20
394.208297
 30
0.0
 10
177.767011
 20
394.325878
 30
0.0
 10
177.725738
 20
395.122498
 30
0.0
 10
177.713351
 20
395.854941
 30
0.0
 10
177.725738
 20
396.587385
 30
0.0
 10
177.767011
 20
397.384005
 30
0.0
 10
177.759272
 20
397.501586
 30
0.0
 10
177.703458
 20
397.689665
 30
0.0
 10
177.594239
 20
397.874058
 30
0.0
 10
177.431899
 20
398.050600
 30
0.0
 10
177.216977
 20
398.215179
 30
0.0
 10
176.950322
 20
398.363743
 30
0.0
 10
176.632898
 20
398.492237
 30
0.0
 10
176.266067
 20
398.596666
 30
0.0
 10
175.851330
 20
398.673144
 30
0.0
 10
175.390474
 20
398.717875
 30
0.0
 10
174.909350
 20
398.727484
 30
0.0
 10
174.686717
 20
398.781371
 30
0.0
 10
174.302112
 20
398.908051
 30
0.0
 10
173.774443
 20
399.131733
 30
0.0
 10
173.458097
 20
399.289283
 30
0.0
 10
173.115785
 20
399.477956
 30
0.0
 10
172.738182
 20
399.707222
 30
0.0
 10
172.338923
 20
399.973140
 30
0.0
 10
171.914463
 20
400.282315
 30
0.0
 10
171.471210
 20
400.634519
 30
0.0
 10
171.013784
 20
401.030207
 30
0.0
 10
170.536174
 20
401.479669
 30
0.0
 10
170.050940
 20
401.976270
 30
0.0
 10
169.633306
 20
402.439082
 30
0.0
  0
SPLINE
  5
106
100
AcDbEntity
  8
0
 62
7
100
AcDbSpline
 70
8
 71
3
 72
8
 73
4
 74
0
 40
0
 40
0
 40
0
 40
0
 40
1
 40
1
 40
1
 40
1
 10
176.890146
 20
416.353651
 30
0.0
 10
177.476204
 20
416.992253
 30
0.0
 10
178.089378
 20
417.605427
 30
0.0
 10
178.727980
 20
418.191485
 30
0.0
  0
LWPOLYLINE
  5
107
100
AcDbEntity
  8
0
 62
7
100
AcDbPolyline
 90
53
 70
0
 10
170.305998
 20
404.949611
 30
0.0
 10
170.899088
 20
405.141601
 30
0.0
 10
171.567614
 20
405.329053
 30
0.0
 10
172.205966
 20
405.479493
 30
0.0
 10
172.799953
 20
405.593457
 30
0.0
 10
173.359924
 20
405.676850
 30
0.0
 10
173.882104
 20
405.732372
 30
0.0
 10
174.360832
 20
405.763034
 30
0.0
 10
174.802478
 20
405.772786
 30
0.0
 10
175.193266
 20
405.765019
 30
0.0
 10
175.546005
 20
405.743277
 30
0.0
 10
176.114820
 20
405.673156
 30
0.0
 10
176.511238
 20
405.590563
 30
0.0
 10
176.730988
 20
405.525914
 30
0.0
 10
177.152458
 20
405.293674
 30
0.0
 10
177.573937
 20
405.101984
 30
0.0
 10
177.971349
 20
404.960847
 30
0.0
 10
178.341248
 20
404.867868
 30
0.0
 10
178.680392
 20
404.820436
 30
0.0
 10
178.985604
 20
404.815759
 30
0.0
 10
179.254022
 20
404.850826
 30
0.0
 10
179.482883
 20
404.922545
 30
0.0
 10
179.669666
 20
405.027626
 30
0.0
 10
179.812042
 20
405.162600
 30
0.0
 10
179.877533
 20
405.260560
 30
0.0
 10
180.240100
 20
405.971089
 30
0.0
 10
180.595595
 20
406.611597
 30
0.0
 10
180.972544
 20
407.239719
 30
0.0
 10
181.406597
 20
407.908975
 30
0.0
 10
181.458686
 20
408.014674
 30
0.0
 10
181.504389
 20
408.205462
 30
0.0
 10
181.502000
 20
408.419761
 30
0.0
 10
181.449681
 20
408.653821
 30
0.0
 10
181.345842
 20
408.903811
 30
0.0
 10
181.189194
 20
409.165797
 30
0.0
 10
180.978543
 20
409.435788
 30
0.0
 10
180.713073
 20
409.709640
 30
0.0
 10
180.392140
 20
409.983240
 30
0.0
 10
180.015392
 20
410.252407
 30
0.0
 10
179.603531
 20
410.501291
 30
0.0
 10
179.437667
 20
410.659275
 30
0.0
 10
179.167931
 20
410.961285
 30
0.0
 10
178.822798
 20
411.418834
 30
0.0
 10
178.627610
 20
411.713449
 30
0.0
 10
178.425497
 20
412.048001
 30
0.0
 10
178.213117
 20
412.435352
 30
0.0
 10
178.000306
 20
412.865274
 30
0.0
 10
177.787299
 20
413.345257
 30
0.0
 10
177.579534
 20
413.871901
 30
0.0
 10
177.381237
 20
414.443291
 30
0.0
 10
177.192344
 20
415.071340
 30
0.0
 10
177.020420
 20
415.744026
 30
0.0
 10
176.890146
 20
416.353651
 30
0.0
  0
SPLINE
  5
108
100
AcDbEntity
  8
0
 62
7
100
AcDbSpline
 70
8
 71
3
 72
8
 73
4
 74
0
 40
0
 40
0
 40
0
 40
0
 40
1
 40
1
 40
1
 40
1
 10
190.132020
 20
424.775634
 30
0.0
 10
190.958862
 20
425.035649
 30
0.0
 10
191.796475
 20
425.260086
 30
0.0
 10
192.642549
 20
425.448326
 30
0.0
  0
LWPOLYLINE
  5
109
100
AcDbEntity
  8
0
 62
7
100
AcDbPolyline
 90
53
 70
0
 10
178.727980
 20
418.191485
 30
0.0
 10
179.337605
 20
418.061211
 30
0.0
 10
180.010291
 20
417.889287
 30
0.0
 10
180.638340
 20
417.700394
 30
0.0
 10
181.209730
 20
417.502097
 30
0.0
 10
181.736374
 20
417.294332
 30
0.0
 10
182.216357
 20
417.081325
 30
0.0
 10
182.646279
 20
416.868514
 30
0.0
 10
183.033630
 20
416.656134
 30
0.0
 10
183.368182
 20
416.454021
 30
0.0
 10
183.662797
 20
416.258834
 30
0.0
 10
184.120346
 20
415.913700
 30
0.0
 10
184.422356
 20
415.643964
 30
0.0
 10
184.580340
 20
415.478100
 30
0.0
 10
184.829224
 20
415.066239
 30
0.0
 10
185.098391
 20
414.689491
 30
0.0
 10
185.371991
 20
414.368558
 30
0.0
 10
185.645843
 20
414.103088
 30
0.0
 10
185.915834
 20
413.892437
 30
0.0
 10
186.177820
 20
413.735789
 30
0.0
 10
186.427810
 20
413.631950
 30
0.0
 10
186.661870
 20
413.579631
 30
0.0
 10
186.876169
 20
413.577242
 30
0.0
 10
187.066957
 20
413.622945
 30
0.0
 10
187.172656
 20
413.675034
 30
0.0
 10
187.841912
 20
414.109087
 30
0.0
 10
188.470034
 20
414.486036
 30
0.0
 10
189.110542
 20
414.841531
 30
0.0
 10
189.821071
 20
415.204098
 30
0.0
 10
189.919031
 20
415.269589
 30
0.0
 10
190.054005
 20
415.411965
 30
0.0
 10
190.159086
 20
415.598748
 30
0.0
 10
190.230805
 20
415.827609
 30
0.0
 10
190.265872
 20
416.096027
 30
0.0
 10
190.261195
 20
416.401239
 30
0.0
 10
190.213763
 20
416.740383
 30
0.0
 10
190.120784
 20
417.110282
 30
0.0
 10
189.979647
 20
417.507694
 30
0.0
 10
189.787957
 20
417.929173
 30
0.0
 10
189.555717
 20
418.350643
 30
0.0
 10
189.491068
 20
418.570393
 30
0.0
 10
189.408475
 20
418.966811
 30
0.0
 10
189.338354
 20
419.535626
 30
0.0
 10
189.316612
 20
419.888365
 30
0.0
 10
189.308845
 20
420.279153
 30
0.0
 10
189.318597
 20
420.720799
 30
0.0
 10
189.349259
 20
421.199527
 30
0.0
 10
189.404781
 20
421.721707
 30
0.0
 10
189.488174
 20
422.281678
 30
0.0
 10
189.602138
 20
422.875665
 30
0.0
 10
189.752578
 20
423.514017
 30
0.0
 10
189.940030
 20
424.182543
 30
0.0
 10
190.132020
 20
424.775634
 30
0.0
  0
SPLINE
  5
10a
100
AcDbEntity
  8
0
 62
7
100
AcDbSpline
 70
8
 71
3
 72
8
 73
4
 74
0
 40
0
 40
0
 40
0
 40
0
 40
1
 40
1
 40
1
 40
1
 10
205.810852
 20
425.448346
 30
0.0
 10
206.656926
 20
425.260106
 30
0.0
 10
207.494538
 20
425.035669
 30
0.0
 10
208.321380
 20
424.775654
 30
0.0
  0
LWPOLYLINE
  5
10b
100
AcDbEntity
  8
0
 62
7
100
AcDbPolyline
 90
53
 70
0
 10
192.642549
 20
425.448326
 30
0.0
 10
193.105361
 20
425.030692
 30
0.0
 10
193.601962
 20
424.545458
 30
0.0
 10
194.051424
 20
424.067847
 30
0.0
 10
194.447112
 20
423.610421
 30
0.0
 10
194.799316
 20
423.167168
 30
0.0
 10
195.108491
 20
422.742708
 30
0.0
 10
195.374409
 20
422.343449
 30
0.0
 10
195.603675
 20
421.965846
 30
0.0
 10
195.792348
 20
421.623534
 30
0.0
 10
195.949898
 20
421.307188
 30
0.0
 10
196.173580
 20
420.779519
 30
0.0
 10
196.300260
 20
420.394914
 30
0.0
 10
196.354147
 20
420.172281
 30
0.0
 10
196.363756
 20
419.691157
 30
0.0
 10
196.408487
 20
419.230301
 30
0.0
 10
196.484965
 20
418.815564
 30
0.0
 10
196.589394
 20
418.448733
 30
0.0
 10
196.717888
 20
418.131309
 30
0.0
 10
196.866452
 20
417.864654
 30
0.0
 10
197.031031
 20
417.649732
 30
0.0
 10
197.207573
 20
417.487392
 30
0.0
 10
197.391966
 20
417.378173
 30
0.0
 10
197.580045
 20
417.322359
 30
0.0
 10
197.697626
 20
417.314620
 30
0.0
 10
198.494246
 20
417.355893
 30
0.0
 10
199.226711
 20
417.368301
 30
0.0
 10
199.959155
 20
417.355914
 30
0.0
 10
200.755775
 20
417.314641
 30
0.0
 10
200.873356
 20
417.322380
 30
0.0
 10
201.061434
 20
417.378194
 30
0.0
 10
201.245828
 20
417.487413
 30
0.0
 10
201.422369
 20
417.649753
 30
0.0
 10
201.586949
 20
417.864676
 30
0.0
 10
201.735513
 20
418.131331
 30
0.0
 10
201.864007
 20
418.448754
 30
0.0
 10
201.968435
 20
418.815585
 30
0.0
 10
202.044914
 20
419.230322
 30
0.0
 10
202.089645
 20
419.691179
 30
0.0
 10
202.099254
 20
420.172303
 30
0.0
 10
202.153141
 20
420.394936
 30
0.0
 10
202.279821
 20
420.779540
 30
0.0
 10
202.503503
 20
421.307209
 30
0.0
 10
202.661052
 20
421.623555
 30
0.0
 10
202.849726
 20
421.965867
 30
0.0
 10
203.078992
 20
422.343470
 30
0.0
 10
203.344910
 20
422.742729
 30
0.0
 10
203.654085
 20
423.167189
 30
0.0
 10
204.006289
 20
423.610442
 30
0.0
 10
204.401977
 20
424.067869
 30
0.0
 10
204.851438
 20
424.545478
 30
0.0
 10
205.348039
 20
425.030712
 30
0.0
 10
205.810852
 20
425.448346
 30
0.0
  0
SPLINE
  5
10c
100
AcDbEntity
  8
0
 62
7
100
AcDbSpline
 70
8
 71
3
 72
8
 73
4
 74
0
 40
0
 40
0
 40
0
 40
0
 40
1
 40
1
 40
1
 40
1
 10
219.725421
 20
418.191506
 30
0.0
 10
220.364022
 20
417.605448
 30
0.0
 10
220.977197
 20
416.992274
 30
0.0
 10
221.563255
 20
416.353672
 30
0.0
  0
LWPOLYLINE
  5
10d
100
AcDbEntity
  8
0
 62
7
100
AcDbPolyline
 90
53
 70
0
 10
208.321380
 20
424.775654
 30
0.0
 10
208.513371
 20
424.182564
 30
0.0
 10
208.700823
 20
423.514039
 30
0.0
 10
208.851263
 20
422.875686
 30
0.0
 10
208.965227
 20
422.281699
 30
0.0
 10
209.048619
 20
421.721728
 30
0.0
 10
209.104142
 20
421.199548
 30
0.0
 10
209.134804
 20
420.720820
 30
0.0
 10
209.144555
 20
420.279174
 30
0.0
 10
209.136788
 20
419.888386
 30
0.0
 10
209.115046
 20
419.535648
 30
0.0
 10
209.044926
 20
418.966832
 30
0.0
 10
208.962333
 20
418.570414
 30
0.0
 10
208.897683
 20
418.350664
 30
0.0
 10
208.665444
 20
417.929194
 30
0.0
 10
208.473754
 20
417.507715
 30
0.0
 10
208.332617
 20
417.110303
 30
0.0
 10
208.239638
 20
416.740404
 30
0.0
 10
208.192205
 20
416.401260
 30
0.0
 10
208.187528
 20
416.096048
 30
0.0
 10
208.222596
 20
415.827630
 30
0.0
 10
208.294315
 20
415.598769
 30
0.0
 10
208.399395
 20
415.411986
 30
0.0
 10
208.534370
 20
415.269611
 30
0.0
 10
208.632329
 20
415.204119
 30
0.0
 10
209.342859
 20
414.841552
 30
0.0
 10
209.983367
 20
414.486058
 30
0.0
 10
210.611488
 20
414.109108
 30
0.0
 10
211.280745
 20
413.675055
 30
0.0
 10
211.386443
 20
413.622966
 30
0.0
 10
211.577232
 20
413.577263
 30
0.0
 10
211.791531
 20
413.579652
 30
0.0
 10
212.025590
 20
413.631971
 30
0.0
 10
212.275580
 20
413.735810
 30
0.0
 10
212.537567
 20
413.892458
 30
0.0
 10
212.807558
 20
414.103109
 30
0.0
 10
213.081410
 20
414.368579
 30
0.0
 10
213.355010
 20
414.689512
 30
0.0
 10
213.624176
 20
415.066260
 30
0.0
 10
213.873061
 20
415.478121
 30
0.0
 10
214.031044
 20
415.643985
 30
0.0
 10
214.333055
 20
415.913721
 30
0.0
 10
214.790603
 20
416.258855
 30
0.0
 10
215.085218
 20
416.454043
 30
0.0
 10
215.419770
 20
416.656156
 30
0.0
 10
215.807122
 20
416.868536
 30
0.0
 10
216.237044
 20
417.081347
 30
0.0
 10
216.717027
 20
417.294353
 30
0.0
 10
217.243671
 20
417.502118
 30
0.0
 10
217.815060
 20
417.700416
 30
0.0
 10
218.443109
 20
417.889308
 30
0.0
 10
219.115796
 20
418.061232
 30
0.0
 10
219.725421
 20
418.191506
 30
0.0
  0
SPLINE
  5
10e
100
AcDbEntity
  8
0
 62
7
100
AcDbSpline
 70
8
 71
3
 72
8
 73
4
 74
0
 40
0
 40
0
 40
0
 40
0
 40
1
 40
1
 40
1
 40
1
 10
228.147403
 20
404.949632
 30
0.0
 10
228.407419
 20
404.122790
 30
0.0
 10
228.631856
 20
403.285178
 30
0.0
 10
228.820096
 20
402.439104
 30
0.0
  0
LWPOLYLINE
  5
10f
100
AcDbEntity
  8
0
 62
7
100
AcDbPolyline
 90
53
 70
0
 10
221.563255
 20
416.353672
 30
0.0
 10
221.432980
 20
415.744048
 30
0.0
 10
221.261056
 20
415.071361
 30
0.0
 10
221.072164
 20
414.443312
 30
0.0
 10
220.873867
 20
413.871923
 30
0.0
 10
220.666101
 20
413.345278
 30
0.0
 10
220.453095
 20
412.865295
 30
0.0
 10
220.240284
 20
412.435374
 30
0.0
 10
220.027904
 20
412.048022
 30
0.0
 10
219.825791
 20
411.713470
 30
0.0
 10
219.630603
 20
411.418855
 30
0.0
 10
219.285469
 20
410.961306
 30
0.0
 10
219.015733
 20
410.659296
 30
0.0
 10
218.849870
 20
410.501313
 30
0.0
 10
218.438009
 20
410.252428
 30
0.0
 10
218.061261
 20
409.983262
 30
0.0
 10
217.740327
 20
409.709662
 30
0.0
 10
217.474857
 20
409.435810
 30
0.0
 10
217.264206
 20
409.165818
 30
0.0
 10
217.107558
 20
408.903832
 30
0.0
 10
217.003720
 20
408.653842
 30
0.0
 10
216.951401
 20
408.419783
 30
0.0
 10
216.949011
 20
408.205483
 30
0.0
 10
216.994714
 20
408.014695
 30
0.0
 10
217.046804
 20
407.908997
 30
0.0
 10
217.480856
 20
407.239740
 30
0.0
 10
217.857806
 20
406.611619
 30
0.0
 10
218.213300
 20
405.971110
 30
0.0
 10
218.575867
 20
405.260581
 30
0.0
 10
218.641359
 20
405.162621
 30
0.0
 10
218.783734
 20
405.027647
 30
0.0
 10
218.970518
 20
404.922567
 30
0.0
 10
219.199378
 20
404.850847
 30
0.0
 10
219.467796
 20
404.815780
 30
0.0
 10
219.773008
 20
404.820457
 30
0.0
 10
220.112152
 20
404.867889
 30
0.0
 10
220.482052
 20
404.960868
 30
0.0
 10
220.879464
 20
405.102005
 30
0.0
 10
221.300942
 20
405.293695
 30
0.0
 10
221.722413
 20
405.525935
 30
0.0
 10
221.942163
 20
405.590585
 30
0.0
 10
222.338580
 20
405.673178
 30
0.0
 10
222.907396
 20
405.743298
 30
0.0
 10
223.260134
 20
405.765040
 30
0.0
 10
223.650922
 20
405.772807
 30
0.0
 10
224.092569
 20
405.763056
 30
0.0
 10
224.571297
 20
405.732393
 30
0.0
 10
225.093477
 20
405.676871
 30
0.0
 10
225.653448
 20
405.593479
 30
0.0
 10
226.247434
 20
405.479515
 30
0.0
 10
226.885787
 20
405.329074
 30
0.0
 10
227.554313
 20
405.141622
 30
0.0
 10
228.147403
 20
404.949632
 30
0.0
  0
SPLINE
  5
110
100
AcDbEntity
  8
0
 62
7
100
AcDbSpline
 70
8
 71
3
 72
8
 73
4
 74
0
 40
0
 40
0
 40
0
 40
0
 40
1
 40
1
 40
1
 40
1
 10
228.820116
 20
389.270800
 30
0.0
 10
228.631876
 20
388.424726
 30
0.0
 10
228.407439
 20
387.587114
 30
0.0
 10
228.147423
 20
386.760272
 30
0.0
  0
LWPOLYLINE
  5
111
100
AcDbEntity
  8
0
 62
7
100
AcDbPolyline
 90
53
 70
0
 10
228.820096
 20
402.439104
 30
0.0
 10
228.402482
 20
401.976270
 30
0.0
 10
227.917247
 20
401.479669
 30
0.0
 10
227.439638
 20
401.030207
 30
0.0
 10
226.982212
 20
400.634519
 30
0.0
 10
226.538959
 20
400.282315
 30
0.0
 10
226.114499
 20
399.973140
 30
0.0
 10
225.715239
 20
399.707222
 30
0.0
 10
225.337636
 20
399.477956
 30
0.0
 10
224.995325
 20
399.289283
 30
0.0
 10
224.678979
 20
399.131733
 30
0.0
 10
224.151310
 20
398.908051
 30
0.0
 10
223.766705
 20
398.781371
 30
0.0
 10
223.544072
 20
398.727484
 30
0.0
 10
223.062948
 20
398.717875
 30
0.0
 10
222.602092
 20
398.673144
 30
0.0
 10
222.187355
 20
398.596666
 30
0.0
 10
221.820524
 20
398.492237
 30
0.0
 10
221.503100
 20
398.363743
 30
0.0
 10
221.236445
 20
398.215179
 30
0.0
 10
221.021523
 20
398.050600
 30
0.0
 10
220.859183
 20
397.874058
 30
0.0
 10
220.749964
 20
397.689665
 30
0.0
 10
220.694150
 20
397.501586
 30
0.0
 10
220.686411
 20
397.384005
 30
0.0
 10
220.727683
 20
396.587385
 30
0.0
 10
220.740071
 20
395.854941
 30
0.0
 10
220.727683
 20
395.122498
 30
0.0
 10
220.686411
 20
394.325878
 30
0.0
 10
220.694150
 20
394.208297
 30
0.0
 10
220.749964
 20
394.020218
 30
0.0
 10
220.859183
 20
393.835824
 30
0.0
 10
221.021523
 20
393.659283
 30
0.0
 10
221.236445
 20
393.494703
 30
0.0
 10
221.503100
 20
393.346140
 30
0.0
 10
221.820524
 20
393.217645
 30
0.0
 10
222.187355
 20
393.113217
 30
0.0
 10
222.602092
 20
393.036738
 30
0.0
 10
223.062948
 20
392.992008
 30
0.0
 10
223.544072
 20
392.982398
 30
0.0
 10
223.766705
 20
392.928512
 30
0.0
 10
224.151310
 20
392.801831
 30
0.0
 10
224.678979
 20
392.578150
 30
0.0
 10
224.995325
 20
392.420600
 30
0.0
 10
225.337636
 20
392.231926
 30
0.0
 10
225.715239
 20
392.002660
 30
0.0
 10
226.114499
 20
391.736742
 30
0.0
 10
226.538959
 20
391.427568
 30
0.0
 10
226.982212
 20
391.075363
 30
0.0
 10
227.439638
 20
390.679675
 30
0.0
 10
227.917247
 20
390.230214
 30
0.0
 10
228.402482
 20
389.733613
 30
0.0
 10
228.820116
 20
389.270800
 30
0.0
  0
SPLINE
  5
112
100
AcDbEntity
  8
0
 62
7
100
AcDbSpline
 70
8
 71
3
 72
8
 73
4
 74
0
 40
0
 40
0
 40
0
 40
0
 40
1
 40
1
 40
1
 40
1
 10
221.563276
 20
375.356208
 30
0.0
 10
220.977220
 20
374.717606
 30
0.0
 10
220.364047
 20
374.104430
 30
0.0
 10
219.725447
 20
373.518371
 30
0.0
  0
LWPOLYLINE
  5
113
100
AcDbEntity
  8
0
 62
7
100
AcDbPolyline
 90
53
 70
0
 10
228.147423
 20
386.760272
 30
0.0
 10
227.554334
 20
386.568282
 30
0.0
 10
226.885808
 20
386.380830
 30
0.0
 10
226.247456
 20
386.230390
 30
0.0
 10
225.653469
 20
386.116427
 30
0.0
 10
225.093498
 20
386.033036
 30
0.0
 10
224.571318
 20
385.977512
 30
0.0
 10
224.092590
 20
385.946850
 30
0.0
 10
223.650943
 20
385.937102
 30
0.0
 10
223.260156
 20
385.944861
 30
0.0
 10
222.907417
 20
385.966592
 30
0.0
 10
222.338602
 20
386.036713
 30
0.0
 10
221.942184
 20
386.119307
 30
0.0
 10
221.722435
 20
386.183956
 30
0.0
 10
221.300965
 20
386.416196
 30
0.0
 10
220.879486
 20
386.607886
 30
0.0
 10
220.482074
 20
386.749022
 30
0.0
 10
220.112175
 20
386.842000
 30
0.0
 10
219.773031
 20
386.889433
 30
0.0
 10
219.467819
 20
386.894100
 30
0.0
 10
219.199401
 20
386.859032
 30
0.0
 10
218.970539
 20
386.787312
 30
0.0
 10
218.783756
 20
386.682232
 30
0.0
 10
218.641380
 20
386.547258
 30
0.0
 10
218.575888
 20
386.449299
 30
0.0
 10
218.213321
 20
385.738770
 30
0.0
 10
217.857827
 20
385.098261
 30
0.0
 10
217.480877
 20
384.470140
 30
0.0
 10
217.046825
 20
383.800883
 30
0.0
 10
216.994735
 20
383.695185
 30
0.0
 10
216.949032
 20
383.504397
 30
0.0
 10
216.951422
 20
383.290098
 30
0.0
 10
217.003741
 20
383.056038
 30
0.0
 10
217.107579
 20
382.806048
 30
0.0
 10
217.264227
 20
382.544062
 30
0.0
 10
217.474878
 20
382.274071
 30
0.0
 10
217.740348
 20
382.000218
 30
0.0
 10
218.061282
 20
381.726619
 30
0.0
 10
218.438030
 20
381.457452
 30
0.0
 10
218.849891
 20
381.208568
 30
0.0
 10
219.015754
 20
381.050584
 30
0.0
 10
219.285490
 20
380.748574
 30
0.0
 10
219.630624
 20
380.291025
 30
0.0
 10
219.825812
 20
379.996410
 30
0.0
 10
220.027925
 20
379.661858
 30
0.0
 10
220.240305
 20
379.274506
 30
0.0
 10
220.453116
 20
378.844585
 30
0.0
 10
220.666122
 20
378.364602
 30
0.0
 10
220.873888
 20
377.837957
 30
0.0
 10
221.072185
 20
377.266568
 30
0.0
 10
221.261077
 20
376.638519
 30
0.0
 10
221.433001
 20
375.965832
 30
0.0
 10
221.563276
 20
375.356208
 30
0.0
  0
SPLINE
  5
114
100
AcDbEntity
  8
0
 62
7
100
AcDbSpline
 70
8
 71
3
 72
8
 73
4
 74
0
 40
0
 40
0
 40
0
 40
0
 40
1
 40
1
 40
1
 40
1
 10
208.321404
 20
366.934229
 30
0.0
 10
207.494554
 20
366.674213
 30
0.0
 10
206.656934
 20
366.449776
 30
0.0
 10
205.810852
 20
366.261537
 30
0.0
  0
LWPOLYLINE
  5
115
100
AcDbEntity
  8
0
 62
7
100
AcDbPolyline
 90
53
 70
0
 10
219.725447
 20
373.518371
 30
0.0
 10
219.115822
 20
373.648647
 30
0.0
 10
218.443136
 20
373.820571
 30
0.0
 10
217.815086
 20
374.009463
 30
0.0
 10
217.243697
 20
374.207762
 30
0.0
 10
216.717053
 20
374.415528
 30
0.0
 10
216.237070
 20
374.628533
 30
0.0
 10
215.807148
 20
374.841343
 30
0.0
 10
215.419797
 20
375.053724
 30
0.0
 10
215.085244
 20
375.255838
 30
0.0
 10
214.790629
 20
375.451027
 30
0.0
 10
214.333081
 20
375.796161
 30
0.0
 10
214.031070
 20
376.065898
 30
0.0
 10
213.873087
 20
376.231760
 30
0.0
 10
213.624203
 20
376.643621
 30
0.0
 10
213.355037
 20
377.020369
 30
0.0
 10
213.081436
 20
377.341303
 30
0.0
 10
212.807583
 20
377.606774
 30
0.0
 10
212.537592
 20
377.817423
 30
0.0
 10
212.275604
 20
377.974071
 30
0.0
 10
212.025613
 20
378.077910
 30
0.0
 10
211.791553
 20
378.130230
 30
0.0
 10
211.577254
 20
378.132619
 30
0.0
 10
211.386466
 20
378.086917
 30
0.0
 10
211.280769
 20
378.034828
 30
0.0
 10
210.611512
 20
377.600775
 30
0.0
 10
209.983391
 20
377.223825
 30
0.0
 10
209.342882
 20
376.868331
 30
0.0
 10
208.632353
 20
376.505764
 30
0.0
 10
208.534393
 20
376.440272
 30
0.0
 10
208.399419
 20
376.297897
 30
0.0
 10
208.294339
 20
376.111114
 30
0.0
 10
208.222619
 20
375.882253
 30
0.0
 10
208.187552
 20
375.613835
 30
0.0
 10
208.192229
 20
375.308623
 30
0.0
 10
208.239661
 20
374.969479
 30
0.0
 10
208.332640
 20
374.599580
 30
0.0
 10
208.473777
 20
374.202168
 30
0.0
 10
208.665467
 20
373.780689
 30
0.0
 10
208.897707
 20
373.359219
 30
0.0
 10
208.962357
 20
373.139469
 30
0.0
 10
209.044950
 20
372.743051
 30
0.0
 10
209.115070
 20
372.174235
 30
0.0
 10
209.136812
 20
371.821497
 30
0.0
 10
209.144579
 20
371.430709
 30
0.0
 10
209.134828
 20
370.989063
 30
0.0
 10
209.104165
 20
370.510335
 30
0.0
 10
209.048643
 20
369.988155
 30
0.0
 10
208.965251
 20
369.428184
 30
0.0
 10
208.851287
 20
368.834197
 30
0.0
 10
208.700847
 20
368.195844
 30
0.0
 10
208.513394
 20
367.527319
 30
0.0
 10
208.321404
 20
366.934229
 30
0.0
  0
SPLINE
  5
116
100
AcDbEntity
  8
0
 62
7
100
AcDbSpline
 70
8
 71
3
 72
8
 73
4
 74
0
 40
0
 40
0
 40
0
 40
0
 40
1
 40
1
 40
1
 40
1
 10
192.642570
 20
366.261537
 30
0.0
 10
191.796496
 20
366.449777
 30
0.0
 10
190.958884
 20
366.674213
 30
0.0
 10
190.132042
 20
366.934229
 30
0.0
  0
LWPOLYLINE
  5
117
100
AcDbEntity
  8
0
 62
7
100
AcDbPolyline
 90
53
 70
0
 10
205.810852
 20
366.261537
 30
0.0
 10
205.348039
 20
366.679170
 30
0.0
 10
204.851438
 20
367.164405
 30
0.0
 10
204.401977
 20
367.642014
 30
0.0
 10
204.006289
 20
368.099440
 30
0.0
 10
203.654085
 20
368.542694
 30
0.0
 10
203.344910
 20
368.967153
 30
0.0
 10
203.078992
 20
369.366413
 30
0.0
 10
202.849726
 20
369.744016
 30
0.0
 10
202.661052
 20
370.086327
 30
0.0
 10
202.503503
 20
370.402674
 30
0.0
 10
202.279821
 20
370.930343
 30
0.0
 10
202.153141
 20
371.314947
 30
0.0
 10
202.099254
 20
371.537580
 30
0.0
 10
202.089645
 20
372.018704
 30
0.0
 10
202.044914
 20
372.479561
 30
0.0
 10
201.968435
 20
372.894297
 30
0.0
 10
201.864007
 20
373.261129
 30
0.0
 10
201.735513
 20
373.578552
 30
0.0
 10
201.586949
 20
373.845207
 30
0.0
 10
201.422369
 20
374.060130
 30
0.0
 10
201.245828
 20
374.222470
 30
0.0
 10
201.061434
 20
374.331689
 30
0.0
 10
200.873356
 20
374.387503
 30
0.0
 10
200.755775
 20
374.395241
 30
0.0
 10
199.959155
 20
374.353969
 30
0.0
 10
199.226711
 20
374.341581
 30
0.0
 10
198.494267
 20
374.353969
 30
0.0
 10
197.697647
 20
374.395241
 30
0.0
 10
197.580066
 20
374.387503
 30
0.0
 10
197.391988
 20
374.331689
 30
0.0
 10
197.207594
 20
374.222470
 30
0.0
 10
197.031052
 20
374.060130
 30
0.0
 10
196.866473
 20
373.845207
 30
0.0
 10
196.717909
 20
373.578552
 30
0.0
 10
196.589415
 20
373.261129
 30
0.0
 10
196.484987
 20
372.894297
 30
0.0
 10
196.408508
 20
372.479561
 30
0.0
 10
196.363777
 20
372.018704
 30
0.0
 10
196.354168
 20
371.537580
 30
0.0
 10
196.300281
 20
371.314947
 30
0.0
 10
196.173601
 20
370.930343
 30
0.0
 10
195.949919
 20
370.402674
 30
0.0
 10
195.792370
 20
370.086327
 30
0.0
 10
195.603696
 20
369.744016
 30
0.0
 10
195.374430
 20
369.366413
 30
0.0
 10
195.108512
 20
368.967153
 30
0.0
 10
194.799337
 20
368.542694
 30
0.0
 10
194.447133
 20
368.099440
 30
0.0
 10
194.051445
 20
367.642014
 30
0.0
 10
193.601984
 20
367.164405
 30
0.0
 10
193.105382
 20
366.679170
 30
0.0
 10
192.642570
 20
366.261537
 30
0.0
  0
SPLINE
  5
118
100
AcDbEntity
  8
0
 62
7
100
AcDbSpline
 70
8
 71
3
 72
8
 73
4
 74
0
 40
0
 40
0
 40
0
 40
0
 40
1
 40
1
 40
1
 40
1
 10
178.727977
 20
373.518377
 30
0.0
 10
178.089375
 20
374.104433
 30
0.0
 10
177.476200
 20
374.717606
 30
0.0
 10
176.890141
 20
375.356205
 30
0.0
  0
LWPOLYLINE
  5
119
100
AcDbEntity
  8
0
 62
7
100
AcDbPolyline
 90
53
 70
0
 10
190.132042
 20
366.934229
 30
0.0
 10
189.940051
 20
367.527318
 30
0.0
 10
189.752599
 20
368.195844
 30
0.0
 10
189.602159
 20
368.834197
 30
0.0
 10
189.488195
 20
369.428183
 30
0.0
 10
189.404802
 20
369.988154
 30
0.0
 10
189.349280
 20
370.510334
 30
0.0
 10
189.318618
 20
370.989062
 30
0.0
 10
189.308867
 20
371.430709
 30
0.0
 10
189.316634
 20
371.821497
 30
0.0
 10
189.338375
 20
372.174235
 30
0.0
 10
189.408496
 20
372.743051
 30
0.0
 10
189.491089
 20
373.139468
 30
0.0
 10
189.555739
 20
373.359218
 30
0.0
 10
189.787978
 20
373.780689
 30
0.0
 10
189.979668
 20
374.202167
 30
0.0
 10
190.120805
 20
374.599579
 30
0.0
 10
190.213784
 20
374.969479
 30
0.0
 10
190.261216
 20
375.308623
 30
0.0
 10
190.265894
 20
375.613835
 30
0.0
 10
190.230826
 20
375.882253
 30
0.0
 10
190.159107
 20
376.111113
 30
0.0
 10
190.054027
 20
376.297897
 30
0.0
 10
189.919052
 20
376.440272
 30
0.0
 10
189.821069
 20
376.505764
 30
0.0
 10
189.110539
 20
376.868331
 30
0.0
 10
188.470031
 20
377.223825
 30
0.0
 10
187.841910
 20
377.600775
 30
0.0
 10
187.172653
 20
378.034828
 30
0.0
 10
187.066955
 20
378.086917
 30
0.0
 10
186.876166
 20
378.132620
 30
0.0
 10
186.661867
 20
378.130231
 30
0.0
 10
186.427808
 20
378.077912
 30
0.0
 10
186.177818
 20
377.974073
 30
0.0
 10
185.915831
 20
377.817425
 30
0.0
 10
185.645840
 20
377.606774
 30
0.0
 10
185.371988
 20
377.341304
 30
0.0
 10
185.098388
 20
377.020371
 30
0.0
 10
184.829222
 20
376.643623
 30
0.0
 10
184.580337
 20
376.231762
 30
0.0
 10
184.422354
 20
376.065898
 30
0.0
 10
184.120343
 20
375.796162
 30
0.0
 10
183.662795
 20
375.451028
 30
0.0
 10
183.368180
 20
375.255840
 30
0.0
 10
183.033628
 20
375.053727
 30
0.0
 10
182.646276
 20
374.841347
 30
0.0
 10
182.216354
 20
374.628536
 30
0.0
 10
181.736372
 20
374.415530
 30
0.0
 10
181.209727
 20
374.207765
 30
0.0
 10
180.638338
 20
374.009467
 30
0.0
 10
180.010289
 20
373.820575
 30
0.0
 10
179.337602
 20
373.648651
 30
0.0
 10
178.727977
 20
373.518377
 30
0.0
  0
LWPOLYLINE
  5
11a
100
AcDbEntity
  8
0
 62
7
100
AcDbPolyline
 90
2
 70
0
 10
176.890141
 20
375.356205
 30
0.0
 10
177.020416
 20
375.965830
 30
0.0
  0
LWPOLYLINE
  5
11b
100
AcDbEntity
  8
0
 62
7
100
AcDbPolyline
 90
2
 70
0
 10
0.000000
 20
399.256514
 30
0.0
 10
0.000000
 20
392.453369
 30
0.0
  0
LWPOLYLINE
  5
11c
100
AcDbEntity
  8
0
 62
7
100
AcDbPolyline
 90
2
 70
0
 10
-3.401573
 20
395.854941
 30
0.0
 10
3.401573
 20
395.854941
 30
0.0
  0
SPLINE
  5
11d
100
AcDbEntity
  8
0
 62
7
100
AcDbSpline
 70
8
 71
3
 72
8
 73
4
 74
0
 40
0
 40
0
 40
0
 40
0
 40
1
 40
1
 40
1
 40
1
 10
177.563373
 20
397.546570
 30
0.0
 10
177.574117
 20
396.418841
 30
0.0
 10
177.574117
 20
395.291035
 30
0.0
 10
177.563373
 20
394.163305
 30
0.0
  0
LWPOLYLINE
  5
11e
100
AcDbEntity
  8
0
 62
7
100
AcDbPolyline
 90
26
 70
0
 10
175.862329
 20
407.447093
 30
0.0
 10
174.617858
 20
406.848051
 30
0.0
 10
173.431134
 20
406.307078
 30
0.0
 10
172.296681
 20
405.818343
 30
0.0
 10
171.215766
 20
405.379284
 30
0.0
 10
170.198625
 20
404.990731
 30
0.0
 10
168.791097
 20
404.481111
 30
0.0
 10
168.639897
 20
404.386377
 30
0.0
 10
168.593550
 20
404.338429
 30
0.0
 10
168.566621
 20
404.290679
 30
0.0
 10
168.559251
 20
404.243468
 30
0.0
 10
168.580795
 20
403.808355
 30
0.0
 10
168.637601
 20
402.480738
 30
0.0
 10
168.685109
 20
401.152755
 30
0.0
 10
168.697582
 20
400.717284
 30
0.0
 10
168.708637
 20
400.670796
 30
0.0
 10
168.739166
 20
400.625300
 30
0.0
 10
168.789141
 20
400.581136
 30
0.0
 10
168.947314
 20
400.498557
 30
0.0
 10
170.390488
 20
400.100941
 30
0.0
 10
171.434978
 20
399.793390
 30
0.0
 10
172.547008
 20
399.440492
 30
0.0
 10
173.716310
 20
399.042272
 30
0.0
 10
174.941820
 20
398.596076
 30
0.0
 10
176.229455
 20
398.096521
 30
0.0
 10
177.563373
 20
397.546570
 30
0.0
  0
SPLINE
  5
11f
100
AcDbEntity
  8
0
 62
7
100
AcDbSpline
 70
8
 71
3
 72
8
 73
4
 74
0
 40
0
 40
0
 40
0
 40
0
 40
1
 40
1
 40
1
 40
1
 10
177.148985
 20
383.609870
 30
0.0
 10
177.071219
 20
382.484775
 30
0.0
 10
176.982736
 20
381.360445
 30
0.0
 10
176.883549
 20
380.237035
 30
0.0
  0
LWPOLYLINE
  5
120
100
AcDbEntity
  8
0
 62
7
100
AcDbPolyline
 90
27
 70
0
 10
177.563373
 20
394.163305
 30
0.0
 10
176.229455
 20
393.613355
 30
0.0
 10
174.941820
 20
393.113800
 30
0.0
 10
173.716310
 20
392.667604
 30
0.0
 10
172.547008
 20
392.269384
 30
0.0
 10
171.434978
 20
391.916486
 30
0.0
 10
170.390488
 20
391.608935
 30
0.0
 10
168.947314
 20
391.211319
 30
0.0
 10
168.789141
 20
391.128740
 30
0.0
 10
168.739166
 20
391.084576
 30
0.0
 10
168.708637
 20
391.039080
 30
0.0
 10
168.697582
 20
390.992592
 30
0.0
 10
168.685109
 20
390.557121
 30
0.0
 10
168.637601
 20
389.229138
 30
0.0
 10
168.580795
 20
387.901521
 30
0.0
 10
168.559251
 20
387.466408
 30
0.0
 10
168.566621
 20
387.419197
 30
0.0
 10
168.593550
 20
387.371447
 30
0.0
 10
168.639897
 20
387.323499
 30
0.0
 10
168.791097
 20
387.228765
 30
0.0
 10
170.198625
 20
386.719145
 30
0.0
 10
171.215766
 20
386.330592
 30
0.0
 10
172.296681
 20
385.891533
 30
0.0
 10
173.431134
 20
385.402798
 30
0.0
 10
174.617858
 20
384.861825
 30
0.0
 10
175.862329
 20
384.262783
 30
0.0
 10
177.148985
 20
383.609870
 30
0.0
  0
SPLINE
  5
121
100
AcDbEntity
  8
0
 62
7
100
AcDbSpline
 70
8
 71
3
 72
8
 73
4
 74
0
 40
0
 40
0
 40
0
 40
0
 40
1
 40
1
 40
1
 40
1
 10
175.642088
 20
369.748668
 30
0.0
 10
175.476284
 20
368.633142
 30
0.0
 10
175.299856
 20
367.519221
 30
0.0
 10
175.112829
 20
366.407056
 30
0.0
  0
LWPOLYLINE
  5
122
100
AcDbEntity
  8
0
 62
7
100
AcDbPolyline
 90
27
 70
0
 10
176.883549
 20
380.237035
 30
0.0
 10
175.510595
 20
379.793438
 30
0.0
 10
174.187734
 20
379.396449
 30
0.0
 10
172.930992
 20
379.047781
 30
0.0
 10
171.734052
 20
378.742531
 30
0.0
 10
170.597763
 20
378.477970
 30
0.0
 10
169.532362
 20
378.253316
 30
0.0
 10
168.062440
 20
377.970155
 30
0.0
 10
167.898286
 20
377.900242
 30
0.0
 10
167.845023
 20
377.860134
 30
0.0
 10
167.811036
 20
377.817175
 30
0.0
 10
167.796295
 20
377.771699
 30
0.0
 10
167.749637
 20
377.338554
 30
0.0
 10
167.598069
 20
376.018394
 30
0.0
 10
167.437259
 20
374.699327
 30
0.0
 10
167.381530
 20
374.267255
 30
0.0
 10
167.385215
 20
374.219613
 30
0.0
 10
167.408176
 20
374.169902
 30
0.0
 10
167.450611
 20
374.118464
 30
0.0
 10
167.593902
 20
374.012160
 30
0.0
 10
168.957105
 20
373.393677
 30
0.0
 10
169.940624
 20
372.926517
 30
0.0
 10
170.983759
 20
372.404005
 30
0.0
 10
172.076370
 20
371.827768
 30
0.0
 10
173.216991
 20
371.195354
 30
0.0
 10
174.410625
 20
370.500518
 30
0.0
 10
175.642088
 20
369.748668
 30
0.0
  0
SPLINE
  5
123
100
AcDbEntity
  8
0
 62
7
100
AcDbSpline
 70
8
 71
3
 72
8
 73
4
 74
0
 40
0
 40
0
 40
0
 40
0
 40
1
 40
1
 40
1
 40
1
 10
173.052326
 20
356.048442
 30
0.0
 10
172.799510
 20
354.949364
 30
0.0
 10
172.536228
 20
353.852719
 30
0.0
 10
172.262518
 20
352.758657
 30
0.0
  0
LWPOLYLINE
  5
124
100
AcDbEntity
  8
0
 62
7
100
AcDbPolyline
 90
27
 70
0
 10
175.112829
 20
366.407056
 30
0.0
 10
173.709303
 20
366.072548
 30
0.0
 10
172.359375
 20
365.780571
 30
0.0
 10
171.079150
 20
365.531576
 30
0.0
 10
169.861952
 20
365.321189
 30
0.0
 10
168.708407
 20
365.146603
 30
0.0
 10
167.628663
 20
365.006232
 30
0.0
 10
166.141056
 20
364.839271
 30
0.0
 10
165.971913
 20
364.782465
 30
0.0
 10
165.915674
 20
364.746663
 30
0.0
 10
165.878398
 20
364.706496
 30
0.0
 10
165.860256
 20
364.662304
 30
0.0
 10
165.779752
 20
364.234157
 30
0.0
 10
165.525060
 20
362.929957
 30
0.0
 10
165.261268
 20
361.627574
 30
0.0
 10
165.171806
 20
361.201207
 30
0.0
 10
165.171696
 20
361.153415
 30
0.0
 10
165.190688
 20
361.102051
 30
0.0
 10
165.228956
 20
361.047456
 30
0.0
 10
165.363460
 20
360.930243
 30
0.0
 10
166.673935
 20
360.206712
 30
0.0
 10
167.617770
 20
359.663827
 30
0.0
 10
168.616692
 20
359.061082
 30
0.0
 10
169.660723
 20
358.400896
 30
0.0
 10
170.748209
 20
357.680939
 30
0.0
 10
171.883648
 20
356.894595
 30
0.0
 10
173.052326
 20
356.048442
 30
0.0
  0
SPLINE
  5
125
100
AcDbEntity
  8
0
 62
7
100
AcDbSpline
 70
8
 71
3
 72
8
 73
4
 74
0
 40
0
 40
0
 40
0
 40
0
 40
1
 40
1
 40
1
 40
1
 10
169.395636
 20
342.593652
 30
0.0
 10
169.057366
 20
341.517797
 30
0.0
 10
168.708854
 20
340.445189
 30
0.0
 10
168.350148
 20
339.375974
 30
0.0
  0
LWPOLYLINE
  5
126
100
AcDbEntity
  8
0
 62
7
100
AcDbPolyline
 90
27
 70
0
 10
172.262518
 20
352.758657
 30
0.0
 10
170.837075
 20
352.535287
 30
0.0
 10
169.468398
 20
352.350128
 30
0.0
 10
168.172586
 20
352.202358
 30
0.0
 10
166.942631
 20
352.088093
 30
0.0
 10
165.778945
 20
352.004556
 30
0.0
 10
164.691516
 20
351.949337
 30
0.0
 10
163.195396
 20
351.899618
 30
0.0
 10
163.022313
 20
351.856248
 30
0.0
 10
162.963409
 20
351.824982
 30
0.0
 10
162.923100
 20
351.787876
 30
0.0
 10
162.901557
 20
351.745243
 30
0.0
 10
162.787689
 20
351.324732
 30
0.0
 10
162.431468
 20
350.044536
 30
0.0
 10
162.066295
 20
348.766866
 30
0.0
 10
161.943669
 20
348.348832
 30
0.0
 10
161.939700
 20
348.301210
 30
0.0
 10
161.954724
 20
348.248514
 30
0.0
 10
161.988598
 20
348.191084
 30
0.0
 10
162.113492
 20
348.063667
 30
0.0
 10
163.363159
 20
347.239545
 30
0.0
 10
164.261492
 20
346.624280
 30
0.0
 10
165.210043
 20
345.945020
 30
0.0
 10
166.199059
 20
345.204954
 30
0.0
 10
167.226705
 20
344.401894
 30
0.0
 10
168.296947
 20
343.528889
 30
0.0
 10
169.395636
 20
342.593652
 30
0.0
  0
SPLINE
  5
127
100
AcDbEntity
  8
0
 62
7
100
AcDbSpline
 70
8
 71
3
 72
8
 73
4
 74
0
 40
0
 40
0
 40
0
 40
0
 40
1
 40
1
 40
1
 40
1
 10
164.694435
 20
329.467122
 30
0.0
 10
164.272798
 20
328.421124
 30
0.0
 10
163.841204
 20
327.379166
 30
0.0
 10
163.399715
 20
326.341391
 30
0.0
  0
LWPOLYLINE
  5
128
100
AcDbEntity
  8
0
 62
7
100
AcDbPolyline
 90
27
 70
0
 10
168.350148
 20
339.375974
 30
0.0
 10
166.911572
 20
339.265139
 30
0.0
 10
165.532589
 20
339.187924
 30
0.0
 10
164.229177
 20
339.142258
 30
0.0
 10
162.994049
 20
339.124966
 30
0.0
 10
161.827394
 20
339.132903
 30
0.0
 10
160.738985
 20
339.163177
 30
0.0
 10
159.243577
 20
339.230982
 30
0.0
 10
159.067630
 20
339.201332
 30
0.0
 10
159.006459
 20
339.174686
 30
0.0
 10
158.963372
 20
339.140840
 30
0.0
 10
158.938427
 20
339.100050
 30
0.0
 10
158.791933
 20
338.689769
 30
0.0
 10
158.336366
 20
337.441468
 30
0.0
 10
157.872074
 20
336.196385
 30
0.0
 10
157.717019
 20
335.789262
 30
0.0
 10
157.709365
 20
335.742094
 30
0.0
 10
157.720137
 20
335.688377
 30
0.0
 10
157.749391
 20
335.628453
 30
0.0
 10
157.863910
 20
335.491625
 30
0.0
 10
159.045067
 20
334.571995
 30
0.0
 10
159.892359
 20
333.888146
 30
0.0
 10
160.784693
 20
333.136557
 30
0.0
 10
161.712591
 20
332.321175
 30
0.0
 10
162.674066
 20
331.439963
 30
0.0
 10
163.672512
 20
330.485677
 30
0.0
 10
164.694435
 20
329.467122
 30
0.0
  0
SPLINE
  5
129
100
AcDbEntity
  8
0
 62
7
100
AcDbSpline
 70
8
 71
3
 72
8
 73
4
 74
0
 40
0
 40
0
 40
0
 40
0
 40
1
 40
1
 40
1
 40
1
 10
158.977735
 20
316.749736
 30
0.0
 10
158.475329
 20
315.740044
 30
0.0
 10
157.963315
 20
314.735162
 30
0.0
 10
157.441764
 20
313.735225
 30
0.0
  0
LWPOLYLINE
  5
12a
100
AcDbEntity
  8
0
 62
7
100
AcDbPolyline
 90
27
 70
0
 10
163.399715
 20
326.341391
 30
0.0
 10
161.956878
 20
326.343772
 30
0.0
 10
160.576089
 20
326.375010
 30
0.0
 10
159.273114
 20
326.431760
 30
0.0
 10
158.040426
 20
326.511328
 30
0.0
 10
156.877998
 20
326.610852
 30
0.0
 10
155.795317
 20
326.726421
 30
0.0
 10
154.309839
 20
326.911353
 30
0.0
 10
154.132107
 20
326.895479
 30
0.0
 10
154.069036
 20
326.873652
 30
0.0
 10
154.023427
 20
326.843293
 30
0.0
 10
153.995364
 20
326.804572
 30
0.0
 10
153.817121
 20
326.407050
 30
0.0
 10
153.265018
 20
325.198341
 30
0.0
 10
152.704470
 20
323.993524
 30
0.0
 10
152.517950
 20
323.599823
 30
0.0
 10
152.506612
 20
323.553391
 30
0.0
 10
152.513131
 20
323.498994
 30
0.0
 10
152.537509
 20
323.436972
 30
0.0
 10
152.640946
 20
323.291584
 30
0.0
 10
153.746306
 20
322.282119
 30
0.0
 10
154.537331
 20
321.533897
 30
0.0
 10
155.367944
 20
320.714612
 30
0.0
 10
156.229009
 20
319.828944
 30
0.0
 10
157.118379
 20
318.875010
 30
0.0
 10
158.038876
 20
317.845331
 30
0.0
 10
158.977735
 20
316.749736
 30
0.0
  0
SPLINE
  5
12b
100
AcDbEntity
  8
0
 62
7
100
AcDbSpline
 70
8
 71
3
 72
8
 73
4
 74
0
 40
0
 40
0
 40
0
 40
0
 40
1
 40
1
 40
1
 40
1
 10
152.281283
 20
304.520254
 30
0.0
 10
151.701206
 20
303.553093
 30
0.0
 10
151.111929
 20
302.591479
 30
0.0
 10
150.513531
 20
301.635545
 30
0.0
  0
LWPOLYLINE
  5
12c
100
AcDbEntity
  8
0
 62
7
100
AcDbPolyline
 90
27
 70
0
 10
157.441764
 20
313.735225
 30
0.0
 10
156.003562
 20
313.850794
 30
0.0
 10
154.629479
 20
313.990258
 30
0.0
 10
153.334971
 20
314.149055
 30
0.0
 10
152.112330
 20
314.325086
 30
0.0
 10
150.961291
 20
314.515489
 30
0.0
 10
149.891015
 20
314.715643
 30
0.0
 10
148.424625
 20
315.016549
 30
0.0
 10
148.246213
 20
315.014778
 30
0.0
 10
148.181640
 20
314.998053
 30
0.0
 10
148.133791
 20
314.971408
 30
0.0
 10
148.102837
 20
314.935011
 30
0.0
 10
147.893952
 20
314.552697
 30
0.0
 10
147.248716
 20
313.391031
 30
0.0
 10
146.595367
 20
312.233910
 30
0.0
 10
146.378517
 20
311.856055
 30
0.0
 10
146.363777
 20
311.810644
 30
0.0
 10
146.366033
 20
311.755907
 30
0.0
 10
146.385592
 20
311.692156
 30
0.0
 10
146.477293
 20
311.539113
 30
0.0
 10
147.500047
 20
310.446035
 30
0.0
 10
148.229928
 20
309.638059
 30
0.0
 10
148.993700
 20
308.756128
 30
0.0
 10
149.782624
 20
307.805632
 30
0.0
 10
150.594406
 20
306.784860
 30
0.0
 10
151.431278
 20
305.686132
 30
0.0
 10
152.281283
 20
304.520254
 30
0.0
  0
SPLINE
  5
12d
100
AcDbEntity
  8
0
 62
7
100
AcDbSpline
 70
8
 71
3
 72
8
 73
4
 74
0
 40
0
 40
0
 40
0
 40
0
 40
1
 40
1
 40
1
 40
1
 10
144.645784
 20
292.853722
 30
0.0
 10
143.991613
 20
291.935055
 30
0.0
 10
143.328706
 20
291.022640
 30
0.0
 10
142.657151
 20
290.116604
 30
0.0
  0
LWPOLYLINE
  5
12e
100
AcDbEntity
  8
0
 62
7
100
AcDbPolyline
 90
27
 70
0
 10
150.513531
 20
301.635545
 30
0.0
 10
149.088831
 20
301.863620
 30
0.0
 10
147.729925
 20
302.110461
 30
0.0
 10
146.451869
 20
302.370341
 30
0.0
 10
145.246808
 20
302.641758
 30
0.0
 10
144.114257
 20
302.921906
 30
0.0
 10
143.062987
 20
303.205419
 30
0.0
 10
141.624726
 20
303.620453
 30
0.0
 10
141.446710
 20
303.632642
 30
0.0
 10
141.381031
 20
303.621020
 30
0.0
 10
141.331227
 20
303.598059
 30
0.0
 10
141.297523
 20
303.564185
 30
0.0
 10
141.059299
 20
303.199440
 30
0.0
 10
140.324911
 20
302.091979
 30
0.0
 10
139.582790
 20
300.989685
 30
0.0
 10
139.336970
 20
300.630009
 30
0.0
 10
139.318544
 20
300.585902
 30
0.0
 10
139.316498
 20
300.531165
 30
0.0
 10
139.330954
 20
300.466081
 30
0.0
 10
139.410381
 20
300.306321
 30
0.0
 10
140.344218
 20
299.136367
 30
0.0
 10
141.008457
 20
298.273615
 30
0.0
 10
141.700680
 20
297.334480
 30
0.0
 10
142.412595
 20
296.325015
 30
0.0
 10
143.141787
 20
295.243698
 30
0.0
 10
143.889875
 20
294.082698
 30
0.0
 10
144.645784
 20
292.853722
 30
0.0
  0
SPLINE
  5
12f
100
AcDbEntity
  8
0
 62
7
100
AcDbSpline
 70
8
 71
3
 72
8
 73
4
 74
0
 40
0
 40
0
 40
0
 40
0
 40
1
 40
1
 40
1
 40
1
 10
136.118634
 20
281.822336
 30
0.0
 10
135.394544
 20
280.958022
 30
0.0
 10
134.662238
 20
280.100625
 30
0.0
 10
133.921816
 20
279.250260
 30
0.0
  0
LWPOLYLINE
  5
130
100
AcDbEntity
  8
0
 62
7
100
AcDbPolyline
 90
27
 70
0
 10
142.657151
 20
290.116604
 30
0.0
 10
141.254737
 20
290.455740
 30
0.0
 10
139.919387
 20
290.808444
 30
0.0
 10
138.665661
 20
291.167803
 30
0.0
 10
137.485607
 20
291.532931
 30
0.0
 10
136.378528
 20
291.901069
 30
0.0
 10
135.352741
 20
292.266191
 30
0.0
 10
133.951478
 20
292.792788
 30
0.0
 10
133.774993
 20
292.818867
 30
0.0
 10
133.708605
 20
292.812631
 30
0.0
 10
133.657157
 20
292.793638
 30
0.0
 10
133.620902
 20
292.762514
 30
0.0
 10
133.354785
 20
292.417583
 30
0.0
 10
132.535769
 20
291.371157
 30
0.0
 10
131.709450
 20
290.330486
 30
0.0
 10
131.436162
 20
289.991207
 30
0.0
 10
131.414335
 20
289.948688
 30
0.0
 10
131.408099
 20
289.894263
 30
0.0
 10
131.417453
 20
289.828244
 30
0.0
 10
131.484096
 20
289.662729
 30
0.0
 10
132.323261
 20
288.423114
 30
0.0
 10
132.917760
 20
287.510905
 30
0.0
 10
133.534167
 20
286.520353
 30
0.0
 10
134.164685
 20
285.458144
 30
0.0
 10
134.806789
 20
284.322949
 30
0.0
 10
135.461478
 20
283.106832
 30
0.0
 10
136.118634
 20
281.822336
 30
0.0
  0
SPLINE
  5
131
100
AcDbEntity
  8
0
 62
7
100
AcDbSpline
 70
8
 71
3
 72
8
 73
4
 74
0
 40
0
 40
0
 40
0
 40
0
 40
1
 40
1
 40
1
 40
1
 10
126.752690
 20
271.494816
 30
0.0
 10
125.962862
 20
270.689794
 30
0.0
 10
125.165383
 20
269.892315
 30
0.0
 10
124.360361
 20
269.102487
 30
0.0
  0
LWPOLYLINE
  5
132
100
AcDbEntity
  8
0
 62
7
100
AcDbPolyline
 90
27
 70
0
 10
133.921816
 20
279.250260
 30
0.0
 10
132.550333
 20
279.698386
 30
0.0
 10
131.246774
 20
280.154772
 30
0.0
 10
130.025108
 20
280.611388
 30
0.0
 10
128.877340
 20
281.067978
 30
0.0
 10
127.802557
 20
281.521839
 30
0.0
 10
126.808580
 20
281.966319
 30
0.0
 10
125.452952
 20
282.601234
 30
0.0
 10
125.279046
 20
282.641146
 30
0.0
 10
125.212375
 20
282.640012
 30
0.0
 10
125.159623
 20
282.625272
 30
0.0
 10
125.121043
 20
282.597209
 30
0.0
 10
124.828689
 20
282.274221
 30
0.0
 10
123.930096
 20
281.295280
 30
0.0
 10
123.024677
 20
280.322648
 30
0.0
 10
122.725619
 20
280.005857
 30
0.0
 10
122.700674
 20
279.965180
 30
0.0
 10
122.690186
 20
279.911435
 30
0.0
 10
122.694154
 20
279.844877
 30
0.0
 10
122.747587
 20
279.674657
 30
0.0
 10
123.486908
 20
278.373025
 30
0.0
 10
124.008003
 20
277.416985
 30
0.0
 10
124.544791
 20
276.381124
 30
0.0
 10
125.090027
 20
275.272719
 30
0.0
 10
125.641087
 20
274.090644
 30
0.0
 10
126.198341
 20
272.826911
 30
0.0
 10
126.752690
 20
271.494816
 30
0.0
  0
SPLINE
  5
133
100
AcDbEntity
  8
0
 62
7
100
AcDbSpline
 70
8
 71
3
 72
8
 73
4
 74
0
 40
0
 40
0
 40
0
 40
0
 40
1
 40
1
 40
1
 40
1
 10
116.604838
 20
261.933205
 30
0.0
 10
115.754283
 20
261.192634
 30
0.0
 10
114.896692
 20
260.460182
 30
0.0
 10
114.032183
 20
259.735950
 30
0.0
  0
LWPOLYLINE
  5
134
100
AcDbEntity
  8
0
 62
7
100
AcDbPolyline
 90
27
 70
0
 10
124.360361
 20
269.102487
 30
0.0
 10
123.028186
 20
269.656680
 30
0.0
 10
121.764454
 20
270.213934
 30
0.0
 10
120.582379
 20
270.764994
 30
0.0
 10
119.473973
 20
271.310229
 30
0.0
 10
118.438112
 20
271.847017
 30
0.0
 10
117.482072
 20
272.368113
 30
0.0
 10
116.180440
 20
273.107433
 30
0.0
 10
116.010220
 20
273.160866
 30
0.0
 10
115.943662
 20
273.164835
 30
0.0
 10
115.889918
 20
273.154347
 30
0.0
 10
115.849240
 20
273.129402
 30
0.0
 10
115.532449
 20
272.830344
 30
0.0
 10
114.559818
 20
271.924925
 30
0.0
 10
113.580876
 20
271.026331
 30
0.0
 10
113.257888
 20
270.733977
 30
0.0
 10
113.229825
 20
270.695398
 30
0.0
 10
113.215085
 20
270.642645
 30
0.0
 10
113.213951
 20
270.575974
 30
0.0
 10
113.253863
 20
270.402069
 30
0.0
 10
113.888778
 20
269.046440
 30
0.0
 10
114.333259
 20
268.052464
 30
0.0
 10
114.787119
 20
266.977680
 30
0.0
 10
115.243710
 20
265.829913
 30
0.0
 10
115.700325
 20
264.608247
 30
0.0
 10
116.156711
 20
263.304688
 30
0.0
 10
116.604838
 20
261.933205
 30
0.0
  0
SPLINE
  5
135
100
AcDbEntity
  8
0
 62
7
100
AcDbSpline
 70
8
 71
3
 72
8
 73
4
 74
0
 40
0
 40
0
 40
0
 40
0
 40
1
 40
1
 40
1
 40
1
 10
105.737915
 20
253.197433
 30
0.0
 10
104.831879
 20
252.525879
 30
0.0
 10
103.919464
 20
251.862971
 30
0.0
 10
103.000797
 20
251.208800
 30
0.0
  0
LWPOLYLINE
  5
136
100
AcDbEntity
  8
0
 62
7
100
AcDbPolyline
 90
27
 70
0
 10
114.032183
 20
259.735950
 30
0.0
 10
112.747687
 20
260.393106
 30
0.0
 10
111.531570
 20
261.047795
 30
0.0
 10
110.396375
 20
261.689899
 30
0.0
 10
109.334166
 20
262.320417
 30
0.0
 10
108.343614
 20
262.936825
 30
0.0
 10
107.431405
 20
263.531323
 30
0.0
 10
106.191790
 20
264.370488
 30
0.0
 10
106.026275
 20
264.437131
 30
0.0
 10
105.960256
 20
264.446485
 30
0.0
 10
105.905831
 20
264.440249
 30
0.0
 10
105.863312
 20
264.418422
 30
0.0
 10
105.524033
 20
264.145134
 30
0.0
 10
104.483362
 20
263.318815
 30
0.0
 10
103.436936
 20
262.499799
 30
0.0
 10
103.092005
 20
262.233683
 30
0.0
 10
103.060881
 20
262.197428
 30
0.0
 10
103.041888
 20
262.145979
 30
0.0
 10
103.035652
 20
262.079591
 30
0.0
 10
103.061731
 20
261.903106
 30
0.0
 10
103.588328
 20
260.501843
 30
0.0
 10
103.953450
 20
259.476056
 30
0.0
 10
104.321588
 20
258.368977
 30
0.0
 10
104.686716
 20
257.188924
 30
0.0
 10
105.046075
 20
255.935197
 30
0.0
 10
105.398779
 20
254.599848
 30
0.0
 10
105.737915
 20
253.197433
 30
0.0
  0
SPLINE
  5
137
100
AcDbEntity
  8
0
 62
7
100
AcDbSpline
 70
8
 71
3
 72
8
 73
4
 74
0
 40
0
 40
0
 40
0
 40
0
 40
1
 40
1
 40
1
 40
1
 10
94.218974
 20
245.341053
 30
0.0
 10
93.263040
 20
244.742655
 30
0.0
 10
92.301426
 20
244.153378
 30
0.0
 10
91.334265
 20
243.573301
 30
0.0
  0
LWPOLYLINE
  5
138
100
AcDbEntity
  8
0
 62
7
100
AcDbPolyline
 90
27
 70
0
 10
103.000797
 20
251.208800
 30
0.0
 10
101.771821
 20
251.964709
 30
0.0
 10
100.610821
 20
252.712797
 30
0.0
 10
99.529504
 20
253.441989
 30
0.0
 10
98.520039
 20
254.153904
 30
0.0
 10
97.580904
 20
254.846127
 30
0.0
 10
96.718152
 20
255.510366
 30
0.0
 10
95.548198
 20
256.444203
 30
0.0
 10
95.388438
 20
256.523630
 30
0.0
 10
95.323354
 20
256.538086
 30
0.0
 10
95.268617
 20
256.536040
 30
0.0
 10
95.224510
 20
256.517615
 30
0.0
 10
94.864834
 20
256.271794
 30
0.0
 10
93.762540
 20
255.529673
 30
0.0
 10
92.655079
 20
254.795285
 30
0.0
 10
92.290334
 20
254.557062
 30
0.0
 10
92.256460
 20
254.523358
 30
0.0
 10
92.233499
 20
254.473553
 30
0.0
 10
92.221877
 20
254.407874
 30
0.0
 10
92.234066
 20
254.229859
 30
0.0
 10
92.649100
 20
252.791597
 30
0.0
 10
92.932613
 20
251.740327
 30
0.0
 10
93.212761
 20
250.607776
 30
0.0
 10
93.484178
 20
249.402715
 30
0.0
 10
93.744058
 20
248.124659
 30
0.0
 10
93.990899
 20
246.765754
 30
0.0
 10
94.218974
 20
245.341053
 30
0.0
  0
SPLINE
  5
139
100
AcDbEntity
  8
0
 62
7
100
AcDbSpline
 70
8
 71
3
 72
8
 73
4
 74
0
 40
0
 40
0
 40
0
 40
0
 40
1
 40
1
 40
1
 40
1
 10
82.119294
 20
238.412821
 30
0.0
 10
81.119357
 20
237.891269
 30
0.0
 10
80.114475
 20
237.379255
 30
0.0
 10
79.104783
 20
236.876849
 30
0.0
  0
LWPOLYLINE
  5
13a
100
AcDbEntity
  8
0
 62
7
100
AcDbPolyline
 90
27
 70
0
 10
91.334265
 20
243.573301
 30
0.0
 10
90.168387
 20
244.423306
 30
0.0
 10
89.069659
 20
245.260178
 30
0.0
 10
88.048887
 20
246.071960
 30
0.0
 10
87.098391
 20
246.860884
 30
0.0
 10
86.216460
 20
247.624656
 30
0.0
 10
85.408484
 20
248.354538
 30
0.0
 10
84.315406
 20
249.377291
 30
0.0
 10
84.162363
 20
249.468992
 30
0.0
 10
84.098612
 20
249.488551
 30
0.0
 10
84.043875
 20
249.490807
 30
0.0
 10
83.998464
 20
249.476067
 30
0.0
 10
83.620609
 20
249.259217
 30
0.0
 10
82.463488
 20
248.605868
 30
0.0
 10
81.301822
 20
247.960633
 30
0.0
 10
80.919508
 20
247.751748
 30
0.0
 10
80.883111
 20
247.720793
 30
0.0
 10
80.856466
 20
247.672945
 30
0.0
 10
80.839741
 20
247.608371
 30
0.0
 10
80.837970
 20
247.429959
 30
0.0
 10
81.138876
 20
245.963569
 30
0.0
 10
81.339030
 20
244.893293
 30
0.0
 10
81.529433
 20
243.742254
 30
0.0
 10
81.705464
 20
242.519613
 30
0.0
 10
81.864261
 20
241.225105
 30
0.0
 10
82.003725
 20
239.851022
 30
0.0
 10
82.119294
 20
238.412821
 30
0.0
  0
SPLINE
  5
13b
100
AcDbEntity
  8
0
 62
7
100
AcDbSpline
 70
8
 71
3
 72
8
 73
4
 74
0
 40
0
 40
0
 40
0
 40
0
 40
1
 40
1
 40
1
 40
1
 10
69.513128
 20
232.454870
 30
0.0
 10
68.475353
 20
232.013380
 30
0.0
 10
67.433395
 20
231.581787
 30
0.0
 10
66.387397
 20
231.160149
 30
0.0
  0
LWPOLYLINE
  5
13c
100
AcDbEntity
  8
0
 62
7
100
AcDbPolyline
 90
27
 70
0
 10
79.104783
 20
236.876849
 30
0.0
 10
78.009188
 20
237.815708
 30
0.0
 10
76.979509
 20
238.736205
 30
0.0
 10
76.025575
 20
239.625575
 30
0.0
 10
75.139907
 20
240.486640
 30
0.0
 10
74.320622
 20
241.317253
 30
0.0
 10
73.572400
 20
242.108278
 30
0.0
 10
72.562935
 20
243.213639
 30
0.0
 10
72.417547
 20
243.317075
 30
0.0
 10
72.355525
 20
243.341453
 30
0.0
 10
72.301128
 20
243.347972
 30
0.0
 10
72.254696
 20
243.336634
 30
0.0
 10
71.860995
 20
243.150114
 30
0.0
 10
70.656178
 20
242.589566
 30
0.0
 10
69.447469
 20
242.037463
 30
0.0
 10
69.049947
 20
241.859220
 30
0.0
 10
69.011226
 20
241.831157
 30
0.0
 10
68.980867
 20
241.785548
 30
0.0
 10
68.959040
 20
241.722477
 30
0.0
 10
68.943166
 20
241.544745
 30
0.0
 10
69.128098
 20
240.059267
 30
0.0
 10
69.243667
 20
238.976586
 30
0.0
 10
69.343191
 20
237.814158
 30
0.0
 10
69.422759
 20
236.581471
 30
0.0
 10
69.479509
 20
235.278495
 30
0.0
 10
69.510747
 20
233.897706
 30
0.0
 10
69.513128
 20
232.454870
 30
0.0
  0
SPLINE
  5
13d
100
AcDbEntity
  8
0
 62
7
100
AcDbSpline
 70
8
 71
3
 72
8
 73
4
 74
0
 40
0
 40
0
 40
0
 40
0
 40
1
 40
1
 40
1
 40
1
 10
56.478545
 20
227.504436
 30
0.0
 10
55.409330
 20
227.145730
 30
0.0
 10
54.336722
 20
226.797219
 30
0.0
 10
53.260867
 20
226.458949
 30
0.0
  0
LWPOLYLINE
  5
13e
100
AcDbEntity
  8
0
 62
7
100
AcDbPolyline
 90
27
 70
0
 10
66.387397
 20
231.160149
 30
0.0
 10
65.368842
 20
232.182072
 30
0.0
 10
64.414556
 20
233.180519
 30
0.0
 10
63.533344
 20
234.141993
 30
0.0
 10
62.717962
 20
235.069891
 30
0.0
 10
61.966373
 20
235.962226
 30
0.0
 10
61.282524
 20
236.809518
 30
0.0
 10
60.362894
 20
237.990674
 30
0.0
 10
60.226066
 20
238.105194
 30
0.0
 10
60.166142
 20
238.134447
 30
0.0
 10
60.112425
 20
238.145219
 30
0.0
 10
60.065257
 20
238.137565
 30
0.0
 10
59.658134
 20
237.982510
 30
0.0
 10
58.413051
 20
237.518218
 30
0.0
 10
57.164750
 20
237.062651
 30
0.0
 10
56.754469
 20
236.916157
 30
0.0
 10
56.713679
 20
236.891212
 30
0.0
 10
56.679833
 20
236.848125
 30
0.0
 10
56.653187
 20
236.786954
 30
0.0
 10
56.623537
 20
236.611008
 30
0.0
 10
56.691342
 20
235.115600
 30
0.0
 10
56.721616
 20
234.027190
 30
0.0
 10
56.729553
 20
232.860536
 30
0.0
 10
56.712261
 20
231.625407
 30
0.0
 10
56.666595
 20
230.321996
 30
0.0
 10
56.589380
 20
228.943012
 30
0.0
 10
56.478545
 20
227.504436
 30
0.0
  0
SPLINE
  5
13f
100
AcDbEntity
  8
0
 62
7
100
AcDbSpline
 70
8
 71
3
 72
8
 73
4
 74
0
 40
0
 40
0
 40
0
 40
0
 40
1
 40
1
 40
1
 40
1
 10
43.095862
 20
223.592066
 30
0.0
 10
42.001800
 20
223.318356
 30
0.0
 10
40.905155
 20
223.055075
 30
0.0
 10
39.806077
 20
222.802258
 30
0.0
  0
LWPOLYLINE
  5
140
100
AcDbEntity
  8
0
 62
7
100
AcDbPolyline
 90
27
 70
0
 10
53.260867
 20
226.458949
 30
0.0
 10
52.325630
 20
227.557637
 30
0.0
 10
51.452625
 20
228.627879
 30
0.0
 10
50.649565
 20
229.655526
 30
0.0
 10
49.909499
 20
230.644541
 30
0.0
 10
49.230239
 20
231.593093
 30
0.0
 10
48.614974
 20
232.491425
 30
0.0
 10
47.790852
 20
233.741092
 30
0.0
 10
47.663435
 20
233.865987
 30
0.0
 10
47.606005
 20
233.899861
 30
0.0
 10
47.553309
 20
233.914884
 30
0.0
 10
47.505687
 20
233.910916
 30
0.0
 10
47.087653
 20
233.788289
 30
0.0
 10
45.809983
 20
233.423116
 30
0.0
 10
44.529787
 20
233.066895
 30
0.0
 10
44.109276
 20
232.953027
 30
0.0
 10
44.066643
 20
232.931484
 30
0.0
 10
44.029537
 20
232.891175
 30
0.0
 10
43.998271
 20
232.832271
 30
0.0
 10
43.954901
 20
232.659188
 30
0.0
 10
43.905182
 20
231.163069
 30
0.0
 10
43.849963
 20
230.075640
 30
0.0
 10
43.766426
 20
228.911953
 30
0.0
 10
43.652161
 20
227.681998
 30
0.0
 10
43.504391
 20
226.386186
 30
0.0
 10
43.319232
 20
225.017510
 30
0.0
 10
43.095862
 20
223.592066
 30
0.0
  0
SPLINE
  5
141
100
AcDbEntity
  8
0
 62
7
100
AcDbSpline
 70
8
 71
3
 72
8
 73
4
 74
0
 40
0
 40
0
 40
0
 40
0
 40
1
 40
1
 40
1
 40
1
 10
29.447900
 20
220.742002
 30
0.0
 10
28.335727
 20
220.554989
 30
0.0
 10
27.221799
 20
220.378575
 30
0.0
 10
26.106266
 20
220.212785
 30
0.0
  0
LWPOLYLINE
  5
142
100
AcDbEntity
  8
0
 62
7
100
AcDbPolyline
 90
27
 70
0
 10
39.806077
 20
222.802258
 30
0.0
 10
38.960361
 20
223.971183
 30
0.0
 10
38.174016
 20
225.106622
 30
0.0
 10
37.454059
 20
226.194108
 30
0.0
 10
36.793874
 20
227.238138
 30
0.0
 10
36.191129
 20
228.237061
 30
0.0
 10
35.648244
 20
229.180896
 30
0.0
 10
34.924712
 20
230.491371
 30
0.0
 10
34.807500
 20
230.625875
 30
0.0
 10
34.752904
 20
230.664143
 30
0.0
 10
34.701541
 20
230.683135
 30
0.0
 10
34.653749
 20
230.683024
 30
0.0
 10
34.227381
 20
230.593563
 30
0.0
 10
32.924998
 20
230.329771
 30
0.0
 10
31.620799
 20
230.075078
 30
0.0
 10
31.192651
 20
229.994574
 30
0.0
 10
31.148459
 20
229.976433
 30
0.0
 10
31.108292
 20
229.939157
 30
0.0
 10
31.072491
 20
229.882918
 30
0.0
 10
31.015684
 20
229.713775
 30
0.0
 10
30.848724
 20
228.226168
 30
0.0
 10
30.708352
 20
227.146423
 30
0.0
 10
30.533767
 20
225.992879
 30
0.0
 10
30.323379
 20
224.775680
 30
0.0
 10
30.074384
 20
223.495456
 30
0.0
 10
29.782407
 20
222.145528
 30
0.0
 10
29.447900
 20
220.742002
 30
0.0
  0
SPLINE
  5
143
100
AcDbEntity
  8
0
 62
7
100
AcDbSpline
 70
8
 71
3
 72
8
 73
4
 74
0
 40
0
 40
0
 40
0
 40
0
 40
1
 40
1
 40
1
 40
1
 10
15.617899
 20
218.971325
 30
0.0
 10
14.494489
 20
218.872137
 30
0.0
 10
13.370159
 20
218.783655
 30
0.0
 10
12.245064
 20
218.705889
 30
0.0
  0
LWPOLYLINE
  5
144
100
AcDbEntity
  8
0
 62
7
100
AcDbPolyline
 90
27
 70
0
 10
26.106266
 20
220.212785
 30
0.0
 10
25.354416
 20
221.444248
 30
0.0
 10
24.659580
 20
222.637883
 30
0.0
 10
24.027166
 20
223.778504
 30
0.0
 10
23.450929
 20
224.871114
 30
0.0
 10
22.928417
 20
225.914249
 30
0.0
 10
22.461257
 20
226.897768
 30
0.0
 10
21.842774
 20
228.260971
 30
0.0
 10
21.736470
 20
228.404263
 30
0.0
 10
21.685032
 20
228.446697
 30
0.0
 10
21.635321
 20
228.469658
 30
0.0
 10
21.587679
 20
228.473343
 30
0.0
 10
21.155607
 20
228.417614
 30
0.0
 10
19.836540
 20
228.256805
 30
0.0
 10
18.516380
 20
228.105236
 30
0.0
 10
18.083235
 20
228.058578
 30
0.0
 10
18.037759
 20
228.043838
 30
0.0
 10
17.994800
 20
228.009850
 30
0.0
 10
17.954692
 20
227.956587
 30
0.0
 10
17.884779
 20
227.792433
 30
0.0
 10
17.601618
 20
226.322512
 30
0.0
 10
17.376964
 20
225.257111
 30
0.0
 10
17.112403
 20
224.120821
 30
0.0
 10
16.807153
 20
222.923881
 30
0.0
 10
16.458485
 20
221.667139
 30
0.0
 10
16.061496
 20
220.344279
 30
0.0
 10
15.617899
 20
218.971325
 30
0.0
  0
SPLINE
  5
145
100
AcDbEntity
  8
0
 62
7
100
AcDbSpline
 70
8
 71
3
 72
8
 73
4
 74
0
 40
0
 40
0
 40
0
 40
0
 40
1
 40
1
 40
1
 40
1
 10
1.691629
 20
218.291568
 30
0.0
 10
0.563900
 20
218.280825
 30
0.0
 10
-0.563906
 20
218.280825
 30
0.0
 10
-1.691636
 20
218.291568
 30
0.0
  0
LWPOLYLINE
  5
146
100
AcDbEntity
  8
0
 62
7
100
AcDbPolyline
 90
27
 70
0
 10
12.245064
 20
218.705889
 30
0.0
 10
11.592151
 20
219.992613
 30
0.0
 10
10.993109
 20
221.237084
 30
0.0
 10
10.452137
 20
222.423807
 30
0.0
 10
9.963401
 20
223.558260
 30
0.0
 10
9.524343
 20
224.639175
 30
0.0
 10
9.135789
 20
225.656316
 30
0.0
 10
8.626169
 20
227.063845
 30
0.0
 10
8.531435
 20
227.215045
 30
0.0
 10
8.483487
 20
227.261391
 30
0.0
 10
8.435738
 20
227.288320
 30
0.0
 10
8.388527
 20
227.295690
 30
0.0
 10
7.953414
 20
227.274147
 30
0.0
 10
6.625796
 20
227.217341
 30
0.0
 10
5.297814
 20
227.169832
 30
0.0
 10
4.862343
 20
227.157360
 30
0.0
 10
4.815854
 20
227.146304
 30
0.0
 10
4.770358
 20
227.115775
 30
0.0
 10
4.726195
 20
227.065801
 30
0.0
 10
4.643616
 20
226.907627
 30
0.0
 10
4.246000
 20
225.464453
 30
0.0
 10
3.938448
 20
224.419964
 30
0.0
 10
3.585551
 20
223.307933
 30
0.0
 10
3.187330
 20
222.138631
 30
0.0
 10
2.741135
 20
220.913121
 30
0.0
 10
2.241579
 20
219.625487
 30
0.0
 10
1.691629
 20
218.291568
 30
0.0
  0
SPLINE
  5
147
100
AcDbEntity
  8
0
 62
7
100
AcDbSpline
 70
8
 71
3
 72
8
 73
4
 74
0
 40
0
 40
0
 40
0
 40
0
 40
1
 40
1
 40
1
 40
1
 10
-12.245071
 20
218.705957
 30
0.0
 10
-13.370167
 20
218.783723
 30
0.0
 10
-14.494496
 20
218.872205
 30
0.0
 10
-15.617906
 20
218.971393
 30
0.0
  0
LWPOLYLINE
  5
148
100
AcDbEntity
  8
0
 62
7
100
AcDbPolyline
 90
27
 70
0
 10
-1.691636
 20
218.291568
 30
0.0
 10
-2.241586
 20
219.625487
 30
0.0
 10
-2.741141
 20
220.913121
 30
0.0
 10
-3.187337
 20
222.138631
 30
0.0
 10
-3.585558
 20
223.307933
 30
0.0
 10
-3.938455
 20
224.419964
 30
0.0
 10
-4.246007
 20
225.464453
 30
0.0
 10
-4.643623
 20
226.907627
 30
0.0
 10
-4.726202
 20
227.065801
 30
0.0
 10
-4.770365
 20
227.115775
 30
0.0
 10
-4.815861
 20
227.146304
 30
0.0
 10
-4.862349
 20
227.157360
 30
0.0
 10
-5.297821
 20
227.169832
 30
0.0
 10
-6.625803
 20
227.217341
 30
0.0
 10
-7.953421
 20
227.274147
 30
0.0
 10
-8.388534
 20
227.295690
 30
0.0
 10
-8.435745
 20
227.288320
 30
0.0
 10
-8.483494
 20
227.261391
 30
0.0
 10
-8.531442
 20
227.215045
 30
0.0
 10
-8.626176
 20
227.063845
 30
0.0
 10
-9.135796
 20
225.656316
 30
0.0
 10
-9.524350
 20
224.639175
 30
0.0
 10
-9.963408
 20
223.558260
 30
0.0
 10
-10.452143
 20
222.423807
 30
0.0
 10
-10.993116
 20
221.237084
 30
0.0
 10
-11.592158
 20
219.992613
 30
0.0
 10
-12.245071
 20
218.705957
 30
0.0
  0
SPLINE
  5
149
100
AcDbEntity
  8
0
 62
7
100
AcDbSpline
 70
8
 71
3
 72
8
 73
4
 74
0
 40
0
 40
0
 40
0
 40
0
 40
1
 40
1
 40
1
 40
1
 10
-26.106273
 20
220.212853
 30
0.0
 10
-27.221799
 20
220.378658
 30
0.0
 10
-28.335721
 20
220.555085
 30
0.0
 10
-29.447885
 20
220.742112
 30
0.0
  0
LWPOLYLINE
  5
14a
100
AcDbEntity
  8
0
 62
7
100
AcDbPolyline
 90
27
 70
0
 10
-15.617906
 20
218.971393
 30
0.0
 10
-16.061503
 20
220.344347
 30
0.0
 10
-16.458492
 20
221.667207
 30
0.0
 10
-16.807160
 20
222.923949
 30
0.0
 10
-17.112411
 20
224.120889
 30
0.0
 10
-17.376971
 20
225.257179
 30
0.0
 10
-17.601625
 20
226.322580
 30
0.0
 10
-17.884786
 20
227.792501
 30
0.0
 10
-17.954700
 20
227.956655
 30
0.0
 10
-17.994807
 20
228.009918
 30
0.0
 10
-18.037766
 20
228.043906
 30
0.0
 10
-18.083242
 20
228.058646
 30
0.0
 10
-18.516387
 20
228.105304
 30
0.0
 10
-19.836547
 20
228.256873
 30
0.0
 10
-21.155614
 20
228.417682
 30
0.0
 10
-21.587686
 20
228.473411
 30
0.0
 10
-21.635328
 20
228.469726
 30
0.0
 10
-21.685040
 20
228.446765
 30
0.0
 10
-21.736477
 20
228.404331
 30
0.0
 10
-21.842782
 20
228.261039
 30
0.0
 10
-22.461265
 20
226.897837
 30
0.0
 10
-22.928424
 20
225.914317
 30
0.0
 10
-23.450936
 20
224.871182
 30
0.0
 10
-24.027173
 20
223.778572
 30
0.0
 10
-24.659588
 20
222.637951
 30
0.0
 10
-25.354423
 20
221.444316
 30
0.0
 10
-26.106273
 20
220.212853
 30
0.0
  0
SPLINE
  5
14b
100
AcDbEntity
  8
0
 62
7
100
AcDbSpline
 70
8
 71
3
 72
8
 73
4
 74
0
 40
0
 40
0
 40
0
 40
0
 40
1
 40
1
 40
1
 40
1
 10
-39.806499
 20
222.802615
 30
0.0
 10
-40.905577
 20
223.055432
 30
0.0
 10
-42.002222
 20
223.318713
 30
0.0
 10
-43.096285
 20
223.592423
 30
0.0
  0
LWPOLYLINE
  5
14c
100
AcDbEntity
  8
0
 62
7
100
AcDbPolyline
 90
27
 70
0
 10
-29.447885
 20
220.742112
 30
0.0
 10
-29.782393
 20
222.145638
 30
0.0
 10
-30.074370
 20
223.495567
 30
0.0
 10
-30.323365
 20
224.775791
 30
0.0
 10
-30.533752
 20
225.992990
 30
0.0
 10
-30.708338
 20
227.146534
 30
0.0
 10
-30.848710
 20
228.226278
 30
0.0
 10
-31.015670
 20
229.713885
 30
0.0
 10
-31.072476
 20
229.883028
 30
0.0
 10
-31.108278
 20
229.939268
 30
0.0
 10
-31.148445
 20
229.976543
 30
0.0
 10
-31.192637
 20
229.994685
 30
0.0
 10
-31.620784
 20
230.075189
 30
0.0
 10
-32.924984
 20
230.329882
 30
0.0
 10
-34.227367
 20
230.593674
 30
0.0
 10
-34.653734
 20
230.683135
 30
0.0
 10
-34.701526
 20
230.683246
 30
0.0
 10
-34.752890
 20
230.664253
 30
0.0
 10
-34.807485
 20
230.625986
 30
0.0
 10
-34.924698
 20
230.491482
 30
0.0
 10
-35.648230
 20
229.181006
 30
0.0
 10
-36.191115
 20
228.237172
 30
0.0
 10
-36.793859
 20
227.238249
 30
0.0
 10
-37.454045
 20
226.194218
 30
0.0
 10
-38.174002
 20
225.106733
 30
0.0
 10
-38.960347
 20
223.971293
 30
0.0
 10
-39.806499
 20
222.802615
 30
0.0
  0
SPLINE
  5
14d
100
AcDbEntity
  8
0
 62
7
100
AcDbSpline
 70
8
 71
3
 72
8
 73
4
 74
0
 40
0
 40
0
 40
0
 40
0
 40
1
 40
1
 40
1
 40
1
 10
-53.261289
 20
226.459306
 30
0.0
 10
-54.337144
 20
226.797576
 30
0.0
 10
-55.409752
 20
227.146087
 30
0.0
 10
-56.478967
 20
227.504793
 30
0.0
  0
LWPOLYLINE
  5
14e
100
AcDbEntity
  8
0
 62
7
100
AcDbPolyline
 90
27
 70
0
 10
-43.096285
 20
223.592423
 30
0.0
 10
-43.319655
 20
225.017867
 30
0.0
 10
-43.504814
 20
226.386543
 30
0.0
 10
-43.652584
 20
227.682355
 30
0.0
 10
-43.766848
 20
228.912310
 30
0.0
 10
-43.850385
 20
230.075997
 30
0.0
 10
-43.905604
 20
231.163426
 30
0.0
 10
-43.955324
 20
232.659545
 30
0.0
 10
-43.998694
 20
232.832628
 30
0.0
 10
-44.029960
 20
232.891532
 30
0.0
 10
-44.067065
 20
232.931841
 30
0.0
 10
-44.109698
 20
232.953384
 30
0.0
 10
-44.530209
 20
233.067252
 30
0.0
 10
-45.810405
 20
233.423473
 30
0.0
 10
-47.088076
 20
233.788646
 30
0.0
 10
-47.506109
 20
233.911273
 30
0.0
 10
-47.553731
 20
233.915241
 30
0.0
 10
-47.606427
 20
233.900218
 30
0.0
 10
-47.663857
 20
233.866344
 30
0.0
 10
-47.791274
 20
233.741449
 30
0.0
 10
-48.615396
 20
232.491782
 30
0.0
 10
-49.230661
 20
231.593450
 30
0.0
 10
-49.909921
 20
230.644898
 30
0.0
 10
-50.649987
 20
229.655883
 30
0.0
 10
-51.453047
 20
228.628236
 30
0.0
 10
-52.326053
 20
227.557994
 30
0.0
 10
-53.261289
 20
226.459306
 30
0.0
  0
SPLINE
  5
14f
100
AcDbEntity
  8
0
 62
7
100
AcDbSpline
 70
8
 71
3
 72
8
 73
4
 74
0
 40
0
 40
0
 40
0
 40
0
 40
1
 40
1
 40
1
 40
1
 10
-66.387820
 20
231.160506
 30
0.0
 10
-67.433818
 20
231.582144
 30
0.0
 10
-68.475775
 20
232.013737
 30
0.0
 10
-69.513550
 20
232.455227
 30
0.0
  0
LWPOLYLINE
  5
150
100
AcDbEntity
  8
0
 62
7
100
AcDbPolyline
 90
27
 70
0
 10
-56.478967
 20
227.504793
 30
0.0
 10
-56.589802
 20
228.943369
 30
0.0
 10
-56.667018
 20
230.322353
 30
0.0
 10
-56.712684
 20
231.625765
 30
0.0
 10
-56.729975
 20
232.860893
 30
0.0
 10
-56.722038
 20
234.027547
 30
0.0
 10
-56.691764
 20
235.115957
 30
0.0
 10
-56.623959
 20
236.611365
 30
0.0
 10
-56.653610
 20
236.787311
 30
0.0
 10
-56.680256
 20
236.848483
 30
0.0
 10
-56.714101
 20
236.891569
 30
0.0
 10
-56.754892
 20
236.916514
 30
0.0
 10
-57.165172
 20
237.063008
 30
0.0
 10
-58.413473
 20
237.518575
 30
0.0
 10
-59.658556
 20
237.982867
 30
0.0
 10
-60.065679
 20
238.137922
 30
0.0
 10
-60.112848
 20
238.145576
 30
0.0
 10
-60.166564
 20
238.134804
 30
0.0
 10
-60.226489
 20
238.105551
 30
0.0
 10
-60.363317
 20
237.991031
 30
0.0
 10
-61.282946
 20
236.809875
 30
0.0
 10
-61.966796
 20
235.962583
 30
0.0
 10
-62.718384
 20
235.070248
 30
0.0
 10
-63.533767
 20
234.142350
 30
0.0
 10
-64.414978
 20
233.180876
 30
0.0
 10
-65.369264
 20
232.182429
 30
0.0
 10
-66.387820
 20
231.160506
 30
0.0
  0
SPLINE
  5
151
100
AcDbEntity
  8
0
 62
7
100
AcDbSpline
 70
8
 71
3
 72
8
 73
4
 74
0
 40
0
 40
0
 40
0
 40
0
 40
1
 40
1
 40
1
 40
1
 10
-79.105206
 20
236.877206
 30
0.0
 10
-80.114897
 20
237.379612
 30
0.0
 10
-81.119780
 20
237.891626
 30
0.0
 10
-82.119716
 20
238.413178
 30
0.0
  0
LWPOLYLINE
  5
152
100
AcDbEntity
  8
0
 62
7
100
AcDbPolyline
 90
27
 70
0
 10
-69.513550
 20
232.455227
 30
0.0
 10
-69.511169
 20
233.898063
 30
0.0
 10
-69.479931
 20
235.278852
 30
0.0
 10
-69.423182
 20
236.581828
 30
0.0
 10
-69.343613
 20
237.814515
 30
0.0
 10
-69.244089
 20
238.976943
 30
0.0
 10
-69.128521
 20
240.059624
 30
0.0
 10
-68.943588
 20
241.545102
 30
0.0
 10
-68.959462
 20
241.722834
 30
0.0
 10
-68.981289
 20
241.785905
 30
0.0
 10
-69.011648
 20
241.831514
 30
0.0
 10
-69.050369
 20
241.859577
 30
0.0
 10
-69.447891
 20
242.037820
 30
0.0
 10
-70.656601
 20
242.589923
 30
0.0
 10
-71.861418
 20
243.150471
 30
0.0
 10
-72.255119
 20
243.336991
 30
0.0
 10
-72.301550
 20
243.348330
 30
0.0
 10
-72.355947
 20
243.341810
 30
0.0
 10
-72.417969
 20
243.317432
 30
0.0
 10
-72.563358
 20
243.213996
 30
0.0
 10
-73.572823
 20
242.108635
 30
0.0
 10
-74.321044
 20
241.317611
 30
0.0
 10
-75.140330
 20
240.486998
 30
0.0
 10
-76.025997
 20
239.625932
 30
0.0
 10
-76.979931
 20
238.736562
 30
0.0
 10
-78.009610
 20
237.816066
 30
0.0
 10
-79.105206
 20
236.877206
 30
0.0
  0
SPLINE
  5
153
100
AcDbEntity
  8
0
 62
7
100
AcDbSpline
 70
8
 71
3
 72
8
 73
4
 74
0
 40
0
 40
0
 40
0
 40
0
 40
1
 40
1
 40
1
 40
1
 10
-91.334687
 20
243.573658
 30
0.0
 10
-92.301849
 20
244.153735
 30
0.0
 10
-93.263462
 20
244.743012
 30
0.0
 10
-94.219397
 20
245.341410
 30
0.0
  0
LWPOLYLINE
  5
154
100
AcDbEntity
  8
0
 62
7
100
AcDbPolyline
 90
27
 70
0
 10
-82.119716
 20
238.413178
 30
0.0
 10
-82.004148
 20
239.851380
 30
0.0
 10
-81.864683
 20
241.225462
 30
0.0
 10
-81.705887
 20
242.519970
 30
0.0
 10
-81.529855
 20
243.742612
 30
0.0
 10
-81.339452
 20
244.893650
 30
0.0
 10
-81.139298
 20
245.963926
 30
0.0
 10
-80.838392
 20
247.430316
 30
0.0
 10
-80.840164
 20
247.608729
 30
0.0
 10
-80.856888
 20
247.673302
 30
0.0
 10
-80.883534
 20
247.721151
 30
0.0
 10
-80.919931
 20
247.752105
 30
0.0
 10
-81.302245
 20
247.960990
 30
0.0
 10
-82.463910
 20
248.606226
 30
0.0
 10
-83.621032
 20
249.259574
 30
0.0
 10
-83.998887
 20
249.476424
 30
0.0
 10
-84.044298
 20
249.491165
 30
0.0
 10
-84.099035
 20
249.488908
 30
0.0
 10
-84.162786
 20
249.469349
 30
0.0
 10
-84.315828
 20
249.377648
 30
0.0
 10
-85.408907
 20
248.354895
 30
0.0
 10
-86.216882
 20
247.625014
 30
0.0
 10
-87.098814
 20
246.861241
 30
0.0
 10
-88.049309
 20
246.072318
 30
0.0
 10
-89.070082
 20
245.260535
 30
0.0
 10
-90.168810
 20
244.423663
 30
0.0
 10
-91.334687
 20
243.573658
 30
0.0
  0
SPLINE
  5
155
100
AcDbEntity
  8
0
 62
7
100
AcDbSpline
 70
8
 71
3
 72
8
 73
4
 74
0
 40
0
 40
0
 40
0
 40
0
 40
1
 40
1
 40
1
 40
1
 10
-103.001220
 20
251.209157
 30
0.0
 10
-103.919887
 20
251.863328
 30
0.0
 10
-104.832301
 20
252.526236
 30
0.0
 10
-105.738338
 20
253.197790
 30
0.0
  0
LWPOLYLINE
  5
156
100
AcDbEntity
  8
0
 62
7
100
AcDbPolyline
 90
27
 70
0
 10
-94.219397
 20
245.341410
 30
0.0
 10
-93.991321
 20
246.766111
 30
0.0
 10
-93.744480
 20
248.125016
 30
0.0
 10
-93.484600
 20
249.403072
 30
0.0
 10
-93.213183
 20
250.608133
 30
0.0
 10
-92.933035
 20
251.740684
 30
0.0
 10
-92.649523
 20
252.791954
 30
0.0
 10
-92.234488
 20
254.230216
 30
0.0
 10
-92.222299
 20
254.408231
 30
0.0
 10
-92.233921
 20
254.473910
 30
0.0
 10
-92.256882
 20
254.523715
 30
0.0
 10
-92.290756
 20
254.557419
 30
0.0
 10
-92.655501
 20
254.795642
 30
0.0
 10
-93.762962
 20
255.530030
 30
0.0
 10
-94.865256
 20
256.272152
 30
0.0
 10
-95.224933
 20
256.517972
 30
0.0
 10
-95.269040
 20
256.536397
 30
0.0
 10
-95.323777
 20
256.538444
 30
0.0
 10
-95.388860
 20
256.523987
 30
0.0
 10
-95.548621
 20
256.444560
 30
0.0
 10
-96.718575
 20
255.510724
 30
0.0
 10
-97.581327
 20
254.846484
 30
0.0
 10
-98.520461
 20
254.154261
 30
0.0
 10
-99.529926
 20
253.442346
 30
0.0
 10
-100.611244
 20
252.713154
 30
0.0
 10
-101.772243
 20
251.965066
 30
0.0
 10
-103.001220
 20
251.209157
 30
0.0
  0
SPLINE
  5
157
100
AcDbEntity
  8
0
 62
7
100
AcDbSpline
 70
8
 71
3
 72
8
 73
4
 74
0
 40
0
 40
0
 40
0
 40
0
 40
1
 40
1
 40
1
 40
1
 10
-114.032605
 20
259.736307
 30
0.0
 10
-114.897115
 20
260.460539
 30
0.0
 10
-115.754705
 20
261.192991
 30
0.0
 10
-116.605260
 20
261.933562
 30
0.0
  0
LWPOLYLINE
  5
158
100
AcDbEntity
  8
0
 62
7
100
AcDbPolyline
 90
27
 70
0
 10
-105.738338
 20
253.197790
 30
0.0
 10
-105.399201
 20
254.600205
 30
0.0
 10
-105.046498
 20
255.935555
 30
0.0
 10
-104.687138
 20
257.189281
 30
0.0
 10
-104.322011
 20
258.369334
 30
0.0
 10
-103.953873
 20
259.476413
 30
0.0
 10
-103.588751
 20
260.502200
 30
0.0
 10
-103.062153
 20
261.903464
 30
0.0
 10
-103.036075
 20
262.079949
 30
0.0
 10
-103.042311
 20
262.146336
 30
0.0
 10
-103.061303
 20
262.197785
 30
0.0
 10
-103.092427
 20
262.234040
 30
0.0
 10
-103.437358
 20
262.500156
 30
0.0
 10
-104.483784
 20
263.319173
 30
0.0
 10
-105.524455
 20
264.145491
 30
0.0
 10
-105.863734
 20
264.418779
 30
0.0
 10
-105.906254
 20
264.440606
 30
0.0
 10
-105.960679
 20
264.446842
 30
0.0
 10
-106.026698
 20
264.437488
 30
0.0
 10
-106.192212
 20
264.370845
 30
0.0
 10
-107.431828
 20
263.531680
 30
0.0
 10
-108.344036
 20
262.937182
 30
0.0
 10
-109.334588
 20
262.320774
 30
0.0
 10
-110.396797
 20
261.690256
 30
0.0
 10
-111.531993
 20
261.048152
 30
0.0
 10
-112.748109
 20
260.393463
 30
0.0
 10
-114.032605
 20
259.736307
 30
0.0
  0
SPLINE
  5
159
100
AcDbEntity
  8
0
 62
7
100
AcDbSpline
 70
8
 71
3
 72
8
 73
4
 74
0
 40
0
 40
0
 40
0
 40
0
 40
1
 40
1
 40
1
 40
1
 10
-124.360704
 20
269.102688
 30
0.0
 10
-125.165726
 20
269.892516
 30
0.0
 10
-125.963205
 20
270.689995
 30
0.0
 10
-126.753033
 20
271.495017
 30
0.0
  0
LWPOLYLINE
  5
15a
100
AcDbEntity
  8
0
 62
7
100
AcDbPolyline
 90
27
 70
0
 10
-116.605260
 20
261.933562
 30
0.0
 10
-116.157134
 20
263.305045
 30
0.0
 10
-115.700748
 20
264.608604
 30
0.0
 10
-115.244132
 20
265.830270
 30
0.0
 10
-114.787542
 20
266.978037
 30
0.0
 10
-114.333681
 20
268.052821
 30
0.0
 10
-113.889200
 20
269.046797
 30
0.0
 10
-113.254286
 20
270.402426
 30
0.0
 10
-113.214374
 20
270.576332
 30
0.0
 10
-113.215508
 20
270.643002
 30
0.0
 10
-113.230248
 20
270.695755
 30
0.0
 10
-113.258311
 20
270.734335
 30
0.0
 10
-113.581299
 20
271.026688
 30
0.0
 10
-114.560240
 20
271.925282
 30
0.0
 10
-115.532872
 20
272.830701
 30
0.0
 10
-115.849663
 20
273.129759
 30
0.0
 10
-115.890340
 20
273.154704
 30
0.0
 10
-115.944085
 20
273.165192
 30
0.0
 10
-116.010642
 20
273.161224
 30
0.0
 10
-116.180863
 20
273.107791
 30
0.0
 10
-117.482494
 20
272.368470
 30
0.0
 10
-118.438535
 20
271.847375
 30
0.0
 10
-119.474396
 20
271.310587
 30
0.0
 10
-120.582801
 20
270.765351
 30
0.0
 10
-121.764876
 20
270.214291
 30
0.0
 10
-123.028608
 20
269.657037
 30
0.0
 10
-124.360704
 20
269.102688
 30
0.0
  0
SPLINE
  5
15b
100
AcDbEntity
  8
0
 62
7
100
AcDbSpline
 70
8
 71
3
 72
8
 73
4
 74
0
 40
0
 40
0
 40
0
 40
0
 40
1
 40
1
 40
1
 40
1
 10
-133.922159
 20
279.250461
 30
0.0
 10
-134.662730
 20
280.101016
 30
0.0
 10
-135.395182
 20
280.958606
 30
0.0
 10
-136.119413
 20
281.823116
 30
0.0
  0
LWPOLYLINE
  5
15c
100
AcDbEntity
  8
0
 62
7
100
AcDbPolyline
 90
27
 70
0
 10
-126.753033
 20
271.495017
 30
0.0
 10
-126.198684
 20
272.827113
 30
0.0
 10
-125.641430
 20
274.090845
 30
0.0
 10
-125.090370
 20
275.272920
 30
0.0
 10
-124.545134
 20
276.381325
 30
0.0
 10
-124.008346
 20
277.417186
 30
0.0
 10
-123.487251
 20
278.373227
 30
0.0
 10
-122.747930
 20
279.674858
 30
0.0
 10
-122.694497
 20
279.845079
 30
0.0
 10
-122.690529
 20
279.911636
 30
0.0
 10
-122.701017
 20
279.965381
 30
0.0
 10
-122.725962
 20
280.006058
 30
0.0
 10
-123.025020
 20
280.322849
 30
0.0
 10
-123.930439
 20
281.295481
 30
0.0
 10
-124.829032
 20
282.274422
 30
0.0
 10
-125.121386
 20
282.597410
 30
0.0
 10
-125.159966
 20
282.625473
 30
0.0
 10
-125.212718
 20
282.640213
 30
0.0
 10
-125.279389
 20
282.641347
 30
0.0
 10
-125.453295
 20
282.601435
 30
0.0
 10
-126.808923
 20
281.966520
 30
0.0
 10
-127.802900
 20
281.522040
 30
0.0
 10
-128.877683
 20
281.068179
 30
0.0
 10
-130.025451
 20
280.611589
 30
0.0
 10
-131.247117
 20
280.154973
 30
0.0
 10
-132.550676
 20
279.698587
 30
0.0
 10
-133.922159
 20
279.250461
 30
0.0
  0
SPLINE
  5
15d
100
AcDbEntity
  8
0
 62
7
100
AcDbSpline
 70
8
 71
3
 72
8
 73
4
 74
0
 40
0
 40
0
 40
0
 40
0
 40
1
 40
1
 40
1
 40
1
 10
-142.657931
 20
290.117383
 30
0.0
 10
-143.329485
 20
291.023420
 30
0.0
 10
-143.992393
 20
291.935834
 30
0.0
 10
-144.646564
 20
292.854501
 30
0.0
  0
LWPOLYLINE
  5
15e
100
AcDbEntity
  8
0
 62
7
100
AcDbPolyline
 90
27
 70
0
 10
-136.119413
 20
281.823116
 30
0.0
 10
-135.462258
 20
283.107612
 30
0.0
 10
-134.807569
 20
284.323728
 30
0.0
 10
-134.165465
 20
285.458924
 30
0.0
 10
-133.534947
 20
286.521133
 30
0.0
 10
-132.918539
 20
287.511685
 30
0.0
 10
-132.324041
 20
288.423893
 30
0.0
 10
-131.484876
 20
289.663508
 30
0.0
 10
-131.418233
 20
289.829023
 30
0.0
 10
-131.408879
 20
289.895042
 30
0.0
 10
-131.415115
 20
289.949467
 30
0.0
 10
-131.436942
 20
289.991987
 30
0.0
 10
-131.710230
 20
290.331265
 30
0.0
 10
-132.536548
 20
291.371937
 30
0.0
 10
-133.355565
 20
292.418363
 30
0.0
 10
-133.621681
 20
292.763294
 30
0.0
 10
-133.657936
 20
292.794418
 30
0.0
 10
-133.709385
 20
292.813410
 30
0.0
 10
-133.775772
 20
292.819646
 30
0.0
 10
-133.952257
 20
292.793568
 30
0.0
 10
-135.353521
 20
292.266970
 30
0.0
 10
-136.379308
 20
291.901848
 30
0.0
 10
-137.486386
 20
291.533710
 30
0.0
 10
-138.666440
 20
291.168582
 30
0.0
 10
-139.920166
 20
290.809223
 30
0.0
 10
-141.255516
 20
290.456520
 30
0.0
 10
-142.657931
 20
290.117383
 30
0.0
  0
SPLINE
  5
15f
100
AcDbEntity
  8
0
 62
7
100
AcDbSpline
 70
8
 71
3
 72
8
 73
4
 74
0
 40
0
 40
0
 40
0
 40
0
 40
1
 40
1
 40
1
 40
1
 10
-150.514311
 20
301.636324
 30
0.0
 10
-151.112708
 20
302.592259
 30
0.0
 10
-151.701986
 20
303.553872
 30
0.0
 10
-152.282063
 20
304.521034
 30
0.0
  0
LWPOLYLINE
  5
160
100
AcDbEntity
  8
0
 62
7
100
AcDbPolyline
 90
27
 70
0
 10
-144.646564
 20
292.854501
 30
0.0
 10
-143.890655
 20
294.083478
 30
0.0
 10
-143.142567
 20
295.244477
 30
0.0
 10
-142.413375
 20
296.325795
 30
0.0
 10
-141.701459
 20
297.335260
 30
0.0
 10
-141.009237
 20
298.274394
 30
0.0
 10
-140.344997
 20
299.137146
 30
0.0
 10
-139.411161
 20
300.307100
 30
0.0
 10
-139.331734
 20
300.466861
 30
0.0
 10
-139.317277
 20
300.531944
 30
0.0
 10
-139.319324
 20
300.586681
 30
0.0
 10
-139.337749
 20
300.630788
 30
0.0
 10
-139.583569
 20
300.990465
 30
0.0
 10
-140.325690
 20
302.092759
 30
0.0
 10
-141.060079
 20
303.200220
 30
0.0
 10
-141.298302
 20
303.564965
 30
0.0
 10
-141.332006
 20
303.598839
 30
0.0
 10
-141.381811
 20
303.621800
 30
0.0
 10
-141.447489
 20
303.633422
 30
0.0
 10
-141.625505
 20
303.621233
 30
0.0
 10
-143.063767
 20
303.206198
 30
0.0
 10
-144.115037
 20
302.922686
 30
0.0
 10
-145.247588
 20
302.642538
 30
0.0
 10
-146.452649
 20
302.371121
 30
0.0
 10
-147.730704
 20
302.111241
 30
0.0
 10
-149.089610
 20
301.864400
 30
0.0
 10
-150.514311
 20
301.636324
 30
0.0
  0
SPLINE
  5
161
100
AcDbEntity
  8
0
 62
7
100
AcDbSpline
 70
8
 71
3
 72
8
 73
4
 74
0
 40
0
 40
0
 40
0
 40
0
 40
1
 40
1
 40
1
 40
1
 10
-157.442543
 20
313.736005
 30
0.0
 10
-157.964095
 20
314.735941
 30
0.0
 10
-158.476109
 20
315.740824
 30
0.0
 10
-158.978515
 20
316.750515
 30
0.0
  0
LWPOLYLINE
  5
162
100
AcDbEntity
  8
0
 62
7
100
AcDbPolyline
 90
27
 70
0
 10
-152.282063
 20
304.521034
 30
0.0
 10
-151.432058
 20
305.686911
 30
0.0
 10
-150.595186
 20
306.785639
 30
0.0
 10
-149.783403
 20
307.806411
 30
0.0
 10
-148.994479
 20
308.756907
 30
0.0
 10
-148.230707
 20
309.638839
 30
0.0
 10
-147.500826
 20
310.446814
 30
0.0
 10
-146.478072
 20
311.539893
 30
0.0
 10
-146.386372
 20
311.692935
 30
0.0
 10
-146.366813
 20
311.756686
 30
0.0
 10
-146.364556
 20
311.811423
 30
0.0
 10
-146.379296
 20
311.856834
 30
0.0
 10
-146.596147
 20
312.234689
 30
0.0
 10
-147.249495
 20
313.391811
 30
0.0
 10
-147.894731
 20
314.553476
 30
0.0
 10
-148.103616
 20
314.935790
 30
0.0
 10
-148.134570
 20
314.972187
 30
0.0
 10
-148.182419
 20
314.998833
 30
0.0
 10
-148.246992
 20
315.015557
 30
0.0
 10
-148.425405
 20
315.017329
 30
0.0
 10
-149.891794
 20
314.716423
 30
0.0
 10
-150.962071
 20
314.516269
 30
0.0
 10
-152.113109
 20
314.325866
 30
0.0
 10
-153.335751
 20
314.149834
 30
0.0
 10
-154.630259
 20
313.991038
 30
0.0
 10
-156.004341
 20
313.851573
 30
0.0
 10
-157.442543
 20
313.736005
 30
0.0
  0
SPLINE
  5
163
100
AcDbEntity
  8
0
 62
7
100
AcDbSpline
 70
8
 71
3
 72
8
 73
4
 74
0
 40
0
 40
0
 40
0
 40
0
 40
1
 40
1
 40
1
 40
1
 10
-163.400494
 20
326.342171
 30
0.0
 10
-163.841984
 20
327.379946
 30
0.0
 10
-164.273577
 20
328.421903
 30
0.0
 10
-164.695215
 20
329.467901
 30
0.0
  0
LWPOLYLINE
  5
164
100
AcDbEntity
  8
0
 62
7
100
AcDbPolyline
 90
27
 70
0
 10
-158.978515
 20
316.750515
 30
0.0
 10
-158.039655
 20
317.846111
 30
0.0
 10
-157.119158
 20
318.875789
 30
0.0
 10
-156.229789
 20
319.829724
 30
0.0
 10
-155.368723
 20
320.715391
 30
0.0
 10
-154.538110
 20
321.534677
 30
0.0
 10
-153.747086
 20
322.282898
 30
0.0
 10
-152.641725
 20
323.292363
 30
0.0
 10
-152.538289
 20
323.437752
 30
0.0
 10
-152.513911
 20
323.499774
 30
0.0
 10
-152.507391
 20
323.554171
 30
0.0
 10
-152.518730
 20
323.600602
 30
0.0
 10
-152.705249
 20
323.994303
 30
0.0
 10
-153.265797
 20
325.199120
 30
0.0
 10
-153.817901
 20
326.407830
 30
0.0
 10
-153.996143
 20
326.805351
 30
0.0
 10
-154.024206
 20
326.844073
 30
0.0
 10
-154.069816
 20
326.874432
 30
0.0
 10
-154.132887
 20
326.896259
 30
0.0
 10
-154.310619
 20
326.912133
 30
0.0
 10
-155.796097
 20
326.727200
 30
0.0
 10
-156.878778
 20
326.611632
 30
0.0
 10
-158.041206
 20
326.512108
 30
0.0
 10
-159.273893
 20
326.432539
 30
0.0
 10
-160.576868
 20
326.375790
 30
0.0
 10
-161.957658
 20
326.344552
 30
0.0
 10
-163.400494
 20
326.342171
 30
0.0
  0
SPLINE
  5
165
100
AcDbEntity
  8
0
 62
7
100
AcDbSpline
 70
8
 71
3
 72
8
 73
4
 74
0
 40
0
 40
0
 40
0
 40
0
 40
1
 40
1
 40
1
 40
1
 10
-168.350928
 20
339.376753
 30
0.0
 10
-168.709633
 20
340.445968
 30
0.0
 10
-169.058145
 20
341.518576
 30
0.0
 10
-169.396415
 20
342.594431
 30
0.0
  0
LWPOLYLINE
  5
166
100
AcDbEntity
  8
0
 62
7
100
AcDbPolyline
 90
27
 70
0
 10
-164.695215
 20
329.467901
 30
0.0
 10
-163.673292
 20
330.486457
 30
0.0
 10
-162.674845
 20
331.440743
 30
0.0
 10
-161.713371
 20
332.321954
 30
0.0
 10
-160.785473
 20
333.137337
 30
0.0
 10
-159.893138
 20
333.888925
 30
0.0
 10
-159.045846
 20
334.572775
 30
0.0
 10
-157.864690
 20
335.492404
 30
0.0
 10
-157.750170
 20
335.629232
 30
0.0
 10
-157.720917
 20
335.689157
 30
0.0
 10
-157.710145
 20
335.742873
 30
0.0
 10
-157.717798
 20
335.790042
 30
0.0
 10
-157.872853
 20
336.197165
 30
0.0
 10
-158.337145
 20
337.442248
 30
0.0
 10
-158.792712
 20
338.690549
 30
0.0
 10
-158.939207
 20
339.100829
 30
0.0
 10
-158.964152
 20
339.141620
 30
0.0
 10
-159.007238
 20
339.175465
 30
0.0
 10
-159.068410
 20
339.202111
 30
0.0
 10
-159.244356
 20
339.231761
 30
0.0
 10
-160.739764
 20
339.163957
 30
0.0
 10
-161.828174
 20
339.133683
 30
0.0
 10
-162.994828
 20
339.125746
 30
0.0
 10
-164.229956
 20
339.143037
 30
0.0
 10
-165.533368
 20
339.188703
 30
0.0
 10
-166.912351
 20
339.265919
 30
0.0
 10
-168.350928
 20
339.376753
 30
0.0
  0
SPLINE
  5
167
100
AcDbEntity
  8
0
 62
7
100
AcDbSpline
 70
8
 71
3
 72
8
 73
4
 74
0
 40
0
 40
0
 40
0
 40
0
 40
1
 40
1
 40
1
 40
1
 10
-172.263297
 20
352.759436
 30
0.0
 10
-172.537008
 20
353.853498
 30
0.0
 10
-172.800289
 20
354.950143
 30
0.0
 10
-173.053106
 20
356.049222
 30
0.0
  0
LWPOLYLINE
  5
168
100
AcDbEntity
  8
0
 62
7
100
AcDbPolyline
 90
27
 70
0
 10
-169.396415
 20
342.594431
 30
0.0
 10
-168.297727
 20
343.529668
 30
0.0
 10
-167.227484
 20
344.402673
 30
0.0
 10
-166.199838
 20
345.205734
 30
0.0
 10
-165.210822
 20
345.945800
 30
0.0
 10
-164.262271
 20
346.625060
 30
0.0
 10
-163.363939
 20
347.240325
 30
0.0
 10
-162.114272
 20
348.064447
 30
0.0
 10
-161.989377
 20
348.191864
 30
0.0
 10
-161.955503
 20
348.249294
 30
0.0
 10
-161.940480
 20
348.301990
 30
0.0
 10
-161.944448
 20
348.349612
 30
0.0
 10
-162.067075
 20
348.767645
 30
0.0
 10
-162.432248
 20
350.045316
 30
0.0
 10
-162.788469
 20
351.325512
 30
0.0
 10
-162.902337
 20
351.746023
 30
0.0
 10
-162.923880
 20
351.788656
 30
0.0
 10
-162.964189
 20
351.825761
 30
0.0
 10
-163.023092
 20
351.857027
 30
0.0
 10
-163.196176
 20
351.900397
 30
0.0
 10
-164.692295
 20
351.950117
 30
0.0
 10
-165.779724
 20
352.005336
 30
0.0
 10
-166.943411
 20
352.088873
 30
0.0
 10
-168.173365
 20
352.203137
 30
0.0
 10
-169.469178
 20
352.350907
 30
0.0
 10
-170.837854
 20
352.536066
 30
0.0
 10
-172.263297
 20
352.759436
 30
0.0
  0
SPLINE
  5
169
100
AcDbEntity
  8
0
 62
7
100
AcDbSpline
 70
8
 71
3
 72
8
 73
4
 74
0
 40
0
 40
0
 40
0
 40
0
 40
1
 40
1
 40
1
 40
1
 10
-175.113608
 20
366.407836
 30
0.0
 10
-175.300636
 20
367.520000
 30
0.0
 10
-175.477063
 20
368.633921
 30
0.0
 10
-175.642868
 20
369.749446
 30
0.0
  0
LWPOLYLINE
  5
16a
100
AcDbEntity
  8
0
 62
7
100
AcDbPolyline
 90
27
 70
0
 10
-173.053106
 20
356.049222
 30
0.0
 10
-171.884427
 20
356.895374
 30
0.0
 10
-170.748988
 20
357.681719
 30
0.0
 10
-169.661503
 20
358.401676
 30
0.0
 10
-168.617472
 20
359.061862
 30
0.0
 10
-167.618549
 20
359.664606
 30
0.0
 10
-166.674715
 20
360.207491
 30
0.0
 10
-165.364239
 20
360.931023
 30
0.0
 10
-165.229735
 20
361.048235
 30
0.0
 10
-165.191467
 20
361.102831
 30
0.0
 10
-165.172475
 20
361.154194
 30
0.0
 10
-165.172586
 20
361.201986
 30
0.0
 10
-165.262047
 20
361.628354
 30
0.0
 10
-165.525839
 20
362.930737
 30
0.0
 10
-165.780532
 20
364.234936
 30
0.0
 10
-165.861036
 20
364.663084
 30
0.0
 10
-165.879178
 20
364.707276
 30
0.0
 10
-165.916453
 20
364.747443
 30
0.0
 10
-165.972693
 20
364.783244
 30
0.0
 10
-166.141836
 20
364.840051
 30
0.0
 10
-167.629443
 20
365.007011
 30
0.0
 10
-168.709187
 20
365.147383
 30
0.0
 10
-169.862731
 20
365.321969
 30
0.0
 10
-171.079930
 20
365.532356
 30
0.0
 10
-172.360154
 20
365.781351
 30
0.0
 10
-173.710083
 20
366.073328
 30
0.0
 10
-175.113608
 20
366.407836
 30
0.0
  0
SPLINE
  5
16b
100
AcDbEntity
  8
0
 62
7
100
AcDbSpline
 70
8
 71
3
 72
8
 73
4
 74
0
 40
0
 40
0
 40
0
 40
0
 40
1
 40
1
 40
1
 40
1
 10
-176.884328
 20
380.237813
 30
0.0
 10
-176.983516
 20
381.361223
 30
0.0
 10
-177.071998
 20
382.485553
 30
0.0
 10
-177.149764
 20
383.610649
 30
0.0
  0
LWPOLYLINE
  5
16c
100
AcDbEntity
  8
0
 62
7
100
AcDbPolyline
 90
27
 70
0
 10
-175.642868
 20
369.749446
 30
0.0
 10
-174.411405
 20
370.501297
 30
0.0
 10
-173.217770
 20
371.196132
 30
0.0
 10
-172.077149
 20
371.828546
 30
0.0
 10
-170.984539
 20
372.404783
 30
0.0
 10
-169.941404
 20
372.927296
 30
0.0
 10
-168.957884
 20
373.394455
 30
0.0
 10
-167.594681
 20
374.012938
 30
0.0
 10
-167.451390
 20
374.119243
 30
0.0
 10
-167.408956
 20
374.170680
 30
0.0
 10
-167.385995
 20
374.220391
 30
0.0
 10
-167.382310
 20
374.268033
 30
0.0
 10
-167.438039
 20
374.700105
 30
0.0
 10
-167.598848
 20
376.019173
 30
0.0
 10
-167.750417
 20
377.339333
 30
0.0
 10
-167.797075
 20
377.772477
 30
0.0
 10
-167.811815
 20
377.817954
 30
0.0
 10
-167.845803
 20
377.860913
 30
0.0
 10
-167.899065
 20
377.901020
 30
0.0
 10
-168.063220
 20
377.970934
 30
0.0
 10
-169.533141
 20
378.254095
 30
0.0
 10
-170.598542
 20
378.478749
 30
0.0
 10
-171.734832
 20
378.743309
 30
0.0
 10
-172.931772
 20
379.048560
 30
0.0
 10
-174.188514
 20
379.397228
 30
0.0
 10
-175.511374
 20
379.794217
 30
0.0
 10
-176.884328
 20
380.237813
 30
0.0
  0
SPLINE
  5
16d
100
AcDbEntity
  8
0
 62
7
100
AcDbSpline
 70
8
 71
3
 72
8
 73
4
 74
0
 40
0
 40
0
 40
0
 40
0
 40
1
 40
1
 40
1
 40
1
 10
-177.564152
 20
394.164084
 30
0.0
 10
-177.574896
 20
395.291813
 30
0.0
 10
-177.574896
 20
396.419619
 30
0.0
 10
-177.564152
 20
397.547349
 30
0.0
  0
LWPOLYLINE
  5
16e
100
AcDbEntity
  8
0
 62
7
100
AcDbPolyline
 90
27
 70
0
 10
-177.149764
 20
383.610649
 30
0.0
 10
-175.863108
 20
384.263562
 30
0.0
 10
-174.618637
 20
384.862604
 30
0.0
 10
-173.431913
 20
385.403576
 30
0.0
 10
-172.297461
 20
385.892312
 30
0.0
 10
-171.216546
 20
386.331370
 30
0.0
 10
-170.199405
 20
386.719923
 30
0.0
 10
-168.791876
 20
387.229544
 30
0.0
 10
-168.640676
 20
387.324278
 30
0.0
 10
-168.594330
 20
387.372226
 30
0.0
 10
-168.567401
 20
387.419975
 30
0.0
 10
-168.560031
 20
387.467186
 30
0.0
 10
-168.581574
 20
387.902299
 30
0.0
 10
-168.638380
 20
389.229916
 30
0.0
 10
-168.685889
 20
390.557899
 30
0.0
 10
-168.698361
 20
390.993370
 30
0.0
 10
-168.709416
 20
391.039858
 30
0.0
 10
-168.739946
 20
391.085354
 30
0.0
 10
-168.789920
 20
391.129518
 30
0.0
 10
-168.948093
 20
391.212097
 30
0.0
 10
-170.391267
 20
391.609713
 30
0.0
 10
-171.435757
 20
391.917265
 30
0.0
 10
-172.547788
 20
392.270162
 30
0.0
 10
-173.717090
 20
392.668383
 30
0.0
 10
-174.942600
 20
393.114578
 30
0.0
 10
-176.230234
 20
393.614134
 30
0.0
 10
-177.564152
 20
394.164084
 30
0.0
  0
SPLINE
  5
16f
100
AcDbEntity
  8
0
 62
7
100
AcDbSpline
 70
8
 71
3
 72
8
 73
4
 74
0
 40
0
 40
0
 40
0
 40
0
 40
1
 40
1
 40
1
 40
1
 10
-177.149764
 20
408.100784
 30
0.0
 10
-177.071998
 20
409.225880
 30
0.0
 10
-176.983516
 20
410.350209
 30
0.0
 10
-176.884328
 20
411.473619
 30
0.0
  0
LWPOLYLINE
  5
170
100
AcDbEntity
  8
0
 62
7
100
AcDbPolyline
 90
27
 70
0
 10
-177.564152
 20
397.547349
 30
0.0
 10
-176.230234
 20
398.097299
 30
0.0
 10
-174.942600
 20
398.596854
 30
0.0
 10
-173.717090
 20
399.043050
 30
0.0
 10
-172.547788
 20
399.441271
 30
0.0
 10
-171.435757
 20
399.794168
 30
0.0
 10
-170.391267
 20
400.101720
 30
0.0
 10
-168.948093
 20
400.499336
 30
0.0
 10
-168.789920
 20
400.581914
 30
0.0
 10
-168.739946
 20
400.626078
 30
0.0
 10
-168.709416
 20
400.671574
 30
0.0
 10
-168.698361
 20
400.718062
 30
0.0
 10
-168.685889
 20
401.153534
 30
0.0
 10
-168.638380
 20
402.481516
 30
0.0
 10
-168.581574
 20
403.809134
 30
0.0
 10
-168.560031
 20
404.244247
 30
0.0
 10
-168.567401
 20
404.291458
 30
0.0
 10
-168.594330
 20
404.339207
 30
0.0
 10
-168.640676
 20
404.387155
 30
0.0
 10
-168.791876
 20
404.481889
 30
0.0
 10
-170.199405
 20
404.991509
 30
0.0
 10
-171.216546
 20
405.380063
 30
0.0
 10
-172.297461
 20
405.819121
 30
0.0
 10
-173.431913
 20
406.307856
 30
0.0
 10
-174.618637
 20
406.848829
 30
0.0
 10
-175.863108
 20
407.447871
 30
0.0
 10
-177.149764
 20
408.100784
 30
0.0
  0
SPLINE
  5
171
100
AcDbEntity
  8
0
 62
7
100
AcDbSpline
 70
8
 71
3
 72
8
 73
4
 74
0
 40
0
 40
0
 40
0
 40
0
 40
1
 40
1
 40
1
 40
1
 10
-175.642868
 20
421.961986
 30
0.0
 10
-175.477063
 20
423.077512
 30
0.0
 10
-175.300636
 20
424.191433
 30
0.0
 10
-175.113608
 20
425.303598
 30
0.0
  0
LWPOLYLINE
  5
172
100
AcDbEntity
  8
0
 62
7
100
AcDbPolyline
 90
27
 70
0
 10
-176.884328
 20
411.473619
 30
0.0
 10
-175.511374
 20
411.917216
 30
0.0
 10
-174.188514
 20
412.314205
 30
0.0
 10
-172.931772
 20
412.662873
 30
0.0
 10
-171.734832
 20
412.968124
 30
0.0
 10
-170.598542
 20
413.232684
 30
0.0
 10
-169.533141
 20
413.457338
 30
0.0
 10
-168.063220
 20
413.740499
 30
0.0
 10
-167.899065
 20
413.810413
 30
0.0
 10
-167.845803
 20
413.850520
 30
0.0
 10
-167.811815
 20
413.893479
 30
0.0
 10
-167.797075
 20
413.938955
 30
0.0
 10
-167.750417
 20
414.372100
 30
0.0
 10
-167.598848
 20
415.692260
 30
0.0
 10
-167.438039
 20
417.011327
 30
0.0
 10
-167.382310
 20
417.443399
 30
0.0
 10
-167.385995
 20
417.491041
 30
0.0
 10
-167.408956
 20
417.540752
 30
0.0
 10
-167.451390
 20
417.592190
 30
0.0
 10
-167.594681
 20
417.698495
 30
0.0
 10
-168.957884
 20
418.316977
 30
0.0
 10
-169.941404
 20
418.784137
 30
0.0
 10
-170.984539
 20
419.306649
 30
0.0
 10
-172.077149
 20
419.882886
 30
0.0
 10
-173.217770
 20
420.515301
 30
0.0
 10
-174.411405
 20
421.210136
 30
0.0
 10
-175.642868
 20
421.961986
 30
0.0
  0
SPLINE
  5
173
100
AcDbEntity
  8
0
 62
7
100
AcDbSpline
 70
8
 71
3
 72
8
 73
4
 74
0
 40
0
 40
0
 40
0
 40
0
 40
1
 40
1
 40
1
 40
1
 10
-173.053106
 20
435.662211
 30
0.0
 10
-172.800289
 20
436.761290
 30
0.0
 10
-172.537008
 20
437.857935
 30
0.0
 10
-172.263297
 20
438.951997
 30
0.0
  0
LWPOLYLINE
  5
174
100
AcDbEntity
  8
0
 62
7
100
AcDbPolyline
 90
27
 70
0
 10
-175.113608
 20
425.303598
 30
0.0
 10
-173.710083
 20
425.638106
 30
0.0
 10
-172.360154
 20
425.930082
 30
0.0
 10
-171.079930
 20
426.179077
 30
0.0
 10
-169.862731
 20
426.389465
 30
0.0
 10
-168.709187
 20
426.564050
 30
0.0
 10
-167.629443
 20
426.704422
 30
0.0
 10
-166.141836
 20
426.871383
 30
0.0
 10
-165.972693
 20
426.928189
 30
0.0
 10
-165.916453
 20
426.963990
 30
0.0
 10
-165.879178
 20
427.004157
 30
0.0
 10
-165.861036
 20
427.048349
 30
0.0
 10
-165.780532
 20
427.476497
 30
0.0
 10
-165.525839
 20
428.780697
 30
0.0
 10
-165.262047
 20
430.083079
 30
0.0
 10
-165.172586
 20
430.509447
 30
0.0
 10
-165.172475
 20
430.557239
 30
0.0
 10
-165.191467
 20
430.608603
 30
0.0
 10
-165.229735
 20
430.663198
 30
0.0
 10
-165.364239
 20
430.780410
 30
0.0
 10
-166.674715
 20
431.503942
 30
0.0
 10
-167.618549
 20
432.046827
 30
0.0
 10
-168.617472
 20
432.649572
 30
0.0
 10
-169.661503
 20
433.309757
 30
0.0
 10
-170.748988
 20
434.029714
 30
0.0
 10
-171.884427
 20
434.816059
 30
0.0
 10
-173.053106
 20
435.662211
 30
0.0
  0
SPLINE
  5
175
100
AcDbEntity
  8
0
 62
7
100
AcDbSpline
 70
8
 71
3
 72
8
 73
4
 74
0
 40
0
 40
0
 40
0
 40
0
 40
1
 40
1
 40
1
 40
1
 10
-169.396415
 20
449.117002
 30
0.0
 10
-169.058145
 20
450.192857
 30
0.0
 10
-168.709633
 20
451.265465
 30
0.0
 10
-168.350928
 20
452.334680
 30
0.0
  0
LWPOLYLINE
  5
176
100
AcDbEntity
  8
0
 62
7
100
AcDbPolyline
 90
27
 70
0
 10
-172.263297
 20
438.951997
 30
0.0
 10
-170.837854
 20
439.175367
 30
0.0
 10
-169.469178
 20
439.360526
 30
0.0
 10
-168.173365
 20
439.508296
 30
0.0
 10
-166.943411
 20
439.622560
 30
0.0
 10
-165.779724
 20
439.706097
 30
0.0
 10
-164.692295
 20
439.761316
 30
0.0
 10
-163.196176
 20
439.811036
 30
0.0
 10
-163.023092
 20
439.854406
 30
0.0
 10
-162.964189
 20
439.885672
 30
0.0
 10
-162.923880
 20
439.922778
 30
0.0
 10
-162.902337
 20
439.965411
 30
0.0
 10
-162.788469
 20
440.385922
 30
0.0
 10
-162.432248
 20
441.666118
 30
0.0
 10
-162.067075
 20
442.943788
 30
0.0
 10
-161.944448
 20
443.361821
 30
0.0
 10
-161.940480
 20
443.409443
 30
0.0
 10
-161.955503
 20
443.462140
 30
0.0
 10
-161.989377
 20
443.519569
 30
0.0
 10
-162.114272
 20
443.646987
 30
0.0
 10
-163.363939
 20
444.471108
 30
0.0
 10
-164.262271
 20
445.086373
 30
0.0
 10
-165.210822
 20
445.765634
 30
0.0
 10
-166.199838
 20
446.505700
 30
0.0
 10
-167.227484
 20
447.308760
 30
0.0
 10
-168.297727
 20
448.181765
 30
0.0
 10
-169.396415
 20
449.117002
 30
0.0
  0
SPLINE
  5
177
100
AcDbEntity
  8
0
 62
7
100
AcDbSpline
 70
8
 71
3
 72
8
 73
4
 74
0
 40
0
 40
0
 40
0
 40
0
 40
1
 40
1
 40
1
 40
1
 10
-164.695215
 20
462.243532
 30
0.0
 10
-164.273577
 20
463.289530
 30
0.0
 10
-163.841984
 20
464.331487
 30
0.0
 10
-163.400494
 20
465.369263
 30
0.0
  0
LWPOLYLINE
  5
178
100
AcDbEntity
  8
0
 62
7
100
AcDbPolyline
 90
27
 70
0
 10
-168.350928
 20
452.334680
 30
0.0
 10
-166.912351
 20
452.445514
 30
0.0
 10
-165.533368
 20
452.522730
 30
0.0
 10
-164.229956
 20
452.568396
 30
0.0
 10
-162.994828
 20
452.585688
 30
0.0
 10
-161.828174
 20
452.577751
 30
0.0
 10
-160.739764
 20
452.547477
 30
0.0
 10
-159.244356
 20
452.479672
 30
0.0
 10
-159.068410
 20
452.509322
 30
0.0
 10
-159.007238
 20
452.535968
 30
0.0
 10
-158.964152
 20
452.569814
 30
0.0
 10
-158.939207
 20
452.610604
 30
0.0
 10
-158.792712
 20
453.020885
 30
0.0
 10
-158.337145
 20
454.269185
 30
0.0
 10
-157.872853
 20
455.514269
 30
0.0
 10
-157.717798
 20
455.921392
 30
0.0
 10
-157.710145
 20
455.968560
 30
0.0
 10
-157.720917
 20
456.022277
 30
0.0
 10
-157.750170
 20
456.082201
 30
0.0
 10
-157.864690
 20
456.219029
 30
0.0
 10
-159.045846
 20
457.138659
 30
0.0
 10
-159.893138
 20
457.822508
 30
0.0
 10
-160.785473
 20
458.574097
 30
0.0
 10
-161.713371
 20
459.389479
 30
0.0
 10
-162.674845
 20
460.270691
 30
0.0
 10
-163.673292
 20
461.224976
 30
0.0
 10
-164.695215
 20
462.243532
 30
0.0
  0
SPLINE
  5
179
100
AcDbEntity
  8
0
 62
7
100
AcDbSpline
 70
8
 71
3
 72
8
 73
4
 74
0
 40
0
 40
0
 40
0
 40
0
 40
1
 40
1
 40
1
 40
1
 10
-158.978515
 20
474.960918
 30
0.0
 10
-158.476109
 20
475.970610
 30
0.0
 10
-157.964095
 20
476.975492
 30
0.0
 10
-157.442543
 20
477.975429
 30
0.0
  0
LWPOLYLINE
  5
17a
100
AcDbEntity
  8
0
 62
7
100
AcDbPolyline
 90
27
 70
0
 10
-163.400494
 20
465.369263
 30
0.0
 10
-161.957658
 20
465.366881
 30
0.0
 10
-160.576868
 20
465.335644
 30
0.0
 10
-159.273893
 20
465.278894
 30
0.0
 10
-158.041206
 20
465.199326
 30
0.0
 10
-156.878778
 20
465.099801
 30
0.0
 10
-155.796097
 20
464.984233
 30
0.0
 10
-154.310619
 20
464.799301
 30
0.0
 10
-154.132887
 20
464.815175
 30
0.0
 10
-154.069816
 20
464.837002
 30
0.0
 10
-154.024206
 20
464.867361
 30
0.0
 10
-153.996143
 20
464.906082
 30
0.0
 10
-153.817901
 20
465.303604
 30
0.0
 10
-153.265797
 20
466.512313
 30
0.0
 10
-152.705249
 20
467.717130
 30
0.0
 10
-152.518730
 20
468.110831
 30
0.0
 10
-152.507391
 20
468.157262
 30
0.0
 10
-152.513911
 20
468.211659
 30
0.0
 10
-152.538289
 20
468.273681
 30
0.0
 10
-152.641725
 20
468.419070
 30
0.0
 10
-153.747086
 20
469.428535
 30
0.0
 10
-154.538110
 20
470.176756
 30
0.0
 10
-155.368723
 20
470.996042
 30
0.0
 10
-156.229789
 20
471.881710
 30
0.0
 10
-157.119158
 20
472.835644
 30
0.0
 10
-158.039655
 20
473.865323
 30
0.0
 10
-158.978515
 20
474.960918
 30
0.0
  0
SPLINE
  5
17b
100
AcDbEntity
  8
0
 62
7
100
AcDbSpline
 70
8
 71
3
 72
8
 73
4
 74
0
 40
0
 40
0
 40
0
 40
0
 40
1
 40
1
 40
1
 40
1
 10
-152.282063
 20
487.190400
 30
0.0
 10
-151.701986
 20
488.157561
 30
0.0
 10
-151.112708
 20
489.119175
 30
0.0
 10
-150.514311
 20
490.075109
 30
0.0
  0
LWPOLYLINE
  5
17c
100
AcDbEntity
  8
0
 62
7
100
AcDbPolyline
 90
27
 70
0
 10
-157.442543
 20
477.975429
 30
0.0
 10
-156.004341
 20
477.859860
 30
0.0
 10
-154.630259
 20
477.720396
 30
0.0
 10
-153.335751
 20
477.561599
 30
0.0
 10
-152.113109
 20
477.385568
 30
0.0
 10
-150.962071
 20
477.195165
 30
0.0
 10
-149.891794
 20
476.995010
 30
0.0
 10
-148.425405
 20
476.694104
 30
0.0
 10
-148.246992
 20
476.695876
 30
0.0
 10
-148.182419
 20
476.712600
 30
0.0
 10
-148.134570
 20
476.739246
 30
0.0
 10
-148.103616
 20
476.775643
 30
0.0
 10
-147.894731
 20
477.157957
 30
0.0
 10
-147.249495
 20
478.319622
 30
0.0
 10
-146.596147
 20
479.476744
 30
0.0
 10
-146.379296
 20
479.854599
 30
0.0
 10
-146.364556
 20
479.900010
 30
0.0
 10
-146.366813
 20
479.954747
 30
0.0
 10
-146.386372
 20
480.018498
 30
0.0
 10
-146.478072
 20
480.171541
 30
0.0
 10
-147.500826
 20
481.264619
 30
0.0
 10
-148.230707
 20
482.072595
 30
0.0
 10
-148.994479
 20
482.954526
 30
0.0
 10
-149.783403
 20
483.905022
 30
0.0
 10
-150.595186
 20
484.925794
 30
0.0
 10
-151.432058
 20
486.024522
 30
0.0
 10
-152.282063
 20
487.190400
 30
0.0
  0
SPLINE
  5
17d
100
AcDbEntity
  8
0
 62
7
100
AcDbSpline
 70
8
 71
3
 72
8
 73
4
 74
0
 40
0
 40
0
 40
0
 40
0
 40
1
 40
1
 40
1
 40
1
 10
-144.646564
 20
498.856932
 30
0.0
 10
-143.992393
 20
499.775599
 30
0.0
 10
-143.329485
 20
500.688013
 30
0.0
 10
-142.657931
 20
501.594050
 30
0.0
  0
LWPOLYLINE
  5
17e
100
AcDbEntity
  8
0
 62
7
100
AcDbPolyline
 90
27
 70
0
 10
-150.514311
 20
490.075109
 30
0.0
 10
-149.089610
 20
489.847034
 30
0.0
 10
-147.730704
 20
489.600193
 30
0.0
 10
-146.452649
 20
489.340313
 30
0.0
 10
-145.247588
 20
489.068895
 30
0.0
 10
-144.115037
 20
488.788748
 30
0.0
 10
-143.063767
 20
488.505235
 30
0.0
 10
-141.625505
 20
488.090201
 30
0.0
 10
-141.447489
 20
488.078012
 30
0.0
 10
-141.381811
 20
488.089634
 30
0.0
 10
-141.332006
 20
488.112594
 30
0.0
 10
-141.298302
 20
488.146468
 30
0.0
 10
-141.060079
 20
488.511213
 30
0.0
 10
-140.325690
 20
489.618675
 30
0.0
 10
-139.583569
 20
490.720968
 30
0.0
 10
-139.337749
 20
491.080645
 30
0.0
 10
-139.319324
 20
491.124752
 30
0.0
 10
-139.317277
 20
491.179489
 30
0.0
 10
-139.331734
 20
491.244573
 30
0.0
 10
-139.411161
 20
491.404333
 30
0.0
 10
-140.344997
 20
492.574287
 30
0.0
 10
-141.009237
 20
493.437039
 30
0.0
 10
-141.701459
 20
494.376174
 30
0.0
 10
-142.413375
 20
495.385639
 30
0.0
 10
-143.142567
 20
496.466956
 30
0.0
 10
-143.890655
 20
497.627955
 30
0.0
 10
-144.646564
 20
498.856932
 30
0.0
  0
SPLINE
  5
17f
100
AcDbEntity
  8
0
 62
7
100
AcDbSpline
 70
8
 71
3
 72
8
 73
4
 74
0
 40
0
 40
0
 40
0
 40
0
 40
1
 40
1
 40
1
 40
1
 10
-136.119413
 20
509.888317
 30
0.0
 10
-135.395182
 20
510.752827
 30
0.0
 10
-134.662730
 20
511.610418
 30
0.0
 10
-133.922159
 20
512.460972
 30
0.0
  0
LWPOLYLINE
  5
180
100
AcDbEntity
  8
0
 62
7
100
AcDbPolyline
 90
27
 70
0
 10
-142.657931
 20
501.594050
 30
0.0
 10
-141.255516
 20
501.254913
 30
0.0
 10
-139.920166
 20
500.902210
 30
0.0
 10
-138.666440
 20
500.542851
 30
0.0
 10
-137.486386
 20
500.177723
 30
0.0
 10
-136.379308
 20
499.809585
 30
0.0
 10
-135.353521
 20
499.444463
 30
0.0
 10
-133.952257
 20
498.917866
 30
0.0
 10
-133.775772
 20
498.891787
 30
0.0
 10
-133.709385
 20
498.898023
 30
0.0
 10
-133.657936
 20
498.917015
 30
0.0
 10
-133.621681
 20
498.948140
 30
0.0
 10
-133.355565
 20
499.293070
 30
0.0
 10
-132.536548
 20
500.339496
 30
0.0
 10
-131.710230
 20
501.380168
 30
0.0
 10
-131.436942
 20
501.719446
 30
0.0
 10
-131.415115
 20
501.761966
 30
0.0
 10
-131.408879
 20
501.816391
 30
0.0
 10
-131.418233
 20
501.882410
 30
0.0
 10
-131.484876
 20
502.047925
 30
0.0
 10
-132.324041
 20
503.287540
 30
0.0
 10
-132.918539
 20
504.199748
 30
0.0
 10
-133.534947
 20
505.190301
 30
0.0
 10
-134.165465
 20
506.252510
 30
0.0
 10
-134.807569
 20
507.387705
 30
0.0
 10
-135.462258
 20
508.603821
 30
0.0
 10
-136.119413
 20
509.888317
 30
0.0
  0
SPLINE
  5
181
100
AcDbEntity
  8
0
 62
7
100
AcDbSpline
 70
8
 71
3
 72
8
 73
4
 74
0
 40
0
 40
0
 40
0
 40
0
 40
1
 40
1
 40
1
 40
1
 10
-126.753033
 20
520.216416
 30
0.0
 10
-125.963205
 20
521.021438
 30
0.0
 10
-125.165726
 20
521.818917
 30
0.0
 10
-124.360704
 20
522.608745
 30
0.0
  0
LWPOLYLINE
  5
182
100
AcDbEntity
  8
0
 62
7
100
AcDbPolyline
 90
27
 70
0
 10
-133.922159
 20
512.460972
 30
0.0
 10
-132.550676
 20
512.012846
 30
0.0
 10
-131.247117
 20
511.556460
 30
0.0
 10
-130.025451
 20
511.099844
 30
0.0
 10
-128.877683
 20
510.643254
 30
0.0
 10
-127.802900
 20
510.189393
 30
0.0
 10
-126.808923
 20
509.744913
 30
0.0
 10
-125.453295
 20
509.109998
 30
0.0
 10
-125.279389
 20
509.070086
 30
0.0
 10
-125.212718
 20
509.071220
 30
0.0
 10
-125.159966
 20
509.085960
 30
0.0
 10
-125.121386
 20
509.114023
 30
0.0
 10
-124.829032
 20
509.437011
 30
0.0
 10
-123.930439
 20
510.415952
 30
0.0
 10
-123.025020
 20
511.388584
 30
0.0
 10
-122.725962
 20
511.705375
 30
0.0
 10
-122.701017
 20
511.746052
 30
0.0
 10
-122.690529
 20
511.799797
 30
0.0
 10
-122.694497
 20
511.866355
 30
0.0
 10
-122.747930
 20
512.036575
 30
0.0
 10
-123.487251
 20
513.338207
 30
0.0
 10
-124.008346
 20
514.294247
 30
0.0
 10
-124.545134
 20
515.330108
 30
0.0
 10
-125.090370
 20
516.438513
 30
0.0
 10
-125.641430
 20
517.620588
 30
0.0
 10
-126.198684
 20
518.884321
 30
0.0
 10
-126.753033
 20
520.216416
 30
0.0
  0
SPLINE
  5
183
100
AcDbEntity
  8
0
 62
7
100
AcDbSpline
 70
8
 71
3
 72
8
 73
4
 74
0
 40
0
 40
0
 40
0
 40
0
 40
1
 40
1
 40
1
 40
1
 10
-116.605260
 20
529.777871
 30
0.0
 10
-115.754705
 20
530.518443
 30
0.0
 10
-114.897115
 20
531.250894
 30
0.0
 10
-114.032605
 20
531.975126
 30
0.0
  0
LWPOLYLINE
  5
184
100
AcDbEntity
  8
0
 62
7
100
AcDbPolyline
 90
27
 70
0
 10
-124.360704
 20
522.608745
 30
0.0
 10
-123.028608
 20
522.054397
 30
0.0
 10
-121.764876
 20
521.497142
 30
0.0
 10
-120.582801
 20
520.946082
 30
0.0
 10
-119.474396
 20
520.400847
 30
0.0
 10
-118.438535
 20
519.864059
 30
0.0
 10
-117.482494
 20
519.342963
 30
0.0
 10
-116.180863
 20
518.603643
 30
0.0
 10
-116.010642
 20
518.550210
 30
0.0
 10
-115.944085
 20
518.546241
 30
0.0
 10
-115.890340
 20
518.556729
 30
0.0
 10
-115.849663
 20
518.581674
 30
0.0
 10
-115.532872
 20
518.880732
 30
0.0
 10
-114.560240
 20
519.786151
 30
0.0
 10
-113.581299
 20
520.684745
 30
0.0
 10
-113.258311
 20
520.977099
 30
0.0
 10
-113.230248
 20
521.015678
 30
0.0
 10
-113.215508
 20
521.068431
 30
0.0
 10
-113.214374
 20
521.135102
 30
0.0
 10
-113.254286
 20
521.309007
 30
0.0
 10
-113.889200
 20
522.664636
 30
0.0
 10
-114.333681
 20
523.658612
 30
0.0
 10
-114.787542
 20
524.733396
 30
0.0
 10
-115.244132
 20
525.881163
 30
0.0
 10
-115.700748
 20
527.102829
 30
0.0
 10
-116.157134
 20
528.406388
 30
0.0
 10
-116.605260
 20
529.777871
 30
0.0
  0
SPLINE
  5
185
100
AcDbEntity
  8
0
 62
7
100
AcDbSpline
 70
8
 71
3
 72
8
 73
4
 74
0
 40
0
 40
0
 40
0
 40
0
 40
1
 40
1
 40
1
 40
1
 10
-105.738338
 20
538.513643
 30
0.0
 10
-104.832301
 20
539.185198
 30
0.0
 10
-103.919887
 20
539.848105
 30
0.0
 10
-103.001220
 20
540.502276
 30
0.0
  0
LWPOLYLINE
  5
186
100
AcDbEntity
  8
0
 62
7
100
AcDbPolyline
 90
27
 70
0
 10
-114.032605
 20
531.975126
 30
0.0
 10
-112.748109
 20
531.317970
 30
0.0
 10
-111.531993
 20
530.663281
 30
0.0
 10
-110.396797
 20
530.021177
 30
0.0
 10
-109.334588
 20
529.390659
 30
0.0
 10
-108.344036
 20
528.774252
 30
0.0
 10
-107.431828
 20
528.179753
 30
0.0
 10
-106.192212
 20
527.340588
 30
0.0
 10
-106.026698
 20
527.273945
 30
0.0
 10
-105.960679
 20
527.264591
 30
0.0
 10
-105.906254
 20
527.270827
 30
0.0
 10
-105.863734
 20
527.292654
 30
0.0
 10
-105.524455
 20
527.565942
 30
0.0
 10
-104.483784
 20
528.392261
 30
0.0
 10
-103.437358
 20
529.211277
 30
0.0
 10
-103.092427
 20
529.477393
 30
0.0
 10
-103.061303
 20
529.513649
 30
0.0
 10
-103.042311
 20
529.565097
 30
0.0
 10
-103.036075
 20
529.631485
 30
0.0
 10
-103.062153
 20
529.807970
 30
0.0
 10
-103.588751
 20
531.209233
 30
0.0
 10
-103.953873
 20
532.235020
 30
0.0
 10
-104.322011
 20
533.342099
 30
0.0
 10
-104.687138
 20
534.522153
 30
0.0
 10
-105.046498
 20
535.775879
 30
0.0
 10
-105.399201
 20
537.111228
 30
0.0
 10
-105.738338
 20
538.513643
 30
0.0
  0
SPLINE
  5
187
100
AcDbEntity
  8
0
 62
7
100
AcDbSpline
 70
8
 71
3
 72
8
 73
4
 74
0
 40
0
 40
0
 40
0
 40
0
 40
1
 40
1
 40
1
 40
1
 10
-94.219397
 20
546.370023
 30
0.0
 10
-93.263462
 20
546.968421
 30
0.0
 10
-92.301849
 20
547.557698
 30
0.0
 10
-91.334687
 20
548.137775
 30
0.0
  0
LWPOLYLINE
  5
188
100
AcDbEntity
  8
0
 62
7
100
AcDbPolyline
 90
27
 70
0
 10
-103.001220
 20
540.502276
 30
0.0
 10
-101.772243
 20
539.746367
 30
0.0
 10
-100.611244
 20
538.998279
 30
0.0
 10
-99.529926
 20
538.269087
 30
0.0
 10
-98.520461
 20
537.557172
 30
0.0
 10
-97.581327
 20
536.864949
 30
0.0
 10
-96.718575
 20
536.200710
 30
0.0
 10
-95.548621
 20
535.266873
 30
0.0
 10
-95.388860
 20
535.187446
 30
0.0
 10
-95.323777
 20
535.172990
 30
0.0
 10
-95.269040
 20
535.175036
 30
0.0
 10
-95.224933
 20
535.193461
 30
0.0
 10
-94.865256
 20
535.439282
 30
0.0
 10
-93.762962
 20
536.181403
 30
0.0
 10
-92.655501
 20
536.915791
 30
0.0
 10
-92.290756
 20
537.154015
 30
0.0
 10
-92.256882
 20
537.187718
 30
0.0
 10
-92.233921
 20
537.237523
 30
0.0
 10
-92.222299
 20
537.303202
 30
0.0
 10
-92.234488
 20
537.481217
 30
0.0
 10
-92.649523
 20
538.919479
 30
0.0
 10
-92.933035
 20
539.970749
 30
0.0
 10
-93.213183
 20
541.103300
 30
0.0
 10
-93.484600
 20
542.308361
 30
0.0
 10
-93.744480
 20
543.586417
 30
0.0
 10
-93.991321
 20
544.945322
 30
0.0
 10
-94.219397
 20
546.370023
 30
0.0
  0
SPLINE
  5
189
100
AcDbEntity
  8
0
 62
7
100
AcDbSpline
 70
8
 71
3
 72
8
 73
4
 74
0
 40
0
 40
0
 40
0
 40
0
 40
1
 40
1
 40
1
 40
1
 10
-82.119716
 20
553.298256
 30
0.0
 10
-81.119780
 20
553.819807
 30
0.0
 10
-80.114897
 20
554.331821
 30
0.0
 10
-79.105206
 20
554.834227
 30
0.0
  0
LWPOLYLINE
  5
18a
100
AcDbEntity
  8
0
 62
7
100
AcDbPolyline
 90
27
 70
0
 10
-91.334687
 20
548.137775
 30
0.0
 10
-90.168810
 20
547.287770
 30
0.0
 10
-89.070082
 20
546.450898
 30
0.0
 10
-88.049309
 20
545.639116
 30
0.0
 10
-87.098814
 20
544.850192
 30
0.0
 10
-86.216882
 20
544.086420
 30
0.0
 10
-85.408907
 20
543.356539
 30
0.0
 10
-84.315828
 20
542.333785
 30
0.0
 10
-84.162786
 20
542.242084
 30
0.0
 10
-84.099035
 20
542.222525
 30
0.0
 10
-84.044298
 20
542.220269
 30
0.0
 10
-83.998887
 20
542.235009
 30
0.0
 10
-83.621032
 20
542.451859
 30
0.0
 10
-82.463910
 20
543.105208
 30
0.0
 10
-81.302245
 20
543.750444
 30
0.0
 10
-80.919931
 20
543.959328
 30
0.0
 10
-80.883534
 20
543.990283
 30
0.0
 10
-80.856888
 20
544.038132
 30
0.0
 10
-80.840164
 20
544.102705
 30
0.0
 10
-80.838392
 20
544.281117
 30
0.0
 10
-81.139298
 20
545.747507
 30
0.0
 10
-81.339452
 20
546.817783
 30
0.0
 10
-81.529855
 20
547.968822
 30
0.0
 10
-81.705887
 20
549.191463
 30
0.0
 10
-81.864683
 20
550.485971
 30
0.0
 10
-82.004148
 20
551.860054
 30
0.0
 10
-82.119716
 20
553.298256
 30
0.0
  0
SPLINE
  5
18b
100
AcDbEntity
  8
0
 62
7
100
AcDbSpline
 70
8
 71
3
 72
8
 73
4
 74
0
 40
0
 40
0
 40
0
 40
0
 40
1
 40
1
 40
1
 40
1
 10
-69.513550
 20
559.256206
 30
0.0
 10
-68.475775
 20
559.697696
 30
0.0
 10
-67.433818
 20
560.129289
 30
0.0
 10
-66.387820
 20
560.550927
 30
0.0
  0
LWPOLYLINE
  5
18c
100
AcDbEntity
  8
0
 62
7
100
AcDbPolyline
 90
27
 70
0
 10
-79.105206
 20
554.834227
 30
0.0
 10
-78.009610
 20
553.895368
 30
0.0
 10
-76.979931
 20
552.974871
 30
0.0
 10
-76.025997
 20
552.085501
 30
0.0
 10
-75.140330
 20
551.224436
 30
0.0
 10
-74.321044
 20
550.393823
 30
0.0
 10
-73.572823
 20
549.602798
 30
0.0
 10
-72.563358
 20
548.497437
 30
0.0
 10
-72.417969
 20
548.394001
 30
0.0
 10
-72.355947
 20
548.369623
 30
0.0
 10
-72.301550
 20
548.363104
 30
0.0
 10
-72.255119
 20
548.374442
 30
0.0
 10
-71.861418
 20
548.560962
 30
0.0
 10
-70.656601
 20
549.121510
 30
0.0
 10
-69.447891
 20
549.673613
 30
0.0
 10
-69.050369
 20
549.851856
 30
0.0
 10
-69.011648
 20
549.879919
 30
0.0
 10
-68.981289
 20
549.925528
 30
0.0
 10
-68.959462
 20
549.988599
 30
0.0
 10
-68.943588
 20
550.166331
 30
0.0
 10
-69.128521
 20
551.651809
 30
0.0
 10
-69.244089
 20
552.734490
 30
0.0
 10
-69.343613
 20
553.896918
 30
0.0
 10
-69.423182
 20
555.129606
 30
0.0
 10
-69.479931
 20
556.432581
 30
0.0
 10
-69.511169
 20
557.813370
 30
0.0
 10
-69.513550
 20
559.256206
 30
0.0
  0
SPLINE
  5
18d
100
AcDbEntity
  8
0
 62
7
100
AcDbSpline
 70
8
 71
3
 72
8
 73
4
 74
0
 40
0
 40
0
 40
0
 40
0
 40
1
 40
1
 40
1
 40
1
 10
-56.478967
 20
564.206640
 30
0.0
 10
-55.409752
 20
564.565346
 30
0.0
 10
-54.337144
 20
564.913857
 30
0.0
 10
-53.261289
 20
565.252127
 30
0.0
  0
LWPOLYLINE
  5
18e
100
AcDbEntity
  8
0
 62
7
100
AcDbPolyline
 90
27
 70
0
 10
-66.387820
 20
560.550927
 30
0.0
 10
-65.369264
 20
559.529004
 30
0.0
 10
-64.414978
 20
558.530557
 30
0.0
 10
-63.533767
 20
557.569083
 30
0.0
 10
-62.718384
 20
556.641185
 30
0.0
 10
-61.966796
 20
555.748851
 30
0.0
 10
-61.282946
 20
554.901558
 30
0.0
 10
-60.363317
 20
553.720402
 30
0.0
 10
-60.226489
 20
553.605882
 30
0.0
 10
-60.166564
 20
553.576629
 30
0.0
 10
-60.112848
 20
553.565857
 30
0.0
 10
-60.065679
 20
553.573511
 30
0.0
 10
-59.658556
 20
553.728566
 30
0.0
 10
-58.413473
 20
554.192858
 30
0.0
 10
-57.165172
 20
554.648425
 30
0.0
 10
-56.754892
 20
554.794919
 30
0.0
 10
-56.714101
 20
554.819864
 30
0.0
 10
-56.680256
 20
554.862951
 30
0.0
 10
-56.653610
 20
554.924122
 30
0.0
 10
-56.623959
 20
555.100069
 30
0.0
 10
-56.691764
 20
556.595476
 30
0.0
 10
-56.722038
 20
557.683886
 30
0.0
 10
-56.729975
 20
558.850541
 30
0.0
 10
-56.712684
 20
560.085669
 30
0.0
 10
-56.667018
 20
561.389080
 30
0.0
 10
-56.589802
 20
562.768064
 30
0.0
 10
-56.478967
 20
564.206640
 30
0.0
  0
SPLINE
  5
18f
100
AcDbEntity
  8
0
 62
7
100
AcDbSpline
 70
8
 71
3
 72
8
 73
4
 74
0
 40
0
 40
0
 40
0
 40
0
 40
1
 40
1
 40
1
 40
1
 10
-43.096285
 20
568.119010
 30
0.0
 10
-42.002222
 20
568.392720
 30
0.0
 10
-40.905577
 20
568.656002
 30
0.0
 10
-39.806499
 20
568.908818
 30
0.0
  0
LWPOLYLINE
  5
190
100
AcDbEntity
  8
0
 62
7
100
AcDbPolyline
 90
27
 70
0
 10
-53.261289
 20
565.252127
 30
0.0
 10
-52.326053
 20
564.153439
 30
0.0
 10
-51.453047
 20
563.083197
 30
0.0
 10
-50.649987
 20
562.055551
 30
0.0
 10
-49.909921
 20
561.066535
 30
0.0
 10
-49.230661
 20
560.117984
 30
0.0
 10
-48.615396
 20
559.219651
 30
0.0
 10
-47.791274
 20
557.969984
 30
0.0
 10
-47.663857
 20
557.845090
 30
0.0
 10
-47.606427
 20
557.811216
 30
0.0
 10
-47.553731
 20
557.796192
 30
0.0
 10
-47.506109
 20
557.800160
 30
0.0
 10
-47.088076
 20
557.922787
 30
0.0
 10
-45.810405
 20
558.287960
 30
0.0
 10
-44.530209
 20
558.644181
 30
0.0
 10
-44.109698
 20
558.758049
 30
0.0
 10
-44.067065
 20
558.779592
 30
0.0
 10
-44.029960
 20
558.819901
 30
0.0
 10
-43.998694
 20
558.878805
 30
0.0
 10
-43.955324
 20
559.051888
 30
0.0
 10
-43.905604
 20
560.548008
 30
0.0
 10
-43.850385
 20
561.635437
 30
0.0
 10
-43.766848
 20
562.799123
 30
0.0
 10
-43.652584
 20
564.029078
 30
0.0
 10
-43.504814
 20
565.324890
 30
0.0
 10
-43.319655
 20
566.693567
 30
0.0
 10
-43.096285
 20
568.119010
 30
0.0
  0
SPLINE
  5
191
100
AcDbEntity
  8
0
 62
7
100
AcDbSpline
 70
8
 71
3
 72
8
 73
4
 74
0
 40
0
 40
0
 40
0
 40
0
 40
1
 40
1
 40
1
 40
1
 10
-29.447885
 20
570.969321
 30
0.0
 10
-28.335721
 20
571.156348
 30
0.0
 10
-27.221799
 20
571.332776
 30
0.0
 10
-26.106273
 20
571.498580
 30
0.0
  0
LWPOLYLINE
  5
192
100
AcDbEntity
  8
0
 62
7
100
AcDbPolyline
 90
27
 70
0
 10
-39.806499
 20
568.908818
 30
0.0
 10
-38.960347
 20
567.740140
 30
0.0
 10
-38.174002
 20
566.604701
 30
0.0
 10
-37.454045
 20
565.517215
 30
0.0
 10
-36.793859
 20
564.473184
 30
0.0
 10
-36.191115
 20
563.474262
 30
0.0
 10
-35.648230
 20
562.530427
 30
0.0
 10
-34.924698
 20
561.219951
 30
0.0
 10
-34.807485
 20
561.085448
 30
0.0
 10
-34.752890
 20
561.047180
 30
0.0
 10
-34.701526
 20
561.028188
 30
0.0
 10
-34.653734
 20
561.028298
 30
0.0
 10
-34.227367
 20
561.117760
 30
0.0
 10
-32.924984
 20
561.381552
 30
0.0
 10
-31.620784
 20
561.636244
 30
0.0
 10
-31.192637
 20
561.716748
 30
0.0
 10
-31.148445
 20
561.734890
 30
0.0
 10
-31.108278
 20
561.772166
 30
0.0
 10
-31.072476
 20
561.828405
 30
0.0
 10
-31.015670
 20
561.997548
 30
0.0
 10
-30.848710
 20
563.485155
 30
0.0
 10
-30.708338
 20
564.564899
 30
0.0
 10
-30.533752
 20
565.718443
 30
0.0
 10
-30.323365
 20
566.935642
 30
0.0
 10
-30.074370
 20
568.215867
 30
0.0
 10
-29.782393
 20
569.565795
 30
0.0
 10
-29.447885
 20
570.969321
 30
0.0
  0
SPLINE
  5
193
100
AcDbEntity
  8
0
 62
7
100
AcDbSpline
 70
8
 71
3
 72
8
 73
4
 74
0
 40
0
 40
0
 40
0
 40
0
 40
1
 40
1
 40
1
 40
1
 10
-15.617906
 20
572.740041
 30
0.0
 10
-14.494496
 20
572.839228
 30
0.0
 10
-13.370167
 20
572.927711
 30
0.0
 10
-12.245071
 20
573.005477
 30
0.0
  0
LWPOLYLINE
  5
194
100
AcDbEntity
  8
0
 62
7
100
AcDbPolyline
 90
27
 70
0
 10
-26.106273
 20
571.498580
 30
0.0
 10
-25.354423
 20
570.267117
 30
0.0
 10
-24.659588
 20
569.073483
 30
0.0
 10
-24.027173
 20
567.932862
 30
0.0
 10
-23.450936
 20
566.840251
 30
0.0
 10
-22.928424
 20
565.797116
 30
0.0
 10
-22.461265
 20
564.813597
 30
0.0
 10
-21.842782
 20
563.450394
 30
0.0
 10
-21.736477
 20
563.307103
 30
0.0
 10
-21.685040
 20
563.264668
 30
0.0
 10
-21.635328
 20
563.241707
 30
0.0
 10
-21.587686
 20
563.238022
 30
0.0
 10
-21.155614
 20
563.293751
 30
0.0
 10
-19.836547
 20
563.454561
 30
0.0
 10
-18.516387
 20
563.606129
 30
0.0
 10
-18.083242
 20
563.652787
 30
0.0
 10
-18.037766
 20
563.667528
 30
0.0
 10
-17.994807
 20
563.701515
 30
0.0
 10
-17.954700
 20
563.754778
 30
0.0
 10
-17.884786
 20
563.918932
 30
0.0
 10
-17.601625
 20
565.388854
 30
0.0
 10
-17.376971
 20
566.454255
 30
0.0
 10
-17.112411
 20
567.590544
 30
0.0
 10
-16.807160
 20
568.787484
 30
0.0
 10
-16.458492
 20
570.044226
 30
0.0
 10
-16.061503
 20
571.367087
 30
0.0
 10
-15.617906
 20
572.740041
 30
0.0
  0
SPLINE
  5
195
100
AcDbEntity
  8
0
 62
7
100
AcDbSpline
 70
8
 71
3
 72
8
 73
4
 74
0
 40
0
 40
0
 40
0
 40
0
 40
1
 40
1
 40
1
 40
1
 10
-1.691636
 20
573.419865
 30
0.0
 10
-0.563906
 20
573.430609
 30
0.0
 10
0.563900
 20
573.430609
 30
0.0
 10
1.691629
 20
573.419865
 30
0.0
  0
LWPOLYLINE
  5
196
100
AcDbEntity
  8
0
 62
7
100
AcDbPolyline
 90
27
 70
0
 10
-12.245071
 20
573.005477
 30
0.0
 10
-11.592158
 20
571.718820
 30
0.0
 10
-10.993116
 20
570.474349
 30
0.0
 10
-10.452143
 20
569.287626
 30
0.0
 10
-9.963408
 20
568.153173
 30
0.0
 10
-9.524350
 20
567.072258
 30
0.0
 10
-9.135796
 20
566.055117
 30
0.0
 10
-8.626176
 20
564.647589
 30
0.0
 10
-8.531442
 20
564.496389
 30
0.0
 10
-8.483494
 20
564.450042
 30
0.0
 10
-8.435745
 20
564.423113
 30
0.0
 10
-8.388534
 20
564.415743
 30
0.0
 10
-7.953421
 20
564.437286
 30
0.0
 10
-6.625803
 20
564.494093
 30
0.0
 10
-5.297821
 20
564.541601
 30
0.0
 10
-4.862349
 20
564.554074
 30
0.0
 10
-4.815861
 20
564.565129
 30
0.0
 10
-4.770365
 20
564.595658
 30
0.0
 10
-4.726202
 20
564.645633
 30
0.0
 10
-4.643623
 20
564.803806
 30
0.0
 10
-4.246007
 20
566.246980
 30
0.0
 10
-3.938455
 20
567.291470
 30
0.0
 10
-3.585558
 20
568.403500
 30
0.0
 10
-3.187337
 20
569.572802
 30
0.0
 10
-2.741141
 20
570.798312
 30
0.0
 10
-2.241586
 20
572.085947
 30
0.0
 10
-1.691636
 20
573.419865
 30
0.0
  0
SPLINE
  5
197
100
AcDbEntity
  8
0
 62
7
100
AcDbSpline
 70
8
 71
3
 72
8
 73
4
 74
0
 40
0
 40
0
 40
0
 40
0
 40
1
 40
1
 40
1
 40
1
 10
12.245064
 20
573.005477
 30
0.0
 10
13.370160
 20
572.927711
 30
0.0
 10
14.494489
 20
572.839228
 30
0.0
 10
15.617899
 20
572.740041
 30
0.0
  0
LWPOLYLINE
  5
198
100
AcDbEntity
  8
0
 62
7
100
AcDbPolyline
 90
27
 70
0
 10
1.691629
 20
573.419865
 30
0.0
 10
2.241579
 20
572.085947
 30
0.0
 10
2.741135
 20
570.798312
 30
0.0
 10
3.187330
 20
569.572802
 30
0.0
 10
3.585551
 20
568.403500
 30
0.0
 10
3.938448
 20
567.291470
 30
0.0
 10
4.246000
 20
566.246980
 30
0.0
 10
4.643616
 20
564.803806
 30
0.0
 10
4.726195
 20
564.645633
 30
0.0
 10
4.770358
 20
564.595658
 30
0.0
 10
4.815854
 20
564.565129
 30
0.0
 10
4.862343
 20
564.554074
 30
0.0
 10
5.297814
 20
564.541601
 30
0.0
 10
6.625796
 20
564.494093
 30
0.0
 10
7.953414
 20
564.437286
 30
0.0
 10
8.388527
 20
564.415743
 30
0.0
 10
8.435738
 20
564.423113
 30
0.0
 10
8.483487
 20
564.450042
 30
0.0
 10
8.531435
 20
564.496389
 30
0.0
 10
8.626169
 20
564.647589
 30
0.0
 10
9.135789
 20
566.055117
 30
0.0
 10
9.524343
 20
567.072258
 30
0.0
 10
9.963401
 20
568.153173
 30
0.0
 10
10.452137
 20
569.287626
 30
0.0
 10
10.993109
 20
570.474349
 30
0.0
 10
11.592151
 20
571.718820
 30
0.0
 10
12.245064
 20
573.005477
 30
0.0
  0
SPLINE
  5
199
100
AcDbEntity
  8
0
 62
7
100
AcDbSpline
 70
8
 71
3
 72
8
 73
4
 74
0
 40
0
 40
0
 40
0
 40
0
 40
1
 40
1
 40
1
 40
1
 10
26.106266
 20
571.498580
 30
0.0
 10
27.221792
 20
571.332776
 30
0.0
 10
28.335713
 20
571.156348
 30
0.0
 10
29.447877
 20
570.969321
 30
0.0
  0
LWPOLYLINE
  5
19a
100
AcDbEntity
  8
0
 62
7
100
AcDbPolyline
 90
27
 70
0
 10
15.617899
 20
572.740041
 30
0.0
 10
16.061496
 20
571.367087
 30
0.0
 10
16.458485
 20
570.044226
 30
0.0
 10
16.807153
 20
568.787484
 30
0.0
 10
17.112404
 20
567.590544
 30
0.0
 10
17.376964
 20
566.454255
 30
0.0
 10
17.601618
 20
565.388854
 30
0.0
 10
17.884779
 20
563.918932
 30
0.0
 10
17.954693
 20
563.754778
 30
0.0
 10
17.994800
 20
563.701515
 30
0.0
 10
18.037759
 20
563.667528
 30
0.0
 10
18.083236
 20
563.652787
 30
0.0
 10
18.516380
 20
563.606129
 30
0.0
 10
19.836540
 20
563.454561
 30
0.0
 10
21.155608
 20
563.293751
 30
0.0
 10
21.587680
 20
563.238022
 30
0.0
 10
21.635322
 20
563.241707
 30
0.0
 10
21.685033
 20
563.264668
 30
0.0
 10
21.736470
 20
563.307103
 30
0.0
 10
21.842775
 20
563.450394
 30
0.0
 10
22.461258
 20
564.813597
 30
0.0
 10
22.928417
 20
565.797116
 30
0.0
 10
23.450930
 20
566.840251
 30
0.0
 10
24.027167
 20
567.932862
 30
0.0
 10
24.659581
 20
569.073483
 30
0.0
 10
25.354416
 20
570.267117
 30
0.0
 10
26.106266
 20
571.498580
 30
0.0
  0
SPLINE
  5
19b
100
AcDbEntity
  8
0
 62
7
100
AcDbSpline
 70
8
 71
3
 72
8
 73
4
 74
0
 40
0
 40
0
 40
0
 40
0
 40
1
 40
1
 40
1
 40
1
 10
39.806491
 20
568.908818
 30
0.0
 10
40.905569
 20
568.656002
 30
0.0
 10
42.002214
 20
568.392720
 30
0.0
 10
43.096276
 20
568.119010
 30
0.0
  0
LWPOLYLINE
  5
19c
100
AcDbEntity
  8
0
 62
7
100
AcDbPolyline
 90
27
 70
0
 10
29.447877
 20
570.969321
 30
0.0
 10
29.782385
 20
569.565795
 30
0.0
 10
30.074361
 20
568.215867
 30
0.0
 10
30.323357
 20
566.935642
 30
0.0
 10
30.533744
 20
565.718443
 30
0.0
 10
30.708330
 20
564.564899
 30
0.0
 10
30.848701
 20
563.485155
 30
0.0
 10
31.015662
 20
561.997548
 30
0.0
 10
31.072468
 20
561.828405
 30
0.0
 10
31.108269
 20
561.772166
 30
0.0
 10
31.148436
 20
561.734890
 30
0.0
 10
31.192629
 20
561.716748
 30
0.0
 10
31.620776
 20
561.636244
 30
0.0
 10
32.924976
 20
561.381552
 30
0.0
 10
34.227359
 20
561.117760
 30
0.0
 10
34.653726
 20
561.028298
 30
0.0
 10
34.701518
 20
561.028188
 30
0.0
 10
34.752882
 20
561.047180
 30
0.0
 10
34.807477
 20
561.085448
 30
0.0
 10
34.924689
 20
561.219951
 30
0.0
 10
35.648221
 20
562.530427
 30
0.0
 10
36.191106
 20
563.474262
 30
0.0
 10
36.793851
 20
564.473184
 30
0.0
 10
37.454037
 20
565.517215
 30
0.0
 10
38.173994
 20
566.604701
 30
0.0
 10
38.960338
 20
567.740140
 30
0.0
 10
39.806491
 20
568.908818
 30
0.0
  0
SPLINE
  5
19d
100
AcDbEntity
  8
0
 62
7
100
AcDbSpline
 70
8
 71
3
 72
8
 73
4
 74
0
 40
0
 40
0
 40
0
 40
0
 40
1
 40
1
 40
1
 40
1
 10
53.261281
 20
565.252127
 30
0.0
 10
54.337136
 20
564.913857
 30
0.0
 10
55.409744
 20
564.565346
 30
0.0
 10
56.478959
 20
564.206640
 30
0.0
  0
LWPOLYLINE
  5
19e
100
AcDbEntity
  8
0
 62
7
100
AcDbPolyline
 90
27
 70
0
 10
43.096276
 20
568.119010
 30
0.0
 10
43.319646
 20
566.693567
 30
0.0
 10
43.504805
 20
565.324890
 30
0.0
 10
43.652575
 20
564.029078
 30
0.0
 10
43.766840
 20
562.799123
 30
0.0
 10
43.850377
 20
561.635437
 30
0.0
 10
43.905595
 20
560.548008
 30
0.0
 10
43.955315
 20
559.051888
 30
0.0
 10
43.998685
 20
558.878805
 30
0.0
 10
44.029951
 20
558.819901
 30
0.0
 10
44.067057
 20
558.779592
 30
0.0
 10
44.109690
 20
558.758049
 30
0.0
 10
44.530201
 20
558.644181
 30
0.0
 10
45.810397
 20
558.287960
 30
0.0
 10
47.088067
 20
557.922787
 30
0.0
 10
47.506101
 20
557.800160
 30
0.0
 10
47.553723
 20
557.796192
 30
0.0
 10
47.606419
 20
557.811216
 30
0.0
 10
47.663849
 20
557.845090
 30
0.0
 10
47.791266
 20
557.969984
 30
0.0
 10
48.615387
 20
559.219651
 30
0.0
 10
49.230653
 20
560.117984
 30
0.0
 10
49.909913
 20
561.066535
 30
0.0
 10
50.649979
 20
562.055551
 30
0.0
 10
51.453039
 20
563.083197
 30
0.0
 10
52.326044
 20
564.153439
 30
0.0
 10
53.261281
 20
565.252127
 30
0.0
  0
SPLINE
  5
19f
100
AcDbEntity
  8
0
 62
7
100
AcDbSpline
 70
8
 71
3
 72
8
 73
4
 74
0
 40
0
 40
0
 40
0
 40
0
 40
1
 40
1
 40
1
 40
1
 10
66.387811
 20
560.550927
 30
0.0
 10
67.433809
 20
560.129289
 30
0.0
 10
68.475767
 20
559.697696
 30
0.0
 10
69.513542
 20
559.256206
 30
0.0
  0
LWPOLYLINE
  5
1a0
100
AcDbEntity
  8
0
 62
7
100
AcDbPolyline
 90
27
 70
0
 10
56.478959
 20
564.206640
 30
0.0
 10
56.589794
 20
562.768064
 30
0.0
 10
56.667009
 20
561.389080
 30
0.0
 10
56.712675
 20
560.085669
 30
0.0
 10
56.729967
 20
558.850541
 30
0.0
 10
56.722030
 20
557.683886
 30
0.0
 10
56.691756
 20
556.595476
 30
0.0
 10
56.623951
 20
555.100069
 30
0.0
 10
56.653601
 20
554.924122
 30
0.0
 10
56.680247
 20
554.862951
 30
0.0
 10
56.714093
 20
554.819864
 30
0.0
 10
56.754883
 20
554.794919
 30
0.0
 10
57.165164
 20
554.648425
 30
0.0
 10
58.413465
 20
554.192858
 30
0.0
 10
59.658548
 20
553.728566
 30
0.0
 10
60.065671
 20
553.573511
 30
0.0
 10
60.112839
 20
553.565857
 30
0.0
 10
60.166556
 20
553.576629
 30
0.0
 10
60.226480
 20
553.605882
 30
0.0
 10
60.363308
 20
553.720402
 30
0.0
 10
61.282938
 20
554.901558
 30
0.0
 10
61.966787
 20
555.748851
 30
0.0
 10
62.718376
 20
556.641185
 30
0.0
 10
63.533758
 20
557.569083
 30
0.0
 10
64.414970
 20
558.530557
 30
0.0
 10
65.369255
 20
559.529004
 30
0.0
 10
66.387811
 20
560.550927
 30
0.0
  0
SPLINE
  5
1a1
100
AcDbEntity
  8
0
 62
7
100
AcDbSpline
 70
8
 71
3
 72
8
 73
4
 74
0
 40
0
 40
0
 40
0
 40
0
 40
1
 40
1
 40
1
 40
1
 10
79.105197
 20
554.834227
 30
0.0
 10
80.114889
 20
554.331821
 30
0.0
 10
81.119771
 20
553.819807
 30
0.0
 10
82.119708
 20
553.298256
 30
0.0
  0
LWPOLYLINE
  5
1a2
100
AcDbEntity
  8
0
 62
7
100
AcDbPolyline
 90
27
 70
0
 10
69.513542
 20
559.256206
 30
0.0
 10
69.511161
 20
557.813370
 30
0.0
 10
69.479923
 20
556.432581
 30
0.0
 10
69.423173
 20
555.129606
 30
0.0
 10
69.343605
 20
553.896918
 30
0.0
 10
69.244080
 20
552.734490
 30
0.0
 10
69.128512
 20
551.651809
 30
0.0
 10
68.943580
 20
550.166331
 30
0.0
 10
68.959454
 20
549.988599
 30
0.0
 10
68.981281
 20
549.925528
 30
0.0
 10
69.011640
 20
549.879919
 30
0.0
 10
69.050361
 20
549.851856
 30
0.0
 10
69.447883
 20
549.673613
 30
0.0
 10
70.656592
 20
549.121510
 30
0.0
 10
71.861409
 20
548.560962
 30
0.0
 10
72.255110
 20
548.374442
 30
0.0
 10
72.301542
 20
548.363104
 30
0.0
 10
72.355938
 20
548.369623
 30
0.0
 10
72.417960
 20
548.394001
 30
0.0
 10
72.563349
 20
548.497437
 30
0.0
 10
73.572814
 20
549.602798
 30
0.0
 10
74.321035
 20
550.393823
 30
0.0
 10
75.140321
 20
551.224436
 30
0.0
 10
76.025989
 20
552.085501
 30
0.0
 10
76.979923
 20
552.974871
 30
0.0
 10
78.009602
 20
553.895368
 30
0.0
 10
79.105197
 20
554.834227
 30
0.0
  0
SPLINE
  5
1a3
100
AcDbEntity
  8
0
 62
7
100
AcDbSpline
 70
8
 71
3
 72
8
 73
4
 74
0
 40
0
 40
0
 40
0
 40
0
 40
1
 40
1
 40
1
 40
1
 10
91.334679
 20
548.137775
 30
0.0
 10
92.301840
 20
547.557698
 30
0.0
 10
93.263454
 20
546.968421
 30
0.0
 10
94.219388
 20
546.370023
 30
0.0
  0
LWPOLYLINE
  5
1a4
100
AcDbEntity
  8
0
 62
7
100
AcDbPolyline
 90
27
 70
0
 10
82.119708
 20
553.298256
 30
0.0
 10
82.004139
 20
551.860054
 30
0.0
 10
81.864675
 20
550.485971
 30
0.0
 10
81.705878
 20
549.191463
 30
0.0
 10
81.529847
 20
547.968822
 30
0.0
 10
81.339444
 20
546.817783
 30
0.0
 10
81.139289
 20
545.747507
 30
0.0
 10
80.838383
 20
544.281117
 30
0.0
 10
80.840155
 20
544.102705
 30
0.0
 10
80.856880
 20
544.038132
 30
0.0
 10
80.883525
 20
543.990283
 30
0.0
 10
80.919922
 20
543.959328
 30
0.0
 10
81.302236
 20
543.750444
 30
0.0
 10
82.463902
 20
543.105208
 30
0.0
 10
83.621023
 20
542.451859
 30
0.0
 10
83.998878
 20
542.235009
 30
0.0
 10
84.044289
 20
542.220269
 30
0.0
 10
84.099026
 20
542.222525
 30
0.0
 10
84.162777
 20
542.242084
 30
0.0
 10
84.315820
 20
542.333785
 30
0.0
 10
85.408898
 20
543.356539
 30
0.0
 10
86.216874
 20
544.086420
 30
0.0
 10
87.098805
 20
544.850192
 30
0.0
 10
88.049301
 20
545.639116
 30
0.0
 10
89.070073
 20
546.450898
 30
0.0
 10
90.168801
 20
547.287770
 30
0.0
 10
91.334679
 20
548.137775
 30
0.0
  0
SPLINE
  5
1a5
100
AcDbEntity
  8
0
 62
7
100
AcDbSpline
 70
8
 71
3
 72
8
 73
4
 74
0
 40
0
 40
0
 40
0
 40
0
 40
1
 40
1
 40
1
 40
1
 10
103.001211
 20
540.502276
 30
0.0
 10
103.919878
 20
539.848105
 30
0.0
 10
104.832292
 20
539.185198
 30
0.0
 10
105.738329
 20
538.513643
 30
0.0
  0
LWPOLYLINE
  5
1a6
100
AcDbEntity
  8
0
 62
7
100
AcDbPolyline
 90
27
 70
0
 10
94.219388
 20
546.370023
 30
0.0
 10
93.991313
 20
544.945322
 30
0.0
 10
93.744472
 20
543.586417
 30
0.0
 10
93.484592
 20
542.308361
 30
0.0
 10
93.213175
 20
541.103300
 30
0.0
 10
92.933027
 20
539.970749
 30
0.0
 10
92.649514
 20
538.919479
 30
0.0
 10
92.234480
 20
537.481217
 30
0.0
 10
92.222291
 20
537.303202
 30
0.0
 10
92.233913
 20
537.237523
 30
0.0
 10
92.256873
 20
537.187718
 30
0.0
 10
92.290747
 20
537.154015
 30
0.0
 10
92.655492
 20
536.915791
 30
0.0
 10
93.762954
 20
536.181403
 30
0.0
 10
94.865248
 20
535.439282
 30
0.0
 10
95.224924
 20
535.193461
 30
0.0
 10
95.269031
 20
535.175036
 30
0.0
 10
95.323768
 20
535.172990
 30
0.0
 10
95.388852
 20
535.187446
 30
0.0
 10
95.548612
 20
535.266873
 30
0.0
 10
96.718566
 20
536.200710
 30
0.0
 10
97.581318
 20
536.864949
 30
0.0
 10
98.520453
 20
537.557172
 30
0.0
 10
99.529918
 20
538.269087
 30
0.0
 10
100.611235
 20
538.998279
 30
0.0
 10
101.772234
 20
539.746367
 30
0.0
 10
103.001211
 20
540.502276
 30
0.0
  0
SPLINE
  5
1a7
100
AcDbEntity
  8
0
 62
7
100
AcDbSpline
 70
8
 71
3
 72
8
 73
4
 74
0
 40
0
 40
0
 40
0
 40
0
 40
1
 40
1
 40
1
 40
1
 10
114.032597
 20
531.975126
 30
0.0
 10
114.897106
 20
531.250894
 30
0.0
 10
115.754697
 20
530.518443
 30
0.0
 10
116.605251
 20
529.777871
 30
0.0
  0
LWPOLYLINE
  5
1a8
100
AcDbEntity
  8
0
 62
7
100
AcDbPolyline
 90
27
 70
0
 10
105.738329
 20
538.513643
 30
0.0
 10
105.399192
 20
537.111228
 30
0.0
 10
105.046489
 20
535.775879
 30
0.0
 10
104.687130
 20
534.522153
 30
0.0
 10
104.322002
 20
533.342099
 30
0.0
 10
103.953864
 20
532.235020
 30
0.0
 10
103.588742
 20
531.209233
 30
0.0
 10
103.062145
 20
529.807970
 30
0.0
 10
103.036066
 20
529.631485
 30
0.0
 10
103.042302
 20
529.565097
 30
0.0
 10
103.061294
 20
529.513649
 30
0.0
 10
103.092419
 20
529.477393
 30
0.0
 10
103.437350
 20
529.211277
 30
0.0
 10
104.483775
 20
528.392261
 30
0.0
 10
105.524447
 20
527.565942
 30
0.0
 10
105.863725
 20
527.292654
 30
0.0
 10
105.906245
 20
527.270827
 30
0.0
 10
105.960670
 20
527.264591
 30
0.0
 10
106.026689
 20
527.273945
 30
0.0
 10
106.192204
 20
527.340588
 30
0.0
 10
107.431819
 20
528.179753
 30
0.0
 10
108.344028
 20
528.774252
 30
0.0
 10
109.334580
 20
529.390659
 30
0.0
 10
110.396789
 20
530.021177
 30
0.0
 10
111.531984
 20
530.663281
 30
0.0
 10
112.748100
 20
531.317970
 30
0.0
 10
114.032597
 20
531.975126
 30
0.0
  0
SPLINE
  5
1a9
100
AcDbEntity
  8
0
 62
7
100
AcDbSpline
 70
8
 71
3
 72
8
 73
4
 74
0
 40
0
 40
0
 40
0
 40
0
 40
1
 40
1
 40
1
 40
1
 10
124.360695
 20
522.608745
 30
0.0
 10
125.165717
 20
521.818917
 30
0.0
 10
125.963196
 20
521.021438
 30
0.0
 10
126.753024
 20
520.216416
 30
0.0
  0
LWPOLYLINE
  5
1aa
100
AcDbEntity
  8
0
 62
7
100
AcDbPolyline
 90
27
 70
0
 10
116.605251
 20
529.777871
 30
0.0
 10
116.157125
 20
528.406388
 30
0.0
 10
115.700739
 20
527.102829
 30
0.0
 10
115.244123
 20
525.881163
 30
0.0
 10
114.787533
 20
524.733396
 30
0.0
 10
114.333673
 20
523.658612
 30
0.0
 10
113.889192
 20
522.664636
 30
0.0
 10
113.254277
 20
521.309007
 30
0.0
 10
113.214365
 20
521.135102
 30
0.0
 10
113.215499
 20
521.068431
 30
0.0
 10
113.230239
 20
521.015678
 30
0.0
 10
113.258302
 20
520.977099
 30
0.0
 10
113.581290
 20
520.684745
 30
0.0
 10
114.560232
 20
519.786151
 30
0.0
 10
115.532863
 20
518.880732
 30
0.0
 10
115.849654
 20
518.581674
 30
0.0
 10
115.890331
 20
518.556729
 30
0.0
 10
115.944076
 20
518.546241
 30
0.0
 10
116.010634
 20
518.550210
 30
0.0
 10
116.180854
 20
518.603643
 30
0.0
 10
117.482486
 20
519.342963
 30
0.0
 10
118.438526
 20
519.864059
 30
0.0
 10
119.474387
 20
520.400847
 30
0.0
 10
120.582793
 20
520.946082
 30
0.0
 10
121.764867
 20
521.497142
 30
0.0
 10
123.028600
 20
522.054397
 30
0.0
 10
124.360695
 20
522.608745
 30
0.0
  0
SPLINE
  5
1ab
100
AcDbEntity
  8
0
 62
7
100
AcDbSpline
 70
8
 71
3
 72
8
 73
4
 74
0
 40
0
 40
0
 40
0
 40
0
 40
1
 40
1
 40
1
 40
1
 10
133.922151
 20
512.460972
 30
0.0
 10
134.662722
 20
511.610418
 30
0.0
 10
135.395173
 20
510.752827
 30
0.0
 10
136.119405
 20
509.888317
 30
0.0
  0
LWPOLYLINE
  5
1ac
100
AcDbEntity
  8
0
 62
7
100
AcDbPolyline
 90
27
 70
0
 10
126.753024
 20
520.216416
 30
0.0
 10
126.198676
 20
518.884321
 30
0.0
 10
125.641421
 20
517.620588
 30
0.0
 10
125.090361
 20
516.438513
 30
0.0
 10
124.545126
 20
515.330108
 30
0.0
 10
124.008338
 20
514.294247
 30
0.0
 10
123.487242
 20
513.338207
 30
0.0
 10
122.747922
 20
512.036575
 30
0.0
 10
122.694489
 20
511.866355
 30
0.0
 10
122.690520
 20
511.799797
 30
0.0
 10
122.701009
 20
511.746052
 30
0.0
 10
122.725953
 20
511.705375
 30
0.0
 10
123.025011
 20
511.388584
 30
0.0
 10
123.930430
 20
510.415952
 30
0.0
 10
124.829024
 20
509.437011
 30
0.0
 10
125.121378
 20
509.114023
 30
0.0
 10
125.159957
 20
509.085960
 30
0.0
 10
125.212710
 20
509.071220
 30
0.0
 10
125.279381
 20
509.070086
 30
0.0
 10
125.453286
 20
509.109998
 30
0.0
 10
126.808915
 20
509.744913
 30
0.0
 10
127.802891
 20
510.189393
 30
0.0
 10
128.877675
 20
510.643254
 30
0.0
 10
130.025442
 20
511.099844
 30
0.0
 10
131.247108
 20
511.556460
 30
0.0
 10
132.550668
 20
512.012846
 30
0.0
 10
133.922151
 20
512.460972
 30
0.0
  0
SPLINE
  5
1ad
100
AcDbEntity
  8
0
 62
7
100
AcDbSpline
 70
8
 71
3
 72
8
 73
4
 74
0
 40
0
 40
0
 40
0
 40
0
 40
1
 40
1
 40
1
 40
1
 10
142.657922
 20
501.594050
 30
0.0
 10
143.329477
 20
500.688013
 30
0.0
 10
143.992384
 20
499.775599
 30
0.0
 10
144.646555
 20
498.856932
 30
0.0
  0
LWPOLYLINE
  5
1ae
100
AcDbEntity
  8
0
 62
7
100
AcDbPolyline
 90
27
 70
0
 10
136.119405
 20
509.888317
 30
0.0
 10
135.462249
 20
508.603821
 30
0.0
 10
134.807560
 20
507.387705
 30
0.0
 10
134.165457
 20
506.252510
 30
0.0
 10
133.534938
 20
505.190301
 30
0.0
 10
132.918531
 20
504.199748
 30
0.0
 10
132.324032
 20
503.287540
 30
0.0
 10
131.484867
 20
502.047925
 30
0.0
 10
131.418225
 20
501.882410
 30
0.0
 10
131.408870
 20
501.816391
 30
0.0
 10
131.415106
 20
501.761966
 30
0.0
 10
131.436933
 20
501.719446
 30
0.0
 10
131.710221
 20
501.380168
 30
0.0
 10
132.536540
 20
500.339496
 30
0.0
 10
133.355556
 20
499.293070
 30
0.0
 10
133.621673
 20
498.948140
 30
0.0
 10
133.657928
 20
498.917015
 30
0.0
 10
133.709376
 20
498.898023
 30
0.0
 10
133.775764
 20
498.891787
 30
0.0
 10
133.952249
 20
498.917866
 30
0.0
 10
135.353512
 20
499.444463
 30
0.0
 10
136.379299
 20
499.809585
 30
0.0
 10
137.486378
 20
500.177723
 30
0.0
 10
138.666432
 20
500.542851
 30
0.0
 10
139.920158
 20
500.902210
 30
0.0
 10
141.255508
 20
501.254913
 30
0.0
 10
142.657922
 20
501.594050
 30
0.0
  0
SPLINE
  5
1af
100
AcDbEntity
  8
0
 62
7
100
AcDbSpline
 70
8
 71
3
 72
8
 73
4
 74
0
 40
0
 40
0
 40
0
 40
0
 40
1
 40
1
 40
1
 40
1
 10
150.514302
 20
490.075109
 30
0.0
 10
151.112700
 20
489.119175
 30
0.0
 10
151.701977
 20
488.157561
 30
0.0
 10
152.282054
 20
487.190400
 30
0.0
  0
LWPOLYLINE
  5
1b0
100
AcDbEntity
  8
0
 62
7
100
AcDbPolyline
 90
27
 70
0
 10
144.646555
 20
498.856932
 30
0.0
 10
143.890646
 20
497.627955
 30
0.0
 10
143.142558
 20
496.466956
 30
0.0
 10
142.413366
 20
495.385639
 30
0.0
 10
141.701451
 20
494.376174
 30
0.0
 10
141.009228
 20
493.437039
 30
0.0
 10
140.344989
 20
492.574287
 30
0.0
 10
139.411152
 20
491.404333
 30
0.0
 10
139.331725
 20
491.244573
 30
0.0
 10
139.317269
 20
491.179489
 30
0.0
 10
139.319315
 20
491.124752
 30
0.0
 10
139.337741
 20
491.080645
 30
0.0
 10
139.583561
 20
490.720968
 30
0.0
 10
140.325682
 20
489.618675
 30
0.0
 10
141.060070
 20
488.511213
 30
0.0
 10
141.298294
 20
488.146468
 30
0.0
 10
141.331998
 20
488.112594
 30
0.0
 10
141.381802
 20
488.089634
 30
0.0
 10
141.447481
 20
488.078012
 30
0.0
 10
141.625497
 20
488.090201
 30
0.0
 10
143.063758
 20
488.505235
 30
0.0
 10
144.115028
 20
488.788748
 30
0.0
 10
145.247579
 20
489.068895
 30
0.0
 10
146.452640
 20
489.340313
 30
0.0
 10
147.730696
 20
489.600193
 30
0.0
 10
149.089602
 20
489.847034
 30
0.0
 10
150.514302
 20
490.075109
 30
0.0
  0
SPLINE
  5
1b1
100
AcDbEntity
  8
0
 62
7
100
AcDbSpline
 70
8
 71
3
 72
8
 73
4
 74
0
 40
0
 40
0
 40
0
 40
0
 40
1
 40
1
 40
1
 40
1
 10
157.442535
 20
477.975429
 30
0.0
 10
157.964086
 20
476.975492
 30
0.0
 10
158.476100
 20
475.970610
 30
0.0
 10
158.978506
 20
474.960918
 30
0.0
  0
LWPOLYLINE
  5
1b2
100
AcDbEntity
  8
0
 62
7
100
AcDbPolyline
 90
27
 70
0
 10
152.282054
 20
487.190400
 30
0.0
 10
151.432049
 20
486.024522
 30
0.0
 10
150.595177
 20
484.925794
 30
0.0
 10
149.783395
 20
483.905022
 30
0.0
 10
148.994471
 20
482.954526
 30
0.0
 10
148.230699
 20
482.072595
 30
0.0
 10
147.500818
 20
481.264619
 30
0.0
 10
146.478064
 20
480.171541
 30
0.0
 10
146.386363
 20
480.018498
 30
0.0
 10
146.366804
 20
479.954747
 30
0.0
 10
146.364548
 20
479.900010
 30
0.0
 10
146.379288
 20
479.854599
 30
0.0
 10
146.596138
 20
479.476744
 30
0.0
 10
147.249487
 20
478.319622
 30
0.0
 10
147.894723
 20
477.157957
 30
0.0
 10
148.103608
 20
476.775643
 30
0.0
 10
148.134562
 20
476.739246
 30
0.0
 10
148.182411
 20
476.712600
 30
0.0
 10
148.246984
 20
476.695876
 30
0.0
 10
148.425396
 20
476.694104
 30
0.0
 10
149.891786
 20
476.995010
 30
0.0
 10
150.962062
 20
477.195165
 30
0.0
 10
152.113101
 20
477.385568
 30
0.0
 10
153.335742
 20
477.561599
 30
0.0
 10
154.630250
 20
477.720396
 30
0.0
 10
156.004333
 20
477.859860
 30
0.0
 10
157.442535
 20
477.975429
 30
0.0
  0
SPLINE
  5
1b3
100
AcDbEntity
  8
0
 62
7
100
AcDbSpline
 70
8
 71
3
 72
8
 73
4
 74
0
 40
0
 40
0
 40
0
 40
0
 40
1
 40
1
 40
1
 40
1
 10
163.400486
 20
465.369263
 30
0.0
 10
163.841975
 20
464.331487
 30
0.0
 10
164.273569
 20
463.289530
 30
0.0
 10
164.695206
 20
462.243532
 30
0.0
  0
LWPOLYLINE
  5
1b4
100
AcDbEntity
  8
0
 62
7
100
AcDbPolyline
 90
27
 70
0
 10
158.978506
 20
474.960918
 30
0.0
 10
158.039647
 20
473.865323
 30
0.0
 10
157.119150
 20
472.835644
 30
0.0
 10
156.229780
 20
471.881710
 30
0.0
 10
155.368715
 20
470.996042
 30
0.0
 10
154.538102
 20
470.176756
 30
0.0
 10
153.747077
 20
469.428535
 30
0.0
 10
152.641717
 20
468.419070
 30
0.0
 10
152.538280
 20
468.273681
 30
0.0
 10
152.513902
 20
468.211659
 30
0.0
 10
152.507383
 20
468.157262
 30
0.0
 10
152.518721
 20
468.110831
 30
0.0
 10
152.705241
 20
467.717130
 30
0.0
 10
153.265789
 20
466.512313
 30
0.0
 10
153.817892
 20
465.303604
 30
0.0
 10
153.996135
 20
464.906082
 30
0.0
 10
154.024198
 20
464.867361
 30
0.0
 10
154.069807
 20
464.837002
 30
0.0
 10
154.132878
 20
464.815175
 30
0.0
 10
154.310610
 20
464.799301
 30
0.0
 10
155.796088
 20
464.984233
 30
0.0
 10
156.878769
 20
465.099801
 30
0.0
 10
158.041197
 20
465.199326
 30
0.0
 10
159.273885
 20
465.278894
 30
0.0
 10
160.576860
 20
465.335644
 30
0.0
 10
161.957649
 20
465.366881
 30
0.0
 10
163.400486
 20
465.369263
 30
0.0
  0
SPLINE
  5
1b5
100
AcDbEntity
  8
0
 62
7
100
AcDbSpline
 70
8
 71
3
 72
8
 73
4
 74
0
 40
0
 40
0
 40
0
 40
0
 40
1
 40
1
 40
1
 40
1
 10
168.350919
 20
452.334680
 30
0.0
 10
168.709625
 20
451.265465
 30
0.0
 10
169.058137
 20
450.192857
 30
0.0
 10
169.396407
 20
449.117002
 30
0.0
  0
LWPOLYLINE
  5
1b6
100
AcDbEntity
  8
0
 62
7
100
AcDbPolyline
 90
27
 70
0
 10
164.695206
 20
462.243532
 30
0.0
 10
163.673283
 20
461.224976
 30
0.0
 10
162.674837
 20
460.270691
 30
0.0
 10
161.713362
 20
459.389479
 30
0.0
 10
160.785464
 20
458.574097
 30
0.0
 10
159.893130
 20
457.822508
 30
0.0
 10
159.045838
 20
457.138659
 30
0.0
 10
157.864681
 20
456.219029
 30
0.0
 10
157.750162
 20
456.082201
 30
0.0
 10
157.720908
 20
456.022277
 30
0.0
 10
157.710136
 20
455.968560
 30
0.0
 10
157.717790
 20
455.921392
 30
0.0
 10
157.872845
 20
455.514269
 30
0.0
 10
158.337137
 20
454.269185
 30
0.0
 10
158.792704
 20
453.020885
 30
0.0
 10
158.939198
 20
452.610604
 30
0.0
 10
158.964143
 20
452.569814
 30
0.0
 10
159.007230
 20
452.535968
 30
0.0
 10
159.068401
 20
452.509322
 30
0.0
 10
159.244348
 20
452.479672
 30
0.0
 10
160.739756
 20
452.547477
 30
0.0
 10
161.828165
 20
452.577751
 30
0.0
 10
162.994820
 20
452.585688
 30
0.0
 10
164.229948
 20
452.568396
 30
0.0
 10
165.533360
 20
452.522730
 30
0.0
 10
166.912343
 20
452.445514
 30
0.0
 10
168.350919
 20
452.334680
 30
0.0
  0
SPLINE
  5
1b7
100
AcDbEntity
  8
0
 62
7
100
AcDbSpline
 70
8
 71
3
 72
8
 73
4
 74
0
 40
0
 40
0
 40
0
 40
0
 40
1
 40
1
 40
1
 40
1
 10
172.263289
 20
438.951997
 30
0.0
 10
172.536999
 20
437.857935
 30
0.0
 10
172.800281
 20
436.761290
 30
0.0
 10
173.053097
 20
435.662211
 30
0.0
  0
LWPOLYLINE
  5
1b8
100
AcDbEntity
  8
0
 62
7
100
AcDbPolyline
 90
27
 70
0
 10
169.396407
 20
449.117002
 30
0.0
 10
168.297718
 20
448.181765
 30
0.0
 10
167.227476
 20
447.308760
 30
0.0
 10
166.199830
 20
446.505700
 30
0.0
 10
165.210814
 20
445.765634
 30
0.0
 10
164.262263
 20
445.086373
 30
0.0
 10
163.363930
 20
444.471108
 30
0.0
 10
162.114263
 20
443.646987
 30
0.0
 10
161.989369
 20
443.519569
 30
0.0
 10
161.955495
 20
443.462140
 30
0.0
 10
161.940471
 20
443.409443
 30
0.0
 10
161.944440
 20
443.361821
 30
0.0
 10
162.067066
 20
442.943788
 30
0.0
 10
162.432239
 20
441.666118
 30
0.0
 10
162.788460
 20
440.385922
 30
0.0
 10
162.902328
 20
439.965411
 30
0.0
 10
162.923871
 20
439.922778
 30
0.0
 10
162.964180
 20
439.885672
 30
0.0
 10
163.023084
 20
439.854406
 30
0.0
 10
163.196167
 20
439.811036
 30
0.0
 10
164.692287
 20
439.761316
 30
0.0
 10
165.779716
 20
439.706097
 30
0.0
 10
166.943402
 20
439.622560
 30
0.0
 10
168.173357
 20
439.508296
 30
0.0
 10
169.469169
 20
439.360526
 30
0.0
 10
170.837846
 20
439.175367
 30
0.0
 10
172.263289
 20
438.951997
 30
0.0
  0
SPLINE
  5
1b9
100
AcDbEntity
  8
0
 62
7
100
AcDbSpline
 70
8
 71
3
 72
8
 73
4
 74
0
 40
0
 40
0
 40
0
 40
0
 40
1
 40
1
 40
1
 40
1
 10
175.113600
 20
425.303598
 30
0.0
 10
175.300627
 20
424.191433
 30
0.0
 10
175.477055
 20
423.077512
 30
0.0
 10
175.642859
 20
421.961986
 30
0.0
  0
LWPOLYLINE
  5
1ba
100
AcDbEntity
  8
0
 62
7
100
AcDbPolyline
 90
27
 70
0
 10
173.053097
 20
435.662211
 30
0.0
 10
171.884419
 20
434.816059
 30
0.0
 10
170.748980
 20
434.029714
 30
0.0
 10
169.661494
 20
433.309757
 30
0.0
 10
168.617463
 20
432.649572
 30
0.0
 10
167.618541
 20
432.046827
 30
0.0
 10
166.674706
 20
431.503942
 30
0.0
 10
165.364231
 20
430.780410
 30
0.0
 10
165.229727
 20
430.663198
 30
0.0
 10
165.191459
 20
430.608603
 30
0.0
 10
165.172467
 20
430.557239
 30
0.0
 10
165.172577
 20
430.509447
 30
0.0
 10
165.262039
 20
430.083079
 30
0.0
 10
165.525831
 20
428.780697
 30
0.0
 10
165.780523
 20
427.476497
 30
0.0
 10
165.861027
 20
427.048349
 30
0.0
 10
165.879169
 20
427.004157
 30
0.0
 10
165.916445
 20
426.963990
 30
0.0
 10
165.972684
 20
426.928189
 30
0.0
 10
166.141827
 20
426.871383
 30
0.0
 10
167.629434
 20
426.704422
 30
0.0
 10
168.709178
 20
426.564050
 30
0.0
 10
169.862723
 20
426.389465
 30
0.0
 10
171.079921
 20
426.179077
 30
0.0
 10
172.360146
 20
425.930082
 30
0.0
 10
173.710074
 20
425.638106
 30
0.0
 10
175.113600
 20
425.303598
 30
0.0
  0
SPLINE
  5
1bb
100
AcDbEntity
  8
0
 62
7
100
AcDbSpline
 70
8
 71
3
 72
8
 73
4
 74
0
 40
0
 40
0
 40
0
 40
0
 40
1
 40
1
 40
1
 40
1
 10
176.884320
 20
411.473619
 30
0.0
 10
176.983507
 20
410.350209
 30
0.0
 10
177.071990
 20
409.225880
 30
0.0
 10
177.149756
 20
408.100784
 30
0.0
  0
LWPOLYLINE
  5
1bc
100
AcDbEntity
  8
0
 62
7
100
AcDbPolyline
 90
27
 70
0
 10
175.642859
 20
421.961986
 30
0.0
 10
174.411396
 20
421.210136
 30
0.0
 10
173.217762
 20
420.515301
 30
0.0
 10
172.077141
 20
419.882886
 30
0.0
 10
170.984530
 20
419.306649
 30
0.0
 10
169.941395
 20
418.784137
 30
0.0
 10
168.957876
 20
418.316977
 30
0.0
 10
167.594673
 20
417.698495
 30
0.0
 10
167.451382
 20
417.592190
 30
0.0
 10
167.408947
 20
417.540752
 30
0.0
 10
167.385986
 20
417.491041
 30
0.0
 10
167.382301
 20
417.443399
 30
0.0
 10
167.438030
 20
417.011327
 30
0.0
 10
167.598840
 20
415.692260
 30
0.0
 10
167.750408
 20
414.372100
 30
0.0
 10
167.797066
 20
413.938955
 30
0.0
 10
167.811807
 20
413.893479
 30
0.0
 10
167.845794
 20
413.850520
 30
0.0
 10
167.899057
 20
413.810413
 30
0.0
 10
168.063211
 20
413.740499
 30
0.0
 10
169.533133
 20
413.457338
 30
0.0
 10
170.598534
 20
413.232684
 30
0.0
 10
171.734823
 20
412.968124
 30
0.0
 10
172.931763
 20
412.662873
 30
0.0
 10
174.188505
 20
412.314205
 30
0.0
 10
175.511366
 20
411.917216
 30
0.0
 10
176.884320
 20
411.473619
 30
0.0
  0
LWPOLYLINE
  5
1bd
100
AcDbEntity
  8
0
 62
7
100
AcDbPolyline
 90
2
 70
0
 10
177.149756
 20
408.100784
 30
0.0
 10
175.862329
 20
407.447093
 30
0.0
  0
ENDSEC
  0
SECTION
  2
OBJECTS
  0
DICTIONARY
  5
C
330
0
100
AcDbDictionary
  3
ACAD_GROUP
350
D
  3
ACAD_MLINESTYLE
350
17
  0
DICTIONARY
  5
D
330
C
100
AcDbDictionary
  0
DICTIONARY
  5
1A
330
C
100
AcDbDictionary
  0
DICTIONARY
  5
17
330
C
100
AcDbDictionary
  3
STANDARD
350
18
  0
DICTIONARY
  5
19
330
C
100
AcDbDictionary
  0
ENDSEC
  0
EOF
