  0
SECTION
  2
HEADER
  9
$ACADVER
  1
AC1014
  9
$HANDSEED
  5
FFFF
  9
$MEASUREMENT
 70
     1
  0
ENDSEC
  0
SECTION
  2
TABLES
  0
TABLE
  2
VPORT
  5
8
330
0
100
AcDbSymbolTable
 70
     4
  0
VPORT
  5
2E
330
8
100
AcDbSymbolTableRecord
100
AcDbViewportTableRecord
  2
*ACTIVE
 70
     0
 10
0.0
 20
0.0
 11
1.0
 21
1.0
 12
210.0
 22
148.5
 13
0.0
 23
0.0
 14
10.0
 24
10.0
 15
10.0
 25
10.0
 16
0.0
 26
0.0
 36
1.0
 17
0.0
 27
0.0
 37
0.0
 40
341.0
 41
1.24
 42
50.0
 43
0.0
 44
0.0
 50
0.0
 51
0.0
 71
     0
 72
   100
 73
     1
 74
     3
 75
     0
 76
     0
 77
     0
 78
     0
  0
ENDTAB
  0
TABLE
  2
LTYPE
  5
5
330
0
100
AcDbSymbolTable
 70
     1
  0
LTYPE
  5
14
330
5
100
AcDbSymbolTableRecord
100
AcDbLinetypeTableRecord
  2
BYBLOCK
 70
     0
  3

 72
    65
 73
     0
 40
0.0
  0
LTYPE
  5
15
330
5
100
AcDbSymbolTableRecord
100
AcDbLinetypeTableRecord
  2
BYLAYER
 70
     0
  3

 72
    65
 73
     0
 40
0.0
  0
LTYPE
  5
16
330
5
100
AcDbSymbolTableRecord
100
AcDbLinetypeTableRecord
  2
CONTINUOUS
 70
     0
  3
Solid line
 72
    65
 73
     0
 40
0.0
  0
ENDTAB
  0
TABLE
  2
LAYER
  5
2
100
AcDbSymbolTable
 70
1
  0
LAYER
  5
50
100
AcDbSymbolTableRecord
100
AcDbLayerTableRecord
  2
0
 70
0
  6
CONTINUOUS
  0
ENDTAB
  0
TABLE
  2
STYLE
  5
3
330
0
100
AcDbSymbolTable
 70
     1
  0
STYLE
  5
11
330
3
100
AcDbSymbolTableRecord
100
AcDbTextStyleTableRecord
  2
STANDARD
 70
     0
 40
0.0
 41
1.0
 50
0.0
 71
     0
 42
2.5
  3
txt
  4

  0
ENDTAB
  0
TABLE
  2
VIEW
  5
6
330
0
100
AcDbSymbolTable
 70
     0
  0
ENDTAB
  0
TABLE
  2
UCS
  5
7
330
0
100
AcDbSymbolTable
 70
     0
  0
ENDTAB
  0
TABLE
  2
APPID
  5
9
330
0
100
AcDbSymbolTable
 70
     2
  0
APPID
  5
12
330
9
100
AcDbSymbolTableRecord
100
AcDbRegAppTableRecord
  2
ACAD
 70
     0
  0
ENDTAB
  0
TABLE
  2
DIMSTYLE
  5
A
330
0
100
AcDbSymbolTable
 70
     1
  0
DIMSTYLE
105
27
330
A
100
AcDbSymbolTableRecord
100
AcDbDimStyleTableRecord
  2
ISO-25
 70
     0
  3

  4

  5

  6

  7

 40
1.0
 41
2.5
 42
0.625
 43
3.75
 44
1.25
 45
0.0
 46
0.0
 47
0.0
 48
0.0
140
2.5
141
2.5
142
0.0
143
0.03937007874016
144
1.0
145
0.0
146
1.0
147
0.625
 71
     0
 72
     0
 73
     0
 74
     0
 75
     0
 76
     0
 77
     1
 78
     8
170
     0
171
     3
172
     1
173
     0
174
     0
175
     0
176
     0
177
     0
178
     0
270
     2
271
     2
272
     2
273
     2
274
     3
340
11
275
     0
280
     0
281
     0
282
     0
283
     0
284
     8
285
     0
286
     0
287
     3
288
     0
  0
ENDTAB
  0
TABLE
  2
BLOCK_RECORD
  5
1
330
0
100
AcDbSymbolTable
 70
     1
  0
BLOCK_RECORD
  5
1F
330
1
100
AcDbSymbolTableRecord
100
AcDbBlockTableRecord
  2
*MODEL_SPACE
  0
BLOCK_RECORD
  5
1B
330
1
100
AcDbSymbolTableRecord
100
AcDbBlockTableRecord
  2
*PAPER_SPACE
  0
ENDTAB
  0
ENDSEC
  0
SECTION
  2
BLOCKS
  0
BLOCK
  5
20
330
1F
100
AcDbEntity
  8
0
100
AcDbBlockBegin
  2
*MODEL_SPACE
 70
     0
 10
0.0
 20
0.0
 30
0.0
  3
*MODEL_SPACE
  1

  0
ENDBLK
  5
21
330
1F
100
AcDbEntity
  8
0
100
AcDbBlockEnd
  0
BLOCK
  5
1C
330
1B
100
AcDbEntity
 67
     1
  8
0
100
AcDbBlockBegin
  2
*PAPER_SPACE
  1

  0
ENDBLK
  5
1D
330
1B
100
AcDbEntity
 67
     1
  8
0
100
AcDbBlockEnd
  0
ENDSEC
  0
SECTION
  2
ENTITIES
  0
SPLINE
  5
100
100
AcDbEntity
  8
0
 62
7
100
AcDbSpline
 70
8
 71
3
 72
8
 73
4
 74
0
 40
0
 40
0
 40
0
 40
0
 40
1
 40
1
 40
1
 40
1
 10
31.831023
 20
60.696387
 30
0.0
 10
31.022098
 20
60.696387
 30
0.0
 10
30.292825
 20
60.209103
 30
0.0
 10
29.983263
 20
59.461753
 30
0.0
  0
SPLINE
  5
101
100
AcDbEntity
  8
0
 62
7
100
AcDbSpline
 70
8
 71
3
 72
8
 73
4
 74
0
 40
0
 40
0
 40
0
 40
0
 40
1
 40
1
 40
1
 40
1
 10
29.983263
 20
59.461753
 30
0.0
 10
29.673701
 20
58.714404
 30
0.0
 10
29.844812
 20
57.854168
 30
0.0
 10
30.416809
 20
57.282171
 30
0.0
  0
SPLINE
  5
102
100
AcDbEntity
  8
0
 62
7
100
AcDbSpline
 70
8
 71
3
 72
8
 73
4
 74
0
 40
0
 40
0
 40
0
 40
0
 40
1
 40
1
 40
1
 40
1
 10
30.416809
 20
57.282171
 30
0.0
 10
30.988805
 20
56.710175
 30
0.0
 10
31.849041
 20
56.539063
 30
0.0
 10
32.596391
 20
56.848626
 30
0.0
  0
SPLINE
  5
103
100
AcDbEntity
  8
0
 62
7
100
AcDbSpline
 70
8
 71
3
 72
8
 73
4
 74
0
 40
0
 40
0
 40
0
 40
0
 40
1
 40
1
 40
1
 40
1
 10
32.596391
 20
56.848626
 30
0.0
 10
33.343740
 20
57.158188
 30
0.0
 10
33.831025
 20
57.887461
 30
0.0
 10
33.831025
 20
58.696386
 30
0.0
  0
SPLINE
  5
104
100
AcDbEntity
  8
0
 62
7
100
AcDbSpline
 70
8
 71
3
 72
8
 73
4
 74
0
 40
0
 40
0
 40
0
 40
0
 40
1
 40
1
 40
1
 40
1
 10
33.831025
 20
58.696386
 30
0.0
 10
33.831025
 20
59.226819
 30
0.0
 10
33.620311
 20
59.735528
 30
0.0
 10
33.245238
 20
60.110601
 30
0.0
  0
SPLINE
  5
105
100
AcDbEntity
  8
0
 62
7
100
AcDbSpline
 70
8
 71
3
 72
8
 73
4
 74
0
 40
0
 40
0
 40
0
 40
0
 40
1
 40
1
 40
1
 40
1
 10
33.245238
 20
60.110601
 30
0.0
 10
32.870165
 20
60.485674
 30
0.0
 10
32.361457
 20
60.696387
 30
0.0
 10
31.831023
 20
60.696387
 30
0.0
  0
LWPOLYLINE
  5
106
100
AcDbEntity
  8
0
 62
7
100
AcDbPolyline
 90
1
 70
1
 10
31.831023
 20
60.696387
 30
0.0
  0
SPLINE
  5
107
100
AcDbEntity
  8
0
 62
7
100
AcDbSpline
 70
8
 71
3
 72
8
 73
4
 74
0
 40
0
 40
0
 40
0
 40
0
 40
1
 40
1
 40
1
 40
1
 10
5.760256
 20
57.431180
 30
0.0
 10
5.752478
 20
57.591458
 30
0.0
 10
5.746177
 20
57.751804
 30
0.0
 10
5.741356
 20
57.912197
 30
0.0
  0
LWPOLYLINE
  5
108
100
AcDbEntity
  8
0
 62
7
100
AcDbPolyline
 90
28
 70
0
 10
6.024885
 20
55.947144
 30
0.0
 10
6.205429
 20
56.044188
 30
0.0
 10
6.378756
 20
56.132730
 30
0.0
 10
6.545394
 20
56.213484
 30
0.0
 10
6.702238
 20
56.285492
 30
0.0
 10
6.851583
 20
56.350309
 30
0.0
 10
6.994144
 20
56.408654
 30
0.0
 10
7.094503
 20
56.447789
 30
0.0
 10
7.124683
 20
56.463104
 30
0.0
 10
7.143383
 20
56.478469
 30
0.0
 10
7.148383
 20
56.486019
 30
0.0
 10
7.150583
 20
56.493389
 30
0.0
 10
7.145183
 20
56.557843
 30
0.0
 10
7.129193
 20
56.752308
 30
0.0
 10
7.114563
 20
56.946880
 30
0.0
 10
7.109863
 20
57.011387
 30
0.0
 10
7.106563
 20
57.018327
 30
0.0
 10
7.100363
 20
57.024997
 30
0.0
 10
7.079483
 20
57.037247
 30
0.0
 10
7.047273
 20
57.047652
 30
0.0
 10
6.942028
 20
57.070605
 30
0.0
 10
6.792094
 20
57.105930
 30
0.0
 10
6.634448
 20
57.146587
 30
0.0
 10
6.468271
 20
57.193172
 30
0.0
 10
6.291052
 20
57.246863
 30
0.0
 10
6.106006
 20
57.307201
 30
0.0
 10
5.912506
 20
57.374807
 30
0.0
 10
5.760256
 20
57.431180
 30
0.0
  0
SPLINE
  5
109
100
AcDbEntity
  8
0
 62
7
100
AcDbSpline
 70
8
 71
3
 72
8
 73
4
 74
0
 40
0
 40
0
 40
0
 40
0
 40
1
 40
1
 40
1
 40
1
 10
5.741357
 20
59.480571
 30
0.0
 10
5.746178
 20
59.640965
 30
0.0
 10
5.752479
 20
59.801311
 30
0.0
 10
5.760257
 20
59.961588
 30
0.0
  0
LWPOLYLINE
  5
10a
100
AcDbEntity
  8
0
 62
7
100
AcDbPolyline
 90
29
 70
0
 10
5.741356
 20
57.912197
 30
0.0
 10
5.888713
 20
57.980342
 30
0.0
 10
6.076313
 20
58.062922
 30
0.0
 10
6.256054
 20
58.137592
 30
0.0
 10
6.428514
 20
58.205022
 30
0.0
 10
6.590524
 20
58.264502
 30
0.0
 10
6.744494
 20
58.317402
 30
0.0
 10
6.891194
 20
58.364382
 30
0.0
 10
6.994314
 20
58.395522
 30
0.0
 10
7.025604
 20
58.408422
 30
0.0
 10
7.045454
 20
58.422272
 30
0.0
 10
7.051054
 20
58.429402
 30
0.0
 10
7.053854
 20
58.436582
 30
0.0
 10
7.053514
 20
58.501263
 30
0.0
 10
7.052835
 20
58.696386
 30
0.0
 10
7.053515
 20
58.891506
 30
0.0
 10
7.053855
 20
58.956186
 30
0.0
 10
7.051055
 20
58.963366
 30
0.0
 10
7.045455
 20
58.970496
 30
0.0
 10
7.025605
 20
58.984346
 30
0.0
 10
6.994315
 20
58.997246
 30
0.0
 10
6.891195
 20
59.028386
 30
0.0
 10
6.744495
 20
59.075366
 30
0.0
 10
6.590525
 20
59.128266
 30
0.0
 10
6.428515
 20
59.187746
 30
0.0
 10
6.256055
 20
59.255176
 30
0.0
 10
6.076314
 20
59.329846
 30
0.0
 10
5.888714
 20
59.412427
 30
0.0
 10
5.741357
 20
59.480571
 30
0.0
  0
SPLINE
  5
10b
100
AcDbEntity
  8
0
 62
7
100
AcDbSpline
 70
8
 71
3
 72
8
 73
4
 74
0
 40
0
 40
0
 40
0
 40
0
 40
1
 40
1
 40
1
 40
1
 10
5.883330
 20
61.525120
 30
0.0
 10
5.900720
 20
61.684641
 30
0.0
 10
5.919581
 20
61.843998
 30
0.0
 10
5.939910
 20
62.003172
 30
0.0
  0
LWPOLYLINE
  5
10c
100
AcDbEntity
  8
0
 62
7
100
AcDbPolyline
 90
29
 70
0
 10
5.760257
 20
59.961588
 30
0.0
 10
5.912507
 20
60.017961
 30
0.0
 10
6.106007
 20
60.085567
 30
0.0
 10
6.291053
 20
60.145905
 30
0.0
 10
6.468272
 20
60.199596
 30
0.0
 10
6.634449
 20
60.246181
 30
0.0
 10
6.792095
 20
60.286838
 30
0.0
 10
6.942029
 20
60.322163
 30
0.0
 10
7.047274
 20
60.345116
 30
0.0
 10
7.079484
 20
60.355521
 30
0.0
 10
7.100364
 20
60.367771
 30
0.0
 10
7.106564
 20
60.374441
 30
0.0
 10
7.109864
 20
60.381381
 30
0.0
 10
7.114564
 20
60.445889
 30
0.0
 10
7.129194
 20
60.640461
 30
0.0
 10
7.145184
 20
60.834926
 30
0.0
 10
7.150584
 20
60.899380
 30
0.0
 10
7.148384
 20
60.906750
 30
0.0
 10
7.143384
 20
60.914300
 30
0.0
 10
7.124684
 20
60.929665
 30
0.0
 10
7.094504
 20
60.944980
 30
0.0
 10
6.994145
 20
60.984115
 30
0.0
 10
6.851584
 20
61.042460
 30
0.0
 10
6.702239
 20
61.107277
 30
0.0
 10
6.545395
 20
61.179285
 30
0.0
 10
6.378757
 20
61.260038
 30
0.0
 10
6.205430
 20
61.348580
 30
0.0
 10
6.024886
 20
61.445624
 30
0.0
 10
5.883330
 20
61.525120
 30
0.0
  0
SPLINE
  5
10d
100
AcDbEntity
  8
0
 62
7
100
AcDbSpline
 70
8
 71
3
 72
8
 73
4
 74
0
 40
0
 40
0
 40
0
 40
0
 40
1
 40
1
 40
1
 40
1
 10
6.185288
 20
63.552231
 30
0.0
 10
6.215139
 20
63.709895
 30
0.0
 10
6.246444
 20
63.867282
 30
0.0
 10
6.279198
 20
64.024369
 30
0.0
  0
LWPOLYLINE
  5
10e
100
AcDbEntity
  8
0
 62
7
100
AcDbPolyline
 90
29
 70
0
 10
5.939910
 20
62.003172
 30
0.0
 10
6.096113
 20
62.047426
 30
0.0
 10
6.294323
 20
62.099642
 30
0.0
 10
6.483531
 20
62.145275
 30
0.0
 10
6.664416
 20
62.184896
 30
0.0
 10
6.833736
 20
62.218300
 30
0.0
 10
6.994086
 20
62.246463
 30
0.0
 10
7.146329
 20
62.269916
 30
0.0
 10
7.253051
 20
62.284541
 30
0.0
 10
7.285971
 20
62.292391
 30
0.0
 10
7.307741
 20
62.302965
 30
0.0
 10
7.314441
 20
62.309125
 30
0.0
 10
7.318241
 20
62.315785
 30
0.0
 10
7.328041
 20
62.379722
 30
0.0
 10
7.357891
 20
62.572546
 30
0.0
 10
7.389091
 20
62.765158
 30
0.0
 10
7.399541
 20
62.828988
 30
0.0
 10
7.397941
 20
62.836508
 30
0.0
 10
7.393541
 20
62.844428
 30
0.0
 10
7.376101
 20
62.861213
 30
0.0
 10
7.347211
 20
62.878849
 30
0.0
 10
7.250231
 20
62.925737
 30
0.0
 10
7.112687
 20
62.995088
 30
0.0
 10
6.968888
 20
63.071423
 30
0.0
 10
6.818177
 20
63.155515
 30
0.0
 10
6.658389
 20
63.249094
 30
0.0
 10
6.492543
 20
63.350962
 30
0.0
 10
6.320171
 20
63.461873
 30
0.0
 10
6.185288
 20
63.552231
 30
0.0
  0
SPLINE
  5
10f
100
AcDbEntity
  8
0
 62
7
100
AcDbSpline
 70
8
 71
3
 72
8
 73
4
 74
0
 40
0
 40
0
 40
0
 40
0
 40
1
 40
1
 40
1
 40
1
 10
6.645349
 20
65.549407
 30
0.0
 10
6.687480
 20
65.704243
 30
0.0
 10
6.731038
 20
65.858688
 30
0.0
 10
6.776017
 20
66.012721
 30
0.0
  0
LWPOLYLINE
  5
110
100
AcDbEntity
  8
0
 62
7
100
AcDbPolyline
 90
29
 70
0
 10
6.279198
 20
64.024369
 30
0.0
 10
6.438392
 20
64.056231
 30
0.0
 10
6.640086
 20
64.092735
 30
0.0
 10
6.832291
 20
64.123382
 30
0.0
 10
7.015728
 20
64.148689
 30
0.0
 10
7.187147
 20
64.168705
 30
0.0
 10
7.349212
 20
64.184200
 30
0.0
 10
7.502826
 20
64.195636
 30
0.0
 10
7.610367
 20
64.201846
 30
0.0
 10
7.643807
 20
64.207086
 30
0.0
 10
7.666337
 20
64.215916
 30
0.0
 10
7.673437
 20
64.221536
 30
0.0
 10
7.677837
 20
64.227876
 30
0.0
 10
7.692607
 20
64.290848
 30
0.0
 10
7.737497
 20
64.480736
 30
0.0
 10
7.783707
 20
64.670306
 30
0.0
 10
7.799137
 20
64.733119
 30
0.0
 10
7.798137
 20
64.740749
 30
0.0
 10
7.794337
 20
64.748989
 30
0.0
 10
7.778267
 20
64.767090
 30
0.0
 10
7.750857
 20
64.786938
 30
0.0
 10
7.657857
 20
64.841291
 30
0.0
 10
7.526178
 20
64.921219
 30
0.0
 10
7.388810
 20
65.008601
 30
0.0
 10
7.245162
 20
65.104258
 30
0.0
 10
7.093208
 20
65.210085
 30
0.0
 10
6.935866
 20
65.324652
 30
0.0
 10
6.772727
 20
65.448745
 30
0.0
 10
6.645349
 20
65.549407
 30
0.0
  0
SPLINE
  5
111
100
AcDbEntity
  8
0
 62
7
100
AcDbSpline
 70
8
 71
3
 72
8
 73
4
 74
0
 40
0
 40
0
 40
0
 40
0
 40
1
 40
1
 40
1
 40
1
 10
7.260611
 20
67.504327
 30
0.0
 10
7.314761
 20
67.655381
 30
0.0
 10
7.370302
 20
67.805932
 30
0.0
 10
7.427228
 20
67.955961
 30
0.0
  0
LWPOLYLINE
  5
112
100
AcDbEntity
  8
0
 62
7
100
AcDbPolyline
 90
29
 70
0
 10
6.776017
 20
66.012721
 30
0.0
 10
6.937221
 20
66.031995
 30
0.0
 10
7.141157
 20
66.052562
 30
0.0
 10
7.335175
 20
66.068035
 30
0.0
 10
7.520032
 20
66.078872
 30
0.0
 10
7.692493
 20
66.085372
 30
0.0
 10
7.855274
 20
66.088102
 30
0.0
 10
8.009312
 20
66.087450
 30
0.0
 10
8.117007
 20
66.085200
 30
0.0
 10
8.150747
 20
66.087800
 30
0.0
 10
8.173907
 20
66.094840
 30
0.0
 10
8.181407
 20
66.099880
 30
0.0
 10
8.186207
 20
66.105860
 30
0.0
 10
8.205867
 20
66.167479
 30
0.0
 10
8.265517
 20
66.353259
 30
0.0
 10
8.326457
 20
66.538619
 30
0.0
 10
8.346767
 20
66.600028
 30
0.0
 10
8.346360
 20
66.607708
 30
0.0
 10
8.343260
 20
66.616228
 30
0.0
 10
8.328660
 20
66.635534
 30
0.0
 10
8.302890
 20
66.657472
 30
0.0
 10
8.214440
 20
66.718955
 30
0.0
 10
8.089437
 20
66.808968
 30
0.0
 10
7.959350
 20
66.906858
 30
0.0
 10
7.823650
 20
67.013490
 30
0.0
 10
7.680468
 20
67.130913
 30
0.0
 10
7.532599
 20
67.257471
 30
0.0
 10
7.379699
 20
67.393981
 30
0.0
 10
7.260611
 20
67.504327
 30
0.0
  0
SPLINE
  5
113
100
AcDbEntity
  8
0
 62
7
100
AcDbSpline
 70
8
 71
3
 72
8
 73
4
 74
0
 40
0
 40
0
 40
0
 40
0
 40
1
 40
1
 40
1
 40
1
 10
8.027372
 20
69.404952
 30
0.0
 10
8.093206
 20
69.551291
 30
0.0
 10
8.160388
 20
69.697021
 30
0.0
 10
8.228909
 20
69.842121
 30
0.0
  0
LWPOLYLINE
  5
114
100
AcDbEntity
  8
0
 62
7
100
AcDbPolyline
 90
29
 70
0
 10
7.427228
 20
67.955961
 30
0.0
 10
7.589447
 20
67.962531
 30
0.0
 10
7.794369
 20
67.967031
 30
0.0
 10
7.989002
 20
67.967234
 30
0.0
 10
8.174139
 20
67.963534
 30
0.0
 10
8.346578
 20
67.956484
 30
0.0
 10
8.509072
 20
67.946435
 30
0.0
 10
8.662584
 20
67.933698
 30
0.0
 10
8.769771
 20
67.923005
 30
0.0
 10
8.803611
 20
67.922949
 30
0.0
 10
8.827251
 20
67.928149
 30
0.0
 10
8.835151
 20
67.932589
 30
0.0
 10
8.840451
 20
67.938169
 30
0.0
 10
8.864891
 20
67.998056
 30
0.0
 10
8.938932
 20
68.178584
 30
0.0
 10
9.014232
 20
68.358592
 30
0.0
 10
9.039302
 20
68.418218
 30
0.0
 10
9.039500
 20
68.425908
 30
0.0
 10
9.037000
 20
68.434648
 30
0.0
 10
9.023960
 20
68.455040
 30
0.0
 10
8.999990
 20
68.478932
 30
0.0
 10
8.916640
 20
68.547164
 30
0.0
 10
8.799085
 20
68.646708
 30
0.0
 10
8.677079
 20
68.754502
 30
0.0
 10
8.550163
 20
68.871453
 30
0.0
 10
8.416635
 20
68.999749
 30
0.0
 10
8.279152
 20
69.137518
 30
0.0
 10
8.137434
 20
69.285604
 30
0.0
 10
8.027372
 20
69.404952
 30
0.0
  0
SPLINE
  5
115
100
AcDbEntity
  8
0
 62
7
100
AcDbSpline
 70
8
 71
3
 72
8
 73
4
 74
0
 40
0
 40
0
 40
0
 40
0
 40
1
 40
1
 40
1
 40
1
 10
8.940864
 20
71.239523
 30
0.0
 10
9.017976
 20
71.380246
 30
0.0
 10
9.096385
 20
71.520255
 30
0.0
 10
9.176080
 20
71.659532
 30
0.0
  0
LWPOLYLINE
  5
116
100
AcDbEntity
  8
0
 62
7
100
AcDbPolyline
 90
29
 70
0
 10
8.228909
 20
69.842121
 30
0.0
 10
8.391143
 20
69.835921
 30
0.0
 10
8.595786
 20
69.824331
 30
0.0
 10
8.789835
 20
69.809261
 30
0.0
 10
8.974112
 20
69.791051
 30
0.0
 10
9.145467
 20
69.770501
 30
0.0
 10
9.306671
 20
69.747731
 30
0.0
 10
9.458711
 20
69.722991
 30
0.0
 10
9.564728
 20
69.703921
 30
0.0
 10
9.598468
 20
69.701221
 30
0.0
 10
9.622448
 20
69.704521
 30
0.0
 10
9.630648
 20
69.708321
 30
0.0
 10
9.636348
 20
69.713421
 30
0.0
 10
9.665408
 20
69.771211
 30
0.0
 10
9.753388
 20
69.945373
 30
0.0
 10
9.842578
 20
70.118917
 30
0.0
 10
9.872248
 20
70.176397
 30
0.0
 10
9.873049
 20
70.184097
 30
0.0
 10
9.871249
 20
70.192997
 30
0.0
 10
9.859849
 20
70.214347
 30
0.0
 10
9.837829
 20
70.240047
 30
0.0
 10
9.760089
 20
70.314608
 30
0.0
 10
9.650707
 20
70.423068
 30
0.0
 10
9.537535
 20
70.540103
 30
0.0
 10
9.420186
 20
70.666651
 30
0.0
 10
9.297136
 20
70.805027
 30
0.0
 10
9.170886
 20
70.953158
 30
0.0
 10
9.041224
 20
71.111906
 30
0.0
 10
8.940864
 20
71.239523
 30
0.0
  0
SPLINE
  5
117
100
AcDbEntity
  8
0
 62
7
100
AcDbSpline
 70
8
 71
3
 72
8
 73
4
 74
0
 40
0
 40
0
 40
0
 40
0
 40
1
 40
1
 40
1
 40
1
 10
9.995485
 20
72.996796
 30
0.0
 10
10.083401
 20
73.131035
 30
0.0
 10
10.172554
 20
73.264460
 30
0.0
 10
10.262931
 20
73.397055
 30
0.0
  0
LWPOLYLINE
  5
118
100
AcDbEntity
  8
0
 62
7
100
AcDbPolyline
 90
29
 70
0
 10
9.176080
 20
71.659532
 30
0.0
 10
9.337329
 20
71.640642
 30
0.0
 10
9.540432
 20
71.613031
 30
0.0
 10
9.732701
 20
71.582781
 30
0.0
 10
9.914979
 20
71.550161
 30
0.0
 10
10.084193
 20
71.516221
 30
0.0
 10
10.243116
 20
71.480881
 30
0.0
 10
10.392745
 20
71.444291
 30
0.0
 10
10.496940
 20
71.416961
 30
0.0
 10
10.530360
 20
71.411661
 30
0.0
 10
10.554520
 20
71.413061
 30
0.0
 10
10.563020
 20
71.416161
 30
0.0
 10
10.569120
 20
71.420861
 30
0.0
 10
10.602630
 20
71.476191
 30
0.0
 10
10.704000
 20
71.642914
 30
0.0
 10
10.806530
 20
71.808926
 30
0.0
 10
10.840610
 20
71.863896
 30
0.0
 10
10.842010
 20
71.871496
 30
0.0
 10
10.840910
 20
71.880496
 30
0.0
 10
10.831210
 20
71.902676
 30
0.0
 10
10.811270
 20
71.930026
 30
0.0
 10
10.739620
 20
72.010456
 30
0.0
 10
10.639085
 20
72.127164
 30
0.0
 10
10.535444
 20
72.252717
 30
0.0
 10
10.428386
 20
72.388082
 30
0.0
 10
10.316571
 20
72.535686
 30
0.0
 10
10.202332
 20
72.693267
 30
0.0
 10
10.085525
 20
72.861698
 30
0.0
 10
9.995485
 20
72.996796
 30
0.0
  0
SPLINE
  5
119
100
AcDbEntity
  8
0
 62
7
100
AcDbSpline
 70
8
 71
3
 72
8
 73
4
 74
0
 40
0
 40
0
 40
0
 40
0
 40
1
 40
1
 40
1
 40
1
 10
11.184831
 20
74.665907
 30
0.0
 10
11.283008
 20
74.792834
 30
0.0
 10
11.382354
 20
74.918854
 30
0.0
 10
11.482855
 20
75.043949
 30
0.0
  0
LWPOLYLINE
  5
11a
100
AcDbEntity
  8
0
 62
7
100
AcDbPolyline
 90
29
 70
0
 10
10.262931
 20
73.397055
 30
0.0
 10
10.422200
 20
73.365575
 30
0.0
 10
10.622511
 20
73.322115
 30
0.0
 10
10.811813
 20
73.276875
 30
0.0
 10
10.990971
 20
73.230055
 30
0.0
 10
11.157001
 20
73.182945
 30
0.0
 10
11.312659
 20
73.135245
 30
0.0
 10
11.458956
 20
73.087025
 30
0.0
 10
11.560686
 20
73.051605
 30
0.0
 10
11.593586
 20
73.043605
 30
0.0
 10
11.617787
 20
73.043142
 30
0.0
 10
11.626487
 20
73.045642
 30
0.0
 10
11.632987
 20
73.049842
 30
0.0
 10
11.670727
 20
73.102372
 30
0.0
 10
11.784865
 20
73.260627
 30
0.0
 10
11.900104
 20
73.418083
 30
0.0
 10
11.938394
 20
73.470213
 30
0.0
 10
11.940394
 20
73.477613
 30
0.0
 10
11.940038
 20
73.486713
 30
0.0
 10
11.932138
 20
73.509583
 30
0.0
 10
11.914408
 20
73.538413
 30
0.0
 10
11.849288
 20
73.624223
 30
0.0
 10
11.758218
 20
73.748459
 30
0.0
 10
11.664748
 20
73.881757
 30
0.0
 10
11.568637
 20
74.025105
 30
0.0
 10
11.468747
 20
74.181026
 30
0.0
 10
11.367224
 20
74.347084
 30
0.0
 10
11.263991
 20
74.524162
 30
0.0
 10
11.184831
 20
74.665907
 30
0.0
  0
SPLINE
  5
11b
100
AcDbEntity
  8
0
 62
7
100
AcDbSpline
 70
8
 71
3
 72
8
 73
4
 74
0
 40
0
 40
0
 40
0
 40
0
 40
1
 40
1
 40
1
 40
1
 10
12.501508
 20
76.236644
 30
0.0
 10
12.609341
 20
76.355477
 30
0.0
 10
12.718268
 20
76.473314
 30
0.0
 10
12.828274
 20
76.590138
 30
0.0
  0
LWPOLYLINE
  5
11c
100
AcDbEntity
  8
0
 62
7
100
AcDbPolyline
 90
29
 70
0
 10
11.482855
 20
75.043949
 30
0.0
 10
11.639164
 20
75.000069
 30
0.0
 10
11.835448
 20
74.941029
 30
0.0
 10
12.020618
 20
74.881079
 30
0.0
 10
12.195549
 20
74.820349
 30
0.0
 10
12.357372
 20
74.760359
 30
0.0
 10
12.508808
 20
74.700589
 30
0.0
 10
12.650870
 20
74.641039
 30
0.0
 10
12.749510
 20
74.597749
 30
0.0
 10
12.781680
 20
74.587239
 30
0.0
 10
12.805770
 20
74.584839
 30
0.0
 10
12.814670
 20
74.586639
 30
0.0
 10
12.821470
 20
74.590339
 30
0.0
 10
12.863220
 20
74.639739
 30
0.0
 10
12.989425
 20
74.788551
 30
0.0
 10
13.116662
 20
74.936480
 30
0.0
 10
13.158932
 20
74.985440
 30
0.0
 10
13.161532
 20
74.992740
 30
0.0
 10
13.161889
 20
75.001840
 30
0.0
 10
13.155789
 20
75.025260
 30
0.0
 10
13.140369
 20
75.055390
 30
0.0
 10
13.082179
 20
75.146040
 30
0.0
 10
13.001139
 20
75.277038
 30
0.0
 10
12.918418
 20
75.417259
 30
0.0
 10
12.833858
 20
75.567705
 30
0.0
 10
12.746508
 20
75.730984
 30
0.0
 10
12.658328
 20
75.904495
 30
0.0
 10
12.569308
 20
76.089126
 30
0.0
 10
12.501508
 20
76.236644
 30
0.0
  0
SPLINE
  5
11d
100
AcDbEntity
  8
0
 62
7
100
AcDbSpline
 70
8
 71
3
 72
8
 73
4
 74
0
 40
0
 40
0
 40
0
 40
0
 40
1
 40
1
 40
1
 40
1
 10
13.937297
 20
77.699161
 30
0.0
 10
14.054122
 20
77.809167
 30
0.0
 10
14.171958
 20
77.918094
 30
0.0
 10
14.290791
 20
78.025927
 30
0.0
  0
LWPOLYLINE
  5
11e
100
AcDbEntity
  8
0
 62
7
100
AcDbPolyline
 90
29
 70
0
 10
12.828274
 20
76.590138
 30
0.0
 10
12.980658
 20
76.534128
 30
0.0
 10
13.171704
 20
76.459868
 30
0.0
 10
13.351599
 20
76.385568
 30
0.0
 10
13.521227
 20
76.311298
 30
0.0
 10
13.677844
 20
76.238798
 30
0.0
 10
13.824123
 20
76.167328
 30
0.0
 10
13.961076
 20
76.096818
 30
0.0
 10
14.056016
 20
76.045918
 30
0.0
 10
14.087266
 20
76.032918
 30
0.0
 10
14.111096
 20
76.028718
 30
0.0
 10
14.120096
 20
76.029818
 30
0.0
 10
14.127096
 20
76.032918
 30
0.0
 10
14.172596
 20
76.078898
 30
0.0
 10
14.310086
 20
76.217349
 30
0.0
 10
14.448538
 20
76.354839
 30
0.0
 10
14.494518
 20
76.400339
 30
0.0
 10
14.497618
 20
76.407339
 30
0.0
 10
14.498718
 20
76.416339
 30
0.0
 10
14.494518
 20
76.440169
 30
0.0
 10
14.481518
 20
76.471419
 30
0.0
 10
14.430618
 20
76.566359
 30
0.0
 10
14.360108
 20
76.703312
 30
0.0
 10
14.288637
 20
76.849591
 30
0.0
 10
14.216137
 20
77.006208
 30
0.0
 10
14.141867
 20
77.175837
 30
0.0
 10
14.067567
 20
77.355732
 30
0.0
 10
13.993307
 20
77.546778
 30
0.0
 10
13.937297
 20
77.699161
 30
0.0
  0
SPLINE
  5
11f
100
AcDbEntity
  8
0
 62
7
100
AcDbSpline
 70
8
 71
3
 72
8
 73
4
 74
0
 40
0
 40
0
 40
0
 40
0
 40
1
 40
1
 40
1
 40
1
 10
15.483486
 20
79.044580
 30
0.0
 10
15.608582
 20
79.145081
 30
0.0
 10
15.734601
 20
79.244427
 30
0.0
 10
15.861529
 20
79.342604
 30
0.0
  0
LWPOLYLINE
  5
120
100
AcDbEntity
  8
0
 62
7
100
AcDbPolyline
 90
29
 70
0
 10
14.290791
 20
78.025927
 30
0.0
 10
14.438310
 20
77.958127
 30
0.0
 10
14.622941
 20
77.869107
 30
0.0
 10
14.796452
 20
77.780927
 30
0.0
 10
14.959730
 20
77.693577
 30
0.0
 10
15.110176
 20
77.609017
 30
0.0
 10
15.250397
 20
77.526297
 30
0.0
 10
15.381395
 20
77.445257
 30
0.0
 10
15.472045
 20
77.387067
 30
0.0
 10
15.502175
 20
77.371647
 30
0.0
 10
15.525595
 20
77.365547
 30
0.0
 10
15.534695
 20
77.365904
 30
0.0
 10
15.541995
 20
77.368504
 30
0.0
 10
15.590955
 20
77.410774
 30
0.0
 10
15.738885
 20
77.538011
 30
0.0
 10
15.887697
 20
77.664215
 30
0.0
 10
15.937097
 20
77.705965
 30
0.0
 10
15.940797
 20
77.712765
 30
0.0
 10
15.942597
 20
77.721665
 30
0.0
 10
15.940197
 20
77.745755
 30
0.0
 10
15.929687
 20
77.777925
 30
0.0
 10
15.886397
 20
77.876565
 30
0.0
 10
15.826847
 20
78.018627
 30
0.0
 10
15.767077
 20
78.170063
 30
0.0
 10
15.707087
 20
78.331886
 30
0.0
 10
15.646356
 20
78.506818
 30
0.0
 10
15.586406
 20
78.691988
 30
0.0
 10
15.527366
 20
78.888272
 30
0.0
 10
15.483486
 20
79.044580
 30
0.0
  0
SPLINE
  5
121
100
AcDbEntity
  8
0
 62
7
100
AcDbSpline
 70
8
 71
3
 72
8
 73
4
 74
0
 40
0
 40
0
 40
0
 40
0
 40
1
 40
1
 40
1
 40
1
 10
17.130381
 20
80.264505
 30
0.0
 10
17.262975
 20
80.354882
 30
0.0
 10
17.396401
 20
80.444034
 30
0.0
 10
17.530640
 20
80.531950
 30
0.0
  0
LWPOLYLINE
  5
122
100
AcDbEntity
  8
0
 62
7
100
AcDbPolyline
 90
29
 70
0
 10
15.861529
 20
79.342604
 30
0.0
 10
16.003274
 20
79.263444
 30
0.0
 10
16.180351
 20
79.160211
 30
0.0
 10
16.346409
 20
79.058688
 30
0.0
 10
16.502330
 20
78.958798
 30
0.0
 10
16.645678
 20
78.862688
 30
0.0
 10
16.778976
 20
78.769218
 30
0.0
 10
16.903212
 20
78.678148
 30
0.0
 10
16.989022
 20
78.613028
 30
0.0
 10
17.017852
 20
78.595298
 30
0.0
 10
17.040722
 20
78.587398
 30
0.0
 10
17.049822
 20
78.587042
 30
0.0
 10
17.057222
 20
78.589042
 30
0.0
 10
17.109353
 20
78.627332
 30
0.0
 10
17.266809
 20
78.742571
 30
0.0
 10
17.425064
 20
78.856709
 30
0.0
 10
17.477594
 20
78.894449
 30
0.0
 10
17.481794
 20
78.900949
 30
0.0
 10
17.484294
 20
78.909649
 30
0.0
 10
17.483831
 20
78.933849
 30
0.0
 10
17.475831
 20
78.966749
 30
0.0
 10
17.440411
 20
79.068479
 30
0.0
 10
17.392191
 20
79.214776
 30
0.0
 10
17.344491
 20
79.370434
 30
0.0
 10
17.297381
 20
79.536464
 30
0.0
 10
17.250561
 20
79.715622
 30
0.0
 10
17.205321
 20
79.904925
 30
0.0
 10
17.161861
 20
80.105236
 30
0.0
 10
17.130381
 20
80.264505
 30
0.0
  0
SPLINE
  5
123
100
AcDbEntity
  8
0
 62
7
100
AcDbSpline
 70
8
 71
3
 72
8
 73
4
 74
0
 40
0
 40
0
 40
0
 40
0
 40
1
 40
1
 40
1
 40
1
 10
18.867904
 20
81.351356
 30
0.0
 10
19.007181
 20
81.431050
 30
0.0
 10
19.147189
 20
81.509459
 30
0.0
 10
19.287912
 20
81.586572
 30
0.0
  0
LWPOLYLINE
  5
124
100
AcDbEntity
  8
0
 62
7
100
AcDbPolyline
 90
29
 70
0
 10
17.530640
 20
80.531950
 30
0.0
 10
17.665737
 20
80.441910
 30
0.0
 10
17.834168
 20
80.325103
 30
0.0
 10
17.991749
 20
80.210865
 30
0.0
 10
18.139353
 20
80.099050
 30
0.0
 10
18.274718
 20
79.991992
 30
0.0
 10
18.400271
 20
79.888351
 30
0.0
 10
18.516980
 20
79.787815
 30
0.0
 10
18.597410
 20
79.716165
 30
0.0
 10
18.624760
 20
79.696225
 30
0.0
 10
18.646940
 20
79.686525
 30
0.0
 10
18.655940
 20
79.685425
 30
0.0
 10
18.663540
 20
79.686825
 30
0.0
 10
18.718510
 20
79.720905
 30
0.0
 10
18.884522
 20
79.823436
 30
0.0
 10
19.051244
 20
79.924806
 30
0.0
 10
19.106574
 20
79.958316
 30
0.0
 10
19.111274
 20
79.964416
 30
0.0
 10
19.114374
 20
79.972916
 30
0.0
 10
19.115774
 20
79.997076
 30
0.0
 10
19.110474
 20
80.030496
 30
0.0
 10
19.083144
 20
80.134691
 30
0.0
 10
19.046554
 20
80.284320
 30
0.0
 10
19.011214
 20
80.443242
 30
0.0
 10
18.977274
 20
80.612456
 30
0.0
 10
18.944654
 20
80.794734
 30
0.0
 10
18.914404
 20
80.987003
 30
0.0
 10
18.886794
 20
81.190107
 30
0.0
 10
18.867904
 20
81.351356
 30
0.0
  0
SPLINE
  5
125
100
AcDbEntity
  8
0
 62
7
100
AcDbSpline
 70
8
 71
3
 72
8
 73
4
 74
0
 40
0
 40
0
 40
0
 40
0
 40
1
 40
1
 40
1
 40
1
 10
20.685314
 20
82.298526
 30
0.0
 10
20.830415
 20
82.367048
 30
0.0
 10
20.976144
 20
82.434230
 30
0.0
 10
21.122483
 20
82.500063
 30
0.0
  0
LWPOLYLINE
  5
126
100
AcDbEntity
  8
0
 62
7
100
AcDbPolyline
 90
29
 70
0
 10
19.287912
 20
81.586572
 30
0.0
 10
19.415529
 20
81.486212
 30
0.0
 10
19.574277
 20
81.356550
 30
0.0
 10
19.722408
 20
81.230300
 30
0.0
 10
19.860785
 20
81.107249
 30
0.0
 10
19.987333
 20
80.989900
 30
0.0
 10
20.104368
 20
80.876728
 30
0.0
 10
20.212828
 20
80.767346
 30
0.0
 10
20.287388
 20
80.689606
 30
0.0
 10
20.313088
 20
80.667586
 30
0.0
 10
20.334438
 20
80.656186
 30
0.0
 10
20.343338
 20
80.654386
 30
0.0
 10
20.351038
 20
80.655187
 30
0.0
 10
20.408518
 20
80.684857
 30
0.0
 10
20.582062
 20
80.774047
 30
0.0
 10
20.756224
 20
80.862027
 30
0.0
 10
20.814014
 20
80.891087
 30
0.0
 10
20.819114
 20
80.896787
 30
0.0
 10
20.822914
 20
80.904987
 30
0.0
 10
20.826214
 20
80.928967
 30
0.0
 10
20.823514
 20
80.962707
 30
0.0
 10
20.804444
 20
81.068724
 30
0.0
 10
20.779704
 20
81.220765
 30
0.0
 10
20.756934
 20
81.381969
 30
0.0
 10
20.736384
 20
81.553324
 30
0.0
 10
20.718174
 20
81.737600
 30
0.0
 10
20.703104
 20
81.931649
 30
0.0
 10
20.691514
 20
82.136292
 30
0.0
 10
20.685314
 20
82.298526
 30
0.0
  0
SPLINE
  5
127
100
AcDbEntity
  8
0
 62
7
100
AcDbSpline
 70
8
 71
3
 72
8
 73
4
 74
0
 40
0
 40
0
 40
0
 40
0
 40
1
 40
1
 40
1
 40
1
 10
22.571475
 20
83.100207
 30
0.0
 10
22.721504
 20
83.157133
 30
0.0
 10
22.872055
 20
83.212674
 30
0.0
 10
23.023109
 20
83.266824
 30
0.0
  0
LWPOLYLINE
  5
128
100
AcDbEntity
  8
0
 62
7
100
AcDbPolyline
 90
29
 70
0
 10
21.122483
 20
82.500063
 30
0.0
 10
21.241832
 20
82.390001
 30
0.0
 10
21.389918
 20
82.248283
 30
0.0
 10
21.527687
 20
82.110800
 30
0.0
 10
21.655982
 20
81.977272
 30
0.0
 10
21.772933
 20
81.850356
 30
0.0
 10
21.880728
 20
81.728350
 30
0.0
 10
21.980272
 20
81.610796
 30
0.0
 10
22.048504
 20
81.527446
 30
0.0
 10
22.072396
 20
81.503476
 30
0.0
 10
22.092788
 20
81.490436
 30
0.0
 10
22.101528
 20
81.487936
 30
0.0
 10
22.109218
 20
81.488134
 30
0.0
 10
22.168844
 20
81.513204
 30
0.0
 10
22.348852
 20
81.588504
 30
0.0
 10
22.529379
 20
81.662544
 30
0.0
 10
22.589266
 20
81.686984
 30
0.0
 10
22.594846
 20
81.692284
 30
0.0
 10
22.599286
 20
81.700184
 30
0.0
 10
22.604486
 20
81.723824
 30
0.0
 10
22.604430
 20
81.757664
 30
0.0
 10
22.593737
 20
81.864851
 30
0.0
 10
22.581001
 20
82.018363
 30
0.0
 10
22.570952
 20
82.180857
 30
0.0
 10
22.563902
 20
82.353296
 30
0.0
 10
22.560202
 20
82.538433
 30
0.0
 10
22.560405
 20
82.733067
 30
0.0
 10
22.564905
 20
82.937989
 30
0.0
 10
22.571475
 20
83.100207
 30
0.0
  0
SPLINE
  5
129
100
AcDbEntity
  8
0
 62
7
100
AcDbSpline
 70
8
 71
3
 72
8
 73
4
 74
0
 40
0
 40
0
 40
0
 40
0
 40
1
 40
1
 40
1
 40
1
 10
24.514715
 20
83.751418
 30
0.0
 10
24.668748
 20
83.796398
 30
0.0
 10
24.823193
 20
83.839956
 30
0.0
 10
24.978029
 20
83.882086
 30
0.0
  0
LWPOLYLINE
  5
12a
100
AcDbEntity
  8
0
 62
7
100
AcDbPolyline
 90
29
 70
0
 10
23.023109
 20
83.266824
 30
0.0
 10
23.133454
 20
83.147736
 30
0.0
 10
23.269964
 20
82.994837
 30
0.0
 10
23.396522
 20
82.846968
 30
0.0
 10
23.513945
 20
82.703786
 30
0.0
 10
23.620578
 20
82.568086
 30
0.0
 10
23.718468
 20
82.437998
 30
0.0
 10
23.808481
 20
82.312995
 30
0.0
 10
23.869963
 20
82.224545
 30
0.0
 10
23.891901
 20
82.198775
 30
0.0
 10
23.911207
 20
82.184175
 30
0.0
 10
23.919727
 20
82.181075
 30
0.0
 10
23.927407
 20
82.180668
 30
0.0
 10
23.988816
 20
82.200978
 30
0.0
 10
24.174177
 20
82.261918
 30
0.0
 10
24.359957
 20
82.321568
 30
0.0
 10
24.421576
 20
82.341228
 30
0.0
 10
24.427556
 20
82.346028
 30
0.0
 10
24.432596
 20
82.353528
 30
0.0
 10
24.439636
 20
82.376688
 30
0.0
 10
24.442236
 20
82.410428
 30
0.0
 10
24.439986
 20
82.518123
 30
0.0
 10
24.439334
 20
82.672162
 30
0.0
 10
24.442064
 20
82.834943
 30
0.0
 10
24.448564
 20
83.007404
 30
0.0
 10
24.459401
 20
83.192260
 30
0.0
 10
24.474874
 20
83.386278
 30
0.0
 10
24.495441
 20
83.590214
 30
0.0
 10
24.514715
 20
83.751418
 30
0.0
  0
SPLINE
  5
12b
100
AcDbEntity
  8
0
 62
7
100
AcDbSpline
 70
8
 71
3
 72
8
 73
4
 74
0
 40
0
 40
0
 40
0
 40
0
 40
1
 40
1
 40
1
 40
1
 10
26.503067
 20
84.248238
 30
0.0
 10
26.660154
 20
84.280992
 30
0.0
 10
26.817540
 20
84.312296
 30
0.0
 10
26.975205
 20
84.342148
 30
0.0
  0
LWPOLYLINE
  5
12c
100
AcDbEntity
  8
0
 62
7
100
AcDbPolyline
 90
29
 70
0
 10
24.978029
 20
83.882086
 30
0.0
 10
25.078691
 20
83.754708
 30
0.0
 10
25.202784
 20
83.591569
 30
0.0
 10
25.317350
 20
83.434227
 30
0.0
 10
25.423177
 20
83.282273
 30
0.0
 10
25.518834
 20
83.138625
 30
0.0
 10
25.606216
 20
83.001258
 30
0.0
 10
25.686145
 20
82.869579
 30
0.0
 10
25.740498
 20
82.776579
 30
0.0
 10
25.760346
 20
82.749169
 30
0.0
 10
25.778447
 20
82.733099
 30
0.0
 10
25.786687
 20
82.729299
 30
0.0
 10
25.794317
 20
82.728299
 30
0.0
 10
25.857130
 20
82.743729
 30
0.0
 10
26.046700
 20
82.789939
 30
0.0
 10
26.236588
 20
82.834829
 30
0.0
 10
26.299560
 20
82.849599
 30
0.0
 10
26.305900
 20
82.853999
 30
0.0
 10
26.311520
 20
82.861099
 30
0.0
 10
26.320350
 20
82.883629
 30
0.0
 10
26.325590
 20
82.917069
 30
0.0
 10
26.331800
 20
83.024609
 30
0.0
 10
26.343236
 20
83.178223
 30
0.0
 10
26.358731
 20
83.340288
 30
0.0
 10
26.378747
 20
83.511707
 30
0.0
 10
26.404054
 20
83.695144
 30
0.0
 10
26.434701
 20
83.887349
 30
0.0
 10
26.471205
 20
84.089044
 30
0.0
 10
26.503067
 20
84.248238
 30
0.0
  0
SPLINE
  5
12d
100
AcDbEntity
  8
0
 62
7
100
AcDbSpline
 70
8
 71
3
 72
8
 73
4
 74
0
 40
0
 40
0
 40
0
 40
0
 40
1
 40
1
 40
1
 40
1
 10
28.524264
 20
84.587525
 30
0.0
 10
28.683437
 20
84.607854
 30
0.0
 10
28.842794
 20
84.626715
 30
0.0
 10
29.002315
 20
84.644105
 30
0.0
  0
LWPOLYLINE
  5
12e
100
AcDbEntity
  8
0
 62
7
100
AcDbPolyline
 90
29
 70
0
 10
26.975205
 20
84.342148
 30
0.0
 10
27.065563
 20
84.207265
 30
0.0
 10
27.176474
 20
84.034893
 30
0.0
 10
27.278342
 20
83.869046
 30
0.0
 10
27.371921
 20
83.709258
 30
0.0
 10
27.456013
 20
83.558547
 30
0.0
 10
27.532348
 20
83.414748
 30
0.0
 10
27.601699
 20
83.277204
 30
0.0
 10
27.648587
 20
83.180224
 30
0.0
 10
27.666223
 20
83.151334
 30
0.0
 10
27.683008
 20
83.133894
 30
0.0
 10
27.690928
 20
83.129494
 30
0.0
 10
27.698448
 20
83.127894
 30
0.0
 10
27.762278
 20
83.138344
 30
0.0
 10
27.954890
 20
83.169544
 30
0.0
 10
28.147714
 20
83.199394
 30
0.0
 10
28.211651
 20
83.209194
 30
0.0
 10
28.218311
 20
83.212994
 30
0.0
 10
28.224471
 20
83.219694
 30
0.0
 10
28.235045
 20
83.241464
 30
0.0
 10
28.242895
 20
83.274384
 30
0.0
 10
28.257520
 20
83.381106
 30
0.0
 10
28.280973
 20
83.533349
 30
0.0
 10
28.309136
 20
83.693699
 30
0.0
 10
28.342540
 20
83.863019
 30
0.0
 10
28.382161
 20
84.043905
 30
0.0
 10
28.427794
 20
84.233113
 30
0.0
 10
28.480010
 20
84.431322
 30
0.0
 10
28.524264
 20
84.587525
 30
0.0
  0
SPLINE
  5
12f
100
AcDbEntity
  8
0
 62
7
100
AcDbSpline
 70
8
 71
3
 72
8
 73
4
 74
0
 40
0
 40
0
 40
0
 40
0
 40
1
 40
1
 40
1
 40
1
 10
30.565848
 20
84.767178
 30
0.0
 10
30.726125
 20
84.774957
 30
0.0
 10
30.886471
 20
84.781257
 30
0.0
 10
31.046864
 20
84.786078
 30
0.0
  0
LWPOLYLINE
  5
130
100
AcDbEntity
  8
0
 62
7
100
AcDbPolyline
 90
29
 70
0
 10
29.002315
 20
84.644105
 30
0.0
 10
29.081811
 20
84.502549
 30
0.0
 10
29.178855
 20
84.322006
 30
0.0
 10
29.267398
 20
84.148679
 30
0.0
 10
29.348151
 20
83.982041
 30
0.0
 10
29.420159
 20
83.825196
 30
0.0
 10
29.484976
 20
83.675851
 30
0.0
 10
29.543321
 20
83.533290
 30
0.0
 10
29.582456
 20
83.432931
 30
0.0
 10
29.597771
 20
83.402751
 30
0.0
 10
29.613136
 20
83.384051
 30
0.0
 10
29.620686
 20
83.379051
 30
0.0
 10
29.628056
 20
83.376851
 30
0.0
 10
29.692510
 20
83.382251
 30
0.0
 10
29.886975
 20
83.398241
 30
0.0
 10
30.081547
 20
83.412871
 30
0.0
 10
30.146054
 20
83.417571
 30
0.0
 10
30.152994
 20
83.420871
 30
0.0
 10
30.159664
 20
83.427071
 30
0.0
 10
30.171914
 20
83.447951
 30
0.0
 10
30.182319
 20
83.480161
 30
0.0
 10
30.205272
 20
83.585406
 30
0.0
 10
30.240597
 20
83.735340
 30
0.0
 10
30.281254
 20
83.892986
 30
0.0
 10
30.327839
 20
84.059164
 30
0.0
 10
30.381530
 20
84.236383
 30
0.0
 10
30.441869
 20
84.421428
 30
0.0
 10
30.509475
 20
84.614928
 30
0.0
 10
30.565848
 20
84.767178
 30
0.0
  0
SPLINE
  5
131
100
AcDbEntity
  8
0
 62
7
100
AcDbSpline
 70
8
 71
3
 72
8
 73
4
 74
0
 40
0
 40
0
 40
0
 40
0
 40
1
 40
1
 40
1
 40
1
 10
32.615235
 20
84.786078
 30
0.0
 10
32.775629
 20
84.781257
 30
0.0
 10
32.935974
 20
84.774957
 30
0.0
 10
33.096252
 20
84.767178
 30
0.0
  0
LWPOLYLINE
  5
132
100
AcDbEntity
  8
0
 62
7
100
AcDbPolyline
 90
29
 70
0
 10
31.046864
 20
84.786078
 30
0.0
 10
31.115009
 20
84.638721
 30
0.0
 10
31.197589
 20
84.451121
 30
0.0
 10
31.272259
 20
84.271381
 30
0.0
 10
31.339689
 20
84.098921
 30
0.0
 10
31.399169
 20
83.936911
 30
0.0
 10
31.452069
 20
83.782940
 30
0.0
 10
31.499050
 20
83.636240
 30
0.0
 10
31.530190
 20
83.533120
 30
0.0
 10
31.543090
 20
83.501830
 30
0.0
 10
31.556940
 20
83.481980
 30
0.0
 10
31.564070
 20
83.476380
 30
0.0
 10
31.571250
 20
83.473580
 30
0.0
 10
31.635930
 20
83.473920
 30
0.0
 10
31.831050
 20
83.474600
 30
0.0
 10
32.026170
 20
83.473920
 30
0.0
 10
32.090850
 20
83.473580
 30
0.0
 10
32.098030
 20
83.476380
 30
0.0
 10
32.105160
 20
83.481980
 30
0.0
 10
32.119010
 20
83.501830
 30
0.0
 10
32.131910
 20
83.533120
 30
0.0
 10
32.163050
 20
83.636240
 30
0.0
 10
32.210030
 20
83.782940
 30
0.0
 10
32.262930
 20
83.936911
 30
0.0
 10
32.322410
 20
84.098921
 30
0.0
 10
32.389840
 20
84.271381
 30
0.0
 10
32.464510
 20
84.451121
 30
0.0
 10
32.547090
 20
84.638721
 30
0.0
 10
32.615235
 20
84.786078
 30
0.0
  0
SPLINE
  5
133
100
AcDbEntity
  8
0
 62
7
100
AcDbSpline
 70
8
 71
3
 72
8
 73
4
 74
0
 40
0
 40
0
 40
0
 40
0
 40
1
 40
1
 40
1
 40
1
 10
34.659784
 20
84.644105
 30
0.0
 10
34.819305
 20
84.626715
 30
0.0
 10
34.978662
 20
84.607854
 30
0.0
 10
35.137835
 20
84.587525
 30
0.0
  0
LWPOLYLINE
  5
134
100
AcDbEntity
  8
0
 62
7
100
AcDbPolyline
 90
29
 70
0
 10
33.096252
 20
84.767178
 30
0.0
 10
33.152625
 20
84.614928
 30
0.0
 10
33.220231
 20
84.421428
 30
0.0
 10
33.280569
 20
84.236383
 30
0.0
 10
33.334260
 20
84.059164
 30
0.0
 10
33.380845
 20
83.892986
 30
0.0
 10
33.421502
 20
83.735340
 30
0.0
 10
33.456827
 20
83.585406
 30
0.0
 10
33.479780
 20
83.480161
 30
0.0
 10
33.490185
 20
83.447951
 30
0.0
 10
33.502435
 20
83.427071
 30
0.0
 10
33.509105
 20
83.420871
 30
0.0
 10
33.516045
 20
83.417571
 30
0.0
 10
33.580552
 20
83.412871
 30
0.0
 10
33.775124
 20
83.398241
 30
0.0
 10
33.969590
 20
83.382251
 30
0.0
 10
34.034044
 20
83.376851
 30
0.0
 10
34.041414
 20
83.379051
 30
0.0
 10
34.048964
 20
83.384051
 30
0.0
 10
34.064329
 20
83.402751
 30
0.0
 10
34.079644
 20
83.432931
 30
0.0
 10
34.118779
 20
83.533290
 30
0.0
 10
34.177124
 20
83.675851
 30
0.0
 10
34.241941
 20
83.825196
 30
0.0
 10
34.313949
 20
83.982041
 30
0.0
 10
34.394702
 20
84.148679
 30
0.0
 10
34.483244
 20
84.322006
 30
0.0
 10
34.580288
 20
84.502549
 30
0.0
 10
34.659784
 20
84.644105
 30
0.0
  0
SPLINE
  5
135
100
AcDbEntity
  8
0
 62
7
100
AcDbSpline
 70
8
 71
3
 72
8
 73
4
 74
0
 40
0
 40
0
 40
0
 40
0
 40
1
 40
1
 40
1
 40
1
 10
36.686894
 20
84.342148
 30
0.0
 10
36.844559
 20
84.312296
 30
0.0
 10
37.001945
 20
84.280992
 30
0.0
 10
37.159033
 20
84.248238
 30
0.0
  0
LWPOLYLINE
  5
136
100
AcDbEntity
  8
0
 62
7
100
AcDbPolyline
 90
29
 70
0
 10
35.137835
 20
84.587525
 30
0.0
 10
35.182089
 20
84.431322
 30
0.0
 10
35.234305
 20
84.233113
 30
0.0
 10
35.279938
 20
84.043905
 30
0.0
 10
35.319559
 20
83.863019
 30
0.0
 10
35.352963
 20
83.693699
 30
0.0
 10
35.381126
 20
83.533349
 30
0.0
 10
35.404579
 20
83.381106
 30
0.0
 10
35.419204
 20
83.274384
 30
0.0
 10
35.427054
 20
83.241464
 30
0.0
 10
35.437628
 20
83.219694
 30
0.0
 10
35.443788
 20
83.212994
 30
0.0
 10
35.450448
 20
83.209194
 30
0.0
 10
35.514386
 20
83.199394
 30
0.0
 10
35.707210
 20
83.169544
 30
0.0
 10
35.899821
 20
83.138344
 30
0.0
 10
35.963651
 20
83.127894
 30
0.0
 10
35.971171
 20
83.129494
 30
0.0
 10
35.979091
 20
83.133894
 30
0.0
 10
35.995876
 20
83.151334
 30
0.0
 10
36.013512
 20
83.180224
 30
0.0
 10
36.060400
 20
83.277204
 30
0.0
 10
36.129751
 20
83.414748
 30
0.0
 10
36.206087
 20
83.558547
 30
0.0
 10
36.290179
 20
83.709258
 30
0.0
 10
36.383758
 20
83.869046
 30
0.0
 10
36.485626
 20
84.034893
 30
0.0
 10
36.596536
 20
84.207265
 30
0.0
 10
36.686894
 20
84.342148
 30
0.0
  0
SPLINE
  5
137
100
AcDbEntity
  8
0
 62
7
100
AcDbSpline
 70
8
 71
3
 72
8
 73
4
 74
0
 40
0
 40
0
 40
0
 40
0
 40
1
 40
1
 40
1
 40
1
 10
38.684070
 20
83.882086
 30
0.0
 10
38.838907
 20
83.839956
 30
0.0
 10
38.993351
 20
83.796398
 30
0.0
 10
39.147384
 20
83.751418
 30
0.0
  0
LWPOLYLINE
  5
138
100
AcDbEntity
  8
0
 62
7
100
AcDbPolyline
 90
29
 70
0
 10
37.159033
 20
84.248238
 30
0.0
 10
37.190895
 20
84.089044
 30
0.0
 10
37.227399
 20
83.887349
 30
0.0
 10
37.258046
 20
83.695144
 30
0.0
 10
37.283353
 20
83.511707
 30
0.0
 10
37.303369
 20
83.340288
 30
0.0
 10
37.318864
 20
83.178223
 30
0.0
 10
37.330300
 20
83.024609
 30
0.0
 10
37.336510
 20
82.917069
 30
0.0
 10
37.341750
 20
82.883629
 30
0.0
 10
37.350580
 20
82.861099
 30
0.0
 10
37.356200
 20
82.853999
 30
0.0
 10
37.362540
 20
82.849599
 30
0.0
 10
37.425512
 20
82.834829
 30
0.0
 10
37.615400
 20
82.789939
 30
0.0
 10
37.804970
 20
82.743729
 30
0.0
 10
37.867783
 20
82.728299
 30
0.0
 10
37.875413
 20
82.729299
 30
0.0
 10
37.883653
 20
82.733099
 30
0.0
 10
37.901754
 20
82.749169
 30
0.0
 10
37.921602
 20
82.776579
 30
0.0
 10
37.975955
 20
82.869579
 30
0.0
 10
38.055883
 20
83.001258
 30
0.0
 10
38.143265
 20
83.138625
 30
0.0
 10
38.238922
 20
83.282273
 30
0.0
 10
38.344749
 20
83.434227
 30
0.0
 10
38.459316
 20
83.591569
 30
0.0
 10
38.583408
 20
83.754708
 30
0.0
 10
38.684070
 20
83.882086
 30
0.0
  0
SPLINE
  5
139
100
AcDbEntity
  8
0
 62
7
100
AcDbSpline
 70
8
 71
3
 72
8
 73
4
 74
0
 40
0
 40
0
 40
0
 40
0
 40
1
 40
1
 40
1
 40
1
 10
40.638991
 20
83.266824
 30
0.0
 10
40.790044
 20
83.212674
 30
0.0
 10
40.940595
 20
83.157133
 30
0.0
 10
41.090625
 20
83.100207
 30
0.0
  0
LWPOLYLINE
  5
13a
100
AcDbEntity
  8
0
 62
7
100
AcDbPolyline
 90
29
 70
0
 10
39.147384
 20
83.751418
 30
0.0
 10
39.166659
 20
83.590214
 30
0.0
 10
39.187226
 20
83.386278
 30
0.0
 10
39.202699
 20
83.192260
 30
0.0
 10
39.213536
 20
83.007404
 30
0.0
 10
39.220036
 20
82.834943
 30
0.0
 10
39.222766
 20
82.672162
 30
0.0
 10
39.222113
 20
82.518123
 30
0.0
 10
39.219863
 20
82.410428
 30
0.0
 10
39.222463
 20
82.376688
 30
0.0
 10
39.229503
 20
82.353528
 30
0.0
 10
39.234543
 20
82.346028
 30
0.0
 10
39.240523
 20
82.341228
 30
0.0
 10
39.302143
 20
82.321568
 30
0.0
 10
39.487923
 20
82.261918
 30
0.0
 10
39.673283
 20
82.200978
 30
0.0
 10
39.734692
 20
82.180668
 30
0.0
 10
39.742372
 20
82.181075
 30
0.0
 10
39.750892
 20
82.184175
 30
0.0
 10
39.770198
 20
82.198775
 30
0.0
 10
39.792136
 20
82.224545
 30
0.0
 10
39.853618
 20
82.312995
 30
0.0
 10
39.943631
 20
82.437998
 30
0.0
 10
40.041521
 20
82.568086
 30
0.0
 10
40.148154
 20
82.703786
 30
0.0
 10
40.265577
 20
82.846968
 30
0.0
 10
40.392135
 20
82.994837
 30
0.0
 10
40.528645
 20
83.147736
 30
0.0
 10
40.638991
 20
83.266824
 30
0.0
  0
SPLINE
  5
13b
100
AcDbEntity
  8
0
 62
7
100
AcDbSpline
 70
8
 71
3
 72
8
 73
4
 74
0
 40
0
 40
0
 40
0
 40
0
 40
1
 40
1
 40
1
 40
1
 10
42.539616
 20
82.500063
 30
0.0
 10
42.685956
 20
82.434230
 30
0.0
 10
42.831685
 20
82.367048
 30
0.0
 10
42.976785
 20
82.298526
 30
0.0
  0
LWPOLYLINE
  5
13c
100
AcDbEntity
  8
0
 62
7
100
AcDbPolyline
 90
29
 70
0
 10
41.090625
 20
83.100207
 30
0.0
 10
41.097195
 20
82.937989
 30
0.0
 10
41.101695
 20
82.733067
 30
0.0
 10
41.101897
 20
82.538433
 30
0.0
 10
41.098197
 20
82.353296
 30
0.0
 10
41.091147
 20
82.180857
 30
0.0
 10
41.081098
 20
82.018363
 30
0.0
 10
41.068362
 20
81.864851
 30
0.0
 10
41.057669
 20
81.757664
 30
0.0
 10
41.057613
 20
81.723824
 30
0.0
 10
41.062813
 20
81.700184
 30
0.0
 10
41.067253
 20
81.692284
 30
0.0
 10
41.072833
 20
81.686984
 30
0.0
 10
41.132720
 20
81.662544
 30
0.0
 10
41.313248
 20
81.588504
 30
0.0
 10
41.493255
 20
81.513204
 30
0.0
 10
41.552881
 20
81.488134
 30
0.0
 10
41.560571
 20
81.487936
 30
0.0
 10
41.569311
 20
81.490436
 30
0.0
 10
41.589703
 20
81.503476
 30
0.0
 10
41.613595
 20
81.527446
 30
0.0
 10
41.681827
 20
81.610796
 30
0.0
 10
41.781371
 20
81.728350
 30
0.0
 10
41.889167
 20
81.850356
 30
0.0
 10
42.006118
 20
81.977272
 30
0.0
 10
42.134413
 20
82.110800
 30
0.0
 10
42.272182
 20
82.248283
 30
0.0
 10
42.420268
 20
82.390001
 30
0.0
 10
42.539616
 20
82.500063
 30
0.0
  0
SPLINE
  5
13d
100
AcDbEntity
  8
0
 62
7
100
AcDbSpline
 70
8
 71
3
 72
8
 73
4
 74
0
 40
0
 40
0
 40
0
 40
0
 40
1
 40
1
 40
1
 40
1
 10
44.374188
 20
81.586572
 30
0.0
 10
44.514910
 20
81.509459
 30
0.0
 10
44.654919
 20
81.431050
 30
0.0
 10
44.794196
 20
81.351356
 30
0.0
  0
LWPOLYLINE
  5
13e
100
AcDbEntity
  8
0
 62
7
100
AcDbPolyline
 90
29
 70
0
 10
42.976785
 20
82.298526
 30
0.0
 10
42.970585
 20
82.136292
 30
0.0
 10
42.958995
 20
81.931649
 30
0.0
 10
42.943925
 20
81.737600
 30
0.0
 10
42.925715
 20
81.553324
 30
0.0
 10
42.905165
 20
81.381969
 30
0.0
 10
42.882395
 20
81.220765
 30
0.0
 10
42.857655
 20
81.068724
 30
0.0
 10
42.838585
 20
80.962707
 30
0.0
 10
42.835885
 20
80.928967
 30
0.0
 10
42.839185
 20
80.904987
 30
0.0
 10
42.842985
 20
80.896787
 30
0.0
 10
42.848085
 20
80.891087
 30
0.0
 10
42.905875
 20
80.862027
 30
0.0
 10
43.080038
 20
80.774047
 30
0.0
 10
43.253582
 20
80.684857
 30
0.0
 10
43.311062
 20
80.655187
 30
0.0
 10
43.318762
 20
80.654386
 30
0.0
 10
43.327662
 20
80.656186
 30
0.0
 10
43.349012
 20
80.667586
 30
0.0
 10
43.374712
 20
80.689606
 30
0.0
 10
43.449272
 20
80.767346
 30
0.0
 10
43.557732
 20
80.876728
 30
0.0
 10
43.674767
 20
80.989900
 30
0.0
 10
43.801315
 20
81.107249
 30
0.0
 10
43.939691
 20
81.230300
 30
0.0
 10
44.087822
 20
81.356550
 30
0.0
 10
44.246570
 20
81.486212
 30
0.0
 10
44.374188
 20
81.586572
 30
0.0
  0
SPLINE
  5
13f
100
AcDbEntity
  8
0
 62
7
100
AcDbSpline
 70
8
 71
3
 72
8
 73
4
 74
0
 40
0
 40
0
 40
0
 40
0
 40
1
 40
1
 40
1
 40
1
 10
46.131460
 20
80.531950
 30
0.0
 10
46.265699
 20
80.444034
 30
0.0
 10
46.399124
 20
80.354882
 30
0.0
 10
46.531719
 20
80.264505
 30
0.0
  0
LWPOLYLINE
  5
140
100
AcDbEntity
  8
0
 62
7
100
AcDbPolyline
 90
29
 70
0
 10
44.794196
 20
81.351356
 30
0.0
 10
44.775306
 20
81.190107
 30
0.0
 10
44.747696
 20
80.987003
 30
0.0
 10
44.717446
 20
80.794734
 30
0.0
 10
44.684826
 20
80.612456
 30
0.0
 10
44.650886
 20
80.443242
 30
0.0
 10
44.615546
 20
80.284320
 30
0.0
 10
44.578956
 20
80.134691
 30
0.0
 10
44.551626
 20
80.030496
 30
0.0
 10
44.546326
 20
79.997076
 30
0.0
 10
44.547726
 20
79.972916
 30
0.0
 10
44.550826
 20
79.964416
 30
0.0
 10
44.555526
 20
79.958316
 30
0.0
 10
44.610856
 20
79.924806
 30
0.0
 10
44.777578
 20
79.823436
 30
0.0
 10
44.943590
 20
79.720905
 30
0.0
 10
44.998560
 20
79.686825
 30
0.0
 10
45.006160
 20
79.685425
 30
0.0
 10
45.015160
 20
79.686525
 30
0.0
 10
45.037340
 20
79.696225
 30
0.0
 10
45.064690
 20
79.716165
 30
0.0
 10
45.145120
 20
79.787815
 30
0.0
 10
45.261828
 20
79.888351
 30
0.0
 10
45.387381
 20
79.991992
 30
0.0
 10
45.522746
 20
80.099050
 30
0.0
 10
45.670350
 20
80.210865
 30
0.0
 10
45.827932
 20
80.325103
 30
0.0
 10
45.996363
 20
80.441910
 30
0.0
 10
46.131460
 20
80.531950
 30
0.0
  0
SPLINE
  5
141
100
AcDbEntity
  8
0
 62
7
100
AcDbSpline
 70
8
 71
3
 72
8
 73
4
 74
0
 40
0
 40
0
 40
0
 40
0
 40
1
 40
1
 40
1
 40
1
 10
47.800571
 20
79.342604
 30
0.0
 10
47.927499
 20
79.244427
 30
0.0
 10
48.053518
 20
79.145081
 30
0.0
 10
48.178613
 20
79.044580
 30
0.0
  0
LWPOLYLINE
  5
142
100
AcDbEntity
  8
0
 62
7
100
AcDbPolyline
 90
29
 70
0
 10
46.531719
 20
80.264505
 30
0.0
 10
46.500239
 20
80.105236
 30
0.0
 10
46.456779
 20
79.904925
 30
0.0
 10
46.411539
 20
79.715622
 30
0.0
 10
46.364719
 20
79.536464
 30
0.0
 10
46.317609
 20
79.370434
 30
0.0
 10
46.269909
 20
79.214776
 30
0.0
 10
46.221689
 20
79.068479
 30
0.0
 10
46.186269
 20
78.966749
 30
0.0
 10
46.178269
 20
78.933849
 30
0.0
 10
46.177806
 20
78.909649
 30
0.0
 10
46.180306
 20
78.900949
 30
0.0
 10
46.184506
 20
78.894449
 30
0.0
 10
46.237036
 20
78.856709
 30
0.0
 10
46.395291
 20
78.742571
 30
0.0
 10
46.552747
 20
78.627332
 30
0.0
 10
46.604877
 20
78.589042
 30
0.0
 10
46.612277
 20
78.587042
 30
0.0
 10
46.621377
 20
78.587398
 30
0.0
 10
46.644247
 20
78.595298
 30
0.0
 10
46.673077
 20
78.613028
 30
0.0
 10
46.758887
 20
78.678148
 30
0.0
 10
46.883123
 20
78.769218
 30
0.0
 10
47.016421
 20
78.862688
 30
0.0
 10
47.159770
 20
78.958798
 30
0.0
 10
47.315691
 20
79.058688
 30
0.0
 10
47.481749
 20
79.160211
 30
0.0
 10
47.658826
 20
79.263444
 30
0.0
 10
47.800571
 20
79.342604
 30
0.0
  0
SPLINE
  5
143
100
AcDbEntity
  8
0
 62
7
100
AcDbSpline
 70
8
 71
3
 72
8
 73
4
 74
0
 40
0
 40
0
 40
0
 40
0
 40
1
 40
1
 40
1
 40
1
 10
49.371308
 20
78.025927
 30
0.0
 10
49.490142
 20
77.918094
 30
0.0
 10
49.607978
 20
77.809167
 30
0.0
 10
49.724802
 20
77.699161
 30
0.0
  0
LWPOLYLINE
  5
144
100
AcDbEntity
  8
0
 62
7
100
AcDbPolyline
 90
29
 70
0
 10
48.178613
 20
79.044580
 30
0.0
 10
48.134733
 20
78.888272
 30
0.0
 10
48.075693
 20
78.691988
 30
0.0
 10
48.015743
 20
78.506818
 30
0.0
 10
47.955013
 20
78.331886
 30
0.0
 10
47.895023
 20
78.170063
 30
0.0
 10
47.835253
 20
78.018627
 30
0.0
 10
47.775703
 20
77.876565
 30
0.0
 10
47.732413
 20
77.777925
 30
0.0
 10
47.721903
 20
77.745755
 30
0.0
 10
47.719503
 20
77.721665
 30
0.0
 10
47.721303
 20
77.712765
 30
0.0
 10
47.725003
 20
77.705965
 30
0.0
 10
47.774403
 20
77.664215
 30
0.0
 10
47.923215
 20
77.538011
 30
0.0
 10
48.071144
 20
77.410774
 30
0.0
 10
48.120104
 20
77.368504
 30
0.0
 10
48.127404
 20
77.365904
 30
0.0
 10
48.136504
 20
77.365547
 30
0.0
 10
48.159924
 20
77.371647
 30
0.0
 10
48.190054
 20
77.387067
 30
0.0
 10
48.280704
 20
77.445257
 30
0.0
 10
48.411702
 20
77.526297
 30
0.0
 10
48.551924
 20
77.609017
 30
0.0
 10
48.702370
 20
77.693577
 30
0.0
 10
48.865648
 20
77.780927
 30
0.0
 10
49.039159
 20
77.869107
 30
0.0
 10
49.223790
 20
77.958127
 30
0.0
 10
49.371308
 20
78.025927
 30
0.0
  0
SPLINE
  5
145
100
AcDbEntity
  8
0
 62
7
100
AcDbSpline
 70
8
 71
3
 72
8
 73
4
 74
0
 40
0
 40
0
 40
0
 40
0
 40
1
 40
1
 40
1
 40
1
 10
50.833825
 20
76.590138
 30
0.0
 10
50.943832
 20
76.473314
 30
0.0
 10
51.052758
 20
76.355477
 30
0.0
 10
51.160591
 20
76.236644
 30
0.0
  0
LWPOLYLINE
  5
146
100
AcDbEntity
  8
0
 62
7
100
AcDbPolyline
 90
29
 70
0
 10
49.724802
 20
77.699161
 30
0.0
 10
49.668792
 20
77.546778
 30
0.0
 10
49.594532
 20
77.355732
 30
0.0
 10
49.520232
 20
77.175837
 30
0.0
 10
49.445962
 20
77.006208
 30
0.0
 10
49.373462
 20
76.849591
 30
0.0
 10
49.301992
 20
76.703312
 30
0.0
 10
49.231482
 20
76.566359
 30
0.0
 10
49.180582
 20
76.471419
 30
0.0
 10
49.167582
 20
76.440169
 30
0.0
 10
49.163382
 20
76.416339
 30
0.0
 10
49.164482
 20
76.407339
 30
0.0
 10
49.167582
 20
76.400339
 30
0.0
 10
49.213562
 20
76.354839
 30
0.0
 10
49.352013
 20
76.217349
 30
0.0
 10
49.489503
 20
76.078898
 30
0.0
 10
49.535003
 20
76.032918
 30
0.0
 10
49.542003
 20
76.029818
 30
0.0
 10
49.551003
 20
76.028718
 30
0.0
 10
49.574833
 20
76.032918
 30
0.0
 10
49.606083
 20
76.045918
 30
0.0
 10
49.701023
 20
76.096818
 30
0.0
 10
49.837977
 20
76.167328
 30
0.0
 10
49.984256
 20
76.238798
 30
0.0
 10
50.140873
 20
76.311298
 30
0.0
 10
50.310501
 20
76.385568
 30
0.0
 10
50.490396
 20
76.459868
 30
0.0
 10
50.681442
 20
76.534128
 30
0.0
 10
50.833825
 20
76.590138
 30
0.0
  0
SPLINE
  5
147
100
AcDbEntity
  8
0
 62
7
100
AcDbSpline
 70
8
 71
3
 72
8
 73
4
 74
0
 40
0
 40
0
 40
0
 40
0
 40
1
 40
1
 40
1
 40
1
 10
52.179244
 20
75.043949
 30
0.0
 10
52.279746
 20
74.918854
 30
0.0
 10
52.379091
 20
74.792834
 30
0.0
 10
52.477268
 20
74.665907
 30
0.0
  0
LWPOLYLINE
  5
148
100
AcDbEntity
  8
0
 62
7
100
AcDbPolyline
 90
29
 70
0
 10
51.160591
 20
76.236644
 30
0.0
 10
51.092791
 20
76.089126
 30
0.0
 10
51.003771
 20
75.904495
 30
0.0
 10
50.915591
 20
75.730984
 30
0.0
 10
50.828241
 20
75.567705
 30
0.0
 10
50.743681
 20
75.417259
 30
0.0
 10
50.660961
 20
75.277038
 30
0.0
 10
50.579921
 20
75.146040
 30
0.0
 10
50.521731
 20
75.055390
 30
0.0
 10
50.506311
 20
75.025260
 30
0.0
 10
50.500211
 20
75.001840
 30
0.0
 10
50.500568
 20
74.992740
 30
0.0
 10
50.503168
 20
74.985440
 30
0.0
 10
50.545438
 20
74.936480
 30
0.0
 10
50.672675
 20
74.788551
 30
0.0
 10
50.798879
 20
74.639739
 30
0.0
 10
50.840629
 20
74.590339
 30
0.0
 10
50.847429
 20
74.586639
 30
0.0
 10
50.856329
 20
74.584839
 30
0.0
 10
50.880419
 20
74.587239
 30
0.0
 10
50.912589
 20
74.597749
 30
0.0
 10
51.011229
 20
74.641039
 30
0.0
 10
51.153291
 20
74.700589
 30
0.0
 10
51.304728
 20
74.760359
 30
0.0
 10
51.466551
 20
74.820349
 30
0.0
 10
51.641482
 20
74.881079
 30
0.0
 10
51.826652
 20
74.941029
 30
0.0
 10
52.022936
 20
75.000069
 30
0.0
 10
52.179244
 20
75.043949
 30
0.0
  0
SPLINE
  5
149
100
AcDbEntity
  8
0
 62
7
100
AcDbSpline
 70
8
 71
3
 72
8
 73
4
 74
0
 40
0
 40
0
 40
0
 40
0
 40
1
 40
1
 40
1
 40
1
 10
53.399169
 20
73.397055
 30
0.0
 10
53.489546
 20
73.264460
 30
0.0
 10
53.578698
 20
73.131035
 30
0.0
 10
53.666614
 20
72.996796
 30
0.0
  0
LWPOLYLINE
  5
14a
100
AcDbEntity
  8
0
 62
7
100
AcDbPolyline
 90
29
 70
0
 10
52.477268
 20
74.665907
 30
0.0
 10
52.398108
 20
74.524162
 30
0.0
 10
52.294875
 20
74.347084
 30
0.0
 10
52.193352
 20
74.181026
 30
0.0
 10
52.093462
 20
74.025105
 30
0.0
 10
51.997352
 20
73.881757
 30
0.0
 10
51.903882
 20
73.748459
 30
0.0
 10
51.812812
 20
73.624223
 30
0.0
 10
51.747692
 20
73.538413
 30
0.0
 10
51.729962
 20
73.509583
 30
0.0
 10
51.722062
 20
73.486713
 30
0.0
 10
51.721706
 20
73.477613
 30
0.0
 10
51.723706
 20
73.470213
 30
0.0
 10
51.761996
 20
73.418083
 30
0.0
 10
51.877235
 20
73.260627
 30
0.0
 10
51.991373
 20
73.102372
 30
0.0
 10
52.029113
 20
73.049842
 30
0.0
 10
52.035613
 20
73.045642
 30
0.0
 10
52.044313
 20
73.043142
 30
0.0
 10
52.068513
 20
73.043605
 30
0.0
 10
52.101413
 20
73.051605
 30
0.0
 10
52.203143
 20
73.087025
 30
0.0
 10
52.349440
 20
73.135245
 30
0.0
 10
52.505098
 20
73.182945
 30
0.0
 10
52.671129
 20
73.230055
 30
0.0
 10
52.850287
 20
73.276875
 30
0.0
 10
53.039589
 20
73.322115
 30
0.0
 10
53.239900
 20
73.365575
 30
0.0
 10
53.399169
 20
73.397055
 30
0.0
  0
SPLINE
  5
14b
100
AcDbEntity
  8
0
 62
7
100
AcDbSpline
 70
8
 71
3
 72
8
 73
4
 74
0
 40
0
 40
0
 40
0
 40
0
 40
1
 40
1
 40
1
 40
1
 10
54.486020
 20
71.659532
 30
0.0
 10
54.565715
 20
71.520255
 30
0.0
 10
54.644123
 20
71.380246
 30
0.0
 10
54.721236
 20
71.239523
 30
0.0
  0
LWPOLYLINE
  5
14c
100
AcDbEntity
  8
0
 62
7
100
AcDbPolyline
 90
29
 70
0
 10
53.666614
 20
72.996796
 30
0.0
 10
53.576574
 20
72.861698
 30
0.0
 10
53.459767
 20
72.693267
 30
0.0
 10
53.345529
 20
72.535686
 30
0.0
 10
53.233714
 20
72.388082
 30
0.0
 10
53.126656
 20
72.252717
 30
0.0
 10
53.023015
 20
72.127164
 30
0.0
 10
52.922480
 20
72.010456
 30
0.0
 10
52.850830
 20
71.930026
 30
0.0
 10
52.830890
 20
71.902676
 30
0.0
 10
52.821190
 20
71.880496
 30
0.0
 10
52.820090
 20
71.871496
 30
0.0
 10
52.821490
 20
71.863896
 30
0.0
 10
52.855570
 20
71.808926
 30
0.0
 10
52.958100
 20
71.642914
 30
0.0
 10
53.059470
 20
71.476191
 30
0.0
 10
53.092980
 20
71.420861
 30
0.0
 10
53.099080
 20
71.416161
 30
0.0
 10
53.107580
 20
71.413061
 30
0.0
 10
53.131740
 20
71.411661
 30
0.0
 10
53.165160
 20
71.416961
 30
0.0
 10
53.269355
 20
71.444291
 30
0.0
 10
53.418984
 20
71.480881
 30
0.0
 10
53.577906
 20
71.516221
 30
0.0
 10
53.747120
 20
71.550161
 30
0.0
 10
53.929399
 20
71.582781
 30
0.0
 10
54.121668
 20
71.613031
 30
0.0
 10
54.324771
 20
71.640642
 30
0.0
 10
54.486020
 20
71.659532
 30
0.0
  0
SPLINE
  5
14d
100
AcDbEntity
  8
0
 62
7
100
AcDbSpline
 70
8
 71
3
 72
8
 73
4
 74
0
 40
0
 40
0
 40
0
 40
0
 40
1
 40
1
 40
1
 40
1
 10
55.433191
 20
69.842121
 30
0.0
 10
55.501712
 20
69.697021
 30
0.0
 10
55.568894
 20
69.551291
 30
0.0
 10
55.634728
 20
69.404952
 30
0.0
  0
LWPOLYLINE
  5
14e
100
AcDbEntity
  8
0
 62
7
100
AcDbPolyline
 90
29
 70
0
 10
54.721236
 20
71.239523
 30
0.0
 10
54.620876
 20
71.111906
 30
0.0
 10
54.491214
 20
70.953158
 30
0.0
 10
54.364964
 20
70.805027
 30
0.0
 10
54.241914
 20
70.666651
 30
0.0
 10
54.124565
 20
70.540103
 30
0.0
 10
54.011393
 20
70.423068
 30
0.0
 10
53.902010
 20
70.314608
 30
0.0
 10
53.824270
 20
70.240047
 30
0.0
 10
53.802250
 20
70.214347
 30
0.0
 10
53.790850
 20
70.192997
 30
0.0
 10
53.789050
 20
70.184097
 30
0.0
 10
53.789851
 20
70.176397
 30
0.0
 10
53.819521
 20
70.118917
 30
0.0
 10
53.908712
 20
69.945373
 30
0.0
 10
53.996692
 20
69.771211
 30
0.0
 10
54.025752
 20
69.713421
 30
0.0
 10
54.031452
 20
69.708321
 30
0.0
 10
54.039652
 20
69.704521
 30
0.0
 10
54.063632
 20
69.701221
 30
0.0
 10
54.097372
 20
69.703921
 30
0.0
 10
54.203389
 20
69.722991
 30
0.0
 10
54.355429
 20
69.747731
 30
0.0
 10
54.516633
 20
69.770501
 30
0.0
 10
54.687988
 20
69.791051
 30
0.0
 10
54.872264
 20
69.809261
 30
0.0
 10
55.066313
 20
69.824331
 30
0.0
 10
55.270957
 20
69.835921
 30
0.0
 10
55.433191
 20
69.842121
 30
0.0
  0
SPLINE
  5
14f
100
AcDbEntity
  8
0
 62
7
100
AcDbSpline
 70
8
 71
3
 72
8
 73
4
 74
0
 40
0
 40
0
 40
0
 40
0
 40
1
 40
1
 40
1
 40
1
 10
56.234871
 20
67.955961
 30
0.0
 10
56.291797
 20
67.805932
 30
0.0
 10
56.347339
 20
67.655381
 30
0.0
 10
56.401488
 20
67.504327
 30
0.0
  0
LWPOLYLINE
  5
150
100
AcDbEntity
  8
0
 62
7
100
AcDbPolyline
 90
29
 70
0
 10
55.634728
 20
69.404952
 30
0.0
 10
55.524666
 20
69.285604
 30
0.0
 10
55.382948
 20
69.137518
 30
0.0
 10
55.245464
 20
68.999749
 30
0.0
 10
55.111936
 20
68.871453
 30
0.0
 10
54.985020
 20
68.754502
 30
0.0
 10
54.863014
 20
68.646708
 30
0.0
 10
54.745460
 20
68.547164
 30
0.0
 10
54.662110
 20
68.478932
 30
0.0
 10
54.638140
 20
68.455040
 30
0.0
 10
54.625100
 20
68.434648
 30
0.0
 10
54.622600
 20
68.425908
 30
0.0
 10
54.622798
 20
68.418218
 30
0.0
 10
54.647868
 20
68.358592
 30
0.0
 10
54.723168
 20
68.178584
 30
0.0
 10
54.797208
 20
67.998056
 30
0.0
 10
54.821648
 20
67.938169
 30
0.0
 10
54.826948
 20
67.932589
 30
0.0
 10
54.834848
 20
67.928149
 30
0.0
 10
54.858488
 20
67.922949
 30
0.0
 10
54.892328
 20
67.923005
 30
0.0
 10
54.999515
 20
67.933698
 30
0.0
 10
55.153027
 20
67.946435
 30
0.0
 10
55.315522
 20
67.956484
 30
0.0
 10
55.487961
 20
67.963534
 30
0.0
 10
55.673098
 20
67.967234
 30
0.0
 10
55.867731
 20
67.967031
 30
0.0
 10
56.072653
 20
67.962531
 30
0.0
 10
56.234871
 20
67.955961
 30
0.0
  0
SPLINE
  5
151
100
AcDbEntity
  8
0
 62
7
100
AcDbSpline
 70
8
 71
3
 72
8
 73
4
 74
0
 40
0
 40
0
 40
0
 40
0
 40
1
 40
1
 40
1
 40
1
 10
56.886083
 20
66.012721
 30
0.0
 10
56.931062
 20
65.858688
 30
0.0
 10
56.974620
 20
65.704243
 30
0.0
 10
57.016751
 20
65.549407
 30
0.0
  0
LWPOLYLINE
  5
152
100
AcDbEntity
  8
0
 62
7
100
AcDbPolyline
 90
29
 70
0
 10
56.401488
 20
67.504327
 30
0.0
 10
56.282400
 20
67.393981
 30
0.0
 10
56.129501
 20
67.257471
 30
0.0
 10
55.981632
 20
67.130913
 30
0.0
 10
55.838450
 20
67.013490
 30
0.0
 10
55.702750
 20
66.906858
 30
0.0
 10
55.572663
 20
66.808968
 30
0.0
 10
55.447660
 20
66.718955
 30
0.0
 10
55.359210
 20
66.657472
 30
0.0
 10
55.333440
 20
66.635534
 30
0.0
 10
55.318840
 20
66.616228
 30
0.0
 10
55.315740
 20
66.607708
 30
0.0
 10
55.315333
 20
66.600028
 30
0.0
 10
55.335643
 20
66.538619
 30
0.0
 10
55.396583
 20
66.353259
 30
0.0
 10
55.456233
 20
66.167479
 30
0.0
 10
55.475893
 20
66.105860
 30
0.0
 10
55.480693
 20
66.099880
 30
0.0
 10
55.488193
 20
66.094840
 30
0.0
 10
55.511353
 20
66.087800
 30
0.0
 10
55.545093
 20
66.085200
 30
0.0
 10
55.652788
 20
66.087450
 30
0.0
 10
55.806826
 20
66.088102
 30
0.0
 10
55.969607
 20
66.085372
 30
0.0
 10
56.142068
 20
66.078872
 30
0.0
 10
56.326924
 20
66.068035
 30
0.0
 10
56.520942
 20
66.052562
 30
0.0
 10
56.724879
 20
66.031995
 30
0.0
 10
56.886083
 20
66.012721
 30
0.0
  0
SPLINE
  5
153
100
AcDbEntity
  8
0
 62
7
100
AcDbSpline
 70
8
 71
3
 72
8
 73
4
 74
0
 40
0
 40
0
 40
0
 40
0
 40
1
 40
1
 40
1
 40
1
 10
57.382902
 20
64.024369
 30
0.0
 10
57.415656
 20
63.867282
 30
0.0
 10
57.446961
 20
63.709895
 30
0.0
 10
57.476812
 20
63.552231
 30
0.0
  0
LWPOLYLINE
  5
154
100
AcDbEntity
  8
0
 62
7
100
AcDbPolyline
 90
29
 70
0
 10
57.016751
 20
65.549407
 30
0.0
 10
56.889373
 20
65.448745
 30
0.0
 10
56.726234
 20
65.324652
 30
0.0
 10
56.568891
 20
65.210085
 30
0.0
 10
56.416937
 20
65.104258
 30
0.0
 10
56.273289
 20
65.008601
 30
0.0
 10
56.135922
 20
64.921219
 30
0.0
 10
56.004243
 20
64.841291
 30
0.0
 10
55.911243
 20
64.786938
 30
0.0
 10
55.883833
 20
64.767090
 30
0.0
 10
55.867763
 20
64.748989
 30
0.0
 10
55.863963
 20
64.740749
 30
0.0
 10
55.862963
 20
64.733119
 30
0.0
 10
55.878393
 20
64.670306
 30
0.0
 10
55.924603
 20
64.480736
 30
0.0
 10
55.969493
 20
64.290848
 30
0.0
 10
55.984263
 20
64.227876
 30
0.0
 10
55.988663
 20
64.221536
 30
0.0
 10
55.995763
 20
64.215916
 30
0.0
 10
56.018293
 20
64.207086
 30
0.0
 10
56.051733
 20
64.201846
 30
0.0
 10
56.159273
 20
64.195636
 30
0.0
 10
56.312887
 20
64.184200
 30
0.0
 10
56.474952
 20
64.168705
 30
0.0
 10
56.646372
 20
64.148689
 30
0.0
 10
56.829809
 20
64.123382
 30
0.0
 10
57.022014
 20
64.092735
 30
0.0
 10
57.223708
 20
64.056231
 30
0.0
 10
57.382902
 20
64.024369
 30
0.0
  0
SPLINE
  5
155
100
AcDbEntity
  8
0
 62
7
100
AcDbSpline
 70
8
 71
3
 72
8
 73
4
 74
0
 40
0
 40
0
 40
0
 40
0
 40
1
 40
1
 40
1
 40
1
 10
57.722189
 20
62.003172
 30
0.0
 10
57.742518
 20
61.843998
 30
0.0
 10
57.761379
 20
61.684641
 30
0.0
 10
57.778769
 20
61.525120
 30
0.0
  0
LWPOLYLINE
  5
156
100
AcDbEntity
  8
0
 62
7
100
AcDbPolyline
 90
29
 70
0
 10
57.476812
 20
63.552231
 30
0.0
 10
57.341929
 20
63.461873
 30
0.0
 10
57.169557
 20
63.350962
 30
0.0
 10
57.003711
 20
63.249094
 30
0.0
 10
56.843923
 20
63.155515
 30
0.0
 10
56.693212
 20
63.071423
 30
0.0
 10
56.549412
 20
62.995088
 30
0.0
 10
56.411868
 20
62.925737
 30
0.0
 10
56.314888
 20
62.878849
 30
0.0
 10
56.285998
 20
62.861213
 30
0.0
 10
56.268558
 20
62.844428
 30
0.0
 10
56.264158
 20
62.836508
 30
0.0
 10
56.262558
 20
62.828988
 30
0.0
 10
56.273008
 20
62.765158
 30
0.0
 10
56.304208
 20
62.572546
 30
0.0
 10
56.334058
 20
62.379722
 30
0.0
 10
56.343858
 20
62.315785
 30
0.0
 10
56.347658
 20
62.309125
 30
0.0
 10
56.354358
 20
62.302965
 30
0.0
 10
56.376128
 20
62.292391
 30
0.0
 10
56.409048
 20
62.284541
 30
0.0
 10
56.515770
 20
62.269916
 30
0.0
 10
56.668014
 20
62.246463
 30
0.0
 10
56.828364
 20
62.218300
 30
0.0
 10
56.997684
 20
62.184896
 30
0.0
 10
57.178569
 20
62.145275
 30
0.0
 10
57.367777
 20
62.099642
 30
0.0
 10
57.565986
 20
62.047426
 30
0.0
 10
57.722189
 20
62.003172
 30
0.0
  0
SPLINE
  5
157
100
AcDbEntity
  8
0
 62
7
100
AcDbSpline
 70
8
 71
3
 72
8
 73
4
 74
0
 40
0
 40
0
 40
0
 40
0
 40
1
 40
1
 40
1
 40
1
 10
57.901842
 20
59.961588
 30
0.0
 10
57.909621
 20
59.801311
 30
0.0
 10
57.915921
 20
59.640965
 30
0.0
 10
57.920742
 20
59.480571
 30
0.0
  0
LWPOLYLINE
  5
158
100
AcDbEntity
  8
0
 62
7
100
AcDbPolyline
 90
29
 70
0
 10
57.778769
 20
61.525120
 30
0.0
 10
57.637213
 20
61.445624
 30
0.0
 10
57.456670
 20
61.348580
 30
0.0
 10
57.283343
 20
61.260038
 30
0.0
 10
57.116705
 20
61.179285
 30
0.0
 10
56.959861
 20
61.107277
 30
0.0
 10
56.810516
 20
61.042460
 30
0.0
 10
56.667955
 20
60.984115
 30
0.0
 10
56.567595
 20
60.944980
 30
0.0
 10
56.537415
 20
60.929665
 30
0.0
 10
56.518715
 20
60.914300
 30
0.0
 10
56.513715
 20
60.906750
 30
0.0
 10
56.511515
 20
60.899380
 30
0.0
 10
56.516915
 20
60.834926
 30
0.0
 10
56.532905
 20
60.640461
 30
0.0
 10
56.547535
 20
60.445889
 30
0.0
 10
56.552235
 20
60.381381
 30
0.0
 10
56.555535
 20
60.374441
 30
0.0
 10
56.561735
 20
60.367771
 30
0.0
 10
56.582615
 20
60.355521
 30
0.0
 10
56.614825
 20
60.345116
 30
0.0
 10
56.720071
 20
60.322163
 30
0.0
 10
56.870005
 20
60.286838
 30
0.0
 10
57.027651
 20
60.246181
 30
0.0
 10
57.193828
 20
60.199596
 30
0.0
 10
57.371047
 20
60.145905
 30
0.0
 10
57.556092
 20
60.085567
 30
0.0
 10
57.749592
 20
60.017961
 30
0.0
 10
57.901842
 20
59.961588
 30
0.0
  0
SPLINE
  5
159
100
AcDbEntity
  8
0
 62
7
100
AcDbSpline
 70
8
 71
3
 72
8
 73
4
 74
0
 40
0
 40
0
 40
0
 40
0
 40
1
 40
1
 40
1
 40
1
 10
57.920742
 20
57.912201
 30
0.0
 10
57.915921
 20
57.751807
 30
0.0
 10
57.909621
 20
57.591461
 30
0.0
 10
57.901842
 20
57.431184
 30
0.0
  0
LWPOLYLINE
  5
15a
100
AcDbEntity
  8
0
 62
7
100
AcDbPolyline
 90
29
 70
0
 10
57.920742
 20
59.480571
 30
0.0
 10
57.773385
 20
59.412427
 30
0.0
 10
57.585785
 20
59.329846
 30
0.0
 10
57.406045
 20
59.255176
 30
0.0
 10
57.233585
 20
59.187746
 30
0.0
 10
57.071575
 20
59.128266
 30
0.0
 10
56.917605
 20
59.075366
 30
0.0
 10
56.770905
 20
59.028386
 30
0.0
 10
56.667785
 20
58.997246
 30
0.0
 10
56.636495
 20
58.984346
 30
0.0
 10
56.616644
 20
58.970496
 30
0.0
 10
56.611044
 20
58.963366
 30
0.0
 10
56.608244
 20
58.956186
 30
0.0
 10
56.608584
 20
58.891506
 30
0.0
 10
56.609264
 20
58.696386
 30
0.0
 10
56.608584
 20
58.501266
 30
0.0
 10
56.608244
 20
58.436586
 30
0.0
 10
56.611044
 20
58.429406
 30
0.0
 10
56.616644
 20
58.422276
 30
0.0
 10
56.636495
 20
58.408426
 30
0.0
 10
56.667785
 20
58.395526
 30
0.0
 10
56.770905
 20
58.364386
 30
0.0
 10
56.917605
 20
58.317406
 30
0.0
 10
57.071575
 20
58.264506
 30
0.0
 10
57.233585
 20
58.205026
 30
0.0
 10
57.406045
 20
58.137596
 30
0.0
 10
57.585785
 20
58.062926
 30
0.0
 10
57.773385
 20
57.980345
 30
0.0
 10
57.920742
 20
57.912201
 30
0.0
  0
SPLINE
  5
15b
100
AcDbEntity
  8
0
 62
7
100
AcDbSpline
 70
8
 71
3
 72
8
 73
4
 74
0
 40
0
 40
0
 40
0
 40
0
 40
1
 40
1
 40
1
 40
1
 10
57.778769
 20
55.867652
 30
0.0
 10
57.761379
 20
55.708131
 30
0.0
 10
57.742518
 20
55.548774
 30
0.0
 10
57.722189
 20
55.389601
 30
0.0
  0
LWPOLYLINE
  5
15c
100
AcDbEntity
  8
0
 62
7
100
AcDbPolyline
 90
29
 70
0
 10
57.901842
 20
57.431184
 30
0.0
 10
57.749592
 20
57.374811
 30
0.0
 10
57.556092
 20
57.307205
 30
0.0
 10
57.371047
 20
57.246867
 30
0.0
 10
57.193828
 20
57.193176
 30
0.0
 10
57.027651
 20
57.146591
 30
0.0
 10
56.870005
 20
57.105934
 30
0.0
 10
56.720071
 20
57.070609
 30
0.0
 10
56.614825
 20
57.047656
 30
0.0
 10
56.582615
 20
57.037251
 30
0.0
 10
56.561735
 20
57.025001
 30
0.0
 10
56.555535
 20
57.018331
 30
0.0
 10
56.552235
 20
57.011391
 30
0.0
 10
56.547535
 20
56.946884
 30
0.0
 10
56.532905
 20
56.752312
 30
0.0
 10
56.516915
 20
56.557846
 30
0.0
 10
56.511515
 20
56.493392
 30
0.0
 10
56.513715
 20
56.486022
 30
0.0
 10
56.518715
 20
56.478472
 30
0.0
 10
56.537415
 20
56.463107
 30
0.0
 10
56.567595
 20
56.447792
 30
0.0
 10
56.667955
 20
56.408657
 30
0.0
 10
56.810516
 20
56.350312
 30
0.0
 10
56.959861
 20
56.285495
 30
0.0
 10
57.116705
 20
56.213487
 30
0.0
 10
57.283343
 20
56.132734
 30
0.0
 10
57.456670
 20
56.044192
 30
0.0
 10
57.637213
 20
55.947148
 30
0.0
 10
57.778769
 20
55.867652
 30
0.0
  0
SPLINE
  5
15d
100
AcDbEntity
  8
0
 62
7
100
AcDbSpline
 70
8
 71
3
 72
8
 73
4
 74
0
 40
0
 40
0
 40
0
 40
0
 40
1
 40
1
 40
1
 40
1
 10
57.476812
 20
53.840541
 30
0.0
 10
57.446961
 20
53.682877
 30
0.0
 10
57.415656
 20
53.525490
 30
0.0
 10
57.382902
 20
53.368403
 30
0.0
  0
LWPOLYLINE
  5
15e
100
AcDbEntity
  8
0
 62
7
100
AcDbPolyline
 90
29
 70
0
 10
57.722189
 20
55.389601
 30
0.0
 10
57.565986
 20
55.345346
 30
0.0
 10
57.367777
 20
55.293130
 30
0.0
 10
57.178569
 20
55.247497
 30
0.0
 10
56.997684
 20
55.207876
 30
0.0
 10
56.828364
 20
55.174472
 30
0.0
 10
56.668014
 20
55.146309
 30
0.0
 10
56.515770
 20
55.122856
 30
0.0
 10
56.409048
 20
55.108231
 30
0.0
 10
56.376128
 20
55.100381
 30
0.0
 10
56.354358
 20
55.089807
 30
0.0
 10
56.347658
 20
55.083647
 30
0.0
 10
56.343858
 20
55.076987
 30
0.0
 10
56.334058
 20
55.013050
 30
0.0
 10
56.304208
 20
54.820226
 30
0.0
 10
56.273008
 20
54.627614
 30
0.0
 10
56.262558
 20
54.563784
 30
0.0
 10
56.264158
 20
54.556264
 30
0.0
 10
56.268558
 20
54.548344
 30
0.0
 10
56.285998
 20
54.531559
 30
0.0
 10
56.314888
 20
54.513923
 30
0.0
 10
56.411868
 20
54.467035
 30
0.0
 10
56.549412
 20
54.397684
 30
0.0
 10
56.693212
 20
54.321349
 30
0.0
 10
56.843923
 20
54.237257
 30
0.0
 10
57.003711
 20
54.143678
 30
0.0
 10
57.169557
 20
54.041810
 30
0.0
 10
57.341929
 20
53.930899
 30
0.0
 10
57.476812
 20
53.840541
 30
0.0
  0
SPLINE
  5
15f
100
AcDbEntity
  8
0
 62
7
100
AcDbSpline
 70
8
 71
3
 72
8
 73
4
 74
0
 40
0
 40
0
 40
0
 40
0
 40
1
 40
1
 40
1
 40
1
 10
57.016751
 20
51.843366
 30
0.0
 10
56.974620
 20
51.688529
 30
0.0
 10
56.931062
 20
51.534084
 30
0.0
 10
56.886083
 20
51.380051
 30
0.0
  0
LWPOLYLINE
  5
160
100
AcDbEntity
  8
0
 62
7
100
AcDbPolyline
 90
29
 70
0
 10
57.382902
 20
53.368403
 30
0.0
 10
57.223708
 20
53.336541
 30
0.0
 10
57.022014
 20
53.300037
 30
0.0
 10
56.829809
 20
53.269390
 30
0.0
 10
56.646372
 20
53.244083
 30
0.0
 10
56.474952
 20
53.224067
 30
0.0
 10
56.312887
 20
53.208572
 30
0.0
 10
56.159273
 20
53.197136
 30
0.0
 10
56.051733
 20
53.190926
 30
0.0
 10
56.018293
 20
53.185686
 30
0.0
 10
55.995763
 20
53.176856
 30
0.0
 10
55.988663
 20
53.171236
 30
0.0
 10
55.984263
 20
53.164896
 30
0.0
 10
55.969493
 20
53.101924
 30
0.0
 10
55.924603
 20
52.912036
 30
0.0
 10
55.878393
 20
52.722466
 30
0.0
 10
55.862963
 20
52.659653
 30
0.0
 10
55.863963
 20
52.652023
 30
0.0
 10
55.867763
 20
52.643783
 30
0.0
 10
55.883833
 20
52.625682
 30
0.0
 10
55.911243
 20
52.605834
 30
0.0
 10
56.004243
 20
52.551481
 30
0.0
 10
56.135922
 20
52.471553
 30
0.0
 10
56.273289
 20
52.384171
 30
0.0
 10
56.416937
 20
52.288514
 30
0.0
 10
56.568891
 20
52.182687
 30
0.0
 10
56.726234
 20
52.068120
 30
0.0
 10
56.889373
 20
51.944027
 30
0.0
 10
57.016751
 20
51.843366
 30
0.0
  0
SPLINE
  5
161
100
AcDbEntity
  8
0
 62
7
100
AcDbSpline
 70
8
 71
3
 72
8
 73
4
 74
0
 40
0
 40
0
 40
0
 40
0
 40
1
 40
1
 40
1
 40
1
 10
56.401488
 20
49.888445
 30
0.0
 10
56.347339
 20
49.737391
 30
0.0
 10
56.291797
 20
49.586840
 30
0.0
 10
56.234871
 20
49.436811
 30
0.0
  0
LWPOLYLINE
  5
162
100
AcDbEntity
  8
0
 62
7
100
AcDbPolyline
 90
29
 70
0
 10
56.886083
 20
51.380051
 30
0.0
 10
56.724879
 20
51.360777
 30
0.0
 10
56.520942
 20
51.340210
 30
0.0
 10
56.326924
 20
51.324737
 30
0.0
 10
56.142068
 20
51.313900
 30
0.0
 10
55.969607
 20
51.307400
 30
0.0
 10
55.806826
 20
51.304670
 30
0.0
 10
55.652788
 20
51.305322
 30
0.0
 10
55.545093
 20
51.307572
 30
0.0
 10
55.511353
 20
51.304972
 30
0.0
 10
55.488193
 20
51.297932
 30
0.0
 10
55.480693
 20
51.292892
 30
0.0
 10
55.475893
 20
51.286912
 30
0.0
 10
55.456233
 20
51.225293
 30
0.0
 10
55.396583
 20
51.039513
 30
0.0
 10
55.335643
 20
50.854153
 30
0.0
 10
55.315333
 20
50.792744
 30
0.0
 10
55.315740
 20
50.785064
 30
0.0
 10
55.318840
 20
50.776544
 30
0.0
 10
55.333440
 20
50.757238
 30
0.0
 10
55.359210
 20
50.735300
 30
0.0
 10
55.447660
 20
50.673818
 30
0.0
 10
55.572663
 20
50.583804
 30
0.0
 10
55.702750
 20
50.485914
 30
0.0
 10
55.838450
 20
50.379282
 30
0.0
 10
55.981632
 20
50.261859
 30
0.0
 10
56.129501
 20
50.135301
 30
0.0
 10
56.282400
 20
49.998791
 30
0.0
 10
56.401488
 20
49.888445
 30
0.0
  0
SPLINE
  5
163
100
AcDbEntity
  8
0
 62
7
100
AcDbSpline
 70
8
 71
3
 72
8
 73
4
 74
0
 40
0
 40
0
 40
0
 40
0
 40
1
 40
1
 40
1
 40
1
 10
55.634728
 20
47.987820
 30
0.0
 10
55.568894
 20
47.841481
 30
0.0
 10
55.501712
 20
47.695751
 30
0.0
 10
55.433191
 20
47.550651
 30
0.0
  0
LWPOLYLINE
  5
164
100
AcDbEntity
  8
0
 62
7
100
AcDbPolyline
 90
29
 70
0
 10
56.234871
 20
49.436811
 30
0.0
 10
56.072653
 20
49.430241
 30
0.0
 10
55.867731
 20
49.425741
 30
0.0
 10
55.673098
 20
49.425539
 30
0.0
 10
55.487961
 20
49.429239
 30
0.0
 10
55.315522
 20
49.436289
 30
0.0
 10
55.153027
 20
49.446338
 30
0.0
 10
54.999515
 20
49.459074
 30
0.0
 10
54.892328
 20
49.469767
 30
0.0
 10
54.858488
 20
49.469823
 30
0.0
 10
54.834848
 20
49.464623
 30
0.0
 10
54.826948
 20
49.460183
 30
0.0
 10
54.821648
 20
49.454603
 30
0.0
 10
54.797208
 20
49.394716
 30
0.0
 10
54.723168
 20
49.214188
 30
0.0
 10
54.647868
 20
49.034181
 30
0.0
 10
54.622798
 20
48.974555
 30
0.0
 10
54.622600
 20
48.966864
 30
0.0
 10
54.625100
 20
48.958124
 30
0.0
 10
54.638140
 20
48.937732
 30
0.0
 10
54.662110
 20
48.913840
 30
0.0
 10
54.745460
 20
48.845608
 30
0.0
 10
54.863014
 20
48.746064
 30
0.0
 10
54.985020
 20
48.638270
 30
0.0
 10
55.111936
 20
48.521319
 30
0.0
 10
55.245464
 20
48.393023
 30
0.0
 10
55.382948
 20
48.255254
 30
0.0
 10
55.524666
 20
48.107168
 30
0.0
 10
55.634728
 20
47.987820
 30
0.0
  0
SPLINE
  5
165
100
AcDbEntity
  8
0
 62
7
100
AcDbSpline
 70
8
 71
3
 72
8
 73
4
 74
0
 40
0
 40
0
 40
0
 40
0
 40
1
 40
1
 40
1
 40
1
 10
54.721236
 20
46.153249
 30
0.0
 10
54.644064
 20
46.012516
 30
0.0
 10
54.565595
 20
45.872497
 30
0.0
 10
54.485840
 20
45.733212
 30
0.0
  0
LWPOLYLINE
  5
166
100
AcDbEntity
  8
0
 62
7
100
AcDbPolyline
 90
29
 70
0
 10
55.433191
 20
47.550651
 30
0.0
 10
55.270957
 20
47.556851
 30
0.0
 10
55.066313
 20
47.568441
 30
0.0
 10
54.872264
 20
47.583511
 30
0.0
 10
54.687988
 20
47.601721
 30
0.0
 10
54.516633
 20
47.622271
 30
0.0
 10
54.355429
 20
47.645041
 30
0.0
 10
54.203389
 20
47.669781
 30
0.0
 10
54.097372
 20
47.688851
 30
0.0
 10
54.063632
 20
47.691551
 30
0.0
 10
54.039652
 20
47.688251
 30
0.0
 10
54.031452
 20
47.684451
 30
0.0
 10
54.025752
 20
47.679351
 30
0.0
 10
53.996692
 20
47.621561
 30
0.0
 10
53.908712
 20
47.447399
 30
0.0
 10
53.819521
 20
47.273855
 30
0.0
 10
53.789851
 20
47.216375
 30
0.0
 10
53.789050
 20
47.208675
 30
0.0
 10
53.790850
 20
47.199775
 30
0.0
 10
53.802250
 20
47.178425
 30
0.0
 10
53.824270
 20
47.152725
 30
0.0
 10
53.902010
 20
47.078165
 30
0.0
 10
54.011393
 20
46.969704
 30
0.0
 10
54.124565
 20
46.852669
 30
0.0
 10
54.241914
 20
46.726121
 30
0.0
 10
54.364964
 20
46.587745
 30
0.0
 10
54.491214
 20
46.439614
 30
0.0
 10
54.620876
 20
46.280866
 30
0.0
 10
54.721236
 20
46.153249
 30
0.0
  0
SPLINE
  5
167
100
AcDbEntity
  8
0
 62
7
100
AcDbSpline
 70
8
 71
3
 72
8
 73
4
 74
0
 40
0
 40
0
 40
0
 40
0
 40
1
 40
1
 40
1
 40
1
 10
53.666434
 20
44.395948
 30
0.0
 10
53.578518
 20
44.261709
 30
0.0
 10
53.489366
 20
44.128283
 30
0.0
 10
53.398989
 20
43.995688
 30
0.0
  0
LWPOLYLINE
  5
168
100
AcDbEntity
  8
0
 62
7
100
AcDbPolyline
 90
29
 70
0
 10
54.485840
 20
45.733212
 30
0.0
 10
54.324591
 20
45.752102
 30
0.0
 10
54.121488
 20
45.779712
 30
0.0
 10
53.929219
 20
45.809962
 30
0.0
 10
53.746940
 20
45.842582
 30
0.0
 10
53.577726
 20
45.876522
 30
0.0
 10
53.418804
 20
45.911862
 30
0.0
 10
53.269175
 20
45.948452
 30
0.0
 10
53.164980
 20
45.975782
 30
0.0
 10
53.131560
 20
45.981082
 30
0.0
 10
53.107400
 20
45.979682
 30
0.0
 10
53.098900
 20
45.976582
 30
0.0
 10
53.092800
 20
45.971882
 30
0.0
 10
53.059290
 20
45.916552
 30
0.0
 10
52.957920
 20
45.749830
 30
0.0
 10
52.855390
 20
45.583817
 30
0.0
 10
52.821310
 20
45.528847
 30
0.0
 10
52.819910
 20
45.521247
 30
0.0
 10
52.821010
 20
45.512247
 30
0.0
 10
52.830710
 20
45.490067
 30
0.0
 10
52.850650
 20
45.462717
 30
0.0
 10
52.922300
 20
45.382287
 30
0.0
 10
53.022835
 20
45.265579
 30
0.0
 10
53.126476
 20
45.140026
 30
0.0
 10
53.233534
 20
45.004661
 30
0.0
 10
53.345349
 20
44.857057
 30
0.0
 10
53.459587
 20
44.699476
 30
0.0
 10
53.576394
 20
44.531045
 30
0.0
 10
53.666434
 20
44.395948
 30
0.0
  0
SPLINE
  5
169
100
AcDbEntity
  8
0
 62
7
100
AcDbSpline
 70
8
 71
3
 72
8
 73
4
 74
0
 40
0
 40
0
 40
0
 40
0
 40
1
 40
1
 40
1
 40
1
 10
52.477088
 20
42.726836
 30
0.0
 10
52.378911
 20
42.599909
 30
0.0
 10
52.279566
 20
42.473889
 30
0.0
 10
52.179064
 20
42.348794
 30
0.0
  0
LWPOLYLINE
  5
16a
100
AcDbEntity
  8
0
 62
7
100
AcDbPolyline
 90
29
 70
0
 10
53.398989
 20
43.995688
 30
0.0
 10
53.239720
 20
44.027168
 30
0.0
 10
53.039409
 20
44.070628
 30
0.0
 10
52.850107
 20
44.115868
 30
0.0
 10
52.670949
 20
44.162688
 30
0.0
 10
52.504918
 20
44.209798
 30
0.0
 10
52.349260
 20
44.257498
 30
0.0
 10
52.202963
 20
44.305718
 30
0.0
 10
52.101233
 20
44.341139
 30
0.0
 10
52.068333
 20
44.349139
 30
0.0
 10
52.044133
 20
44.349602
 30
0.0
 10
52.035433
 20
44.347102
 30
0.0
 10
52.028933
 20
44.342902
 30
0.0
 10
51.991193
 20
44.290371
 30
0.0
 10
51.877055
 20
44.132116
 30
0.0
 10
51.761816
 20
43.974660
 30
0.0
 10
51.723526
 20
43.922530
 30
0.0
 10
51.721526
 20
43.915130
 30
0.0
 10
51.721882
 20
43.906030
 30
0.0
 10
51.729782
 20
43.883160
 30
0.0
 10
51.747512
 20
43.854330
 30
0.0
 10
51.812632
 20
43.768520
 30
0.0
 10
51.903702
 20
43.644284
 30
0.0
 10
51.997172
 20
43.510986
 30
0.0
 10
52.093282
 20
43.367638
 30
0.0
 10
52.193172
 20
43.211717
 30
0.0
 10
52.294695
 20
43.045659
 30
0.0
 10
52.397928
 20
42.868581
 30
0.0
 10
52.477088
 20
42.726836
 30
0.0
  0
SPLINE
  5
16b
100
AcDbEntity
  8
0
 62
7
100
AcDbSpline
 70
8
 71
3
 72
8
 73
4
 74
0
 40
0
 40
0
 40
0
 40
0
 40
1
 40
1
 40
1
 40
1
 10
51.160411
 20
41.156099
 30
0.0
 10
51.052578
 20
41.037266
 30
0.0
 10
50.943652
 20
40.919429
 30
0.0
 10
50.833645
 20
40.802605
 30
0.0
  0
LWPOLYLINE
  5
16c
100
AcDbEntity
  8
0
 62
7
100
AcDbPolyline
 90
29
 70
0
 10
52.179064
 20
42.348794
 30
0.0
 10
52.022756
 20
42.392674
 30
0.0
 10
51.826472
 20
42.451714
 30
0.0
 10
51.641302
 20
42.511664
 30
0.0
 10
51.466371
 20
42.572394
 30
0.0
 10
51.304548
 20
42.632384
 30
0.0
 10
51.153111
 20
42.692154
 30
0.0
 10
51.011049
 20
42.751704
 30
0.0
 10
50.912409
 20
42.794994
 30
0.0
 10
50.880239
 20
42.805504
 30
0.0
 10
50.856149
 20
42.807904
 30
0.0
 10
50.847249
 20
42.806104
 30
0.0
 10
50.840449
 20
42.802404
 30
0.0
 10
50.798699
 20
42.753004
 30
0.0
 10
50.672495
 20
42.604192
 30
0.0
 10
50.545258
 20
42.456263
 30
0.0
 10
50.502988
 20
42.407303
 30
0.0
 10
50.500388
 20
42.400003
 30
0.0
 10
50.500031
 20
42.390903
 30
0.0
 10
50.506131
 20
42.367483
 30
0.0
 10
50.521551
 20
42.337353
 30
0.0
 10
50.579741
 20
42.246703
 30
0.0
 10
50.660781
 20
42.115705
 30
0.0
 10
50.743501
 20
41.975484
 30
0.0
 10
50.828061
 20
41.825038
 30
0.0
 10
50.915411
 20
41.661760
 30
0.0
 10
51.003591
 20
41.488248
 30
0.0
 10
51.092611
 20
41.303617
 30
0.0
 10
51.160411
 20
41.156099
 30
0.0
  0
SPLINE
  5
16d
100
AcDbEntity
  8
0
 62
7
100
AcDbSpline
 70
8
 71
3
 72
8
 73
4
 74
0
 40
0
 40
0
 40
0
 40
0
 40
1
 40
1
 40
1
 40
1
 10
49.724622
 20
39.693582
 30
0.0
 10
49.607798
 20
39.583576
 30
0.0
 10
49.489962
 20
39.474649
 30
0.0
 10
49.371128
 20
39.366816
 30
0.0
  0
LWPOLYLINE
  5
16e
100
AcDbEntity
  8
0
 62
7
100
AcDbPolyline
 90
29
 70
0
 10
50.833645
 20
40.802605
 30
0.0
 10
50.681262
 20
40.858615
 30
0.0
 10
50.490216
 20
40.932875
 30
0.0
 10
50.310321
 20
41.007175
 30
0.0
 10
50.140693
 20
41.081445
 30
0.0
 10
49.984076
 20
41.153945
 30
0.0
 10
49.837797
 20
41.225415
 30
0.0
 10
49.700843
 20
41.295925
 30
0.0
 10
49.605903
 20
41.346825
 30
0.0
 10
49.574653
 20
41.359825
 30
0.0
 10
49.550823
 20
41.364025
 30
0.0
 10
49.541823
 20
41.362925
 30
0.0
 10
49.534823
 20
41.359825
 30
0.0
 10
49.489323
 20
41.313845
 30
0.0
 10
49.351833
 20
41.175394
 30
0.0
 10
49.213382
 20
41.037904
 30
0.0
 10
49.167402
 20
40.992404
 30
0.0
 10
49.164302
 20
40.985404
 30
0.0
 10
49.163202
 20
40.976404
 30
0.0
 10
49.167402
 20
40.952574
 30
0.0
 10
49.180402
 20
40.921324
 30
0.0
 10
49.231302
 20
40.826384
 30
0.0
 10
49.301812
 20
40.689431
 30
0.0
 10
49.373282
 20
40.543152
 30
0.0
 10
49.445782
 20
40.386535
 30
0.0
 10
49.520052
 20
40.216906
 30
0.0
 10
49.594352
 20
40.037011
 30
0.0
 10
49.668612
 20
39.845965
 30
0.0
 10
49.724622
 20
39.693582
 30
0.0
  0
SPLINE
  5
16f
100
AcDbEntity
  8
0
 62
7
100
AcDbSpline
 70
8
 71
3
 72
8
 73
4
 74
0
 40
0
 40
0
 40
0
 40
0
 40
1
 40
1
 40
1
 40
1
 10
48.178433
 20
38.348163
 30
0.0
 10
48.053338
 20
38.247662
 30
0.0
 10
47.927319
 20
38.148316
 30
0.0
 10
47.800391
 20
38.050139
 30
0.0
  0
LWPOLYLINE
  5
170
100
AcDbEntity
  8
0
 62
7
100
AcDbPolyline
 90
29
 70
0
 10
49.371128
 20
39.366816
 30
0.0
 10
49.223610
 20
39.434616
 30
0.0
 10
49.038979
 20
39.523636
 30
0.0
 10
48.865468
 20
39.611816
 30
0.0
 10
48.702190
 20
39.699166
 30
0.0
 10
48.551744
 20
39.783726
 30
0.0
 10
48.411522
 20
39.866446
 30
0.0
 10
48.280524
 20
39.947486
 30
0.0
 10
48.189874
 20
40.005676
 30
0.0
 10
48.159744
 20
40.021096
 30
0.0
 10
48.136324
 20
40.027196
 30
0.0
 10
48.127224
 20
40.026839
 30
0.0
 10
48.119924
 20
40.024239
 30
0.0
 10
48.070964
 20
39.981969
 30
0.0
 10
47.923035
 20
39.854732
 30
0.0
 10
47.774223
 20
39.728528
 30
0.0
 10
47.724823
 20
39.686778
 30
0.0
 10
47.721123
 20
39.679978
 30
0.0
 10
47.719323
 20
39.671078
 30
0.0
 10
47.721723
 20
39.646988
 30
0.0
 10
47.732233
 20
39.614818
 30
0.0
 10
47.775523
 20
39.516178
 30
0.0
 10
47.835073
 20
39.374116
 30
0.0
 10
47.894843
 20
39.222680
 30
0.0
 10
47.954833
 20
39.060857
 30
0.0
 10
48.015563
 20
38.885926
 30
0.0
 10
48.075513
 20
38.700755
 30
0.0
 10
48.134553
 20
38.504471
 30
0.0
 10
48.178433
 20
38.348163
 30
0.0
  0
SPLINE
  5
171
100
AcDbEntity
  8
0
 62
7
100
AcDbSpline
 70
8
 71
3
 72
8
 73
4
 74
0
 40
0
 40
0
 40
0
 40
0
 40
1
 40
1
 40
1
 40
1
 10
46.531539
 20
37.128238
 30
0.0
 10
46.398944
 20
37.037861
 30
0.0
 10
46.265519
 20
36.948709
 30
0.0
 10
46.131280
 20
36.860793
 30
0.0
  0
LWPOLYLINE
  5
172
100
AcDbEntity
  8
0
 62
7
100
AcDbPolyline
 90
29
 70
0
 10
47.800391
 20
38.050139
 30
0.0
 10
47.658646
 20
38.129299
 30
0.0
 10
47.481569
 20
38.232532
 30
0.0
 10
47.315511
 20
38.334055
 30
0.0
 10
47.159590
 20
38.433945
 30
0.0
 10
47.016241
 20
38.530055
 30
0.0
 10
46.882943
 20
38.623525
 30
0.0
 10
46.758707
 20
38.714595
 30
0.0
 10
46.672897
 20
38.779715
 30
0.0
 10
46.644067
 20
38.797445
 30
0.0
 10
46.621197
 20
38.805345
 30
0.0
 10
46.612097
 20
38.805701
 30
0.0
 10
46.604697
 20
38.803701
 30
0.0
 10
46.552567
 20
38.765411
 30
0.0
 10
46.395111
 20
38.650172
 30
0.0
 10
46.236856
 20
38.536034
 30
0.0
 10
46.184326
 20
38.498294
 30
0.0
 10
46.180126
 20
38.491794
 30
0.0
 10
46.177626
 20
38.483094
 30
0.0
 10
46.178089
 20
38.458894
 30
0.0
 10
46.186089
 20
38.425994
 30
0.0
 10
46.221509
 20
38.324264
 30
0.0
 10
46.269729
 20
38.177967
 30
0.0
 10
46.317429
 20
38.022309
 30
0.0
 10
46.364539
 20
37.856279
 30
0.0
 10
46.411359
 20
37.677121
 30
0.0
 10
46.456599
 20
37.487818
 30
0.0
 10
46.500059
 20
37.287507
 30
0.0
 10
46.531539
 20
37.128238
 30
0.0
  0
SPLINE
  5
173
100
AcDbEntity
  8
0
 62
7
100
AcDbSpline
 70
8
 71
3
 72
8
 73
4
 74
0
 40
0
 40
0
 40
0
 40
0
 40
1
 40
1
 40
1
 40
1
 10
44.794016
 20
36.041387
 30
0.0
 10
44.654739
 20
35.961693
 30
0.0
 10
44.514730
 20
35.883284
 30
0.0
 10
44.374008
 20
35.806171
 30
0.0
  0
LWPOLYLINE
  5
174
100
AcDbEntity
  8
0
 62
7
100
AcDbPolyline
 90
29
 70
0
 10
46.131280
 20
36.860793
 30
0.0
 10
45.996183
 20
36.950833
 30
0.0
 10
45.827752
 20
37.067640
 30
0.0
 10
45.670170
 20
37.181878
 30
0.0
 10
45.522566
 20
37.293693
 30
0.0
 10
45.387201
 20
37.400751
 30
0.0
 10
45.261648
 20
37.504392
 30
0.0
 10
45.144940
 20
37.604928
 30
0.0
 10
45.064510
 20
37.676578
 30
0.0
 10
45.037160
 20
37.696518
 30
0.0
 10
45.014980
 20
37.706218
 30
0.0
 10
45.005980
 20
37.707318
 30
0.0
 10
44.998380
 20
37.705918
 30
0.0
 10
44.943410
 20
37.671838
 30
0.0
 10
44.777398
 20
37.569308
 30
0.0
 10
44.610676
 20
37.467937
 30
0.0
 10
44.555346
 20
37.434427
 30
0.0
 10
44.550646
 20
37.428327
 30
0.0
 10
44.547546
 20
37.419827
 30
0.0
 10
44.546146
 20
37.395667
 30
0.0
 10
44.551446
 20
37.362247
 30
0.0
 10
44.578776
 20
37.258052
 30
0.0
 10
44.615366
 20
37.108423
 30
0.0
 10
44.650706
 20
36.949501
 30
0.0
 10
44.684646
 20
36.780287
 30
0.0
 10
44.717266
 20
36.598009
 30
0.0
 10
44.747516
 20
36.405740
 30
0.0
 10
44.775126
 20
36.202637
 30
0.0
 10
44.794016
 20
36.041387
 30
0.0
  0
SPLINE
  5
175
100
AcDbEntity
  8
0
 62
7
100
AcDbSpline
 70
8
 71
3
 72
8
 73
4
 74
0
 40
0
 40
0
 40
0
 40
0
 40
1
 40
1
 40
1
 40
1
 10
42.976605
 20
35.094217
 30
0.0
 10
42.831505
 20
35.025695
 30
0.0
 10
42.685776
 20
34.958513
 30
0.0
 10
42.539436
 20
34.892680
 30
0.0
  0
LWPOLYLINE
  5
176
100
AcDbEntity
  8
0
 62
7
100
AcDbPolyline
 90
29
 70
0
 10
44.374008
 20
35.806171
 30
0.0
 10
44.246390
 20
35.906531
 30
0.0
 10
44.087642
 20
36.036193
 30
0.0
 10
43.939511
 20
36.162444
 30
0.0
 10
43.801135
 20
36.285494
 30
0.0
 10
43.674587
 20
36.402843
 30
0.0
 10
43.557552
 20
36.516015
 30
0.0
 10
43.449092
 20
36.625397
 30
0.0
 10
43.374532
 20
36.703137
 30
0.0
 10
43.348832
 20
36.725157
 30
0.0
 10
43.327482
 20
36.736557
 30
0.0
 10
43.318582
 20
36.738357
 30
0.0
 10
43.310882
 20
36.737556
 30
0.0
 10
43.253402
 20
36.707886
 30
0.0
 10
43.079858
 20
36.618696
 30
0.0
 10
42.905695
 20
36.530716
 30
0.0
 10
42.847905
 20
36.501656
 30
0.0
 10
42.842805
 20
36.495956
 30
0.0
 10
42.839005
 20
36.487756
 30
0.0
 10
42.835705
 20
36.463776
 30
0.0
 10
42.838405
 20
36.430036
 30
0.0
 10
42.857475
 20
36.324019
 30
0.0
 10
42.882215
 20
36.171979
 30
0.0
 10
42.904985
 20
36.010774
 30
0.0
 10
42.925535
 20
35.839419
 30
0.0
 10
42.943745
 20
35.655143
 30
0.0
 10
42.958815
 20
35.461094
 30
0.0
 10
42.970405
 20
35.256451
 30
0.0
 10
42.976605
 20
35.094217
 30
0.0
  0
SPLINE
  5
177
100
AcDbEntity
  8
0
 62
7
100
AcDbSpline
 70
8
 71
3
 72
8
 73
4
 74
0
 40
0
 40
0
 40
0
 40
0
 40
1
 40
1
 40
1
 40
1
 10
41.090445
 20
34.292536
 30
0.0
 10
40.940469
 20
34.235633
 30
0.0
 10
40.789972
 20
34.180113
 30
0.0
 10
40.638972
 20
34.125984
 30
0.0
  0
LWPOLYLINE
  5
178
100
AcDbEntity
  8
0
 62
7
100
AcDbPolyline
 90
29
 70
0
 10
42.539436
 20
34.892680
 30
0.0
 10
42.420088
 20
35.002742
 30
0.0
 10
42.272002
 20
35.144460
 30
0.0
 10
42.134233
 20
35.281943
 30
0.0
 10
42.005938
 20
35.415471
 30
0.0
 10
41.888987
 20
35.542387
 30
0.0
 10
41.781192
 20
35.664393
 30
0.0
 10
41.681648
 20
35.781947
 30
0.0
 10
41.613415
 20
35.865297
 30
0.0
 10
41.589523
 20
35.889267
 30
0.0
 10
41.569131
 20
35.902307
 30
0.0
 10
41.560391
 20
35.904807
 30
0.0
 10
41.552701
 20
35.904609
 30
0.0
 10
41.493075
 20
35.879539
 30
0.0
 10
41.313068
 20
35.804239
 30
0.0
 10
41.132540
 20
35.730199
 30
0.0
 10
41.072653
 20
35.705759
 30
0.0
 10
41.067073
 20
35.700459
 30
0.0
 10
41.062633
 20
35.692559
 30
0.0
 10
41.057433
 20
35.668919
 30
0.0
 10
41.057489
 20
35.635079
 30
0.0
 10
41.068182
 20
35.527892
 30
0.0
 10
41.080918
 20
35.374380
 30
0.0
 10
41.090967
 20
35.211886
 30
0.0
 10
41.098017
 20
35.039447
 30
0.0
 10
41.101717
 20
34.854310
 30
0.0
 10
41.101515
 20
34.659676
 30
0.0
 10
41.097015
 20
34.454754
 30
0.0
 10
41.090445
 20
34.292536
 30
0.0
  0
SPLINE
  5
179
100
AcDbEntity
  8
0
 62
7
100
AcDbSpline
 70
8
 71
3
 72
8
 73
4
 74
0
 40
0
 40
0
 40
0
 40
0
 40
1
 40
1
 40
1
 40
1
 10
39.147366
 20
33.641390
 30
0.0
 10
38.993332
 20
33.596391
 30
0.0
 10
38.838886
 20
33.552813
 30
0.0
 10
38.684049
 20
33.510663
 30
0.0
  0
LWPOLYLINE
  5
17a
100
AcDbEntity
  8
0
 62
7
100
AcDbPolyline
 90
29
 70
0
 10
40.638972
 20
34.125984
 30
0.0
 10
40.528626
 20
34.245072
 30
0.0
 10
40.392117
 20
34.397971
 30
0.0
 10
40.265558
 20
34.545840
 30
0.0
 10
40.148136
 20
34.689022
 30
0.0
 10
40.041503
 20
34.824723
 30
0.0
 10
39.943613
 20
34.954810
 30
0.0
 10
39.853600
 20
35.079813
 30
0.0
 10
39.792118
 20
35.168263
 30
0.0
 10
39.770180
 20
35.194033
 30
0.0
 10
39.750874
 20
35.208633
 30
0.0
 10
39.742354
 20
35.211733
 30
0.0
 10
39.734674
 20
35.212140
 30
0.0
 10
39.673264
 20
35.191830
 30
0.0
 10
39.487904
 20
35.130890
 30
0.0
 10
39.302124
 20
35.071240
 30
0.0
 10
39.240505
 20
35.051580
 30
0.0
 10
39.234525
 20
35.046780
 30
0.0
 10
39.229485
 20
35.039280
 30
0.0
 10
39.222445
 20
35.016120
 30
0.0
 10
39.219845
 20
34.982380
 30
0.0
 10
39.222095
 20
34.874685
 30
0.0
 10
39.222747
 20
34.720646
 30
0.0
 10
39.220017
 20
34.557865
 30
0.0
 10
39.213517
 20
34.385404
 30
0.0
 10
39.202680
 20
34.200548
 30
0.0
 10
39.187207
 20
34.006530
 30
0.0
 10
39.166640
 20
33.802594
 30
0.0
 10
39.147366
 20
33.641390
 30
0.0
  0
SPLINE
  5
17b
100
AcDbEntity
  8
0
 62
7
100
AcDbSpline
 70
8
 71
3
 72
8
 73
4
 74
0
 40
0
 40
0
 40
0
 40
0
 40
1
 40
1
 40
1
 40
1
 10
37.159011
 20
33.144511
 30
0.0
 10
37.001924
 20
33.111757
 30
0.0
 10
36.844538
 20
33.080453
 30
0.0
 10
36.686873
 20
33.050601
 30
0.0
  0
LWPOLYLINE
  5
17c
100
AcDbEntity
  8
0
 62
7
100
AcDbPolyline
 90
29
 70
0
 10
38.684049
 20
33.510663
 30
0.0
 10
38.583387
 20
33.638041
 30
0.0
 10
38.459294
 20
33.801180
 30
0.0
 10
38.344727
 20
33.958522
 30
0.0
 10
38.238901
 20
34.110476
 30
0.0
 10
38.143243
 20
34.254124
 30
0.0
 10
38.055861
 20
34.391491
 30
0.0
 10
37.975933
 20
34.523170
 30
0.0
 10
37.921580
 20
34.616170
 30
0.0
 10
37.901732
 20
34.643580
 30
0.0
 10
37.883631
 20
34.659650
 30
0.0
 10
37.875391
 20
34.663450
 30
0.0
 10
37.867761
 20
34.664450
 30
0.0
 10
37.804948
 20
34.649020
 30
0.0
 10
37.615378
 20
34.602810
 30
0.0
 10
37.425490
 20
34.557920
 30
0.0
 10
37.362518
 20
34.543150
 30
0.0
 10
37.356178
 20
34.538750
 30
0.0
 10
37.350558
 20
34.531650
 30
0.0
 10
37.341728
 20
34.509120
 30
0.0
 10
37.336488
 20
34.475680
 30
0.0
 10
37.330278
 20
34.368140
 30
0.0
 10
37.318842
 20
34.214526
 30
0.0
 10
37.303347
 20
34.052461
 30
0.0
 10
37.283331
 20
33.881042
 30
0.0
 10
37.258024
 20
33.697605
 30
0.0
 10
37.227377
 20
33.505400
 30
0.0
 10
37.190873
 20
33.303705
 30
0.0
 10
37.159011
 20
33.144511
 30
0.0
  0
SPLINE
  5
17d
100
AcDbEntity
  8
0
 62
7
100
AcDbSpline
 70
8
 71
3
 72
8
 73
4
 74
0
 40
0
 40
0
 40
0
 40
0
 40
1
 40
1
 40
1
 40
1
 10
35.137814
 20
32.805224
 30
0.0
 10
34.978641
 20
32.784895
 30
0.0
 10
34.819283
 20
32.766034
 30
0.0
 10
34.659762
 20
32.748644
 30
0.0
  0
LWPOLYLINE
  5
17e
100
AcDbEntity
  8
0
 62
7
100
AcDbPolyline
 90
29
 70
0
 10
36.686873
 20
33.050601
 30
0.0
 10
36.596515
 20
33.185484
 30
0.0
 10
36.485604
 20
33.357856
 30
0.0
 10
36.383736
 20
33.523703
 30
0.0
 10
36.290157
 20
33.683491
 30
0.0
 10
36.206065
 20
33.834202
 30
0.0
 10
36.129730
 20
33.978001
 30
0.0
 10
36.060379
 20
34.115545
 30
0.0
 10
36.013491
 20
34.212525
 30
0.0
 10
35.995855
 20
34.241415
 30
0.0
 10
35.979070
 20
34.258855
 30
0.0
 10
35.971150
 20
34.263255
 30
0.0
 10
35.963630
 20
34.264855
 30
0.0
 10
35.899800
 20
34.254405
 30
0.0
 10
35.707188
 20
34.223205
 30
0.0
 10
35.514364
 20
34.193355
 30
0.0
 10
35.450427
 20
34.183555
 30
0.0
 10
35.443767
 20
34.179755
 30
0.0
 10
35.437607
 20
34.173055
 30
0.0
 10
35.427033
 20
34.151285
 30
0.0
 10
35.419183
 20
34.118365
 30
0.0
 10
35.404558
 20
34.011643
 30
0.0
 10
35.381105
 20
33.859400
 30
0.0
 10
35.352942
 20
33.699050
 30
0.0
 10
35.319538
 20
33.529730
 30
0.0
 10
35.279917
 20
33.348844
 30
0.0
 10
35.234284
 20
33.159636
 30
0.0
 10
35.182068
 20
32.961427
 30
0.0
 10
35.137814
 20
32.805224
 30
0.0
  0
SPLINE
  5
17f
100
AcDbEntity
  8
0
 62
7
100
AcDbSpline
 70
8
 71
3
 72
8
 73
4
 74
0
 40
0
 40
0
 40
0
 40
0
 40
1
 40
1
 40
1
 40
1
 10
33.096230
 20
32.625571
 30
0.0
 10
32.935953
 20
32.617792
 30
0.0
 10
32.775607
 20
32.611492
 30
0.0
 10
32.615213
 20
32.606671
 30
0.0
  0
LWPOLYLINE
  5
180
100
AcDbEntity
  8
0
 62
7
100
AcDbPolyline
 90
29
 70
0
 10
34.659762
 20
32.748644
 30
0.0
 10
34.580266
 20
32.890200
 30
0.0
 10
34.483222
 20
33.070743
 30
0.0
 10
34.394680
 20
33.244070
 30
0.0
 10
34.313927
 20
33.410708
 30
0.0
 10
34.241919
 20
33.567553
 30
0.0
 10
34.177102
 20
33.716898
 30
0.0
 10
34.118757
 20
33.859459
 30
0.0
 10
34.079622
 20
33.959818
 30
0.0
 10
34.064307
 20
33.989998
 30
0.0
 10
34.048942
 20
34.008698
 30
0.0
 10
34.041392
 20
34.013698
 30
0.0
 10
34.034022
 20
34.015898
 30
0.0
 10
33.969568
 20
34.010498
 30
0.0
 10
33.775103
 20
33.994508
 30
0.0
 10
33.580531
 20
33.979878
 30
0.0
 10
33.516024
 20
33.975178
 30
0.0
 10
33.509084
 20
33.971878
 30
0.0
 10
33.502414
 20
33.965678
 30
0.0
 10
33.490164
 20
33.944798
 30
0.0
 10
33.479759
 20
33.912588
 30
0.0
 10
33.456806
 20
33.807343
 30
0.0
 10
33.421480
 20
33.657409
 30
0.0
 10
33.380823
 20
33.499763
 30
0.0
 10
33.334238
 20
33.333585
 30
0.0
 10
33.280547
 20
33.156366
 30
0.0
 10
33.220209
 20
32.971321
 30
0.0
 10
33.152603
 20
32.777821
 30
0.0
 10
33.096230
 20
32.625571
 30
0.0
  0
SPLINE
  5
181
100
AcDbEntity
  8
0
 62
7
100
AcDbSpline
 70
8
 71
3
 72
8
 73
4
 74
0
 40
0
 40
0
 40
0
 40
0
 40
1
 40
1
 40
1
 40
1
 10
31.046838
 20
32.606720
 30
0.0
 10
30.886444
 20
32.611541
 30
0.0
 10
30.726099
 20
32.617841
 30
0.0
 10
30.565821
 20
32.625620
 30
0.0
  0
LWPOLYLINE
  5
182
100
AcDbEntity
  8
0
 62
7
100
AcDbPolyline
 90
29
 70
0
 10
32.615213
 20
32.606671
 30
0.0
 10
32.547064
 20
32.754097
 30
0.0
 10
32.464484
 20
32.941697
 30
0.0
 10
32.389814
 20
33.121437
 30
0.0
 10
32.322384
 20
33.293897
 30
0.0
 10
32.262904
 20
33.455908
 30
0.0
 10
32.210004
 20
33.609878
 30
0.0
 10
32.163024
 20
33.756578
 30
0.0
 10
32.131884
 20
33.859698
 30
0.0
 10
32.118984
 20
33.890988
 30
0.0
 10
32.105134
 20
33.910838
 30
0.0
 10
32.098004
 20
33.916458
 30
0.0
 10
32.090824
 20
33.919218
 30
0.0
 10
32.026143
 20
33.918878
 30
0.0
 10
31.831023
 20
33.918198
 30
0.0
 10
31.635903
 20
33.918878
 30
0.0
 10
31.571223
 20
33.919218
 30
0.0
 10
31.564043
 20
33.916418
 30
0.0
 10
31.556913
 20
33.910818
 30
0.0
 10
31.543063
 20
33.890968
 30
0.0
 10
31.530163
 20
33.859678
 30
0.0
 10
31.499023
 20
33.756558
 30
0.0
 10
31.452043
 20
33.609858
 30
0.0
 10
31.399143
 20
33.455888
 30
0.0
 10
31.339663
 20
33.293877
 30
0.0
 10
31.272233
 20
33.121417
 30
0.0
 10
31.197563
 20
32.941677
 30
0.0
 10
31.114983
 20
32.754077
 30
0.0
 10
31.046838
 20
32.606720
 30
0.0
  0
SPLINE
  5
183
100
AcDbEntity
  8
0
 62
7
100
AcDbSpline
 70
8
 71
3
 72
8
 73
4
 74
0
 40
0
 40
0
 40
0
 40
0
 40
1
 40
1
 40
1
 40
1
 10
29.002289
 20
32.748693
 30
0.0
 10
28.842768
 20
32.766083
 30
0.0
 10
28.683411
 20
32.784944
 30
0.0
 10
28.524238
 20
32.805273
 30
0.0
  0
LWPOLYLINE
  5
184
100
AcDbEntity
  8
0
 62
7
100
AcDbPolyline
 90
29
 70
0
 10
30.565821
 20
32.625620
 30
0.0
 10
30.509448
 20
32.777870
 30
0.0
 10
30.441842
 20
32.971370
 30
0.0
 10
30.381504
 20
33.156415
 30
0.0
 10
30.327813
 20
33.333634
 30
0.0
 10
30.281228
 20
33.499812
 30
0.0
 10
30.240571
 20
33.657458
 30
0.0
 10
30.205246
 20
33.807392
 30
0.0
 10
30.182293
 20
33.912637
 30
0.0
 10
30.171888
 20
33.944847
 30
0.0
 10
30.159638
 20
33.965727
 30
0.0
 10
30.152968
 20
33.971927
 30
0.0
 10
30.146028
 20
33.975227
 30
0.0
 10
30.081521
 20
33.979927
 30
0.0
 10
29.886949
 20
33.994557
 30
0.0
 10
29.692483
 20
34.010547
 30
0.0
 10
29.628029
 20
34.015947
 30
0.0
 10
29.620659
 20
34.013747
 30
0.0
 10
29.613109
 20
34.008747
 30
0.0
 10
29.597744
 20
33.990047
 30
0.0
 10
29.582429
 20
33.959867
 30
0.0
 10
29.543294
 20
33.859508
 30
0.0
 10
29.484949
 20
33.716947
 30
0.0
 10
29.420132
 20
33.567602
 30
0.0
 10
29.348124
 20
33.410757
 30
0.0
 10
29.267371
 20
33.244119
 30
0.0
 10
29.178829
 20
33.070792
 30
0.0
 10
29.081785
 20
32.890249
 30
0.0
 10
29.002289
 20
32.748693
 30
0.0
  0
SPLINE
  5
185
100
AcDbEntity
  8
0
 62
7
100
AcDbSpline
 70
8
 71
3
 72
8
 73
4
 74
0
 40
0
 40
0
 40
0
 40
0
 40
1
 40
1
 40
1
 40
1
 10
26.975179
 20
33.050650
 30
0.0
 10
26.817514
 20
33.080502
 30
0.0
 10
26.660128
 20
33.111806
 30
0.0
 10
26.503040
 20
33.144560
 30
0.0
  0
LWPOLYLINE
  5
186
100
AcDbEntity
  8
0
 62
7
100
AcDbPolyline
 90
29
 70
0
 10
28.524238
 20
32.805273
 30
0.0
 10
28.479984
 20
32.961476
 30
0.0
 10
28.427768
 20
33.159685
 30
0.0
 10
28.382135
 20
33.348893
 30
0.0
 10
28.342514
 20
33.529779
 30
0.0
 10
28.309110
 20
33.699099
 30
0.0
 10
28.280947
 20
33.859449
 30
0.0
 10
28.257494
 20
34.011692
 30
0.0
 10
28.242869
 20
34.118414
 30
0.0
 10
28.235019
 20
34.151334
 30
0.0
 10
28.224445
 20
34.173104
 30
0.0
 10
28.218285
 20
34.179804
 30
0.0
 10
28.211625
 20
34.183604
 30
0.0
 10
28.147688
 20
34.193404
 30
0.0
 10
27.954863
 20
34.223254
 30
0.0
 10
27.762252
 20
34.254454
 30
0.0
 10
27.698422
 20
34.264904
 30
0.0
 10
27.690902
 20
34.263304
 30
0.0
 10
27.682982
 20
34.258904
 30
0.0
 10
27.666197
 20
34.241464
 30
0.0
 10
27.648561
 20
34.212574
 30
0.0
 10
27.601673
 20
34.115594
 30
0.0
 10
27.532322
 20
33.978050
 30
0.0
 10
27.455987
 20
33.834251
 30
0.0
 10
27.371894
 20
33.683540
 30
0.0
 10
27.278315
 20
33.523752
 30
0.0
 10
27.176447
 20
33.357905
 30
0.0
 10
27.065537
 20
33.185533
 30
0.0
 10
26.975179
 20
33.050650
 30
0.0
  0
SPLINE
  5
187
100
AcDbEntity
  8
0
 62
7
100
AcDbSpline
 70
8
 71
3
 72
8
 73
4
 74
0
 40
0
 40
0
 40
0
 40
0
 40
1
 40
1
 40
1
 40
1
 10
24.978003
 20
33.510712
 30
0.0
 10
24.823166
 20
33.552842
 30
0.0
 10
24.668722
 20
33.596400
 30
0.0
 10
24.514689
 20
33.641380
 30
0.0
  0
LWPOLYLINE
  5
188
100
AcDbEntity
  8
0
 62
7
100
AcDbPolyline
 90
29
 70
0
 10
26.503040
 20
33.144560
 30
0.0
 10
26.471178
 20
33.303754
 30
0.0
 10
26.434674
 20
33.505449
 30
0.0
 10
26.404027
 20
33.697654
 30
0.0
 10
26.378720
 20
33.881091
 30
0.0
 10
26.358704
 20
34.052510
 30
0.0
 10
26.343209
 20
34.214575
 30
0.0
 10
26.331773
 20
34.368189
 30
0.0
 10
26.325563
 20
34.475729
 30
0.0
 10
26.320323
 20
34.509169
 30
0.0
 10
26.311493
 20
34.531699
 30
0.0
 10
26.305873
 20
34.538799
 30
0.0
 10
26.299533
 20
34.543199
 30
0.0
 10
26.236561
 20
34.557969
 30
0.0
 10
26.046673
 20
34.602859
 30
0.0
 10
25.857103
 20
34.649069
 30
0.0
 10
25.794290
 20
34.664499
 30
0.0
 10
25.786660
 20
34.663499
 30
0.0
 10
25.778420
 20
34.659699
 30
0.0
 10
25.760319
 20
34.643629
 30
0.0
 10
25.740471
 20
34.616219
 30
0.0
 10
25.686118
 20
34.523219
 30
0.0
 10
25.606190
 20
34.391540
 30
0.0
 10
25.518808
 20
34.254173
 30
0.0
 10
25.423151
 20
34.110525
 30
0.0
 10
25.317324
 20
33.958571
 30
0.0
 10
25.202757
 20
33.801229
 30
0.0
 10
25.078665
 20
33.638090
 30
0.0
 10
24.978003
 20
33.510712
 30
0.0
  0
SPLINE
  5
189
100
AcDbEntity
  8
0
 62
7
100
AcDbSpline
 70
8
 71
3
 72
8
 73
4
 74
0
 40
0
 40
0
 40
0
 40
0
 40
1
 40
1
 40
1
 40
1
 10
23.023082
 20
34.125974
 30
0.0
 10
22.872029
 20
34.180124
 30
0.0
 10
22.721478
 20
34.235665
 30
0.0
 10
22.571448
 20
34.292591
 30
0.0
  0
LWPOLYLINE
  5
18a
100
AcDbEntity
  8
0
 62
7
100
AcDbPolyline
 90
29
 70
0
 10
24.514689
 20
33.641380
 30
0.0
 10
24.495415
 20
33.802584
 30
0.0
 10
24.474848
 20
34.006520
 30
0.0
 10
24.459375
 20
34.200538
 30
0.0
 10
24.448538
 20
34.385394
 30
0.0
 10
24.442038
 20
34.557855
 30
0.0
 10
24.439308
 20
34.720636
 30
0.0
 10
24.439960
 20
34.874675
 30
0.0
 10
24.442210
 20
34.982370
 30
0.0
 10
24.439610
 20
35.016110
 30
0.0
 10
24.432570
 20
35.039270
 30
0.0
 10
24.427530
 20
35.046770
 30
0.0
 10
24.421550
 20
35.051570
 30
0.0
 10
24.359931
 20
35.071230
 30
0.0
 10
24.174150
 20
35.130880
 30
0.0
 10
23.988790
 20
35.191820
 30
0.0
 10
23.927381
 20
35.212130
 30
0.0
 10
23.919701
 20
35.211723
 30
0.0
 10
23.911181
 20
35.208623
 30
0.0
 10
23.891875
 20
35.194023
 30
0.0
 10
23.869937
 20
35.168253
 30
0.0
 10
23.808455
 20
35.079803
 30
0.0
 10
23.718442
 20
34.954800
 30
0.0
 10
23.620552
 20
34.824713
 30
0.0
 10
23.513919
 20
34.689012
 30
0.0
 10
23.396496
 20
34.545830
 30
0.0
 10
23.269938
 20
34.397961
 30
0.0
 10
23.133428
 20
34.245062
 30
0.0
 10
23.023082
 20
34.125974
 30
0.0
  0
SPLINE
  5
18b
100
AcDbEntity
  8
0
 62
7
100
AcDbSpline
 70
8
 71
3
 72
8
 73
4
 74
0
 40
0
 40
0
 40
0
 40
0
 40
1
 40
1
 40
1
 40
1
 10
21.122457
 20
34.892735
 30
0.0
 10
20.976118
 20
34.958568
 30
0.0
 10
20.830389
 20
35.025750
 30
0.0
 10
20.685288
 20
35.094272
 30
0.0
  0
LWPOLYLINE
  5
18c
100
AcDbEntity
  8
0
 62
7
100
AcDbPolyline
 90
29
 70
0
 10
22.571448
 20
34.292591
 30
0.0
 10
22.564878
 20
34.454809
 30
0.0
 10
22.560378
 20
34.659731
 30
0.0
 10
22.560176
 20
34.854365
 30
0.0
 10
22.563876
 20
35.039502
 30
0.0
 10
22.570926
 20
35.211941
 30
0.0
 10
22.580975
 20
35.374435
 30
0.0
 10
22.593711
 20
35.527947
 30
0.0
 10
22.604404
 20
35.635134
 30
0.0
 10
22.604460
 20
35.668974
 30
0.0
 10
22.599260
 20
35.692614
 30
0.0
 10
22.594820
 20
35.700514
 30
0.0
 10
22.589240
 20
35.705814
 30
0.0
 10
22.529353
 20
35.730254
 30
0.0
 10
22.348825
 20
35.804294
 30
0.0
 10
22.168818
 20
35.879594
 30
0.0
 10
22.109192
 20
35.904664
 30
0.0
 10
22.101502
 20
35.904862
 30
0.0
 10
22.092762
 20
35.902362
 30
0.0
 10
22.072370
 20
35.889322
 30
0.0
 10
22.048478
 20
35.865352
 30
0.0
 10
21.980246
 20
35.782002
 30
0.0
 10
21.880702
 20
35.664448
 30
0.0
 10
21.772907
 20
35.542442
 30
0.0
 10
21.655956
 20
35.415526
 30
0.0
 10
21.527661
 20
35.281998
 30
0.0
 10
21.389892
 20
35.144515
 30
0.0
 10
21.241806
 20
35.002797
 30
0.0
 10
21.122457
 20
34.892735
 30
0.0
  0
SPLINE
  5
18d
100
AcDbEntity
  8
0
 62
7
100
AcDbSpline
 70
8
 71
3
 72
8
 73
4
 74
0
 40
0
 40
0
 40
0
 40
0
 40
1
 40
1
 40
1
 40
1
 10
19.287886
 20
35.806226
 30
0.0
 10
19.147153
 20
35.883381
 30
0.0
 10
19.007135
 20
35.961832
 30
0.0
 10
18.867849
 20
36.041569
 30
0.0
  0
LWPOLYLINE
  5
18e
100
AcDbEntity
  8
0
 62
7
100
AcDbPolyline
 90
29
 70
0
 10
20.685288
 20
35.094272
 30
0.0
 10
20.691488
 20
35.256506
 30
0.0
 10
20.703078
 20
35.461149
 30
0.0
 10
20.718148
 20
35.655198
 30
0.0
 10
20.736358
 20
35.839474
 30
0.0
 10
20.756908
 20
36.010829
 30
0.0
 10
20.779678
 20
36.172034
 30
0.0
 10
20.804418
 20
36.324074
 30
0.0
 10
20.823488
 20
36.430091
 30
0.0
 10
20.826188
 20
36.463831
 30
0.0
 10
20.822888
 20
36.487811
 30
0.0
 10
20.819088
 20
36.496011
 30
0.0
 10
20.813988
 20
36.501711
 30
0.0
 10
20.756198
 20
36.530771
 30
0.0
 10
20.582036
 20
36.618751
 30
0.0
 10
20.408492
 20
36.707941
 30
0.0
 10
20.351012
 20
36.737611
 30
0.0
 10
20.343312
 20
36.738412
 30
0.0
 10
20.334412
 20
36.736612
 30
0.0
 10
20.313062
 20
36.725212
 30
0.0
 10
20.287362
 20
36.703192
 30
0.0
 10
20.212802
 20
36.625452
 30
0.0
 10
20.104342
 20
36.516070
 30
0.0
 10
19.987307
 20
36.402898
 30
0.0
 10
19.860759
 20
36.285549
 30
0.0
 10
19.722382
 20
36.162499
 30
0.0
 10
19.574251
 20
36.036248
 30
0.0
 10
19.415503
 20
35.906586
 30
0.0
 10
19.287886
 20
35.806226
 30
0.0
  0
SPLINE
  5
18f
100
AcDbEntity
  8
0
 62
7
100
AcDbSpline
 70
8
 71
3
 72
8
 73
4
 74
0
 40
0
 40
0
 40
0
 40
0
 40
1
 40
1
 40
1
 40
1
 10
17.530585
 20
36.860975
 30
0.0
 10
17.396346
 20
36.948891
 30
0.0
 10
17.262920
 20
37.038043
 30
0.0
 10
17.130326
 20
37.128420
 30
0.0
  0
LWPOLYLINE
  5
190
100
AcDbEntity
  8
0
 62
7
100
AcDbPolyline
 90
29
 70
0
 10
18.867849
 20
36.041569
 30
0.0
 10
18.886739
 20
36.202819
 30
0.0
 10
18.914349
 20
36.405922
 30
0.0
 10
18.944599
 20
36.598191
 30
0.0
 10
18.977219
 20
36.780469
 30
0.0
 10
19.011159
 20
36.949683
 30
0.0
 10
19.046499
 20
37.108605
 30
0.0
 10
19.083089
 20
37.258234
 30
0.0
 10
19.110419
 20
37.362429
 30
0.0
 10
19.115719
 20
37.395849
 30
0.0
 10
19.114319
 20
37.420009
 30
0.0
 10
19.111219
 20
37.428509
 30
0.0
 10
19.106519
 20
37.434609
 30
0.0
 10
19.051189
 20
37.468119
 30
0.0
 10
18.884467
 20
37.569490
 30
0.0
 10
18.718455
 20
37.672020
 30
0.0
 10
18.663485
 20
37.706100
 30
0.0
 10
18.655885
 20
37.707500
 30
0.0
 10
18.646885
 20
37.706400
 30
0.0
 10
18.624705
 20
37.696700
 30
0.0
 10
18.597355
 20
37.676760
 30
0.0
 10
18.516925
 20
37.605110
 30
0.0
 10
18.400216
 20
37.504574
 30
0.0
 10
18.274663
 20
37.400933
 30
0.0
 10
18.139298
 20
37.293875
 30
0.0
 10
17.991694
 20
37.182060
 30
0.0
 10
17.834113
 20
37.067822
 30
0.0
 10
17.665682
 20
36.951015
 30
0.0
 10
17.530585
 20
36.860975
 30
0.0
  0
SPLINE
  5
191
100
AcDbEntity
  8
0
 62
7
100
AcDbSpline
 70
8
 71
3
 72
8
 73
4
 74
0
 40
0
 40
0
 40
0
 40
0
 40
1
 40
1
 40
1
 40
1
 10
15.861474
 20
38.050321
 30
0.0
 10
15.734546
 20
38.148498
 30
0.0
 10
15.608527
 20
38.247844
 30
0.0
 10
15.483431
 20
38.348345
 30
0.0
  0
LWPOLYLINE
  5
192
100
AcDbEntity
  8
0
 62
7
100
AcDbPolyline
 90
29
 70
0
 10
17.130326
 20
37.128420
 30
0.0
 10
17.161806
 20
37.287689
 30
0.0
 10
17.205266
 20
37.488000
 30
0.0
 10
17.250506
 20
37.677303
 30
0.0
 10
17.297326
 20
37.856461
 30
0.0
 10
17.344436
 20
38.022491
 30
0.0
 10
17.392136
 20
38.178149
 30
0.0
 10
17.440356
 20
38.324446
 30
0.0
 10
17.475776
 20
38.426176
 30
0.0
 10
17.483776
 20
38.459076
 30
0.0
 10
17.484239
 20
38.483276
 30
0.0
 10
17.481739
 20
38.491976
 30
0.0
 10
17.477539
 20
38.498476
 30
0.0
 10
17.425009
 20
38.536216
 30
0.0
 10
17.266754
 20
38.650354
 30
0.0
 10
17.109298
 20
38.765593
 30
0.0
 10
17.057167
 20
38.803883
 30
0.0
 10
17.049767
 20
38.805883
 30
0.0
 10
17.040667
 20
38.805527
 30
0.0
 10
17.017797
 20
38.797627
 30
0.0
 10
16.988967
 20
38.779897
 30
0.0
 10
16.903157
 20
38.714777
 30
0.0
 10
16.778921
 20
38.623707
 30
0.0
 10
16.645623
 20
38.530237
 30
0.0
 10
16.502275
 20
38.434127
 30
0.0
 10
16.346354
 20
38.334237
 30
0.0
 10
16.180296
 20
38.232714
 30
0.0
 10
16.003219
 20
38.129481
 30
0.0
 10
15.861474
 20
38.050321
 30
0.0
  0
SPLINE
  5
193
100
AcDbEntity
  8
0
 62
7
100
AcDbSpline
 70
8
 71
3
 72
8
 73
4
 74
0
 40
0
 40
0
 40
0
 40
0
 40
1
 40
1
 40
1
 40
1
 10
14.290736
 20
39.366998
 30
0.0
 10
14.171903
 20
39.474831
 30
0.0
 10
14.054067
 20
39.583758
 30
0.0
 10
13.937242
 20
39.693764
 30
0.0
  0
LWPOLYLINE
  5
194
100
AcDbEntity
  8
0
 62
7
100
AcDbPolyline
 90
29
 70
0
 10
15.483431
 20
38.348345
 30
0.0
 10
15.527311
 20
38.504653
 30
0.0
 10
15.586351
 20
38.700937
 30
0.0
 10
15.646301
 20
38.886108
 30
0.0
 10
15.707032
 20
39.061039
 30
0.0
 10
15.767022
 20
39.222862
 30
0.0
 10
15.826792
 20
39.374298
 30
0.0
 10
15.886342
 20
39.516360
 30
0.0
 10
15.929632
 20
39.615000
 30
0.0
 10
15.940142
 20
39.647170
 30
0.0
 10
15.942542
 20
39.671260
 30
0.0
 10
15.940742
 20
39.680160
 30
0.0
 10
15.937042
 20
39.686960
 30
0.0
 10
15.887642
 20
39.728710
 30
0.0
 10
15.738830
 20
39.854914
 30
0.0
 10
15.590900
 20
39.982151
 30
0.0
 10
15.541940
 20
40.024421
 30
0.0
 10
15.534640
 20
40.027021
 30
0.0
 10
15.525540
 20
40.027378
 30
0.0
 10
15.502120
 20
40.021278
 30
0.0
 10
15.471990
 20
40.005858
 30
0.0
 10
15.381340
 20
39.947668
 30
0.0
 10
15.250342
 20
39.866628
 30
0.0
 10
15.110121
 20
39.783908
 30
0.0
 10
14.959675
 20
39.699348
 30
0.0
 10
14.796397
 20
39.611998
 30
0.0
 10
14.622886
 20
39.523818
 30
0.0
 10
14.438255
 20
39.434798
 30
0.0
 10
14.290736
 20
39.366998
 30
0.0
  0
SPLINE
  5
195
100
AcDbEntity
  8
0
 62
7
100
AcDbSpline
 70
8
 71
3
 72
8
 73
4
 74
0
 40
0
 40
0
 40
0
 40
0
 40
1
 40
1
 40
1
 40
1
 10
12.828219
 20
40.802787
 30
0.0
 10
12.718213
 20
40.919611
 30
0.0
 10
12.609286
 20
41.037448
 30
0.0
 10
12.501453
 20
41.156281
 30
0.0
  0
LWPOLYLINE
  5
196
100
AcDbEntity
  8
0
 62
7
100
AcDbPolyline
 90
29
 70
0
 10
13.937242
 20
39.693764
 30
0.0
 10
13.993252
 20
39.846147
 30
0.0
 10
14.067512
 20
40.037193
 30
0.0
 10
14.141812
 20
40.217088
 30
0.0
 10
14.216082
 20
40.386717
 30
0.0
 10
14.288582
 20
40.543334
 30
0.0
 10
14.360053
 20
40.689613
 30
0.0
 10
14.430563
 20
40.826566
 30
0.0
 10
14.481463
 20
40.921506
 30
0.0
 10
14.494463
 20
40.952756
 30
0.0
 10
14.498663
 20
40.976586
 30
0.0
 10
14.497563
 20
40.985586
 30
0.0
 10
14.494463
 20
40.992586
 30
0.0
 10
14.448483
 20
41.038086
 30
0.0
 10
14.310031
 20
41.175576
 30
0.0
 10
14.172541
 20
41.314027
 30
0.0
 10
14.127041
 20
41.360007
 30
0.0
 10
14.120041
 20
41.363107
 30
0.0
 10
14.111041
 20
41.364207
 30
0.0
 10
14.087211
 20
41.360007
 30
0.0
 10
14.055961
 20
41.347007
 30
0.0
 10
13.961021
 20
41.296107
 30
0.0
 10
13.824068
 20
41.225597
 30
0.0
 10
13.677789
 20
41.154127
 30
0.0
 10
13.521172
 20
41.081627
 30
0.0
 10
13.351544
 20
41.007357
 30
0.0
 10
13.171649
 20
40.933057
 30
0.0
 10
12.980603
 20
40.858797
 30
0.0
 10
12.828219
 20
40.802787
 30
0.0
  0
SPLINE
  5
197
100
AcDbEntity
  8
0
 62
7
100
AcDbSpline
 70
8
 71
3
 72
8
 73
4
 74
0
 40
0
 40
0
 40
0
 40
0
 40
1
 40
1
 40
1
 40
1
 10
11.482800
 20
42.348976
 30
0.0
 10
11.382299
 20
42.474071
 30
0.0
 10
11.282953
 20
42.600091
 30
0.0
 10
11.184776
 20
42.727018
 30
0.0
  0
LWPOLYLINE
  5
198
100
AcDbEntity
  8
0
 62
7
100
AcDbPolyline
 90
29
 70
0
 10
12.501453
 20
41.156281
 30
0.0
 10
12.569253
 20
41.303799
 30
0.0
 10
12.658273
 20
41.488430
 30
0.0
 10
12.746453
 20
41.661942
 30
0.0
 10
12.833803
 20
41.825220
 30
0.0
 10
12.918363
 20
41.975666
 30
0.0
 10
13.001084
 20
42.115887
 30
0.0
 10
13.082124
 20
42.246885
 30
0.0
 10
13.140314
 20
42.337535
 30
0.0
 10
13.155734
 20
42.367665
 30
0.0
 10
13.161834
 20
42.391085
 30
0.0
 10
13.161477
 20
42.400185
 30
0.0
 10
13.158877
 20
42.407485
 30
0.0
 10
13.116607
 20
42.456445
 30
0.0
 10
12.989370
 20
42.604374
 30
0.0
 10
12.863165
 20
42.753186
 30
0.0
 10
12.821415
 20
42.802586
 30
0.0
 10
12.814615
 20
42.806286
 30
0.0
 10
12.805715
 20
42.808086
 30
0.0
 10
12.781625
 20
42.805686
 30
0.0
 10
12.749455
 20
42.795176
 30
0.0
 10
12.650815
 20
42.751886
 30
0.0
 10
12.508753
 20
42.692336
 30
0.0
 10
12.357317
 20
42.632566
 30
0.0
 10
12.195494
 20
42.572576
 30
0.0
 10
12.020563
 20
42.511846
 30
0.0
 10
11.835393
 20
42.451896
 30
0.0
 10
11.639109
 20
42.392856
 30
0.0
 10
11.482800
 20
42.348976
 30
0.0
  0
SPLINE
  5
199
100
AcDbEntity
  8
0
 62
7
100
AcDbSpline
 70
8
 71
3
 72
8
 73
4
 74
0
 40
0
 40
0
 40
0
 40
0
 40
1
 40
1
 40
1
 40
1
 10
10.262876
 20
43.995870
 30
0.0
 10
10.172499
 20
44.128465
 30
0.0
 10
10.083346
 20
44.261891
 30
0.0
 10
9.995430
 20
44.396130
 30
0.0
  0
LWPOLYLINE
  5
19a
100
AcDbEntity
  8
0
 62
7
100
AcDbPolyline
 90
29
 70
0
 10
11.184776
 20
42.727018
 30
0.0
 10
11.263936
 20
42.868763
 30
0.0
 10
11.367169
 20
43.045841
 30
0.0
 10
11.468692
 20
43.211899
 30
0.0
 10
11.568582
 20
43.367820
 30
0.0
 10
11.664693
 20
43.511168
 30
0.0
 10
11.758163
 20
43.644466
 30
0.0
 10
11.849233
 20
43.768702
 30
0.0
 10
11.914353
 20
43.854512
 30
0.0
 10
11.932083
 20
43.883342
 30
0.0
 10
11.939983
 20
43.906212
 30
0.0
 10
11.940339
 20
43.915312
 30
0.0
 10
11.938339
 20
43.922712
 30
0.0
 10
11.900049
 20
43.974842
 30
0.0
 10
11.784810
 20
44.132298
 30
0.0
 10
11.670672
 20
44.290553
 30
0.0
 10
11.632932
 20
44.343084
 30
0.0
 10
11.626432
 20
44.347284
 30
0.0
 10
11.617732
 20
44.349784
 30
0.0
 10
11.593531
 20
44.349321
 30
0.0
 10
11.560631
 20
44.341321
 30
0.0
 10
11.458901
 20
44.305900
 30
0.0
 10
11.312604
 20
44.257680
 30
0.0
 10
11.156946
 20
44.209980
 30
0.0
 10
10.990916
 20
44.162870
 30
0.0
 10
10.811758
 20
44.116050
 30
0.0
 10
10.622456
 20
44.070810
 30
0.0
 10
10.422145
 20
44.027350
 30
0.0
 10
10.262876
 20
43.995870
 30
0.0
  0
SPLINE
  5
19b
100
AcDbEntity
  8
0
 62
7
100
AcDbSpline
 70
8
 71
3
 72
8
 73
4
 74
0
 40
0
 40
0
 40
0
 40
0
 40
1
 40
1
 40
1
 40
1
 10
9.176025
 20
45.733394
 30
0.0
 10
9.096330
 20
45.872670
 30
0.0
 10
9.017921
 20
46.012679
 30
0.0
 10
8.940809
 20
46.153402
 30
0.0
  0
LWPOLYLINE
  5
19c
100
AcDbEntity
  8
0
 62
7
100
AcDbPolyline
 90
29
 70
0
 10
9.995430
 20
44.396130
 30
0.0
 10
10.085470
 20
44.531227
 30
0.0
 10
10.202277
 20
44.699658
 30
0.0
 10
10.316516
 20
44.857239
 30
0.0
 10
10.428331
 20
45.004843
 30
0.0
 10
10.535389
 20
45.140208
 30
0.0
 10
10.639030
 20
45.265761
 30
0.0
 10
10.739565
 20
45.382469
 30
0.0
 10
10.811215
 20
45.462899
 30
0.0
 10
10.831155
 20
45.490249
 30
0.0
 10
10.840855
 20
45.512429
 30
0.0
 10
10.841955
 20
45.521429
 30
0.0
 10
10.840555
 20
45.529029
 30
0.0
 10
10.806475
 20
45.583999
 30
0.0
 10
10.703945
 20
45.750012
 30
0.0
 10
10.602575
 20
45.916734
 30
0.0
 10
10.569065
 20
45.972064
 30
0.0
 10
10.562965
 20
45.976764
 30
0.0
 10
10.554465
 20
45.979864
 30
0.0
 10
10.530305
 20
45.981264
 30
0.0
 10
10.496885
 20
45.975964
 30
0.0
 10
10.392690
 20
45.948634
 30
0.0
 10
10.243061
 20
45.912044
 30
0.0
 10
10.084138
 20
45.876704
 30
0.0
 10
9.914924
 20
45.842764
 30
0.0
 10
9.732646
 20
45.810144
 30
0.0
 10
9.540377
 20
45.779894
 30
0.0
 10
9.337274
 20
45.752284
 30
0.0
 10
9.176025
 20
45.733394
 30
0.0
  0
SPLINE
  5
19d
100
AcDbEntity
  8
0
 62
7
100
AcDbSpline
 70
8
 71
3
 72
8
 73
4
 74
0
 40
0
 40
0
 40
0
 40
0
 40
1
 40
1
 40
1
 40
1
 10
8.228854
 20
47.550804
 30
0.0
 10
8.160333
 20
47.695904
 30
0.0
 10
8.093151
 20
47.841634
 30
0.0
 10
8.027317
 20
47.987973
 30
0.0
  0
LWPOLYLINE
  5
19e
100
AcDbEntity
  8
0
 62
7
100
AcDbPolyline
 90
29
 70
0
 10
8.940809
 20
46.153402
 30
0.0
 10
9.041169
 20
46.281019
 30
0.0
 10
9.170831
 20
46.439767
 30
0.0
 10
9.297081
 20
46.587898
 30
0.0
 10
9.420131
 20
46.726274
 30
0.0
 10
9.537480
 20
46.852822
 30
0.0
 10
9.650652
 20
46.969857
 30
0.0
 10
9.760034
 20
47.078318
 30
0.0
 10
9.837774
 20
47.152878
 30
0.0
 10
9.859794
 20
47.178578
 30
0.0
 10
9.871194
 20
47.199928
 30
0.0
 10
9.872994
 20
47.208828
 30
0.0
 10
9.872193
 20
47.216528
 30
0.0
 10
9.842523
 20
47.274008
 30
0.0
 10
9.753333
 20
47.447552
 30
0.0
 10
9.665353
 20
47.621714
 30
0.0
 10
9.636293
 20
47.679504
 30
0.0
 10
9.630593
 20
47.684604
 30
0.0
 10
9.622393
 20
47.688404
 30
0.0
 10
9.598413
 20
47.691704
 30
0.0
 10
9.564673
 20
47.689004
 30
0.0
 10
9.458656
 20
47.669934
 30
0.0
 10
9.306616
 20
47.645194
 30
0.0
 10
9.145412
 20
47.622424
 30
0.0
 10
8.974057
 20
47.601874
 30
0.0
 10
8.789780
 20
47.583664
 30
0.0
 10
8.595731
 20
47.568594
 30
0.0
 10
8.391088
 20
47.557004
 30
0.0
 10
8.228854
 20
47.550804
 30
0.0
  0
SPLINE
  5
19f
100
AcDbEntity
  8
0
 62
7
100
AcDbSpline
 70
8
 71
3
 72
8
 73
4
 74
0
 40
0
 40
0
 40
0
 40
0
 40
1
 40
1
 40
1
 40
1
 10
7.427173
 20
49.436965
 30
0.0
 10
7.370247
 20
49.586994
 30
0.0
 10
7.314706
 20
49.737545
 30
0.0
 10
7.260556
 20
49.888598
 30
0.0
  0
LWPOLYLINE
  5
1a0
100
AcDbEntity
  8
0
 62
7
100
AcDbPolyline
 90
29
 70
0
 10
8.027317
 20
47.987973
 30
0.0
 10
8.137379
 20
48.107321
 30
0.0
 10
8.279097
 20
48.255407
 30
0.0
 10
8.416580
 20
48.393176
 30
0.0
 10
8.550108
 20
48.521472
 30
0.0
 10
8.677024
 20
48.638423
 30
0.0
 10
8.799030
 20
48.746218
 30
0.0
 10
8.916585
 20
48.845762
 30
0.0
 10
8.999935
 20
48.913994
 30
0.0
 10
9.023905
 20
48.937886
 30
0.0
 10
9.036945
 20
48.958278
 30
0.0
 10
9.039445
 20
48.967018
 30
0.0
 10
9.039247
 20
48.974708
 30
0.0
 10
9.014177
 20
49.034334
 30
0.0
 10
8.938877
 20
49.214341
 30
0.0
 10
8.864836
 20
49.394869
 30
0.0
 10
8.840396
 20
49.454756
 30
0.0
 10
8.835096
 20
49.460336
 30
0.0
 10
8.827196
 20
49.464776
 30
0.0
 10
8.803556
 20
49.469976
 30
0.0
 10
8.769716
 20
49.469920
 30
0.0
 10
8.662529
 20
49.459227
 30
0.0
 10
8.509017
 20
49.446491
 30
0.0
 10
8.346523
 20
49.436442
 30
0.0
 10
8.174084
 20
49.429392
 30
0.0
 10
7.988947
 20
49.425692
 30
0.0
 10
7.794314
 20
49.425895
 30
0.0
 10
7.589392
 20
49.430395
 30
0.0
 10
7.427173
 20
49.436965
 30
0.0
  0
SPLINE
  5
1a1
100
AcDbEntity
  8
0
 62
7
100
AcDbSpline
 70
8
 71
3
 72
8
 73
4
 74
0
 40
0
 40
0
 40
0
 40
0
 40
1
 40
1
 40
1
 40
1
 10
6.775962
 20
51.380205
 30
0.0
 10
6.730983
 20
51.534238
 30
0.0
 10
6.687425
 20
51.688682
 30
0.0
 10
6.645294
 20
51.843519
 30
0.0
  0
LWPOLYLINE
  5
1a2
100
AcDbEntity
  8
0
 62
7
100
AcDbPolyline
 90
29
 70
0
 10
7.260556
 20
49.888598
 30
0.0
 10
7.379644
 20
49.998944
 30
0.0
 10
7.532544
 20
50.135454
 30
0.0
 10
7.680413
 20
50.262012
 30
0.0
 10
7.823595
 20
50.379435
 30
0.0
 10
7.959295
 20
50.486068
 30
0.0
 10
8.089382
 20
50.583958
 30
0.0
 10
8.214385
 20
50.673971
 30
0.0
 10
8.302835
 20
50.735453
 30
0.0
 10
8.328605
 20
50.757391
 30
0.0
 10
8.343205
 20
50.776697
 30
0.0
 10
8.346305
 20
50.785217
 30
0.0
 10
8.346712
 20
50.792897
 30
0.0
 10
8.326402
 20
50.854306
 30
0.0
 10
8.265462
 20
51.039666
 30
0.0
 10
8.205812
 20
51.225447
 30
0.0
 10
8.186152
 20
51.287066
 30
0.0
 10
8.181352
 20
51.293046
 30
0.0
 10
8.173852
 20
51.298086
 30
0.0
 10
8.150692
 20
51.305126
 30
0.0
 10
8.116952
 20
51.307726
 30
0.0
 10
8.009257
 20
51.305476
 30
0.0
 10
7.855219
 20
51.304824
 30
0.0
 10
7.692438
 20
51.307554
 30
0.0
 10
7.519977
 20
51.314054
 30
0.0
 10
7.335120
 20
51.324891
 30
0.0
 10
7.141102
 20
51.340364
 30
0.0
 10
6.937166
 20
51.360931
 30
0.0
 10
6.775962
 20
51.380205
 30
0.0
  0
SPLINE
  5
1a3
100
AcDbEntity
  8
0
 62
7
100
AcDbSpline
 70
8
 71
3
 72
8
 73
4
 74
0
 40
0
 40
0
 40
0
 40
0
 40
1
 40
1
 40
1
 40
1
 10
6.279143
 20
53.368557
 30
0.0
 10
6.246389
 20
53.525644
 30
0.0
 10
6.215084
 20
53.683030
 30
0.0
 10
6.185233
 20
53.840695
 30
0.0
  0
LWPOLYLINE
  5
1a4
100
AcDbEntity
  8
0
 62
7
100
AcDbPolyline
 90
29
 70
0
 10
6.645294
 20
51.843519
 30
0.0
 10
6.772672
 20
51.944181
 30
0.0
 10
6.935811
 20
52.068274
 30
0.0
 10
7.093153
 20
52.182840
 30
0.0
 10
7.245107
 20
52.288667
 30
0.0
 10
7.388755
 20
52.384324
 30
0.0
 10
7.526123
 20
52.471706
 30
0.0
 10
7.657802
 20
52.551634
 30
0.0
 10
7.750802
 20
52.605987
 30
0.0
 10
7.778212
 20
52.625835
 30
0.0
 10
7.794282
 20
52.643936
 30
0.0
 10
7.798082
 20
52.652176
 30
0.0
 10
7.799082
 20
52.659806
 30
0.0
 10
7.783652
 20
52.722619
 30
0.0
 10
7.737442
 20
52.912190
 30
0.0
 10
7.692552
 20
53.102077
 30
0.0
 10
7.677782
 20
53.165049
 30
0.0
 10
7.673382
 20
53.171389
 30
0.0
 10
7.666282
 20
53.177009
 30
0.0
 10
7.643752
 20
53.185839
 30
0.0
 10
7.610312
 20
53.191079
 30
0.0
 10
7.502771
 20
53.197289
 30
0.0
 10
7.349157
 20
53.208725
 30
0.0
 10
7.187092
 20
53.224220
 30
0.0
 10
7.015673
 20
53.244236
 30
0.0
 10
6.832236
 20
53.269543
 30
0.0
 10
6.640031
 20
53.300190
 30
0.0
 10
6.438337
 20
53.336694
 30
0.0
 10
6.279143
 20
53.368557
 30
0.0
  0
SPLINE
  5
1a5
100
AcDbEntity
  8
0
 62
7
100
AcDbSpline
 70
8
 71
3
 72
8
 73
4
 74
0
 40
0
 40
0
 40
0
 40
0
 40
1
 40
1
 40
1
 40
1
 10
5.939855
 20
55.389754
 30
0.0
 10
5.919526
 20
55.548927
 30
0.0
 10
5.900665
 20
55.708284
 30
0.0
 10
5.883275
 20
55.867805
 30
0.0
  0
LWPOLYLINE
  5
1a6
100
AcDbEntity
  8
0
 62
7
100
AcDbPolyline
 90
29
 70
0
 10
6.185233
 20
53.840695
 30
0.0
 10
6.320116
 20
53.931053
 30
0.0
 10
6.492488
 20
54.041963
 30
0.0
 10
6.658334
 20
54.143831
 30
0.0
 10
6.818122
 20
54.237411
 30
0.0
 10
6.968833
 20
54.321503
 30
0.0
 10
7.112632
 20
54.397838
 30
0.0
 10
7.250176
 20
54.467189
 30
0.0
 10
7.347156
 20
54.514077
 30
0.0
 10
7.376046
 20
54.531713
 30
0.0
 10
7.393486
 20
54.548498
 30
0.0
 10
7.397886
 20
54.556418
 30
0.0
 10
7.399486
 20
54.563938
 30
0.0
 10
7.389036
 20
54.627768
 30
0.0
 10
7.357836
 20
54.820379
 30
0.0
 10
7.327986
 20
55.013204
 30
0.0
 10
7.318186
 20
55.077141
 30
0.0
 10
7.314386
 20
55.083801
 30
0.0
 10
7.307686
 20
55.089961
 30
0.0
 10
7.285916
 20
55.100535
 30
0.0
 10
7.252996
 20
55.108385
 30
0.0
 10
7.146274
 20
55.123010
 30
0.0
 10
6.994031
 20
55.146463
 30
0.0
 10
6.833681
 20
55.174626
 30
0.0
 10
6.664361
 20
55.208030
 30
0.0
 10
6.483476
 20
55.247651
 30
0.0
 10
6.294268
 20
55.293284
 30
0.0
 10
6.096058
 20
55.345500
 30
0.0
 10
5.939855
 20
55.389754
 30
0.0
  0
LWPOLYLINE
  5
1a7
100
AcDbEntity
  8
0
 62
7
100
AcDbPolyline
 90
2
 70
0
 10
5.883275
 20
55.867805
 30
0.0
 10
6.024885
 20
55.947144
 30
0.0
  0
ENDSEC
  0
SECTION
  2
OBJECTS
  0
DICTIONARY
  5
C
330
0
100
AcDbDictionary
  3
ACAD_GROUP
350
D
  3
ACAD_MLINESTYLE
350
17
  0
DICTIONARY
  5
D
330
C
100
AcDbDictionary
  0
DICTIONARY
  5
1A
330
C
100
AcDbDictionary
  0
DICTIONARY
  5
17
330
C
100
AcDbDictionary
  3
STANDARD
350
18
  0
DICTIONARY
  5
19
330
C
100
AcDbDictionary
  0
ENDSEC
  0
EOF
