<?xml version="1.0" encoding="UTF-8"?>
<svg viewBox="-10.24957833511806 -29.3481715061455 71.42873845964263 58.696343012291" height="58.696343012291mm" width="71.42873845964263mm" xmlns:svgjs="http://svgjs.com/svgjs" xmlns:xlink="http://www.w3.org/1999/xlink" version="1.1" xmlns="http://www.w3.org/2000/svg" id="SvgjsSvg1743">
  <desc>Created with svg.js [http://svgjs.com]</desc>
  <defs id="SvgjsDefs1744">
  </defs>
  <defs id="SvgjsDefs1744">
  </defs>
  <g id="SvgjsG1745">
    <g transform="matrix(1,0,0,1,31.83098793029785,0)" id="SvgjsG1746">
      <g fill="none" stroke-width="0.04" stroke="blue" id="SvgjsG1747">
        <circle cy="0" cx="0" r="25.464790894703256" id="SvgjsCircle1748">
        </circle>
        <circle cy="0" cx="0" r="26.101410667070837" id="SvgjsCircle1749">
        </circle>
        <line y2="0.5" x2="0" y1="-0.5" x1="0" id="SvgjsLine1750">
        </line>
        <line y2="0" x2="0.5" y1="0" x1="-0.5" id="SvgjsLine1751">
        </line>
      </g>
      <g fill="none" stroke-width="0.1" stroke="black" id="SvgjsG1752">
        <circle cy="0" cx="0" r="2" id="SvgjsCircle1753">
        </circle>
        <path d="M-25.80611878847995 2.7492397329738703  L-25.625576248796822 2.6521953731956454 -25.452248867909624 2.5636533180196697 -25.285611001358937 2.4829001265568205 -25.128767171134726 2.410892325447506 -24.97942229542384 2.3460750515238074 -24.83686053088248 2.2877299258417496 -24.73650163166889 2.248595218117845 -24.706320210631265 2.233279999407363 -24.687618060032495 2.217915281284962 -24.68257479796946 2.210366320577454 -24.68038664243568 2.202991907017041 -24.685800328640823 2.13853796996373 -24.70178717118618 1.944072811990817 -24.716418206157655 1.749500949647714 -24.721153988575864 1.6849936604093079 -24.724468816724297 1.6780523410573132 -24.730630905492415 1.6713852605857864 -24.751506373042847 1.6591353685637802 -24.78371203875025 1.6487301200639473 -24.88895737044577 1.6257768162429527 -25.038891151621716 1.5904515892474456 -25.19653699966061 1.549795009262179 -25.362714323912606 1.5032095243506012 -25.539933184113146 1.4495184441862003 -25.72497764635634 1.3891808647424706 -25.91847849028988 1.3215743576813326 -26.070728308384066 1.2652011850240759 A26.101410667070837 26.101410667070837 0 0 1 -26.08962749456581 0.7841847760319498 L-25.94227 0.7160400000000016 -25.75467 0.6334600000000016 -25.57493 0.5587900000000016 -25.40247 0.4913600000000016 -25.24046 0.43188000000000154 -25.08649 0.37898000000000154 -24.93979 0.33200000000000157 -24.83667 0.3008600000000015 -24.80538 0.2879600000000015 -24.78553 0.2741100000000015 -24.77991 0.2669800000000015 -24.77715 0.2598000000000015 -24.77749 0.19512000000000151 -24.77817 1.5172253289614487e-15 -24.77749 -0.19511999999999846 -24.77715 -0.2597999999999985 -24.77991 -0.2669799999999985 -24.78553 -0.2741099999999985 -24.80538 -0.2879599999999985 -24.83667 -0.3008599999999985 -24.93979 -0.33199999999999846 -25.08649 -0.37897999999999843 -25.24046 -0.43187999999999843 -25.40247 -0.49135999999999846 -25.57493 -0.5587899999999985 -25.75467 -0.6334599999999985 -25.94227 -0.7160399999999985 -26.08962749456581 -0.7841847760319467 A26.101410667070837 26.101410667070837 0 0 1 -26.070728308384066 -1.2652011850240727 L-25.91847849028988 -1.3215743576813295 -25.72497764635634 -1.389180864742467 -25.539933184113146 -1.4495184441861972 -25.362714323912606 -1.503209524350598 -25.19653699966061 -1.549795009262176 -25.038891151621716 -1.5904515892474425 -24.88895737044577 -1.6257768162429496 -24.78371203875025 -1.6487301200639441 -24.751506373042847 -1.659135368563777 -24.730630905492415 -1.6713852605857833 -24.724468816724297 -1.67805234105731 -24.721153988575864 -1.684993660409305 -24.716418206157655 -1.7495009496477114 -24.70178717118618 -1.944072811990814 -24.685800328640823 -2.138537969963727 -24.68038664243568 -2.2029919070170383 -24.68257479796946 -2.210366320577451 -24.687618060032495 -2.2179152812849585 -24.706320210631265 -2.23327999940736 -24.73650163166889 -2.248595218117842 -24.83686053088248 -2.2877299258417465 -24.97942229542384 -2.3460750515238042 -25.128767171134726 -2.4108923254475028 -25.285611001358937 -2.4829001265568174 -25.452248867909624 -2.563653318019666 -25.625576248796822 -2.652195373195642 -25.80611878847995 -2.749239732973867 -25.947675451562045 -2.8287359771758327 A26.101410667070837 26.101410667070837 0 0 1 -25.891094412784238 -3.3067867600523355 L-25.73489094191843 -3.351040769979486 -25.536682251099762 -3.4032569675042854 -25.347474187256633 -3.448890125150193 -25.166589080059936 -3.488511262115685 -24.997268970019526 -3.521915016933116 -24.836919213017463 -3.5500775155683546 -24.684676042284565 -3.573530177788112 -24.577954251361046 -3.5881552706792963 -24.5450314785848 -3.596001615861865 -24.523259247683185 -3.606575875248059 -24.516593061473305 -3.6127389314229763 -24.51274384219427 -3.619398774584938 -24.50296147503127 -3.6833356441727454 -24.473109610284226 -3.8761597686258957 -24.441914489393973 -4.068771142206592 -24.431460494159367 -4.132601636358172 -24.43306331452042 -4.140124997767156 -24.43749874525883 -4.148046377329125 -24.454937741478833 -4.164831084977417 -24.48382450505704 -4.182467098982203 -24.580803557497852 -4.2293552359432836 -24.718348145895572 -4.298705770205845 -24.862147136496375 -4.375040698005572 -25.012857802575603 -4.459132348185339 -25.172646157816974 -4.552710860832507 -25.33849229865099 -4.654579079971077 -25.510864273223618 -4.765489488778972 -25.645747360921735 -4.855847080370265 A26.101410667070837 26.101410667070837 0 0 1 -25.551833310467035 -5.327984895086692 L-25.392639233170417 -5.359846901596585 -25.190944717956594 -5.3963508593636575 -24.998739583145195 -5.426998251620291 -24.815303445788608 -5.452305167902118 -24.64388446474283 -5.472321247369075 -24.481819408351225 -5.4878160334852195 -24.32820547783493 -5.49925153746784 -24.220665203013052 -5.5054582508682035 -24.18722830301007 -5.510697317406282 -24.16469354180077 -5.519530750331251 -24.157564357403842 -5.525151784918815 -24.153204478711057 -5.531489091743028 -24.138435838349793 -5.5944613496180615 -24.0935471905001 -5.784348911333478 -24.047336119558665 -5.97391898735405 -24.031906267651532 -6.0367325023816605 -24.032913870919344 -6.044358427614359 -24.036714124427686 -6.052603388091665 -24.052782449058174 -6.070704601961713 -24.08019645867368 -6.090552679369894 -24.17319775623461 -6.144905164611897 -24.304877160363002 -6.224833538349842 -24.44224369725865 -6.3122154898117735 -24.585892017820136 -6.407872536075322 -24.73784571340711 -6.513699427258326 -24.895188117580272 -6.628265758913882 -25.058326796499653 -6.752358417199689 -25.185704709724956 -6.853020271581203 A26.101410667070837 26.101410667070837 0 0 1 -25.055036658944 -7.3163342315080735 L-24.893833459640515 -7.335607794735384 -24.68989663378806 -7.356174453706297 -24.49587943657919 -7.371647129209103 -24.311023213848227 -7.382483799252983 -24.138562216817824 -7.388988797583532 -23.97578104600143 -7.391720340671636 -23.82174343666519 -7.3910681827323765 -23.7140476995 -7.388818250189864 -23.68030282187769 -7.391417737496078 -23.657144464657136 -7.398455882908424 -23.649596235865662 -7.403500240361222 -23.644752577861077 -7.4094759392437455 -23.625088717880445 -7.471095340495803 -23.565440040369086 -7.656875619511489 -23.504497925995565 -7.842235635414824 -23.484187347583855 -7.903644905110707 -23.48459352154922 -7.911326377802181 -23.487735168000903 -7.919844086271754 -23.50233375447727 -7.939150206360783 -23.528105993644708 -7.961087977174984 -23.616556152400225 -8.022569709552359 -23.741558524944992 -8.11258313776271 -23.87164569775652 -8.210473374098633 -24.007346033136077 -8.317106058946555 -24.150528224005637 -8.43452887069024 -24.29839682327455 -8.561086975330953 -24.451296402336038 -8.697596810591348 -24.570383813896033 -8.807942313957353 A26.101410667070837 26.101410667070837 0 0 1 -24.40376737477343 -9.259575934464197 L-24.241548924792276 -9.266142226482513 -24.03662712664845 -9.270644786365606 -23.841994047580172 -9.270847350924923 -23.656857439558898 -9.267146963056476 -23.484417705939666 -9.260100774772777 -23.321924020746792 -9.250052233961373 -23.168412425674873 -9.237316434870793 -23.06122520619846 -9.226623727967707 -23.027380399348676 -9.2265676093384 -23.003741225090067 -9.231767074731234 -22.995820489244593 -9.236203654908149 -22.990522914690477 -9.241780903678249 -22.96608506932616 -9.301667544208085 -22.892044116085188 -9.482195143325695 -22.81674668668001 -9.662202292975289 -22.791680603233576 -9.721828708771115 -22.79148284369893 -9.729518370087874 -22.79394651379888 -9.738256312044573 -22.80698535698097 -9.758648309702298 -22.83095693127574 -9.7825405202704 -22.914310626584452 -9.850772444458288 -23.031865286351348 -9.950315964423627 -23.153871064399997 -10.058110959774726 -23.280786776905074 -10.175061857245968 -23.414314697237593 -10.303356638868886 -23.551797832516474 -10.441126243694805 -23.69351563497088 -10.589211627401278 -23.80357833137272 -10.708560463029924 A26.101410667070837 26.101410667070837 0 0 1 -23.60204074966125 -11.14572927266289 L-23.439807179689677 -11.139547810098414 -23.235163820283447 -11.12795851111475 -23.041114837010277 -11.112889715852708 -22.856839272451314 -11.094675084193648 -22.68548395054305 -11.074121151389566 -22.52427957857754 -11.051354479274236 -22.372240447801346 -11.026613559468812 -22.266222590865155 -11.007544002298898 -22.232486519276655 -11.004832623724075 -22.208512271350127 -11.008161352664255 -22.200267862421043 -11.011962802573182 -22.194549032626153 -11.017107215637573 -22.165487869321222 -11.074891874391987 -22.077511127448492 -11.249053780931444 -21.988322616702863 -11.422598260391258 -21.958655568961486 -11.480074205605849 -21.957855095180115 -11.487724646228804 -21.95962559958291 -11.496628949354802 -21.971024310666657 -11.51798110113464 -21.993047427361873 -11.543680448033522 -22.070790755974286 -11.61824189152989 -22.180172939394957 -11.72670178434805 -22.293345116488016 -11.843736946722512 -22.41069372854727 -11.97028501564404 -22.533744134311355 -12.108660787155143 -22.659994176353422 -12.256792496739477 -22.789656464822666 -12.41554043325809 -22.890015872943472 -12.54315677589021 A26.101410667070837 26.101410667070837 0 0 1 -22.65479969485243 -12.963165483564534 L-22.493551228797447 -12.944274377189513 -22.290448002490376 -12.916664671221161 -22.09817949152203 -12.886417420271435 -21.915901090558727 -12.85380084408292 -21.746686642902418 -12.81986588858907 -21.587765462723343 -12.78452144927409 -21.43813616804224 -12.747927944751613 -21.333941308988795 -12.720599107476092 -21.300521966761316 -12.715249185506298 -21.276360454377578 -12.71668665527299 -21.26784320188748 -12.719829537711131 -21.2617383753392 -12.724509398052577 -21.228233065829254 -12.779835813395003 -21.12686294119364 -12.94655826128778 -21.0243332259345 -13.112570111132545 -20.990248121112792 -13.167541227450963 -20.98884986827175 -13.175105279869644 -20.989916291228997 -13.184121046175193 -20.99960459337011 -13.206301708961107 -21.019543472627912 -13.233649747171237 -21.09119712107085 -13.314081013882731 -21.191732450611244 -13.430788588247916 -21.295373282643368 -13.55634235695156 -21.40243130104107 -13.691707386396976 -21.514245545566776 -13.839311015150283 -21.628484120880447 -13.99689154824465 -21.74529148423903 -14.165323303757722 -21.835328854954845 -14.30042035620425 A26.101410667070837 26.101410667070837 0 0 1 -21.567884266439478 -14.700679468570048 L-21.408615054714872 -14.669195188337218 -21.20830416043582 -14.625735298402633 -21.019001521078184 -14.58049607612556 -20.8398440906662 -14.533678647445903 -20.673813780601158 -14.48657188954742 -20.518155594130977 -14.438867593254384 -20.371858649903473 -14.390647115138812 -20.27012918468714 -14.35522748912725 -20.237232613178577 -14.347272007810455 -20.21303280009598 -14.346809355924544 -20.20429521573875 -14.349274293976553 -20.197842030722814 -14.353460748699836 -20.160099146382624 -14.405987814881788 -20.04596061951149 -14.564242904795787 -19.930721829528007 -14.721698606766667 -19.892428813631643 -14.77382597897706 -19.89044140242466 -14.781257008293 -19.890797169084202 -14.790328652580778 -19.898715330678293 -14.813201075210875 -19.916447042677714 -14.842029194982542 -19.98156924238127 -14.927834399403778 -20.072637884303372 -15.05207011431082 -20.16610839108101 -15.185368408608724 -20.262215767533345 -15.328715828158053 -20.362104478821163 -15.484637288699112 -20.46362726860144 -15.65069510891614 -20.566859550611866 -15.827772245641691 -20.646019773591767 -15.969517089649965 A26.101410667070837 26.101410667070837 0 0 1 -20.347995659474623 -16.347558876179843 L-20.191687649733062 -16.303675533146425 -19.99540407075539 -16.244633403918936 -19.810234416729624 -16.18468112516342 -19.63530252200334 -16.123951489008807 -19.4734799816018 -16.063963357532725 -19.322044473321697 -16.004193317111568 -19.179981848857615 -15.944643160685416 -19.08134497345994 -15.901351119710396 -19.049173990972857 -15.890839127234385 -19.025085077086324 -15.888479206098589 -19.01618103097506 -15.890251002601703 -19.00941927352299 -15.89391824082132 -18.9676715117853 -15.943322111012762 -18.84146828465172 -16.092134147693503 -18.71423090540493 -16.24006293502852 -18.67196606761063 -16.289025180547096 -18.669401751088675 -16.296277371993497 -18.66904466803075 -16.305348964559837 -18.67514387097854 -16.328772130942756 -18.690559093818706 -16.358902597331248 -18.748748344766376 -16.449552721843837 -18.829788830609353 -16.58055062279777 -18.91251273537612 -16.720771614379405 -18.997076935948304 -16.87121763952327 -19.084424266876777 -17.0344956241987 -19.172605349364915 -17.208006929856925 -19.261626088680373 -17.39263770836292 -19.329421114826243 -17.54015643983468 A26.101410667070837 26.101410667070837 0 0 1 -19.002654892873927 -17.893650147203036 L-18.850271775973155 -17.83763829677152 -18.65922566583217 -17.76337794261131 -18.479330629630503 -17.689082233112035 -18.309702783891662 -17.614814807884017 -18.153085702926653 -17.542315149608957 -18.006806523102593 -17.470847867234433 -17.86985408172238 -17.400335179014508 -17.774917925280274 -17.349437632904706 -17.74367087661964 -17.336433939198685 -17.719841378093655 -17.332191298511564 -17.71082576663353 -17.333259029751154 -17.703797125228533 -17.336384441723997 -17.65830187492699 -17.38236052463675 -17.520812032393078 -17.520812032393074 -17.382360524636752 -17.658301874926988 -17.336384441724 -17.70379712522853 -17.333259029751158 -17.710825766633526 -17.332191298511567 -17.71984137809365 -17.336433939198685 -17.74367087661964 -17.349437632904706 -17.774917925280274 -17.40033517901451 -17.869854081722377 -17.470847867234436 -18.00680652310259 -17.54231514960896 -18.15308570292665 -17.61481480788402 -18.30970278389166 -17.68908223311204 -18.4793306296305 -17.76337794261131 -18.65922566583217 -17.837638296771523 -18.85027177597315 -17.89365014720304 -19.002654892873924 A26.101410667070837 26.101410667070837 0 0 1 -17.540156439834686 -19.32942111482624 L-17.392637708362923 -19.261626088680366 -17.20800692985693 -19.172605349364908 -17.03449562419871 -19.08442426687677 -16.871217639523277 -18.997076935948296 -16.72077161437941 -18.91251273537611 -16.580550622797773 -18.829788830609345 -16.449552721843844 -18.748748344766373 -16.35890259733125 -18.690559093818703 -16.32877213094276 -18.675143870978534 -16.305348964559844 -18.669044668030747 -16.2962773719935 -18.669401751088667 -16.2890251805471 -18.671966067610622 -16.240062935028522 -18.71423090540492 -16.09213414769351 -18.841468284651715 -15.943322111012765 -18.967671511785294 -15.893918240821323 -19.009419273522983 -15.89025100260171 -19.01618103097505 -15.888479206098596 -19.02508507708632 -15.890839127234388 -19.04917399097285 -15.9013511197104 -19.081344973459938 -15.944643160685423 -19.17998184885761 -16.00419331711157 -19.32204447332169 -16.063963357532728 -19.47347998160179 -16.123951489008814 -19.635302522003332 -16.184681125163426 -19.810234416729617 -16.24463340391894 -19.995404070755384 -16.30367553314643 -20.191687649733055 -16.34755887617985 -20.34799565947462 A26.101410667070837 26.101410667070837 0 0 1 -15.969517089649969 -20.646019773591764 L-15.827772245641697 -20.566859550611863 -15.650695108916146 -20.463627268601435 -15.484637288699119 -20.36210447882116 -15.328715828158058 -20.26221576753334 -15.185368408608731 -20.166108391081007 -15.052070114310826 -20.072637884303372 -14.927834399403784 -19.981569242381266 -14.84202919498255 -19.916447042677714 -14.81320107521088 -19.89871533067829 -14.790328652580783 -19.890797169084202 -14.781257008293005 -19.890441402424656 -14.773825978977065 -19.89242881363164 -14.721698606766672 -19.930721829528007 -14.564242904795792 -20.04596061951149 -14.405987814881794 -20.160099146382624 -14.353460748699842 -20.19784203072281 -14.349274293976558 -20.204295215738746 -14.346809355924549 -20.21303280009598 -14.34727200781046 -20.237232613178573 -14.355227489127257 -20.27012918468714 -14.390647115138817 -20.37185864990347 -14.43886759325439 -20.518155594130977 -14.486571889547427 -20.673813780601154 -14.533678647445909 -20.839844090666197 -14.580496076125566 -21.01900152107818 -14.625735298402638 -21.208304160435816 -14.669195188337223 -21.40861505471487 -14.700679468570055 -21.567884266439474 A26.101410667070837 26.101410667070837 0 0 1 -14.300420356204251 -21.83532885495484 L-14.165323303757724 -21.745291484239026 -13.996891548244651 -21.628484120880444 -13.839311015150287 -21.514245545566776 -13.691707386396978 -21.40243130104107 -13.556342356951564 -21.295373282643364 -13.43078858824792 -21.19173245061124 -13.314081013882735 -21.09119712107085 -13.23364974717124 -21.019543472627912 -13.206301708961108 -20.99960459337011 -13.184121046175195 -20.989916291228994 -13.175105279869646 -20.98884986827175 -13.167541227450966 -20.990248121112792 -13.112570111132548 -21.024333225934498 -12.946558261287784 -21.126862941193636 -12.779835813395007 -21.22823306582925 -12.72450939805258 -21.2617383753392 -12.719829537711133 -21.26784320188748 -12.716686655272992 -21.276360454377574 -12.7152491855063 -21.300521966761316 -12.720599107476096 -21.333941308988795 -12.747927944751616 -21.43813616804224 -12.784521449274093 -21.58776546272334 -12.819865888589074 -21.746686642902414 -12.853800844082926 -21.915901090558727 -12.886417420271439 -22.09817949152203 -12.916664671221167 -22.290448002490372 -12.944274377189515 -22.493551228797443 -12.963165483564536 -22.654799694852425 A26.101410667070837 26.101410667070837 0 0 1 -12.543156775890214 -22.89001587294347 L-12.415540433258093 -22.789656464822663 -12.256792496739479 -22.65999417635342 -12.108660787155147 -22.533744134311352 -11.970285015644043 -22.410693728547265 -11.843736946722515 -22.293345116488013 -11.726701784348052 -22.180172939394957 -11.618241891529891 -22.070790755974283 -11.543680448033523 -21.99304742736187 -11.517981101134643 -21.971024310666653 -11.496628949354806 -21.959625599582907 -11.487724646228806 -21.957855095180115 -11.48007420560585 -21.958655568961483 -11.422598260391258 -21.988322616702863 -11.249053780931447 -22.07751112744849 -11.07489187439199 -22.165487869321222 -11.017107215637575 -22.19454903262615 -11.011962802573183 -22.200267862421043 -11.008161352664258 -22.208512271350124 -11.004832623724079 -22.23248651927665 -11.0075440022989 -22.26622259086515 -11.026613559468814 -22.372240447801342 -11.051354479274238 -22.52427957857754 -11.07412115138957 -22.685483950543045 -11.094675084193652 -22.85683927245131 -11.112889715852711 -23.041114837010273 -11.127958511114752 -23.235163820283443 -11.139547810098415 -23.439807179689673 -11.145729272662894 -23.602040749661246 A26.101410667070837 26.101410667070837 0 0 1 -10.70856046302993 -23.80357833137272 L-10.589211627401284 -23.69351563497088 -10.441126243694809 -23.551797832516474 -10.30335663886889 -23.414314697237593 -10.175061857245971 -23.280786776905074 -10.058110959774732 -23.153871064399997 -9.95031596442363 -23.031865286351348 -9.850772444458292 -22.914310626584452 -9.782540520270404 -22.83095693127574 -9.758648309702302 -22.80698535698097 -9.738256312044577 -22.79394651379888 -9.729518370087877 -22.79148284369893 -9.72182870877112 -22.791680603233576 -9.662202292975293 -22.81674668668001 -9.482195143325699 -22.892044116085188 -9.301667544208089 -22.96608506932616 -9.241780903678254 -22.990522914690477 -9.236203654908152 -22.995820489244593 -9.231767074731238 -23.003741225090067 -9.226567609338403 -23.027380399348676 -9.226623727967711 -23.06122520619846 -9.237316434870797 -23.168412425674873 -9.250052233961377 -23.321924020746792 -9.260100774772782 -23.484417705939666 -9.26714696305648 -23.656857439558898 -9.270847350924926 -23.841994047580172 -9.27064478636561 -24.03662712664845 -9.266142226482518 -24.241548924792276 -9.259575934464202 -24.40376737477343 A26.101410667070837 26.101410667070837 0 0 1 -8.807942313957358 -24.57038381389603 L-8.697596810591351 -24.451296402336034 -8.561086975330957 -24.298396823274548 -8.434528870690245 -24.150528224005633 -8.31710605894656 -24.007346033136074 -8.210473374098639 -23.871645697756517 -8.112583137762716 -23.74155852494499 -8.022569709552362 -23.61655615240022 -7.961087977174988 -23.528105993644708 -7.939150206360788 -23.502333754477267 -7.919844086271758 -23.487735168000903 -7.911326377802186 -23.48459352154922 -7.903644905110711 -23.484187347583852 -7.842235635414829 -23.504497925995565 -7.656875619511493 -23.565440040369083 -7.471095340495808 -23.625088717880445 -7.409475939243749 -23.644752577861073 -7.403500240361226 -23.649596235865662 -7.398455882908428 -23.657144464657136 -7.3914177374960826 -23.680302821877685 -7.3888182501898685 -23.7140476995 -7.391068182732381 -23.821743436665187 -7.3917203406716405 -23.975781046001426 -7.388988797583536 -24.13856221681782 -7.382483799252987 -24.311023213848223 -7.371647129209107 -24.495879436579187 -7.356174453706301 -24.689896633788056 -7.335607794735387 -24.89383345964051 -7.316334231508079 -25.055036658943997 A26.101410667070837 26.101410667070837 0 0 1 -6.853020271581208 -25.185704709724952 L-6.752358417199694 -25.05832679649965 -6.628265758913887 -24.89518811758027 -6.513699427258332 -24.737845713407108 -6.407872536075327 -24.585892017820132 -6.312215489811777 -24.44224369725865 -6.224833538349848 -24.304877160363 -6.144905164611902 -24.173197756234607 -6.090552679369899 -24.080196458673676 -6.070704601961717 -24.05278244905817 -6.052603388091669 -24.036714124427682 -6.044358427614364 -24.03291387091934 -6.036732502381666 -24.031906267651525 -5.973918987354055 -24.047336119558665 -5.784348911333483 -24.093547190500097 -5.594461349618066 -24.138435838349793 -5.531489091743033 -24.153204478711057 -5.525151784918821 -24.15756435740384 -5.519530750331255 -24.164693541800766 -5.5106973174062865 -24.187228303010066 -5.505458250868208 -24.22066520301305 -5.4992515374678455 -24.328205477834928 -5.487816033485225 -24.48181940835122 -5.472321247369081 -24.64388446474283 -5.452305167902122 -24.815303445788604 -5.426998251620296 -24.99873958314519 -5.396350859363663 -25.19094471795659 -5.35984690159659 -25.392639233170414 -5.327984895086697 -25.551833310467032 A26.101410667070837 26.101410667070837 0 0 1 -4.855847080370269 -25.64574736092173 L-4.765489488778975 -25.510864273223618 -4.654579079971081 -25.33849229865099 -4.552710860832511 -25.172646157816974 -4.459132348185343 -25.012857802575603 -4.375040698005576 -24.86214713649637 -4.298705770205849 -24.718348145895572 -4.229355235943288 -24.580803557497852 -4.182467098982207 -24.483824505057036 -4.16483108497742 -24.454937741478833 -4.14804637732913 -24.437498745258825 -4.14012499776716 -24.433063314520417 -4.132601636358175 -24.431460494159364 -4.068771142206596 -24.44191448939397 -3.8761597686259 -24.473109610284222 -3.6833356441727494 -24.502961475031267 -3.619398774584942 -24.512743842194265 -3.6127389314229803 -24.5165930614733 -3.606575875248063 -24.523259247683182 -3.596001615861869 -24.5450314785848 -3.5881552706793007 -24.577954251361042 -3.573530177788116 -24.684676042284565 -3.550077515568359 -24.836919213017463 -3.5219150169331206 -24.997268970019523 -3.4885112621156895 -25.166589080059936 -3.4488901251501973 -25.347474187256633 -3.40325696750429 -25.536682251099762 -3.3510407699794906 -25.73489094191843 -3.30678676005234 -25.891094412784234 A26.101410667070837 26.101410667070837 0 0 1 -2.8287359771758376 -25.947675451562045 L-2.749239732973872 -25.80611878847995 -2.652195373195647 -25.625576248796822 -2.5636533180196714 -25.45224886790962 -2.4829001265568222 -25.285611001358937 -2.4108923254475076 -25.128767171134726 -2.346075051523809 -24.97942229542384 -2.2877299258417514 -24.83686053088248 -2.248595218117847 -24.73650163166889 -2.233279999407365 -24.706320210631265 -2.217915281284964 -24.687618060032495 -2.2103663205774557 -24.68257479796946 -2.2029919070170427 -24.68038664243568 -2.138537969963732 -24.685800328640823 -1.9440728119908188 -24.70178717118618 -1.7495009496477159 -24.716418206157655 -1.6849936604093096 -24.721153988575864 -1.678052341057315 -24.724468816724297 -1.6713852605857882 -24.730630905492415 -1.659135368563782 -24.751506373042847 -1.648730120063949 -24.78371203875025 -1.6257768162429544 -24.88895737044577 -1.5904515892474473 -25.038891151621716 -1.5497950092621808 -25.19653699966061 -1.503209524350603 -25.362714323912606 -1.4495184441862021 -25.53993318411315 -1.3891808647424724 -25.72497764635634 -1.3215743576813344 -25.91847849028988 -1.2652011850240776 -26.070728308384066 A26.101410667070837 26.101410667070837 0 0 1 -0.7841847760319515 -26.08962749456581 L-0.7160400000000032 -25.94227 -0.6334600000000031 -25.75467 -0.5587900000000031 -25.57493 -0.4913600000000031 -25.40247 -0.4318800000000031 -25.24046 -0.37898000000000304 -25.08649 -0.33200000000000307 -24.93979 -0.30086000000000307 -24.83667 -0.28796000000000305 -24.80538 -0.2741100000000031 -24.78553 -0.26698000000000305 -24.77991 -0.25980000000000303 -24.77715 -0.195120000000003 -24.77749 -3.0344506579228974e-15 -24.77817 0.19511999999999696 -24.77749 0.2597999999999969 -24.77715 0.26697999999999694 -24.77991 0.27410999999999697 -24.78553 0.28795999999999694 -24.80538 0.30085999999999696 -24.83667 0.33199999999999696 -24.93979 0.37897999999999693 -25.08649 0.4318799999999969 -25.24046 0.4913599999999969 -25.40247 0.5587899999999969 -25.57493 0.6334599999999969 -25.75467 0.7160399999999968 -25.94227 0.784184776031945 -26.08962749456581 A26.101410667070837 26.101410667070837 0 0 1 1.265201185024071 -26.070728308384066 L1.3215743576813281 -25.91847849028988 1.3891808647424657 -25.72497764635634 1.4495184441861955 -25.539933184113146 1.5032095243505963 -25.362714323912606 1.5497950092621746 -25.19653699966061 1.5904515892474411 -25.038891151621716 1.6257768162429482 -24.88895737044577 1.6487301200639428 -24.78371203875025 1.6591353685637757 -24.751506373042847 1.671385260585782 -24.730630905492415 1.6780523410573087 -24.724468816724297 1.6849936604093034 -24.721153988575864 1.7495009496477096 -24.716418206157655 1.9440728119908126 -24.70178717118618 2.1385379699637257 -24.685800328640823 2.2029919070170365 -24.68038664243568 2.2103663205774495 -24.68257479796946 2.2179152812849576 -24.687618060032495 2.2332799994073587 -24.706320210631265 2.2485952181178406 -24.73650163166889 2.287729925841745 -24.83686053088248 2.346075051523803 -24.97942229542384 2.4108923254475014 -25.128767171134726 2.482900126556816 -25.285611001358937 2.5636533180196643 -25.452248867909624 2.6521953731956405 -25.625576248796822 2.749239732973866 -25.80611878847995 2.828735977175831 -25.947675451562045 A26.101410667070837 26.101410667070837 0 0 1 3.306786760052333 -25.891094412784238 L3.3510407699794844 -25.73489094191843 3.4032569675042836 -25.536682251099762 3.448890125150191 -25.347474187256633 3.488511262115683 -25.166589080059936 3.5219150169331135 -24.997268970019526 3.550077515568353 -24.836919213017463 3.57353017778811 -24.684676042284565 3.5881552706792945 -24.577954251361046 3.5960016158618626 -24.5450314785848 3.6065758752480566 -24.523259247683185 3.612738931422974 -24.516593061473305 3.6193987745849356 -24.51274384219427 3.683335644172743 -24.50296147503127 3.876159768625894 -24.473109610284226 4.0687711422065895 -24.441914489393973 4.132601636358169 -24.431460494159367 4.1401249977671535 -24.43306331452042 4.148046377329123 -24.43749874525883 4.164831084977415 -24.454937741478833 4.182467098982201 -24.48382450505704 4.229355235943282 -24.580803557497852 4.298705770205843 -24.718348145895572 4.37504069800557 -24.862147136496375 4.459132348185337 -25.012857802575603 4.552710860832505 -25.172646157816974 4.654579079971075 -25.33849229865099 4.76548948877897 -25.510864273223618 4.855847080370262 -25.645747360921735 A26.101410667070837 26.101410667070837 0 0 1 5.327984895086691 -25.551833310467035 L5.359846901596583 -25.392639233170417 5.396350859363656 -25.190944717956594 5.426998251620289 -24.998739583145195 5.452305167902116 -24.815303445788608 5.472321247369074 -24.64388446474283 5.487816033485218 -24.481819408351225 5.499251537467839 -24.32820547783493 5.505458250868202 -24.220665203013052 5.51069731740628 -24.18722830301007 5.519530750331249 -24.16469354180077 5.5251517849188145 -24.157564357403842 5.531489091743027 -24.153204478711057 5.59446134961806 -24.138435838349793 5.784348911333477 -24.0935471905001 5.973918987354049 -24.047336119558665 6.03673250238166 -24.031906267651532 6.044358427614358 -24.032913870919344 6.052603388091663 -24.036714124427686 6.070704601961711 -24.052782449058174 6.0905526793698925 -24.08019645867368 6.144905164611896 -24.17319775623461 6.2248335383498405 -24.304877160363002 6.312215489811772 -24.44224369725865 6.40787253607532 -24.585892017820136 6.513699427258325 -24.73784571340711 6.62826575891388 -24.895188117580272 6.752358417199689 -25.058326796499653 6.853020271581202 -25.185704709724956 A26.101410667070837 26.101410667070837 0 0 1 7.3163342315080735 -25.055036658944 L7.335607794735382 -24.893833459640515 7.356174453706296 -24.68989663378806 7.3716471292091015 -24.49587943657919 7.382483799252981 -24.311023213848227 7.38898879758353 -24.138562216817824 7.391720340671634 -23.97578104600143 7.391068182732376 -23.82174343666519 7.388818250189862 -23.7140476995 7.391417737496077 -23.68030282187769 7.398455882908423 -23.657144464657136 7.403500240361221 -23.649596235865662 7.409475939243744 -23.644752577861077 7.471095340495802 -23.625088717880445 7.656875619511488 -23.565440040369086 7.8422356354148235 -23.504497925995565 7.903644905110705 -23.484187347583855 7.9113263778021805 -23.48459352154922 7.919844086271753 -23.487735168000903 7.939150206360782 -23.50233375447727 7.961087977174982 -23.528105993644708 8.022569709552357 -23.616556152400225 8.112583137762709 -23.741558524944992 8.210473374098632 -23.87164569775652 8.317106058946553 -24.007346033136077 8.434528870690238 -24.150528224005637 8.561086975330952 -24.29839682327455 8.697596810591346 -24.451296402336038 8.807942313957353 -24.570383813896033 A26.101410667070837 26.101410667070837 0 0 1 9.259575934464195 -24.403767374773434 L9.266142226482513 -24.24154892479228 9.270644786365605 -24.036627126648455 9.270847350924921 -23.841994047580172 9.267146963056474 -23.6568574395589 9.260100774772775 -23.48441770593967 9.250052233961371 -23.321924020746795 9.237316434870792 -23.168412425674877 9.226623727967706 -23.061225206198465 9.226567609338398 -23.027380399348676 9.231767074731232 -23.00374122509007 9.236203654908147 -22.995820489244593 9.241780903678247 -22.99052291469048 9.301667544208083 -22.96608506932616 9.482195143325693 -22.89204411608519 9.662202292975287 -22.81674668668001 9.721828708771113 -22.79168060323358 9.729518370087872 -22.79148284369893 9.738256312044571 -22.793946513798883 9.758648309702297 -22.80698535698097 9.782540520270398 -22.830956931275743 9.850772444458286 -22.914310626584456 9.950315964423625 -23.03186528635135 10.058110959774725 -23.1538710644 10.175061857245966 -23.280786776905078 10.303356638868884 -23.414314697237593 10.441126243694804 -23.551797832516478 10.589211627401278 -23.693515634970883 10.708560463029922 -23.803578331372723 A26.101410667070837 26.101410667070837 0 0 1 11.14572927266289 -23.60204074966125 L11.139547810098412 -23.439807179689677 11.127958511114748 -23.235163820283447 11.112889715852706 -23.041114837010277 11.094675084193648 -22.856839272451314 11.074121151389566 -22.68548395054305 11.051354479274234 -22.52427957857754 11.02661355946881 -22.372240447801346 11.007544002298896 -22.266222590865155 11.004832623724075 -22.232486519276655 11.008161352664253 -22.208512271350127 11.01196280257318 -22.200267862421043 11.017107215637571 -22.194549032626153 11.074891874391986 -22.165487869321222 11.249053780931444 -22.077511127448492 11.422598260391256 -21.988322616702863 11.480074205605847 -21.958655568961486 11.487724646228802 -21.957855095180115 11.4966289493548 -21.95962559958291 11.51798110113464 -21.971024310666657 11.54368044803352 -21.993047427361873 11.618241891529888 -22.070790755974286 11.726701784348048 -22.180172939394957 11.843736946722512 -22.293345116488016 11.97028501564404 -22.41069372854727 12.108660787155141 -22.533744134311355 12.256792496739475 -22.659994176353422 12.415540433258089 -22.789656464822666 12.54315677589021 -22.890015872943472 A26.101410667070837 26.101410667070837 0 0 1 12.96316548356453 -22.65479969485243 L12.94427437718951 -22.493551228797447 12.916664671221158 -22.290448002490376 12.886417420271433 -22.09817949152203 12.853800844082919 -21.915901090558727 12.819865888589069 -21.746686642902418 12.784521449274088 -21.587765462723343 12.74792794475161 -21.43813616804224 12.72059910747609 -21.333941308988795 12.715249185506295 -21.300521966761316 12.716686655272987 -21.276360454377578 12.719829537711128 -21.26784320188748 12.724509398052575 -21.2617383753392 12.779835813395001 -21.228233065829254 12.946558261287779 -21.12686294119364 13.112570111132543 -21.0243332259345 13.167541227450961 -20.990248121112792 13.17510527986964 -20.98884986827175 13.18412104617519 -20.989916291228997 13.206301708961103 -20.99960459337011 13.233649747171235 -21.019543472627912 13.314081013882728 -21.09119712107085 13.430788588247914 -21.191732450611244 13.556342356951559 -21.295373282643368 13.691707386396974 -21.40243130104107 13.839311015150281 -21.514245545566776 13.996891548244646 -21.628484120880447 14.165323303757718 -21.74529148423903 14.300420356204246 -21.835328854954845 A26.101410667070837 26.101410667070837 0 0 1 14.700679468570048 -21.567884266439478 L14.669195188337218 -21.408615054714872 14.625735298402633 -21.20830416043582 14.58049607612556 -21.019001521078184 14.533678647445903 -20.8398440906662 14.48657188954742 -20.673813780601158 14.438867593254384 -20.518155594130977 14.390647115138812 -20.371858649903473 14.35522748912725 -20.27012918468714 14.347272007810455 -20.237232613178577 14.346809355924544 -20.21303280009598 14.349274293976553 -20.20429521573875 14.353460748699836 -20.197842030722814 14.405987814881788 -20.160099146382624 14.564242904795787 -20.04596061951149 14.721698606766667 -19.930721829528007 14.77382597897706 -19.892428813631643 14.781257008293 -19.89044140242466 14.790328652580778 -19.890797169084202 14.813201075210875 -19.898715330678293 14.842029194982542 -19.916447042677714 14.927834399403778 -19.98156924238127 15.05207011431082 -20.072637884303372 15.185368408608724 -20.16610839108101 15.328715828158053 -20.262215767533345 15.484637288699112 -20.362104478821163 15.65069510891614 -20.46362726860144 15.827772245641691 -20.566859550611866 15.969517089649965 -20.646019773591767 A26.101410667070837 26.101410667070837 0 0 1 16.347558876179843 -20.347995659474623 L16.303675533146425 -20.191687649733062 16.244633403918936 -19.99540407075539 16.18468112516342 -19.810234416729624 16.123951489008807 -19.63530252200334 16.063963357532725 -19.4734799816018 16.004193317111568 -19.322044473321697 15.944643160685416 -19.179981848857615 15.901351119710396 -19.08134497345994 15.890839127234385 -19.049173990972857 15.888479206098589 -19.025085077086324 15.890251002601703 -19.01618103097506 15.89391824082132 -19.00941927352299 15.943322111012762 -18.9676715117853 16.092134147693503 -18.84146828465172 16.24006293502852 -18.71423090540493 16.289025180547096 -18.67196606761063 16.296277371993497 -18.669401751088675 16.305348964559837 -18.66904466803075 16.328772130942756 -18.67514387097854 16.358902597331248 -18.690559093818706 16.449552721843837 -18.748748344766376 16.58055062279777 -18.829788830609353 16.720771614379405 -18.91251273537612 16.87121763952327 -18.997076935948304 17.0344956241987 -19.084424266876777 17.208006929856925 -19.172605349364915 17.39263770836292 -19.261626088680373 17.54015643983468 -19.329421114826243 A26.101410667070837 26.101410667070837 0 0 1 17.893650147203036 -19.002654892873927 L17.83763829677152 -18.850271775973155 17.76337794261131 -18.659225665832174 17.689082233112035 -18.479330629630503 17.614814807884017 -18.309702783891662 17.542315149608957 -18.153085702926656 17.470847867234433 -18.006806523102597 17.400335179014508 -17.869854081722384 17.349437632904706 -17.774917925280278 17.336433939198685 -17.743670876619642 17.332191298511564 -17.71984137809366 17.333259029751154 -17.71082576663353 17.336384441723997 -17.703797125228537 17.38236052463675 -17.658301874926995 17.520812032393074 -17.52081203239308 17.658301874926988 -17.382360524636756 17.70379712522853 -17.336384441724004 17.710825766633526 -17.333259029751158 17.71984137809365 -17.33219129851157 17.74367087661964 -17.336433939198688 17.774917925280274 -17.34943763290471 17.869854081722377 -17.400335179014515 18.00680652310259 -17.47084786723444 18.15308570292665 -17.542315149608964 18.30970278389166 -17.61481480788402 18.4793306296305 -17.68908223311204 18.65922566583217 -17.763377942611314 18.85027177597315 -17.837638296771523 19.002654892873924 -17.89365014720304 A26.101410667070837 26.101410667070837 0 0 1 19.329421114826232 -17.540156439834693 L19.261626088680362 -17.392637708362933 19.172605349364904 -17.20800692985694 19.084424266876766 -17.034495624198716 18.997076935948293 -16.871217639523284 18.912512735376108 -16.72077161437942 18.829788830609342 -16.58055062279778 18.748748344766362 -16.44955272184385 18.690559093818695 -16.358902597331262 18.675143870978527 -16.328772130942767 18.66904466803074 -16.30534896455985 18.669401751088664 -16.296277371993508 18.671966067610615 -16.28902518054711 18.714230905404914 -16.240062935028533 18.84146828465171 -16.092134147693518 18.967671511785287 -15.943322111012776 19.009419273522976 -15.893918240821334 19.016181030975048 -15.890251002601717 19.025085077086313 -15.888479206098603 19.049173990972843 -15.890839127234399 19.08134497345993 -15.90135111971041 19.179981848857608 -15.94464316068543 19.322044473321686 -16.00419331711158 19.473479981601788 -16.06396335753274 19.63530252200333 -16.12395148900882 19.810234416729614 -16.184681125163433 19.99540407075538 -16.24463340391895 20.19168764973305 -16.30367553314644 20.347995659474613 -16.347558876179857 A26.101410667070837 26.101410667070837 0 0 1 20.646019773591764 -15.969517089649969 L20.566859550611863 -15.827772245641697 20.463627268601435 -15.650695108916146 20.36210447882116 -15.484637288699119 20.26221576753334 -15.328715828158058 20.166108391081007 -15.185368408608731 20.072637884303372 -15.052070114310826 19.981569242381266 -14.927834399403784 19.916447042677714 -14.84202919498255 19.89871533067829 -14.81320107521088 19.890797169084202 -14.790328652580783 19.890441402424656 -14.781257008293005 19.89242881363164 -14.773825978977065 19.930721829528007 -14.721698606766672 20.04596061951149 -14.564242904795792 20.160099146382624 -14.405987814881794 20.19784203072281 -14.353460748699842 20.204295215738746 -14.349274293976558 20.21303280009598 -14.346809355924549 20.237232613178573 -14.34727200781046 20.27012918468714 -14.355227489127257 20.37185864990347 -14.390647115138817 20.518155594130977 -14.43886759325439 20.673813780601154 -14.486571889547427 20.839844090666197 -14.533678647445909 21.01900152107818 -14.580496076125566 21.208304160435816 -14.625735298402638 21.40861505471487 -14.669195188337223 21.567884266439474 -14.700679468570055 A26.101410667070837 26.101410667070837 0 0 1 21.83532885495485 -14.300420356204244 L21.745291484239033 -14.165323303757717 21.62848412088045 -13.996891548244644 21.51424554556678 -13.839311015150278 21.402431301041073 -13.69170738639697 21.295373282643368 -13.556342356951555 21.191732450611248 -13.43078858824791 21.091197121070852 -13.314081013882726 21.019543472627916 -13.233649747171231 20.999604593370112 -13.206301708961101 20.989916291228997 -13.184121046175187 20.988849868271753 -13.175105279869639 20.990248121112796 -13.167541227450958 21.024333225934505 -13.11257011113254 21.12686294119364 -12.946558261287775 21.228233065829258 -12.779835813394998 21.261738375339203 -12.724509398052572 21.267843201887484 -12.719829537711126 21.276360454377578 -12.716686655272985 21.30052196676132 -12.715249185506293 21.3339413089888 -12.720599107476087 21.438136168042245 -12.747927944751607 21.587765462723347 -12.784521449274084 21.746686642902418 -12.819865888589066 21.91590109055873 -12.853800844082915 22.098179491522032 -12.88641742027143 22.29044800249038 -12.916664671221156 22.49355122879745 -12.944274377189508 22.654799694852432 -12.963165483564529 A26.101410667070837 26.101410667070837 0 0 1 22.89001587294347 -12.543156775890216 L22.789656464822663 -12.415540433258094 22.65999417635342 -12.25679249673948 22.533744134311352 -12.108660787155147 22.410693728547265 -11.970285015644045 22.293345116488013 -11.843736946722517 22.180172939394957 -11.726701784348053 22.070790755974283 -11.618241891529893 21.99304742736187 -11.543680448033525 21.971024310666653 -11.517981101134644 21.959625599582907 -11.496628949354808 21.957855095180115 -11.487724646228807 21.958655568961483 -11.480074205605852 21.988322616702863 -11.422598260391261 22.07751112744849 -11.24905378093145 22.165487869321222 -11.07489187439199 22.19454903262615 -11.017107215637576 22.200267862421043 -11.011962802573185 22.208512271350124 -11.00816135266426 22.23248651927665 -11.00483262372408 22.26622259086515 -11.007544002298902 22.372240447801342 -11.026613559468815 22.52427957857754 -11.05135447927424 22.685483950543045 -11.074121151389571 22.85683927245131 -11.094675084193653 23.041114837010273 -11.112889715852711 23.235163820283443 -11.127958511114754 23.439807179689673 -11.139547810098417 23.602040749661246 -11.145729272662896 A26.101410667070837 26.101410667070837 0 0 1 23.803578331372712 -10.70856046302994 L23.693515634970876 -10.589211627401292 23.551797832516467 -10.441126243694821 23.414314697237586 -10.3033566388689 23.28078677690507 -10.175061857245982 23.15387106439999 -10.058110959774742 23.031865286351344 -9.950315964423643 22.914310626584445 -9.850772444458302 22.830956931275736 -9.782540520270414 22.806985356980963 -9.758648309702314 22.793946513798875 -9.738256312044587 22.791482843698923 -9.729518370087888 22.791680603233573 -9.721828708771131 22.816746686680002 -9.662202292975305 22.892044116085184 -9.48219514332571 22.96608506932615 -9.301667544208101 22.990522914690473 -9.241780903678265 22.995820489244586 -9.236203654908163 23.003741225090064 -9.231767074731248 23.02738039934867 -9.226567609338415 23.061225206198458 -9.226623727967722 23.168412425674866 -9.237316434870808 23.32192402074679 -9.250052233961389 23.48441770593966 -9.260100774772793 23.656857439558895 -9.26714696305649 23.841994047580165 -9.270847350924937 24.036627126648444 -9.270644786365622 24.241548924792273 -9.26614222648253 24.403767374773423 -9.259575934464213 A26.101410667070837 26.101410667070837 0 0 1 24.57038381389603 -8.80794231395736 L24.451296402336034 -8.697596810591353 24.298396823274548 -8.561086975330959 24.150528224005633 -8.434528870690245 24.007346033136074 -8.31710605894656 23.871645697756517 -8.210473374098639 23.74155852494499 -8.112583137762716 23.61655615240022 -8.022569709552364 23.528105993644708 -7.961087977174989 23.502333754477267 -7.9391502063607895 23.487735168000903 -7.919844086271759 23.48459352154922 -7.911326377802187 23.484187347583852 -7.9036449051107125 23.504497925995565 -7.842235635414831 23.565440040369083 -7.656875619511494 23.625088717880445 -7.471095340495809 23.644752577861073 -7.409475939243751 23.649596235865662 -7.403500240361227 23.657144464657136 -7.398455882908429 23.680302821877685 -7.391417737496084 23.7140476995 -7.388818250189869 23.821743436665187 -7.391068182732382 23.975781046001426 -7.391720340671641 24.13856221681782 -7.388988797583537 24.311023213848223 -7.382483799252988 24.495879436579187 -7.371647129209109 24.689896633788056 -7.356174453706303 24.89383345964051 -7.335607794735389 25.055036658943997 -7.316334231508081 A26.101410667070837 26.101410667070837 0 0 1 25.185704709724956 -6.853020271581198 L25.058326796499653 -6.7523584171996855 24.895188117580272 -6.6282657589138765 24.73784571340711 -6.513699427258321 24.585892017820136 -6.407872536075317 24.44224369725865 -6.312215489811768 24.304877160363002 -6.224833538349838 24.17319775623461 -6.144905164611893 24.08019645867368 -6.090552679369889 24.052782449058174 -6.070704601961707 24.036714124427686 -6.05260338809166 24.032913870919344 -6.0443584276143545 24.031906267651532 -6.036732502381656 24.047336119558665 -5.973918987354046 24.0935471905001 -5.784348911333473 24.138435838349793 -5.594461349618057 24.153204478711057 -5.5314890917430235 24.157564357403842 -5.525151784918811 24.16469354180077 -5.519530750331246 24.18722830301007 -5.510697317406277 24.220665203013052 -5.505458250868198 24.32820547783493 -5.499251537467836 24.481819408351225 -5.487816033485215 24.64388446474283 -5.47232124736907 24.815303445788608 -5.452305167902113 24.998739583145195 -5.426998251620286 25.190944717956594 -5.396350859363652 25.392639233170417 -5.35984690159658 25.551833310467035 -5.327984895086687 A26.101410667070837 26.101410667070837 0 0 1 25.64574736092173 -4.85584708037027 L25.510864273223618 -4.765489488778977 25.33849229865099 -4.654579079971083 25.172646157816974 -4.552710860832513 25.012857802575603 -4.459132348185345 24.86214713649637 -4.375040698005578 24.718348145895572 -4.298705770205851 24.580803557497852 -4.229355235943289 24.483824505057036 -4.182467098982208 24.454937741478833 -4.164831084977422 24.437498745258825 -4.148046377329131 24.433063314520417 -4.1401249977671615 24.431460494159364 -4.132601636358177 24.44191448939397 -4.0687711422065975 24.473109610284222 -3.8761597686259015 24.502961475031267 -3.6833356441727507 24.512743842194265 -3.619398774584943 24.5165930614733 -3.6127389314229816 24.523259247683182 -3.6065758752480646 24.5450314785848 -3.59600161586187 24.577954251361042 -3.588155270679302 24.684676042284565 -3.5735301777881174 24.836919213017463 -3.5500775155683604 24.997268970019523 -3.5219150169331215 25.166589080059936 -3.488511262115691 25.347474187256633 -3.448890125150199 25.536682251099762 -3.4032569675042916 25.73489094191843 -3.3510407699794924 25.891094412784234 -3.306786760052341 A26.101410667070837 26.101410667070837 0 0 1 25.947675451562045 -2.8287359771758505 L25.806118788479946 -2.749239732973885 25.62557624879682 -2.65219537319566 25.45224886790962 -2.563653318019684 25.285611001358937 -2.482900126556835 25.128767171134726 -2.41089232544752 24.979422295423838 -2.3460750515238216 24.83686053088248 -2.287729925841764 24.73650163166889 -2.2485952181178592 24.706320210631265 -2.2332799994073773 24.687618060032495 -2.2179152812849763 24.68257479796946 -2.210366320577468 24.68038664243568 -2.202991907017055 24.685800328640823 -2.1385379699637443 24.70178717118618 -1.9440728119908313 24.716418206157655 -1.7495009496477283 24.721153988575864 -1.684993660409322 24.724468816724297 -1.6780523410573274 24.730630905492415 -1.6713852605858006 24.751506373042847 -1.6591353685637944 24.78371203875025 -1.6487301200639615 24.88895737044577 -1.6257768162429669 25.03889115162172 -1.5904515892474598 25.19653699966061 -1.5497950092621937 25.362714323912606 -1.5032095243506154 25.53993318411315 -1.4495184441862146 25.724977646356344 -1.3891808647424853 25.918478490289882 -1.3215743576813472 26.070728308384066 -1.2652011850240905 A26.101410667070837 26.101410667070837 0 0 1 26.08962749456581 -0.784184776031953 L25.94227 -0.7160400000000048 25.75467 -0.6334600000000048 25.57493 -0.5587900000000047 25.40247 -0.4913600000000047 25.24046 -0.43188000000000465 25.08649 -0.3789800000000046 24.93979 -0.3320000000000046 24.83667 -0.30086000000000457 24.80538 -0.28796000000000455 24.78553 -0.27411000000000457 24.77991 -0.26698000000000455 24.77715 -0.2598000000000045 24.77749 -0.19512000000000454 24.77817 -4.5516759868843455e-15 24.77749 0.19511999999999544 24.77715 0.2597999999999954 24.77991 0.26697999999999544 24.78553 0.27410999999999547 24.80538 0.28795999999999544 24.83667 0.30085999999999546 24.93979 0.3319999999999954 25.08649 0.3789799999999954 25.24046 0.4318799999999953 25.40247 0.49135999999999536 25.57493 0.5587899999999953 25.75467 0.6334599999999952 25.94227 0.7160399999999952 26.08962749456581 0.7841847760319435 A26.101410667070837 26.101410667070837 0 0 1 26.070728308384066 1.2652011850240812 L25.918478490289882 1.321574357681338 25.724977646356344 1.389180864742476 25.53993318411315 1.4495184441862057 25.362714323912606 1.5032095243506065 25.19653699966061 1.5497950092621844 25.038891151621716 1.590451589247451 24.88895737044577 1.625776816242958 24.78371203875025 1.6487301200639524 24.751506373042847 1.6591353685637853 24.730630905492415 1.6713852605857915 24.724468816724297 1.6780523410573185 24.721153988575864 1.6849936604093132 24.716418206157655 1.7495009496477194 24.70178717118618 1.9440728119908222 24.685800328640823 2.1385379699637355 24.68038664243568 2.2029919070170463 24.68257479796946 2.2103663205774593 24.687618060032495 2.217915281284967 24.706320210631265 2.2332799994073684 24.73650163166889 2.24859521811785 24.83686053088248 2.287729925841755 24.97942229542384 2.3460750515238127 25.128767171134726 2.410892325447511 25.285611001358937 2.482900126556826 25.45224886790962 2.563653318019675 25.62557624879682 2.6521953731956507 25.806118788479946 2.7492397329738756 25.947675451562045 2.828735977175841 A26.101410667070837 26.101410667070837 0 0 1 25.891094412784238 3.306786760052332 L25.73489094191843 3.3510407699794826 25.536682251099762 3.403256967504282 25.347474187256633 3.4488901251501893 25.166589080059936 3.4885112621156815 24.997268970019526 3.5219150169331126 24.836919213017463 3.550077515568351 24.684676042284565 3.5735301777881086 24.577954251361046 3.588155270679293 24.5450314785848 3.5960016158618613 24.523259247683185 3.6065758752480552 24.516593061473305 3.6127389314229728 24.51274384219427 3.6193987745849343 24.50296147503127 3.683335644172742 24.473109610284226 3.876159768625892 24.441914489393973 4.068771142206589 24.431460494159367 4.132601636358168 24.43306331452042 4.140124997767153 24.43749874525883 4.148046377329122 24.454937741478833 4.164831084977413 24.48382450505704 4.182467098982199 24.580803557497852 4.22935523594328 24.718348145895572 4.298705770205841 24.862147136496375 4.375040698005568 25.012857802575603 4.459132348185335 25.172646157816974 4.552710860832503 25.33849229865099 4.654579079971073 25.510864273223618 4.765489488778968 25.645747360921735 4.855847080370261 A26.101410667070837 26.101410667070837 0 0 1 25.551833310467035 5.3279848950866775 L25.39263923317042 5.359846901596571 25.190944717956597 5.396350859363643 24.998739583145195 5.426998251620277 24.815303445788608 5.452305167902104 24.643884464742833 5.472321247369061 24.481819408351228 5.487816033485205 24.328205477834935 5.499251537467827 24.220665203013056 5.505458250868189 24.18722830301007 5.510697317406268 24.164693541800773 5.519530750331237 24.157564357403846 5.525151784918802 24.153204478711057 5.531489091743015 24.138435838349796 5.594461349618048 24.093547190500104 5.784348911333464 24.04733611955867 5.973918987354037 24.031906267651532 6.036732502381647 24.032913870919348 6.044358427614346 24.03671412442769 6.052603388091651 24.052782449058174 6.070704601961698 24.080196458673683 6.09055267936988 24.173197756234615 6.144905164611884 24.304877160363006 6.224833538349828 24.442243697258654 6.312215489811759 24.585892017820136 6.407872536075308 24.73784571340711 6.513699427258312 24.895188117580275 6.628265758913868 25.058326796499657 6.752358417199675 25.185704709724956 6.8530202715811885 A26.101410667070837 26.101410667070837 0 0 1 25.055036658944 7.316334231508072 L24.893833459640515 7.33560779473538 24.68989663378806 7.356174453706294 24.49587943657919 7.3716471292091 24.311023213848227 7.382483799252979 24.138562216817824 7.388988797583529 23.97578104600143 7.391720340671633 23.82174343666519 7.391068182732374 23.7140476995 7.388818250189861 23.68030282187769 7.3914177374960754 23.657144464657136 7.398455882908421 23.649596235865662 7.403500240361219 23.644752577861077 7.409475939243743 23.625088717880445 7.4710953404958005 23.565440040369086 7.656875619511486 23.504497925995565 7.842235635414822 23.484187347583855 7.9036449051107045 23.48459352154922 7.911326377802179 23.487735168000903 7.919844086271751 23.50233375447727 7.939150206360781 23.528105993644708 7.961087977174981 23.616556152400225 8.022569709552355 23.741558524944992 8.112583137762709 23.87164569775652 8.210473374098632 24.007346033136077 8.317106058946553 24.150528224005637 8.434528870690238 24.29839682327455 8.56108697533095 24.451296402336038 8.697596810591344 24.570383813896033 8.807942313957351 A26.101410667070837 26.101410667070837 0 0 1 24.403767374773427 9.259575934464204 L24.241548924792276 9.266142226482522 24.036627126648447 9.270644786365613 23.84199404758017 9.27084735092493 23.656857439558895 9.267146963056483 23.484417705939663 9.260100774772784 23.32192402074679 9.25005223396138 23.16841242567487 9.2373164348708 23.06122520619846 9.226623727967715 23.027380399348672 9.226567609338407 23.003741225090064 9.23176707473124 22.99582048924459 9.236203654908156 22.990522914690473 9.241780903678256 22.966085069326155 9.301667544208092 22.892044116085188 9.482195143325702 22.816746686680005 9.662202292975296 22.791680603233573 9.721828708771122 22.791482843698926 9.729518370087881 22.793946513798875 9.738256312044578 22.806985356980967 9.758648309702306 22.83095693127574 9.782540520270407 22.91431062658445 9.850772444458295 23.031865286351344 9.950315964423634 23.153871064399993 10.058110959774734 23.28078677690507 10.175061857245975 23.41431469723759 10.303356638868893 23.55179783251647 10.441126243694812 23.69351563497088 10.589211627401287 23.803578331372716 10.708560463029931 A26.101410667070837 26.101410667070837 0 0 1 23.602040749661253 11.145729272662889 L23.43980717968968 11.13954781009841 23.23516382028345 11.127958511114747 23.041114837010277 11.112889715852704 22.856839272451317 11.094675084193646 22.685483950543052 11.074121151389564 22.524279578577545 11.051354479274233 22.372240447801346 11.026613559468808 22.266222590865155 11.007544002298895 22.23248651927666 11.004832623724074 22.20851227135013 11.008161352664253 22.200267862421047 11.011962802573178 22.194549032626156 11.01710721563757 22.165487869321225 11.074891874391984 22.077511127448496 11.249053780931442 21.988322616702867 11.422598260391254 21.95865556896149 11.480074205605845 21.95785509518012 11.4877246462288 21.959625599582914 11.4966289493548 21.97102431066666 11.517981101134637 21.993047427361873 11.543680448033518 22.070790755974286 11.618241891529886 22.18017293939496 11.726701784348046 22.29334511648802 11.84373694672251 22.410693728547272 11.970285015644038 22.533744134311355 12.10866078715514 22.659994176353425 12.256792496739473 22.78965646482267 12.415540433258087 22.890015872943476 12.543156775890209 A26.101410667070837 26.101410667070837 0 0 1 22.654799694852436 12.963165483564522 L22.493551228797454 12.944274377189501 22.29044800249038 12.91666467122115 22.098179491522036 12.886417420271425 21.915901090558734 12.85380084408291 21.74668664290242 12.81986588858906 21.58776546272335 12.784521449274077 21.43813616804225 12.747927944751602 21.333941308988802 12.720599107476081 21.300521966761323 12.715249185506286 21.27636045437758 12.716686655272978 21.267843201887487 12.71982953771112 21.261738375339206 12.724509398052566 21.22823306582926 12.779835813394993 21.126862941193643 12.94655826128777 21.02433322593451 13.112570111132534 20.9902481211128 13.167541227450952 20.988849868271757 13.175105279869634 20.989916291229 13.18412104617518 20.999604593370115 13.206301708961094 21.01954347262792 13.233649747171226 21.091197121070856 13.31408101388272 21.19173245061125 13.430788588247907 21.29537328264337 13.55634235695155 21.402431301041076 13.691707386396965 21.514245545566784 13.839311015150273 21.62848412088045 13.996891548244639 21.745291484239036 14.16532330375771 21.835328854954852 14.300420356204237 A26.101410667070837 26.101410667070837 0 0 1 21.56788426643948 14.700679468570044 L21.408615054714875 14.669195188337214 21.208304160435823 14.62573529840263 21.019001521078188 14.580496076125558 20.839844090666205 14.5336786474459 20.67381378060116 14.486571889547418 20.51815559413098 14.43886759325438 20.371858649903473 14.390647115138808 20.270129184687143 14.355227489127248 20.237232613178577 14.347272007810451 20.213032800095984 14.34680935592454 20.204295215738753 14.34927429397655 20.197842030722818 14.353460748699833 20.160099146382628 14.405987814881785 20.045960619511494 14.564242904795783 19.93072182952801 14.721698606766664 19.892428813631646 14.773825978977056 19.890441402424663 14.781257008292997 19.890797169084205 14.790328652580774 19.898715330678293 14.813201075210872 19.916447042677717 14.84202919498254 19.98156924238127 14.927834399403775 20.072637884303376 15.052070114310817 20.166108391081014 15.185368408608722 20.26221576753335 15.32871582815805 20.362104478821166 15.48463728869911 20.463627268601442 15.650695108916137 20.56685955061187 15.827772245641688 20.64601977359177 15.969517089649962 A26.101410667070837 26.101410667070837 0 0 1 20.34799565947462 16.347558876179853 L20.191687649733055 16.303675533146432 19.995404070755384 16.244633403918943 19.810234416729617 16.184681125163426 19.635302522003332 16.123951489008814 19.47347998160179 16.06396335753273 19.32204447332169 16.004193317111575 19.17998184885761 15.944643160685427 19.081344973459938 15.901351119710403 19.04917399097285 15.890839127234392 19.02508507708632 15.8884792060986 19.01618103097505 15.89025100260171 19.009419273522983 15.893918240821327 18.967671511785294 15.943322111012769 18.841468284651715 16.09213414769351 18.71423090540492 16.240062935028526 18.671966067610622 16.289025180547103 18.669401751088667 16.2962773719935 18.669044668030747 16.305348964559848 18.675143870978534 16.32877213094276 18.690559093818703 16.358902597331255 18.748748344766373 16.449552721843848 18.829788830609345 16.580550622797777 18.91251273537611 16.720771614379412 18.997076935948296 16.871217639523277 19.08442426687677 17.03449562419871 19.172605349364908 17.208006929856932 19.261626088680366 17.392637708362926 19.32942111482624 17.54015643983469 A26.101410667070837 26.101410667070837 0 0 1 19.002654892873945 17.89365014720302 L18.850271775973173 17.8376382967715 18.659225665832192 17.763377942611292 18.47933062963052 17.689082233112018 18.30970278389168 17.614814807884 18.15308570292667 17.54231514960894 18.00680652310261 17.470847867234415 17.8698540817224 17.400335179014494 17.774917925280295 17.34943763290469 17.74367087661966 17.336433939198667 17.719841378093676 17.33219129851155 17.710825766633548 17.333259029751137 17.70379712522855 17.336384441723983 17.65830187492701 17.38236052463673 17.520812032393096 17.520812032393057 17.38236052463677 17.65830187492697 17.336384441724018 17.703797125228515 17.333259029751176 17.71082576663351 17.33219129851159 17.719841378093637 17.336433939198706 17.74367087661962 17.349437632904728 17.774917925280256 17.400335179014533 17.869854081722362 17.470847867234454 18.006806523102572 17.542315149608978 18.15308570292663 17.614814807884038 18.30970278389164 17.689082233112057 18.479330629630482 17.76337794261133 18.659225665832153 17.83763829677154 18.850271775973134 17.893650147203058 19.002654892873906 A26.101410667070837 26.101410667070837 0 0 1 17.540156439834693 19.32942111482623 L17.392637708362933 19.26162608868036 17.20800692985694 19.1726053493649 17.034495624198716 19.084424266876763 16.871217639523284 18.99707693594829 16.72077161437942 18.912512735376104 16.58055062279778 18.82978883060934 16.44955272184385 18.748748344766362 16.358902597331262 18.690559093818692 16.328772130942767 18.675143870978527 16.30534896455985 18.66904466803074 16.296277371993508 18.66940175108866 16.28902518054711 18.671966067610615 16.240062935028533 18.714230905404914 16.092134147693518 18.841468284651707 15.943322111012776 18.967671511785287 15.893918240821334 19.009419273522976 15.890251002601717 19.016181030975044 15.888479206098603 19.025085077086313 15.890839127234399 19.049173990972843 15.90135111971041 19.081344973459927 15.94464316068543 19.179981848857608 16.00419331711158 19.322044473321682 16.06396335753274 19.473479981601784 16.12395148900882 19.635302522003325 16.184681125163433 19.81023441672961 16.24463340391895 19.995404070755377 16.30367553314644 20.191687649733048 16.347558876179857 20.34799565947461 A26.101410667070837 26.101410667070837 0 0 1 15.969517089649973 20.646019773591764 L15.8277722456417 20.566859550611863 15.65069510891615 20.463627268601435 15.48463728869912 20.36210447882116 15.328715828158062 20.26221576753334 15.185368408608733 20.166108391081007 15.05207011431083 20.072637884303372 14.927834399403787 19.981569242381266 14.842029194982551 19.916447042677714 14.813201075210882 19.89871533067829 14.790328652580785 19.890797169084202 14.781257008293007 19.890441402424656 14.773825978977067 19.89242881363164 14.721698606766676 19.930721829528007 14.564242904795794 20.04596061951149 14.405987814881797 20.160099146382624 14.353460748699844 20.19784203072281 14.34927429397656 20.204295215738746 14.34680935592455 20.21303280009598 14.347272007810462 20.237232613178573 14.355227489127259 20.27012918468714 14.39064711513882 20.37185864990347 14.438867593254393 20.518155594130977 14.48657188954743 20.673813780601154 14.533678647445912 20.839844090666197 14.580496076125568 21.01900152107818 14.625735298402642 21.208304160435816 14.669195188337227 21.40861505471487 14.700679468570058 21.567884266439474 A26.101410667070837 26.101410667070837 0 0 1 14.300420356204246 21.835328854954845 L14.165323303757718 21.74529148423903 13.996891548244646 21.628484120880447 13.839311015150281 21.514245545566776 13.691707386396974 21.40243130104107 13.556342356951559 21.295373282643368 13.430788588247914 21.191732450611244 13.314081013882728 21.09119712107085 13.233649747171235 21.019543472627912 13.206301708961103 20.99960459337011 13.18412104617519 20.989916291228997 13.17510527986964 20.98884986827175 13.167541227450961 20.990248121112792 13.112570111132543 21.0243332259345 12.946558261287779 21.12686294119364 12.779835813395001 21.228233065829254 12.724509398052575 21.2617383753392 12.719829537711128 21.26784320188748 12.716686655272987 21.276360454377578 12.715249185506295 21.300521966761316 12.72059910747609 21.333941308988795 12.74792794475161 21.43813616804224 12.784521449274088 21.587765462723343 12.819865888589069 21.746686642902418 12.853800844082919 21.915901090558727 12.886417420271433 22.09817949152203 12.916664671221158 22.290448002490376 12.94427437718951 22.493551228797447 12.96316548356453 22.65479969485243 A26.101410667070837 26.101410667070837 0 0 1 12.543156775890239 22.890015872943458 L12.415540433258117 22.789656464822652 12.256792496739504 22.659994176353408 12.10866078715517 22.53374413431134 11.970285015644068 22.410693728547255 11.843736946722537 22.293345116488002 11.726701784348077 22.180172939394943 11.618241891529914 22.070790755974272 11.543680448033546 21.99304742736186 11.517981101134666 21.971024310666643 11.496628949354829 21.959625599582896 11.487724646228829 21.957855095180104 11.480074205605874 21.958655568961472 11.422598260391283 21.988322616702852 11.24905378093147 22.077511127448478 11.074891874392016 22.16548786932121 11.017107215637598 22.19454903262614 11.011962802573207 22.200267862421033 11.008161352664281 22.208512271350113 11.004832623724102 22.23248651927664 11.007544002298923 22.26622259086514 11.026613559468837 22.37224044780133 11.051354479274263 22.524279578577527 11.074121151389594 22.685483950543034 11.094675084193677 22.8568392724513 11.112889715852734 23.041114837010262 11.127958511114777 23.235163820283432 11.13954781009844 23.439807179689662 11.14572927266292 23.602040749661235 A26.101410667070837 26.101410667070837 0 0 1 10.708560463029942 23.803578331372712 L10.589211627401294 23.693515634970876 10.441126243694823 23.551797832516467 10.303356638868902 23.414314697237586 10.175061857245984 23.28078677690507 10.058110959774744 23.15387106439999 9.950315964423645 23.031865286351344 9.850772444458304 22.914310626584445 9.782540520270416 22.830956931275736 9.758648309702314 22.806985356980963 9.738256312044589 22.793946513798875 9.72951837008789 22.791482843698923 9.721828708771133 22.791680603233573 9.662202292975305 22.816746686680002 9.482195143325711 22.892044116085184 9.301667544208101 22.96608506932615 9.241780903678267 22.990522914690473 9.236203654908165 22.995820489244586 9.23176707473125 23.003741225090064 9.226567609338415 23.02738039934867 9.226623727967723 23.061225206198458 9.23731643487081 23.168412425674866 9.25005223396139 23.32192402074679 9.260100774772795 23.48441770593966 9.267146963056492 23.656857439558895 9.270847350924939 23.841994047580165 9.270644786365624 24.036627126648444 9.266142226482533 24.241548924792273 9.259575934464214 24.403767374773423 A26.101410667070837 26.101410667070837 0 0 1 8.807942313957362 24.57038381389603 L8.697596810591355 24.451296402336034 8.56108697533096 24.298396823274548 8.434528870690247 24.150528224005633 8.317106058946562 24.007346033136074 8.21047337409864 23.871645697756517 8.112583137762718 23.74155852494499 8.022569709552366 23.61655615240022 7.961087977174991 23.528105993644708 7.93915020636079 23.502333754477267 7.919844086271761 23.487735168000903 7.9113263778021885 23.48459352154922 7.903644905110714 23.484187347583852 7.8422356354148315 23.504497925995565 7.656875619511496 23.565440040369083 7.47109534049581 23.625088717880445 7.409475939243753 23.644752577861073 7.403500240361229 23.649596235865662 7.398455882908431 23.657144464657136 7.391417737496085 23.680302821877685 7.388818250189871 23.7140476995 7.391068182732384 23.821743436665187 7.391720340671643 23.975781046001426 7.388988797583539 24.13856221681782 7.38248379925299 24.311023213848223 7.37164712920911 24.495879436579187 7.356174453706304 24.689896633788056 7.335607794735391 24.89383345964051 7.316334231508082 25.055036658943997 A26.101410667070837 26.101410667070837 0 0 1 6.853020271581199 25.185704709724956 L6.7523584171996855 25.058326796499653 6.628265758913878 24.895188117580272 6.513699427258323 24.73784571340711 6.407872536075319 24.585892017820136 6.31221548981177 24.44224369725865 6.224833538349839 24.304877160363002 6.144905164611894 24.17319775623461 6.090552679369891 24.08019645867368 6.070704601961709 24.052782449058174 6.052603388091661 24.036714124427686 6.044358427614355 24.032913870919344 6.036732502381658 24.031906267651532 5.973918987354047 24.047336119558665 5.784348911333474 24.0935471905001 5.594461349618058 24.138435838349793 5.531489091743025 24.153204478711057 5.525151784918812 24.157564357403842 5.519530750331247 24.16469354180077 5.5106973174062786 24.18722830301007 5.5054582508682 24.220665203013052 5.4992515374678375 24.32820547783493 5.487816033485216 24.481819408351225 5.472321247369072 24.64388446474283 5.452305167902114 24.815303445788608 5.4269982516202875 24.998739583145195 5.396350859363654 25.190944717956594 5.3598469015965815 25.392639233170417 5.327984895086688 25.551833310467035 A26.101410667070837 26.101410667070837 0 0 1 4.855847080370295 25.64574736092173 L4.765489488779001 25.51086427322361 4.654579079971107 25.338492298650987 4.552710860832537 25.17264615781697 4.459132348185369 25.012857802575596 4.375040698005601 24.862147136496368 4.298705770205874 24.71834814589557 4.229355235943312 24.58080355749785 4.182467098982231 24.483824505057033 4.164831084977445 24.45493774147883 4.1480463773291545 24.43749874525882 4.140124997767185 24.433063314520414 4.1326016363582 24.43146049415936 4.068771142206621 24.441914489393966 3.8761597686259246 24.47310961028422 3.6833356441727743 24.502961475031263 3.619398774584967 24.51274384219426 3.612738931423005 24.516593061473298 3.6065758752480876 24.52325924768318 3.5960016158618937 24.545031478584797 3.588155270679325 24.57795425136104 3.573530177788141 24.68467604228456 3.550077515568384 24.83691921301746 3.5219150169331455 24.99726897001952 3.488511262115715 25.166589080059936 3.448890125150223 25.34747418725663 3.4032569675043156 25.53668225109976 3.351040769979517 25.73489094191843 3.3067867600523657 25.891094412784234 A26.101410667070837 26.101410667070837 0 0 1 2.8287359771758522 25.947675451562045 L2.7492397329738867 25.806118788479946 2.6521953731956613 25.62557624879682 2.5636533180196857 25.45224886790962 2.4829001265568365 25.285611001358937 2.4108923254475214 25.128767171134726 2.346075051523823 24.979422295423838 2.287729925841765 24.83686053088248 2.2485952181178606 24.73650163166889 2.2332799994073786 24.706320210631265 2.217915281284977 24.687618060032495 2.2103663205774695 24.68257479796946 2.2029919070170565 24.68038664243568 2.1385379699637457 24.685800328640823 1.9440728119908326 24.70178717118618 1.7495009496477296 24.716418206157655 1.6849936604093234 24.721153988575864 1.6780523410573287 24.724468816724297 1.671385260585802 24.730630905492415 1.6591353685637957 24.751506373042847 1.6487301200639628 24.78371203875025 1.6257768162429682 24.88895737044577 1.5904515892474613 25.03889115162172 1.549795009262195 25.19653699966061 1.5032095243506167 25.362714323912606 1.4495184441862163 25.53993318411315 1.3891808647424866 25.724977646356344 1.321574357681349 25.918478490289882 1.2652011850240923 26.070728308384066 A26.101410667070837 26.101410667070837 0 0 1 0.7841847760319547 26.08962749456581 L0.7160400000000063 25.94227 0.6334600000000064 25.75467 0.5587900000000062 25.57493 0.49136000000000624 25.40247 0.43188000000000615 25.24046 0.37898000000000615 25.08649 0.3320000000000061 24.93979 0.3008600000000061 24.83667 0.28796000000000604 24.80538 0.27411000000000607 24.78553 0.26698000000000605 24.77991 0.259800000000006 24.77715 0.19512000000000607 24.77749 6.068901315845795e-15 24.77817 -0.1951199999999939 24.77749 -0.2597999999999939 24.77715 -0.26697999999999394 24.77991 -0.27410999999999397 24.78553 -0.28795999999999394 24.80538 -0.3008599999999939 24.83667 -0.3319999999999939 24.93979 -0.3789799999999938 25.08649 -0.4318799999999938 25.24046 -0.4913599999999938 25.40247 -0.5587899999999938 25.57493 -0.6334599999999937 25.75467 -0.7160399999999937 25.94227 -0.7841847760319418 26.08962749456581 A26.101410667070837 26.101410667070837 0 0 1 -1.2652011850240794 26.070728308384066 L-1.3215743576813361 25.91847849028988 -1.3891808647424742 25.72497764635634 -1.449518444186204 25.53993318411315 -1.5032095243506047 25.362714323912606 -1.5497950092621826 25.19653699966061 -1.5904515892474491 25.038891151621716 -1.6257768162429562 24.88895737044577 -1.6487301200639508 24.78371203875025 -1.6591353685637835 24.751506373042847 -1.67138526058579 24.730630905492415 -1.6780523410573167 24.724468816724297 -1.6849936604093114 24.721153988575864 -1.7495009496477176 24.716418206157655 -1.9440728119908206 24.70178717118618 -2.1385379699637337 24.685800328640823 -2.2029919070170445 24.68038664243568 -2.2103663205774575 24.68257479796946 -2.2179152812849656 24.687618060032495 -2.2332799994073667 24.706320210631265 -2.2485952181178486 24.73650163166889 -2.287729925841753 24.83686053088248 -2.346075051523811 24.97942229542384 -2.4108923254475094 25.128767171134726 -2.482900126556824 25.285611001358937 -2.563653318019673 25.45224886790962 -2.652195373195649 25.625576248796822 -2.749239732973874 25.80611878847995 -2.8287359771758394 25.947675451562045 A26.101410667070837 26.101410667070837 0 0 1 -3.306786760052307 25.89109441278424 L-3.3510407699794578 25.734890941918433 -3.4032569675042574 25.536682251099762 -3.4488901251501654 25.347474187256637 -3.4885112621156575 25.16658908005994 -3.5219150169330886 24.99726897001953 -3.5500775155683275 24.836919213017467 -3.573530177788085 24.68467604228457 -3.5881552706792696 24.57795425136105 -3.5960016158618378 24.545031478584804 -3.606575875248032 24.52325924768319 -3.612738931422949 24.516593061473305 -3.619398774584911 24.51274384219427 -3.6833356441727187 24.50296147503127 -3.876159768625869 24.473109610284226 -4.0687711422065655 24.441914489393973 -4.132601636358145 24.431460494159367 -4.1401249977671295 24.43306331452042 -4.1480463773290985 24.437498745258832 -4.16483108497739 24.454937741478837 -4.182467098982176 24.483824505057044 -4.229355235943257 24.580803557497855 -4.298705770205818 24.718348145895575 -4.375040698005545 24.86214713649638 -4.459132348185311 25.012857802575606 -4.552710860832479 25.172646157816978 -4.654579079971049 25.338492298650998 -4.765489488778943 25.51086427322362 -4.8558470803702365 25.64574736092174 A26.101410667070837 26.101410667070837 0 0 1 -5.327984895086676 25.551833310467035 L-5.359846901596569 25.39263923317042 -5.396350859363642 25.190944717956597 -5.426998251620275 24.998739583145195 -5.452305167902102 24.815303445788608 -5.4723212473690594 24.643884464742833 -5.487816033485204 24.481819408351228 -5.499251537467825 24.328205477834935 -5.505458250868188 24.220665203013056 -5.510697317406267 24.18722830301007 -5.519530750331236 24.164693541800773 -5.5251517849188 24.157564357403846 -5.531489091743013 24.153204478711057 -5.594461349618046 24.138435838349796 -5.7843489113334625 24.093547190500104 -5.973918987354035 24.04733611955867 -6.036732502381645 24.031906267651532 -6.044358427614344 24.032913870919348 -6.05260338809165 24.03671412442769 -6.0707046019616975 24.052782449058174 -6.090552679369879 24.080196458673683 -6.144905164611882 24.173197756234615 -6.224833538349827 24.304877160363006 -6.3122154898117575 24.442243697258654 -6.407872536075306 24.585892017820136 -6.51369942725831 24.73784571340711 -6.628265758913866 24.895188117580275 -6.752358417199675 25.058326796499657 -6.853020271581187 25.185704709724956 A26.101410667070837 26.101410667070837 0 0 1 -7.31633423150807 25.055036658944 L-7.33560779473538 24.893833459640515 -7.356174453706292 24.68989663378806 -7.371647129209098 24.49587943657919 -7.382483799252977 24.311023213848227 -7.388988797583528 24.138562216817824 -7.391720340671632 23.97578104600143 -7.391068182732373 23.82174343666519 -7.38881825018986 23.7140476995 -7.391417737496075 23.68030282187769 -7.39845588290842 23.657144464657136 -7.403500240361217 23.649596235865662 -7.409475939243741 23.644752577861077 -7.4710953404958 23.625088717880445 -7.656875619511484 23.565440040369086 -7.842235635414821 23.504497925995565 -7.903644905110703 23.484187347583855 -7.911326377802177 23.48459352154922 -7.91984408627175 23.487735168000903 -7.93915020636078 23.50233375447727 -7.961087977174979 23.528105993644708 -8.022569709552355 23.616556152400225 -8.112583137762707 23.741558524944992 -8.21047337409863 23.87164569775652 -8.317106058946552 24.007346033136077 -8.434528870690237 24.150528224005637 -8.561086975330948 24.29839682327455 -8.697596810591344 24.451296402336038 -8.80794231395735 24.570383813896033 A26.101410667070837 26.101410667070837 0 0 1 -9.259575934464202 24.40376737477343 L-9.26614222648252 24.241548924792276 -9.270644786365612 24.03662712664845 -9.270847350924928 23.841994047580172 -9.267146963056481 23.656857439558898 -9.260100774772782 23.484417705939666 -9.250052233961378 23.321924020746792 -9.237316434870799 23.168412425674873 -9.226623727967713 23.06122520619846 -9.226567609338405 23.027380399348676 -9.23176707473124 23.003741225090067 -9.236203654908154 22.995820489244593 -9.241780903678254 22.990522914690477 -9.30166754420809 22.96608506932616 -9.4821951433257 22.892044116085188 -9.662202292975294 22.81674668668001 -9.72182870877112 22.791680603233576 -9.72951837008788 22.79148284369893 -9.738256312044578 22.79394651379888 -9.758648309702304 22.80698535698097 -9.782540520270405 22.83095693127574 -9.850772444458293 22.914310626584452 -9.950315964423632 23.031865286351348 -10.058110959774732 23.153871064399997 -10.175061857245973 23.280786776905074 -10.303356638868891 23.414314697237593 -10.44112624369481 23.551797832516474 -10.589211627401285 23.69351563497088 -10.70856046302993 23.80357833137272 A26.101410667070837 26.101410667070837 0 0 1 -11.145729272662866 23.60204074966126 L-11.139547810098387 23.439807179689687 -11.127958511114723 23.235163820283457 -11.112889715852683 23.041114837010287 -11.094675084193621 22.856839272451325 -11.07412115138954 22.68548395054306 -11.05135447927421 22.524279578577556 -11.026613559468787 22.372240447801357 -11.007544002298873 22.266222590865166 -11.00483262372405 22.232486519276666 -11.00816135266423 22.208512271350138 -11.011962802573157 22.200267862421057 -11.017107215637548 22.194549032626163 -11.074891874391962 22.165487869321236 -11.24905378093142 22.077511127448503 -11.422598260391233 21.988322616702877 -11.480074205605824 21.958655568961497 -11.487724646228779 21.95785509518013 -11.496628949354777 21.95962559958292 -11.517981101134614 21.971024310666667 -11.543680448033497 21.993047427361883 -11.618241891529864 22.070790755974297 -11.726701784348027 22.18017293939497 -11.843736946722487 22.293345116488027 -11.970285015644016 22.41069372854728 -12.108660787155118 22.533744134311366 -12.25679249673945 22.659994176353432 -12.415540433258064 22.789656464822677 -12.543156775890186 22.890015872943483 A26.101410667070837 26.101410667070837 0 0 1 -12.96316548356452 22.65479969485244 L-12.9442743771895 22.493551228797457 -12.916664671221147 22.290448002490383 -12.886417420271421 22.09817949152204 -12.853800844082906 21.915901090558737 -12.819865888589057 21.746686642902425 -12.784521449274074 21.58776546272335 -12.747927944751599 21.438136168042252 -12.72059910747608 21.333941308988805 -12.715249185506284 21.300521966761327 -12.716686655272976 21.276360454377585 -12.719829537711117 21.26784320188749 -12.724509398052563 21.26173837533921 -12.779835813394989 21.22823306582926 -12.946558261287766 21.126862941193647 -13.11257011113253 21.02433322593451 -13.167541227450949 20.990248121112803 -13.17510527986963 20.98884986827176 -13.184121046175179 20.989916291229004 -13.206301708961092 20.99960459337012 -13.233649747171224 21.019543472627923 -13.314081013882717 21.09119712107086 -13.430788588247903 21.19173245061125 -13.556342356951546 21.295373282643375 -13.691707386396962 21.40243130104108 -13.839311015150269 21.514245545566787 -13.996891548244635 21.628484120880454 -14.165323303757708 21.74529148423904 -14.300420356204235 21.835328854954856 A26.101410667070837 26.101410667070837 0 0 1 -14.700679468570044 21.56788426643948 L-14.669195188337214 21.408615054714875 -14.62573529840263 21.208304160435823 -14.580496076125558 21.019001521078188 -14.5336786474459 20.839844090666205 -14.486571889547418 20.67381378060116 -14.43886759325438 20.51815559413098 -14.390647115138808 20.371858649903473 -14.355227489127248 20.270129184687143 -14.347272007810451 20.237232613178577 -14.34680935592454 20.213032800095984 -14.34927429397655 20.204295215738753 -14.353460748699833 20.197842030722818 -14.405987814881785 20.160099146382628 -14.564242904795783 20.045960619511494 -14.721698606766664 19.93072182952801 -14.773825978977056 19.892428813631646 -14.781257008292997 19.890441402424663 -14.790328652580774 19.890797169084205 -14.813201075210872 19.898715330678293 -14.84202919498254 19.916447042677717 -14.927834399403775 19.98156924238127 -15.052070114310817 20.072637884303376 -15.185368408608722 20.166108391081014 -15.32871582815805 20.26221576753335 -15.48463728869911 20.362104478821166 -15.650695108916137 20.463627268601442 -15.827772245641688 20.56685955061187 -15.969517089649962 20.64601977359177 A26.101410667070837 26.101410667070837 0 0 1 -16.34755887617985 20.34799565947462 L-16.30367553314643 20.191687649733055 -16.24463340391894 19.995404070755384 -16.184681125163426 19.810234416729617 -16.123951489008814 19.635302522003332 -16.063963357532728 19.47347998160179 -16.00419331711157 19.32204447332169 -15.944643160685423 19.17998184885761 -15.9013511197104 19.081344973459938 -15.890839127234388 19.04917399097285 -15.888479206098596 19.02508507708632 -15.89025100260171 19.01618103097505 -15.893918240821323 19.009419273522983 -15.943322111012765 18.967671511785294 -16.09213414769351 18.841468284651715 -16.240062935028522 18.71423090540492 -16.2890251805471 18.671966067610622 -16.2962773719935 18.669401751088667 -16.305348964559844 18.669044668030747 -16.32877213094276 18.675143870978534 -16.35890259733125 18.690559093818703 -16.449552721843844 18.748748344766373 -16.580550622797773 18.829788830609345 -16.72077161437941 18.91251273537611 -16.871217639523277 18.997076935948296 -17.03449562419871 19.08442426687677 -17.20800692985693 19.172605349364908 -17.392637708362923 19.261626088680366 -17.540156439834686 19.32942111482624 A26.101410667070837 26.101410667070837 0 0 1 -17.893650147203015 19.002654892873945 L-17.837638296771498 18.850271775973173 -17.76337794261129 18.659225665832192 -17.689082233112014 18.47933062963052 -17.614814807883995 18.30970278389168 -17.542315149608935 18.15308570292667 -17.470847867234415 18.00680652310261 -17.40033517901449 17.8698540817224 -17.349437632904685 17.774917925280295 -17.336433939198663 17.74367087661966 -17.332191298511546 17.719841378093676 -17.333259029751133 17.710825766633548 -17.33638444172398 17.70379712522855 -17.38236052463673 17.65830187492701 -17.520812032393057 17.520812032393096 -17.65830187492697 17.38236052463677 -17.703797125228512 17.336384441724018 -17.710825766633505 17.333259029751176 -17.719841378093633 17.33219129851159 -17.743670876619618 17.336433939198706 -17.774917925280253 17.349437632904728 -17.86985408172236 17.400335179014533 -18.006806523102572 17.470847867234454 -18.153085702926628 17.542315149608978 -18.309702783891638 17.614814807884038 -18.47933062963048 17.689082233112057 -18.65922566583215 17.76337794261133 -18.85027177597313 17.83763829677154 -19.002654892873903 17.893650147203058 A26.101410667070837 26.101410667070837 0 0 1 -19.32942111482623 17.540156439834696 L-19.26162608868036 17.392637708362937 -19.1726053493649 17.20800692985694 -19.084424266876763 17.03449562419872 -18.99707693594829 16.871217639523287 -18.912512735376104 16.72077161437942 -18.82978883060934 16.580550622797784 -18.748748344766362 16.449552721843855 -18.690559093818692 16.358902597331266 -18.675143870978523 16.328772130942767 -18.66904466803074 16.305348964559855 -18.66940175108866 16.29627737199351 -18.671966067610615 16.289025180547114 -18.714230905404914 16.240062935028533 -18.841468284651707 16.09213414769352 -18.967671511785287 15.943322111012776 -19.009419273522976 15.893918240821337 -19.016181030975044 15.89025100260172 -19.025085077086313 15.888479206098607 -19.049173990972847 15.890839127234399 -19.081344973459927 15.901351119710414 -19.179981848857608 15.944643160685434 -19.322044473321682 16.004193317111582 -19.473479981601784 16.06396335753274 -19.635302522003325 16.123951489008824 -19.81023441672961 16.184681125163436 -19.995404070755377 16.24463340391895 -20.191687649733048 16.303675533146443 -20.34799565947461 16.34755887617986 A26.101410667070837 26.101410667070837 0 0 1 -20.64601977359176 15.969517089649973 L-20.56685955061186 15.8277722456417 -20.46362726860143 15.65069510891615 -20.362104478821156 15.48463728869912 -20.262215767533338 15.32871582815806 -20.166108391081007 15.185368408608733 -20.07263788430337 15.05207011431083 -19.981569242381262 14.927834399403787 -19.91644704267771 14.842029194982551 -19.898715330678286 14.813201075210882 -19.8907971690842 14.790328652580785 -19.890441402424653 14.781257008293007 -19.892428813631636 14.773825978977067 -19.930721829528004 14.721698606766676 -20.045960619511487 14.564242904795794 -20.16009914638262 14.405987814881797 -20.197842030722807 14.353460748699844 -20.204295215738743 14.34927429397656 -20.213032800095977 14.34680935592455 -20.23723261317857 14.347272007810462 -20.270129184687136 14.355227489127259 -20.371858649903466 14.39064711513882 -20.518155594130974 14.438867593254393 -20.673813780601154 14.48657188954743 -20.839844090666194 14.533678647445914 -21.019001521078177 14.580496076125568 -21.208304160435812 14.625735298402642 -21.408615054714865 14.669195188337227 -21.56788426643947 14.700679468570058 A26.101410667070837 26.101410667070837 0 0 1 -21.835328854954845 14.300420356204246 L-21.74529148423903 14.165323303757718 -21.628484120880447 13.996891548244646 -21.514245545566776 13.839311015150281 -21.40243130104107 13.691707386396974 -21.295373282643368 13.556342356951559 -21.191732450611244 13.430788588247914 -21.09119712107085 13.314081013882728 -21.019543472627912 13.233649747171235 -20.99960459337011 13.206301708961103 -20.989916291228997 13.18412104617519 -20.98884986827175 13.17510527986964 -20.990248121112792 13.167541227450961 -21.0243332259345 13.112570111132543 -21.12686294119364 12.946558261287779 -21.228233065829254 12.779835813395001 -21.2617383753392 12.724509398052575 -21.26784320188748 12.719829537711128 -21.276360454377578 12.716686655272987 -21.300521966761316 12.715249185506295 -21.333941308988795 12.72059910747609 -21.43813616804224 12.74792794475161 -21.587765462723343 12.784521449274088 -21.746686642902418 12.819865888589069 -21.915901090558727 12.853800844082919 -22.09817949152203 12.886417420271433 -22.290448002490376 12.916664671221158 -22.493551228797447 12.94427437718951 -22.65479969485243 12.96316548356453 A26.101410667070837 26.101410667070837 0 0 1 -22.890015872943458 12.54315677589024 L-22.789656464822652 12.41554043325812 -22.659994176353408 12.256792496739505 -22.53374413431134 12.108660787155172 -22.41069372854725 11.970285015644068 -22.293345116488002 11.843736946722538 -22.180172939394943 11.726701784348077 -22.070790755974272 11.618241891529916 -21.99304742736186 11.543680448033548 -21.971024310666643 11.517981101134668 -21.959625599582896 11.49662894935483 -21.957855095180104 11.48772464622883 -21.958655568961472 11.480074205605876 -21.988322616702852 11.422598260391283 -22.077511127448478 11.249053780931472 -22.16548786932121 11.074891874392016 -22.19454903262614 11.0171072156376 -22.200267862421033 11.011962802573208 -22.208512271350113 11.008161352664283 -22.23248651927664 11.004832623724104 -22.26622259086514 11.007544002298925 -22.37224044780133 11.026613559468839 -22.524279578577527 11.051354479274263 -22.685483950543034 11.074121151389596 -22.856839272451303 11.094675084193677 -23.041114837010262 11.112889715852736 -23.235163820283432 11.127958511114779 -23.439807179689662 11.139547810098442 -23.602040749661235 11.145729272662921 A26.101410667070837 26.101410667070837 0 0 1 -23.803578331372712 10.708560463029944 L-23.693515634970876 10.589211627401296 -23.551797832516467 10.441126243694823 -23.414314697237586 10.303356638868904 -23.28078677690507 10.175061857245986 -23.15387106439999 10.058110959774744 -23.031865286351344 9.950315964423645 -22.914310626584445 9.850772444458306 -22.830956931275736 9.782540520270418 -22.806985356980963 9.758648309702316 -22.793946513798875 9.73825631204459 -22.791482843698923 9.729518370087892 -22.791680603233573 9.721828708771133 -22.816746686680002 9.662202292975307 -22.892044116085184 9.482195143325713 -22.96608506932615 9.301667544208103 -22.990522914690473 9.241780903678267 -22.995820489244586 9.236203654908167 -23.003741225090064 9.231767074731252 -23.02738039934867 9.226567609338417 -23.061225206198458 9.226623727967725 -23.168412425674866 9.237316434870811 -23.32192402074679 9.25005223396139 -23.48441770593966 9.260100774772795 -23.656857439558895 9.267146963056494 -23.841994047580165 9.27084735092494 -24.036627126648444 9.270644786365624 -24.241548924792273 9.266142226482534 -24.403767374773423 9.259575934464216 A26.101410667070837 26.101410667070837 0 0 1 -24.57038381389603 8.807942313957364 L-24.451296402336034 8.697596810591358 -24.298396823274548 8.561086975330964 -24.150528224005633 8.43452887069025 -24.007346033136074 8.317106058946566 -23.871645697756517 8.210473374098644 -23.74155852494499 8.112583137762721 -23.61655615240022 8.022569709552368 -23.528105993644708 7.961087977174993 -23.502333754477267 7.939150206360793 -23.487735168000903 7.919844086271763 -23.48459352154922 7.911326377802191 -23.484187347583852 7.903644905110717 -23.504497925995565 7.842235635414834 -23.565440040369083 7.656875619511498 -23.625088717880445 7.471095340495813 -23.644752577861073 7.409475939243755 -23.649596235865662 7.4035002403612316 -23.657144464657136 7.398455882908434 -23.680302821877685 7.391417737496088 -23.7140476995 7.388818250189874 -23.821743436665187 7.391068182732386 -23.975781046001426 7.391720340671646 -24.13856221681782 7.388988797583542 -24.311023213848223 7.382483799252992 -24.495879436579187 7.371647129209112 -24.689896633788056 7.356174453706307 -24.89383345964051 7.335607794735394 -25.055036658943997 7.316334231508084 A26.101410667070837 26.101410667070837 0 0 1 -25.185704709724956 6.853020271581202 L-25.058326796499653 6.752358417199689 -24.895188117580272 6.62826575891388 -24.73784571340711 6.513699427258325 -24.585892017820136 6.40787253607532 -24.44224369725865 6.312215489811772 -24.304877160363002 6.2248335383498405 -24.17319775623461 6.144905164611896 -24.08019645867368 6.0905526793698925 -24.052782449058174 6.070704601961711 -24.036714124427686 6.052603388091663 -24.032913870919344 6.044358427614358 -24.031906267651532 6.03673250238166 -24.047336119558665 5.973918987354049 -24.0935471905001 5.784348911333477 -24.138435838349793 5.59446134961806 -24.153204478711057 5.531489091743027 -24.157564357403842 5.5251517849188145 -24.16469354180077 5.519530750331249 -24.18722830301007 5.51069731740628 -24.220665203013052 5.505458250868202 -24.32820547783493 5.499251537467839 -24.481819408351225 5.487816033485218 -24.64388446474283 5.472321247369074 -24.815303445788608 5.452305167902116 -24.998739583145195 5.426998251620289 -25.190944717956594 5.396350859363656 -25.392639233170417 5.359846901596583 -25.551833310467035 5.327984895086691 A26.101410667070837 26.101410667070837 0 0 1 -25.64574736092173 4.855847080370297 L-25.51086427322361 4.765489488779003 -25.338492298650987 4.654579079971109 -25.17264615781697 4.552710860832538 -25.012857802575596 4.45913234818537 -24.862147136496368 4.375040698005603 -24.71834814589557 4.298705770205876 -24.58080355749785 4.229355235943314 -24.483824505057033 4.182467098982233 -24.45493774147883 4.164831084977447 -24.43749874525882 4.148046377329155 -24.433063314520414 4.140124997767186 -24.43146049415936 4.132601636358202 -24.441914489393966 4.068771142206622 -24.47310961028422 3.876159768625926 -24.502961475031263 3.6833356441727756 -24.51274384219426 3.619398774584968 -24.516593061473298 3.6127389314230065 -24.52325924768318 3.6065758752480894 -24.545031478584797 3.596001615861895 -24.57795425136104 3.588155270679327 -24.68467604228456 3.5735301777881427 -24.83691921301746 3.5500775155683852 -24.99726897001952 3.5219150169331472 -25.166589080059936 3.4885112621157166 -25.34747418725663 3.448890125150224 -25.53668225109976 3.4032569675043174 -25.73489094191843 3.3510407699795186 -25.891094412784234 3.3067867600523675 A26.101410667070837 26.101410667070837 0 0 1 -25.947675451562045 2.828735977175836 Z" id="SvgjsPath1754">
        </path>
      </g>
    </g>
  </g>
</svg>
