<?xml version="1.0" encoding="UTF-8"?>
<svg viewBox="-20.109227059660977 -48.5183844015643 123.77479924256701 97.0367688031286" height="97.0367688031286mm" width="123.77479924256701mm" xmlns:svgjs="http://svgjs.com/svgjs" xmlns:xlink="http://www.w3.org/1999/xlink" version="1.1" xmlns="http://www.w3.org/2000/svg" id="SvgjsSvg2041">
  <desc>Created with svg.js [http://svgjs.com]</desc>
  <defs id="SvgjsDefs2042">
  </defs>
  <defs id="SvgjsDefs2042">
  </defs>
  <g id="SvgjsG2043">
    <g transform="matrix(1,0,0,1,55.147186279296875,0)" id="SvgjsG2044">
      <g fill="none" stroke-width="0.04" stroke="blue" id="SvgjsG2045">
        <circle cy="0" cx="0" r="41.778172561622526" id="SvgjsCircle2046">
        </circle>
        <circle cy="0" cx="0" r="42.892257163265796" id="SvgjsCircle2047">
        </circle>
        <line y2="0.875" x2="0" y1="-0.875" x1="0" id="SvgjsLine2048">
        </line>
        <line y2="0" x2="0.875" y1="0" x1="-0.875" id="SvgjsLine2049">
        </line>
      </g>
      <g fill="none" stroke-width="0.1" stroke="black" id="SvgjsG2050">
        <circle cy="0" cx="0" r="4" id="SvgjsCircle2051">
        </circle>
        <path d="M-42.36752867948492 4.811909471012806  L-42.070714930096365 4.648339072181276 -41.78396366912409 4.498067320907754 -41.510327966546534 4.361902526357592 -41.25031063474852 4.239234623201775 -41.00194706582594 4.128363253894657 -40.76715387318227 4.029409220181063 -40.540473477757835 3.939485719191481 -40.48572317877133 3.9134128911728667 -40.449835125464226 3.887147740691161 -40.43895109977337 3.874191549709212 -40.432773107126074 3.861480007440471 -40.43129277973801 3.849112763170863 -40.4437476467068 3.7174030350229783 -40.4716506699167 3.398499460104559 -40.49732154912188 3.0794084468170757 -40.50700616594195 2.9474660942647266 -40.51052823270732 2.935518912768647 -40.518739596947604 2.924015678557625 -40.53163189087844 2.9130560409175854 -40.57139757544555 2.893143712301669 -40.62972928612668 2.876566645944405 -40.86823168725711 2.8257056357792165 -41.11623928491982 2.7672935171601285 -41.37961465893621 2.6993940675178862 -41.65644789013029 2.6218067656789223 -41.948959640606745 2.5331827010395815 -42.2567558791771 2.432836498211853 -42.57669149023525 2.3210559901755587 -42.83447745451804 2.225570720259763 A42.892257163265796 42.892257163265796 0 0 1 -42.87048187116599 1.3665313631671303 L-42.62159 1.2498100000000028 -42.31213 1.1116500000000027 -42.01381 0.9859000000000026 -41.72974 0.8731100000000026 -41.46037 0.7726300000000026 -41.2036 0.6829300000000026 -40.96135 0.6039700000000026 -40.72794 0.5333300000000024 -40.6712 0.5119300000000024 -40.63324 0.48876000000000247 -40.62131 0.4767600000000025 -40.61409 0.4646100000000025 -40.61158 0.4524100000000025 -40.61297 0.3201200000000025 -40.61409 2.486895765939126e-15 -40.61297 -0.3201199999999975 -40.61158 -0.4524099999999975 -40.61409 -0.4646099999999975 -40.62131 -0.4767599999999975 -40.63324 -0.4887599999999975 -40.6712 -0.5119299999999976 -40.72794 -0.5333299999999975 -40.96135 -0.6039699999999975 -41.2036 -0.6829299999999975 -41.46037 -0.7726299999999975 -41.72974 -0.8731099999999975 -42.01381 -0.9858999999999974 -42.31213 -1.1116499999999974 -42.62159 -1.2498099999999974 -42.87048187116599 -1.366531363167125 A42.892257163265796 42.892257163265796 0 0 1 -42.83447745451804 -2.2255707202597677 L-42.57669149023525 -2.321055990175564 -42.2567558791771 -2.4328364982118575 -41.948959640606745 -2.533182701039586 -41.65644789013029 -2.621806765678927 -41.37961465893621 -2.699394067517891 -41.11623928491982 -2.767293517160133 -40.86823168725711 -2.825705635779221 -40.62972928612668 -2.8765666459444095 -40.57139757544555 -2.8931437123016734 -40.53163189087844 -2.91305604091759 -40.518739596947604 -2.9240156785576294 -40.51052823270732 -2.9355189127686514 -40.50700616594195 -2.947466094264731 -40.49732154912188 -3.07940844681708 -40.4716506699167 -3.3984994601045635 -40.4437476467068 -3.7174030350229827 -40.43129277973801 -3.8491127631708673 -40.432773107126074 -3.8614800074404756 -40.43895109977337 -3.8741915497092165 -40.449835125464226 -3.8871477406911654 -40.48572317877133 -3.913412891172871 -40.540473477757835 -3.9394857191914854 -40.76715387318227 -4.029409220181067 -41.00194706582594 -4.128363253894661 -41.25031063474852 -4.239234623201781 -41.510327966546534 -4.361902526357596 -41.78396366912409 -4.498067320907759 -42.070714930096365 -4.6483390721812805 -42.36752867948492 -4.81190947101281 -42.60578065988645 -4.949048210932836 A42.892257163265796 42.892257163265796 0 0 1 -42.49801995505623 -5.802062024154391 L-42.23314808097711 -5.875641440256468 -41.90498097729898 -5.960258396379364 -41.58986746962056 -6.034496945520632 -41.290965728427835 -6.098333440662171 -41.008611052252114 -6.152483825164099 -40.74047769323309 -6.19810645859503 -40.48845209301206 -6.235560976790142 -40.2465302137314 -6.266286243677795 -40.18701594740829 -6.277924100182433 -40.14572350597969 -6.294439086736014 -40.131959348296846 -6.3042814880325375 -40.12281421663659 -6.3150572695316525 -40.11830478787361 -6.3266678316296545 -40.097613484862066 -6.457337055931648 -40.045331789224825 -6.77316088831498 -39.990841462464545 -7.0886111587056675 -39.96740909046994 -7.2188167658917894 -39.96784936181306 -7.231264507098307 -39.9729420129281 -7.244448429300005 -39.98270372068977 -7.258269932893174 -40.01626809839555 -7.287446002697441 -40.0686446623592 -7.31800877657942 -40.2870054531038 -7.426585029809088 -40.51269493284343 -7.54483900578815 -40.75090997870159 -7.676104061407667 -40.99975080753724 -7.8200994405154285 -41.26103285484575 -7.978683931416254 -41.53420402272507 -8.152423385598217 -41.81628958631061 -8.340256854438643 -42.04223050948897 -8.496851041385076 A42.892257163265796 42.892257163265796 0 0 1 -41.863469380394896 -9.337856031725392 L-41.59336948240596 -9.389013487276532 -41.259272742552405 -9.445873364336027 -40.93905226061352 -9.493483529708934 -40.63585710965839 -9.53208468820571 -40.34996150368284 -9.562418329330317 -40.07895092252116 -9.585444136556237 -39.82467509824721 -9.601678337793269 -39.581030648978846 -9.612052345732245 -39.52075127683108 -9.618669361182665 -39.47822171534904 -9.631671164909237 -39.46368223959079 -9.640327292488905 -39.45366748703839 -9.650300036911284 -39.448202326680544 -9.661492539860271 -39.41664947210147 -9.789972085189136 -39.338123678562724 -10.100313459403258 -39.25742825874305 -10.410097768270132 -39.223182742976036 -10.53788595571268 -39.22257987008706 -10.550326881895232 -39.22655145838136 -10.563890708288277 -39.23512237684764 -10.578480576575698 -39.266127648958474 -10.610362916535824 -39.31576309393558 -10.645201260381711 -39.524272635945294 -10.771668681446988 -39.73927535323817 -10.908393133015391 -39.96567096864248 -11.059131144895947 -40.20158985489337 -11.22344397583175 -40.44868554110187 -11.403335806822367 -40.706360516418776 -11.599324306473314 -40.97173926665094 -11.81010332849688 -41.183784319368364 -11.98505456676106 A42.892257163265796 42.892257163265796 0 0 1 -40.93527664689135 -12.808151688474133 L-40.66184328171047 -12.836528350680222 -40.324160354263384 -12.865232317492513 -40.00107901466676 -12.88588014799482 -39.695717150087745 -12.898975210454877 -39.408285966572585 -12.905279339504366 -39.136299107774256 -12.905546811031604 -38.88155662165776 -12.900446824053134 -38.63789859315501 -12.890396806831454 -38.57727693166753 -12.89194656761859 -38.53380856444838 -12.901343990206795 -38.518595754590585 -12.908753127554055 -38.50778162743959 -12.917852883262986 -38.50139906966008 -12.92854881969657 -38.459205984117666 -13.053937494354253 -38.35498689469838 -13.356619588639022 -38.24865240220975 -13.658565021635097 -38.203833950358074 -13.783039447014847 -38.202192161957164 -13.795386294015058 -38.20501482959241 -13.809234884102898 -38.212334839928474 -13.824490779641339 -38.24056352673776 -13.858855758049938 -38.287109695744824 -13.897725305908967 -38.48430544439635 -14.041196816717797 -38.6871133096599 -14.195432720084169 -38.90010149203332 -14.364586369377536 -39.1214436342199 -14.548064115690972 -39.35261976062762 -14.748001474829087 -39.59299113856949 -14.964864301441505 -39.839801634189776 -15.197110413253235 -40.0364634727556 -15.38919154560103 A42.892257163265796 42.892257163265796 0 0 1 -39.719952359665555 -16.188607363772526 L-39.44510346588786 -16.1940041907368 -39.10620295395844 -16.194350909598466 -38.78252694016771 -16.18789157553465 -38.47714025604266 -16.175388689503617 -38.19018961822121 -16.157619087542212 -37.91913427417843 -16.135126347250186 -37.66571196172725 -16.10872794480053 -37.423749439992 -16.078324396068076 -37.36321070656354 -16.074796031733513 -37.31910843297136 -16.080523157015932 -37.303328995944774 -16.08663333435575 -37.29179134752722 -16.0947962731031 -37.284536161383016 -16.10492061871222 -37.23199879905664 -16.226338911237633 -37.10281743578778 -16.519238628178428 -36.97158973069379 -16.81122725503873 -36.91651271199517 -16.931514819696396 -36.91384352404833 -16.943680983253756 -36.91549747203914 -16.95771719912712 -36.92151522963191 -16.973532112770727 -36.94676932718395 -17.010138683995464 -36.98989973228877 -17.052766793917137 -37.17439850109026 -17.212236044905335 -37.36358896286691 -17.382901546025906 -37.5616757531419 -17.569284341419017 -37.76688859517084 -17.770640038548276 -37.98052362735085 -17.98922050891433 -38.20190537540801 -18.225436525575258 -38.42841641812273 -18.477520687569395 -38.60831560104077 -18.68538440286749 A42.892257163265796 42.892257163265796 0 0 1 -38.2260211453831 -19.455511589912383 L-37.9516845905198 -19.437890726771293 -37.61394363769954 -19.40987776569864 -37.29194330439056 -19.376356574656132 -36.98867386888857 -19.338343438896207 -36.70421652931141 -19.296624746914233 -36.43599395850963 -19.25152956521507 -36.18566939516193 -19.204017913120193 -35.94709957343434 -19.153474091926412 -35.887068403782884 -19.144892351410817 -35.84264156957948 -19.14690900771853 -35.826406186797335 -19.151677366547027 -35.81422594542708 -19.158846231182544 -35.80614902083613 -19.168327970957083 -35.74363589357447 -19.284924219267086 -35.59039837090268 -19.565987077797722 -35.435197921267594 -19.845970808098368 -35.37024866143541 -19.96122778119437 -35.366570796378284 -19.9731279244129 -35.36704442346787 -19.987253312102453 -35.37171771807157 -20.00351631359501 -35.3938200870171 -20.042107708840526 -35.433232199417006 -20.088195375261996 -35.603739862067506 -20.26254380421238 -35.77798588520106 -20.448441807219783 -35.95978184686899 -20.650746407318813 -36.14742596809867 -20.8685676897224 -36.3420214097968 -21.104258086366624 -36.5428606940692 -21.358170407440163 -36.747483471661674 -21.628324430342538 -36.90935813542113 -21.850512713977984 A42.892257163265796 42.892257163265796 0 0 1 -36.46396185812409 -22.585949381014814 L-36.192061915996995 -22.545434425462727 -35.85784953240339 -22.489258275250393 -35.539783480557396 -22.42891035429941 -35.240758510869725 -22.365653603645548 -34.96078973339168 -22.300278448292417 -34.69728132444741 -22.2328971354849 -34.45181035715714 -22.164605493847173 -34.218306631324445 -22.09427592878204 -34.159204100972744 -22.08070100682917 -34.114764328479424 -22.07899304876715 -34.09818687948683 -22.082386142473194 -34.08544948080559 -22.088510648562284 -34.07660747159064 -22.097283274910346 -34.00455706406583 -22.208239640097336 -33.828338233111644 -22.475494186208604 -33.65025365857827 -22.74150913524957 -33.575887730004276 -22.85092707192966 -33.571226985417695 -22.862477723854923 -33.570516969452314 -22.87659320391509 -33.573813021263064 -22.893190219986085 -33.59260862936445 -22.93349574834261 -33.628026001408536 -22.982719699397876 -33.78334656916414 -23.170724377350528 -33.9414259429979 -23.370550941321195 -34.105655908007904 -23.587358324712106 -34.27441511975002 -23.820117332598336 -34.448606023759375 -24.071264456731583 -34.627494100970665 -24.341092069721157 -34.80879333167734 -24.627421017166508 -34.951508041818734 -24.862375377971667 A42.892257163265796 42.892257163265796 0 0 1 -34.44613407775077 -25.55796296519166 L-34.178577931094075 -25.49483810053182 -33.85023837646678 -25.410892796511035 -33.53833761090733 -25.32414144295713 -33.24565455234718 -25.23608477806525 -32.972138116784954 -25.147511719083784 -32.71519219185644 -25.05831690666385 -32.47629662308849 -24.96972429228188 -32.24949685401519 -24.880102294712614 -32.19173752474857 -24.861629409646394 -32.14759652703943 -24.856208817313274 -32.1307932907302 -24.858202845782465 -32.117588078437926 -24.86324003431536 -32.10804300494064 -24.871242013566235 -32.02696069899331 -24.975780216450456 -31.828996608242818 -25.22735185152352 -31.62927704414792 -25.477532115568753 -31.546016070389218 -25.5803435276238 -31.540405138047714 -25.591463668731677 -31.538516459279226 -25.605470231211797 -31.54041214886178 -25.622284845718426 -31.55576915843282 -25.66402179286403 -31.586943362703533 -25.716036757903794 -31.725987373379102 -25.916378967124054 -31.866791284685508 -26.128732452286922 -32.0123032978321 -26.35852187095111 -32.16099387546959 -26.60458596711678 -32.31355841775456 -26.86942820211222 -32.469240516574004 -27.15327846018357 -32.6259445165548 -27.453773940332635 -32.74849823192686 -27.69984634228094 A42.892257163265796 42.892257163265796 0 0 1 -32.18669141633522 -28.350705802538744 L-31.92535577927889 -28.265413804341584 -31.605192119681956 -28.15428816250544 -31.301644400179065 -28.04174187476303 -31.017356214109768 -27.92950294986873 -30.752210641737545 -27.818353263628023 -30.50362949187275 -27.707970589118414 -30.27298500239578 -27.599698415528383 -30.054480027506543 -27.491412619374614 -29.998469039519783 -27.468171345211044 -29.9549364339785 -27.459076140167344 -29.938025272982216 -27.459657116722674 -29.9244448721552 -27.463571655441033 -29.91426368620804 -27.47074685945969 -29.82471821595685 -27.568133639658512 -29.60639744126967 -27.802257769427296 -29.386443776857064 -28.034848513678796 -29.294871773821644 -28.130332252923136 -29.288350010384143 -28.14094388341356 -29.285295916537095 -28.154743282341535 -29.285777946991086 -28.17165755284432 -29.297588639643635 -28.214533164082727 -29.32430101149665 -28.268974295499937 -29.446093171260284 -28.480248779335806 -29.56863398176899 -28.703639678568226 -29.69440738083018 -28.94479932483723 -29.821986366794974 -29.202442546444548 -29.951854416708876 -29.47912221431257 -30.083238539070702 -29.775004111851462 -30.21424814235742 -30.087558364816694 -30.315781236701532 -30.34302278681125 A42.892257163265796 42.892257163265796 0 0 1 -29.70148224073995 -30.944588808635032 L-29.44820019500854 -30.83772793898569 -29.138458148476776 -30.700201425868 -28.845392644184013 -30.562649635281208 -28.571493407970056 -30.42701572579906 -28.316578504471202 -30.294069047487152 -28.07810574783112 -30.16327276603971 -27.857330143020995 -30.03608048474591 -27.648652617719044 -29.909890437064416 -27.59478284784903 -29.88204379464291 -27.552163984425338 -29.869337773217122 -27.535263518385747 -29.868501622725486 -27.521403185778283 -29.871266053952795 -27.510657301085494 -29.877564153838428 -27.41327676366593 -29.967116413061053 -27.17613066841323 -30.182150824973185 -26.937485720602286 -30.39552059247625 -26.83824500009704 -30.483006909084047 -26.830858151048176 -30.493035595993575 -26.826660064396542 -30.506531038500786 -26.825725054624673 -30.523426323545035 -26.83390658683574 -30.56713985726949 -26.855969758175327 -30.623625289643154 -26.95965578253383 -30.84435010939103 -27.063073956504564 -31.077211496041024 -27.168226531454003 -31.32804980826924 -27.273799050824923 -31.595464973235025 -27.38005967730769 -31.882041364899603 -27.486224257992884 -32.187879502985645 -27.590620526348737 -32.51030018525242 -27.67042081795951 -32.77336472792387 A42.892257163265796 42.892257163265796 0 0 1 -27.007938507711454 -33.32141775789511 L-26.76448664487287 -33.19373756901475 -26.46733882931334 -33.03077483429237 -26.18681118417605 -32.86918236784134 -25.92522210416315 -32.711104848193536 -25.682325914429597 -32.557293703236724 -25.45563426605962 -32.4070012567888 -25.246276128157017 -32.26178103025698 -25.04888977534776 -32.118571863564824 -24.99753908132475 -32.08631517707419 -24.956132900723954 -32.07008746287735 -24.939361674267357 -32.06784005033367 -24.925318630154056 -32.069434983571114 -24.914083421375853 -32.0748118026782 -24.80955087129009 -32.15590139616939 -24.555242864940833 -32.35033777832732 -24.29958055657428 -32.54298993346888 -24.193367220949202 -32.62186517378797 -24.18516709972761 -32.63124057308353 -24.179854466832925 -32.64433739833724 -24.177508975256945 -32.66109518963762 -24.182003959456498 -32.705340026817176 -24.19926317298807 -32.76347355542393 -24.28411577897887 -32.99210048506384 -24.36768591222709 -33.23279900381473 -24.45148009330353 -33.49155653146896 -24.534305630710936 -33.766867914548506 -24.61621349181594 -34.06133090252697 -24.696413862570147 -34.37498004636589 -24.77346453118123 -34.705005608507044 -24.830972278349446 -34.97382506310016 A42.892257163265796 42.892257163265796 0 0 1 -24.124953491228393 -35.46452090298921 L-23.893039451180528 -35.31691697966473 -23.61057014501897 -35.12966108983318 -23.344548058908956 -34.94516140256602 -23.0971039945419 -34.765749072974344 -22.867930260823965 -34.59215233604136 -22.654609799759676 -34.423417918119824 -22.45813762567838 -34.261188361898505 -22.273426968804866 -34.10196458560439 -22.22495553885201 -34.06552411252396 -22.18505247568073 -34.04588853131157 -22.16852812691061 -34.04224562070007 -22.15440087315601 -34.042659868636946 -22.142755147209485 -34.04707769244267 -22.031803805189845 -34.11913583496689 -21.76211767568852 -34.291610355852136 -21.491231294166433 -34.46219358218425 -21.378790353656754 -34.53190449307557 -21.369834478221026 -34.540560843067325 -21.363444563385926 -34.553167186248444 -21.359705041944 -34.56966993993944 -21.36048194904752 -34.61413573483115 -21.372816143788885 -34.673509594736686 -21.438240151347475 -34.90843498062543 -21.501376059433497 -35.155282304309836 -21.563224090662718 -35.4201440492506 -21.622721684471774 -35.70142053890257 -21.67970225540408 -36.00170467690561 -21.73337586825034 -36.32096480310999 -21.782540482037177 -36.65628035293013 -21.817352309235712 -36.928969144117445 A42.892257163265796 42.892257163265796 0 0 1 -21.072749259759547 -37.358865915171926 L-20.853999752863324 -37.19237359287218 -20.58819027532855 -36.982138013455454 -20.338539702043263 -36.77602523811552 -20.10697629564528 -36.57653654716448 -19.893132507023886 -36.38437187463581 -19.69467952302912 -36.198379035946864 -19.51247142390524 -36.02027807381117 -19.34173207551102 -35.84615652830367 -19.29647990188277 -35.80578787236966 -19.258359847458834 -35.78288215363577 -19.242198282809078 -35.77786929735698 -19.22808591194785 -35.77709995434164 -19.21611135523308 -35.78052779498623 -19.0995194652254 -35.84304905044737 -18.816346867001236 -35.99235192521868 -18.532136485658405 -36.13966970397251 -18.41425663267309 -36.19972731348338 -18.404607822054622 -36.20760389609572 -18.39718544594053 -36.21963133276447 -18.392078124688737 -36.23576329388614 -18.3891315052511 -36.28013815088748 -18.396454165688247 -36.34033587712462 -18.441990672408686 -36.57991188647385 -18.484249502300376 -36.83117655847568 -18.523717564181062 -37.10028470586513 -18.559469881520148 -37.385553349611484 -18.59112348451516 -37.68955236016487 -18.61789385762379 -38.01218408833745 -18.638827562145394 -38.35043762817849 -18.65069928941871 -38.62508304001647 A42.892257163265796 42.892257163265796 0 0 1 -17.872734832982925 -38.99116532526785 L-17.66868422985792 -38.806952428009204 -17.421399043450986 -38.57521181054286 -17.189871102388338 -38.34893168015733 -16.975812604877223 -38.13076589768151 -16.778798721883007 -37.921381186664824 -16.596605220052215 -37.719434533336205 -16.429939254784763 -37.52671141557015 -16.274368828722764 -37.33891343838485 -16.232653322903477 -37.29489975671379 -16.196583662019453 -37.26888456761759 -16.180898243254017 -37.26253692725656 -16.16689974342803 -37.260589389677484 -16.154680348856655 -37.263003203321716 -16.033265719198184 -37.31554903003417 -15.738592904568497 -37.440633006298995 -15.443052055025161 -37.56365200910427 -15.320560132036348 -37.613635056255305 -15.310286065708963 -37.620676622920506 -15.301883290951348 -37.63204078925037 -15.295443994078662 -37.64768880368625 -15.288794516518076 -37.691661465058644 -15.291054279449373 -37.75226081382985 -15.31638387945495 -37.994806993069105 -15.337469215823544 -38.24872657224767 -15.354280468259361 -38.52019352178581 -15.366036732310352 -38.807453365055906 -15.372141340086133 -39.113034913523585 -15.371820698524273 -39.43677521390182 -15.364376658884272 -39.77559413821661 -15.35322501459537 -40.05026973047365 A42.892257163265796 42.892257163265796 0 0 1 -14.547356012895186 -40.349969725720655 L-14.359435581912164 -40.1493283746206 -14.132409214541557 -39.89770821303075 -13.920627907855504 -39.652847920132224 -13.725575785790484 -39.41753532234381 -13.546773719258367 -39.19239925614417 -13.382117656101036 -38.97591529885051 -13.232162866687041 -38.769921839653854 -13.092852577718892 -38.56976469866804 -13.054966344009342 -38.52241471561308 -13.021200079420312 -38.49347253401419 -13.006100828481877 -38.485834633707285 -12.992314389109502 -38.48272256214129 -12.979935866954818 -38.48410541761675 -12.854550134036314 -38.526307244360275 -12.550444021073611 -38.62629494789783 -12.245645710043506 -38.72415228483889 -12.119400909880639 -38.7637101744671 -12.10857365303772 -38.769867333654375 -12.099249419064122 -38.78048851818369 -12.091523313611473 -38.795542826355586 -12.081217619235387 -38.83880485547381 -12.078398634047504 -38.899380765888026 -12.083343658393474 -39.14319582783913 -12.083107602754138 -39.397989250787475 -12.077144126888117 -39.66991085687201 -12.06482187590556 -39.957146978261235 -12.045334669024722 -40.26216762964075 -12.01792526186254 -40.58474569662457 -11.98215569265047 -40.921753434100104 -11.948058897571595 -41.19453255485067 A42.892257163265796 42.892257163265796 0 0 1 -11.119937942637863 -41.42574807996078 L-10.949465810599527 -41.21008562993666 -10.74429068911413 -40.94035085886802 -10.553741510506418 -40.678627922479315 -10.379063914379019 -40.427819058179914 -10.219727832336618 -40.18851080454169 -10.073764151830584 -39.959008022699884 -9.94157236337541 -39.741189118182795 -9.819499373083923 -39.530076771927774 -9.785708156192358 -39.47972261359912 -9.754482133983387 -39.44805644810653 -9.740074961268489 -39.43918186223658 -9.726597284316382 -39.43492708562968 -9.71414646101735 -39.435269283198814 -9.585669115665715 -39.466831094480746 -9.274262790252482 -39.54102118339179 -8.9623449588902 -39.6130304555604 -8.833232798119656 -39.641885717492336 -8.821928296188583 -39.6471152811539 -8.811748005800874 -39.65691898390449 -8.802789284846817 -39.6712739906571 -8.788899660696645 -39.713521935470624 -8.781021700545237 -39.77364951104001 -8.765547463438807 -40.01702326822426 -8.743991671552248 -40.27090334214922 -8.715295296882838 -40.541372270088885 -8.67898096260385 -40.826569914584546 -8.634038629821122 -41.1288901681635 -8.579732714356233 -41.44804334838505 -8.51588851339972 -41.780876031882656 -8.45908573204983 -42.04984533158621 A42.892257163265796 42.892257163265796 0 0 1 -7.614521497377323 -42.2109545757789 L-7.462693403805865 -41.981783743964385 -7.280808684264776 -41.69582635903185 -7.11282819931394 -41.41907657750405 -6.959750366955321 -41.1545306906708 -6.820997897535342 -40.90272882505052 -6.694750430024593 -40.66181701577766 -6.581248872944592 -40.43370050905266 -6.477269435647333 -40.21311375895342 -6.447810256681293 -40.160108623592336 -6.419343504962312 -40.12594058960485 -6.405729466436007 -40.11589156701535 -6.392655088124285 -40.11052392956839 -6.380219297260446 -40.10982306896111 -6.249551515742473 -40.130523481352455 -5.933029269506351 -40.17839556546877 -5.61617979728625 -40.22405167955925 -5.485105904948874 -40.24200191486495 -5.473403450888417 -40.24626720136915 -5.462438511509138 -40.25518465641018 -5.452310014044332 -40.26873967168518 -5.434933885853808 -40.309677193216245 -5.422052208969031 -40.3689346821998 -5.386267251065279 -40.61016004257434 -5.343542921323765 -40.86134598116992 -5.292314932300956 -41.12846508576686 -5.232263233688691 -41.40962379680706 -5.16218101317752 -41.70712309322341 -5.081359506388163 -42.02061275643465 -4.989888494884919 -42.34693580381956 -4.910778157962449 -42.61020865609285 A42.892257163265796 42.892257163265796 0 0 1 -4.055694654838847 -42.70008155377696 L-3.9235755647223343 -42.4590098088982 -3.7662570377491433 -42.158835595696964 -3.622023508863303 -41.869000169903046 -3.491619171281186 -41.59257285985614 -3.374423563363102 -41.33004359142172 -3.2687778441235444 -41.07941257796498 -3.174762650290872 -40.842598542425264 -3.0896061070313614 -40.614084646042365 -3.0646856009649035 -40.55880032658928 -3.039177793545888 -40.52237008831564 -3.026452381906764 -40.51121711567984 -3.0138730096053585 -40.50477426751286 -3.001539479314515 -40.50303526476276 -2.8695978022328847 -40.51272907974381 -2.5501798113102994 -40.533947370791374 -2.230621169623968 -40.552930081967254 -2.0985049348980467 -40.55984938264328 -2.08648661301524 -40.56312047406989 -2.074813935815839 -40.57108913186143 -2.063586705972684 -40.58374907696593 -2.0428459547963334 -40.62308902791456 -2.0250509168860615 -40.6810607816035 -1.969206243953226 -40.9184457225855 -1.9056130568325056 -41.16517563696929 -1.8322127809920312 -41.427071269629586 -1.74884493756517 -41.702218920868624 -1.6541144057484374 -41.99281051631095 -1.547344212434567 -42.298437757766486 -1.428887993808458 -42.61596224732406 -1.3280250034862173 -42.87169198226969 A42.892257163265796 42.892257163265796 0 0 1 -0.46842002830924645 -42.88969813964153 L-0.3569366621374125 -42.63841642677906 -0.22528780416563143 -42.32613089173985 -0.10581292591827263 -42.0252428089453 0.0010032241545899767 -41.73887301465196 0.09581992758616265 -41.467457797594456 0.1801228697404067 -41.20886557643509 0.25399225129083747 -40.965015092389315 0.3197285885465261 -40.730176910518885 0.3399356222687061 -40.67300118675303 0.36230556644604617 -40.63456427613962 0.37405309157853583 -40.62238558354717 0.38604922261119723 -40.614912716610895 0.3981939814756832 -40.61214776957279 0.5304840780562083 -40.61076699199645 0.8505573259604452 -40.60518265890889 1.1705836628441435 -40.59735881709033 1.3028155394973928 -40.59319864921394 1.3150654293096933 -40.59545260120688 1.3273639688854706 -40.602416567339986 1.339611180156377 -40.614092641855244 1.3635710728512613 -40.651559080731246 1.386154652381805 -40.707838468926106 1.4616673300874423 -40.93971790571542 1.5456833140713593 -41.18026116281321 1.6407410265325024 -41.4350963138455 1.7468402492520347 -41.70230294220325 1.8655546257574276 -41.9839485454193 1.9975245894039928 -42.27956960961319 2.1421351298899807 -42.58606833519022 2.26404329220484 -42.832461192459085 A42.892257163265796 42.892257163265796 0 0 1 3.1221402281595987 -42.77847430926212 L3.2122058946737466 -42.51874518908599 3.31726166149502 -42.19653879086027 3.4111398586755737 -41.8867085647781 3.4936185826937187 -41.59240496458887 3.5653913105899155 -41.31400758164439 3.627760151091214 -41.049267991415576 3.680965579722905 -40.80009149480299 3.726820617800416 -40.560576248559855 3.742172441355491 -40.50191016710273 3.7612476132055335 -40.46173619146064 3.77193485138317 -40.448617203689686 3.783263596907102 -40.44016673477642 3.795134397587792 -40.43639523756718 3.926844993690004 -40.42394955259606 4.245328414714155 -40.39160176545764 4.563577691980587 -40.35702624927358 4.694997698954913 -40.34181579343334 4.707393232521209 -40.343036796138854 4.720231369054726 -40.34894722339471 4.733412656365928 -40.35955752804724 4.760423629147251 -40.39488765470151 4.787637342713938 -40.449079917930774 4.882288358014057 -40.673827382883466 4.986137827098924 -40.90649674457681 5.102186214626694 -41.152483928495414 5.230272606823705 -41.40987527146164 5.3721381319627355 -41.680599340906944 5.528382191467302 -41.9641406584773 5.69813271477419 -42.2574637517329 5.840230950913923 -42.4927914624643 A42.892257163265796 42.892257163265796 0 0 1 6.6908009141825815 -42.36719021789462 L6.758817135100539 -42.10083550356775 6.836542920049517 -41.77096828853409 6.904165948061436 -41.45436915558755 6.961728717036759 -41.15419607780093 7.00995403528002 -40.870769286582565 7.0499513015242075 -40.60173928529463 7.082119579383353 -40.348984570205914 7.107771678137373 -40.10647228695099 7.118160609513374 -40.046727348212514 7.133807210411083 -40.0050980991159 7.14335919833682 -39.99113083643968 7.153941095341864 -39.9817620395172 7.165454672701143 -39.97701044647992 7.295661913127317 -39.95358715165189 7.61032157490292 -39.89470280694753 7.924561502533852 -39.833618138801526 8.054247822905475 -39.80746408541647 8.066702054463976 -39.807643574377856 8.079989737651639 -39.812459005355905 8.09401264374339 -39.82192911648207 8.12388523404445 -39.85487511546077 8.155538196999636 -39.90660013393499 8.268663641028565 -40.12263918506524 8.391618165804495 -40.34580264295457 8.527843232341034 -40.58121643640583 8.67701836000421 -40.82698707864505 8.841039949048264 -41.08489067948742 9.020462164594612 -41.354363411815655 9.214161992766984 -41.63245342200298 9.375453585702513 -41.85506533138886 A42.892257163265796 42.892257163265796 0 0 1 10.212530439126398 -41.65873072793275 L10.258020129528013 -41.387618706400566 10.30787074206918 -41.05240445606316 10.348764273958038 -40.73125713169372 10.381007326424967 -40.427320074776304 10.405346969057662 -40.14085191058259 10.42269210896003 -39.86941855039677 10.433597598690326 -39.61485850955426 10.438866827079103 -39.37105023870975 10.444219995386863 -39.31064551050849 10.456328275669009 -39.2678529872292 10.46467801301064 -39.25313541995992 10.47443883709239 -39.24291401040716 10.485514431657576 -39.23721565055299 10.613305006169893 -39.20297904345164 10.92193379725225 -39.1179711725511 11.229960207936427 -39.03080581750093 11.357003185347432 -38.993891618463884 11.36942875741211 -38.99302833469504 11.383072783703543 -38.996714992606854 11.397838947965056 -39.00497848418136 11.430363621028313 -39.03530926297334 11.466233810579492 -39.08420422285227 11.59704018962789 -39.29001950144026 11.73823733244628 -39.502111724211204 11.89368355702741 -39.72530086857865 12.062901063818373 -39.95772690562151 12.24792822316966 -40.20100102940453 12.449270076830413 -40.45451501888924 12.665560544746775 -40.71542134439424 12.844914149841506 -40.92375598983668 A42.892257163265796 42.892257163265796 0 0 1 13.662626400732737 -40.65806517367117 L13.685270483124139 -40.38409750097099 13.706896257028134 -40.04588750244485 13.720773454049693 -39.722444604388905 13.727470628161775 -39.416875468416514 13.727753870078844 -39.12937529959219 13.722325219945445 -38.85744249050559 13.711891427372015 -38.60286267969465 13.696740825544335 -38.35946856110453 13.697020682154422 -38.29882773920807 13.705505710934615 -38.255172100550524 13.712594630283968 -38.23980746184802 13.72146591627463 -38.22880513550892 13.732025840707653 -38.222199978737976 13.856503390243311 -38.17739020456316 14.156936501412458 -38.066855076602735 14.456588811195601 -37.95422043698584 14.580097330439706 -37.90680501888025 14.592407086550287 -37.90490501769655 14.606311752904277 -37.907437043285725 14.621717601302729 -37.9144359528525 14.656666219915591 -37.94193876283716 14.696502032455758 -37.98766070110825 14.844071833758852 -38.181808560852744 15.00252119811284 -38.38134187395062 15.176098237161083 -38.59074085774768 15.364171183852307 -38.808191987942216 15.568906080929805 -39.035130241479756 15.790755304265456 -39.27090726963426 16.028119289697862 -39.51279984004443 16.224276870277443 -39.70539590369389 A42.892257163265796 42.892257163265796 0 0 1 17.01688885472146 -39.3722125049958 L17.016528497134427 -39.09731086750611 17.00977774313541 -38.75847742092735 16.996541266723316 -38.435007668721376 16.977645586616067 -38.12994980163173 16.95387044107897 -37.8434342352925 16.92570607899001 -37.572909390577415 16.89400618967109 -37.32009550425555 16.858542028213083 -37.07882277278329 16.853746610132454 -37.01837120898688 16.85854887103028 -36.974158667889704 16.864327248711504 -36.958254729655 16.87224677091386 -36.94654865994369 16.882216954932122 -36.9390830366849 17.002508358918124 -36.88401440380668 17.2926384677601 -36.74872734328964 17.58181483098897 -36.61141347017506 17.700922568544424 -36.55382941809099 17.713030164606337 -36.55090602663559 17.7270979397789 -36.552265659561876 17.743035411356864 -36.55795089479901 17.78016283607031 -36.58243282352507 17.823684851996486 -36.62466103364249 17.98698297942689 -36.80577966680244 18.16157315687125 -36.99135448740035 18.35206349217261 -37.185494527208654 18.55767268217328 -37.386445487114976 18.780679248775815 -37.59545606161337 19.021479728883108 -37.811842321990724 19.27825229401954 -38.033024434724226 19.48983794559523 -38.2085309935743 A42.892257163265796 42.892257163265796 0 0 1 20.251790060012087 -37.81019205449355 L20.228427790096173 -37.536284689684784 20.193347859883033 -37.19920446822966 20.153090554408926 -36.87797676977269 20.108734559701773 -36.575569933319635 20.06106779227403 -36.29204867030223 20.010365270993496 -36.024829327372494 19.95762163687632 -35.77555467330572 19.902092671399647 -35.538095683808386 19.892255615040636 -35.47825740239766 19.893341423646323 -35.433798078070005 19.897768728491734 -35.417466395002855 19.904680937147713 -35.405138691587524 19.913991447073883 -35.39686496782403 20.029252947740527 -35.33192374313529 20.307045000000002 -35.17283369158753 20.583717052259477 -35.01180374313529 20.69758855292612 -34.94445496782403 20.70940906285229 -34.94052869158753 20.723541271508275 -34.940706395002856 20.739898576353685 -34.945038078070006 20.77894438495937 -34.96632740239765 20.825847328600357 -35.00476568380838 21.00372836312369 -35.171584673305716 21.193234729006512 -35.341899327372495 21.399302207725974 -35.51941867030222 21.621005440298234 -35.70245993331964 21.86071944559108 -35.892076769772686 22.118782140116977 -36.08755446822966 22.39316220990383 -36.28647468968479 22.618691811153912 -36.44366069132642 A42.892257163265796 42.892257163265796 0 0 1 23.344639508922782 -35.982960273314546 L23.298439196215675 -35.71196844454868 23.23527615029397 -35.37900582377888 23.168280391830912 -35.062273360573805 23.098775207956983 -34.76463872143606 23.027551166763583 -34.48610045969079 22.954666128048547 -34.22406097024023 22.881248707830192 -33.98007403102323 22.806044434130172 -33.748094387698096 22.79123473937522 -33.6892891112234 22.788596479521544 -33.644894853881446 22.791641657168675 -33.62824998100427 22.797498068100968 -33.61538711386696 22.80608359739751 -33.60636332382628 22.91550671813289 -33.532005023357996 23.179012202156578 -33.35022788318509 23.441239287788655 -33.16661136878372 23.54907582480587 -33.08997027351405 23.560526336212188 -33.085068652503224 23.574623851061844 -33.08406317994581 23.591286254433925 -33.087010927198556 23.631976568638855 -33.104958317814024 23.681931449544727 -33.139337053591824 23.87314768351116 -33.2906862840745 24.07624098683591 -33.444546136682774 24.29644019366953 -33.60419961209074 24.532682379930442 -33.76804727527416 24.78742240240075 -33.93694034781364 25.060937186960935 -34.11013834874609 25.351000182350468 -34.28540139649332 25.588891805164963 -34.423164294062985 A42.892257163265796 42.892257163265796 0 0 1 26.273743084778758 -33.90333387953952 L26.205028791279226 -33.63715839978797 26.114225673033506 -33.310648873254905 26.02096138869073 -33.000633295959126 25.926794544575497 -32.70985854728005 25.832512815091007 -32.43825703258359 25.737956495120226 -32.1832354153556 25.644380259253182 -31.946247584062608 25.550028181275618 -31.721374457430457 25.53034972749268 -31.66401466265474 25.524005904676937 -31.619996866116495 25.525647595392545 -31.603155555253196 25.530407130086285 -31.589847748164903 25.53820745743388 -31.580137187250603 25.64102467366644 -31.496883381054207 25.888395287812344 -31.293694188287766 26.134338072221208 -31.088779045857503 26.23538324976227 -31.00338321284619 26.246383445538402 -30.99754062841063 26.260347382644117 -30.995359032548023 26.27719800975513 -30.996902167657353 26.3192474162411 -31.011381736510646 26.37190383681484 -31.041459784525124 26.57511402573177 -31.176277649885574 26.790369712897967 -31.312603484717453 27.02315610862272 -31.45327123818453 27.27228017937544 -31.596776027901097 27.54025940079603 -31.743760672972662 27.82730776569692 -31.893464116846644 28.131019103186446 -32.04384064653235 28.379604108756205 -32.161214132286105 A42.892257163265796 42.892257163265796 0 0 1 29.01855523055337 -31.585899958111295 L28.92780893765916 -31.32640785711772 28.810002665721967 -31.008641654553227 28.691124037443842 -30.70751749969561 28.572956045839994 -30.42564221741582 28.456277946655412 -30.162882539248344 28.340713590074863 -29.916667587654985 28.227634908619308 -29.688341163647003 28.114796838399336 -29.472151877120044 28.090387655802754 -29.416639901790692 28.08038276738396 -29.373307319272136 28.080609455887227 -29.356387700117956 28.084238729626257 -29.34272829778377 28.09119914133309 -29.33239907860363 28.186689264165025 -29.240833732311803 28.416189881310455 -29.017657713147855 28.64412325257313 -28.792881275181525 28.73766831131844 -28.699329694840323 28.748141032994653 -28.692587128511942 28.761873445370696 -28.689244711671655 28.77879410117862 -28.68937241065351 28.821907653571596 -28.700282593972677 28.876896266856463 -28.725848978328056 29.090675037254954 -28.843189828107292 29.31658324427812 -28.9610254173814 29.560323999584796 -29.08172076568666 29.820582528468385 -29.20387609894457 30.099921267143806 -29.327921324871358 30.398489774349578 -29.453080149589862 30.71371913712291 -29.577515377903698 30.971253880241942 -29.673676161171702 A42.892257163265796 42.892257163265796 0 0 1 31.559823061188816 -29.046913642914724 L31.44768128894346 -28.795925071322763 31.303698189668744 -28.489131094323145 31.160039065618466 -28.199010531492608 31.018698790083512 -27.928011868190175 30.880442734231522 -27.675937096901468 30.744680941969737 -27.44025583192297 30.612892980629162 -27.222192361012105 30.482360396155343 -27.01620332710353 30.45339169762305 -26.962928547842186 30.439795920704963 -26.92058512627527 30.43860601693892 -26.903705877801848 30.44107957297559 -26.88979069111487 30.44715124675458 -26.878915265719904 30.53464448158379 -26.779680644447275 30.74466531979543 -26.538083218308508 30.952990489082417 -26.295022130016797 31.038379277656908 -26.19397099946508 31.048251066615272 -26.186375745502144 31.06165563125556 -26.181895952336788 31.07852762951737 -26.180607319474568 31.12240291722436 -26.187871590162576 31.179338017607428 -26.20874698104203 31.402185865012967 -26.30778775348812 31.637162008135665 -26.406306565210464 31.890147456753276 -26.506182917205034 32.159714917183116 -26.606131962109963 32.44845381256616 -26.706367680758472 32.75644821851994 -26.806103987092595 33.08098449908921 -26.903725090314524 33.34566255857299 -26.977998672293587 A42.892257163265796 42.892257163265796 0 0 1 33.879721408751614 -26.304184098691774 L33.74697075111365 -26.063459560996108 33.57782076249112 -25.76978974887884 33.41038880820496 -25.492707765372295 33.246867649218935 -25.234486581958024 33.0880034035945 -24.994864840953202 32.93299644707948 -24.771370397326635 32.78342360371317 -24.565099438082935 32.636112097278044 -24.3707555218627 32.602787077416274 -24.320091622968004 32.58569577660542 -24.279034371031315 32.58309762689003 -24.262313889038968 32.584398115005996 -24.248240523035758 32.58953846242809 -24.236895174721127 32.668421107076036 -24.13068733803595 32.857489021073604 -23.872363137279212 33.044744737003775 -23.612722297557337 33.12137831440736 -23.504880417870787 33.13057992714121 -23.496485751522666 33.14356262065595 -23.490900004562565 33.16026761642635 -23.488204078689918 33.204596885828444 -23.491771483107268 33.263079114488335 -23.50780945464272 33.49343292136734 -23.587855449897663 33.73582881177568 -23.66636644538967 33.99628444255197 -23.744723240225373 34.27327001247709 -23.8217649260406 34.56938376867525 -23.897488055863775 34.88464371391297 -23.971102265285015 35.216210523448964 -24.041224501516602 35.48617537288114 -24.093089906394635 A42.892257163265796 42.892257163265796 0 0 1 35.961977853178254 -23.376949602546695 L35.80954946062981 -23.148177608418916 35.61641904829554 -22.869691843914538 35.426388678633124 -22.607591970763156 35.24183361963652 -22.36395950330703 35.06347550277889 -22.13847156693126 34.89031064443826 -21.928731597598127 34.72400206507448 -21.735699992595215 34.56094492105253 -21.55436437699969 34.523497330931605 -21.506666729320422 34.503030389423095 -21.467183634136703 34.49904221791186 -21.450739200792956 34.49916051611737 -21.43660637002433 34.50333348133872 -21.424870678256845 34.57305223073032 -21.312434597823238 34.739841044942224 -21.039195581111155 34.904713843211375 -20.764796183898074 34.97205467995972 -20.650919988378412 34.98052157376708 -20.64178479219798 34.99299133188932 -20.635132271444707 35.00941215162552 -20.631047962544606 35.05388446474838 -20.630893477912487 35.113503610870474 -20.641981535256885 35.34974761077665 -20.70247128817693 35.597863015460646 -20.760423769215297 35.86396191928282 -20.816711390275636 36.14642274394407 -20.870305324929546 36.447834335715065 -20.92098472257867 36.76814849823482 -20.96796048429968 37.10442013379908 -21.01009199643651 37.37777816373037 -21.03918542566354 A42.892257163265796 42.892257163265796 0 0 1 37.79198686161029 -20.285742601254867 L37.62094990980544 -20.07052782186133 37.40519374483795 -19.809179482516086 37.19389788630583 -19.56390016201153 36.98960344843489 -19.336565317223066 36.793002514383694 -19.126792821337165 36.60289438127992 -18.932278501484376 36.42101660111036 -18.753840228738323 36.2433575482105 -18.586784852821456 36.20205005576907 -18.54238802108538 36.1783510344521 -18.504756028198777 36.173000815302665 -18.488702989388223 36.171936093820825 -18.4746098255076 36.17511240648868 -18.462566107732926 36.23517823368979 -18.34469044186992 36.37851804442194 -18.058453184582767 36.51985146081115 -17.771219944494238 36.577427209318785 -17.652108192833097 36.58509999502305 -17.642296543657935 36.59696935135907 -17.63462391176474 36.612990814808946 -17.629179868329544 36.65729423032935 -17.625304578246656 36.71763210843989 -17.631364946644485 36.958109219455004 -17.67187416507473 37.210203787121436 -17.708861636643775 37.48007947137099 -17.74268526670961 37.76603429103119 -17.7724555272578 38.07062953262267 -17.79773571317146 38.3937511387198 -17.8177435259758 38.73236889639967 -17.831588791731686 39.007202696657565 -17.83770617580528 A42.892257163265796 42.892257163265796 0 0 1 39.35691223571321 -17.052245690901216 L39.168466425978984 -16.852097703287765 38.93159788285493 -16.609719959923645 38.700518624084836 -16.382981650266302 38.47791778603587 -16.17353901874183 38.26445304908591 -15.980953366683107 38.0587351131802 -15.803029074506085 37.86256387415375 -15.640435750292488 37.67154906298421 -15.488832387487207 37.62667141060237 -15.448047783569873 37.59990654108376 -15.41253085437193 37.59323180223933 -15.396981810627745 37.59099152932633 -15.383027167053816 37.59314890988951 -15.37075990129874 37.64314049627954 -15.248271463108818 37.76202587774916 -14.951043713945277 37.87882855989038 -14.652991365783723 37.92623536764965 -14.529479541337334 37.93306022617199 -14.519060260836737 37.94424592571522 -14.51042133580358 37.95975565382408 -14.503655743886448 38.0035794151141 -14.496086830728327 38.06421279835085 -14.497077001049647 38.30723624632368 -14.517321541928633 38.561541714710096 -14.53308456349076 38.83330119536743 -14.544206954099426 39.12074424242491 -14.549944723554049 39.42638661706849 -14.54964837539185 39.750049200838774 -14.542547898848298 40.08863792036066 -14.528009803631775 40.36301972930417 -14.51110823349799 A42.892257163265796 42.892257163265796 0 0 1 40.645777148385044 -13.69913952904749 L40.441244292678604 -13.515462227541098 40.184924834038185 -13.293755185879633 39.935683030000185 -13.0871482934005 39.69633717671361 -12.897066964715842 39.467505938620384 -12.723019006460886 39.247621163424995 -12.562932753030829 39.038532465834585 -12.417324852695899 38.83550172805178 -12.282236891665422 38.78736870021642 -12.245350590259607 38.75772571882531 -12.212197850489778 38.74977327878309 -12.197261867181846 38.74637316834378 -12.18354362571289 38.7474964843277 -12.171138858032668 38.78706317484705 -12.044896815901906 38.88066023152215 -11.738763413964517 38.97211289252277 -11.431982580801973 39.00901823483899 -11.304937030275704 39.01494729470052 -11.293983202216143 39.02537087780558 -11.284438579895069 39.04026008097448 -11.276398895262231 39.08329679583599 -11.265189449516425 39.14380038458057 -11.261102476427867 39.387665534635694 -11.260940338847014 39.64239813359957 -11.255368344131679 39.914135213166794 -11.243711479704485 40.20105028117399 -11.225376511735396 40.50559592721529 -11.199505708166768 40.82752922818483 -11.165346747016589 41.16371395295694 -11.122527265119993 41.435719179339394 -11.08272529314956 A42.892257163265796 42.892257163265796 0 0 1 41.64954113831155 -10.249943746215664 L41.43035588765901 -10.084025495114439 41.156383410339316 -9.884544270756594 40.890727313208735 -9.699517994359564 40.636315283875625 -9.530131252462196 40.393722631359324 -9.375841809384882 40.161213350585264 -9.234716484747786 39.94067380141447 -9.107115343093241 39.727051251766554 -8.989490328823631 39.676000467084414 -8.956761060830928 39.64368729803682 -8.926205053138485 39.63451293744987 -8.911986895458224 39.629976838816006 -8.898601279701603 39.63005821096614 -8.886146020628697 39.65892247370944 -8.757035871777859 39.726574689486846 -8.44414412292467 39.7920358546386 -8.130786651884048 39.818180867051865 -8.001098508532735 39.823172540157685 -7.989686966147736 39.832760892878426 -7.979303595206525 39.84692513404499 -7.970046210469175 39.88887293084509 -7.955274858343614 39.94882233589422 -7.94613940902491 40.19181864922087 -7.925571730262849 40.445191612605605 -7.898703802809511 40.71500025071238 -7.864349447874962 40.99937483661541 -7.82207034910881 41.300687585163196 -7.770806555232646 41.61863347253444 -7.709828710045125 41.9500561082609 -7.639028189368204 42.2177768308547 -7.576604997796817 A42.892257163265796 42.892257163265796 0 0 1 42.3611635223068 -6.728851972578553 L42.12886330375713 -6.581856569201876 41.839159527837595 -6.406000379609459 41.55895252426217 -6.243852545682259 41.29125883647348 -6.096348516862388 41.036606382688944 -5.962899818549092 40.79310348188315 -5.841725315458877 40.56266000761195 -5.733025962812134 40.33994405479712 -5.633688950265033 40.28633359784281 -5.6053462879844655 40.251576894802604 -5.577601340808908 40.2412449652187 -5.564200738916712 40.235604695863 -5.551241639349406 40.234643553412184 -5.538823253577124 40.25260292631524 -5.407750612934885 40.293835769509315 -5.090295227971687 40.33284627577245 -4.772559096565304 40.34804756980584 -4.641138029533757 40.352066843155626 -4.629348816593968 40.36075271008693 -4.618199528919332 40.374092637276384 -4.60778937797998 40.41465728235997 -4.589559729896624 40.47363200171082 -4.575439882960933 40.714055033763614 -4.534610930506323 40.964291132279286 -4.486635529521484 41.23027881518652 -4.4298246551958815 41.510118235588145 -4.36389798313302 41.806084594204265 -4.287600777630372 42.117812906021115 -4.20023176417698 42.442148761039135 -4.101946819502181 42.703707111332356 -4.017340262167712 A42.892257163265796 42.892257163265796 0 0 1 42.77565278064709 -3.160562137027279 L42.53186701332591 -3.0335206485137824 42.22846400264275 -2.882522998504286 41.9356715434241 -2.7443909575988594 41.65657387606203 -2.619804276637155 41.39164782500501 -2.5081323698237874 41.13885930206004 -2.4077586403558735 40.900128298087054 -2.318723524575369 40.6698811344931 -2.2383712915202527 40.6140870441031 -2.214614038363542 40.57713060036945 -2.1898747625745916 40.565713572851124 -2.177385712064416 40.55900869521062 -2.1649440274587897 40.557011779882565 -2.152649621040723 40.56394029084824 -2.020533869005629 40.578464542689744 -1.700741569366559 40.590750759391824 -1.3808554682631358 40.594901708889815 -1.2486233019106743 40.597920390168866 -1.2365391112743285 40.605642846194996 -1.2247021111085523 40.618064889402824 -1.2132122136963555 40.65696185093027 -1.1916521375385254 40.71454821929989 -1.1726469335670044 40.9507115752527 -1.1118430931857537 41.196055582462606 -1.0430967316370465 41.45635659768659 -0.9642278253852256 41.72969798011703 -0.8751160082619268 42.01824195744734 -0.7743205612099304 42.32156614357888 -0.6611732103454939 42.636540234900494 -0.5360932399420737 42.89010156899525 -0.4298967710544963 A42.892257163265796 42.892257163265796 0 0 1 42.89010156899525 0.42989677105448054 L42.636540234900494 0.5360932399420579 42.32156614357888 0.6611732103454784 42.01824195744734 0.7743205612099149 41.72969798011703 0.8751160082619115 41.45635659768659 0.9642278253852102 41.196055582462606 1.0430967316370314 40.9507115752527 1.1118430931857388 40.71454821929989 1.1726469335669893 40.65696185093027 1.1916521375385103 40.618064889402824 1.2132122136963406 40.605642846194996 1.2247021111085377 40.597920390168866 1.2365391112743136 40.594901708889815 1.2486233019106594 40.590750759391824 1.380855468263121 40.578464542689744 1.7007415693665442 40.56394029084824 2.020533869005614 40.557011779882565 2.1526496210407084 40.55900869521062 2.164944027458775 40.565713572851124 2.177385712064401 40.57713060036945 2.1898747625745765 40.6140870441031 2.2146140383635275 40.6698811344931 2.2383712915202376 40.900128298087054 2.318723524575354 41.13885930206004 2.4077586403558584 41.39164782500501 2.5081323698237723 41.65657387606203 2.61980427663714 41.9356715434241 2.744390957598844 42.22846400264275 2.88252299850427 42.53186701332591 3.0335206485137665 42.77565278064709 3.1605621370272634 A42.892257163265796 42.892257163265796 0 0 1 42.703707111332356 4.017340262167696 L42.442148761039135 4.1019468195021656 42.11781290602112 4.200231764176965 41.80608459420427 4.287600777630357 41.51011823558815 4.363897983133005 41.23027881518652 4.429824655195866 40.96429113227929 4.48663552952147 40.71405503376362 4.534610930506308 40.47363200171082 4.575439882960918 40.41465728235996 4.589559729896609 40.374092637276384 4.607789377979966 40.36075271008693 4.618199528919317 40.35206684315563 4.629348816593954 40.34804756980585 4.641138029533743 40.332846275772454 4.77255909656529 40.29383576950932 5.090295227971673 40.25260292631525 5.407750612934871 40.23464355341219 5.538823253577109 40.23560469586301 5.551241639349392 40.2412449652187 5.564200738916697 40.251576894802604 5.577601340808894 40.28633359784282 5.6053462879844504 40.33994405479712 5.633688950265018 40.56266000761196 5.7330259628121185 40.79310348188316 5.841725315458863 41.036606382688944 5.962899818549077 41.29125883647349 6.096348516862373 41.558952524262175 6.243852545682244 41.8391595278376 6.406000379609444 42.12886330375713 6.581856569201861 42.36116352230682 6.728851972578539 A42.892257163265796 42.892257163265796 0 0 1 42.21777683085471 7.576604997796764 L41.95005610826091 7.639028189368152 41.618633472534455 7.709828710045072 41.30068758516321 7.7708065552325944 40.99937483661542 7.822070349108759 40.715000250712386 7.864349447874912 40.44519161260561 7.898703802809458 40.19181864922088 7.925571730262798 39.94882233589423 7.94613940902486 39.888872930845096 7.955274858343564 39.846925134044994 7.970046210469125 39.83276089287843 7.979303595206475 39.82317254015769 7.989686966147686 39.81818086705187 8.001098508532685 39.79203585463861 8.130786651883998 39.72657468948685 8.44414412292462 39.65892247370945 8.75703587177781 39.63005821096615 8.886146020628647 39.62997683881601 8.898601279701554 39.63451293744988 8.911986895458174 39.643687298036824 8.926205053138435 39.67600046708442 8.956761060830878 39.72705125176656 8.989490328823582 39.940673801414476 9.107115343093191 40.16121335058527 9.234716484747734 40.39372263135933 9.375841809384832 40.63631528387563 9.530131252462144 40.89072731320875 9.699517994359512 41.15638341033933 9.884544270756543 41.43035588765902 10.084025495114387 41.649541138311555 10.24994374621561 A42.892257163265796 42.892257163265796 0 0 1 41.43571917933941 11.082725293149506 L41.163713952956954 11.122527265119938 40.827529228184844 11.165346747016535 40.5055959272153 11.199505708166717 40.201050281174005 11.225376511735345 39.91413521316681 11.243711479704432 39.642398133599585 11.255368344131629 39.38766553463571 11.260940338846964 39.14380038458059 11.261102476427817 39.083296795836006 11.265189449516376 39.04026008097449 11.276398895262181 39.02537087780559 11.284438579895019 39.014947294700534 11.293983202216094 39.009018234839004 11.304937030275655 38.97211289252279 11.431982580801924 38.880660231522164 11.738763413964467 38.78706317484706 12.044896815901856 38.74749648432771 12.171138858032618 38.746373168343794 12.18354362571284 38.7497732787831 12.197261867181796 38.75772571882533 12.212197850489728 38.78736870021643 12.245350590259557 38.835501728051796 12.282236891665372 39.0385324658346 12.417324852695849 39.24762116342501 12.562932753030779 39.4675059386204 12.723019006460836 39.69633717671363 12.89706696471579 39.9356830300002 13.087148293400448 40.1849248340382 13.293755185879583 40.44124429267862 13.515462227541047 40.64577714838506 13.699139529047438 A42.892257163265796 42.892257163265796 0 0 1 40.36301972930419 14.51110823349794 L40.08863792036068 14.528009803631724 39.75004920083879 14.542547898848246 39.42638661706851 14.549648375391799 39.12074424242492 14.549944723553999 38.83330119536745 14.544206954099378 38.56154171471011 14.53308456349071 38.307236246323704 14.517321541928585 38.06421279835087 14.497077001049597 38.003579415114125 14.496086830728279 37.959755653824104 14.503655743886402 37.94424592571524 14.510421335803532 37.933060226172 14.519060260836689 37.92623536764967 14.529479541337286 37.8788285598904 14.652991365783675 37.762025877749174 14.951043713945229 37.643140496279564 15.24827146310877 37.59314890988952 15.370759901298696 37.590991529326345 15.383027167053768 37.593231802239345 15.396981810627697 37.59990654108378 15.412530854371884 37.62667141060239 15.448047783569825 37.671549062984234 15.488832387487161 37.86256387415377 15.64043575029244 38.05873511318021 15.803029074506039 38.26445304908592 15.980953366683059 38.47791778603589 16.17353901874178 38.70051862408486 16.382981650266252 38.931597882854945 16.609719959923595 39.168466425979005 16.852097703287715 39.35691223571323 17.052245690901167 A42.892257163265796 42.892257163265796 0 0 1 39.00720269665757 17.837706175805266 L38.73236889639968 17.831588791731676 38.3937511387198 17.81774352597579 38.070629532622675 17.797735713171445 37.76603429103119 17.772455527257787 37.480079471371 17.7426852667096 37.210203787121436 17.70886163664376 36.958109219455004 17.67187416507472 36.717632108439894 17.631364946644474 36.657294230329356 17.625304578246645 36.61299081480895 17.629179868329533 36.59696935135907 17.634623911764727 36.58509999502305 17.642296543657924 36.57742720931879 17.652108192833087 36.519851460811154 17.771219944494227 36.37851804442194 18.058453184582756 36.235178233689794 18.344690441869908 36.17511240648869 18.462566107732915 36.171936093820825 18.47460982550759 36.173000815302665 18.488702989388216 36.178351034452106 18.504756028198766 36.20205005576908 18.54238802108537 36.243357548210504 18.586784852821445 36.42101660111036 18.753840228738312 36.60289438127992 18.93227850148437 36.7930025143837 19.126792821337155 36.98960344843489 19.33656531722305 37.193897886305834 19.563900162011517 37.40519374483795 19.809179482516075 37.62094990980545 20.07052782186132 37.7919868616103 20.285742601254853 A42.892257163265796 42.892257163265796 0 0 1 37.37777816373037 21.039185425663526 L37.10442013379908 21.010091996436497 36.76814849823483 20.967960484299667 36.44783433571507 20.92098472257866 36.14642274394408 20.870305324929536 35.863961919282836 20.816711390275625 35.59786301546065 20.760423769215283 35.34974761077667 20.702471288176916 35.11350361087048 20.64198153525687 35.05388446474839 20.630893477912476 35.009412151625526 20.631047962544592 34.99299133188933 20.635132271444693 34.98052157376709 20.641784792197967 34.97205467995973 20.650919988378398 34.90471384321138 20.764796183898063 34.73984104494224 21.03919558111114 34.573052230730326 21.312434597823227 34.503333481338736 21.42487067825683 34.499160516117385 21.436606370024315 34.499042217911864 21.450739200792942 34.5030303894231 21.46718363413669 34.52349733093162 21.50666672932041 34.56094492105254 21.554364376999676 34.724002065074494 21.7356999925952 34.890310644438266 21.928731597598112 35.06347550277891 22.138471566931248 35.24183361963653 22.36395950330702 35.42638867863313 22.607591970763146 35.61641904829555 22.869691843914524 35.809549460629825 23.1481776084189 35.96197785317827 23.37694960254668 A42.892257163265796 42.892257163265796 0 0 1 35.486175372881156 24.09308990639462 L35.21621052344898 24.041224501516588 34.88464371391298 23.971102265285 34.569383768675266 23.89748805586376 34.273270012477106 23.821764926040586 33.996284442551975 23.74472324022536 33.73582881177569 23.666366445389656 33.493432921367344 23.587855449897653 33.26307911448834 23.507809454642707 33.20459688582845 23.491771483107257 33.16026761642636 23.488204078689904 33.14356262065596 23.49090000456255 33.13057992714122 23.496485751522656 33.121378314407366 23.504880417870776 33.04474473700378 23.612722297557326 32.85748902107361 23.8723631372792 32.66842110707604 24.13068733803594 32.589538462428095 24.236895174721116 32.584398115006 24.248240523035747 32.583097626890044 24.262313889038953 32.58569577660543 24.2790343710313 32.60278707741628 24.320091622967993 32.63611209727805 24.370755521862687 32.783423603713175 24.565099438082925 32.93299644707949 24.77137039732662 33.088003403594506 24.994864840953188 33.24686764921895 25.23448658195801 33.41038880820497 25.49270776537228 33.57782076249113 25.769789748878825 33.746970751113665 26.063459560996094 33.87972140875163 26.30418409869176 A42.892257163265796 42.892257163265796 0 0 1 33.345662558573004 26.977998672293573 L33.08098449908922 26.90372509031451 32.75644821851996 26.806103987092584 32.44845381256617 26.70636768075846 32.15971491718313 26.606131962109952 31.89014745675329 26.506182917205027 31.63716200813568 26.40630656521045 31.40218586501298 26.307787753488114 31.17933801760744 26.20874698104202 31.122402917224374 26.18787159016257 31.07852762951738 26.180607319474557 31.061655631255576 26.181895952336777 31.048251066615286 26.186375745502133 31.038379277656922 26.19397099946507 30.952990489082428 26.29502213001679 30.744665319795445 26.538083218308497 30.5346444815838 26.779680644447268 30.447151246754594 26.878915265719893 30.441079572975603 26.88979069111486 30.438606016938934 26.903705877801837 30.439795920704974 26.92058512627526 30.453391697623065 26.96292854784218 30.482360396155354 27.01620332710352 30.612892980629177 27.222192361012098 30.74468094196975 27.44025583192296 30.880442734231536 27.67593709690146 31.018698790083526 27.928011868190165 31.16003906561848 28.199010531492597 31.303698189668758 28.489131094323135 31.447681288943475 28.795925071322756 31.55982306118883 29.046913642914717 A42.892257163265796 42.892257163265796 0 0 1 30.971253880241985 29.673676161171663 L30.713719137122954 29.57751537790366 30.39848977434962 29.453080149589827 30.09992126714385 29.32792132487132 29.820582528468428 29.20387609894453 29.56032399958484 29.081720765686626 29.31658324427816 28.961025417381364 29.090675037254993 28.84318982810725 28.876896266856505 28.725848978328017 28.821907653571635 28.70028259397264 28.778794101178658 28.689372410653476 28.76187344537074 28.689244711671616 28.748141032994692 28.692587128511903 28.737668311318483 28.699329694840287 28.644123252573173 28.79288127518149 28.416189881310494 29.01765771314782 28.186689264165068 29.240833732311767 28.09119914133313 29.332399078603594 28.084238729626296 29.342728297783736 28.08060945588727 29.356387700117924 28.080382767384 29.3733073192721 28.090387655802793 29.416639901790656 28.11479683839938 29.472151877120005 28.227634908619347 29.688341163646967 28.340713590074902 29.91666758765495 28.456277946655455 30.162882539248308 28.572956045840037 30.42564221741578 28.691124037443885 30.707517499695577 28.81000266572201 31.00864165455319 28.927808937659204 31.32640785711768 29.018555230553414 31.585899958111256 A42.892257163265796 42.892257163265796 0 0 1 28.379604108756247 32.16121413228607 L28.13101910318649 32.043840646532324 27.82730776569696 31.89346411684661 27.540259400796074 31.74376067297263 27.27228017937548 31.59677602790107 27.02315610862276 31.4532712381845 26.790369712898006 31.31260348471742 26.57511402573181 31.17627764988554 26.371903836814884 31.041459784525088 26.319247416241144 31.011381736510614 26.277198009755168 30.99690216765732 26.260347382644156 30.99535903254799 26.24638344553844 30.997540628410594 26.235383249762307 31.00338321284616 26.13433807222125 31.088779045857475 25.888395287812383 31.293694188287734 25.641024673666482 31.49688338105418 25.53820745743392 31.58013718725057 25.530407130086324 31.589847748164875 25.525647595392584 31.603155555253164 25.524005904676976 31.619996866116463 25.530349727492723 31.664014662654708 25.55002818127566 31.72137445743043 25.64438025925322 31.946247584062576 25.737956495120265 32.18323541535557 25.832512815091047 32.43825703258356 25.926794544575543 32.70985854728003 26.020961388690772 33.0006332959591 26.11422567303355 33.31064887325487 26.20502879127927 33.63715839978794 26.2737430847788 33.90333387953948 A42.892257163265796 42.892257163265796 0 0 1 25.588891805165005 34.42316429406296 L25.351000182350507 34.28540139649329 25.060937186960977 34.11013834874606 24.787422402400793 33.93694034781361 24.532682379930485 33.76804727527412 24.29644019366957 33.60419961209071 24.076240986835952 33.444546136682746 23.8731476835112 33.29068628407447 23.681931449544766 33.139337053591795 23.631976568638894 33.104958317814 23.591286254433967 33.08701092719853 23.574623851061887 33.08406317994578 23.560526336212227 33.085068652503196 23.549075824805907 33.08997027351402 23.441239287788694 33.16661136878369 23.179012202156617 33.35022788318506 22.915506718132928 33.53200502335797 22.80608359739755 33.60636332382625 22.797498068101007 33.61538711386693 22.791641657168718 33.62824998100424 22.788596479521587 33.64489485388142 22.79123473937526 33.68928911122338 22.80604443413021 33.74809438769807 22.88124870783023 33.98007403102321 22.95466612804859 34.2240609702402 23.027551166763626 34.48610045969076 23.098775207957026 34.764638721436036 23.168280391830955 35.062273360573776 23.235276150294013 35.379005823778854 23.29843919621572 35.71196844454865 23.344639508922825 35.98296027331452 A42.892257163265796 42.892257163265796 0 0 1 22.618691811153926 36.44366069132641 L22.393162209903846 36.28647468968478 22.11878214011699 36.087554468229655 21.860719445591094 35.89207676977267 21.621005440298248 35.70245993331963 21.399302207725988 35.51941867030221 21.193234729006527 35.34189932737249 21.003728363123706 35.1715846733057 20.82584732860037 35.00476568380837 20.778944384959384 34.966327402397646 20.7398985763537 34.94503807806999 20.72354127150829 34.94070639500285 20.709409062852306 34.94052869158752 20.697588552926135 34.944454967824015 20.58371705225949 35.01180374313528 20.307045000000016 35.17283369158752 20.02925294774054 35.331923743135285 19.913991447073897 35.396864967824015 19.904680937147727 35.405138691587524 19.897768728491748 35.41746639500285 19.893341423646337 35.43379807806999 19.89225561504065 35.47825740239765 19.90209267139966 35.53809568380838 19.957621636876333 35.775554673305706 20.01036527099351 36.02482932737249 20.061067792274045 36.292048670302215 20.108734559701787 36.57556993331963 20.15309055440894 36.87797676977267 20.193347859883048 37.19920446822965 20.228427790096188 37.53628468968478 20.2517900600121 37.810192054493534 A42.892257163265796 42.892257163265796 0 0 1 19.489837945595244 38.20853099357429 L19.278252294019556 38.03302443472422 19.021479728883122 37.811842321990724 18.78067924877583 37.59545606161336 18.557672682173294 37.38644548711497 18.352063492172626 37.18549452720865 18.16157315687126 36.99135448740034 17.986982979426905 36.80577966680243 17.8236848519965 36.62466103364248 17.780162836070325 36.58243282352506 17.74303541135688 36.55795089479901 17.727097939778915 36.552265659561876 17.71303016460635 36.55090602663558 17.700922568544435 36.553829418090984 17.581814830988986 36.61141347017506 17.292638467760113 36.74872734328963 17.00250835891814 36.88401440380668 16.882216954932133 36.93908303668489 16.872246770913875 36.94654865994368 16.86432724871152 36.958254729655 16.858548871030294 36.974158667889704 16.853746610132468 37.01837120898687 16.858542028213098 37.07882277278328 16.894006189671103 37.32009550425554 16.92570607899002 37.57290939057741 16.953870441078983 37.84343423529249 16.97764558661608 38.129949801631724 16.99654126672333 38.43500766872137 17.009777743135423 38.75847742092735 17.01652849713444 39.0973108675061 17.016888854721476 39.372212504995794 A42.892257163265796 42.892257163265796 0 0 1 16.224276870277457 39.70539590369389 L16.02811928969788 39.51279984004442 15.790755304265472 39.27090726963425 15.568906080929821 39.03513024147975 15.364171183852322 38.808191987942216 15.1760982371611 38.590740857747676 15.002521198112856 38.38134187395061 14.844071833758868 38.18180856085274 14.696502032455774 37.98766070110824 14.656666219915607 37.94193876283716 14.621717601302745 37.91443595285249 14.606311752904293 37.90743704328572 14.592407086550303 37.90490501769654 14.580097330439722 37.90680501888024 14.456588811195617 37.95422043698584 14.156936501412474 38.06685507660273 13.856503390243327 38.17739020456316 13.732025840707669 38.22219997873797 13.721465916274646 38.228805135508914 13.712594630283984 38.23980746184801 13.70550571093463 38.25517210055052 13.697020682154438 38.29882773920807 13.696740825544351 38.35946856110452 13.71189142737203 38.602862679694645 13.72232521994546 38.85744249050558 13.72775387007886 39.12937529959218 13.727470628161791 39.416875468416514 13.72077345404971 39.7224446043889 13.70689625702815 40.04588750244484 13.685270483124157 40.38409750097098 13.662626400732755 40.65806517367117 A42.892257163265796 42.892257163265796 0 0 1 12.844914149841555 40.92375598983666 L12.665560544746825 40.71542134439422 12.449270076830462 40.454515018889225 12.24792822316971 40.201001029404516 12.062901063818423 39.9577269056215 11.893683557027458 39.725300868578636 11.738237332446328 39.50211172421119 11.597040189627938 39.29001950144024 11.466233810579538 39.08420422285226 11.43036362102836 39.03530926297333 11.397838947965104 39.00497848418134 11.383072783703591 38.99671499260684 11.369428757412157 38.993028334695026 11.35700318534748 38.99389161846387 11.229960207936474 39.03080581750091 10.921933797252297 39.11797117255109 10.61330500616994 39.20297904345163 10.485514431657624 39.237215650552976 10.474438837092437 39.24291401040715 10.464678013010689 39.253135419959904 10.456328275669057 39.26785298722918 10.44421999538691 39.31064551050848 10.43886682707915 39.371050238709735 10.433597598690374 39.61485850955425 10.422692108960078 39.86941855039676 10.40534696905771 40.140851910582576 10.381007326425017 40.42732007477629 10.348764273958087 40.7312571316937 10.30787074206923 41.052404456063144 10.258020129528063 41.38761870640055 10.212530439126448 41.65873072793274 A42.892257163265796 42.892257163265796 0 0 1 9.375453585702566 41.85506533138884 L9.214161992767037 41.632453422002975 9.020462164594663 41.35436341181565 8.841039949048316 41.084890679487415 8.677018360004261 40.82698707864504 8.527843232341086 40.581216436405825 8.391618165804545 40.34580264295456 8.268663641028617 40.12263918506523 8.155538196999688 39.90660013393497 8.123885234044499 39.854875115460764 8.094012643743442 39.82192911648205 8.07998973765169 39.8124590053559 8.066702054464027 39.80764357437785 8.054247822905525 39.80746408541646 7.924561502533902 39.83361813880152 7.6103215749029705 39.89470280694752 7.2956619131273674 39.95358715165188 7.165454672701194 39.977010446479916 7.1539410953419145 39.98176203951719 7.143359198336871 39.99113083643967 7.133807210411135 40.0050980991159 7.118160609513424 40.04672734821251 7.107771678137424 40.10647228695099 7.082119579383404 40.34898457020591 7.049951301524259 40.60173928529462 7.009954035280072 40.87076928658256 6.96172871703681 41.154196077800925 6.904165948061489 41.45436915558754 6.83654292004957 41.770968288534085 6.758817135100593 42.100835503567744 6.690800914182636 42.3671902178946 A42.892257163265796 42.892257163265796 0 0 1 5.840230950913976 42.49279146246429 L5.6981327147742435 42.25746375173289 5.528382191467355 41.96414065847729 5.372138131962788 41.68059934090693 5.230272606823758 41.40987527146163 5.102186214626745 41.15248392849541 4.986137827098975 40.906496744576806 4.882288358014108 40.67382738288346 4.787637342713989 40.44907991793077 4.760423629147302 40.394887654701506 4.733412656365979 40.35955752804724 4.720231369054777 40.34894722339471 4.70739323252126 40.34303679613885 4.694997698954965 40.341815793433334 4.563577691980638 40.35702624927358 4.245328414714206 40.39160176545763 3.9268449936900547 40.42394955259606 3.7951343975878435 40.436395237567176 3.7832635969071524 40.44016673477641 3.7719348513832207 40.448617203689686 3.761247613205584 40.46173619146064 3.7421724413555415 40.50191016710272 3.726820617800467 40.56057624855985 3.6809655797229563 40.800091494802984 3.627760151091266 41.04926799141557 3.565391310589967 41.31400758164438 3.493618582693771 41.592404964588866 3.411139858675626 41.8867085647781 3.317261661495073 42.196538790860274 3.2122058946738 42.51874518908598 3.122140228159652 42.778474309262116 A42.892257163265796 42.892257163265796 0 0 1 2.2640432922048745 42.832461192459085 L2.1421351298900153 42.58606833519022 1.997524589404027 42.27956960961318 1.8655546257574618 41.9839485454193 1.7468402492520685 41.70230294220325 1.640741026532536 41.4350963138455 1.5456833140713926 41.18026116281321 1.4616673300874754 40.93971790571542 1.3861546523818378 40.707838468926106 1.3635710728512942 40.651559080731246 1.33961118015641 40.614092641855244 1.3273639688855035 40.602416567339986 1.3150654293097261 40.59545260120688 1.3028155394974257 40.59319864921394 1.1705836628441761 40.59735881709033 0.8505573259604781 40.60518265890889 0.5304840780562411 40.61076699199645 0.39819398147571605 40.61214776957279 0.3860492226112301 40.614912716610895 0.3740530915785686 40.62238558354717 0.36230556644607903 40.63456427613962 0.33993562226873897 40.67300118675303 0.31972858854655895 40.730176910518885 0.25399225129087055 40.965015092389315 0.18012286974044 41.20886557643509 0.09581992758619617 41.467457797594456 0.0010032241546237275 41.73887301465196 -0.10581292591823865 42.0252428089453 -0.22528780416559724 42.32613089173986 -0.35693666213737807 42.63841642677906 -0.4684200283092118 42.88969813964153 A42.892257163265796 42.892257163265796 0 0 1 -1.3280250034861831 42.87169198226969 L-1.4288879938084238 42.61596224732406 -1.5473442124345334 42.298437757766486 -1.6541144057484036 41.992810516310946 -1.7488449375651363 41.702218920868624 -1.832212780991998 41.427071269629586 -1.9056130568324727 41.16517563696929 -1.9692062439531928 40.9184457225855 -2.0250509168860287 40.6810607816035 -2.0428459547963005 40.62308902791456 -2.063586705972651 40.58374907696593 -2.074813935815806 40.57108913186143 -2.0864866130152073 40.56312047406989 -2.098504934898014 40.55984938264327 -2.2306211696239355 40.552930081967254 -2.5501798113102665 40.533947370791374 -2.8695978022328523 40.51272907974381 -3.001539479314482 40.503035264762765 -3.0138730096053257 40.50477426751286 -3.026452381906731 40.51121711567984 -3.0391777935458553 40.52237008831564 -3.0646856009648706 40.55880032658928 -3.0896061070313285 40.614084646042365 -3.1747626502908393 40.842598542425264 -3.2687778441235116 41.07941257796498 -3.374423563363069 41.33004359142172 -3.4916191712811524 41.59257285985614 -3.6220235088632693 41.86900016990305 -3.7662570377491096 42.158835595696964 -3.9235755647223005 42.4590098088982 -4.055694654838812 42.70008155377696 A42.892257163265796 42.892257163265796 0 0 1 -4.910778157962433 42.61020865609286 L-4.989888494884903 42.34693580381956 -5.0813595063881465 42.02061275643466 -5.162181013177504 41.70712309322341 -5.232263233688675 41.40962379680707 -5.292314932300939 41.12846508576687 -5.343542921323749 40.861345981169926 -5.386267251065263 40.61016004257435 -5.422052208969015 40.3689346821998 -5.434933885853793 40.30967719321625 -5.452310014044316 40.26873967168519 -5.462438511509122 40.25518465641019 -5.4734034508884015 40.24626720136916 -5.485105904948858 40.24200191486496 -5.616179797286234 40.22405167955926 -5.933029269506336 40.178395565468776 -6.249551515742457 40.13052348135246 -6.38021929726043 40.10982306896112 -6.39265508812427 40.110523929568394 -6.405729466435991 40.11589156701536 -6.419343504962296 40.12594058960486 -6.447810256681278 40.16010862359234 -6.477269435647317 40.21311375895342 -6.581248872944576 40.43370050905267 -6.694750430024577 40.661817015777665 -6.820997897535327 40.902728825050524 -6.959750366955305 41.15453069067081 -7.112828199313924 41.41907657750405 -7.280808684264759 41.695826359031855 -7.462693403805849 41.981783743964385 -7.614521497377307 42.210954575778906 A42.892257163265796 42.892257163265796 0 0 1 -8.459085732049816 42.04984533158621 L-8.515888513399702 41.78087603188266 -8.579732714356217 41.448043348385056 -8.634038629821106 41.12889016816351 -8.678980962603836 40.82656991458455 -8.715295296882822 40.541372270088885 -8.743991671552232 40.27090334214922 -8.765547463438791 40.017023268224264 -8.781021700545223 39.77364951104002 -8.78889966069663 39.71352193547063 -8.802789284846801 39.671273990657106 -8.81174800580086 39.6569189839045 -8.821928296188567 39.6471152811539 -8.833232798119642 39.64188571749234 -8.962344958890187 39.6130304555604 -9.274262790252466 39.54102118339179 -9.5856691156657 39.466831094480746 -9.714146461017336 39.43526928319882 -9.726597284316366 39.43492708562968 -9.740074961268474 39.43918186223659 -9.754482133983371 39.448056448106534 -9.785708156192344 39.47972261359913 -9.819499373083909 39.53007677192778 -9.941572363375398 39.7411891181828 -10.073764151830568 39.959008022699884 -10.219727832336602 40.18851080454169 -10.379063914379005 40.42781905817992 -10.553741510506402 40.67862792247932 -10.744290689114115 40.94035085886803 -10.949465810599513 41.210085629936664 -11.119937942637849 41.42574807996078 A42.892257163265796 42.892257163265796 0 0 1 -11.948058897571546 41.19453255485069 L-11.982155692650421 40.92175343410012 -12.01792526186249 40.58474569662458 -12.04533466902467 40.262167629640764 -12.06482187590551 39.95714697826125 -12.077144126888069 39.66991085687202 -12.08310760275409 39.39798925078749 -12.083343658393426 39.14319582783914 -12.078398634047458 38.89938076588804 -12.081217619235339 38.83880485547383 -12.091523313611425 38.7955428263556 -12.099249419064074 38.7804885181837 -12.108573653037672 38.76986733365439 -12.119400909880593 38.763710174467114 -12.24564571004346 38.7241522848389 -12.550444021073563 38.62629494789785 -12.854550134036268 38.52630724436029 -12.979935866954772 38.48410541761678 -12.992314389109454 38.482722562141305 -13.006100828481829 38.4858346337073 -13.021200079420264 38.4934725340142 -13.054966344009294 38.5224147156131 -13.092852577718846 38.56976469866807 -13.232162866686993 38.76992183965387 -13.382117656100988 38.97591529885052 -13.546773719258319 39.1923992561442 -13.725575785790435 39.417535322343824 -13.920627907855456 39.65284792013224 -14.132409214541507 39.89770821303077 -14.359435581912114 40.149328374620616 -14.547356012895136 40.349969725720676 A42.892257163265796 42.892257163265796 0 0 1 -15.353225014595319 40.05026973047368 L-15.364376658884222 39.77559413821664 -15.371820698524225 39.43677521390184 -15.372141340086085 39.113034913523606 -15.366036732310306 38.80745336505593 -15.354280468259315 38.52019352178583 -15.337469215823498 38.24872657224769 -15.316383879454905 37.994806993069126 -15.291054279449328 37.75226081382987 -15.288794516518031 37.691661465058665 -15.295443994078616 37.64768880368627 -15.301883290951304 37.6320407892504 -15.310286065708919 37.62067662292053 -15.320560132036304 37.613635056255326 -15.443052055025115 37.56365200910429 -15.738592904568453 37.44063300629902 -16.033265719198138 37.31554903003419 -16.154680348856612 37.26300320332174 -16.166899743427987 37.260589389677506 -16.18089824325397 37.26253692725659 -16.196583662019407 37.26888456761761 -16.232653322903435 37.29489975671381 -16.274368828722718 37.33891343838487 -16.42993925478472 37.52671141557017 -16.59660522005217 37.719434533336226 -16.77879872188296 37.921381186664846 -16.975812604877177 38.130765897681535 -17.18987110238829 38.34893168015735 -17.42139904345094 38.57521181054288 -17.66868422985787 38.80695242800923 -17.872734832982875 38.99116532526788 A42.892257163265796 42.892257163265796 0 0 1 -18.65069928941866 38.6250830400165 L-18.638827562145348 38.35043762817852 -18.617893857623745 38.01218408833747 -18.59112348451511 37.689552360164896 -18.5594698815201 37.38555334961151 -18.523717564181013 37.10028470586516 -18.48424950230033 36.83117655847571 -18.44199067240864 36.57991188647388 -18.3964541656882 36.34033587712465 -18.389131505251054 36.28013815088751 -18.39207812468869 36.235763293886166 -18.397185445940487 36.2196313327645 -18.40460782205458 36.20760389609574 -18.414256632673048 36.19972731348341 -18.532136485658363 36.13966970397253 -18.816346867001194 35.9923519252187 -19.099519465225356 35.84304905044739 -19.216111355233036 35.780527794986256 -19.228085911947808 35.77709995434166 -19.242198282809035 35.77786929735701 -19.258359847458788 35.782882153635796 -19.296479901882723 35.80578787236969 -19.341732075510972 35.8461565283037 -19.512471423905193 36.0202780738112 -19.69467952302908 36.19837903594689 -19.893132507023843 36.38437187463584 -20.106976295645232 36.57653654716451 -20.33853970204322 36.77602523811555 -20.588190275328504 36.98213801345549 -20.853999752863277 37.19237359287221 -21.072749259759505 37.358865915171954 A42.892257163265796 42.892257163265796 0 0 1 -21.81735230923568 36.92896914411747 L-21.78254048203715 36.656280352930146 -21.73337586825031 36.320964803109995 -21.679702255404052 36.001704676905625 -21.622721684471745 35.70142053890259 -21.56322409066269 35.42014404925062 -21.50137605943347 35.15528230430986 -21.438240151347447 34.90843498062545 -21.372816143788857 34.6735095947367 -21.360481949047493 34.614135734831166 -21.359705041943975 34.56966993993945 -21.363444563385897 34.553167186248466 -21.369834478220998 34.54056084306734 -21.378790353656726 34.531904493075594 -21.491231294166408 34.46219358218427 -21.76211767568849 34.29161035585215 -22.03180380518982 34.11913583496691 -22.142755147209456 34.04707769244269 -22.154400873155982 34.04265986863696 -22.16852812691058 34.04224562070009 -22.185052475680706 34.04588853131158 -22.22495553885199 34.065524112523974 -22.273426968804838 34.10196458560441 -22.45813762567835 34.261188361898526 -22.654609799759655 34.423417918119846 -22.867930260823936 34.59215233604137 -23.09710399454187 34.765749072974366 -23.344548058908927 34.945161402566036 -23.610570145018944 35.1296610898332 -23.8930394511805 35.31691697966475 -24.124953491228368 35.46452090298923 A42.892257163265796 42.892257163265796 0 0 1 -24.830972278349417 34.97382506310018 L-24.7734645311812 34.705005608507065 -24.696413862570118 34.37498004636591 -24.616213491815913 34.06133090252699 -24.534305630710907 33.76686791454853 -24.451480093303502 33.49155653146898 -24.36768591222706 33.23279900381475 -24.28411577897884 32.992100485063865 -24.19926317298804 32.76347355542395 -24.18200395945647 32.705340026817204 -24.177508975256917 32.66109518963764 -24.179854466832897 32.64433739833727 -24.185167099727582 32.63124057308355 -24.193367220949174 32.62186517378799 -24.299580556574256 32.5429899334689 -24.555242864940805 32.350337778327344 -24.809550871290064 32.15590139616941 -24.914083421375825 32.07481180267822 -24.925318630154027 32.069434983571135 -24.939361674267328 32.0678400503337 -24.956132900723926 32.070087462877375 -24.99753908132472 32.08631517707422 -25.04888977534773 32.118571863564846 -25.24627612815699 32.261781030257005 -25.45563426605959 32.40700125678883 -25.68232591442957 32.557293703236745 -25.925222104163122 32.71110484819356 -26.186811184176022 32.86918236784136 -26.467338829313313 33.030774834292394 -26.764486644872843 33.19373756901477 -27.007938507711426 33.321417757895134 A42.892257163265796 42.892257163265796 0 0 1 -27.670420817959503 32.77336472792388 L-27.590620526348726 32.510300185252426 -27.486224257992873 32.18787950298566 -27.38005967730768 31.882041364899614 -27.273799050824916 31.595464973235035 -27.168226531453996 31.328049808269245 -27.063073956504557 31.077211496041034 -26.95965578253382 30.84435010939104 -26.855969758175316 30.623625289643165 -26.833906586835734 30.5671398572695 -26.825725054624662 30.523426323545046 -26.82666006439653 30.506531038500793 -26.83085815104817 30.493035595993586 -26.838245000097032 30.483006909084054 -26.937485720602275 30.395520592476256 -27.176130668413222 30.182150824973196 -27.41327676366592 29.96711641306106 -27.510657301085487 29.877564153838435 -27.521403185778276 29.871266053952805 -27.535263518385737 29.868501622725493 -27.552163984425327 29.869337773217133 -27.59478284784902 29.88204379464292 -27.648652617719033 29.909890437064426 -27.857330143020985 30.03608048474592 -28.078105747831113 30.16327276603972 -28.316578504471195 30.29406904748716 -28.57149340797005 30.42701572579907 -28.845392644184006 30.56264963528122 -29.138458148476765 30.70020142586801 -29.44820019500853 30.8377279389857 -29.701482240739942 30.944588808635043 A42.892257163265796 42.892257163265796 0 0 1 -30.315781236701522 30.343022786811254 L-30.21424814235741 30.087558364816704 -30.083238539070692 29.77500411185147 -29.951854416708866 29.479122214312582 -29.821986366794963 29.202442546444555 -29.69440738083017 28.94479932483724 -29.56863398176898 28.70363967856823 -29.446093171260276 28.480248779335817 -29.324301011496644 28.268974295499948 -29.297588639643624 28.214533164082734 -29.285777946991075 28.17165755284433 -29.285295916537088 28.154743282341542 -29.288350010384132 28.140943883413566 -29.294871773821633 28.130332252923147 -29.386443776857057 28.034848513678806 -29.60639744126966 27.802257769427303 -29.824718215956842 27.568133639658523 -29.91426368620803 27.4707468594597 -29.92444487215519 27.46357165544104 -29.93802527298221 27.45965711672268 -29.95493643397849 27.459076140167355 -29.998469039519772 27.46817134521105 -30.054480027506536 27.491412619374625 -30.272985002395775 27.599698415528394 -30.50362949187274 27.707970589118425 -30.752210641737534 27.818353263628033 -31.017356214109757 27.929502949868738 -31.301644400179054 28.04174187476304 -31.605192119681945 28.15428816250545 -31.925355779278878 28.265413804341595 -32.18669141633521 28.350705802538755 A42.892257163265796 42.892257163265796 0 0 1 -32.748498231926824 27.69984634228098 L-32.62594451655477 27.453773940332677 -32.46924051657397 27.153278460183614 -32.31355841775453 26.869428202112264 -32.160993875469565 26.604585967116822 -32.01230329783207 26.35852187095115 -31.86679128468548 26.128732452286965 -31.725987373379066 25.916378967124096 -31.5869433627035 25.716036757903833 -31.55576915843279 25.664021792864073 -31.540412148861748 25.622284845718465 -31.538516459279194 25.605470231211836 -31.54040513804768 25.591463668731716 -31.546016070389186 25.580343527623842 -31.629277044147887 25.477532115568795 -31.828996608242786 25.227351851523558 -32.02696069899327 24.9757802164505 -32.108043004940605 24.871242013566278 -32.11758807843789 24.8632400343154 -32.13079329073017 24.858202845782504 -32.147596527039404 24.856208817313313 -32.19173752474854 24.861629409646437 -32.24949685401516 24.880102294712653 -32.47629662308845 24.969724292281924 -32.71519219185642 25.058316906663894 -32.972138116784926 25.147511719083823 -33.245654552347155 25.236084778065294 -33.5383376109073 25.324141442957174 -33.85023837646674 25.410892796511078 -34.17857793109404 25.49483810053186 -34.446134077750735 25.557962965191702 A42.892257163265796 42.892257163265796 0 0 1 -34.951508041818705 24.86237537797171 L-34.808793331677315 24.627421017166547 -34.62749410097064 24.3410920697212 -34.448606023759346 24.071264456731626 -34.27441511974999 23.82011733259838 -34.105655908007876 23.587358324712145 -33.941425942997874 23.370550941321238 -33.78334656916411 23.17072437735057 -33.62802600140851 22.982719699397915 -33.59260862936443 22.933495748342654 -33.573813021263035 22.893190219986124 -33.570516969452285 22.87659320391513 -33.57122698541767 22.862477723854962 -33.575887730004254 22.8509270719297 -33.650253658578244 22.741509135249608 -33.828338233111616 22.475494186208643 -34.0045570640658 22.208239640097375 -34.07660747159062 22.097283274910385 -34.085449480805565 22.088510648562323 -34.0981868794868 22.082386142473236 -34.114764328479396 22.078993048767188 -34.15920410097272 22.080701006829212 -34.21830663132442 22.09427592878208 -34.451810357157115 22.164605493847215 -34.697281324447395 22.232897135484944 -34.96078973339165 22.300278448292456 -35.240758510869696 22.36565360364559 -35.53978348055737 22.428910354299454 -35.857849532403364 22.489258275250435 -36.192061915996966 22.545434425462773 -36.46396185812406 22.585949381014856 A42.892257163265796 42.892257163265796 0 0 1 -36.9093581354211 21.850512713978034 L-36.747483471661646 21.628324430342584 -36.54286069406918 21.358170407440213 -36.34202140979678 21.10425808636667 -36.14742596809865 20.868567689722447 -35.95978184686897 20.65074640731886 -35.77798588520104 20.44844180721983 -35.603739862067485 20.262543804212424 -35.433232199416985 20.08819537526204 -35.39382008701707 20.04210770884057 -35.37171771807155 20.003516313595057 -35.367044423467846 19.987253312102496 -35.36657079637826 19.973127924412946 -35.37024866143539 19.961227781194417 -35.43519792126757 19.845970808098414 -35.59039837090266 19.565987077797768 -35.74363589357445 19.284924219267133 -35.80614902083611 19.16832797095713 -35.81422594542706 19.15884623118259 -35.826406186797314 19.15167736654707 -35.842641569579456 19.146909007718577 -35.887068403782855 19.144892351410864 -35.94709957343432 19.153474091926455 -36.18566939516191 19.204017913120243 -36.435993958509606 19.251529565215115 -36.70421652931139 19.29662474691428 -36.98867386888855 19.338343438896253 -37.291943304390536 19.376356574656178 -37.61394363769952 19.40987776569869 -37.95168459051978 19.43789072677134 -38.226021145383086 19.455511589912433 A42.892257163265796 42.892257163265796 0 0 1 -38.60831560104075 18.68538440286752 L-38.428416418122715 18.477520687569427 -38.201905375407996 18.22543652557529 -37.980523627350834 17.98922050891436 -37.766888595170826 17.770640038548308 -37.561675753141884 17.56928434141905 -37.3635889628669 17.382901546025938 -37.174398501090245 17.212236044905367 -36.989899732288755 17.052766793917165 -36.94676932718394 17.010138683995496 -36.92151522963189 16.97353211277076 -36.91549747203913 16.957717199127153 -36.91384352404832 16.94368098325379 -36.91651271199515 16.931514819696424 -36.97158973069378 16.811227255038762 -37.10281743578776 16.51923862817846 -37.231998799056626 16.226338911237665 -37.284536161383 16.10492061871225 -37.29179134752721 16.09479627310313 -37.30332899594476 16.08663333435578 -37.31910843297135 16.080523157015964 -37.36321070656353 16.074796031733545 -37.42374943999199 16.078324396068112 -37.66571196172723 16.108727944800563 -37.91913427417842 16.135126347250218 -38.1901896182212 16.157619087542244 -38.477140256042645 16.17538868950365 -38.7825269401677 16.18789157553468 -39.10620295395842 16.194350909598498 -39.44510346588785 16.19400419073683 -39.71995235966555 16.18860736377256 A42.892257163265796 42.892257163265796 0 0 1 -40.036463472755585 15.389191545601062 L-39.839801634189755 15.197110413253268 -39.592991138569474 14.964864301441537 -39.352619760627604 14.748001474829117 -39.12144363421989 14.548064115691004 -38.90010149203331 14.364586369377568 -38.687113309659885 14.1954327200842 -38.484305444396334 14.041196816717829 -38.28710969574481 13.897725305908999 -38.240563526737745 13.85885575804997 -38.21233483992846 13.824490779641371 -38.20501482959239 13.80923488410293 -38.20219216195715 13.79538629401509 -38.20383395035806 13.783039447014879 -38.248652402209736 13.658565021635129 -38.354986894698364 13.356619588639054 -38.45920598411765 13.053937494354285 -38.50139906966007 12.928548819696601 -38.50778162743958 12.917852883263018 -38.51859575459057 12.908753127554087 -38.533808564448364 12.901343990206827 -38.57727693166751 12.891946567618621 -38.63789859315499 12.890396806831486 -38.881556621657744 12.900446824053166 -39.13629910777424 12.905546811031636 -39.40828596657257 12.905279339504398 -39.69571715008773 12.898975210454909 -40.00107901466674 12.885880147994854 -40.32416035426337 12.865232317492545 -40.66184328171046 12.836528350680256 -40.93527664689134 12.808151688474165 A42.892257163265796 42.892257163265796 0 0 1 -41.18378431936836 11.985054566761084 L-40.971739266650935 11.810103328496904 -40.70636051641877 11.599324306473337 -40.44868554110186 11.40333580682239 -40.20158985489337 11.223443975831772 -39.96567096864247 11.05913114489597 -39.73927535323816 10.908393133015412 -39.524272635945294 10.77166868144701 -39.31576309393558 10.645201260381734 -39.266127648958474 10.610362916535847 -39.235122376847634 10.57848057657572 -39.22655145838135 10.563890708288298 -39.22257987008705 10.550326881895256 -39.22318274297603 10.537885955712701 -39.25742825874304 10.410097768270155 -39.33812367856272 10.100313459403282 -39.41664947210146 9.78997208518916 -39.44820232668054 9.661492539860292 -39.45366748703838 9.650300036911307 -39.46368223959078 9.640327292488927 -39.47822171534903 9.631671164909259 -39.52075127683108 9.618669361182688 -39.581030648978846 9.612052345732268 -39.82467509824721 9.601678337793292 -40.07895092252115 9.585444136556262 -40.349961503682835 9.56241832933034 -40.63585710965839 9.532084688205734 -40.939052260613515 9.493483529708957 -41.2592727425524 9.44587336433605 -41.593369482405954 9.389013487276554 -41.86346938039489 9.337856031725417 A42.892257163265796 42.892257163265796 0 0 1 -42.04223050948896 8.496851041385101 L-41.81628958631061 8.340256854438667 -41.53420402272507 8.152423385598242 -41.261032854845745 7.978683931416278 -40.99975080753723 7.8200994405154525 -40.750909978701586 7.676104061407691 -40.512694932843424 7.544839005788174 -40.2870054531038 7.426585029809112 -40.0686446623592 7.318008776579444 -40.016268098395535 7.287446002697465 -39.98270372068976 7.258269932893198 -39.9729420129281 7.244448429300028 -39.96784936181305 7.231264507098331 -39.967409090469936 7.218816765891813 -39.99084146246454 7.0886111587056915 -40.04533178922482 6.773160888315004 -40.09761348486206 6.457337055931672 -40.118304787873605 6.3266678316296785 -40.122814216636584 6.3150572695316765 -40.131959348296846 6.304281488032561 -40.14572350597968 6.294439086736038 -40.18701594740829 6.277924100182457 -40.2465302137314 6.266286243677819 -40.48845209301206 6.235560976790166 -40.74047769323308 6.198106458595054 -41.00861105225211 6.152483825164123 -41.29096572842783 6.098333440662195 -41.58986746962055 6.034496945520656 -41.90498097729898 5.960258396379389 -42.23314808097711 5.8756414402564925 -42.49801995505622 5.8020620241544165 A42.892257163265796 42.892257163265796 0 0 1 -42.60578065988645 4.9490482109328315 Z" id="SvgjsPath2052">
        </path>
      </g>
    </g>
  </g>
</svg>
