<?xml version="1.0" encoding="UTF-8"?>
<svg viewBox="-20.109227059660977 -48.5183844015643 123.77479924256701 97.0367688031286" height="97.0367688031286mm" width="123.77479924256701mm" xmlns:svgjs="http://svgjs.com/svgjs" xmlns:xlink="http://www.w3.org/1999/xlink" version="1.1" xmlns="http://www.w3.org/2000/svg" id="SvgjsSvg2015">
  <desc>Created with svg.js [http://svgjs.com]</desc>
  <defs id="SvgjsDefs2016">
  </defs>
  <defs id="SvgjsDefs2016">
  </defs>
  <g id="SvgjsG2017">
    <g transform="matrix(1,0,0,1,0,0)" id="SvgjsG2018">
      <g fill="none" stroke-width="0.04" stroke="blue" id="SvgjsG2019">
        <circle cy="0" cx="0" r="13.36901521971921" id="SvgjsCircle2020">
        </circle>
        <circle cy="0" cx="0" r="14.483099821362476" id="SvgjsCircle2021">
        </circle>
        <line y2="0.875" x2="0" y1="-0.875" x1="0" id="SvgjsLine2022">
        </line>
        <line y2="0" x2="0.875" y1="0" x1="-0.875" id="SvgjsLine2023">
        </line>
      </g>
      <g fill="none" stroke-width="0.1" stroke="black" id="SvgjsG2024">
        <circle cy="0" cx="0" r="2" id="SvgjsCircle2025">
        </circle>
        <path d="M13.888370013458045 -3.1983382813703987  L13.681591528082755 -3.0250356449625793 13.483561894160538 -2.8726942894853718 13.297831261910272 -2.7418522051091436 13.125783071576853 -2.631118064018893 12.968985999758232 -2.5392257881241993 12.826601150399465 -2.463583707421186 12.701830945822737 -2.4038468707968574 12.595107066916004 -2.358115369934749 12.505619555645028 -2.3241140195714642 12.295843480009422 -2.2555562257700053 12.241504050913258 -2.232607174689337 12.193531669285676 -2.2084891896786103 12.151943275821687 -2.18345665826278 12.116733371795236 -2.1577811863401832 12.08793011761187 -2.1317085522490826 12.065529319807453 -2.1055004474392027 12.049516870469237 -2.0794172580983448 12.0398713577597 -2.05369823625516 12.036577368504176 -2.0286136825460654 12.038243548334922 -2.0103650430139903 12.069358332981208 -1.8143998277934945 12.10051513192706 -1.5930630392122742 12.127706151427416 -1.371204145862174 12.148371107234823 -1.173863184575679 12.151484796563174 -1.155805113284245 12.161158906094418 -1.132427842169388 12.17713232860278 -1.1100816171331704 12.199349993119139 -1.0890315177643175 12.227770658908744 -1.0695141855676373 12.262340560264393 -1.0517847856832425 12.302996017030264 -1.036097177989324 12.349646216228546 -1.0226814776810782 12.402226172441496 -1.0118014590853095 12.460653681877991 -1.0036984571077499 12.681025873798022 -0.9917707570628826 12.776264369098215 -0.9820890468340376 12.89118790340021 -0.9655379815046434 13.027167697364796 -0.940129533434189 13.18427851172983 -0.9039168048770089 13.359516323985298 -0.8557377507568107 13.554362219051871 -0.7933061323595119 13.767628656812882 -0.7149930087803209 13.998339438743155 -0.6190963998667536 14.242926140956905 -0.5052171177290348 14.477995325384896 -0.38402387215824363 A14.483099821362476 14.483099821362476 0 0 1 14.477995325384894 0.3840238721582421 L14.242926140956905 0.5052171177290332 13.998339438743155 0.619096399866752 13.767628656812882 0.7149930087803194 13.554362219051871 0.7933061323595103 13.359516323985298 0.8557377507568091 13.18427851172983 0.9039168048770073 13.027167697364796 0.9401295334341875 12.89118790340021 0.9655379815046419 12.776264369098215 0.9820890468340361 12.681025873798022 0.9917707570628811 12.460653681877991 1.0036984571077485 12.402226172441496 1.0118014590853082 12.349646216228546 1.0226814776810769 12.302996017030264 1.0360971779893227 12.262340560264393 1.0517847856832412 12.227770658908744 1.0695141855676358 12.199349993119139 1.0890315177643162 12.17713232860278 1.1100816171331689 12.161158906094418 1.1324278421693867 12.151484796563174 1.1558051132842437 12.148371107234823 1.1738631845756777 12.127706151427416 1.3712041458621727 12.10051513192706 1.5930630392122729 12.069358332981208 1.8143998277934932 12.038243548334922 2.010365043013989 12.036577368504176 2.028613682546064 12.0398713577597 2.053698236255159 12.049516870469237 2.0794172580983434 12.065529319807453 2.1055004474392014 12.08793011761187 2.1317085522490813 12.116733371795236 2.157781186340182 12.151943275821687 2.1834566582627786 12.193531669285676 2.208489189678609 12.241504050913258 2.2326071746893357 12.295843480009422 2.255556225770004 12.505619555645028 2.3241140195714625 12.595107066916004 2.3581153699347475 12.701830945822737 2.403846870796856 12.826601150399465 2.4635837074211846 12.968985999758232 2.5392257881241975 13.125783071576853 2.6311180640188914 13.297831261910272 2.7418522051091423 13.483561894160538 2.8726942894853704 13.681591528082755 3.0250356449625775 13.888370013458045 3.198338281370397 14.084062289570243 3.3762423490856976 A14.483099821362476 14.483099821362476 0 0 1 13.885276905793104 4.118119501144058 L13.626850389497893 4.174342805165998 13.361123650002913 4.2210380481503424 13.113454278585536 4.25395471507945 12.887185790607747 4.274401967908237 12.68282061655874 4.284276451991936 12.501084231177455 4.285458961418998 12.339954294167233 4.279774500223536 12.202031709056243 4.269123015993562 12.086740368301545 4.255365718039972 11.992241235037792 4.240067995582064 11.776290927530418 4.194552748823738 11.717757075965663 4.187257495504262 11.664152782290774 4.184158092397853 11.61561991134046 4.185042703792999 11.572289504027443 4.189673362718898 11.534308837147439 4.197851299093683 11.501805124778834 4.209347784741876 11.474896342204698 4.223930264653671 11.453683572244124 4.241380834575587 11.438288617014496 4.261457700702495 11.430607251309159 4.278094576037151 11.359570837635879 4.463362822999328 11.275885022732979 4.670624504175656 11.188503689700035 4.876355451622524 11.107729585754086 5.057590215207573 11.101397084166212 5.0747858083534805 11.098086473221834 5.099868173775725 11.10074675038135 5.127207283589955 11.10946276258085 5.156546036653747 11.124317115048775 5.187658875044976 11.14539082788689 5.220297936416538 11.172755682401636 5.2542115315870115 11.20644808984483 5.289154968462652 11.246543658357234 5.32486731906671 11.293091864820315 5.361098479344439 11.477975931288288 5.4816142665520315 11.555614032522037 5.537618121212386 11.646865200055561 5.609413531398336 11.751922931995038 5.69940778988038 11.869878524165827 5.809324339933765 11.997549394222574 5.938667530859897 12.135075079974692 6.09015784592462 12.280612671060744 6.264612219274413 12.43246576468255 6.463016509695482 12.587344421158658 6.683932212098356 12.73032368373479 6.906423233743743 A14.483099821362476 14.483099821362476 0 0 1 12.346299811576547 7.571572091641155 L12.082127303429623 7.55899392885855 11.813369364815799 7.535322929047676 11.565619662280424 7.503016437538469 11.341768947615181 7.464204373127253 11.141811643465765 7.420848793125405 10.96596171928882 7.374954171796066 10.811793398560848 7.327759907484418 10.681327218550917 7.281774372001876 10.573524985687998 7.238646247885829 10.486205174225406 7.1994116072459935 10.289393407712565 7.099555202533553 10.234742199271926 7.077358853374787 10.183766612163753 7.060491247765896 10.136658504412312 7.048784485443254 10.09360604220365 7.0420426238478555 10.054802929481138 7.040111783863771 10.020431244816534 7.042803956465393 9.99066513324818 7.049925045012827 9.965658631052445 7.061290732318693 9.945591970881969 7.076698988209695 9.933866401178408 7.090780892027252 9.817299543837862 7.251350699804894 9.682821983520704 7.429890627751404 9.545171009842385 7.605995509981882 9.42024220829517 7.760148972297773 9.409674934468432 7.775119667801682 9.399985335988962 7.798490523184115 9.395479084106354 7.825586605815568 9.396304677339634 7.856181535065579 9.402600284898355 7.890078818518188 9.414508317687261 7.927060009076341 9.43216325307768 7.966900572028689 9.455663592612163 8.009373576887825 9.485149901276328 8.054246555408996 9.520734701760412 8.101290731185683 9.668127215466326 8.265551560062967 9.728624998366795 8.339741348876034 9.798184838259386 8.432707929829176 9.876370586746049 8.54682665017593 9.961858443053256 8.683527038339236 10.051702552539847 8.84150661958492 10.145333585498603 9.023429294002035 10.240759989100164 9.22960717908109 10.336088005040335 9.460553479932416 10.428512108127496 9.71402720829205 10.509034556707405 9.965942788426187 A14.483099821362476 14.483099821362476 0 0 1 9.965942788426188 10.509034556707403 L9.714027208292052 10.428512108127492 9.460553479932418 10.336088005040333 9.229607179081091 10.240759989100162 9.023429294002037 10.145333585498602 8.841506619584921 10.051702552539846 8.683527038339237 9.961858443053254 8.546826650175932 9.876370586746049 8.432707929829178 9.798184838259385 8.339741348876036 9.728624998366795 8.265551560062967 9.668127215466326 8.101290731185685 9.520734701760412 8.054246555408998 9.485149901276326 8.009373576887825 9.455663592612161 7.96690057202869 9.43216325307768 7.9270600090763415 9.41450831768726 7.890078818518189 9.402600284898355 7.856181535065581 9.396304677339632 7.82558660581557 9.395479084106354 7.798490523184117 9.399985335988962 7.7751196678016825 9.40967493446843 7.760148972297774 9.420242208295168 7.605995509981883 9.545171009842383 7.429890627751406 9.682821983520704 7.251350699804895 9.81729954383786 7.090780892027253 9.933866401178406 7.076698988209696 9.945591970881967 7.061290732318695 9.965658631052445 7.049925045012829 9.99066513324818 7.042803956465395 10.020431244816532 7.040111783863772 10.054802929481138 7.042042623847856 10.093606042203648 7.048784485443255 10.136658504412312 7.0604912477658965 10.183766612163751 7.077358853374789 10.234742199271924 7.099555202533555 10.289393407712565 7.199411607245994 10.486205174225406 7.23864624788583 10.573524985687998 7.281774372001878 10.681327218550916 7.3277599074844195 10.811793398560848 7.374954171796068 10.965961719288819 7.420848793125407 11.141811643465763 7.464204373127255 11.34176894761518 7.503016437538471 11.565619662280422 7.535322929047678 11.813369364815797 7.558993928858552 12.082127303429623 7.571572091641157 12.346299811576545 A14.483099821362476 14.483099821362476 0 0 1 6.906423233743743 12.730323683734788 L6.683932212098358 12.587344421158656 6.463016509695483 12.432465764682549 6.264612219274414 12.280612671060743 6.090157845924621 12.13507507997469 5.938667530859898 11.997549394222572 5.809324339933767 11.869878524165825 5.699407789880381 11.751922931995036 5.609413531398337 11.646865200055558 5.537618121212388 11.555614032522035 5.481614266552033 11.477975931288286 5.361098479344441 11.293091864820314 5.324867319066711 11.246543658357234 5.289154968462653 11.206448089844828 5.254211531587012 11.172755682401634 5.2202979364165385 11.145390827886889 5.187658875044977 11.124317115048774 5.156546036653749 11.109462762580849 5.127207283589956 11.10074675038135 5.099868173775726 11.098086473221832 5.074785808353482 11.101397084166212 5.057590215207575 11.107729585754084 4.8763554516225245 11.188503689700033 4.670624504175657 11.275885022732977 4.463362822999329 11.359570837635877 4.2780945760371525 11.430607251309157 4.261457700702497 11.438288617014496 4.241380834575588 11.453683572244122 4.223930264653672 11.474896342204698 4.209347784741878 11.501805124778835 4.197851299093684 11.534308837147437 4.1896733627188985 11.572289504027442 4.185042703793002 11.615619911340458 4.184158092397854 11.664152782290772 4.187257495504263 11.717757075965663 4.19455274882374 11.776290927530416 4.2400679955820655 11.99224123503779 4.2553657180399735 12.086740368301543 4.2691230159935625 12.202031709056243 4.279774500223538 12.339954294167235 4.285458961419 12.501084231177453 4.2842764519919365 12.682820616558738 4.274401967908238 12.887185790607745 4.253954715079451 13.113454278585534 4.221038048150343 13.361123650002911 4.174342805166 13.626850389497891 4.11811950114406 13.885276905793102 A14.483099821362476 14.483099821362476 0 0 1 3.3762423490857003 14.084062289570241 L3.198338281370399 13.888370013458045 3.0250356449625797 13.681591528082755 2.8726942894853726 13.483561894160538 2.7418522051091445 13.297831261910272 2.6311180640188936 13.125783071576853 2.5392257881241997 12.968985999758232 2.4635837074211864 12.826601150399465 2.4038468707968583 12.701830945822737 2.3581153699347497 12.595107066916004 2.3241140195714647 12.505619555645028 2.2555562257700057 12.295843480009422 2.232607174689338 12.241504050913258 2.2084891896786107 12.193531669285676 2.1834566582627803 12.151943275821687 2.1577811863401837 12.116733371795236 2.1317085522490835 12.08793011761187 2.105500447439203 12.065529319807453 2.0794172580983457 12.049516870469237 2.053698236255161 12.0398713577597 2.028613682546066 12.036577368504176 2.010365043013991 12.038243548334922 1.8143998277934952 12.069358332981208 1.5930630392122749 12.10051513192706 1.3712041458621747 12.127706151427416 1.1738631845756797 12.148371107234823 1.1558051132842457 12.151484796563174 1.1324278421693887 12.161158906094418 1.110081617133171 12.17713232860278 1.0890315177643182 12.199349993119139 1.069514185567638 12.227770658908744 1.0517847856832434 12.262340560264393 1.0360971779893249 12.302996017030264 1.0226814776810789 12.349646216228546 1.01180145908531 12.402226172441496 1.0036984571077505 12.460653681877991 0.9917707570628833 12.681025873798022 0.9820890468340383 12.776264369098215 0.9655379815046441 12.89118790340021 0.9401295334341897 13.027167697364796 0.9039168048770095 13.18427851172983 0.8557377507568114 13.359516323985298 0.7933061323595125 13.554362219051871 0.7149930087803218 13.767628656812882 0.6190963998667542 13.998339438743155 0.5052171177290354 14.242926140956905 0.3840238721582445 14.477995325384896 A14.483099821362476 14.483099821362476 0 0 1 -0.3840238721582412 14.477995325384894 L-0.5052171177290323 14.242926140956905 -0.6190963998667511 13.998339438743155 -0.7149930087803187 13.767628656812882 -0.7933061323595094 13.554362219051871 -0.8557377507568085 13.359516323985298 -0.9039168048770067 13.18427851172983 -0.9401295334341868 13.027167697364796 -0.9655379815046412 12.89118790340021 -0.9820890468340354 12.776264369098215 -0.9917707570628804 12.681025873798022 -1.0036984571077479 12.460653681877991 -1.0118014590853073 12.402226172441496 -1.0226814776810762 12.349646216228546 -1.0360971779893218 12.302996017030264 -1.0517847856832403 12.262340560264393 -1.0695141855676351 12.227770658908744 -1.0890315177643155 12.199349993119139 -1.1100816171331682 12.17713232860278 -1.132427842169386 12.161158906094418 -1.155805113284243 12.151484796563174 -1.173863184575677 12.148371107234823 -1.371204145862172 12.127706151427416 -1.5930630392122722 12.10051513192706 -1.8143998277934925 12.069358332981208 -2.0103650430139886 12.038243548334922 -2.0286136825460632 12.036577368504176 -2.0536982362551583 12.0398713577597 -2.0794172580983425 12.049516870469237 -2.1055004474392005 12.065529319807453 -2.131708552249081 12.08793011761187 -2.157781186340181 12.116733371795236 -2.1834566582627777 12.151943275821687 -2.208489189678608 12.193531669285676 -2.232607174689335 12.241504050913258 -2.255556225770003 12.295843480009422 -2.3241140195714616 12.505619555645028 -2.3581153699347466 12.595107066916004 -2.4038468707968557 12.701830945822737 -2.4635837074211837 12.826601150399465 -2.539225788124197 12.968985999758232 -2.6311180640188905 13.125783071576853 -2.7418522051091414 13.297831261910272 -2.87269428948537 13.483561894160538 -3.0250356449625766 13.681591528082755 -3.198338281370396 13.888370013458045 -3.3762423490856968 14.084062289570243 A14.483099821362476 14.483099821362476 0 0 1 -4.1181195011440535 13.885276905793106 L-4.174342805165994 13.626850389497895 -4.221038048150338 13.361123650002915 -4.253954715079446 13.113454278585538 -4.274401967908234 12.887185790607747 -4.284276451991931 12.682820616558741 -4.285458961418994 12.501084231177456 -4.279774500223533 12.339954294167235 -4.269123015993558 12.202031709056243 -4.255365718039968 12.086740368301545 -4.24006799558206 11.992241235037792 -4.194552748823734 11.77629092753042 -4.187257495504259 11.717757075965665 -4.184158092397849 11.664152782290772 -4.185042703792996 11.615619911340461 -4.189673362718894 11.572289504027445 -4.19785129909368 11.53430883714744 -4.209347784741873 11.501805124778835 -4.223930264653667 11.4748963422047 -4.241380834575583 11.453683572244124 -4.261457700702492 11.438288617014498 -4.278094576037147 11.43060725130916 -4.463362822999325 11.35957083763588 -4.6706245041756524 11.275885022732979 -4.87635545162252 11.188503689700037 -5.057590215207569 11.107729585754088 -5.074785808353479 11.101397084166214 -5.099868173775722 11.098086473221834 -5.127207283589952 11.100746750381353 -5.156546036653745 11.109462762580852 -5.187658875044972 11.124317115048777 -5.220297936416534 11.145390827886892 -5.254211531587008 11.172755682401638 -5.289154968462649 11.206448089844832 -5.324867319066707 11.246543658357236 -5.361098479344435 11.293091864820317 -5.481614266552028 11.477975931288288 -5.5376181212123825 11.555614032522037 -5.609413531398332 11.646865200055561 -5.699407789880376 11.75192293199504 -5.809324339933761 11.869878524165829 -5.938667530859893 11.997549394222576 -6.090157845924616 12.135075079974696 -6.264612219274409 12.280612671060746 -6.4630165096954775 12.432465764682552 -6.683932212098352 12.58734442115866 -6.906423233743738 12.730323683734792 A14.483099821362476 14.483099821362476 0 0 1 -7.571572091641153 12.346299811576547 L-7.558993928858548 12.082127303429623 -7.535322929047674 11.813369364815797 -7.503016437538467 11.565619662280424 -7.464204373127253 11.341768947615181 -7.420848793125403 11.141811643465765 -7.374954171796064 10.96596171928882 -7.327759907484416 10.811793398560848 -7.281774372001874 10.681327218550917 -7.238646247885828 10.573524985687998 -7.199411607245992 10.486205174225406 -7.099555202533551 10.289393407712565 -7.077358853374786 10.234742199271926 -7.060491247765894 10.183766612163753 -7.048784485443252 10.136658504412312 -7.042042623847854 10.09360604220365 -7.040111783863769 10.054802929481138 -7.042803956465392 10.020431244816534 -7.049925045012826 9.99066513324818 -7.061290732318692 9.965658631052445 -7.076698988209693 9.945591970881969 -7.09078089202725 9.933866401178408 -7.251350699804893 9.817299543837862 -7.429890627751403 9.682821983520704 -7.60599550998188 9.545171009842385 -7.760148972297771 9.42024220829517 -7.77511966780168 9.409674934468432 -7.798490523184114 9.399985335988962 -7.825586605815567 9.395479084106354 -7.856181535065578 9.396304677339634 -7.8900788185181865 9.402600284898355 -7.927060009076339 9.414508317687261 -7.966900572028687 9.43216325307768 -8.009373576887823 9.455663592612163 -8.054246555408996 9.485149901276328 -8.101290731185683 9.520734701760412 -8.265551560062965 9.668127215466326 -8.339741348876032 9.728624998366795 -8.432707929829174 9.798184838259386 -8.546826650175928 9.876370586746049 -8.683527038339234 9.961858443053256 -8.841506619584917 10.051702552539847 -9.023429294002035 10.145333585498603 -9.22960717908109 10.240759989100164 -9.460553479932415 10.336088005040336 -9.714027208292048 10.428512108127496 -9.965942788426185 10.509034556707405 A14.483099821362476 14.483099821362476 0 0 1 -10.5090345567074 9.96594278842619 L-10.42851210812749 9.714027208292055 -10.336088005040331 9.46055347993242 -10.24075998910016 9.229607179081093 -10.145333585498598 9.02342929400204 -10.051702552539844 8.841506619584923 -9.961858443053252 8.68352703833924 -9.876370586746047 8.546826650175934 -9.798184838259383 8.432707929829181 -9.728624998366794 8.33974134887604 -9.668127215466324 8.26555156006297 -9.52073470176041 8.101290731185689 -9.485149901276325 8.054246555409001 -9.45566359261216 8.009373576887828 -9.432163253077679 7.966900572028693 -9.414508317687257 7.927060009076344 -9.402600284898353 7.890078818518192 -9.39630467733963 7.856181535065583 -9.395479084106352 7.825586605815572 -9.39998533598896 7.798490523184119 -9.409674934468429 7.775119667801684 -9.420242208295166 7.760148972297777 -9.545171009842381 7.605995509981885 -9.682821983520702 7.4298906277514085 -9.817299543837859 7.251350699804898 -9.933866401178404 7.090780892027255 -9.945591970881965 7.076698988209699 -9.965658631052444 7.061290732318698 -9.990665133248179 7.049925045012832 -10.02043124481653 7.042803956465398 -10.054802929481136 7.040111783863774 -10.093606042203646 7.042042623847861 -10.13665850441231 7.0487844854432575 -10.18376661216375 7.060491247765899 -10.234742199271922 7.0773588533747915 -10.289393407712563 7.0995552025335575 -10.486205174225404 7.199411607245997 -10.573524985687996 7.238646247885834 -10.681327218550914 7.28177437200188 -10.811793398560846 7.327759907484422 -10.965961719288817 7.37495417179607 -11.141811643465761 7.420848793125408 -11.34176894761518 7.4642043731272585 -11.56561966228042 7.503016437538473 -11.813369364815795 7.5353229290476795 -12.08212730342962 7.5589939288585555 -12.346299811576545 7.571572091641159 A14.483099821362476 14.483099821362476 0 0 1 -12.730323683734788 6.906423233743745 L-12.587344421158656 6.683932212098358 -12.432465764682549 6.463016509695484 -12.280612671060743 6.264612219274415 -12.13507507997469 6.0901578459246215 -11.997549394222572 5.938667530859899 -11.869878524165825 5.8093243399337675 -11.751922931995036 5.699407789880382 -11.646865200055558 5.609413531398338 -11.555614032522035 5.537618121212389 -11.477975931288286 5.481614266552033 -11.293091864820314 5.361098479344442 -11.246543658357234 5.324867319066712 -11.206448089844828 5.289154968462654 -11.172755682401634 5.254211531587012 -11.145390827886889 5.220297936416539 -11.124317115048774 5.187658875044978 -11.109462762580849 5.15654603665375 -11.10074675038135 5.127207283589957 -11.098086473221832 5.099868173775727 -11.101397084166212 5.074785808353483 -11.107729585754084 5.057590215207576 -11.188503689700033 4.876355451622525 -11.275885022732977 4.670624504175658 -11.359570837635877 4.46336282299933 -11.430607251309157 4.278094576037153 -11.438288617014496 4.261457700702498 -11.453683572244122 4.241380834575589 -11.474896342204698 4.2239302646536725 -11.501805124778835 4.209347784741879 -11.534308837147437 4.197851299093685 -11.572289504027442 4.189673362718899 -11.615619911340458 4.185042703793002 -11.664152782290772 4.184158092397855 -11.717757075965663 4.187257495504264 -11.776290927530416 4.194552748823741 -11.99224123503779 4.2400679955820655 -12.086740368301543 4.255365718039974 -12.202031709056243 4.269123015993563 -12.339954294167235 4.279774500223539 -12.501084231177453 4.285458961419001 -12.682820616558738 4.284276451991937 -12.887185790607745 4.274401967908239 -13.113454278585534 4.253954715079452 -13.361123650002911 4.221038048150344 -13.626850389497891 4.174342805166 -13.885276905793102 4.11811950114406 A14.483099821362476 14.483099821362476 0 0 1 -14.084062289570241 3.3762423490857008 L-13.888370013458045 3.1983382813704 -13.681591528082755 3.0250356449625806 -13.483561894160538 2.8726942894853735 -13.297831261910272 2.7418522051091454 -13.125783071576853 2.631118064018894 -12.968985999758232 2.5392257881242006 -12.826601150399465 2.4635837074211873 -12.701830945822737 2.403846870796859 -12.595107066916004 2.35811536993475 -12.505619555645028 2.324114019571465 -12.295843480009422 2.2555562257700066 -12.241504050913258 2.2326071746893383 -12.193531669285676 2.2084891896786116 -12.151943275821687 2.1834566582627812 -12.116733371795236 2.1577811863401846 -12.08793011761187 2.1317085522490844 -12.065529319807453 2.105500447439204 -12.049516870469237 2.079417258098346 -12.0398713577597 2.0536982362551615 -12.036577368504176 2.0286136825460668 -12.038243548334922 2.0103650430139917 -12.069358332981208 1.8143998277934958 -12.10051513192706 1.5930630392122755 -12.127706151427416 1.3712041458621753 -12.148371107234823 1.1738631845756804 -12.151484796563174 1.1558051132842464 -12.161158906094418 1.1324278421693894 -12.17713232860278 1.1100816171331718 -12.199349993119139 1.0890315177643188 -12.227770658908744 1.0695141855676387 -12.262340560264393 1.0517847856832439 -12.302996017030264 1.0360971779893253 -12.349646216228546 1.0226814776810798 -12.402226172441496 1.0118014590853108 -12.460653681877991 1.0036984571077512 -12.681025873798022 0.991770757062884 -12.776264369098215 0.982089046834039 -12.89118790340021 0.9655379815046448 -13.027167697364796 0.9401295334341904 -13.18427851172983 0.9039168048770102 -13.359516323985298 0.855737750756812 -13.554362219051871 0.7933061323595132 -13.767628656812882 0.7149930087803225 -13.998339438743155 0.6190963998667551 -14.242926140956905 0.5052171177290363 -14.477995325384896 0.3840238721582452 A14.483099821362476 14.483099821362476 0 0 1 -14.477995325384896 -0.38402387215823697 L-14.242926140956905 -0.5052171177290283 -13.998339438743157 -0.6190963998667471 -13.76762865681288 -0.7149930087803149 -13.554362219051873 -0.7933061323595058 -13.3595163239853 -0.8557377507568046 -13.184278511729831 -0.9039168048770028 -13.027167697364797 -0.9401295334341832 -12.891187903400212 -0.9655379815046375 -12.776264369098216 -0.9820890468340318 -12.681025873798024 -0.9917707570628769 -12.460653681877991 -1.0036984571077443 -12.402226172441498 -1.0118014590853037 -12.349646216228548 -1.0226814776810729 -12.302996017030265 -1.0360971779893184 -12.262340560264393 -1.0517847856832372 -12.227770658908746 -1.0695141855676318 -12.19934999311914 -1.0890315177643122 -12.177132328602783 -1.1100816171331647 -12.16115890609442 -1.1324278421693827 -12.151484796563174 -1.1558051132842395 -12.148371107234825 -1.1738631845756737 -12.127706151427418 -1.3712041458621687 -12.100515131927061 -1.5930630392122689 -12.06935833298121 -1.8143998277934892 -12.038243548334924 -2.010365043013985 -12.036577368504176 -2.0286136825460597 -12.039871357759703 -2.053698236255155 -12.049516870469239 -2.0794172580983394 -12.065529319807455 -2.1055004474391974 -12.087930117611872 -2.1317085522490773 -12.116733371795236 -2.1577811863401775 -12.151943275821688 -2.1834566582627746 -12.193531669285678 -2.208489189678605 -12.24150405091326 -2.2326071746893317 -12.295843480009422 -2.2555562257699995 -12.50561955564503 -2.324114019571458 -12.595107066916006 -2.358115369934743 -12.701830945822739 -2.403846870796852 -12.826601150399467 -2.46358370742118 -12.968985999758234 -2.5392257881241935 -13.125783071576855 -2.631118064018887 -13.297831261910273 -2.741852205109138 -13.48356189416054 -2.872694289485366 -13.681591528082757 -3.025035644962573 -13.888370013458049 -3.198338281370392 -14.084062289570245 -3.376242349085693 A14.483099821362476 14.483099821362476 0 0 1 -13.885276905793106 -4.118119501144053 L-13.626850389497895 -4.174342805165992 -13.361123650002915 -4.221038048150337 -13.113454278585538 -4.253954715079445 -12.887185790607747 -4.274401967908233 -12.682820616558741 -4.284276451991931 -12.501084231177456 -4.2854589614189935 -12.339954294167235 -4.279774500223533 -12.202031709056243 -4.269123015993557 -12.086740368301545 -4.255365718039967 -11.99224123503779 -4.240067995582059 -11.77629092753042 -4.194552748823734 -11.717757075965665 -4.187257495504258 -11.664152782290772 -4.1841580923978485 -11.615619911340461 -4.185042703792995 -11.572289504027445 -4.189673362718892 -11.53430883714744 -4.197851299093679 -11.501805124778835 -4.2093477847418725 -11.4748963422047 -4.223930264653666 -11.453683572244122 -4.241380834575582 -11.438288617014498 -4.261457700702491 -11.43060725130916 -4.278094576037147 -11.35957083763588 -4.463362822999324 -11.275885022732979 -4.670624504175652 -11.188503689700037 -4.876355451622519 -11.107729585754088 -5.057590215207569 -11.101397084166214 -5.074785808353478 -11.098086473221835 -5.099868173775721 -11.100746750381353 -5.127207283589951 -11.109462762580852 -5.156546036653744 -11.124317115048777 -5.1876588750449715 -11.145390827886892 -5.220297936416534 -11.172755682401638 -5.254211531587007 -11.206448089844832 -5.289154968462648 -11.246543658357236 -5.324867319066706 -11.293091864820317 -5.361098479344435 -11.47797593128829 -5.481614266552027 -11.555614032522037 -5.537618121212382 -11.646865200055561 -5.6094135313983315 -11.75192293199504 -5.699407789880376 -11.869878524165829 -5.80932433993376 -11.997549394222576 -5.938667530859893 -12.135075079974696 -6.090157845924615 -12.280612671060746 -6.264612219274408 -12.432465764682552 -6.463016509695477 -12.58734442115866 -6.683932212098352 -12.730323683734792 -6.9064232337437375 A14.483099821362476 14.483099821362476 0 0 1 -12.346299811576554 -7.571572091641144 L-12.08212730342963 -7.558993928858541 -11.813369364815802 -7.535322929047666 -11.565619662280428 -7.503016437538458 -11.341768947615186 -7.464204373127243 -11.141811643465768 -7.420848793125395 -10.965961719288824 -7.374954171796057 -10.811793398560855 -7.327759907484408 -10.681327218550923 -7.281774372001867 -10.573524985688005 -7.2386462478858205 -10.486205174225413 -7.199411607245985 -10.28939340771257 -7.099555202533544 -10.234742199271931 -7.077358853374779 -10.183766612163758 -7.060491247765887 -10.136658504412317 -7.048784485443245 -10.093606042203655 -7.0420426238478475 -10.054802929481143 -7.040111783863763 -10.020431244816539 -7.042803956465385 -9.990665133248186 -7.049925045012819 -9.96565863105245 -7.061290732318685 -9.945591970881974 -7.076698988209686 -9.933866401178413 -7.090780892027244 -9.817299543837867 -7.251350699804885 -9.682821983520709 -7.429890627751396 -9.54517100984239 -7.605995509981874 -9.420242208295175 -7.760148972297765 -9.409674934468438 -7.775119667801673 -9.399985335988967 -7.798490523184107 -9.39547908410636 -7.82558660581556 -9.39630467733964 -7.856181535065571 -9.40260028489836 -7.89007881851818 -9.414508317687266 -7.927060009076333 -9.432163253077686 -7.96690057202868 -9.455663592612169 -8.009373576887816 -9.485149901276333 -8.054246555408989 -9.520734701760418 -8.101290731185676 -9.668127215466333 -8.265551560062958 -9.728624998366803 -8.339741348876027 -9.798184838259392 -8.432707929829169 -9.876370586746056 -8.546826650175921 -9.961858443053263 -8.683527038339227 -10.051702552539854 -8.84150661958491 -10.145333585498609 -9.023429294002026 -10.240759989100171 -9.22960717908108 -10.336088005040342 -9.460553479932408 -10.428512108127503 -9.714027208292041 -10.509034556707412 -9.965942788426176 A14.483099821362476 14.483099821362476 0 0 1 -9.965942788426188 -10.509034556707402 L-9.714027208292054 -10.428512108127492 -9.46055347993242 -10.336088005040333 -9.229607179081091 -10.240759989100162 -9.023429294002039 -10.1453335854986 -8.841506619584921 -10.051702552539846 -8.68352703833924 -9.961858443053254 -8.546826650175932 -9.876370586746049 -8.43270792982918 -9.798184838259385 -8.339741348876037 -9.728624998366795 -8.265551560062969 -9.668127215466326 -8.101290731185687 -9.520734701760412 -8.054246555409 -9.485149901276326 -8.009373576887826 -9.455663592612161 -7.966900572028692 -9.43216325307768 -7.927060009076343 -9.41450831768726 -7.890078818518191 -9.402600284898355 -7.8561815350655815 -9.396304677339632 -7.8255866058155705 -9.395479084106354 -7.798490523184118 -9.399985335988962 -7.775119667801684 -9.40967493446843 -7.760148972297776 -9.420242208295168 -7.605995509981884 -9.545171009842383 -7.429890627751408 -9.682821983520704 -7.251350699804897 -9.81729954383786 -7.090780892027254 -9.933866401178406 -7.076698988209698 -9.945591970881967 -7.061290732318697 -9.965658631052445 -7.04992504501283 -9.99066513324818 -7.042803956465396 -10.020431244816532 -7.0401117838637735 -10.054802929481138 -7.042042623847858 -10.093606042203648 -7.048784485443257 -10.136658504412312 -7.060491247765898 -10.183766612163751 -7.077358853374791 -10.234742199271924 -7.099555202533556 -10.289393407712565 -7.199411607245996 -10.486205174225406 -7.238646247885832 -10.573524985687998 -7.281774372001879 -10.681327218550916 -7.32775990748442 -10.811793398560848 -7.37495417179607 -10.965961719288819 -7.420848793125407 -11.141811643465763 -7.464204373127257 -11.341768947615181 -7.503016437538471 -11.565619662280422 -7.5353229290476795 -11.813369364815797 -7.558993928858554 -12.082127303429623 -7.571572091641157 -12.346299811576547 A14.483099821362476 14.483099821362476 0 0 1 -6.906423233743748 -12.730323683734786 L-6.683932212098362 -12.587344421158653 -6.463016509695487 -12.432465764682545 -6.264612219274419 -12.28061267106074 -6.090157845924626 -12.135075079974689 -5.938667530859902 -11.99754939422257 -5.809324339933771 -11.869878524165825 -5.699407789880386 -11.751922931995034 -5.60941353139834 -11.646865200055556 -5.537618121212392 -11.555614032522033 -5.481614266552037 -11.477975931288285 -5.361098479344445 -11.29309186482031 -5.3248673190667155 -11.246543658357231 -5.2891549684626575 -11.206448089844827 -5.254211531587016 -11.172755682401634 -5.220297936416543 -11.145390827886889 -5.187658875044981 -11.124317115048772 -5.1565460366537526 -11.109462762580847 -5.127207283589961 -11.100746750381347 -5.0998681737757305 -11.09808647322183 -5.074785808353486 -11.10139708416621 -5.057590215207578 -11.107729585754084 -4.876355451622529 -11.188503689700031 -4.670624504175661 -11.275885022732975 -4.463362822999334 -11.359570837635875 -4.278094576037156 -11.430607251309157 -4.2614577007025005 -11.438288617014495 -4.241380834575592 -11.45368357224412 -4.223930264653676 -11.474896342204698 -4.209347784741881 -11.501805124778834 -4.1978512990936885 -11.534308837147435 -4.189673362718903 -11.572289504027442 -4.185042703793005 -11.615619911340458 -4.184158092397858 -11.66415278229077 -4.187257495504268 -11.717757075965663 -4.194552748823744 -11.776290927530416 -4.240067995582069 -11.992241235037788 -4.255365718039978 -12.086740368301541 -4.269123015993568 -12.202031709056241 -4.279774500223542 -12.339954294167233 -4.285458961419004 -12.501084231177453 -4.284276451991941 -12.682820616558736 -4.2744019679082434 -12.887185790607743 -4.253954715079455 -13.113454278585532 -4.221038048150348 -13.361123650002911 -4.174342805166004 -13.626850389497891 -4.118119501144065 -13.8852769057931 A14.483099821362476 14.483099821362476 0 0 1 -3.3762423490856985 -14.084062289570241 L-3.1983382813703978 -13.888370013458045 -3.0250356449625784 -13.681591528082755 -2.8726942894853718 -13.483561894160538 -2.7418522051091436 -13.297831261910272 -2.6311180640188923 -13.125783071576853 -2.539225788124199 -12.968985999758232 -2.4635837074211855 -12.826601150399465 -2.4038468707968574 -12.701830945822737 -2.3581153699347484 -12.595107066916004 -2.3241140195714634 -12.505619555645028 -2.255556225770005 -12.295843480009422 -2.2326071746893366 -12.241504050913258 -2.20848918967861 -12.193531669285676 -2.1834566582627795 -12.151943275821687 -2.157781186340183 -12.116733371795236 -2.1317085522490826 -12.08793011761187 -2.1055004474392023 -12.065529319807453 -2.0794172580983443 -12.049516870469237 -2.05369823625516 -12.0398713577597 -2.028613682546065 -12.036577368504176 -2.0103650430139903 -12.038243548334922 -1.8143998277934943 -12.069358332981208 -1.593063039212274 -12.10051513192706 -1.3712041458621738 -12.127706151427416 -1.1738631845756788 -12.148371107234823 -1.1558051132842446 -12.151484796563174 -1.1324278421693879 -12.161158906094418 -1.11008161713317 -12.17713232860278 -1.089031517764317 -12.199349993119139 -1.0695141855676369 -12.227770658908744 -1.051784785683242 -12.262340560264393 -1.0360971779893235 -12.302996017030264 -1.022681477681078 -12.349646216228546 -1.011801459085309 -12.402226172441496 -1.0036984571077494 -12.460653681877991 -0.9917707570628822 -12.681025873798022 -0.9820890468340372 -12.776264369098215 -0.965537981504643 -12.89118790340021 -0.9401295334341886 -13.027167697364796 -0.9039168048770084 -13.18427851172983 -0.8557377507568102 -13.359516323985298 -0.7933061323595114 -13.554362219051871 -0.7149930087803205 -13.767628656812882 -0.6190963998667531 -13.998339438743155 -0.5052171177290343 -14.242926140956905 -0.3840238721582432 -14.477995325384896 A14.483099821362476 14.483099821362476 0 0 1 0.3840238721582394 -14.477995325384896 L0.5052171177290308 -14.242926140956907 0.6190963998667494 -13.998339438743157 0.7149930087803171 -13.76762865681288 0.793306132359508 -13.554362219051873 0.8557377507568068 -13.3595163239853 0.903916804877005 -13.184278511729831 0.9401295334341851 -13.027167697364797 0.9655379815046398 -12.891187903400212 0.982089046834034 -12.776264369098216 0.9917707570628791 -12.681025873798024 1.0036984571077463 -12.460653681877991 1.0118014590853057 -12.402226172441498 1.0226814776810746 -12.349646216228548 1.0360971779893204 -12.302996017030265 1.051784785683239 -12.262340560264393 1.0695141855676336 -12.227770658908746 1.089031517764314 -12.19934999311914 1.1100816171331669 -12.177132328602783 1.1324278421693847 -12.16115890609442 1.1558051132842417 -12.151484796563174 1.1738631845756757 -12.148371107234825 1.3712041458621704 -12.127706151427418 1.5930630392122709 -12.100515131927061 1.8143998277934914 -12.06935833298121 2.010365043013987 -12.038243548334924 2.0286136825460623 -12.036577368504176 2.053698236255157 -12.039871357759703 2.079417258098341 -12.049516870469239 2.1055004474391996 -12.065529319807455 2.1317085522490795 -12.087930117611872 2.1577811863401797 -12.116733371795236 2.1834566582627764 -12.151943275821688 2.208489189678607 -12.193531669285678 2.232607174689334 -12.24150405091326 2.2555562257700017 -12.295843480009422 2.3241140195714607 -12.50561955564503 2.3581153699347457 -12.595107066916006 2.4038468707968543 -12.701830945822739 2.4635837074211824 -12.826601150399467 2.5392257881241953 -12.968985999758234 2.631118064018889 -13.125783071576855 2.74185220510914 -13.297831261910273 2.872694289485368 -13.48356189416054 3.0250356449625753 -13.681591528082757 3.198338281370394 -13.888370013458047 3.3762423490856954 -14.084062289570245 A14.483099821362476 14.483099821362476 0 0 1 4.118119501144049 -13.885276905793106 L4.174342805165988 -13.626850389497896 4.221038048150334 -13.361123650002916 4.253954715079441 -13.11345427858554 4.274401967908228 -12.887185790607749 4.284276451991927 -12.682820616558743 4.28545896141899 -12.501084231177456 4.279774500223528 -12.339954294167237 4.269123015993554 -12.202031709056245 4.255365718039963 -12.086740368301546 4.240067995582056 -11.992241235037792 4.194552748823731 -11.77629092753042 4.187257495504254 -11.717757075965666 4.184158092397845 -11.664152782290774 4.185042703792992 -11.615619911340463 4.189673362718889 -11.572289504027447 4.197851299093675 -11.53430883714744 4.209347784741869 -11.501805124778837 4.223930264653664 -11.474896342204701 4.241380834575579 -11.453683572244124 4.261457700702487 -11.4382886170145 4.278094576037143 -11.430607251309162 4.46336282299932 -11.35957083763588 4.670624504175648 -11.27588502273298 4.876355451622516 -11.188503689700037 5.057590215207567 -11.10772958575409 5.074785808353474 -11.101397084166216 5.099868173775717 -11.098086473221837 5.127207283589948 -11.100746750381354 5.15654603665374 -11.109462762580854 5.187658875044968 -11.124317115048777 5.2202979364165305 -11.145390827886894 5.254211531587004 -11.17275568240164 5.289154968462644 -11.206448089844834 5.324867319066702 -11.246543658357238 5.361098479344432 -11.293091864820317 5.4816142665520236 -11.477975931288292 5.537618121212379 -11.555614032522039 5.609413531398328 -11.646865200055563 5.699407789880372 -11.751922931995042 5.809324339933757 -11.869878524165832 5.938667530859888 -11.997549394222577 6.090157845924611 -12.135075079974698 6.2646122192744045 -12.280612671060748 6.463016509695473 -12.432465764682554 6.683932212098348 -12.587344421158662 6.906423233743734 -12.730323683734795 A14.483099821362476 14.483099821362476 0 0 1 7.571572091641155 -12.346299811576547 L7.55899392885855 -12.082127303429623 7.535322929047676 -11.813369364815799 7.503016437538469 -11.565619662280424 7.464204373127253 -11.341768947615181 7.420848793125405 -11.141811643465765 7.374954171796066 -10.96596171928882 7.327759907484418 -10.811793398560848 7.281774372001876 -10.681327218550917 7.238646247885829 -10.573524985687998 7.1994116072459935 -10.486205174225406 7.099555202533553 -10.289393407712565 7.077358853374787 -10.234742199271926 7.060491247765896 -10.183766612163753 7.048784485443254 -10.136658504412312 7.0420426238478555 -10.09360604220365 7.040111783863771 -10.054802929481138 7.042803956465393 -10.020431244816534 7.049925045012827 -9.99066513324818 7.061290732318693 -9.965658631052445 7.076698988209695 -9.945591970881969 7.090780892027252 -9.933866401178408 7.251350699804894 -9.817299543837862 7.429890627751404 -9.682821983520704 7.605995509981882 -9.545171009842385 7.760148972297773 -9.42024220829517 7.775119667801682 -9.409674934468432 7.798490523184115 -9.399985335988962 7.825586605815568 -9.395479084106354 7.856181535065579 -9.396304677339634 7.890078818518188 -9.402600284898355 7.927060009076341 -9.414508317687261 7.966900572028689 -9.43216325307768 8.009373576887825 -9.455663592612163 8.054246555408996 -9.485149901276328 8.101290731185683 -9.520734701760412 8.265551560062967 -9.668127215466326 8.339741348876034 -9.728624998366795 8.432707929829176 -9.798184838259386 8.54682665017593 -9.876370586746049 8.683527038339236 -9.961858443053256 8.84150661958492 -10.051702552539847 9.023429294002035 -10.145333585498603 9.22960717908109 -10.240759989100164 9.460553479932416 -10.336088005040335 9.71402720829205 -10.428512108127496 9.965942788426187 -10.509034556707405 A14.483099821362476 14.483099821362476 0 0 1 10.5090345567074 -9.965942788426188 L10.42851210812749 -9.714027208292054 10.336088005040331 -9.46055347993242 10.24075998910016 -9.229607179081091 10.145333585498598 -9.023429294002039 10.051702552539844 -8.841506619584921 9.961858443053252 -8.68352703833924 9.876370586746047 -8.546826650175932 9.798184838259383 -8.43270792982918 9.728624998366794 -8.339741348876037 9.668127215466324 -8.265551560062969 9.52073470176041 -8.101290731185687 9.485149901276325 -8.054246555409 9.45566359261216 -8.009373576887826 9.432163253077679 -7.966900572028692 9.414508317687257 -7.927060009076342 9.402600284898353 -7.890078818518191 9.39630467733963 -7.8561815350655815 9.395479084106352 -7.8255866058155705 9.39998533598896 -7.798490523184118 9.409674934468429 -7.775119667801683 9.420242208295166 -7.760148972297776 9.545171009842381 -7.605995509981884 9.682821983520702 -7.429890627751408 9.817299543837859 -7.251350699804897 9.933866401178404 -7.090780892027254 9.945591970881965 -7.0766989882096984 9.965658631052444 -7.061290732318697 9.990665133248179 -7.04992504501283 10.02043124481653 -7.042803956465396 10.054802929481136 -7.0401117838637735 10.093606042203646 -7.042042623847859 10.13665850441231 -7.048784485443257 10.18376661216375 -7.060491247765898 10.234742199271922 -7.077358853374791 10.289393407712563 -7.099555202533556 10.486205174225404 -7.199411607245996 10.573524985687996 -7.238646247885832 10.681327218550914 -7.281774372001879 10.811793398560846 -7.32775990748442 10.965961719288817 -7.37495417179607 11.141811643465761 -7.420848793125407 11.34176894761518 -7.464204373127257 11.56561966228042 -7.503016437538471 11.813369364815795 -7.5353229290476795 12.08212730342962 -7.558993928858554 12.346299811576545 -7.5715720916411575 A14.483099821362476 14.483099821362476 0 0 1 12.730323683734786 -6.906423233743749 L12.587344421158653 -6.683932212098363 12.432465764682545 -6.463016509695488 12.280612671060739 -6.26461221927442 12.135075079974689 -6.090157845924626 11.99754939422257 -5.938667530859903 11.869878524165825 -5.809324339933771 11.751922931995034 -5.699407789880387 11.646865200055556 -5.609413531398342 11.555614032522033 -5.537618121212392 11.477975931288285 -5.481614266552038 11.29309186482031 -5.361098479344445 11.246543658357231 -5.324867319066716 11.206448089844827 -5.289154968462658 11.172755682401634 -5.254211531587018 11.145390827886889 -5.220297936416544 11.124317115048772 -5.187658875044981 11.109462762580847 -5.156546036653753 11.100746750381347 -5.127207283589962 11.09808647322183 -5.0998681737757305 11.10139708416621 -5.074785808353487 11.107729585754084 -5.057590215207579 11.188503689700031 -4.87635545162253 11.275885022732975 -4.670624504175661 11.359570837635875 -4.4633628229993345 11.430607251309157 -4.278094576037157 11.438288617014495 -4.261457700702501 11.45368357224412 -4.241380834575592 11.474896342204698 -4.223930264653677 11.501805124778834 -4.209347784741882 11.534308837147435 -4.1978512990936885 11.572289504027442 -4.189673362718904 11.615619911340458 -4.185042703793005 11.66415278229077 -4.184158092397859 11.717757075965663 -4.1872574955042685 11.776290927530416 -4.194552748823744 11.992241235037788 -4.24006799558207 12.086740368301541 -4.255365718039978 12.202031709056241 -4.269123015993568 12.339954294167233 -4.279774500223543 12.501084231177453 -4.285458961419004 12.682820616558736 -4.284276451991942 12.887185790607743 -4.2744019679082434 13.113454278585534 -4.253954715079456 13.361123650002911 -4.221038048150349 13.626850389497891 -4.174342805166005 13.8852769057931 -4.118119501144066 A14.483099821362476 14.483099821362476 0 0 1 14.084062289570241 -3.3762423490856994 Z" id="SvgjsPath2026">
        </path>
      </g>
    </g>
  </g>
</svg>
