  0
SECTION
  2
HEADER
  9
$ACADVER
  1
AC1014
  9
$HANDSEED
  5
FFFF
  9
$MEASUREMENT
 70
     1
  0
ENDSEC
  0
SECTION
  2
TABLES
  0
TABLE
  2
VPORT
  5
8
330
0
100
AcDbSymbolTable
 70
     4
  0
VPORT
  5
2E
330
8
100
AcDbSymbolTableRecord
100
AcDbViewportTableRecord
  2
*ACTIVE
 70
     0
 10
0.0
 20
0.0
 11
1.0
 21
1.0
 12
210.0
 22
148.5
 13
0.0
 23
0.0
 14
10.0
 24
10.0
 15
10.0
 25
10.0
 16
0.0
 26
0.0
 36
1.0
 17
0.0
 27
0.0
 37
0.0
 40
341.0
 41
1.24
 42
50.0
 43
0.0
 44
0.0
 50
0.0
 51
0.0
 71
     0
 72
   100
 73
     1
 74
     3
 75
     0
 76
     0
 77
     0
 78
     0
  0
ENDTAB
  0
TABLE
  2
LTYPE
  5
5
330
0
100
AcDbSymbolTable
 70
     1
  0
LTYPE
  5
14
330
5
100
AcDbSymbolTableRecord
100
AcDbLinetypeTableRecord
  2
BYBLOCK
 70
     0
  3

 72
    65
 73
     0
 40
0.0
  0
LTYPE
  5
15
330
5
100
AcDbSymbolTableRecord
100
AcDbLinetypeTableRecord
  2
BYLAYER
 70
     0
  3

 72
    65
 73
     0
 40
0.0
  0
LTYPE
  5
16
330
5
100
AcDbSymbolTableRecord
100
AcDbLinetypeTableRecord
  2
CONTINUOUS
 70
     0
  3
Solid line
 72
    65
 73
     0
 40
0.0
  0
ENDTAB
  0
TABLE
  2
LAYER
  5
2
100
AcDbSymbolTable
 70
1
  0
LAYER
  5
50
100
AcDbSymbolTableRecord
100
AcDbLayerTableRecord
  2
0
 70
0
  6
CONTINUOUS
  0
ENDTAB
  0
TABLE
  2
STYLE
  5
3
330
0
100
AcDbSymbolTable
 70
     1
  0
STYLE
  5
11
330
3
100
AcDbSymbolTableRecord
100
AcDbTextStyleTableRecord
  2
STANDARD
 70
     0
 40
0.0
 41
1.0
 50
0.0
 71
     0
 42
2.5
  3
txt
  4

  0
ENDTAB
  0
TABLE
  2
VIEW
  5
6
330
0
100
AcDbSymbolTable
 70
     0
  0
ENDTAB
  0
TABLE
  2
UCS
  5
7
330
0
100
AcDbSymbolTable
 70
     0
  0
ENDTAB
  0
TABLE
  2
APPID
  5
9
330
0
100
AcDbSymbolTable
 70
     2
  0
APPID
  5
12
330
9
100
AcDbSymbolTableRecord
100
AcDbRegAppTableRecord
  2
ACAD
 70
     0
  0
ENDTAB
  0
TABLE
  2
DIMSTYLE
  5
A
330
0
100
AcDbSymbolTable
 70
     1
  0
DIMSTYLE
105
27
330
A
100
AcDbSymbolTableRecord
100
AcDbDimStyleTableRecord
  2
ISO-25
 70
     0
  3

  4

  5

  6

  7

 40
1.0
 41
2.5
 42
0.625
 43
3.75
 44
1.25
 45
0.0
 46
0.0
 47
0.0
 48
0.0
140
2.5
141
2.5
142
0.0
143
0.03937007874016
144
1.0
145
0.0
146
1.0
147
0.625
 71
     0
 72
     0
 73
     0
 74
     0
 75
     0
 76
     0
 77
     1
 78
     8
170
     0
171
     3
172
     1
173
     0
174
     0
175
     0
176
     0
177
     0
178
     0
270
     2
271
     2
272
     2
273
     2
274
     3
340
11
275
     0
280
     0
281
     0
282
     0
283
     0
284
     8
285
     0
286
     0
287
     3
288
     0
  0
ENDTAB
  0
TABLE
  2
BLOCK_RECORD
  5
1
330
0
100
AcDbSymbolTable
 70
     1
  0
BLOCK_RECORD
  5
1F
330
1
100
AcDbSymbolTableRecord
100
AcDbBlockTableRecord
  2
*MODEL_SPACE
  0
BLOCK_RECORD
  5
1B
330
1
100
AcDbSymbolTableRecord
100
AcDbBlockTableRecord
  2
*PAPER_SPACE
  0
ENDTAB
  0
ENDSEC
  0
SECTION
  2
BLOCKS
  0
BLOCK
  5
20
330
1F
100
AcDbEntity
  8
0
100
AcDbBlockBegin
  2
*MODEL_SPACE
 70
     0
 10
0.0
 20
0.0
 30
0.0
  3
*MODEL_SPACE
  1

  0
ENDBLK
  5
21
330
1F
100
AcDbEntity
  8
0
100
AcDbBlockEnd
  0
BLOCK
  5
1C
330
1B
100
AcDbEntity
 67
     1
  8
0
100
AcDbBlockBegin
  2
*PAPER_SPACE
  1

  0
ENDBLK
  5
1D
330
1B
100
AcDbEntity
 67
     1
  8
0
100
AcDbBlockEnd
  0
ENDSEC
  0
SECTION
  2
ENTITIES
  0
LWPOLYLINE
  5
100
100
AcDbEntity
  8
0
 62
7
100
AcDbPolyline
 90
2
 70
0
 10
0.000000
 20
59.196386
 30
0.0
 10
0.000000
 20
58.196386
 30
0.0
  0
SPLINE
  5
101
100
AcDbEntity
  8
0
 62
7
100
AcDbSpline
 70
8
 71
3
 72
8
 73
4
 74
0
 40
0
 40
0
 40
0
 40
0
 40
1
 40
1
 40
1
 40
1
 10
0.000000
 20
61.196388
 30
0.0
 10
-1.011156
 20
61.196388
 30
0.0
 10
-1.922748
 20
60.587282
 30
0.0
 10
-2.309701
 20
59.653095
 30
0.0
  0
SPLINE
  5
102
100
AcDbEntity
  8
0
 62
7
100
AcDbSpline
 70
8
 71
3
 72
8
 73
4
 74
0
 40
0
 40
0
 40
0
 40
0
 40
1
 40
1
 40
1
 40
1
 10
-2.309701
 20
59.653095
 30
0.0
 10
-2.696653
 20
58.718909
 30
0.0
 10
-2.482764
 20
57.643613
 30
0.0
 10
-1.767768
 20
56.928618
 30
0.0
  0
SPLINE
  5
103
100
AcDbEntity
  8
0
 62
7
100
AcDbSpline
 70
8
 71
3
 72
8
 73
4
 74
0
 40
0
 40
0
 40
0
 40
0
 40
1
 40
1
 40
1
 40
1
 10
-1.767768
 20
56.928618
 30
0.0
 10
-1.052773
 20
56.213622
 30
0.0
 10
0.022523
 20
55.999733
 30
0.0
 10
0.956709
 20
56.386686
 30
0.0
  0
SPLINE
  5
104
100
AcDbEntity
  8
0
 62
7
100
AcDbSpline
 70
8
 71
3
 72
8
 73
4
 74
0
 40
0
 40
0
 40
0
 40
0
 40
1
 40
1
 40
1
 40
1
 10
0.956709
 20
56.386686
 30
0.0
 10
1.890896
 20
56.773638
 30
0.0
 10
2.500002
 20
57.685230
 30
0.0
 10
2.500002
 20
58.696386
 30
0.0
  0
SPLINE
  5
105
100
AcDbEntity
  8
0
 62
7
100
AcDbSpline
 70
8
 71
3
 72
8
 73
4
 74
0
 40
0
 40
0
 40
0
 40
0
 40
1
 40
1
 40
1
 40
1
 10
2.500002
 20
58.696386
 30
0.0
 10
2.500002
 20
59.359428
 30
0.0
 10
2.236610
 20
59.995313
 30
0.0
 10
1.767768
 20
60.464154
 30
0.0
  0
SPLINE
  5
106
100
AcDbEntity
  8
0
 62
7
100
AcDbSpline
 70
8
 71
3
 72
8
 73
4
 74
0
 40
0
 40
0
 40
0
 40
0
 40
1
 40
1
 40
1
 40
1
 10
1.767768
 20
60.464154
 30
0.0
 10
1.298927
 20
60.932996
 30
0.0
 10
0.663042
 20
61.196388
 30
0.0
 10
-0.000000
 20
61.196388
 30
0.0
  0
LWPOLYLINE
  5
107
100
AcDbEntity
  8
0
 62
7
100
AcDbPolyline
 90
2
 70
0
 10
-0.500000
 20
58.696386
 30
0.0
 10
0.500000
 20
58.696386
 30
0.0
  0
LWPOLYLINE
  5
108
100
AcDbEntity
  8
0
 62
7
100
AcDbPolyline
 90
1
 70
1
 10
-0.000000
 20
61.196388
 30
0.0
  0
SPLINE
  5
109
100
AcDbEntity
  8
0
 62
7
100
AcDbSpline
 70
8
 71
3
 72
8
 73
4
 74
0
 40
0
 40
0
 40
0
 40
0
 40
1
 40
1
 40
1
 40
1
 10
6.999775
 20
58.902841
 30
0.0
 10
7.003833
 20
58.765235
 30
0.0
 10
7.003833
 20
58.627538
 30
0.0
 10
6.999775
 20
58.489931
 30
0.0
  0
LWPOLYLINE
  5
10a
100
AcDbEntity
  8
0
 62
7
100
AcDbPolyline
 90
50
 70
0
 10
6.624759
 20
60.561561
 30
0.0
 10
6.526644
 20
60.466229
 30
0.0
 10
6.430954
 20
60.380778
 30
0.0
 10
6.341842
 20
60.307678
 30
0.0
 10
6.256871
 20
60.243717
 30
0.0
 10
6.177888
 20
60.189322
 30
0.0
 10
6.106814
 20
60.144633
 30
0.0
 10
6.043495
 20
60.108381
 30
0.0
 10
5.986189
 20
60.078660
 30
0.0
 10
5.898329
 20
60.039655
 30
0.0
 10
5.846802
 20
60.021643
 30
0.0
 10
5.810007
 20
60.011553
 30
0.0
 10
5.738668
 20
59.987264
 30
0.0
 10
5.679579
 20
59.959782
 30
0.0
 10
5.654672
 20
59.945146
 30
0.0
 10
5.632861
 20
59.930078
 30
0.0
 10
5.614156
 20
59.914703
 30
0.0
 10
5.598568
 20
59.899143
 30
0.0
 10
5.586088
 20
59.883518
 30
0.0
 10
5.576718
 20
59.867960
 30
0.0
 10
5.570438
 20
59.852598
 30
0.0
 10
5.567248
 20
59.837533
 30
0.0
 10
5.568181
 20
59.815791
 30
0.0
 10
5.587210
 20
59.716678
 30
0.0
 10
5.609666
 20
59.584868
 30
0.0
 10
5.629041
 20
59.452570
 30
0.0
 10
5.641571
 20
59.352427
 30
0.0
 10
5.647401
 20
59.331461
 30
0.0
 10
5.655091
 20
59.318120
 30
0.0
 10
5.665815
 20
59.305452
 30
0.0
 10
5.679535
 20
59.293552
 30
0.0
 10
5.696232
 20
59.282548
 30
0.0
 10
5.715865
 20
59.272566
 30
0.0
 10
5.738406
 20
59.263723
 30
0.0
 10
5.763806
 20
59.256133
 30
0.0
 10
5.792017
 20
59.249910
 30
0.0
 10
5.856706
 20
59.242033
 30
0.0
 10
5.932059
 20
59.240978
 30
0.0
 10
5.970171
 20
59.242752
 30
0.0
 10
6.024742
 20
59.241544
 30
0.0
 10
6.120355
 20
59.231599
 30
0.0
 10
6.184041
 20
59.221042
 30
0.0
 10
6.255463
 20
59.206131
 30
0.0
 10
6.336869
 20
59.185593
 30
0.0
 10
6.428795
 20
59.158267
 30
0.0
 10
6.529371
 20
59.123695
 30
0.0
 10
6.636711
 20
59.081709
 30
0.0
 10
6.754124
 20
59.030010
 30
0.0
 10
6.876896
 20
58.969663
 30
0.0
 10
6.999775
 20
58.902841
 30
0.0
  0
SPLINE
  5
10b
100
AcDbEntity
  8
0
 62
7
100
AcDbSpline
 70
8
 71
3
 72
8
 73
4
 74
0
 40
0
 40
0
 40
0
 40
0
 40
1
 40
1
 40
1
 40
1
 10
6.720974
 20
56.729689
 30
0.0
 10
6.682312
 20
56.597563
 30
0.0
 10
6.639761
 20
56.466606
 30
0.0
 10
6.593378
 20
56.336988
 30
0.0
  0
LWPOLYLINE
  5
10c
100
AcDbEntity
  8
0
 62
7
100
AcDbPolyline
 90
51
 70
0
 10
6.999775
 20
58.489931
 30
0.0
 10
6.876896
 20
58.423110
 30
0.0
 10
6.754124
 20
58.362762
 30
0.0
 10
6.636711
 20
58.311063
 30
0.0
 10
6.529371
 20
58.269078
 30
0.0
 10
6.428795
 20
58.234506
 30
0.0
 10
6.336869
 20
58.207180
 30
0.0
 10
6.255463
 20
58.186641
 30
0.0
 10
6.184041
 20
58.171731
 30
0.0
 10
6.120355
 20
58.161173
 30
0.0
 10
6.024742
 20
58.151228
 30
0.0
 10
5.970171
 20
58.150020
 30
0.0
 10
5.932059
 20
58.151794
 30
0.0
 10
5.856706
 20
58.150739
 30
0.0
 10
5.792017
 20
58.142862
 30
0.0
 10
5.763806
 20
58.136639
 30
0.0
 10
5.738406
 20
58.129049
 30
0.0
 10
5.715865
 20
58.120206
 30
0.0
 10
5.696232
 20
58.110224
 30
0.0
 10
5.679535
 20
58.099221
 30
0.0
 10
5.665815
 20
58.087321
 30
0.0
 10
5.655091
 20
58.074652
 30
0.0
 10
5.647401
 20
58.061311
 30
0.0
 10
5.641571
 20
58.040345
 30
0.0
 10
5.629041
 20
57.940203
 30
0.0
 10
5.609666
 20
57.807904
 30
0.0
 10
5.587210
 20
57.676094
 30
0.0
 10
5.568181
 20
57.576981
 30
0.0
 10
5.567248
 20
57.555239
 30
0.0
 10
5.570438
 20
57.540174
 30
0.0
 10
5.576718
 20
57.524812
 30
0.0
 10
5.586088
 20
57.509254
 30
0.0
 10
5.598568
 20
57.493629
 30
0.0
 10
5.614156
 20
57.478069
 30
0.0
 10
5.632861
 20
57.462694
 30
0.0
 10
5.654672
 20
57.447626
 30
0.0
 10
5.679579
 20
57.432990
 30
0.0
 10
5.738668
 20
57.405508
 30
0.0
 10
5.810007
 20
57.381219
 30
0.0
 10
5.846802
 20
57.371129
 30
0.0
 10
5.898329
 20
57.353117
 30
0.0
 10
5.986189
 20
57.314112
 30
0.0
 10
6.043495
 20
57.284391
 30
0.0
 10
6.106814
 20
57.248139
 30
0.0
 10
6.177888
 20
57.203450
 30
0.0
 10
6.256871
 20
57.149055
 30
0.0
 10
6.341842
 20
57.085095
 30
0.0
 10
6.430954
 20
57.011995
 30
0.0
 10
6.526644
 20
56.926544
 30
0.0
 10
6.624759
 20
56.831212
 30
0.0
 10
6.720974
 20
56.729689
 30
0.0
  0
SPLINE
  5
10d
100
AcDbEntity
  8
0
 62
7
100
AcDbSpline
 70
8
 71
3
 72
8
 73
4
 74
0
 40
0
 40
0
 40
0
 40
0
 40
1
 40
1
 40
1
 40
1
 10
5.784280
 20
54.749052
 30
0.0
 10
5.706682
 20
54.635339
 30
0.0
 10
5.625747
 20
54.523940
 30
0.0
 10
5.541581
 20
54.414999
 30
0.0
  0
LWPOLYLINE
  5
10e
100
AcDbEntity
  8
0
 62
7
100
AcDbPolyline
 90
51
 70
0
 10
6.593378
 20
56.336988
 30
0.0
 10
6.455865
 20
56.311409
 30
0.0
 10
6.320453
 20
56.291954
 30
0.0
 10
6.192811
 20
56.279068
 30
0.0
 10
6.077751
 20
56.272308
 30
0.0
 10
5.971413
 20
56.270508
 30
0.0
 10
5.875542
 20
56.272928
 30
0.0
 10
5.791774
 20
56.278548
 30
0.0
 10
5.719240
 20
56.286438
 30
0.0
 10
5.655409
 20
56.296078
 30
0.0
 10
5.561402
 20
56.316165
 30
0.0
 10
5.509129
 20
56.331879
 30
0.0
 10
5.473431
 20
56.345343
 30
0.0
 10
5.401440
 20
56.367625
 30
0.0
 10
5.337483
 20
56.380123
 30
0.0
 10
5.308730
 20
56.382923
 30
0.0
 10
5.282228
 20
56.383553
 30
0.0
 10
5.258058
 20
56.382113
 30
0.0
 10
5.236301
 20
56.378683
 30
0.0
 10
5.217021
 20
56.373373
 30
0.0
 10
5.200295
 20
56.366293
 30
0.0
 10
5.186181
 20
56.357563
 30
0.0
 10
5.174743
 20
56.347252
 30
0.0
 10
5.162718
 20
56.329114
 30
0.0
 10
5.119855
 20
56.237744
 30
0.0
 10
5.060546
 20
56.117908
 30
0.0
 10
4.998457
 20
55.999489
 30
0.0
 10
4.949732
 20
55.911107
 30
0.0
 10
4.942122
 20
55.890718
 30
0.0
 10
4.940502
 20
55.875404
 30
0.0
 10
4.941732
 20
55.858852
 30
0.0
 10
4.945842
 20
55.841160
 30
0.0
 10
4.952882
 20
55.822444
 30
0.0
 10
4.962898
 20
55.802829
 30
0.0
 10
4.975936
 20
55.782426
 30
0.0
 10
4.992024
 20
55.761356
 30
0.0
 10
5.011189
 20
55.739739
 30
0.0
 10
5.058893
 20
55.695343
 30
0.0
 10
5.119234
 20
55.650198
 30
0.0
 10
5.151110
 20
55.629231
 30
0.0
 10
5.194549
 20
55.596178
 30
0.0
 10
5.266056
 20
55.531932
 30
0.0
 10
5.311373
 20
55.485957
 30
0.0
 10
5.360390
 20
55.431913
 30
0.0
 10
5.414176
 20
55.367448
 30
0.0
 10
5.472484
 20
55.291308
 30
0.0
 10
5.533531
 20
55.204221
 30
0.0
 10
5.595692
 20
55.107162
 30
0.0
 10
5.660293
 20
54.996323
 30
0.0
 10
5.724146
 20
54.875338
 30
0.0
 10
5.784280
 20
54.749052
 30
0.0
  0
SPLINE
  5
10f
100
AcDbEntity
  8
0
 62
7
100
AcDbSpline
 70
8
 71
3
 72
8
 73
4
 74
0
 40
0
 40
0
 40
0
 40
0
 40
1
 40
1
 40
1
 40
1
 10
4.281390
 20
53.154807
 30
0.0
 10
4.172448
 20
53.070639
 30
0.0
 10
4.061049
 20
52.989703
 30
0.0
 10
3.947336
 20
52.912102
 30
0.0
  0
LWPOLYLINE
  5
110
100
AcDbEntity
  8
0
 62
7
100
AcDbPolyline
 90
51
 70
0
 10
5.541581
 20
54.414999
 30
0.0
 10
5.402894
 20
54.433165
 30
0.0
 10
5.268098
 20
54.456507
 30
0.0
 10
5.142721
 20
54.483695
 30
0.0
 10
5.031203
 20
54.512821
 30
0.0
 10
4.929514
 20
54.543969
 30
0.0
 10
4.839082
 20
54.575895
 30
0.0
 10
4.761151
 20
54.607128
 30
0.0
 10
4.694606
 20
54.637046
 30
0.0
 10
4.636877
 20
54.665938
 30
0.0
 10
4.553679
 20
54.714092
 30
0.0
 10
4.508820
 20
54.745191
 30
0.0
 10
4.479030
 20
54.769028
 30
0.0
 10
4.417448
 20
54.812466
 30
0.0
 10
4.360483
 20
54.844116
 30
0.0
 10
4.334002
 20
54.855663
 30
0.0
 10
4.308992
 20
54.864453
 30
0.0
 10
4.285558
 20
54.870553
 30
0.0
 10
4.263807
 20
54.874013
 30
0.0
 10
4.243831
 20
54.874925
 30
0.0
 10
4.225736
 20
54.873365
 30
0.0
 10
4.209614
 20
54.869415
 30
0.0
 10
4.195550
 20
54.863145
 30
0.0
 10
4.178509
 20
54.849611
 30
0.0
 10
4.109509
 20
54.775959
 30
0.0
 10
4.016072
 20
54.680316
 30
0.0
 10
3.920429
 20
54.586879
 30
0.0
 10
3.846777
 20
54.517879
 30
0.0
 10
3.833243
 20
54.500838
 30
0.0
 10
3.826973
 20
54.486774
 30
0.0
 10
3.823023
 20
54.470652
 30
0.0
 10
3.821463
 20
54.452557
 30
0.0
 10
3.822375
 20
54.432581
 30
0.0
 10
3.825835
 20
54.410830
 30
0.0
 10
3.831935
 20
54.387396
 30
0.0
 10
3.840725
 20
54.362386
 30
0.0
 10
3.852272
 20
54.335905
 30
0.0
 10
3.883922
 20
54.278940
 30
0.0
 10
3.927360
 20
54.217358
 30
0.0
 10
3.951197
 20
54.187568
 30
0.0
 10
3.982296
 20
54.142709
 30
0.0
 10
4.030450
 20
54.059511
 30
0.0
 10
4.059342
 20
54.001783
 30
0.0
 10
4.089260
 20
53.935237
 30
0.0
 10
4.120493
 20
53.857307
 30
0.0
 10
4.152419
 20
53.766875
 30
0.0
 10
4.183567
 20
53.665186
 30
0.0
 10
4.212693
 20
53.553668
 30
0.0
 10
4.239881
 20
53.428290
 30
0.0
 10
4.263223
 20
53.293495
 30
0.0
 10
4.281390
 20
53.154807
 30
0.0
  0
SPLINE
  5
111
100
AcDbEntity
  8
0
 62
7
100
AcDbSpline
 70
8
 71
3
 72
8
 73
4
 74
0
 40
0
 40
0
 40
0
 40
0
 40
1
 40
1
 40
1
 40
1
 10
2.359398
 20
52.103008
 30
0.0
 10
2.229781
 20
52.056625
 30
0.0
 10
2.098823
 20
52.014074
 30
0.0
 10
1.966697
 20
51.975411
 30
0.0
  0
LWPOLYLINE
  5
112
100
AcDbEntity
  8
0
 62
7
100
AcDbPolyline
 90
51
 70
0
 10
3.947336
 20
52.912102
 30
0.0
 10
3.821050
 20
52.972236
 30
0.0
 10
3.700064
 20
53.036090
 30
0.0
 10
3.589225
 20
53.100691
 30
0.0
 10
3.492166
 20
53.162852
 30
0.0
 10
3.405079
 20
53.223899
 30
0.0
 10
3.328938
 20
53.282208
 30
0.0
 10
3.264474
 20
53.335994
 30
0.0
 10
3.210430
 20
53.385011
 30
0.0
 10
3.164456
 20
53.430328
 30
0.0
 10
3.100210
 20
53.501835
 30
0.0
 10
3.067157
 20
53.545274
 30
0.0
 10
3.046190
 20
53.577150
 30
0.0
 10
3.001045
 20
53.637491
 30
0.0
 10
2.956649
 20
53.685195
 30
0.0
 10
2.935032
 20
53.704360
 30
0.0
 10
2.913962
 20
53.720448
 30
0.0
 10
2.893559
 20
53.733486
 30
0.0
 10
2.873944
 20
53.743502
 30
0.0
 10
2.855227
 20
53.750542
 30
0.0
 10
2.837535
 20
53.754652
 30
0.0
 10
2.820983
 20
53.755882
 30
0.0
 10
2.805669
 20
53.754262
 30
0.0
 10
2.785280
 20
53.746652
 30
0.0
 10
2.696898
 20
53.697927
 30
0.0
 10
2.578479
 20
53.635838
 30
0.0
 10
2.458643
 20
53.576529
 30
0.0
 10
2.367273
 20
53.533666
 30
0.0
 10
2.349135
 20
53.521641
 30
0.0
 10
2.338824
 20
53.510203
 30
0.0
 10
2.330094
 20
53.496089
 30
0.0
 10
2.323014
 20
53.479363
 30
0.0
 10
2.317704
 20
53.460083
 30
0.0
 10
2.314274
 20
53.438326
 30
0.0
 10
2.312834
 20
53.414156
 30
0.0
 10
2.313464
 20
53.387654
 30
0.0
 10
2.316264
 20
53.358901
 30
0.0
 10
2.328763
 20
53.294944
 30
0.0
 10
2.351045
 20
53.222953
 30
0.0
 10
2.364509
 20
53.187255
 30
0.0
 10
2.380223
 20
53.134982
 30
0.0
 10
2.400310
 20
53.040975
 30
0.0
 10
2.409950
 20
52.977144
 30
0.0
 10
2.417840
 20
52.904610
 30
0.0
 10
2.423460
 20
52.820842
 30
0.0
 10
2.425880
 20
52.724971
 30
0.0
 10
2.424080
 20
52.618633
 30
0.0
 10
2.417320
 20
52.503573
 30
0.0
 10
2.404433
 20
52.375933
 30
0.0
 10
2.384978
 20
52.240521
 30
0.0
 10
2.359398
 20
52.103008
 30
0.0
  0
SPLINE
  5
113
100
AcDbEntity
  8
0
 62
7
100
AcDbSpline
 70
8
 71
3
 72
8
 73
4
 74
0
 40
0
 40
0
 40
0
 40
0
 40
1
 40
1
 40
1
 40
1
 10
0.206455
 20
51.696611
 30
0.0
 10
0.068849
 20
51.692552
 30
0.0
 10
-0.068848
 20
51.692552
 30
0.0
 10
-0.206455
 20
51.696611
 30
0.0
  0
LWPOLYLINE
  5
114
100
AcDbEntity
  8
0
 62
7
100
AcDbPolyline
 90
51
 70
0
 10
1.966697
 20
51.975411
 30
0.0
 10
1.865175
 20
52.071626
 30
0.0
 10
1.769843
 20
52.169741
 30
0.0
 10
1.684392
 20
52.265432
 30
0.0
 10
1.611291
 20
52.354544
 30
0.0
 10
1.547331
 20
52.439515
 30
0.0
 10
1.492936
 20
52.518498
 30
0.0
 10
1.448247
 20
52.589572
 30
0.0
 10
1.411995
 20
52.652891
 30
0.0
 10
1.382274
 20
52.710197
 30
0.0
 10
1.343269
 20
52.798057
 30
0.0
 10
1.325257
 20
52.849584
 30
0.0
 10
1.315167
 20
52.886379
 30
0.0
 10
1.290878
 20
52.957718
 30
0.0
 10
1.263396
 20
53.016806
 30
0.0
 10
1.248760
 20
53.041713
 30
0.0
 10
1.233692
 20
53.063524
 30
0.0
 10
1.218317
 20
53.082229
 30
0.0
 10
1.202757
 20
53.097817
 30
0.0
 10
1.187132
 20
53.110297
 30
0.0
 10
1.171574
 20
53.119667
 30
0.0
 10
1.156212
 20
53.125947
 30
0.0
 10
1.141147
 20
53.129137
 30
0.0
 10
1.119405
 20
53.128205
 30
0.0
 10
1.020292
 20
53.109176
 30
0.0
 10
0.888482
 20
53.086720
 30
0.0
 10
0.756184
 20
53.067344
 30
0.0
 10
0.656041
 20
53.054814
 30
0.0
 10
0.635075
 20
53.048984
 30
0.0
 10
0.621734
 20
53.041294
 30
0.0
 10
0.609066
 20
53.030570
 30
0.0
 10
0.597166
 20
53.016850
 30
0.0
 10
0.586162
 20
53.000153
 30
0.0
 10
0.576180
 20
52.980520
 30
0.0
 10
0.567337
 20
52.957979
 30
0.0
 10
0.559747
 20
52.932579
 30
0.0
 10
0.553524
 20
52.904368
 30
0.0
 10
0.545647
 20
52.839679
 30
0.0
 10
0.544592
 20
52.764326
 30
0.0
 10
0.546366
 20
52.726214
 30
0.0
 10
0.545158
 20
52.671643
 30
0.0
 10
0.535213
 20
52.576030
 30
0.0
 10
0.524656
 20
52.512344
 30
0.0
 10
0.509745
 20
52.440922
 30
0.0
 10
0.489207
 20
52.359517
 30
0.0
 10
0.461881
 20
52.267591
 30
0.0
 10
0.427309
 20
52.167014
 30
0.0
 10
0.385323
 20
52.059675
 30
0.0
 10
0.333624
 20
51.942262
 30
0.0
 10
0.273277
 20
51.819490
 30
0.0
 10
0.206455
 20
51.696611
 30
0.0
  0
SPLINE
  5
115
100
AcDbEntity
  8
0
 62
7
100
AcDbSpline
 70
8
 71
3
 72
8
 73
4
 74
0
 40
0
 40
0
 40
0
 40
0
 40
1
 40
1
 40
1
 40
1
 10
-1.966697
 20
51.975411
 30
0.0
 10
-2.098823
 20
52.014074
 30
0.0
 10
-2.229780
 20
52.056625
 30
0.0
 10
-2.359398
 20
52.103008
 30
0.0
  0
LWPOLYLINE
  5
116
100
AcDbEntity
  8
0
 62
7
100
AcDbPolyline
 90
51
 70
0
 10
-0.206455
 20
51.696611
 30
0.0
 10
-0.273276
 20
51.819490
 30
0.0
 10
-0.333624
 20
51.942262
 30
0.0
 10
-0.385323
 20
52.059675
 30
0.0
 10
-0.427308
 20
52.167014
 30
0.0
 10
-0.461880
 20
52.267591
 30
0.0
 10
-0.489206
 20
52.359517
 30
0.0
 10
-0.509745
 20
52.440922
 30
0.0
 10
-0.524655
 20
52.512344
 30
0.0
 10
-0.535213
 20
52.576030
 30
0.0
 10
-0.545158
 20
52.671643
 30
0.0
 10
-0.546366
 20
52.726214
 30
0.0
 10
-0.544592
 20
52.764326
 30
0.0
 10
-0.545647
 20
52.839679
 30
0.0
 10
-0.553524
 20
52.904368
 30
0.0
 10
-0.559747
 20
52.932579
 30
0.0
 10
-0.567337
 20
52.957979
 30
0.0
 10
-0.576180
 20
52.980520
 30
0.0
 10
-0.586162
 20
53.000153
 30
0.0
 10
-0.597165
 20
53.016850
 30
0.0
 10
-0.609065
 20
53.030570
 30
0.0
 10
-0.621734
 20
53.041294
 30
0.0
 10
-0.635075
 20
53.048984
 30
0.0
 10
-0.656041
 20
53.054814
 30
0.0
 10
-0.756184
 20
53.067344
 30
0.0
 10
-0.888482
 20
53.086720
 30
0.0
 10
-1.020292
 20
53.109176
 30
0.0
 10
-1.119405
 20
53.128205
 30
0.0
 10
-1.141147
 20
53.129137
 30
0.0
 10
-1.156212
 20
53.125947
 30
0.0
 10
-1.171574
 20
53.119667
 30
0.0
 10
-1.187132
 20
53.110297
 30
0.0
 10
-1.202757
 20
53.097817
 30
0.0
 10
-1.218317
 20
53.082229
 30
0.0
 10
-1.233692
 20
53.063524
 30
0.0
 10
-1.248760
 20
53.041713
 30
0.0
 10
-1.263396
 20
53.016806
 30
0.0
 10
-1.290878
 20
52.957718
 30
0.0
 10
-1.315167
 20
52.886379
 30
0.0
 10
-1.325257
 20
52.849584
 30
0.0
 10
-1.343269
 20
52.798057
 30
0.0
 10
-1.382274
 20
52.710197
 30
0.0
 10
-1.411995
 20
52.652891
 30
0.0
 10
-1.448247
 20
52.589572
 30
0.0
 10
-1.492936
 20
52.518498
 30
0.0
 10
-1.547331
 20
52.439515
 30
0.0
 10
-1.611291
 20
52.354544
 30
0.0
 10
-1.684391
 20
52.265432
 30
0.0
 10
-1.769842
 20
52.169741
 30
0.0
 10
-1.865174
 20
52.071626
 30
0.0
 10
-1.966697
 20
51.975411
 30
0.0
  0
SPLINE
  5
117
100
AcDbEntity
  8
0
 62
7
100
AcDbSpline
 70
8
 71
3
 72
8
 73
4
 74
0
 40
0
 40
0
 40
0
 40
0
 40
1
 40
1
 40
1
 40
1
 10
-3.947334
 20
52.912106
 30
0.0
 10
-4.061047
 20
52.989704
 30
0.0
 10
-4.172446
 20
53.070639
 30
0.0
 10
-4.281387
 20
53.154805
 30
0.0
  0
LWPOLYLINE
  5
118
100
AcDbEntity
  8
0
 62
7
100
AcDbPolyline
 90
51
 70
0
 10
-2.359398
 20
52.103008
 30
0.0
 10
-2.384977
 20
52.240521
 30
0.0
 10
-2.404432
 20
52.375933
 30
0.0
 10
-2.417318
 20
52.503575
 30
0.0
 10
-2.424078
 20
52.618635
 30
0.0
 10
-2.425878
 20
52.724973
 30
0.0
 10
-2.423458
 20
52.820844
 30
0.0
 10
-2.417838
 20
52.904612
 30
0.0
 10
-2.409948
 20
52.977146
 30
0.0
 10
-2.400308
 20
53.040977
 30
0.0
 10
-2.380221
 20
53.134984
 30
0.0
 10
-2.364507
 20
53.187257
 30
0.0
 10
-2.351043
 20
53.222955
 30
0.0
 10
-2.328761
 20
53.294946
 30
0.0
 10
-2.316263
 20
53.358903
 30
0.0
 10
-2.313463
 20
53.387656
 30
0.0
 10
-2.312833
 20
53.414158
 30
0.0
 10
-2.314273
 20
53.438328
 30
0.0
 10
-2.317703
 20
53.460085
 30
0.0
 10
-2.323013
 20
53.479365
 30
0.0
 10
-2.330093
 20
53.496091
 30
0.0
 10
-2.338823
 20
53.510205
 30
0.0
 10
-2.349134
 20
53.521643
 30
0.0
 10
-2.367272
 20
53.533668
 30
0.0
 10
-2.458642
 20
53.576531
 30
0.0
 10
-2.578478
 20
53.635840
 30
0.0
 10
-2.696897
 20
53.697929
 30
0.0
 10
-2.785279
 20
53.746654
 30
0.0
 10
-2.805668
 20
53.754264
 30
0.0
 10
-2.820982
 20
53.755884
 30
0.0
 10
-2.837534
 20
53.754654
 30
0.0
 10
-2.855226
 20
53.750544
 30
0.0
 10
-2.873942
 20
53.743504
 30
0.0
 10
-2.893557
 20
53.733488
 30
0.0
 10
-2.913960
 20
53.720450
 30
0.0
 10
-2.935030
 20
53.704362
 30
0.0
 10
-2.956647
 20
53.685197
 30
0.0
 10
-3.001043
 20
53.637493
 30
0.0
 10
-3.046188
 20
53.577152
 30
0.0
 10
-3.067155
 20
53.545276
 30
0.0
 10
-3.100208
 20
53.501837
 30
0.0
 10
-3.164455
 20
53.430330
 30
0.0
 10
-3.210429
 20
53.385013
 30
0.0
 10
-3.264473
 20
53.335996
 30
0.0
 10
-3.328938
 20
53.282210
 30
0.0
 10
-3.405078
 20
53.223902
 30
0.0
 10
-3.492165
 20
53.162855
 30
0.0
 10
-3.589224
 20
53.100694
 30
0.0
 10
-3.700063
 20
53.036093
 30
0.0
 10
-3.821049
 20
52.972240
 30
0.0
 10
-3.947334
 20
52.912106
 30
0.0
  0
SPLINE
  5
119
100
AcDbEntity
  8
0
 62
7
100
AcDbSpline
 70
8
 71
3
 72
8
 73
4
 74
0
 40
0
 40
0
 40
0
 40
0
 40
1
 40
1
 40
1
 40
1
 10
-5.541578
 20
54.414996
 30
0.0
 10
-5.625746
 20
54.523937
 30
0.0
 10
-5.706683
 20
54.635337
 30
0.0
 10
-5.784284
 20
54.749050
 30
0.0
  0
LWPOLYLINE
  5
11a
100
AcDbEntity
  8
0
 62
7
100
AcDbPolyline
 90
51
 70
0
 10
-4.281387
 20
53.154805
 30
0.0
 10
-4.263220
 20
53.293492
 30
0.0
 10
-4.239878
 20
53.428288
 30
0.0
 10
-4.212690
 20
53.553665
 30
0.0
 10
-4.183564
 20
53.665183
 30
0.0
 10
-4.152416
 20
53.766872
 30
0.0
 10
-4.120490
 20
53.857304
 30
0.0
 10
-4.089257
 20
53.935234
 30
0.0
 10
-4.059339
 20
54.001780
 30
0.0
 10
-4.030447
 20
54.059509
 30
0.0
 10
-3.982293
 20
54.142707
 30
0.0
 10
-3.951194
 20
54.187566
 30
0.0
 10
-3.927357
 20
54.217356
 30
0.0
 10
-3.883919
 20
54.278938
 30
0.0
 10
-3.852269
 20
54.335903
 30
0.0
 10
-3.840722
 20
54.362384
 30
0.0
 10
-3.831932
 20
54.387394
 30
0.0
 10
-3.825832
 20
54.410828
 30
0.0
 10
-3.822372
 20
54.432579
 30
0.0
 10
-3.821460
 20
54.452555
 30
0.0
 10
-3.823020
 20
54.470650
 30
0.0
 10
-3.826970
 20
54.486772
 30
0.0
 10
-3.833240
 20
54.500836
 30
0.0
 10
-3.846774
 20
54.517877
 30
0.0
 10
-3.920426
 20
54.586877
 30
0.0
 10
-4.016069
 20
54.680314
 30
0.0
 10
-4.109506
 20
54.775957
 30
0.0
 10
-4.178506
 20
54.849609
 30
0.0
 10
-4.195547
 20
54.863143
 30
0.0
 10
-4.209611
 20
54.869413
 30
0.0
 10
-4.225733
 20
54.873363
 30
0.0
 10
-4.243828
 20
54.874923
 30
0.0
 10
-4.263804
 20
54.874011
 30
0.0
 10
-4.285555
 20
54.870551
 30
0.0
 10
-4.308989
 20
54.864451
 30
0.0
 10
-4.333999
 20
54.855661
 30
0.0
 10
-4.360480
 20
54.844114
 30
0.0
 10
-4.417445
 20
54.812464
 30
0.0
 10
-4.479027
 20
54.769026
 30
0.0
 10
-4.508817
 20
54.745189
 30
0.0
 10
-4.553676
 20
54.714090
 30
0.0
 10
-4.636874
 20
54.665936
 30
0.0
 10
-4.694602
 20
54.637044
 30
0.0
 10
-4.761148
 20
54.607126
 30
0.0
 10
-4.839078
 20
54.575893
 30
0.0
 10
-4.929510
 20
54.543967
 30
0.0
 10
-5.031199
 20
54.512819
 30
0.0
 10
-5.142717
 20
54.483693
 30
0.0
 10
-5.268095
 20
54.456505
 30
0.0
 10
-5.402890
 20
54.433163
 30
0.0
 10
-5.541578
 20
54.414996
 30
0.0
  0
SPLINE
  5
11b
100
AcDbEntity
  8
0
 62
7
100
AcDbSpline
 70
8
 71
3
 72
8
 73
4
 74
0
 40
0
 40
0
 40
0
 40
0
 40
1
 40
1
 40
1
 40
1
 10
-6.593378
 20
56.336988
 30
0.0
 10
-6.639761
 20
56.466605
 30
0.0
 10
-6.682312
 20
56.597563
 30
0.0
 10
-6.720975
 20
56.729689
 30
0.0
  0
LWPOLYLINE
  5
11c
100
AcDbEntity
  8
0
 62
7
100
AcDbPolyline
 90
51
 70
0
 10
-5.784284
 20
54.749050
 30
0.0
 10
-5.724150
 20
54.875336
 30
0.0
 10
-5.660297
 20
54.996322
 30
0.0
 10
-5.595696
 20
55.107161
 30
0.0
 10
-5.533535
 20
55.204220
 30
0.0
 10
-5.472488
 20
55.291307
 30
0.0
 10
-5.414180
 20
55.367447
 30
0.0
 10
-5.360394
 20
55.431912
 30
0.0
 10
-5.311377
 20
55.485956
 30
0.0
 10
-5.266060
 20
55.531930
 30
0.0
 10
-5.194553
 20
55.596176
 30
0.0
 10
-5.151113
 20
55.629229
 30
0.0
 10
-5.119237
 20
55.650196
 30
0.0
 10
-5.058896
 20
55.695341
 30
0.0
 10
-5.011192
 20
55.739737
 30
0.0
 10
-4.992027
 20
55.761354
 30
0.0
 10
-4.975939
 20
55.782424
 30
0.0
 10
-4.962901
 20
55.802828
 30
0.0
 10
-4.952885
 20
55.822443
 30
0.0
 10
-4.945845
 20
55.841159
 30
0.0
 10
-4.941735
 20
55.858851
 30
0.0
 10
-4.940505
 20
55.875403
 30
0.0
 10
-4.942125
 20
55.890717
 30
0.0
 10
-4.949735
 20
55.911106
 30
0.0
 10
-4.998460
 20
55.999488
 30
0.0
 10
-5.060549
 20
56.117907
 30
0.0
 10
-5.119858
 20
56.237743
 30
0.0
 10
-5.162721
 20
56.329113
 30
0.0
 10
-5.174746
 20
56.347251
 30
0.0
 10
-5.186185
 20
56.357562
 30
0.0
 10
-5.200299
 20
56.366292
 30
0.0
 10
-5.217025
 20
56.373372
 30
0.0
 10
-5.236305
 20
56.378682
 30
0.0
 10
-5.258062
 20
56.382112
 30
0.0
 10
-5.282232
 20
56.383552
 30
0.0
 10
-5.308734
 20
56.382922
 30
0.0
 10
-5.337487
 20
56.380122
 30
0.0
 10
-5.401444
 20
56.367624
 30
0.0
 10
-5.473435
 20
56.345342
 30
0.0
 10
-5.509133
 20
56.331877
 30
0.0
 10
-5.561406
 20
56.316163
 30
0.0
 10
-5.655413
 20
56.296076
 30
0.0
 10
-5.719244
 20
56.286436
 30
0.0
 10
-5.791778
 20
56.278546
 30
0.0
 10
-5.875546
 20
56.272926
 30
0.0
 10
-5.971417
 20
56.270506
 30
0.0
 10
-6.077754
 20
56.272306
 30
0.0
 10
-6.192815
 20
56.279066
 30
0.0
 10
-6.320453
 20
56.291953
 30
0.0
 10
-6.455865
 20
56.311408
 30
0.0
 10
-6.593378
 20
56.336988
 30
0.0
  0
SPLINE
  5
11d
100
AcDbEntity
  8
0
 62
7
100
AcDbSpline
 70
8
 71
3
 72
8
 73
4
 74
0
 40
0
 40
0
 40
0
 40
0
 40
1
 40
1
 40
1
 40
1
 10
-6.999775
 20
58.489931
 30
0.0
 10
-7.003834
 20
58.627538
 30
0.0
 10
-7.003834
 20
58.765234
 30
0.0
 10
-6.999775
 20
58.902841
 30
0.0
  0
LWPOLYLINE
  5
11e
100
AcDbEntity
  8
0
 62
7
100
AcDbPolyline
 90
51
 70
0
 10
-6.720975
 20
56.729689
 30
0.0
 10
-6.624760
 20
56.831211
 30
0.0
 10
-6.526645
 20
56.926543
 30
0.0
 10
-6.430955
 20
57.011994
 30
0.0
 10
-6.341842
 20
57.085095
 30
0.0
 10
-6.256871
 20
57.149055
 30
0.0
 10
-6.177888
 20
57.203450
 30
0.0
 10
-6.106814
 20
57.248139
 30
0.0
 10
-6.043495
 20
57.284391
 30
0.0
 10
-5.986189
 20
57.314112
 30
0.0
 10
-5.898329
 20
57.353117
 30
0.0
 10
-5.846802
 20
57.371129
 30
0.0
 10
-5.810007
 20
57.381219
 30
0.0
 10
-5.738668
 20
57.405508
 30
0.0
 10
-5.679580
 20
57.432990
 30
0.0
 10
-5.654673
 20
57.447626
 30
0.0
 10
-5.632862
 20
57.462694
 30
0.0
 10
-5.614157
 20
57.478069
 30
0.0
 10
-5.598569
 20
57.493629
 30
0.0
 10
-5.586089
 20
57.509254
 30
0.0
 10
-5.576719
 20
57.524812
 30
0.0
 10
-5.570439
 20
57.540174
 30
0.0
 10
-5.567249
 20
57.555239
 30
0.0
 10
-5.568181
 20
57.576981
 30
0.0
 10
-5.587210
 20
57.676094
 30
0.0
 10
-5.609667
 20
57.807904
 30
0.0
 10
-5.629042
 20
57.940202
 30
0.0
 10
-5.641572
 20
58.040345
 30
0.0
 10
-5.647402
 20
58.061311
 30
0.0
 10
-5.655092
 20
58.074652
 30
0.0
 10
-5.665816
 20
58.087320
 30
0.0
 10
-5.679536
 20
58.099220
 30
0.0
 10
-5.696233
 20
58.110224
 30
0.0
 10
-5.715866
 20
58.120206
 30
0.0
 10
-5.738407
 20
58.129049
 30
0.0
 10
-5.763807
 20
58.136639
 30
0.0
 10
-5.792018
 20
58.142862
 30
0.0
 10
-5.856707
 20
58.150739
 30
0.0
 10
-5.932060
 20
58.151794
 30
0.0
 10
-5.970172
 20
58.150020
 30
0.0
 10
-6.024743
 20
58.151228
 30
0.0
 10
-6.120356
 20
58.161173
 30
0.0
 10
-6.184042
 20
58.171730
 30
0.0
 10
-6.255464
 20
58.186641
 30
0.0
 10
-6.336869
 20
58.207179
 30
0.0
 10
-6.428795
 20
58.234505
 30
0.0
 10
-6.529372
 20
58.269077
 30
0.0
 10
-6.636711
 20
58.311063
 30
0.0
 10
-6.754124
 20
58.362762
 30
0.0
 10
-6.876896
 20
58.423109
 30
0.0
 10
-6.999775
 20
58.489931
 30
0.0
  0
SPLINE
  5
11f
100
AcDbEntity
  8
0
 62
7
100
AcDbSpline
 70
8
 71
3
 72
8
 73
4
 74
0
 40
0
 40
0
 40
0
 40
0
 40
1
 40
1
 40
1
 40
1
 10
-6.720975
 20
60.663083
 30
0.0
 10
-6.682312
 20
60.795209
 30
0.0
 10
-6.639761
 20
60.926166
 30
0.0
 10
-6.593378
 20
61.055784
 30
0.0
  0
LWPOLYLINE
  5
120
100
AcDbEntity
  8
0
 62
7
100
AcDbPolyline
 90
51
 70
0
 10
-6.999775
 20
58.902841
 30
0.0
 10
-6.876896
 20
58.969662
 30
0.0
 10
-6.754124
 20
59.030010
 30
0.0
 10
-6.636711
 20
59.081709
 30
0.0
 10
-6.529372
 20
59.123694
 30
0.0
 10
-6.428795
 20
59.158266
 30
0.0
 10
-6.336869
 20
59.185592
 30
0.0
 10
-6.255464
 20
59.206131
 30
0.0
 10
-6.184042
 20
59.221041
 30
0.0
 10
-6.120356
 20
59.231599
 30
0.0
 10
-6.024743
 20
59.241544
 30
0.0
 10
-5.970172
 20
59.242752
 30
0.0
 10
-5.932060
 20
59.240978
 30
0.0
 10
-5.856707
 20
59.242033
 30
0.0
 10
-5.792018
 20
59.249910
 30
0.0
 10
-5.763807
 20
59.256133
 30
0.0
 10
-5.738407
 20
59.263723
 30
0.0
 10
-5.715866
 20
59.272566
 30
0.0
 10
-5.696233
 20
59.282548
 30
0.0
 10
-5.679536
 20
59.293551
 30
0.0
 10
-5.665816
 20
59.305451
 30
0.0
 10
-5.655092
 20
59.318120
 30
0.0
 10
-5.647402
 20
59.331461
 30
0.0
 10
-5.641572
 20
59.352427
 30
0.0
 10
-5.629042
 20
59.452570
 30
0.0
 10
-5.609667
 20
59.584868
 30
0.0
 10
-5.587210
 20
59.716678
 30
0.0
 10
-5.568181
 20
59.815791
 30
0.0
 10
-5.567249
 20
59.837533
 30
0.0
 10
-5.570439
 20
59.852598
 30
0.0
 10
-5.576719
 20
59.867960
 30
0.0
 10
-5.586089
 20
59.883518
 30
0.0
 10
-5.598569
 20
59.899143
 30
0.0
 10
-5.614157
 20
59.914703
 30
0.0
 10
-5.632862
 20
59.930078
 30
0.0
 10
-5.654673
 20
59.945146
 30
0.0
 10
-5.679580
 20
59.959782
 30
0.0
 10
-5.738668
 20
59.987264
 30
0.0
 10
-5.810007
 20
60.011553
 30
0.0
 10
-5.846802
 20
60.021643
 30
0.0
 10
-5.898329
 20
60.039655
 30
0.0
 10
-5.986189
 20
60.078660
 30
0.0
 10
-6.043495
 20
60.108381
 30
0.0
 10
-6.106814
 20
60.144633
 30
0.0
 10
-6.177888
 20
60.189322
 30
0.0
 10
-6.256871
 20
60.243717
 30
0.0
 10
-6.341842
 20
60.307677
 30
0.0
 10
-6.430955
 20
60.380777
 30
0.0
 10
-6.526645
 20
60.466228
 30
0.0
 10
-6.624760
 20
60.561560
 30
0.0
 10
-6.720975
 20
60.663083
 30
0.0
  0
SPLINE
  5
121
100
AcDbEntity
  8
0
 62
7
100
AcDbSpline
 70
8
 71
3
 72
8
 73
4
 74
0
 40
0
 40
0
 40
0
 40
0
 40
1
 40
1
 40
1
 40
1
 10
-5.784280
 20
62.643720
 30
0.0
 10
-5.706681
 20
62.757432
 30
0.0
 10
-5.625745
 20
62.868831
 30
0.0
 10
-5.541578
 20
62.977772
 30
0.0
  0
LWPOLYLINE
  5
122
100
AcDbEntity
  8
0
 62
7
100
AcDbPolyline
 90
51
 70
0
 10
-6.593378
 20
61.055784
 30
0.0
 10
-6.455865
 20
61.081363
 30
0.0
 10
-6.320453
 20
61.100818
 30
0.0
 10
-6.192811
 20
61.113704
 30
0.0
 10
-6.077751
 20
61.120464
 30
0.0
 10
-5.971413
 20
61.122264
 30
0.0
 10
-5.875542
 20
61.119844
 30
0.0
 10
-5.791774
 20
61.114224
 30
0.0
 10
-5.719240
 20
61.106334
 30
0.0
 10
-5.655409
 20
61.096694
 30
0.0
 10
-5.561402
 20
61.076607
 30
0.0
 10
-5.509129
 20
61.060893
 30
0.0
 10
-5.473431
 20
61.047429
 30
0.0
 10
-5.401440
 20
61.025147
 30
0.0
 10
-5.337483
 20
61.012649
 30
0.0
 10
-5.308730
 20
61.009849
 30
0.0
 10
-5.282228
 20
61.009218
 30
0.0
 10
-5.258058
 20
61.010658
 30
0.0
 10
-5.236301
 20
61.014088
 30
0.0
 10
-5.217021
 20
61.019398
 30
0.0
 10
-5.200295
 20
61.026478
 30
0.0
 10
-5.186181
 20
61.035208
 30
0.0
 10
-5.174743
 20
61.045519
 30
0.0
 10
-5.162718
 20
61.063657
 30
0.0
 10
-5.119855
 20
61.155028
 30
0.0
 10
-5.060546
 20
61.274863
 30
0.0
 10
-4.998457
 20
61.393283
 30
0.0
 10
-4.949732
 20
61.481665
 30
0.0
 10
-4.942122
 20
61.502054
 30
0.0
 10
-4.940502
 20
61.517368
 30
0.0
 10
-4.941732
 20
61.533920
 30
0.0
 10
-4.945842
 20
61.551612
 30
0.0
 10
-4.952882
 20
61.570328
 30
0.0
 10
-4.962898
 20
61.589943
 30
0.0
 10
-4.975936
 20
61.610346
 30
0.0
 10
-4.992024
 20
61.631416
 30
0.0
 10
-5.011189
 20
61.653033
 30
0.0
 10
-5.058893
 20
61.697429
 30
0.0
 10
-5.119234
 20
61.742574
 30
0.0
 10
-5.151110
 20
61.763541
 30
0.0
 10
-5.194549
 20
61.796594
 30
0.0
 10
-5.266056
 20
61.860840
 30
0.0
 10
-5.311373
 20
61.906814
 30
0.0
 10
-5.360390
 20
61.960858
 30
0.0
 10
-5.414176
 20
62.025323
 30
0.0
 10
-5.472484
 20
62.101463
 30
0.0
 10
-5.533531
 20
62.188550
 30
0.0
 10
-5.595692
 20
62.285609
 30
0.0
 10
-5.660293
 20
62.396449
 30
0.0
 10
-5.724146
 20
62.517434
 30
0.0
 10
-5.784280
 20
62.643720
 30
0.0
  0
SPLINE
  5
123
100
AcDbEntity
  8
0
 62
7
100
AcDbSpline
 70
8
 71
3
 72
8
 73
4
 74
0
 40
0
 40
0
 40
0
 40
0
 40
1
 40
1
 40
1
 40
1
 10
-4.281387
 20
64.237962
 30
0.0
 10
-4.172446
 20
64.322129
 30
0.0
 10
-4.061047
 20
64.403065
 30
0.0
 10
-3.947335
 20
64.480665
 30
0.0
  0
LWPOLYLINE
  5
124
100
AcDbEntity
  8
0
 62
7
100
AcDbPolyline
 90
51
 70
0
 10
-5.541578
 20
62.977772
 30
0.0
 10
-5.402890
 20
62.959605
 30
0.0
 10
-5.268094
 20
62.936263
 30
0.0
 10
-5.142717
 20
62.909075
 30
0.0
 10
-5.031199
 20
62.879948
 30
0.0
 10
-4.929510
 20
62.848800
 30
0.0
 10
-4.839078
 20
62.816874
 30
0.0
 10
-4.761148
 20
62.785641
 30
0.0
 10
-4.694602
 20
62.755723
 30
0.0
 10
-4.636874
 20
62.726831
 30
0.0
 10
-4.553676
 20
62.678677
 30
0.0
 10
-4.508817
 20
62.647578
 30
0.0
 10
-4.479027
 20
62.623741
 30
0.0
 10
-4.417445
 20
62.580303
 30
0.0
 10
-4.360480
 20
62.548653
 30
0.0
 10
-4.333999
 20
62.537106
 30
0.0
 10
-4.308989
 20
62.528316
 30
0.0
 10
-4.285555
 20
62.522216
 30
0.0
 10
-4.263804
 20
62.518756
 30
0.0
 10
-4.243828
 20
62.517844
 30
0.0
 10
-4.225733
 20
62.519404
 30
0.0
 10
-4.209611
 20
62.523354
 30
0.0
 10
-4.195547
 20
62.529624
 30
0.0
 10
-4.178506
 20
62.543158
 30
0.0
 10
-4.109506
 20
62.616810
 30
0.0
 10
-4.016068
 20
62.712453
 30
0.0
 10
-3.920425
 20
62.805890
 30
0.0
 10
-3.846773
 20
62.874890
 30
0.0
 10
-3.833239
 20
62.891931
 30
0.0
 10
-3.826969
 20
62.905995
 30
0.0
 10
-3.823019
 20
62.922117
 30
0.0
 10
-3.821459
 20
62.940212
 30
0.0
 10
-3.822372
 20
62.960188
 30
0.0
 10
-3.825832
 20
62.981939
 30
0.0
 10
-3.831932
 20
63.005373
 30
0.0
 10
-3.840722
 20
63.030383
 30
0.0
 10
-3.852269
 20
63.056864
 30
0.0
 10
-3.883919
 20
63.113829
 30
0.0
 10
-3.927357
 20
63.175412
 30
0.0
 10
-3.951194
 20
63.205202
 30
0.0
 10
-3.982293
 20
63.250061
 30
0.0
 10
-4.030447
 20
63.333259
 30
0.0
 10
-4.059339
 20
63.390987
 30
0.0
 10
-4.089257
 20
63.457533
 30
0.0
 10
-4.120490
 20
63.535463
 30
0.0
 10
-4.152416
 20
63.625895
 30
0.0
 10
-4.183564
 20
63.727584
 30
0.0
 10
-4.212690
 20
63.839102
 30
0.0
 10
-4.239878
 20
63.964479
 30
0.0
 10
-4.263220
 20
64.099275
 30
0.0
 10
-4.281387
 20
64.237962
 30
0.0
  0
SPLINE
  5
125
100
AcDbEntity
  8
0
 62
7
100
AcDbSpline
 70
8
 71
3
 72
8
 73
4
 74
0
 40
0
 40
0
 40
0
 40
0
 40
1
 40
1
 40
1
 40
1
 10
-2.359399
 20
65.289763
 30
0.0
 10
-2.229782
 20
65.336146
 30
0.0
 10
-2.098824
 20
65.378697
 30
0.0
 10
-1.966698
 20
65.417359
 30
0.0
  0
LWPOLYLINE
  5
126
100
AcDbEntity
  8
0
 62
7
100
AcDbPolyline
 90
51
 70
0
 10
-3.947335
 20
64.480665
 30
0.0
 10
-3.821049
 20
64.420531
 30
0.0
 10
-3.700064
 20
64.356678
 30
0.0
 10
-3.589225
 20
64.292077
 30
0.0
 10
-3.492166
 20
64.229916
 30
0.0
 10
-3.405079
 20
64.168869
 30
0.0
 10
-3.328939
 20
64.110561
 30
0.0
 10
-3.264473
 20
64.056775
 30
0.0
 10
-3.210429
 20
64.007758
 30
0.0
 10
-3.164455
 20
63.962441
 30
0.0
 10
-3.100209
 20
63.890934
 30
0.0
 10
-3.067156
 20
63.847495
 30
0.0
 10
-3.046189
 20
63.815619
 30
0.0
 10
-3.001044
 20
63.755278
 30
0.0
 10
-2.956648
 20
63.707573
 30
0.0
 10
-2.935031
 20
63.688408
 30
0.0
 10
-2.913961
 20
63.672320
 30
0.0
 10
-2.893558
 20
63.659282
 30
0.0
 10
-2.873943
 20
63.649266
 30
0.0
 10
-2.855227
 20
63.642226
 30
0.0
 10
-2.837535
 20
63.638116
 30
0.0
 10
-2.820983
 20
63.636886
 30
0.0
 10
-2.805669
 20
63.638506
 30
0.0
 10
-2.785280
 20
63.646116
 30
0.0
 10
-2.696898
 20
63.694841
 30
0.0
 10
-2.578479
 20
63.756931
 30
0.0
 10
-2.458643
 20
63.816240
 30
0.0
 10
-2.367273
 20
63.859103
 30
0.0
 10
-2.349135
 20
63.871128
 30
0.0
 10
-2.338824
 20
63.882566
 30
0.0
 10
-2.330094
 20
63.896680
 30
0.0
 10
-2.323014
 20
63.913406
 30
0.0
 10
-2.317704
 20
63.932686
 30
0.0
 10
-2.314274
 20
63.954443
 30
0.0
 10
-2.312834
 20
63.978613
 30
0.0
 10
-2.313464
 20
64.005115
 30
0.0
 10
-2.316264
 20
64.033868
 30
0.0
 10
-2.328762
 20
64.097825
 30
0.0
 10
-2.351044
 20
64.169816
 30
0.0
 10
-2.364508
 20
64.205514
 30
0.0
 10
-2.380222
 20
64.257787
 30
0.0
 10
-2.400309
 20
64.351794
 30
0.0
 10
-2.409949
 20
64.415625
 30
0.0
 10
-2.417839
 20
64.488159
 30
0.0
 10
-2.423459
 20
64.571927
 30
0.0
 10
-2.425879
 20
64.667798
 30
0.0
 10
-2.424079
 20
64.774136
 30
0.0
 10
-2.417319
 20
64.889196
 30
0.0
 10
-2.404433
 20
65.016838
 30
0.0
 10
-2.384978
 20
65.152250
 30
0.0
 10
-2.359399
 20
65.289763
 30
0.0
  0
SPLINE
  5
127
100
AcDbEntity
  8
0
 62
7
100
AcDbSpline
 70
8
 71
3
 72
8
 73
4
 74
0
 40
0
 40
0
 40
0
 40
0
 40
1
 40
1
 40
1
 40
1
 10
-0.206456
 20
65.696160
 30
0.0
 10
-0.068849
 20
65.700218
 30
0.0
 10
0.068847
 20
65.700218
 30
0.0
 10
0.206454
 20
65.696160
 30
0.0
  0
LWPOLYLINE
  5
128
100
AcDbEntity
  8
0
 62
7
100
AcDbPolyline
 90
51
 70
0
 10
-1.966698
 20
65.417359
 30
0.0
 10
-1.865176
 20
65.321144
 30
0.0
 10
-1.769843
 20
65.223029
 30
0.0
 10
-1.684392
 20
65.127339
 30
0.0
 10
-1.611292
 20
65.038227
 30
0.0
 10
-1.547332
 20
64.953256
 30
0.0
 10
-1.492937
 20
64.874273
 30
0.0
 10
-1.448248
 20
64.803199
 30
0.0
 10
-1.411996
 20
64.739880
 30
0.0
 10
-1.382275
 20
64.682574
 30
0.0
 10
-1.343270
 20
64.594714
 30
0.0
 10
-1.325258
 20
64.543187
 30
0.0
 10
-1.315168
 20
64.506392
 30
0.0
 10
-1.290879
 20
64.435053
 30
0.0
 10
-1.263397
 20
64.375965
 30
0.0
 10
-1.248761
 20
64.351058
 30
0.0
 10
-1.233693
 20
64.329247
 30
0.0
 10
-1.218318
 20
64.310542
 30
0.0
 10
-1.202758
 20
64.294954
 30
0.0
 10
-1.187133
 20
64.282474
 30
0.0
 10
-1.171575
 20
64.273104
 30
0.0
 10
-1.156213
 20
64.266824
 30
0.0
 10
-1.141148
 20
64.263634
 30
0.0
 10
-1.119406
 20
64.264566
 30
0.0
 10
-1.020293
 20
64.283595
 30
0.0
 10
-0.888483
 20
64.306051
 30
0.0
 10
-0.756185
 20
64.325426
 30
0.0
 10
-0.656042
 20
64.337956
 30
0.0
 10
-0.635076
 20
64.343786
 30
0.0
 10
-0.621735
 20
64.351476
 30
0.0
 10
-0.609067
 20
64.362200
 30
0.0
 10
-0.597167
 20
64.375920
 30
0.0
 10
-0.586163
 20
64.392617
 30
0.0
 10
-0.576181
 20
64.412250
 30
0.0
 10
-0.567338
 20
64.434791
 30
0.0
 10
-0.559748
 20
64.460191
 30
0.0
 10
-0.553525
 20
64.488402
 30
0.0
 10
-0.545648
 20
64.553091
 30
0.0
 10
-0.544593
 20
64.628444
 30
0.0
 10
-0.546367
 20
64.666556
 30
0.0
 10
-0.545159
 20
64.721128
 30
0.0
 10
-0.535214
 20
64.816741
 30
0.0
 10
-0.524657
 20
64.880427
 30
0.0
 10
-0.509746
 20
64.951849
 30
0.0
 10
-0.489208
 20
65.033254
 30
0.0
 10
-0.461882
 20
65.125180
 30
0.0
 10
-0.427310
 20
65.225756
 30
0.0
 10
-0.385324
 20
65.333096
 30
0.0
 10
-0.333625
 20
65.450509
 30
0.0
 10
-0.273278
 20
65.573281
 30
0.0
 10
-0.206456
 20
65.696160
 30
0.0
  0
SPLINE
  5
129
100
AcDbEntity
  8
0
 62
7
100
AcDbSpline
 70
8
 71
3
 72
8
 73
4
 74
0
 40
0
 40
0
 40
0
 40
0
 40
1
 40
1
 40
1
 40
1
 10
1.966696
 20
65.417359
 30
0.0
 10
2.098822
 20
65.378697
 30
0.0
 10
2.229779
 20
65.336146
 30
0.0
 10
2.359397
 20
65.289763
 30
0.0
  0
LWPOLYLINE
  5
12a
100
AcDbEntity
  8
0
 62
7
100
AcDbPolyline
 90
51
 70
0
 10
0.206454
 20
65.696160
 30
0.0
 10
0.273276
 20
65.573281
 30
0.0
 10
0.333623
 20
65.450509
 30
0.0
 10
0.385322
 20
65.333096
 30
0.0
 10
0.427307
 20
65.225756
 30
0.0
 10
0.461879
 20
65.125180
 30
0.0
 10
0.489205
 20
65.033254
 30
0.0
 10
0.509744
 20
64.951849
 30
0.0
 10
0.524654
 20
64.880427
 30
0.0
 10
0.535212
 20
64.816741
 30
0.0
 10
0.545157
 20
64.721128
 30
0.0
 10
0.546365
 20
64.666556
 30
0.0
 10
0.544591
 20
64.628444
 30
0.0
 10
0.545646
 20
64.553091
 30
0.0
 10
0.553523
 20
64.488402
 30
0.0
 10
0.559746
 20
64.460191
 30
0.0
 10
0.567336
 20
64.434791
 30
0.0
 10
0.576179
 20
64.412250
 30
0.0
 10
0.586161
 20
64.392617
 30
0.0
 10
0.597164
 20
64.375920
 30
0.0
 10
0.609064
 20
64.362200
 30
0.0
 10
0.621733
 20
64.351476
 30
0.0
 10
0.635074
 20
64.343786
 30
0.0
 10
0.656040
 20
64.337956
 30
0.0
 10
0.756183
 20
64.325426
 30
0.0
 10
0.888481
 20
64.306051
 30
0.0
 10
1.020291
 20
64.283595
 30
0.0
 10
1.119404
 20
64.264566
 30
0.0
 10
1.141146
 20
64.263634
 30
0.0
 10
1.156211
 20
64.266824
 30
0.0
 10
1.171573
 20
64.273104
 30
0.0
 10
1.187131
 20
64.282474
 30
0.0
 10
1.202756
 20
64.294954
 30
0.0
 10
1.218316
 20
64.310542
 30
0.0
 10
1.233691
 20
64.329247
 30
0.0
 10
1.248759
 20
64.351058
 30
0.0
 10
1.263395
 20
64.375965
 30
0.0
 10
1.290877
 20
64.435053
 30
0.0
 10
1.315166
 20
64.506392
 30
0.0
 10
1.325256
 20
64.543187
 30
0.0
 10
1.343268
 20
64.594714
 30
0.0
 10
1.382273
 20
64.682574
 30
0.0
 10
1.411994
 20
64.739880
 30
0.0
 10
1.448246
 20
64.803199
 30
0.0
 10
1.492935
 20
64.874273
 30
0.0
 10
1.547330
 20
64.953256
 30
0.0
 10
1.611290
 20
65.038227
 30
0.0
 10
1.684390
 20
65.127339
 30
0.0
 10
1.769841
 20
65.223029
 30
0.0
 10
1.865173
 20
65.321144
 30
0.0
 10
1.966696
 20
65.417359
 30
0.0
  0
SPLINE
  5
12b
100
AcDbEntity
  8
0
 62
7
100
AcDbSpline
 70
8
 71
3
 72
8
 73
4
 74
0
 40
0
 40
0
 40
0
 40
0
 40
1
 40
1
 40
1
 40
1
 10
3.947333
 20
64.480665
 30
0.0
 10
4.061045
 20
64.403065
 30
0.0
 10
4.172444
 20
64.322129
 30
0.0
 10
4.281385
 20
64.237962
 30
0.0
  0
LWPOLYLINE
  5
12c
100
AcDbEntity
  8
0
 62
7
100
AcDbPolyline
 90
51
 70
0
 10
2.359397
 20
65.289763
 30
0.0
 10
2.384976
 20
65.152250
 30
0.0
 10
2.404431
 20
65.016838
 30
0.0
 10
2.417317
 20
64.889196
 30
0.0
 10
2.424077
 20
64.774136
 30
0.0
 10
2.425877
 20
64.667798
 30
0.0
 10
2.423457
 20
64.571927
 30
0.0
 10
2.417837
 20
64.488159
 30
0.0
 10
2.409947
 20
64.415625
 30
0.0
 10
2.400307
 20
64.351794
 30
0.0
 10
2.380220
 20
64.257787
 30
0.0
 10
2.364506
 20
64.205514
 30
0.0
 10
2.351042
 20
64.169816
 30
0.0
 10
2.328760
 20
64.097825
 30
0.0
 10
2.316262
 20
64.033868
 30
0.0
 10
2.313462
 20
64.005115
 30
0.0
 10
2.312831
 20
63.978613
 30
0.0
 10
2.314271
 20
63.954443
 30
0.0
 10
2.317701
 20
63.932686
 30
0.0
 10
2.323012
 20
63.913406
 30
0.0
 10
2.330092
 20
63.896680
 30
0.0
 10
2.338822
 20
63.882566
 30
0.0
 10
2.349133
 20
63.871128
 30
0.0
 10
2.367271
 20
63.859103
 30
0.0
 10
2.458641
 20
63.816240
 30
0.0
 10
2.578476
 20
63.756931
 30
0.0
 10
2.696896
 20
63.694841
 30
0.0
 10
2.785278
 20
63.646116
 30
0.0
 10
2.805667
 20
63.638506
 30
0.0
 10
2.820981
 20
63.636886
 30
0.0
 10
2.837533
 20
63.638116
 30
0.0
 10
2.855225
 20
63.642226
 30
0.0
 10
2.873941
 20
63.649266
 30
0.0
 10
2.893556
 20
63.659282
 30
0.0
 10
2.913959
 20
63.672320
 30
0.0
 10
2.935029
 20
63.688408
 30
0.0
 10
2.956646
 20
63.707573
 30
0.0
 10
3.001042
 20
63.755278
 30
0.0
 10
3.046187
 20
63.815619
 30
0.0
 10
3.067154
 20
63.847495
 30
0.0
 10
3.100207
 20
63.890934
 30
0.0
 10
3.164453
 20
63.962441
 30
0.0
 10
3.210427
 20
64.007758
 30
0.0
 10
3.264471
 20
64.056775
 30
0.0
 10
3.328936
 20
64.110561
 30
0.0
 10
3.405076
 20
64.168869
 30
0.0
 10
3.492163
 20
64.229916
 30
0.0
 10
3.589223
 20
64.292077
 30
0.0
 10
3.700062
 20
64.356678
 30
0.0
 10
3.821047
 20
64.420531
 30
0.0
 10
3.947333
 20
64.480665
 30
0.0
  0
SPLINE
  5
12d
100
AcDbEntity
  8
0
 62
7
100
AcDbSpline
 70
8
 71
3
 72
8
 73
4
 74
0
 40
0
 40
0
 40
0
 40
0
 40
1
 40
1
 40
1
 40
1
 10
5.541576
 20
62.977772
 30
0.0
 10
5.625742
 20
62.868831
 30
0.0
 10
5.706678
 20
62.757432
 30
0.0
 10
5.784278
 20
62.643720
 30
0.0
  0
LWPOLYLINE
  5
12e
100
AcDbEntity
  8
0
 62
7
100
AcDbPolyline
 90
51
 70
0
 10
4.281385
 20
64.237962
 30
0.0
 10
4.263218
 20
64.099275
 30
0.0
 10
4.239876
 20
63.964479
 30
0.0
 10
4.212688
 20
63.839102
 30
0.0
 10
4.183562
 20
63.727584
 30
0.0
 10
4.152414
 20
63.625895
 30
0.0
 10
4.120488
 20
63.535463
 30
0.0
 10
4.089254
 20
63.457533
 30
0.0
 10
4.059336
 20
63.390987
 30
0.0
 10
4.030444
 20
63.333259
 30
0.0
 10
3.982290
 20
63.250061
 30
0.0
 10
3.951191
 20
63.205202
 30
0.0
 10
3.927354
 20
63.175412
 30
0.0
 10
3.883916
 20
63.113829
 30
0.0
 10
3.852266
 20
63.056864
 30
0.0
 10
3.840719
 20
63.030383
 30
0.0
 10
3.831929
 20
63.005373
 30
0.0
 10
3.825829
 20
62.981939
 30
0.0
 10
3.822369
 20
62.960188
 30
0.0
 10
3.821457
 20
62.940212
 30
0.0
 10
3.823017
 20
62.922117
 30
0.0
 10
3.826967
 20
62.905995
 30
0.0
 10
3.833237
 20
62.891931
 30
0.0
 10
3.846771
 20
62.874890
 30
0.0
 10
3.920423
 20
62.805890
 30
0.0
 10
4.016066
 20
62.712453
 30
0.0
 10
4.109503
 20
62.616810
 30
0.0
 10
4.178503
 20
62.543158
 30
0.0
 10
4.195544
 20
62.529624
 30
0.0
 10
4.209608
 20
62.523354
 30
0.0
 10
4.225730
 20
62.519404
 30
0.0
 10
4.243825
 20
62.517844
 30
0.0
 10
4.263801
 20
62.518756
 30
0.0
 10
4.285552
 20
62.522216
 30
0.0
 10
4.308986
 20
62.528316
 30
0.0
 10
4.333996
 20
62.537106
 30
0.0
 10
4.360477
 20
62.548653
 30
0.0
 10
4.417443
 20
62.580303
 30
0.0
 10
4.479025
 20
62.623741
 30
0.0
 10
4.508815
 20
62.647578
 30
0.0
 10
4.553674
 20
62.678677
 30
0.0
 10
4.636872
 20
62.726831
 30
0.0
 10
4.694600
 20
62.755723
 30
0.0
 10
4.761146
 20
62.785641
 30
0.0
 10
4.839076
 20
62.816874
 30
0.0
 10
4.929508
 20
62.848800
 30
0.0
 10
5.031197
 20
62.879948
 30
0.0
 10
5.142715
 20
62.909075
 30
0.0
 10
5.268092
 20
62.936263
 30
0.0
 10
5.402888
 20
62.959605
 30
0.0
 10
5.541576
 20
62.977772
 30
0.0
  0
SPLINE
  5
12f
100
AcDbEntity
  8
0
 62
7
100
AcDbSpline
 70
8
 71
3
 72
8
 73
4
 74
0
 40
0
 40
0
 40
0
 40
0
 40
1
 40
1
 40
1
 40
1
 10
6.593376
 20
61.055784
 30
0.0
 10
6.639759
 20
60.926166
 30
0.0
 10
6.682310
 20
60.795209
 30
0.0
 10
6.720973
 20
60.663083
 30
0.0
  0
LWPOLYLINE
  5
130
100
AcDbEntity
  8
0
 62
7
100
AcDbPolyline
 90
51
 70
0
 10
5.784278
 20
62.643720
 30
0.0
 10
5.724144
 20
62.517434
 30
0.0
 10
5.660291
 20
62.396449
 30
0.0
 10
5.595690
 20
62.285609
 30
0.0
 10
5.533529
 20
62.188550
 30
0.0
 10
5.472482
 20
62.101463
 30
0.0
 10
5.414174
 20
62.025323
 30
0.0
 10
5.360388
 20
61.960858
 30
0.0
 10
5.311371
 20
61.906814
 30
0.0
 10
5.266054
 20
61.860840
 30
0.0
 10
5.194547
 20
61.796594
 30
0.0
 10
5.151108
 20
61.763541
 30
0.0
 10
5.119232
 20
61.742574
 30
0.0
 10
5.058891
 20
61.697429
 30
0.0
 10
5.011187
 20
61.653033
 30
0.0
 10
4.992022
 20
61.631416
 30
0.0
 10
4.975934
 20
61.610346
 30
0.0
 10
4.962896
 20
61.589943
 30
0.0
 10
4.952880
 20
61.570328
 30
0.0
 10
4.945840
 20
61.551612
 30
0.0
 10
4.941730
 20
61.533920
 30
0.0
 10
4.940500
 20
61.517368
 30
0.0
 10
4.942120
 20
61.502054
 30
0.0
 10
4.949730
 20
61.481665
 30
0.0
 10
4.998455
 20
61.393283
 30
0.0
 10
5.060544
 20
61.274863
 30
0.0
 10
5.119853
 20
61.155028
 30
0.0
 10
5.162716
 20
61.063657
 30
0.0
 10
5.174741
 20
61.045519
 30
0.0
 10
5.186179
 20
61.035208
 30
0.0
 10
5.200293
 20
61.026478
 30
0.0
 10
5.217019
 20
61.019398
 30
0.0
 10
5.236299
 20
61.014088
 30
0.0
 10
5.258056
 20
61.010658
 30
0.0
 10
5.282226
 20
61.009218
 30
0.0
 10
5.308728
 20
61.009849
 30
0.0
 10
5.337481
 20
61.012649
 30
0.0
 10
5.401438
 20
61.025147
 30
0.0
 10
5.473429
 20
61.047429
 30
0.0
 10
5.509127
 20
61.060893
 30
0.0
 10
5.561400
 20
61.076607
 30
0.0
 10
5.655407
 20
61.096694
 30
0.0
 10
5.719238
 20
61.106334
 30
0.0
 10
5.791772
 20
61.114224
 30
0.0
 10
5.875540
 20
61.119844
 30
0.0
 10
5.971411
 20
61.122264
 30
0.0
 10
6.077749
 20
61.120464
 30
0.0
 10
6.192809
 20
61.113704
 30
0.0
 10
6.320451
 20
61.100818
 30
0.0
 10
6.455863
 20
61.081363
 30
0.0
 10
6.593376
 20
61.055784
 30
0.0
  0
LWPOLYLINE
  5
131
100
AcDbEntity
  8
0
 62
7
100
AcDbPolyline
 90
2
 70
0
 10
6.720973
 20
60.663083
 30
0.0
 10
6.624759
 20
60.561561
 30
0.0
  0
ENDSEC
  0
SECTION
  2
OBJECTS
  0
DICTIONARY
  5
C
330
0
100
AcDbDictionary
  3
ACAD_GROUP
350
D
  3
ACAD_MLINESTYLE
350
17
  0
DICTIONARY
  5
D
330
C
100
AcDbDictionary
  0
DICTIONARY
  5
1A
330
C
100
AcDbDictionary
  0
DICTIONARY
  5
17
330
C
100
AcDbDictionary
  3
STANDARD
350
18
  0
DICTIONARY
  5
19
330
C
100
AcDbDictionary
  0
ENDSEC
  0
EOF
