  0
SECTION
  2
HEADER
  9
$ACADVER
  1
AC1014
  9
$HANDSEED
  5
FFFF
  9
$MEASUREMENT
 70
     1
  0
ENDSEC
  0
SECTION
  2
TABLES
  0
TABLE
  2
VPORT
  5
8
330
0
100
AcDbSymbolTable
 70
     4
  0
VPORT
  5
2E
330
8
100
AcDbSymbolTableRecord
100
AcDbViewportTableRecord
  2
*ACTIVE
 70
     0
 10
0.0
 20
0.0
 11
1.0
 21
1.0
 12
210.0
 22
148.5
 13
0.0
 23
0.0
 14
10.0
 24
10.0
 15
10.0
 25
10.0
 16
0.0
 26
0.0
 36
1.0
 17
0.0
 27
0.0
 37
0.0
 40
341.0
 41
1.24
 42
50.0
 43
0.0
 44
0.0
 50
0.0
 51
0.0
 71
     0
 72
   100
 73
     1
 74
     3
 75
     0
 76
     0
 77
     0
 78
     0
  0
ENDTAB
  0
TABLE
  2
LTYPE
  5
5
330
0
100
AcDbSymbolTable
 70
     1
  0
LTYPE
  5
14
330
5
100
AcDbSymbolTableRecord
100
AcDbLinetypeTableRecord
  2
BYBLOCK
 70
     0
  3

 72
    65
 73
     0
 40
0.0
  0
LTYPE
  5
15
330
5
100
AcDbSymbolTableRecord
100
AcDbLinetypeTableRecord
  2
BYLAYER
 70
     0
  3

 72
    65
 73
     0
 40
0.0
  0
LTYPE
  5
16
330
5
100
AcDbSymbolTableRecord
100
AcDbLinetypeTableRecord
  2
CONTINUOUS
 70
     0
  3
Solid line
 72
    65
 73
     0
 40
0.0
  0
ENDTAB
  0
TABLE
  2
LAYER
  5
2
100
AcDbSymbolTable
 70
1
  0
LAYER
  5
50
100
AcDbSymbolTableRecord
100
AcDbLayerTableRecord
  2
0
 70
0
  6
CONTINUOUS
  0
ENDTAB
  0
TABLE
  2
STYLE
  5
3
330
0
100
AcDbSymbolTable
 70
     1
  0
STYLE
  5
11
330
3
100
AcDbSymbolTableRecord
100
AcDbTextStyleTableRecord
  2
STANDARD
 70
     0
 40
0.0
 41
1.0
 50
0.0
 71
     0
 42
2.5
  3
txt
  4

  0
ENDTAB
  0
TABLE
  2
VIEW
  5
6
330
0
100
AcDbSymbolTable
 70
     0
  0
ENDTAB
  0
TABLE
  2
UCS
  5
7
330
0
100
AcDbSymbolTable
 70
     0
  0
ENDTAB
  0
TABLE
  2
APPID
  5
9
330
0
100
AcDbSymbolTable
 70
     2
  0
APPID
  5
12
330
9
100
AcDbSymbolTableRecord
100
AcDbRegAppTableRecord
  2
ACAD
 70
     0
  0
ENDTAB
  0
TABLE
  2
DIMSTYLE
  5
A
330
0
100
AcDbSymbolTable
 70
     1
  0
DIMSTYLE
105
27
330
A
100
AcDbSymbolTableRecord
100
AcDbDimStyleTableRecord
  2
ISO-25
 70
     0
  3

  4

  5

  6

  7

 40
1.0
 41
2.5
 42
0.625
 43
3.75
 44
1.25
 45
0.0
 46
0.0
 47
0.0
 48
0.0
140
2.5
141
2.5
142
0.0
143
0.03937007874016
144
1.0
145
0.0
146
1.0
147
0.625
 71
     0
 72
     0
 73
     0
 74
     0
 75
     0
 76
     0
 77
     1
 78
     8
170
     0
171
     3
172
     1
173
     0
174
     0
175
     0
176
     0
177
     0
178
     0
270
     2
271
     2
272
     2
273
     2
274
     3
340
11
275
     0
280
     0
281
     0
282
     0
283
     0
284
     8
285
     0
286
     0
287
     3
288
     0
  0
ENDTAB
  0
TABLE
  2
BLOCK_RECORD
  5
1
330
0
100
AcDbSymbolTable
 70
     1
  0
BLOCK_RECORD
  5
1F
330
1
100
AcDbSymbolTableRecord
100
AcDbBlockTableRecord
  2
*MODEL_SPACE
  0
BLOCK_RECORD
  5
1B
330
1
100
AcDbSymbolTableRecord
100
AcDbBlockTableRecord
  2
*PAPER_SPACE
  0
ENDTAB
  0
ENDSEC
  0
SECTION
  2
BLOCKS
  0
BLOCK
  5
20
330
1F
100
AcDbEntity
  8
0
100
AcDbBlockBegin
  2
*MODEL_SPACE
 70
     0
 10
0.0
 20
0.0
 30
0.0
  3
*MODEL_SPACE
  1

  0
ENDBLK
  5
21
330
1F
100
AcDbEntity
  8
0
100
AcDbBlockEnd
  0
BLOCK
  5
1C
330
1B
100
AcDbEntity
 67
     1
  8
0
100
AcDbBlockBegin
  2
*PAPER_SPACE
  1

  0
ENDBLK
  5
1D
330
1B
100
AcDbEntity
 67
     1
  8
0
100
AcDbBlockEnd
  0
ENDSEC
  0
SECTION
  2
ENTITIES
  0
SPLINE
  5
100
100
AcDbEntity
  8
0
 62
7
100
AcDbSpline
 70
8
 71
3
 72
8
 73
4
 74
0
 40
0
 40
0
 40
0
 40
0
 40
1
 40
1
 40
1
 40
1
 10
0.000000
 20
99.036737
 30
0.0
 10
-0.808924
 20
99.036737
 30
0.0
 10
-1.538197
 20
98.549453
 30
0.0
 10
-1.847758
 20
97.802104
 30
0.0
  0
SPLINE
  5
101
100
AcDbEntity
  8
0
 62
7
100
AcDbSpline
 70
8
 71
3
 72
8
 73
4
 74
0
 40
0
 40
0
 40
0
 40
0
 40
1
 40
1
 40
1
 40
1
 10
-1.847758
 20
97.802104
 30
0.0
 10
-2.157320
 20
97.054756
 30
0.0
 10
-1.986209
 20
96.194520
 30
0.0
 10
-1.414213
 20
95.622524
 30
0.0
  0
SPLINE
  5
102
100
AcDbEntity
  8
0
 62
7
100
AcDbSpline
 70
8
 71
3
 72
8
 73
4
 74
0
 40
0
 40
0
 40
0
 40
0
 40
1
 40
1
 40
1
 40
1
 10
-1.414213
 20
95.622524
 30
0.0
 10
-0.842217
 20
95.050529
 30
0.0
 10
0.018018
 20
94.879417
 30
0.0
 10
0.765367
 20
95.188979
 30
0.0
  0
SPLINE
  5
103
100
AcDbEntity
  8
0
 62
7
100
AcDbSpline
 70
8
 71
3
 72
8
 73
4
 74
0
 40
0
 40
0
 40
0
 40
0
 40
1
 40
1
 40
1
 40
1
 10
0.765367
 20
95.188979
 30
0.0
 10
1.512715
 20
95.498541
 30
0.0
 10
1.999999
 20
96.227813
 30
0.0
 10
1.999999
 20
97.036738
 30
0.0
  0
SPLINE
  5
104
100
AcDbEntity
  8
0
 62
7
100
AcDbSpline
 70
8
 71
3
 72
8
 73
4
 74
0
 40
0
 40
0
 40
0
 40
0
 40
1
 40
1
 40
1
 40
1
 10
1.999999
 20
97.036738
 30
0.0
 10
1.999999
 20
97.567170
 30
0.0
 10
1.789286
 20
98.075878
 30
0.0
 10
1.414213
 20
98.450951
 30
0.0
  0
SPLINE
  5
105
100
AcDbEntity
  8
0
 62
7
100
AcDbSpline
 70
8
 71
3
 72
8
 73
4
 74
0
 40
0
 40
0
 40
0
 40
0
 40
1
 40
1
 40
1
 40
1
 10
1.414213
 20
98.450951
 30
0.0
 10
1.039140
 20
98.826023
 30
0.0
 10
0.530433
 20
99.036737
 30
0.0
 10
-0.000000
 20
99.036737
 30
0.0
  0
LWPOLYLINE
  5
106
100
AcDbEntity
  8
0
 62
7
100
AcDbPolyline
 90
1
 70
1
 10
-0.000000
 20
99.036737
 30
0.0
  0
SPLINE
  5
107
100
AcDbEntity
  8
0
 62
7
100
AcDbSpline
 70
8
 71
3
 72
8
 73
4
 74
0
 40
0
 40
0
 40
0
 40
0
 40
1
 40
1
 40
1
 40
1
 10
14.478078
 20
97.420765
 30
0.0
 10
14.484868
 20
97.164794
 30
0.0
 10
14.484868
 20
96.908688
 30
0.0
 10
14.478078
 20
96.652717
 30
0.0
  0
LWPOLYLINE
  5
108
100
AcDbEntity
  8
0
 62
7
100
AcDbPolyline
 90
46
 70
0
 10
13.888366
 20
100.235075
 30
0.0
 10
13.681588
 20
100.061772
 30
0.0
 10
13.483558
 20
99.909431
 30
0.0
 10
13.297827
 20
99.778589
 30
0.0
 10
13.125779
 20
99.667855
 30
0.0
 10
12.968982
 20
99.575963
 30
0.0
 10
12.826597
 20
99.500321
 30
0.0
 10
12.701827
 20
99.440584
 30
0.0
 10
12.595103
 20
99.394852
 30
0.0
 10
12.505613
 20
99.360851
 30
0.0
 10
12.295836
 20
99.292293
 30
0.0
 10
12.241496
 20
99.269344
 30
0.0
 10
12.193526
 20
99.245226
 30
0.0
 10
12.151936
 20
99.220193
 30
0.0
 10
12.116726
 20
99.194518
 30
0.0
 10
12.087926
 20
99.168445
 30
0.0
 10
12.065526
 20
99.142237
 30
0.0
 10
12.049516
 20
99.116154
 30
0.0
 10
12.039916
 20
99.090435
 30
0.0
 10
12.036616
 20
99.065351
 30
0.0
 10
12.038316
 20
99.047102
 30
0.0
 10
12.069426
 20
98.851137
 30
0.0
 10
12.100586
 20
98.629800
 30
0.0
 10
12.127776
 20
98.407941
 30
0.0
 10
12.148436
 20
98.210601
 30
0.0
 10
12.151536
 20
98.192543
 30
0.0
 10
12.161236
 20
98.169166
 30
0.0
 10
12.177206
 20
98.146820
 30
0.0
 10
12.199426
 20
98.125770
 30
0.0
 10
12.227846
 20
98.106253
 30
0.0
 10
12.262416
 20
98.088524
 30
0.0
 10
12.303076
 20
98.072836
 30
0.0
 10
12.349726
 20
98.059420
 30
0.0
 10
12.402306
 20
98.048540
 30
0.0
 10
12.460736
 20
98.040440
 30
0.0
 10
12.681108
 20
98.028512
 30
0.0
 10
12.776348
 20
98.018830
 30
0.0
 10
12.891272
 20
98.002279
 30
0.0
 10
13.027252
 20
97.976870
 30
0.0
 10
13.184363
 20
97.940658
 30
0.0
 10
13.359600
 20
97.892479
 30
0.0
 10
13.554446
 20
97.830047
 30
0.0
 10
13.767713
 20
97.751734
 30
0.0
 10
13.998422
 20
97.655837
 30
0.0
 10
14.243009
 20
97.541958
 30
0.0
 10
14.478078
 20
97.420765
 30
0.0
  0
SPLINE
  5
109
100
AcDbEntity
  8
0
 62
7
100
AcDbSpline
 70
8
 71
3
 72
8
 73
4
 74
0
 40
0
 40
0
 40
0
 40
0
 40
1
 40
1
 40
1
 40
1
 10
14.084057
 20
93.660503
 30
0.0
 10
14.024366
 20
93.411497
 30
0.0
 10
13.958081
 20
93.164118
 30
0.0
 10
13.885273
 20
92.918626
 30
0.0
  0
LWPOLYLINE
  5
10a
100
AcDbEntity
  8
0
 62
7
100
AcDbPolyline
 90
47
 70
0
 10
14.478078
 20
96.652717
 30
0.0
 10
14.243009
 20
96.531524
 30
0.0
 10
13.998422
 20
96.417645
 30
0.0
 10
13.767713
 20
96.321748
 30
0.0
 10
13.554446
 20
96.243435
 30
0.0
 10
13.359600
 20
96.181004
 30
0.0
 10
13.184363
 20
96.132825
 30
0.0
 10
13.027252
 20
96.096612
 30
0.0
 10
12.891272
 20
96.071203
 30
0.0
 10
12.776348
 20
96.054652
 30
0.0
 10
12.681108
 20
96.044970
 30
0.0
 10
12.460736
 20
96.033043
 30
0.0
 10
12.402306
 20
96.024943
 30
0.0
 10
12.349726
 20
96.014063
 30
0.0
 10
12.303076
 20
96.000647
 30
0.0
 10
12.262416
 20
95.984959
 30
0.0
 10
12.227846
 20
95.967230
 30
0.0
 10
12.199426
 20
95.947713
 30
0.0
 10
12.177206
 20
95.926663
 30
0.0
 10
12.161236
 20
95.904317
 30
0.0
 10
12.151536
 20
95.880940
 30
0.0
 10
12.148436
 20
95.862882
 30
0.0
 10
12.127776
 20
95.665541
 30
0.0
 10
12.100586
 20
95.443682
 30
0.0
 10
12.069426
 20
95.222345
 30
0.0
 10
12.038316
 20
95.026380
 30
0.0
 10
12.036616
 20
95.008131
 30
0.0
 10
12.039916
 20
94.983047
 30
0.0
 10
12.049516
 20
94.957328
 30
0.0
 10
12.065526
 20
94.931245
 30
0.0
 10
12.087926
 20
94.905037
 30
0.0
 10
12.116726
 20
94.878964
 30
0.0
 10
12.151936
 20
94.853289
 30
0.0
 10
12.193526
 20
94.828256
 30
0.0
 10
12.241496
 20
94.804138
 30
0.0
 10
12.295836
 20
94.781189
 30
0.0
 10
12.505613
 20
94.712631
 30
0.0
 10
12.595103
 20
94.678630
 30
0.0
 10
12.701827
 20
94.632898
 30
0.0
 10
12.826597
 20
94.573161
 30
0.0
 10
12.968982
 20
94.497519
 30
0.0
 10
13.125779
 20
94.405627
 30
0.0
 10
13.297827
 20
94.294893
 30
0.0
 10
13.483558
 20
94.164051
 30
0.0
 10
13.681588
 20
94.011710
 30
0.0
 10
13.888366
 20
93.838407
 30
0.0
 10
14.084057
 20
93.660503
 30
0.0
  0
SPLINE
  5
10b
100
AcDbEntity
  8
0
 62
7
100
AcDbSpline
 70
8
 71
3
 72
8
 73
4
 74
0
 40
0
 40
0
 40
0
 40
0
 40
1
 40
1
 40
1
 40
1
 10
12.730369
 20
90.130332
 30
0.0
 10
12.608247
 20
89.905254
 30
0.0
 10
12.480178
 20
89.683455
 30
0.0
 10
12.346296
 20
89.465168
 30
0.0
  0
LWPOLYLINE
  5
10c
100
AcDbEntity
  8
0
 62
7
100
AcDbPolyline
 90
47
 70
0
 10
13.885273
 20
92.918626
 30
0.0
 10
13.626846
 20
92.862403
 30
0.0
 10
13.361120
 20
92.815708
 30
0.0
 10
13.113450
 20
92.782791
 30
0.0
 10
12.887182
 20
92.762344
 30
0.0
 10
12.682817
 20
92.752474
 30
0.0
 10
12.501080
 20
92.751294
 30
0.0
 10
12.339950
 20
92.756974
 30
0.0
 10
12.202028
 20
92.767626
 30
0.0
 10
12.086736
 20
92.781383
 30
0.0
 10
11.992236
 20
92.796681
 30
0.0
 10
11.776286
 20
92.842196
 30
0.0
 10
11.717756
 20
92.849496
 30
0.0
 10
11.664156
 20
92.852596
 30
0.0
 10
11.615626
 20
92.851712
 30
0.0
 10
11.572296
 20
92.847082
 30
0.0
 10
11.534316
 20
92.838902
 30
0.0
 10
11.501816
 20
92.827406
 30
0.0
 10
11.474906
 20
92.812823
 30
0.0
 10
11.453696
 20
92.795373
 30
0.0
 10
11.438296
 20
92.775296
 30
0.0
 10
11.430596
 20
92.758659
 30
0.0
 10
11.359556
 20
92.573391
 30
0.0
 10
11.275866
 20
92.366129
 30
0.0
 10
11.188486
 20
92.160398
 30
0.0
 10
11.107716
 20
91.979164
 30
0.0
 10
11.101416
 20
91.961968
 30
0.0
 10
11.098116
 20
91.936886
 30
0.0
 10
11.100816
 20
91.909547
 30
0.0
 10
11.109516
 20
91.880208
 30
0.0
 10
11.124366
 20
91.849095
 30
0.0
 10
11.145436
 20
91.816456
 30
0.0
 10
11.172796
 20
91.782542
 30
0.0
 10
11.206486
 20
91.747599
 30
0.0
 10
11.246586
 20
91.711887
 30
0.0
 10
11.293136
 20
91.675656
 30
0.0
 10
11.478020
 20
91.555140
 30
0.0
 10
11.555660
 20
91.499136
 30
0.0
 10
11.646910
 20
91.427341
 30
0.0
 10
11.751968
 20
91.337347
 30
0.0
 10
11.869924
 20
91.227430
 30
0.0
 10
11.997594
 20
91.098087
 30
0.0
 10
12.135120
 20
90.946597
 30
0.0
 10
12.280658
 20
90.772143
 30
0.0
 10
12.432511
 20
90.573738
 30
0.0
 10
12.587389
 20
90.352823
 30
0.0
 10
12.730369
 20
90.130332
 30
0.0
  0
SPLINE
  5
10d
100
AcDbEntity
  8
0
 62
7
100
AcDbSpline
 70
8
 71
3
 72
8
 73
4
 74
0
 40
0
 40
0
 40
0
 40
0
 40
1
 40
1
 40
1
 40
1
 10
10.509031
 20
87.070797
 30
0.0
 10
10.332833
 20
86.884998
 30
0.0
 10
10.151739
 20
86.703904
 30
0.0
 10
9.965940
 20
86.527706
 30
0.0
  0
LWPOLYLINE
  5
10e
100
AcDbEntity
  8
0
 62
7
100
AcDbPolyline
 90
47
 70
0
 10
12.346296
 20
89.465168
 30
0.0
 10
12.082123
 20
89.477746
 30
0.0
 10
11.813365
 20
89.501417
 30
0.0
 10
11.565616
 20
89.533723
 30
0.0
 10
11.341765
 20
89.572535
 30
0.0
 10
11.141808
 20
89.615891
 30
0.0
 10
10.965958
 20
89.661786
 30
0.0
 10
10.811790
 20
89.708980
 30
0.0
 10
10.681324
 20
89.754966
 30
0.0
 10
10.573522
 20
89.798094
 30
0.0
 10
10.486202
 20
89.837329
 30
0.0
 10
10.289390
 20
89.937185
 30
0.0
 10
10.234740
 20
89.959381
 30
0.0
 10
10.183760
 20
89.976249
 30
0.0
 10
10.136650
 20
89.987956
 30
0.0
 10
10.093600
 20
89.994696
 30
0.0
 10
10.054800
 20
89.996626
 30
0.0
 10
10.020430
 20
89.993936
 30
0.0
 10
9.990664
 20
89.986816
 30
0.0
 10
9.965658
 20
89.975450
 30
0.0
 10
9.945589
 20
89.960041
 30
0.0
 10
9.933863
 20
89.945959
 30
0.0
 10
9.817296
 20
89.785389
 30
0.0
 10
9.682819
 20
89.606849
 30
0.0
 10
9.545168
 20
89.430745
 30
0.0
 10
9.420239
 20
89.276591
 30
0.0
 10
9.409672
 20
89.261620
 30
0.0
 10
9.399982
 20
89.238249
 30
0.0
 10
9.395472
 20
89.211153
 30
0.0
 10
9.396298
 20
89.180558
 30
0.0
 10
9.402598
 20
89.146661
 30
0.0
 10
9.414506
 20
89.109680
 30
0.0
 10
9.432161
 20
89.069839
 30
0.0
 10
9.455661
 20
89.027366
 30
0.0
 10
9.485147
 20
88.982493
 30
0.0
 10
9.520732
 20
88.935449
 30
0.0
 10
9.668124
 20
88.771188
 30
0.0
 10
9.728622
 20
88.696998
 30
0.0
 10
9.798182
 20
88.604031
 30
0.0
 10
9.876368
 20
88.489913
 30
0.0
 10
9.961856
 20
88.353212
 30
0.0
 10
10.051701
 20
88.195233
 30
0.0
 10
10.145331
 20
88.013310
 30
0.0
 10
10.240761
 20
87.807132
 30
0.0
 10
10.336091
 20
87.576186
 30
0.0
 10
10.428511
 20
87.322713
 30
0.0
 10
10.509031
 20
87.070797
 30
0.0
  0
SPLINE
  5
10f
100
AcDbEntity
  8
0
 62
7
100
AcDbSpline
 70
8
 71
3
 72
8
 73
4
 74
0
 40
0
 40
0
 40
0
 40
0
 40
1
 40
1
 40
1
 40
1
 10
7.571571
 20
84.690444
 30
0.0
 10
7.353288
 20
84.556578
 30
0.0
 10
7.131493
 20
84.428524
 30
0.0
 10
6.906421
 20
84.306418
 30
0.0
  0
LWPOLYLINE
  5
110
100
AcDbEntity
  8
0
 62
7
100
AcDbPolyline
 90
47
 70
0
 10
9.965940
 20
86.527706
 30
0.0
 10
9.714024
 20
86.608229
 30
0.0
 10
9.460550
 20
86.700653
 30
0.0
 10
9.229604
 20
86.795981
 30
0.0
 10
9.023426
 20
86.891407
 30
0.0
 10
8.841504
 20
86.985038
 30
0.0
 10
8.683524
 20
87.074882
 30
0.0
 10
8.546824
 20
87.160370
 30
0.0
 10
8.432705
 20
87.238556
 30
0.0
 10
8.339739
 20
87.308116
 30
0.0
 10
8.265549
 20
87.368614
 30
0.0
 10
8.101288
 20
87.516006
 30
0.0
 10
8.054244
 20
87.551591
 30
0.0
 10
8.009371
 20
87.581077
 30
0.0
 10
7.966898
 20
87.604577
 30
0.0
 10
7.927057
 20
87.622232
 30
0.0
 10
7.890076
 20
87.634140
 30
0.0
 10
7.856179
 20
87.640440
 30
0.0
 10
7.825584
 20
87.641266
 30
0.0
 10
7.798488
 20
87.636756
 30
0.0
 10
7.775117
 20
87.627066
 30
0.0
 10
7.760147
 20
87.616498
 30
0.0
 10
7.605993
 20
87.491570
 30
0.0
 10
7.429888
 20
87.353919
 30
0.0
 10
7.251348
 20
87.219441
 30
0.0
 10
7.090779
 20
87.102874
 30
0.0
 10
7.076697
 20
87.091149
 30
0.0
 10
7.061289
 20
87.071082
 30
0.0
 10
7.049923
 20
87.046076
 30
0.0
 10
7.042803
 20
87.016310
 30
0.0
 10
7.040113
 20
86.981940
 30
0.0
 10
7.042043
 20
86.943140
 30
0.0
 10
7.048783
 20
86.900090
 30
0.0
 10
7.060490
 20
86.852980
 30
0.0
 10
7.077358
 20
86.802000
 30
0.0
 10
7.099554
 20
86.747350
 30
0.0
 10
7.199410
 20
86.550538
 30
0.0
 10
7.238645
 20
86.463218
 30
0.0
 10
7.281773
 20
86.355416
 30
0.0
 10
7.327759
 20
86.224950
 30
0.0
 10
7.374953
 20
86.070781
 30
0.0
 10
7.420848
 20
85.894931
 30
0.0
 10
7.464204
 20
85.694974
 30
0.0
 10
7.503016
 20
85.471123
 30
0.0
 10
7.535322
 20
85.223374
 30
0.0
 10
7.558993
 20
84.954616
 30
0.0
 10
7.571571
 20
84.690444
 30
0.0
  0
SPLINE
  5
111
100
AcDbEntity
  8
0
 62
7
100
AcDbSpline
 70
8
 71
3
 72
8
 73
4
 74
0
 40
0
 40
0
 40
0
 40
0
 40
1
 40
1
 40
1
 40
1
 10
4.118126
 20
83.151514
 30
0.0
 10
3.872633
 20
83.078689
 30
0.0
 10
3.625251
 20
83.012388
 30
0.0
 10
3.376241
 20
82.952680
 30
0.0
  0
LWPOLYLINE
  5
112
100
AcDbEntity
  8
0
 62
7
100
AcDbPolyline
 90
47
 70
0
 10
6.906421
 20
84.306418
 30
0.0
 10
6.683930
 20
84.449398
 30
0.0
 10
6.463014
 20
84.604276
 30
0.0
 10
6.264610
 20
84.756129
 30
0.0
 10
6.090156
 20
84.901667
 30
0.0
 10
5.938666
 20
85.039192
 30
0.0
 10
5.809322
 20
85.166862
 30
0.0
 10
5.699406
 20
85.284818
 30
0.0
 10
5.609412
 20
85.389876
 30
0.0
 10
5.537617
 20
85.481126
 30
0.0
 10
5.481613
 20
85.558766
 30
0.0
 10
5.361097
 20
85.743650
 30
0.0
 10
5.324866
 20
85.790200
 30
0.0
 10
5.289154
 20
85.830300
 30
0.0
 10
5.254211
 20
85.863990
 30
0.0
 10
5.220297
 20
85.891350
 30
0.0
 10
5.187658
 20
85.912420
 30
0.0
 10
5.156545
 20
85.927270
 30
0.0
 10
5.127206
 20
85.935970
 30
0.0
 10
5.099867
 20
85.938670
 30
0.0
 10
5.074785
 20
85.935370
 30
0.0
 10
5.057589
 20
85.929070
 30
0.0
 10
4.876355
 20
85.848300
 30
0.0
 10
4.670624
 20
85.760920
 30
0.0
 10
4.463362
 20
85.677230
 30
0.0
 10
4.278094
 20
85.606190
 30
0.0
 10
4.261457
 20
85.598490
 30
0.0
 10
4.241380
 20
85.583090
 30
0.0
 10
4.223930
 20
85.561880
 30
0.0
 10
4.209347
 20
85.534970
 30
0.0
 10
4.197851
 20
85.502470
 30
0.0
 10
4.189671
 20
85.464490
 30
0.0
 10
4.185041
 20
85.421160
 30
0.0
 10
4.184156
 20
85.372630
 30
0.0
 10
4.187256
 20
85.319030
 30
0.0
 10
4.194556
 20
85.260500
 30
0.0
 10
4.240071
 20
85.044550
 30
0.0
 10
4.255369
 20
84.950050
 30
0.0
 10
4.269126
 20
84.834759
 30
0.0
 10
4.279778
 20
84.696837
 30
0.0
 10
4.285458
 20
84.535707
 30
0.0
 10
4.284278
 20
84.353970
 30
0.0
 10
4.274408
 20
84.149605
 30
0.0
 10
4.253961
 20
83.923337
 30
0.0
 10
4.221044
 20
83.675667
 30
0.0
 10
4.174349
 20
83.409941
 30
0.0
 10
4.118126
 20
83.151514
 30
0.0
  0
SPLINE
  5
113
100
AcDbEntity
  8
0
 62
7
100
AcDbSpline
 70
8
 71
3
 72
8
 73
4
 74
0
 40
0
 40
0
 40
0
 40
0
 40
1
 40
1
 40
1
 40
1
 10
0.384027
 20
82.558659
 30
0.0
 10
0.128056
 20
82.551870
 30
0.0
 10
-0.128049
 20
82.551870
 30
0.0
 10
-0.384020
 20
82.558659
 30
0.0
  0
LWPOLYLINE
  5
114
100
AcDbEntity
  8
0
 62
7
100
AcDbPolyline
 90
47
 70
0
 10
3.376241
 20
82.952680
 30
0.0
 10
3.198337
 20
83.148372
 30
0.0
 10
3.025035
 20
83.355150
 30
0.0
 10
2.872693
 20
83.553180
 30
0.0
 10
2.741851
 20
83.738911
 30
0.0
 10
2.631117
 20
83.910959
 30
0.0
 10
2.539225
 20
84.067756
 30
0.0
 10
2.463583
 20
84.210141
 30
0.0
 10
2.403846
 20
84.334911
 30
0.0
 10
2.358114
 20
84.441635
 30
0.0
 10
2.324113
 20
84.531125
 30
0.0
 10
2.255555
 20
84.740902
 30
0.0
 10
2.232606
 20
84.795242
 30
0.0
 10
2.208488
 20
84.843212
 30
0.0
 10
2.183455
 20
84.884802
 30
0.0
 10
2.157780
 20
84.920012
 30
0.0
 10
2.131707
 20
84.948811
 30
0.0
 10
2.105499
 20
84.971211
 30
0.0
 10
2.079416
 20
84.987221
 30
0.0
 10
2.053697
 20
84.996821
 30
0.0
 10
2.028613
 20
85.000121
 30
0.0
 10
2.010364
 20
84.998421
 30
0.0
 10
1.814399
 20
84.967311
 30
0.0
 10
1.593063
 20
84.936151
 30
0.0
 10
1.371204
 20
84.908962
 30
0.0
 10
1.173863
 20
84.888302
 30
0.0
 10
1.155805
 20
84.885202
 30
0.0
 10
1.132428
 20
84.875502
 30
0.0
 10
1.110082
 20
84.859532
 30
0.0
 10
1.089032
 20
84.837312
 30
0.0
 10
1.069515
 20
84.808892
 30
0.0
 10
1.051786
 20
84.774322
 30
0.0
 10
1.036098
 20
84.733662
 30
0.0
 10
1.022682
 20
84.687012
 30
0.0
 10
1.011802
 20
84.634432
 30
0.0
 10
1.003702
 20
84.576002
 30
0.0
 10
0.991774
 20
84.355630
 30
0.0
 10
0.982092
 20
84.260390
 30
0.0
 10
0.965541
 20
84.145466
 30
0.0
 10
0.940133
 20
84.009486
 30
0.0
 10
0.903920
 20
83.852375
 30
0.0
 10
0.855741
 20
83.677138
 30
0.0
 10
0.793309
 20
83.482292
 30
0.0
 10
0.714996
 20
83.269025
 30
0.0
 10
0.619100
 20
83.038315
 30
0.0
 10
0.505220
 20
82.793728
 30
0.0
 10
0.384027
 20
82.558659
 30
0.0
  0
SPLINE
  5
115
100
AcDbEntity
  8
0
 62
7
100
AcDbSpline
 70
8
 71
3
 72
8
 73
4
 74
0
 40
0
 40
0
 40
0
 40
0
 40
1
 40
1
 40
1
 40
1
 10
-3.376234
 20
82.952680
 30
0.0
 10
-3.625240
 20
83.012372
 30
0.0
 10
-3.872620
 20
83.078657
 30
0.0
 10
-4.118111
 20
83.151465
 30
0.0
  0
LWPOLYLINE
  5
116
100
AcDbEntity
  8
0
 62
7
100
AcDbPolyline
 90
47
 70
0
 10
-0.384020
 20
82.558659
 30
0.0
 10
-0.505213
 20
82.793728
 30
0.0
 10
-0.619093
 20
83.038315
 30
0.0
 10
-0.714989
 20
83.269025
 30
0.0
 10
-0.793302
 20
83.482292
 30
0.0
 10
-0.855734
 20
83.677138
 30
0.0
 10
-0.903913
 20
83.852375
 30
0.0
 10
-0.940126
 20
84.009486
 30
0.0
 10
-0.965534
 20
84.145466
 30
0.0
 10
-0.982085
 20
84.260390
 30
0.0
 10
-0.991767
 20
84.355630
 30
0.0
 10
-1.003695
 20
84.576002
 30
0.0
 10
-1.011795
 20
84.634432
 30
0.0
 10
-1.022675
 20
84.687012
 30
0.0
 10
-1.036091
 20
84.733662
 30
0.0
 10
-1.051779
 20
84.774322
 30
0.0
 10
-1.069508
 20
84.808892
 30
0.0
 10
-1.089025
 20
84.837312
 30
0.0
 10
-1.110075
 20
84.859532
 30
0.0
 10
-1.132421
 20
84.875502
 30
0.0
 10
-1.155798
 20
84.885202
 30
0.0
 10
-1.173856
 20
84.888302
 30
0.0
 10
-1.371197
 20
84.908962
 30
0.0
 10
-1.593056
 20
84.936151
 30
0.0
 10
-1.814392
 20
84.967311
 30
0.0
 10
-2.010357
 20
84.998421
 30
0.0
 10
-2.028606
 20
85.000121
 30
0.0
 10
-2.053690
 20
84.996821
 30
0.0
 10
-2.079409
 20
84.987221
 30
0.0
 10
-2.105492
 20
84.971211
 30
0.0
 10
-2.131700
 20
84.948811
 30
0.0
 10
-2.157773
 20
84.920012
 30
0.0
 10
-2.183448
 20
84.884802
 30
0.0
 10
-2.208481
 20
84.843212
 30
0.0
 10
-2.232599
 20
84.795242
 30
0.0
 10
-2.255548
 20
84.740902
 30
0.0
 10
-2.324106
 20
84.531125
 30
0.0
 10
-2.358107
 20
84.441635
 30
0.0
 10
-2.403839
 20
84.334911
 30
0.0
 10
-2.463576
 20
84.210141
 30
0.0
 10
-2.539218
 20
84.067756
 30
0.0
 10
-2.631110
 20
83.910959
 30
0.0
 10
-2.741844
 20
83.738911
 30
0.0
 10
-2.872686
 20
83.553180
 30
0.0
 10
-3.025028
 20
83.355150
 30
0.0
 10
-3.198330
 20
83.148372
 30
0.0
 10
-3.376234
 20
82.952680
 30
0.0
  0
SPLINE
  5
117
100
AcDbEntity
  8
0
 62
7
100
AcDbSpline
 70
8
 71
3
 72
8
 73
4
 74
0
 40
0
 40
0
 40
0
 40
0
 40
1
 40
1
 40
1
 40
1
 10
-6.906406
 20
84.306369
 30
0.0
 10
-7.131483
 20
84.428490
 30
0.0
 10
-7.353283
 20
84.556559
 30
0.0
 10
-7.571570
 20
84.690442
 30
0.0
  0
LWPOLYLINE
  5
118
100
AcDbEntity
  8
0
 62
7
100
AcDbPolyline
 90
47
 70
0
 10
-4.118111
 20
83.151465
 30
0.0
 10
-4.174334
 20
83.409892
 30
0.0
 10
-4.221029
 20
83.675618
 30
0.0
 10
-4.253946
 20
83.923288
 30
0.0
 10
-4.274393
 20
84.149556
 30
0.0
 10
-4.284263
 20
84.353921
 30
0.0
 10
-4.285443
 20
84.535658
 30
0.0
 10
-4.279763
 20
84.696788
 30
0.0
 10
-4.269111
 20
84.834710
 30
0.0
 10
-4.255354
 20
84.950001
 30
0.0
 10
-4.240056
 20
85.044501
 30
0.0
 10
-4.194541
 20
85.260451
 30
0.0
 10
-4.187241
 20
85.318981
 30
0.0
 10
-4.184141
 20
85.372581
 30
0.0
 10
-4.185026
 20
85.421111
 30
0.0
 10
-4.189656
 20
85.464441
 30
0.0
 10
-4.197836
 20
85.502421
 30
0.0
 10
-4.209332
 20
85.534921
 30
0.0
 10
-4.223915
 20
85.561831
 30
0.0
 10
-4.241365
 20
85.583041
 30
0.0
 10
-4.261442
 20
85.598441
 30
0.0
 10
-4.278079
 20
85.606141
 30
0.0
 10
-4.463347
 20
85.677181
 30
0.0
 10
-4.670608
 20
85.760871
 30
0.0
 10
-4.876339
 20
85.848251
 30
0.0
 10
-5.057574
 20
85.929021
 30
0.0
 10
-5.074770
 20
85.935321
 30
0.0
 10
-5.099852
 20
85.938621
 30
0.0
 10
-5.127191
 20
85.935921
 30
0.0
 10
-5.156530
 20
85.927221
 30
0.0
 10
-5.187643
 20
85.912371
 30
0.0
 10
-5.220282
 20
85.891301
 30
0.0
 10
-5.254196
 20
85.863941
 30
0.0
 10
-5.289139
 20
85.830251
 30
0.0
 10
-5.324851
 20
85.790151
 30
0.0
 10
-5.361082
 20
85.743601
 30
0.0
 10
-5.481598
 20
85.558717
 30
0.0
 10
-5.537602
 20
85.481077
 30
0.0
 10
-5.609397
 20
85.389827
 30
0.0
 10
-5.699391
 20
85.284769
 30
0.0
 10
-5.809307
 20
85.166813
 30
0.0
 10
-5.938650
 20
85.039143
 30
0.0
 10
-6.090141
 20
84.901618
 30
0.0
 10
-6.264595
 20
84.756080
 30
0.0
 10
-6.462999
 20
84.604227
 30
0.0
 10
-6.683915
 20
84.449349
 30
0.0
 10
-6.906406
 20
84.306369
 30
0.0
  0
SPLINE
  5
119
100
AcDbEntity
  8
0
 62
7
100
AcDbSpline
 70
8
 71
3
 72
8
 73
4
 74
0
 40
0
 40
0
 40
0
 40
0
 40
1
 40
1
 40
1
 40
1
 10
-9.965941
 20
86.527707
 30
0.0
 10
-10.151740
 20
86.703904
 30
0.0
 10
-10.332834
 20
86.884998
 30
0.0
 10
-10.509032
 20
87.070798
 30
0.0
  0
LWPOLYLINE
  5
11a
100
AcDbEntity
  8
0
 62
7
100
AcDbPolyline
 90
47
 70
0
 10
-7.571570
 20
84.690442
 30
0.0
 10
-7.558992
 20
84.954614
 30
0.0
 10
-7.535321
 20
85.223372
 30
0.0
 10
-7.503015
 20
85.471121
 30
0.0
 10
-7.464203
 20
85.694972
 30
0.0
 10
-7.420847
 20
85.894929
 30
0.0
 10
-7.374952
 20
86.070779
 30
0.0
 10
-7.327758
 20
86.224948
 30
0.0
 10
-7.281772
 20
86.355414
 30
0.0
 10
-7.238644
 20
86.463216
 30
0.0
 10
-7.199409
 20
86.550536
 30
0.0
 10
-7.099553
 20
86.747348
 30
0.0
 10
-7.077357
 20
86.801998
 30
0.0
 10
-7.060489
 20
86.852978
 30
0.0
 10
-7.048782
 20
86.900088
 30
0.0
 10
-7.042042
 20
86.943138
 30
0.0
 10
-7.040112
 20
86.981938
 30
0.0
 10
-7.042802
 20
87.016308
 30
0.0
 10
-7.049922
 20
87.046074
 30
0.0
 10
-7.061288
 20
87.071080
 30
0.0
 10
-7.076697
 20
87.091149
 30
0.0
 10
-7.090779
 20
87.102874
 30
0.0
 10
-7.251348
 20
87.219441
 30
0.0
 10
-7.429888
 20
87.353919
 30
0.0
 10
-7.605993
 20
87.491570
 30
0.0
 10
-7.760147
 20
87.616498
 30
0.0
 10
-7.775118
 20
87.627065
 30
0.0
 10
-7.798488
 20
87.636755
 30
0.0
 10
-7.825584
 20
87.641265
 30
0.0
 10
-7.856179
 20
87.640440
 30
0.0
 10
-7.890076
 20
87.634140
 30
0.0
 10
-7.927057
 20
87.622232
 30
0.0
 10
-7.966898
 20
87.604577
 30
0.0
 10
-8.009371
 20
87.581077
 30
0.0
 10
-8.054244
 20
87.551591
 30
0.0
 10
-8.101288
 20
87.516006
 30
0.0
 10
-8.265549
 20
87.368613
 30
0.0
 10
-8.339739
 20
87.308115
 30
0.0
 10
-8.432706
 20
87.238555
 30
0.0
 10
-8.546825
 20
87.160369
 30
0.0
 10
-8.683525
 20
87.074882
 30
0.0
 10
-8.841505
 20
86.985037
 30
0.0
 10
-9.023427
 20
86.891407
 30
0.0
 10
-9.229605
 20
86.795977
 30
0.0
 10
-9.460551
 20
86.700647
 30
0.0
 10
-9.714025
 20
86.608227
 30
0.0
 10
-9.965941
 20
86.527707
 30
0.0
  0
SPLINE
  5
11b
100
AcDbEntity
  8
0
 62
7
100
AcDbSpline
 70
8
 71
3
 72
8
 73
4
 74
0
 40
0
 40
0
 40
0
 40
0
 40
1
 40
1
 40
1
 40
1
 10
-12.346294
 20
89.465167
 30
0.0
 10
-12.480159
 20
89.683450
 30
0.0
 10
-12.608212
 20
89.905244
 30
0.0
 10
-12.730318
 20
90.130316
 30
0.0
  0
LWPOLYLINE
  5
11c
100
AcDbEntity
  8
0
 62
7
100
AcDbPolyline
 90
47
 70
0
 10
-10.509032
 20
87.070798
 30
0.0
 10
-10.428512
 20
87.322714
 30
0.0
 10
-10.336092
 20
87.576187
 30
0.0
 10
-10.240762
 20
87.807133
 30
0.0
 10
-10.145332
 20
88.013311
 30
0.0
 10
-10.051702
 20
88.195234
 30
0.0
 10
-9.961857
 20
88.353213
 30
0.0
 10
-9.876369
 20
88.489914
 30
0.0
 10
-9.798183
 20
88.604032
 30
0.0
 10
-9.728623
 20
88.696999
 30
0.0
 10
-9.668125
 20
88.771189
 30
0.0
 10
-9.520732
 20
88.935450
 30
0.0
 10
-9.485147
 20
88.982494
 30
0.0
 10
-9.455661
 20
89.027367
 30
0.0
 10
-9.432161
 20
89.069840
 30
0.0
 10
-9.414506
 20
89.109681
 30
0.0
 10
-9.402598
 20
89.146662
 30
0.0
 10
-9.396298
 20
89.180559
 30
0.0
 10
-9.395473
 20
89.211154
 30
0.0
 10
-9.399983
 20
89.238250
 30
0.0
 10
-9.409673
 20
89.261621
 30
0.0
 10
-9.420239
 20
89.276591
 30
0.0
 10
-9.545168
 20
89.430745
 30
0.0
 10
-9.682819
 20
89.606849
 30
0.0
 10
-9.817296
 20
89.785389
 30
0.0
 10
-9.933863
 20
89.945959
 30
0.0
 10
-9.945589
 20
89.960041
 30
0.0
 10
-9.965656
 20
89.975449
 30
0.0
 10
-9.990662
 20
89.986815
 30
0.0
 10
-10.020428
 20
89.993935
 30
0.0
 10
-10.054798
 20
89.996625
 30
0.0
 10
-10.093598
 20
89.994695
 30
0.0
 10
-10.136648
 20
89.987955
 30
0.0
 10
-10.183758
 20
89.976248
 30
0.0
 10
-10.234738
 20
89.959380
 30
0.0
 10
-10.289388
 20
89.937184
 30
0.0
 10
-10.486200
 20
89.837328
 30
0.0
 10
-10.573520
 20
89.798093
 30
0.0
 10
-10.681322
 20
89.754965
 30
0.0
 10
-10.811788
 20
89.708979
 30
0.0
 10
-10.965956
 20
89.661785
 30
0.0
 10
-11.141806
 20
89.615890
 30
0.0
 10
-11.341763
 20
89.572534
 30
0.0
 10
-11.565614
 20
89.533722
 30
0.0
 10
-11.813363
 20
89.501416
 30
0.0
 10
-12.082121
 20
89.477745
 30
0.0
 10
-12.346294
 20
89.465167
 30
0.0
  0
SPLINE
  5
11d
100
AcDbEntity
  8
0
 62
7
100
AcDbSpline
 70
8
 71
3
 72
8
 73
4
 74
0
 40
0
 40
0
 40
0
 40
0
 40
1
 40
1
 40
1
 40
1
 10
-13.885222
 20
92.918610
 30
0.0
 10
-13.958030
 20
93.164102
 30
0.0
 10
-14.024315
 20
93.411481
 30
0.0
 10
-14.084006
 20
93.660487
 30
0.0
  0
LWPOLYLINE
  5
11e
100
AcDbEntity
  8
0
 62
7
100
AcDbPolyline
 90
47
 70
0
 10
-12.730318
 20
90.130316
 30
0.0
 10
-12.587338
 20
90.352807
 30
0.0
 10
-12.432460
 20
90.573722
 30
0.0
 10
-12.280607
 20
90.772127
 30
0.0
 10
-12.135069
 20
90.946581
 30
0.0
 10
-11.997543
 20
91.098071
 30
0.0
 10
-11.869873
 20
91.227414
 30
0.0
 10
-11.751917
 20
91.337331
 30
0.0
 10
-11.646859
 20
91.427325
 30
0.0
 10
-11.555609
 20
91.499120
 30
0.0
 10
-11.477969
 20
91.555124
 30
0.0
 10
-11.293085
 20
91.675639
 30
0.0
 10
-11.246535
 20
91.711870
 30
0.0
 10
-11.206435
 20
91.747582
 30
0.0
 10
-11.172745
 20
91.782525
 30
0.0
 10
-11.145385
 20
91.816439
 30
0.0
 10
-11.124315
 20
91.849078
 30
0.0
 10
-11.109465
 20
91.880191
 30
0.0
 10
-11.100765
 20
91.909530
 30
0.0
 10
-11.098065
 20
91.936869
 30
0.0
 10
-11.101365
 20
91.961951
 30
0.0
 10
-11.107665
 20
91.979147
 30
0.0
 10
-11.188435
 20
92.160382
 30
0.0
 10
-11.275815
 20
92.366113
 30
0.0
 10
-11.359505
 20
92.573375
 30
0.0
 10
-11.430545
 20
92.758643
 30
0.0
 10
-11.438245
 20
92.775280
 30
0.0
 10
-11.453645
 20
92.795357
 30
0.0
 10
-11.474855
 20
92.812807
 30
0.0
 10
-11.501765
 20
92.827390
 30
0.0
 10
-11.534265
 20
92.838886
 30
0.0
 10
-11.572245
 20
92.847066
 30
0.0
 10
-11.615575
 20
92.851696
 30
0.0
 10
-11.664105
 20
92.852580
 30
0.0
 10
-11.717705
 20
92.849480
 30
0.0
 10
-11.776235
 20
92.842180
 30
0.0
 10
-11.992185
 20
92.796665
 30
0.0
 10
-12.086685
 20
92.781367
 30
0.0
 10
-12.201977
 20
92.767610
 30
0.0
 10
-12.339899
 20
92.756958
 30
0.0
 10
-12.501029
 20
92.751278
 30
0.0
 10
-12.682766
 20
92.752458
 30
0.0
 10
-12.887131
 20
92.762328
 30
0.0
 10
-13.113399
 20
92.782775
 30
0.0
 10
-13.361069
 20
92.815692
 30
0.0
 10
-13.626795
 20
92.862387
 30
0.0
 10
-13.885222
 20
92.918610
 30
0.0
  0
SPLINE
  5
11f
100
AcDbEntity
  8
0
 62
7
100
AcDbSpline
 70
8
 71
3
 72
8
 73
4
 74
0
 40
0
 40
0
 40
0
 40
0
 40
1
 40
1
 40
1
 40
1
 10
-14.478027
 20
96.652701
 30
0.0
 10
-14.484817
 20
96.908672
 30
0.0
 10
-14.484817
 20
97.164778
 30
0.0
 10
-14.478027
 20
97.420749
 30
0.0
  0
LWPOLYLINE
  5
120
100
AcDbEntity
  8
0
 62
7
100
AcDbPolyline
 90
47
 70
0
 10
-14.084006
 20
93.660487
 30
0.0
 10
-13.888315
 20
93.838391
 30
0.0
 10
-13.681537
 20
94.011694
 30
0.0
 10
-13.483507
 20
94.164035
 30
0.0
 10
-13.297776
 20
94.294877
 30
0.0
 10
-13.125728
 20
94.405611
 30
0.0
 10
-12.968931
 20
94.497503
 30
0.0
 10
-12.826546
 20
94.573145
 30
0.0
 10
-12.701776
 20
94.632882
 30
0.0
 10
-12.595052
 20
94.678614
 30
0.0
 10
-12.505562
 20
94.712615
 30
0.0
 10
-12.295785
 20
94.781173
 30
0.0
 10
-12.241445
 20
94.804122
 30
0.0
 10
-12.193475
 20
94.828240
 30
0.0
 10
-12.151885
 20
94.853273
 30
0.0
 10
-12.116675
 20
94.878948
 30
0.0
 10
-12.087875
 20
94.905021
 30
0.0
 10
-12.065475
 20
94.931229
 30
0.0
 10
-12.049465
 20
94.957312
 30
0.0
 10
-12.039865
 20
94.983031
 30
0.0
 10
-12.036565
 20
95.008115
 30
0.0
 10
-12.038265
 20
95.026364
 30
0.0
 10
-12.069375
 20
95.222329
 30
0.0
 10
-12.100535
 20
95.443666
 30
0.0
 10
-12.127725
 20
95.665525
 30
0.0
 10
-12.148385
 20
95.862865
 30
0.0
 10
-12.151485
 20
95.880923
 30
0.0
 10
-12.161185
 20
95.904300
 30
0.0
 10
-12.177155
 20
95.926646
 30
0.0
 10
-12.199375
 20
95.947696
 30
0.0
 10
-12.227795
 20
95.967213
 30
0.0
 10
-12.262365
 20
95.984942
 30
0.0
 10
-12.303025
 20
96.000630
 30
0.0
 10
-12.349675
 20
96.014046
 30
0.0
 10
-12.402255
 20
96.024926
 30
0.0
 10
-12.460685
 20
96.033026
 30
0.0
 10
-12.681057
 20
96.044954
 30
0.0
 10
-12.776297
 20
96.054636
 30
0.0
 10
-12.891221
 20
96.071187
 30
0.0
 10
-13.027201
 20
96.096596
 30
0.0
 10
-13.184312
 20
96.132808
 30
0.0
 10
-13.359549
 20
96.180987
 30
0.0
 10
-13.554395
 20
96.243419
 30
0.0
 10
-13.767662
 20
96.321732
 30
0.0
 10
-13.998371
 20
96.417629
 30
0.0
 10
-14.242958
 20
96.531508
 30
0.0
 10
-14.478027
 20
96.652701
 30
0.0
  0
SPLINE
  5
121
100
AcDbEntity
  8
0
 62
7
100
AcDbSpline
 70
8
 71
3
 72
8
 73
4
 74
0
 40
0
 40
0
 40
0
 40
0
 40
1
 40
1
 40
1
 40
1
 10
-14.084006
 20
100.412963
 30
0.0
 10
-14.024315
 20
100.661969
 30
0.0
 10
-13.958030
 20
100.909348
 30
0.0
 10
-13.885222
 20
101.154840
 30
0.0
  0
LWPOLYLINE
  5
122
100
AcDbEntity
  8
0
 62
7
100
AcDbPolyline
 90
47
 70
0
 10
-14.478027
 20
97.420749
 30
0.0
 10
-14.242958
 20
97.541942
 30
0.0
 10
-13.998371
 20
97.655821
 30
0.0
 10
-13.767662
 20
97.751718
 30
0.0
 10
-13.554395
 20
97.830031
 30
0.0
 10
-13.359549
 20
97.892462
 30
0.0
 10
-13.184312
 20
97.940641
 30
0.0
 10
-13.027201
 20
97.976854
 30
0.0
 10
-12.891221
 20
98.002263
 30
0.0
 10
-12.776297
 20
98.018814
 30
0.0
 10
-12.681057
 20
98.028496
 30
0.0
 10
-12.460685
 20
98.040423
 30
0.0
 10
-12.402255
 20
98.048523
 30
0.0
 10
-12.349675
 20
98.059403
 30
0.0
 10
-12.303025
 20
98.072819
 30
0.0
 10
-12.262365
 20
98.088507
 30
0.0
 10
-12.227795
 20
98.106236
 30
0.0
 10
-12.199375
 20
98.125753
 30
0.0
 10
-12.177155
 20
98.146803
 30
0.0
 10
-12.161185
 20
98.169149
 30
0.0
 10
-12.151485
 20
98.192526
 30
0.0
 10
-12.148385
 20
98.210584
 30
0.0
 10
-12.127725
 20
98.407925
 30
0.0
 10
-12.100535
 20
98.629784
 30
0.0
 10
-12.069375
 20
98.851121
 30
0.0
 10
-12.038265
 20
99.047086
 30
0.0
 10
-12.036565
 20
99.065335
 30
0.0
 10
-12.039865
 20
99.090419
 30
0.0
 10
-12.049465
 20
99.116138
 30
0.0
 10
-12.065475
 20
99.142221
 30
0.0
 10
-12.087875
 20
99.168429
 30
0.0
 10
-12.116675
 20
99.194502
 30
0.0
 10
-12.151885
 20
99.220177
 30
0.0
 10
-12.193475
 20
99.245210
 30
0.0
 10
-12.241445
 20
99.269328
 30
0.0
 10
-12.295785
 20
99.292277
 30
0.0
 10
-12.505562
 20
99.360835
 30
0.0
 10
-12.595052
 20
99.394836
 30
0.0
 10
-12.701776
 20
99.440568
 30
0.0
 10
-12.826546
 20
99.500305
 30
0.0
 10
-12.968931
 20
99.575947
 30
0.0
 10
-13.125728
 20
99.667839
 30
0.0
 10
-13.297776
 20
99.778573
 30
0.0
 10
-13.483507
 20
99.909415
 30
0.0
 10
-13.681537
 20
100.061756
 30
0.0
 10
-13.888315
 20
100.235059
 30
0.0
 10
-14.084006
 20
100.412963
 30
0.0
  0
SPLINE
  5
123
100
AcDbEntity
  8
0
 62
7
100
AcDbSpline
 70
8
 71
3
 72
8
 73
4
 74
0
 40
0
 40
0
 40
0
 40
0
 40
1
 40
1
 40
1
 40
1
 10
-12.730318
 20
103.943134
 30
0.0
 10
-12.608212
 20
104.168206
 30
0.0
 10
-12.480159
 20
104.390000
 30
0.0
 10
-12.346294
 20
104.608283
 30
0.0
  0
LWPOLYLINE
  5
124
100
AcDbEntity
  8
0
 62
7
100
AcDbPolyline
 90
47
 70
0
 10
-13.885222
 20
101.154840
 30
0.0
 10
-13.626795
 20
101.211063
 30
0.0
 10
-13.361069
 20
101.257758
 30
0.0
 10
-13.113399
 20
101.290675
 30
0.0
 10
-12.887131
 20
101.311122
 30
0.0
 10
-12.682766
 20
101.320992
 30
0.0
 10
-12.501029
 20
101.322172
 30
0.0
 10
-12.339899
 20
101.316492
 30
0.0
 10
-12.201977
 20
101.305840
 30
0.0
 10
-12.086685
 20
101.292083
 30
0.0
 10
-11.992185
 20
101.276785
 30
0.0
 10
-11.776235
 20
101.231270
 30
0.0
 10
-11.717705
 20
101.223970
 30
0.0
 10
-11.664105
 20
101.220870
 30
0.0
 10
-11.615575
 20
101.221754
 30
0.0
 10
-11.572245
 20
101.226384
 30
0.0
 10
-11.534265
 20
101.234564
 30
0.0
 10
-11.501765
 20
101.246060
 30
0.0
 10
-11.474855
 20
101.260643
 30
0.0
 10
-11.453645
 20
101.278093
 30
0.0
 10
-11.438245
 20
101.298170
 30
0.0
 10
-11.430545
 20
101.314807
 30
0.0
 10
-11.359505
 20
101.500075
 30
0.0
 10
-11.275815
 20
101.707337
 30
0.0
 10
-11.188435
 20
101.913068
 30
0.0
 10
-11.107665
 20
102.094302
 30
0.0
 10
-11.101365
 20
102.111498
 30
0.0
 10
-11.098065
 20
102.136580
 30
0.0
 10
-11.100765
 20
102.163919
 30
0.0
 10
-11.109465
 20
102.193258
 30
0.0
 10
-11.124315
 20
102.224371
 30
0.0
 10
-11.145385
 20
102.257010
 30
0.0
 10
-11.172745
 20
102.290924
 30
0.0
 10
-11.206435
 20
102.325867
 30
0.0
 10
-11.246535
 20
102.361579
 30
0.0
 10
-11.293085
 20
102.397810
 30
0.0
 10
-11.477969
 20
102.518326
 30
0.0
 10
-11.555609
 20
102.574330
 30
0.0
 10
-11.646859
 20
102.646125
 30
0.0
 10
-11.751917
 20
102.736119
 30
0.0
 10
-11.869873
 20
102.846036
 30
0.0
 10
-11.997543
 20
102.975379
 30
0.0
 10
-12.135069
 20
103.126869
 30
0.0
 10
-12.280607
 20
103.301323
 30
0.0
 10
-12.432460
 20
103.499728
 30
0.0
 10
-12.587338
 20
103.720643
 30
0.0
 10
-12.730318
 20
103.943134
 30
0.0
  0
SPLINE
  5
125
100
AcDbEntity
  8
0
 62
7
100
AcDbSpline
 70
8
 71
3
 72
8
 73
4
 74
0
 40
0
 40
0
 40
0
 40
0
 40
1
 40
1
 40
1
 40
1
 10
-10.509031
 20
107.002653
 30
0.0
 10
-10.332832
 20
107.188453
 30
0.0
 10
-10.151738
 20
107.369547
 30
0.0
 10
-9.965938
 20
107.545745
 30
0.0
  0
LWPOLYLINE
  5
126
100
AcDbEntity
  8
0
 62
7
100
AcDbPolyline
 90
47
 70
0
 10
-12.346294
 20
104.608283
 30
0.0
 10
-12.082121
 20
104.595705
 30
0.0
 10
-11.813363
 20
104.572034
 30
0.0
 10
-11.565614
 20
104.539728
 30
0.0
 10
-11.341763
 20
104.500916
 30
0.0
 10
-11.141806
 20
104.457560
 30
0.0
 10
-10.965956
 20
104.411665
 30
0.0
 10
-10.811788
 20
104.364471
 30
0.0
 10
-10.681322
 20
104.318485
 30
0.0
 10
-10.573520
 20
104.275357
 30
0.0
 10
-10.486200
 20
104.236122
 30
0.0
 10
-10.289388
 20
104.136266
 30
0.0
 10
-10.234738
 20
104.114070
 30
0.0
 10
-10.183758
 20
104.097202
 30
0.0
 10
-10.136648
 20
104.085495
 30
0.0
 10
-10.093598
 20
104.078755
 30
0.0
 10
-10.054798
 20
104.076825
 30
0.0
 10
-10.020428
 20
104.079515
 30
0.0
 10
-9.990662
 20
104.086635
 30
0.0
 10
-9.965656
 20
104.098001
 30
0.0
 10
-9.945589
 20
104.113409
 30
0.0
 10
-9.933863
 20
104.127491
 30
0.0
 10
-9.817296
 20
104.288061
 30
0.0
 10
-9.682818
 20
104.466601
 30
0.0
 10
-9.545168
 20
104.642705
 30
0.0
 10
-9.420239
 20
104.796859
 30
0.0
 10
-9.409672
 20
104.811830
 30
0.0
 10
-9.399982
 20
104.835201
 30
0.0
 10
-9.395472
 20
104.862297
 30
0.0
 10
-9.396297
 20
104.892892
 30
0.0
 10
-9.402597
 20
104.926789
 30
0.0
 10
-9.414505
 20
104.963770
 30
0.0
 10
-9.432160
 20
105.003611
 30
0.0
 10
-9.455660
 20
105.046084
 30
0.0
 10
-9.485146
 20
105.090957
 30
0.0
 10
-9.520731
 20
105.138001
 30
0.0
 10
-9.668124
 20
105.302262
 30
0.0
 10
-9.728622
 20
105.376452
 30
0.0
 10
-9.798182
 20
105.469418
 30
0.0
 10
-9.876368
 20
105.583537
 30
0.0
 10
-9.961856
 20
105.720238
 30
0.0
 10
-10.051701
 20
105.878217
 30
0.0
 10
-10.145331
 20
106.060140
 30
0.0
 10
-10.240761
 20
106.266318
 30
0.0
 10
-10.336091
 20
106.497264
 30
0.0
 10
-10.428511
 20
106.750737
 30
0.0
 10
-10.509031
 20
107.002653
 30
0.0
  0
SPLINE
  5
127
100
AcDbEntity
  8
0
 62
7
100
AcDbSpline
 70
8
 71
3
 72
8
 73
4
 74
0
 40
0
 40
0
 40
0
 40
0
 40
1
 40
1
 40
1
 40
1
 10
-7.571568
 20
109.383009
 30
0.0
 10
-7.353285
 20
109.516874
 30
0.0
 10
-7.131491
 20
109.644927
 30
0.0
 10
-6.906419
 20
109.767033
 30
0.0
  0
LWPOLYLINE
  5
128
100
AcDbEntity
  8
0
 62
7
100
AcDbPolyline
 90
47
 70
0
 10
-9.965938
 20
107.545745
 30
0.0
 10
-9.714022
 20
107.465225
 30
0.0
 10
-9.460549
 20
107.372805
 30
0.0
 10
-9.229602
 20
107.277475
 30
0.0
 10
-9.023424
 20
107.182045
 30
0.0
 10
-8.841502
 20
107.088415
 30
0.0
 10
-8.683522
 20
106.998570
 30
0.0
 10
-8.546822
 20
106.913082
 30
0.0
 10
-8.432703
 20
106.834896
 30
0.0
 10
-8.339736
 20
106.765336
 30
0.0
 10
-8.265546
 20
106.704838
 30
0.0
 10
-8.101285
 20
106.557446
 30
0.0
 10
-8.054242
 20
106.521861
 30
0.0
 10
-8.009369
 20
106.492375
 30
0.0
 10
-7.966896
 20
106.468875
 30
0.0
 10
-7.927055
 20
106.451220
 30
0.0
 10
-7.890074
 20
106.439312
 30
0.0
 10
-7.856177
 20
106.433012
 30
0.0
 10
-7.825582
 20
106.432186
 30
0.0
 10
-7.798486
 20
106.436696
 30
0.0
 10
-7.775115
 20
106.446386
 30
0.0
 10
-7.760144
 20
106.456953
 30
0.0
 10
-7.605990
 20
106.581882
 30
0.0
 10
-7.429885
 20
106.719533
 30
0.0
 10
-7.251345
 20
106.854011
 30
0.0
 10
-7.090776
 20
106.970578
 30
0.0
 10
-7.076694
 20
106.982304
 30
0.0
 10
-7.061286
 20
107.002371
 30
0.0
 10
-7.049920
 20
107.027376
 30
0.0
 10
-7.042800
 20
107.057142
 30
0.0
 10
-7.040110
 20
107.091512
 30
0.0
 10
-7.042040
 20
107.130312
 30
0.0
 10
-7.048780
 20
107.173362
 30
0.0
 10
-7.060487
 20
107.220472
 30
0.0
 10
-7.077355
 20
107.271452
 30
0.0
 10
-7.099551
 20
107.326102
 30
0.0
 10
-7.199407
 20
107.522914
 30
0.0
 10
-7.238642
 20
107.610234
 30
0.0
 10
-7.281770
 20
107.718036
 30
0.0
 10
-7.327756
 20
107.848502
 30
0.0
 10
-7.374950
 20
108.002671
 30
0.0
 10
-7.420845
 20
108.178521
 30
0.0
 10
-7.464201
 20
108.378478
 30
0.0
 10
-7.503013
 20
108.602329
 30
0.0
 10
-7.535319
 20
108.850078
 30
0.0
 10
-7.558990
 20
109.118836
 30
0.0
 10
-7.571568
 20
109.383009
 30
0.0
  0
SPLINE
  5
129
100
AcDbEntity
  8
0
 62
7
100
AcDbSpline
 70
8
 71
3
 72
8
 73
4
 74
0
 40
0
 40
0
 40
0
 40
0
 40
1
 40
1
 40
1
 40
1
 10
-4.118124
 20
110.921936
 30
0.0
 10
-3.872633
 20
110.994744
 30
0.0
 10
-3.625254
 20
111.061029
 30
0.0
 10
-3.376247
 20
111.120721
 30
0.0
  0
LWPOLYLINE
  5
12a
100
AcDbEntity
  8
0
 62
7
100
AcDbPolyline
 90
47
 70
0
 10
-6.906419
 20
109.767033
 30
0.0
 10
-6.683928
 20
109.624053
 30
0.0
 10
-6.463012
 20
109.469175
 30
0.0
 10
-6.264608
 20
109.317322
 30
0.0
 10
-6.090154
 20
109.171784
 30
0.0
 10
-5.938663
 20
109.034258
 30
0.0
 10
-5.809320
 20
108.906588
 30
0.0
 10
-5.699404
 20
108.788632
 30
0.0
 10
-5.609410
 20
108.683574
 30
0.0
 10
-5.537615
 20
108.592324
 30
0.0
 10
-5.481611
 20
108.514684
 30
0.0
 10
-5.361095
 20
108.329800
 30
0.0
 10
-5.324864
 20
108.283250
 30
0.0
 10
-5.289152
 20
108.243150
 30
0.0
 10
-5.254209
 20
108.209460
 30
0.0
 10
-5.220295
 20
108.182100
 30
0.0
 10
-5.187656
 20
108.161030
 30
0.0
 10
-5.156543
 20
108.146180
 30
0.0
 10
-5.127204
 20
108.137480
 30
0.0
 10
-5.099865
 20
108.134780
 30
0.0
 10
-5.074783
 20
108.138080
 30
0.0
 10
-5.057587
 20
108.144380
 30
0.0
 10
-4.876353
 20
108.225150
 30
0.0
 10
-4.670622
 20
108.312530
 30
0.0
 10
-4.463360
 20
108.396220
 30
0.0
 10
-4.278092
 20
108.467260
 30
0.0
 10
-4.261455
 20
108.474960
 30
0.0
 10
-4.241378
 20
108.490360
 30
0.0
 10
-4.223928
 20
108.511570
 30
0.0
 10
-4.209345
 20
108.538480
 30
0.0
 10
-4.197849
 20
108.570980
 30
0.0
 10
-4.189669
 20
108.608960
 30
0.0
 10
-4.185039
 20
108.652290
 30
0.0
 10
-4.184154
 20
108.700820
 30
0.0
 10
-4.187254
 20
108.754420
 30
0.0
 10
-4.194554
 20
108.812950
 30
0.0
 10
-4.240069
 20
109.028900
 30
0.0
 10
-4.255367
 20
109.123400
 30
0.0
 10
-4.269124
 20
109.238692
 30
0.0
 10
-4.279776
 20
109.376614
 30
0.0
 10
-4.285456
 20
109.537744
 30
0.0
 10
-4.284276
 20
109.719481
 30
0.0
 10
-4.274406
 20
109.923846
 30
0.0
 10
-4.253959
 20
110.150113
 30
0.0
 10
-4.221042
 20
110.397783
 30
0.0
 10
-4.174347
 20
110.663509
 30
0.0
 10
-4.118124
 20
110.921936
 30
0.0
  0
SPLINE
  5
12b
100
AcDbEntity
  8
0
 62
7
100
AcDbSpline
 70
8
 71
3
 72
8
 73
4
 74
0
 40
0
 40
0
 40
0
 40
0
 40
1
 40
1
 40
1
 40
1
 10
-0.384033
 20
111.514742
 30
0.0
 10
-0.128063
 20
111.521532
 30
0.0
 10
0.128043
 20
111.521532
 30
0.0
 10
0.384014
 20
111.514742
 30
0.0
  0
LWPOLYLINE
  5
12c
100
AcDbEntity
  8
0
 62
7
100
AcDbPolyline
 90
47
 70
0
 10
-3.376247
 20
111.120721
 30
0.0
 10
-3.198343
 20
110.925029
 30
0.0
 10
-3.025041
 20
110.718251
 30
0.0
 10
-2.872700
 20
110.520221
 30
0.0
 10
-2.741858
 20
110.334490
 30
0.0
 10
-2.631123
 20
110.162442
 30
0.0
 10
-2.539231
 20
110.005646
 30
0.0
 10
-2.463590
 20
109.863261
 30
0.0
 10
-2.403853
 20
109.738491
 30
0.0
 10
-2.358121
 20
109.631767
 30
0.0
 10
-2.324120
 20
109.542277
 30
0.0
 10
-2.255562
 20
109.332500
 30
0.0
 10
-2.232613
 20
109.278160
 30
0.0
 10
-2.208495
 20
109.230190
 30
0.0
 10
-2.183462
 20
109.188600
 30
0.0
 10
-2.157787
 20
109.153390
 30
0.0
 10
-2.131714
 20
109.124590
 30
0.0
 10
-2.105506
 20
109.102190
 30
0.0
 10
-2.079423
 20
109.086180
 30
0.0
 10
-2.053704
 20
109.076580
 30
0.0
 10
-2.028620
 20
109.073280
 30
0.0
 10
-2.010371
 20
109.074980
 30
0.0
 10
-1.814406
 20
109.106090
 30
0.0
 10
-1.593069
 20
109.137250
 30
0.0
 10
-1.371210
 20
109.164440
 30
0.0
 10
-1.173869
 20
109.185100
 30
0.0
 10
-1.155811
 20
109.188200
 30
0.0
 10
-1.132434
 20
109.197900
 30
0.0
 10
-1.110088
 20
109.213870
 30
0.0
 10
-1.089038
 20
109.236090
 30
0.0
 10
-1.069521
 20
109.264510
 30
0.0
 10
-1.051792
 20
109.299080
 30
0.0
 10
-1.036104
 20
109.339740
 30
0.0
 10
-1.022688
 20
109.386390
 30
0.0
 10
-1.011808
 20
109.438970
 30
0.0
 10
-1.003708
 20
109.497400
 30
0.0
 10
-0.991780
 20
109.717772
 30
0.0
 10
-0.982098
 20
109.813012
 30
0.0
 10
-0.965547
 20
109.927936
 30
0.0
 10
-0.940139
 20
110.063916
 30
0.0
 10
-0.903926
 20
110.221026
 30
0.0
 10
-0.855747
 20
110.396263
 30
0.0
 10
-0.793316
 20
110.591109
 30
0.0
 10
-0.715002
 20
110.804376
 30
0.0
 10
-0.619106
 20
111.035086
 30
0.0
 10
-0.505227
 20
111.279673
 30
0.0
 10
-0.384033
 20
111.514742
 30
0.0
  0
SPLINE
  5
12d
100
AcDbEntity
  8
0
 62
7
100
AcDbSpline
 70
8
 71
3
 72
8
 73
4
 74
0
 40
0
 40
0
 40
0
 40
0
 40
1
 40
1
 40
1
 40
1
 10
3.376228
 20
111.120721
 30
0.0
 10
3.625234
 20
111.061029
 30
0.0
 10
3.872613
 20
110.994744
 30
0.0
 10
4.118105
 20
110.921936
 30
0.0
  0
LWPOLYLINE
  5
12e
100
AcDbEntity
  8
0
 62
7
100
AcDbPolyline
 90
47
 70
0
 10
0.384014
 20
111.514742
 30
0.0
 10
0.505207
 20
111.279673
 30
0.0
 10
0.619087
 20
111.035086
 30
0.0
 10
0.714983
 20
110.804376
 30
0.0
 10
0.793296
 20
110.591109
 30
0.0
 10
0.855728
 20
110.396263
 30
0.0
 10
0.903907
 20
110.221026
 30
0.0
 10
0.940119
 20
110.063916
 30
0.0
 10
0.965528
 20
109.927936
 30
0.0
 10
0.982079
 20
109.813012
 30
0.0
 10
0.991761
 20
109.717772
 30
0.0
 10
1.003689
 20
109.497400
 30
0.0
 10
1.011789
 20
109.438970
 30
0.0
 10
1.022669
 20
109.386390
 30
0.0
 10
1.036085
 20
109.339740
 30
0.0
 10
1.051773
 20
109.299080
 30
0.0
 10
1.069502
 20
109.264510
 30
0.0
 10
1.089019
 20
109.236090
 30
0.0
 10
1.110069
 20
109.213870
 30
0.0
 10
1.132415
 20
109.197900
 30
0.0
 10
1.155792
 20
109.188200
 30
0.0
 10
1.173850
 20
109.185100
 30
0.0
 10
1.371191
 20
109.164440
 30
0.0
 10
1.593049
 20
109.137250
 30
0.0
 10
1.814386
 20
109.106090
 30
0.0
 10
2.010351
 20
109.074980
 30
0.0
 10
2.028600
 20
109.073280
 30
0.0
 10
2.053684
 20
109.076580
 30
0.0
 10
2.079403
 20
109.086180
 30
0.0
 10
2.105486
 20
109.102190
 30
0.0
 10
2.131694
 20
109.124590
 30
0.0
 10
2.157767
 20
109.153390
 30
0.0
 10
2.183442
 20
109.188600
 30
0.0
 10
2.208475
 20
109.230190
 30
0.0
 10
2.232593
 20
109.278160
 30
0.0
 10
2.255542
 20
109.332500
 30
0.0
 10
2.324100
 20
109.542277
 30
0.0
 10
2.358101
 20
109.631767
 30
0.0
 10
2.403833
 20
109.738491
 30
0.0
 10
2.463570
 20
109.863261
 30
0.0
 10
2.539212
 20
110.005646
 30
0.0
 10
2.631104
 20
110.162442
 30
0.0
 10
2.741838
 20
110.334490
 30
0.0
 10
2.872680
 20
110.520221
 30
0.0
 10
3.025021
 20
110.718251
 30
0.0
 10
3.198324
 20
110.925029
 30
0.0
 10
3.376228
 20
111.120721
 30
0.0
  0
SPLINE
  5
12f
100
AcDbEntity
  8
0
 62
7
100
AcDbSpline
 70
8
 71
3
 72
8
 73
4
 74
0
 40
0
 40
0
 40
0
 40
0
 40
1
 40
1
 40
1
 40
1
 10
6.906399
 20
109.767033
 30
0.0
 10
7.131471
 20
109.644927
 30
0.0
 10
7.353266
 20
109.516874
 30
0.0
 10
7.571548
 20
109.383009
 30
0.0
  0
LWPOLYLINE
  5
130
100
AcDbEntity
  8
0
 62
7
100
AcDbPolyline
 90
47
 70
0
 10
4.118105
 20
110.921936
 30
0.0
 10
4.174328
 20
110.663509
 30
0.0
 10
4.221023
 20
110.397783
 30
0.0
 10
4.253940
 20
110.150113
 30
0.0
 10
4.274387
 20
109.923846
 30
0.0
 10
4.284257
 20
109.719481
 30
0.0
 10
4.285437
 20
109.537744
 30
0.0
 10
4.279757
 20
109.376614
 30
0.0
 10
4.269105
 20
109.238692
 30
0.0
 10
4.255348
 20
109.123400
 30
0.0
 10
4.240050
 20
109.028900
 30
0.0
 10
4.194535
 20
108.812950
 30
0.0
 10
4.187235
 20
108.754420
 30
0.0
 10
4.184135
 20
108.700820
 30
0.0
 10
4.185020
 20
108.652290
 30
0.0
 10
4.189650
 20
108.608960
 30
0.0
 10
4.197830
 20
108.570980
 30
0.0
 10
4.209326
 20
108.538480
 30
0.0
 10
4.223909
 20
108.511570
 30
0.0
 10
4.241359
 20
108.490360
 30
0.0
 10
4.261436
 20
108.474960
 30
0.0
 10
4.278073
 20
108.467260
 30
0.0
 10
4.463341
 20
108.396220
 30
0.0
 10
4.670602
 20
108.312530
 30
0.0
 10
4.876333
 20
108.225150
 30
0.0
 10
5.057568
 20
108.144380
 30
0.0
 10
5.074764
 20
108.138080
 30
0.0
 10
5.099846
 20
108.134780
 30
0.0
 10
5.127185
 20
108.137480
 30
0.0
 10
5.156524
 20
108.146180
 30
0.0
 10
5.187637
 20
108.161030
 30
0.0
 10
5.220276
 20
108.182100
 30
0.0
 10
5.254190
 20
108.209460
 30
0.0
 10
5.289133
 20
108.243150
 30
0.0
 10
5.324845
 20
108.283250
 30
0.0
 10
5.361076
 20
108.329800
 30
0.0
 10
5.481592
 20
108.514684
 30
0.0
 10
5.537596
 20
108.592324
 30
0.0
 10
5.609390
 20
108.683574
 30
0.0
 10
5.699384
 20
108.788632
 30
0.0
 10
5.809301
 20
108.906588
 30
0.0
 10
5.938644
 20
109.034258
 30
0.0
 10
6.090134
 20
109.171784
 30
0.0
 10
6.264589
 20
109.317322
 30
0.0
 10
6.462993
 20
109.469175
 30
0.0
 10
6.683909
 20
109.624053
 30
0.0
 10
6.906399
 20
109.767033
 30
0.0
  0
SPLINE
  5
131
100
AcDbEntity
  8
0
 62
7
100
AcDbSpline
 70
8
 71
3
 72
8
 73
4
 74
0
 40
0
 40
0
 40
0
 40
0
 40
1
 40
1
 40
1
 40
1
 10
9.965918
 20
107.545745
 30
0.0
 10
10.151718
 20
107.369547
 30
0.0
 10
10.332812
 20
107.188453
 30
0.0
 10
10.509010
 20
107.002653
 30
0.0
  0
LWPOLYLINE
  5
132
100
AcDbEntity
  8
0
 62
7
100
AcDbPolyline
 90
47
 70
0
 10
7.571548
 20
109.383009
 30
0.0
 10
7.558970
 20
109.118836
 30
0.0
 10
7.535299
 20
108.850078
 30
0.0
 10
7.502993
 20
108.602329
 30
0.0
 10
7.464181
 20
108.378478
 30
0.0
 10
7.420825
 20
108.178521
 30
0.0
 10
7.374930
 20
108.002671
 30
0.0
 10
7.327736
 20
107.848502
 30
0.0
 10
7.281750
 20
107.718036
 30
0.0
 10
7.238622
 20
107.610234
 30
0.0
 10
7.199387
 20
107.522914
 30
0.0
 10
7.099531
 20
107.326102
 30
0.0
 10
7.077335
 20
107.271452
 30
0.0
 10
7.060467
 20
107.220472
 30
0.0
 10
7.048760
 20
107.173362
 30
0.0
 10
7.042020
 20
107.130312
 30
0.0
 10
7.040090
 20
107.091512
 30
0.0
 10
7.042780
 20
107.057142
 30
0.0
 10
7.049900
 20
107.027376
 30
0.0
 10
7.061266
 20
107.002371
 30
0.0
 10
7.076674
 20
106.982304
 30
0.0
 10
7.090756
 20
106.970578
 30
0.0
 10
7.251326
 20
106.854011
 30
0.0
 10
7.429866
 20
106.719533
 30
0.0
 10
7.605971
 20
106.581882
 30
0.0
 10
7.760124
 20
106.456953
 30
0.0
 10
7.775095
 20
106.446386
 30
0.0
 10
7.798466
 20
106.436696
 30
0.0
 10
7.825562
 20
106.432186
 30
0.0
 10
7.856157
 20
106.433012
 30
0.0
 10
7.890054
 20
106.439312
 30
0.0
 10
7.927035
 20
106.451220
 30
0.0
 10
7.966876
 20
106.468875
 30
0.0
 10
8.009349
 20
106.492375
 30
0.0
 10
8.054222
 20
106.521861
 30
0.0
 10
8.101266
 20
106.557446
 30
0.0
 10
8.265527
 20
106.704838
 30
0.0
 10
8.339717
 20
106.765336
 30
0.0
 10
8.432684
 20
106.834896
 30
0.0
 10
8.546803
 20
106.913082
 30
0.0
 10
8.683503
 20
106.998570
 30
0.0
 10
8.841482
 20
107.088415
 30
0.0
 10
9.023405
 20
107.182045
 30
0.0
 10
9.229583
 20
107.277475
 30
0.0
 10
9.460529
 20
107.372805
 30
0.0
 10
9.714003
 20
107.465225
 30
0.0
 10
9.965918
 20
107.545745
 30
0.0
  0
SPLINE
  5
133
100
AcDbEntity
  8
0
 62
7
100
AcDbSpline
 70
8
 71
3
 72
8
 73
4
 74
0
 40
0
 40
0
 40
0
 40
0
 40
1
 40
1
 40
1
 40
1
 10
12.346273
 20
104.608283
 30
0.0
 10
12.480139
 20
104.390000
 30
0.0
 10
12.608192
 20
104.168206
 30
0.0
 10
12.730297
 20
103.943134
 30
0.0
  0
LWPOLYLINE
  5
134
100
AcDbEntity
  8
0
 62
7
100
AcDbPolyline
 90
47
 70
0
 10
10.509010
 20
107.002653
 30
0.0
 10
10.428490
 20
106.750737
 30
0.0
 10
10.336070
 20
106.497264
 30
0.0
 10
10.240740
 20
106.266318
 30
0.0
 10
10.145310
 20
106.060140
 30
0.0
 10
10.051680
 20
105.878217
 30
0.0
 10
9.961835
 20
105.720238
 30
0.0
 10
9.876347
 20
105.583537
 30
0.0
 10
9.798161
 20
105.469418
 30
0.0
 10
9.728601
 20
105.376452
 30
0.0
 10
9.668103
 20
105.302262
 30
0.0
 10
9.520711
 20
105.138001
 30
0.0
 10
9.485126
 20
105.090957
 30
0.0
 10
9.455640
 20
105.046084
 30
0.0
 10
9.432140
 20
105.003611
 30
0.0
 10
9.414485
 20
104.963770
 30
0.0
 10
9.402577
 20
104.926789
 30
0.0
 10
9.396277
 20
104.892892
 30
0.0
 10
9.395451
 20
104.862297
 30
0.0
 10
9.399961
 20
104.835201
 30
0.0
 10
9.409651
 20
104.811830
 30
0.0
 10
9.420218
 20
104.796859
 30
0.0
 10
9.545147
 20
104.642705
 30
0.0
 10
9.682798
 20
104.466601
 30
0.0
 10
9.817275
 20
104.288061
 30
0.0
 10
9.933842
 20
104.127491
 30
0.0
 10
9.945568
 20
104.113409
 30
0.0
 10
9.965635
 20
104.098001
 30
0.0
 10
9.990641
 20
104.086635
 30
0.0
 10
10.020407
 20
104.079515
 30
0.0
 10
10.054777
 20
104.076825
 30
0.0
 10
10.093577
 20
104.078755
 30
0.0
 10
10.136627
 20
104.085495
 30
0.0
 10
10.183737
 20
104.097202
 30
0.0
 10
10.234717
 20
104.114070
 30
0.0
 10
10.289367
 20
104.136266
 30
0.0
 10
10.486179
 20
104.236122
 30
0.0
 10
10.573499
 20
104.275357
 30
0.0
 10
10.681301
 20
104.318485
 30
0.0
 10
10.811767
 20
104.364471
 30
0.0
 10
10.965936
 20
104.411665
 30
0.0
 10
11.141786
 20
104.457560
 30
0.0
 10
11.341743
 20
104.500916
 30
0.0
 10
11.565593
 20
104.539728
 30
0.0
 10
11.813342
 20
104.572034
 30
0.0
 10
12.082100
 20
104.595705
 30
0.0
 10
12.346273
 20
104.608283
 30
0.0
  0
SPLINE
  5
135
100
AcDbEntity
  8
0
 62
7
100
AcDbSpline
 70
8
 71
3
 72
8
 73
4
 74
0
 40
0
 40
0
 40
0
 40
0
 40
1
 40
1
 40
1
 40
1
 10
13.885201
 20
101.154840
 30
0.0
 10
13.958009
 20
100.909348
 30
0.0
 10
14.024294
 20
100.661969
 30
0.0
 10
14.083986
 20
100.412963
 30
0.0
  0
LWPOLYLINE
  5
136
100
AcDbEntity
  8
0
 62
7
100
AcDbPolyline
 90
47
 70
0
 10
12.730297
 20
103.943134
 30
0.0
 10
12.587317
 20
103.720643
 30
0.0
 10
12.432439
 20
103.499728
 30
0.0
 10
12.280586
 20
103.301323
 30
0.0
 10
12.135048
 20
103.126869
 30
0.0
 10
11.997522
 20
102.975379
 30
0.0
 10
11.869852
 20
102.846036
 30
0.0
 10
11.751896
 20
102.736119
 30
0.0
 10
11.646838
 20
102.646125
 30
0.0
 10
11.555588
 20
102.574330
 30
0.0
 10
11.477949
 20
102.518326
 30
0.0
 10
11.293065
 20
102.397810
 30
0.0
 10
11.246515
 20
102.361579
 30
0.0
 10
11.206415
 20
102.325867
 30
0.0
 10
11.172725
 20
102.290924
 30
0.0
 10
11.145365
 20
102.257010
 30
0.0
 10
11.124295
 20
102.224371
 30
0.0
 10
11.109445
 20
102.193258
 30
0.0
 10
11.100745
 20
102.163919
 30
0.0
 10
11.098045
 20
102.136580
 30
0.0
 10
11.101345
 20
102.111498
 30
0.0
 10
11.107645
 20
102.094302
 30
0.0
 10
11.188415
 20
101.913068
 30
0.0
 10
11.275795
 20
101.707337
 30
0.0
 10
11.359485
 20
101.500075
 30
0.0
 10
11.430525
 20
101.314807
 30
0.0
 10
11.438225
 20
101.298170
 30
0.0
 10
11.453625
 20
101.278093
 30
0.0
 10
11.474835
 20
101.260643
 30
0.0
 10
11.501745
 20
101.246060
 30
0.0
 10
11.534244
 20
101.234564
 30
0.0
 10
11.572224
 20
101.226384
 30
0.0
 10
11.615554
 20
101.221754
 30
0.0
 10
11.664084
 20
101.220870
 30
0.0
 10
11.717684
 20
101.223970
 30
0.0
 10
11.776214
 20
101.231270
 30
0.0
 10
11.992164
 20
101.276785
 30
0.0
 10
12.086664
 20
101.292083
 30
0.0
 10
12.201956
 20
101.305840
 30
0.0
 10
12.339878
 20
101.316492
 30
0.0
 10
12.501008
 20
101.322172
 30
0.0
 10
12.682745
 20
101.320992
 30
0.0
 10
12.887110
 20
101.311122
 30
0.0
 10
13.113378
 20
101.290675
 30
0.0
 10
13.361048
 20
101.257758
 30
0.0
 10
13.626774
 20
101.211063
 30
0.0
 10
13.885201
 20
101.154840
 30
0.0
  0
LWPOLYLINE
  5
137
100
AcDbEntity
  8
0
 62
7
100
AcDbPolyline
 90
2
 70
0
 10
14.083986
 20
100.412963
 30
0.0
 10
13.888366
 20
100.235075
 30
0.0
  0
ENDSEC
  0
SECTION
  2
OBJECTS
  0
DICTIONARY
  5
C
330
0
100
AcDbDictionary
  3
ACAD_GROUP
350
D
  3
ACAD_MLINESTYLE
350
17
  0
DICTIONARY
  5
D
330
C
100
AcDbDictionary
  0
DICTIONARY
  5
1A
330
C
100
AcDbDictionary
  0
DICTIONARY
  5
17
330
C
100
AcDbDictionary
  3
STANDARD
350
18
  0
DICTIONARY
  5
19
330
C
100
AcDbDictionary
  0
ENDSEC
  0
EOF
