<?xml version="1.0" encoding="UTF-8"?>
<svg viewBox="-10.24957833511806 -29.3481715061455 71.42873845964263 58.696343012291" height="58.696343012291mm" width="71.42873845964263mm" xmlns:svgjs="http://svgjs.com/svgjs" xmlns:xlink="http://www.w3.org/1999/xlink" version="1.1" xmlns="http://www.w3.org/2000/svg" id="SvgjsSvg1717">
  <desc>Created with svg.js [http://svgjs.com]</desc>
  <defs id="SvgjsDefs1718">
  </defs>
  <defs id="SvgjsDefs1718">
  </defs>
  <g id="SvgjsG1719">
    <g transform="matrix(1,0,0,1,0,0)" id="SvgjsG1720">
      <g fill="none" stroke-width="0.04" stroke="blue" id="SvgjsG1721">
        <circle cy="0" cx="0" r="6.366197723675814" id="SvgjsCircle1722">
        </circle>
        <circle cy="0" cx="0" r="7.002817496043395" id="SvgjsCircle1723">
        </circle>
        <line y2="0.5" x2="0" y1="-0.5" x1="0" id="SvgjsLine1724">
        </line>
        <line y2="0" x2="0.5" y1="0" x1="-0.5" id="SvgjsLine1725">
        </line>
      </g>
      <g fill="none" stroke-width="0.1" stroke="black" id="SvgjsG1726">
        <circle cy="0" cx="0" r="2.5" id="SvgjsCircle1727">
        </circle>
        <path d="M6.624754334975578 -1.8651732785514301  L6.52663962492005 -1.7698410585483286 6.43094905164439 -1.6843897069722682 6.341837318105447 -1.6112895767009443 6.256866703389553 -1.5473297929708303 6.177883601979976 -1.4929344164051286 6.106809405005066 -1.4482457710422216 6.043490835937613 -1.4119942481604133 5.986184623818332 -1.3822736719119644 5.8983245767875525 -1.3432691217190804 5.846797943359028 -1.3252568190477787 5.810003390581481 -1.3151666562195476 5.738664708595351 -1.2908777914358245 5.67957633409788 -1.2633959865597508 5.654669342570102 -1.2487594749181343 5.63285789454389 -1.2336919059370466 5.6141528485336565 -1.2183164952513101 5.598565063053815 -1.2027564584957475 5.586085642851968 -1.187131882615881 5.576714005214469 -1.1715742957852882 5.5704298136608665 -1.1562120974882468 5.567237178511465 -1.141147185248117 5.568169824560959 -1.1194054058511504 5.587198863690125 -1.0202919523253013 5.609654945477332 -0.8884820589531941 5.629029439641883 -0.7561840900501614 5.641559489489934 -0.6560412977443476 5.647391069708779 -0.6350754332939804 5.6550827600727365 -0.621734428858594 5.665806561744181 -0.6090660320495453 5.679527077509798 -0.5971658830115933 5.696223970889131 -0.5861623812290151 5.715857151634912 -0.5761807974967872 5.738397970727932 -0.5673380900711308 5.763798025382167 -0.5597480885189661 5.792008912811595 -0.5535246224072132 5.856697641157506 -0.5456471846899813 5.932050431516568 -0.5445919666540331 5.970162162489754 -0.546365793654453 6.024733010607961 -0.5451576812177733 6.1203459497261345 -0.5352123972507624 6.184031559329757 -0.5246550429697416 6.255453433686293 -0.5097443098087218 6.33685856273246 -0.4892060171587257 6.428785051779466 -0.46188006042358565 6.529361568727773 -0.42730805529592897 6.636701046133204 -0.3853227401211071 6.754114109224351 -0.3336236887221269 6.87688601965952 -0.2732764724806229 6.999764556284851 -0.2064549818729574 A7.002817496043395 7.002817496043395 0 0 1 6.999764556284851 0.20645498187295808 L6.87688601965952 0.2732764724806236 6.754114109224351 0.3336236887221278 6.636701046133204 0.385322740121108 6.529361568727773 0.42730805529592986 6.428785051779466 0.4618800604235863 6.33685856273246 0.48920601715872647 6.255453433686293 0.5097443098087224 6.184031559329757 0.5246550429697423 6.1203459497261345 0.5352123972507631 6.024733010607961 0.545157681217774 5.970162162489754 0.5463657936544537 5.932050431516568 0.5445919666540338 5.856697641157506 0.545647184689982 5.792008912811595 0.5535246224072139 5.763798025382167 0.5597480885189667 5.738397970727932 0.5673380900711315 5.715857151634912 0.5761807974967879 5.696223970889131 0.5861623812290158 5.679527077509798 0.597165883011594 5.665806561744181 0.609066032049546 5.6550827600727365 0.6217344288585946 5.647391069708779 0.635075433293981 5.641559489489934 0.6560412977443482 5.629029439641883 0.7561840900501621 5.609654945477332 0.8884820589531947 5.587198863690125 1.020291952325302 5.568169824560959 1.1194054058511511 5.567237178511465 1.1411471852481176 5.5704298136608665 1.1562120974882475 5.576714005214469 1.1715742957852888 5.586085642851968 1.1871318826158817 5.598565063053815 1.2027564584957482 5.6141528485336565 1.2183164952513108 5.63285789454389 1.233691905937047 5.654669342570102 1.248759474918135 5.67957633409788 1.2633959865597515 5.738664708595351 1.2908777914358252 5.810003390581481 1.3151666562195483 5.846797943359028 1.3252568190477794 5.8983245767875525 1.3432691217190809 5.986184623818332 1.3822736719119653 6.043490835937613 1.411994248160414 6.106809405005066 1.4482457710422223 6.177883601979976 1.4929344164051292 6.256866703389553 1.5473297929708307 6.341837318105447 1.6112895767009452 6.43094905164439 1.684389706972269 6.52663962492005 1.7698410585483295 6.624754334975578 1.8651732785514308 6.7209697917586775 1.9666958486835582 A7.002817496043395 7.002817496043395 0 0 1 6.5933735958144455 2.3593965603473066 L6.455860186656876 2.384976018357131 6.32044884583766 2.40443102484754 6.192806501611302 2.4173171127100357 6.077746416265943 2.4240777976101517 5.971409127321921 2.4258778753961323 5.875537655874918 2.42345955726434 5.791770095971419 2.417837066018144 5.7192361870132755 2.409947443007388 5.6554051711170485 2.400308147926542 5.561398600566887 2.3802206519801206 5.509125312590264 2.3645063157194617 5.473427045189138 2.3510421334361715 5.401436202591251 2.3287604126308494 5.3374793038402695 2.3162623847001416 5.308725998727595 2.313463609057574 5.282223671767481 2.3128330809462394 5.25805353201562 2.314277499298227 5.236296788527709 2.3177035630456264 5.2170168302289595 2.3230088913105327 5.200290496014816 2.3300867330547956 5.18617680465025 2.338821257430271 5.174738975315718 2.349132443594535 5.162714004531362 2.3672701082081335 5.119851394287213 2.458639565047157 5.06054283464977 2.5784753625107353 4.998454334656859 2.6968947096151266 4.94972890148355 2.785276908965864 4.942123323059169 2.8056663664581705 4.9405043856211925 2.8209805279295646 4.94173382660315 2.8375327687105547 4.945839224924533 2.8552249083387284 4.952879599350305 2.8739411159659407 4.962896148514951 2.8935564809340524 4.975934441213198 2.9139595425551637 4.992022226109287 2.9350297603313797 5.0111872518674625 2.956646593764805 5.058891290727768 3.0010426552614566 5.119232737102338 3.046187603477452 5.151108404495657 3.067154060694409 5.194547037347348 3.1002073839157727 5.266053838730419 3.16445316320097 5.311371122047267 3.2104277043382172 5.360388323118901 3.264471465301931 5.414174350419602 3.3289360274055264 5.472482647918154 3.4050762253486653 5.533529844608158 3.492162958415716 5.595690956923865 3.589222353714028 5.6602921803563895 3.7000614318003295 5.72414553860666 3.8210468736524907 5.784279676265091 3.947332786795208 A7.002817496043395 7.002817496043395 0 0 1 5.541577289050623 4.281383964612397 L5.40288977796142 4.263217494451815 5.268094012263829 4.239875899604847 5.142716908891641 4.2126876438682235 5.031199098430711 4.18356191555115 4.929510072228273 4.152413861839882 4.839078185982325 4.12048799066931 4.761147947627756 4.0892550841443 4.69460212845029 4.059337396232297 4.636873930834221 4.030445013153015 4.5536757469598115 3.9822910413542103 4.508816892761336 3.951192485117626 4.479026484069947 3.9273559155238273 4.417444554496411 3.8839183459555384 4.360480032204023 3.8522682464296287 4.333998883248587 3.8407211926928517 4.308988516398019 3.8319318554027024 4.285554997669497 3.825836594948875 4.263804393080198 3.8223717717210604 4.243828626511678 3.8214596039733304 4.225733763981115 3.823022309959752 4.209611729370061 3.826967965798773 4.19554737549226 3.833240002947898 4.178506102065665 3.846774026739809 4.109506622357482 3.9204262690681997 4.016069532291491 4.016069532291492 3.920426269068199 4.1095066223574825 3.846774026739808 4.178506102065666 3.833240002947897 4.195547375492261 3.8269679657987727 4.209611729370061 3.823022309959752 4.225733763981115 3.8214596039733295 4.243828626511679 3.8223717717210604 4.263804393080198 3.825836594948875 4.285554997669497 3.8319318554027024 4.308988516398019 3.8407211926928517 4.333998883248587 3.8522682464296274 4.360480032204024 3.8839183459555375 4.417444554496412 3.9273559155238265 4.479026484069948 3.951192485117625 4.508816892761337 3.9822910413542103 4.5536757469598115 4.030445013153014 4.636873930834222 4.059337396232296 4.694602128450291 4.089255084144299 4.761147947627757 4.120487990669309 4.839078185982326 4.152413861839881 4.929510072228274 4.183561915551148 5.031199098430711 4.212687643868222 5.142716908891641 4.239875899604845 5.268094012263829 4.263217494451814 5.402889777961421 4.281383964612396 5.541577289050624 A7.002817496043395 7.002817496043395 0 0 1 3.947332786795207 5.784279676265092 L3.82104687365249 5.724145538606661 3.7000614318003286 5.660292180356391 3.5892223537140278 5.595690956923866 3.4921629584157157 5.533529844608159 3.4050762253486644 5.472482647918155 3.3289360274055255 5.414174350419602 3.26447146530193 5.360388323118902 3.2104277043382172 5.311371122047267 3.164453163200969 5.26605383873042 3.100207383915772 5.19454703734735 3.067154060694408 5.151108404495657 3.0461876034774513 5.1192327371023385 3.001042655261456 5.058891290727769 2.956646593764804 5.011187251867463 2.935029760331379 4.992022226109288 2.9139595425551628 4.975934441213198 2.893556480934052 4.962896148514952 2.8739411159659403 4.952879599350306 2.855224908338728 4.945839224924533 2.837532768710554 4.9417338266031505 2.8209805279295637 4.940504385621193 2.80566636645817 4.942123323059169 2.785276908965864 4.949728901483551 2.696894709615126 4.99845433465686 2.578475362510735 5.0605428346497705 2.4586395650471564 5.119851394287214 2.3672701082081327 5.162714004531363 2.3491324435945344 5.174738975315718 2.3388212574302703 5.186176804650251 2.3300867330547947 5.200290496014817 2.3230088913105322 5.2170168302289595 2.317703563045626 5.23629678852771 2.3142774992982265 5.258053532015621 2.3128330809462385 5.282223671767481 2.3134636090575733 5.308725998727596 2.3162623847001407 5.33747930384027 2.328760412630849 5.401436202591252 2.3510421334361706 5.473427045189139 2.364506315719461 5.509125312590264 2.38022065198012 5.561398600566887 2.400308147926541 5.655405171117049 2.409947443007387 5.7192361870132755 2.417837066018143 5.79177009597142 2.423459557264339 5.875537655874918 2.4258778753961314 5.971409127321922 2.4240777976101513 6.077746416265944 2.4173171127100352 6.192806501611303 2.404431024847539 6.32044884583766 2.38497601835713 6.455860186656877 2.3593965603473057 6.593373595814446 A7.002817496043395 7.002817496043395 0 0 1 1.9666958486835577 6.7209697917586775 L1.8651732785514303 6.624754334975578 1.769841058548329 6.52663962492005 1.6843897069722686 6.43094905164439 1.6112895767009447 6.341837318105447 1.5473297929708307 6.256866703389553 1.4929344164051288 6.177883601979976 1.448245771042222 6.106809405005066 1.4119942481604137 6.043490835937613 1.3822736719119648 5.986184623818332 1.3432691217190806 5.8983245767875525 1.325256819047779 5.846797943359028 1.315166656219548 5.810003390581481 1.290877791435825 5.738664708595351 1.263395986559751 5.67957633409788 1.2487594749181345 5.654669342570102 1.2336919059370468 5.63285789454389 1.2183164952513104 5.6141528485336565 1.202756458495748 5.598565063053815 1.1871318826158812 5.586085642851968 1.1715742957852886 5.576714005214469 1.1562120974882473 5.5704298136608665 1.1411471852481174 5.567237178511465 1.119405405851151 5.568169824560959 1.0202919523253016 5.587198863690125 0.8884820589531944 5.609654945477332 0.7561840900501617 5.629029439641883 0.6560412977443479 5.641559489489934 0.6350754332939808 5.647391069708779 0.6217344288585943 5.6550827600727365 0.6090660320495456 5.665806561744181 0.5971658830115937 5.679527077509798 0.5861623812290153 5.696223970889131 0.5761807974967875 5.715857151634912 0.5673380900711311 5.738397970727932 0.5597480885189665 5.763798025382167 0.5535246224072137 5.792008912811595 0.5456471846899815 5.856697641157506 0.5445919666540334 5.932050431516568 0.5463657936544534 5.970162162489754 0.5451576812177736 6.024733010607961 0.5352123972507628 6.1203459497261345 0.5246550429697419 6.184031559329757 0.509744309808722 6.255453433686293 0.489206017158726 6.33685856273246 0.4618800604235861 6.428785051779466 0.4273080552959294 6.529361568727773 0.38532274012110757 6.636701046133204 0.33362368872212733 6.754114109224351 0.27327647248062314 6.87688601965952 0.20645498187295763 6.999764556284851 A7.002817496043395 7.002817496043395 0 0 1 -0.20645498187295763 6.999764556284851 L-0.27327647248062314 6.87688601965952 -0.33362368872212733 6.754114109224351 -0.38532274012110757 6.636701046133204 -0.4273080552959294 6.529361568727773 -0.4618800604235861 6.428785051779466 -0.489206017158726 6.33685856273246 -0.509744309808722 6.255453433686293 -0.5246550429697419 6.184031559329757 -0.5352123972507628 6.1203459497261345 -0.5451576812177736 6.024733010607961 -0.5463657936544534 5.970162162489754 -0.5445919666540334 5.932050431516568 -0.5456471846899815 5.856697641157506 -0.5535246224072137 5.792008912811595 -0.5597480885189665 5.763798025382167 -0.5673380900711311 5.738397970727932 -0.5761807974967875 5.715857151634912 -0.5861623812290153 5.696223970889131 -0.5971658830115937 5.679527077509798 -0.6090660320495456 5.665806561744181 -0.6217344288585943 5.6550827600727365 -0.6350754332939808 5.647391069708779 -0.6560412977443479 5.641559489489934 -0.7561840900501617 5.629029439641883 -0.8884820589531944 5.609654945477332 -1.0202919523253016 5.587198863690125 -1.119405405851151 5.568169824560959 -1.1411471852481174 5.567237178511465 -1.1562120974882473 5.5704298136608665 -1.1715742957852886 5.576714005214469 -1.1871318826158812 5.586085642851968 -1.202756458495748 5.598565063053815 -1.2183164952513104 5.6141528485336565 -1.2336919059370468 5.63285789454389 -1.2487594749181345 5.654669342570102 -1.263395986559751 5.67957633409788 -1.290877791435825 5.738664708595351 -1.315166656219548 5.810003390581481 -1.325256819047779 5.846797943359028 -1.3432691217190806 5.8983245767875525 -1.3822736719119648 5.986184623818332 -1.4119942481604137 6.043490835937613 -1.448245771042222 6.106809405005066 -1.4929344164051288 6.177883601979976 -1.5473297929708307 6.256866703389553 -1.6112895767009447 6.341837318105447 -1.6843897069722686 6.43094905164439 -1.769841058548329 6.52663962492005 -1.8651732785514303 6.624754334975578 -1.9666958486835577 6.7209697917586775 A7.002817496043395 7.002817496043395 0 0 1 -2.3593965603473057 6.593373595814446 L-2.38497601835713 6.455860186656877 -2.404431024847539 6.32044884583766 -2.4173171127100352 6.192806501611303 -2.4240777976101513 6.077746416265944 -2.4258778753961314 5.971409127321922 -2.423459557264339 5.875537655874918 -2.417837066018143 5.79177009597142 -2.409947443007387 5.7192361870132755 -2.400308147926541 5.655405171117049 -2.38022065198012 5.561398600566887 -2.364506315719461 5.509125312590264 -2.3510421334361706 5.473427045189139 -2.328760412630849 5.401436202591252 -2.3162623847001407 5.33747930384027 -2.3134636090575733 5.308725998727596 -2.3128330809462385 5.282223671767481 -2.3142774992982265 5.258053532015621 -2.317703563045626 5.23629678852771 -2.3230088913105322 5.2170168302289595 -2.3300867330547947 5.200290496014817 -2.3388212574302703 5.186176804650251 -2.3491324435945344 5.174738975315718 -2.3672701082081327 5.162714004531363 -2.4586395650471564 5.119851394287214 -2.578475362510735 5.0605428346497705 -2.696894709615126 4.99845433465686 -2.785276908965864 4.949728901483551 -2.80566636645817 4.942123323059169 -2.8209805279295637 4.940504385621193 -2.837532768710554 4.9417338266031505 -2.855224908338728 4.945839224924533 -2.8739411159659403 4.952879599350306 -2.893556480934052 4.962896148514952 -2.9139595425551628 4.975934441213198 -2.935029760331379 4.992022226109288 -2.956646593764804 5.011187251867463 -3.001042655261456 5.058891290727769 -3.0461876034774513 5.1192327371023385 -3.067154060694408 5.151108404495657 -3.100207383915772 5.19454703734735 -3.164453163200969 5.26605383873042 -3.2104277043382172 5.311371122047267 -3.26447146530193 5.360388323118902 -3.3289360274055255 5.414174350419602 -3.4050762253486644 5.472482647918155 -3.4921629584157157 5.533529844608159 -3.5892223537140278 5.595690956923866 -3.7000614318003286 5.660292180356391 -3.82104687365249 5.724145538606661 -3.947332786795207 5.784279676265092 A7.002817496043395 7.002817496043395 0 0 1 -4.281383964612396 5.541577289050624 L-4.263217494451814 5.402889777961421 -4.239875899604845 5.268094012263829 -4.212687643868222 5.142716908891641 -4.183561915551148 5.031199098430711 -4.152413861839881 4.929510072228274 -4.120487990669309 4.839078185982326 -4.089255084144299 4.761147947627757 -4.059337396232296 4.694602128450291 -4.030445013153014 4.636873930834222 -3.9822910413542103 4.5536757469598115 -3.951192485117625 4.508816892761337 -3.9273559155238265 4.479026484069948 -3.8839183459555375 4.417444554496412 -3.8522682464296274 4.360480032204024 -3.8407211926928517 4.333998883248587 -3.8319318554027024 4.308988516398019 -3.825836594948875 4.285554997669497 -3.8223717717210604 4.263804393080198 -3.8214596039733295 4.243828626511679 -3.823022309959752 4.225733763981115 -3.8269679657987727 4.209611729370061 -3.833240002947897 4.195547375492261 -3.846774026739808 4.178506102065666 -3.920426269068199 4.1095066223574825 -4.016069532291491 4.016069532291492 -4.109506622357482 3.9204262690681997 -4.178506102065665 3.846774026739809 -4.19554737549226 3.833240002947898 -4.209611729370061 3.826967965798773 -4.225733763981115 3.823022309959752 -4.243828626511678 3.8214596039733304 -4.263804393080198 3.8223717717210604 -4.285554997669497 3.825836594948875 -4.308988516398019 3.8319318554027024 -4.333998883248587 3.8407211926928517 -4.360480032204023 3.8522682464296287 -4.417444554496411 3.8839183459555384 -4.479026484069947 3.9273559155238273 -4.508816892761336 3.951192485117626 -4.5536757469598115 3.9822910413542103 -4.636873930834221 4.030445013153015 -4.69460212845029 4.059337396232297 -4.761147947627756 4.0892550841443 -4.839078185982325 4.12048799066931 -4.929510072228273 4.152413861839882 -5.031199098430711 4.18356191555115 -5.142716908891641 4.2126876438682235 -5.268094012263829 4.239875899604847 -5.40288977796142 4.263217494451815 -5.541577289050623 4.281383964612397 A7.002817496043395 7.002817496043395 0 0 1 -5.784279676265091 3.947332786795208 L-5.72414553860666 3.8210468736524907 -5.6602921803563895 3.7000614318003295 -5.595690956923865 3.589222353714028 -5.533529844608158 3.492162958415716 -5.472482647918154 3.4050762253486653 -5.414174350419602 3.3289360274055264 -5.360388323118901 3.264471465301931 -5.311371122047267 3.2104277043382172 -5.266053838730419 3.16445316320097 -5.194547037347348 3.1002073839157727 -5.151108404495657 3.067154060694409 -5.119232737102338 3.046187603477452 -5.058891290727768 3.0010426552614566 -5.0111872518674625 2.956646593764805 -4.992022226109287 2.9350297603313797 -4.975934441213198 2.9139595425551637 -4.962896148514951 2.8935564809340524 -4.952879599350305 2.8739411159659407 -4.945839224924533 2.8552249083387284 -4.94173382660315 2.8375327687105547 -4.9405043856211925 2.8209805279295646 -4.942123323059169 2.8056663664581705 -4.94972890148355 2.785276908965864 -4.998454334656859 2.6968947096151266 -5.06054283464977 2.5784753625107353 -5.119851394287213 2.458639565047157 -5.162714004531362 2.3672701082081335 -5.174738975315718 2.349132443594535 -5.18617680465025 2.338821257430271 -5.200290496014816 2.3300867330547956 -5.2170168302289595 2.3230088913105327 -5.236296788527709 2.3177035630456264 -5.25805353201562 2.314277499298227 -5.282223671767481 2.3128330809462394 -5.308725998727595 2.313463609057574 -5.3374793038402695 2.3162623847001416 -5.401436202591251 2.3287604126308494 -5.473427045189138 2.3510421334361715 -5.509125312590264 2.3645063157194617 -5.561398600566887 2.3802206519801206 -5.6554051711170485 2.400308147926542 -5.7192361870132755 2.409947443007388 -5.791770095971419 2.417837066018144 -5.875537655874918 2.42345955726434 -5.971409127321921 2.4258778753961323 -6.077746416265943 2.4240777976101517 -6.192806501611302 2.4173171127100357 -6.32044884583766 2.40443102484754 -6.455860186656876 2.384976018357131 -6.5933735958144455 2.3593965603473066 A7.002817496043395 7.002817496043395 0 0 1 -6.7209697917586775 1.9666958486835582 L-6.624754334975578 1.8651732785514308 -6.52663962492005 1.7698410585483295 -6.43094905164439 1.684389706972269 -6.341837318105447 1.6112895767009452 -6.256866703389553 1.5473297929708307 -6.177883601979976 1.4929344164051292 -6.106809405005066 1.4482457710422223 -6.043490835937613 1.411994248160414 -5.986184623818332 1.3822736719119653 -5.8983245767875525 1.3432691217190809 -5.846797943359028 1.3252568190477794 -5.810003390581481 1.3151666562195483 -5.738664708595351 1.2908777914358252 -5.67957633409788 1.2633959865597515 -5.654669342570102 1.248759474918135 -5.63285789454389 1.233691905937047 -5.6141528485336565 1.2183164952513108 -5.598565063053815 1.2027564584957482 -5.586085642851968 1.1871318826158817 -5.576714005214469 1.1715742957852888 -5.5704298136608665 1.1562120974882475 -5.567237178511465 1.1411471852481176 -5.568169824560959 1.1194054058511511 -5.587198863690125 1.020291952325302 -5.609654945477332 0.8884820589531947 -5.629029439641883 0.7561840900501621 -5.641559489489934 0.6560412977443482 -5.647391069708779 0.635075433293981 -5.6550827600727365 0.6217344288585946 -5.665806561744181 0.609066032049546 -5.679527077509798 0.597165883011594 -5.696223970889131 0.5861623812290158 -5.715857151634912 0.5761807974967879 -5.738397970727932 0.5673380900711315 -5.763798025382167 0.5597480885189667 -5.792008912811595 0.5535246224072139 -5.856697641157506 0.545647184689982 -5.932050431516568 0.5445919666540338 -5.970162162489754 0.5463657936544537 -6.024733010607961 0.545157681217774 -6.1203459497261345 0.5352123972507631 -6.184031559329757 0.5246550429697423 -6.255453433686293 0.5097443098087224 -6.33685856273246 0.48920601715872647 -6.428785051779466 0.4618800604235863 -6.529361568727773 0.42730805529592986 -6.636701046133204 0.385322740121108 -6.754114109224351 0.3336236887221278 -6.87688601965952 0.2732764724806236 -6.999764556284851 0.20645498187295808 A7.002817496043395 7.002817496043395 0 0 1 -6.999764556284851 -0.2064549818729574 L-6.87688601965952 -0.2732764724806229 -6.754114109224351 -0.3336236887221269 -6.636701046133204 -0.3853227401211071 -6.529361568727773 -0.42730805529592897 -6.428785051779466 -0.46188006042358565 -6.33685856273246 -0.4892060171587257 -6.255453433686293 -0.5097443098087218 -6.184031559329757 -0.5246550429697416 -6.1203459497261345 -0.5352123972507624 -6.024733010607961 -0.5451576812177733 -5.970162162489754 -0.546365793654453 -5.932050431516568 -0.5445919666540331 -5.856697641157506 -0.5456471846899813 -5.792008912811595 -0.5535246224072132 -5.763798025382167 -0.5597480885189661 -5.738397970727932 -0.5673380900711308 -5.715857151634912 -0.5761807974967872 -5.696223970889131 -0.5861623812290151 -5.679527077509798 -0.5971658830115933 -5.665806561744181 -0.6090660320495453 -5.6550827600727365 -0.621734428858594 -5.647391069708779 -0.6350754332939804 -5.641559489489934 -0.6560412977443476 -5.629029439641883 -0.7561840900501614 -5.609654945477332 -0.8884820589531941 -5.587198863690125 -1.0202919523253013 -5.568169824560959 -1.1194054058511504 -5.567237178511465 -1.141147185248117 -5.5704298136608665 -1.1562120974882468 -5.576714005214469 -1.1715742957852882 -5.586085642851968 -1.187131882615881 -5.598565063053815 -1.2027564584957475 -5.6141528485336565 -1.2183164952513101 -5.63285789454389 -1.2336919059370466 -5.654669342570102 -1.2487594749181343 -5.67957633409788 -1.2633959865597508 -5.738664708595351 -1.2908777914358245 -5.810003390581481 -1.3151666562195476 -5.846797943359028 -1.3252568190477787 -5.8983245767875525 -1.3432691217190804 -5.986184623818332 -1.3822736719119644 -6.043490835937613 -1.4119942481604133 -6.106809405005066 -1.4482457710422216 -6.177883601979976 -1.4929344164051286 -6.256866703389553 -1.5473297929708303 -6.341837318105447 -1.6112895767009443 -6.43094905164439 -1.6843897069722682 -6.52663962492005 -1.7698410585483286 -6.624754334975578 -1.8651732785514301 -6.7209697917586775 -1.9666958486835573 A7.002817496043395 7.002817496043395 0 0 1 -6.593373595814446 -2.3593965603473057 L-6.455860186656877 -2.38497601835713 -6.32044884583766 -2.404431024847539 -6.192806501611303 -2.4173171127100352 -6.077746416265944 -2.4240777976101513 -5.971409127321922 -2.4258778753961314 -5.875537655874918 -2.423459557264339 -5.79177009597142 -2.417837066018143 -5.7192361870132755 -2.409947443007387 -5.655405171117049 -2.400308147926541 -5.561398600566887 -2.38022065198012 -5.509125312590264 -2.364506315719461 -5.473427045189139 -2.3510421334361706 -5.401436202591252 -2.328760412630849 -5.33747930384027 -2.3162623847001407 -5.308725998727596 -2.3134636090575733 -5.282223671767481 -2.3128330809462385 -5.258053532015621 -2.3142774992982265 -5.23629678852771 -2.317703563045626 -5.2170168302289595 -2.3230088913105322 -5.200290496014817 -2.3300867330547947 -5.186176804650251 -2.3388212574302703 -5.174738975315718 -2.3491324435945344 -5.162714004531363 -2.3672701082081327 -5.119851394287214 -2.4586395650471564 -5.0605428346497705 -2.578475362510735 -4.99845433465686 -2.696894709615126 -4.949728901483551 -2.785276908965864 -4.942123323059169 -2.80566636645817 -4.940504385621193 -2.8209805279295637 -4.9417338266031505 -2.837532768710554 -4.945839224924533 -2.855224908338728 -4.952879599350306 -2.8739411159659403 -4.962896148514952 -2.893556480934052 -4.975934441213198 -2.9139595425551628 -4.992022226109288 -2.935029760331379 -5.011187251867463 -2.956646593764804 -5.058891290727769 -3.001042655261456 -5.1192327371023385 -3.0461876034774513 -5.151108404495657 -3.067154060694408 -5.19454703734735 -3.100207383915772 -5.26605383873042 -3.164453163200969 -5.311371122047267 -3.2104277043382172 -5.360388323118902 -3.26447146530193 -5.414174350419602 -3.3289360274055255 -5.472482647918155 -3.4050762253486644 -5.533529844608159 -3.4921629584157157 -5.595690956923866 -3.5892223537140278 -5.660292180356391 -3.7000614318003286 -5.724145538606661 -3.82104687365249 -5.784279676265092 -3.947332786795207 A7.002817496043395 7.002817496043395 0 0 1 -5.541577289050624 -4.281383964612396 L-5.402889777961421 -4.263217494451814 -5.268094012263829 -4.239875899604845 -5.142716908891641 -4.212687643868222 -5.031199098430711 -4.183561915551148 -4.929510072228274 -4.152413861839881 -4.839078185982326 -4.120487990669309 -4.761147947627757 -4.089255084144299 -4.694602128450291 -4.059337396232296 -4.636873930834222 -4.030445013153014 -4.5536757469598115 -3.9822910413542103 -4.508816892761337 -3.951192485117625 -4.479026484069948 -3.9273559155238265 -4.417444554496412 -3.8839183459555375 -4.360480032204024 -3.8522682464296274 -4.333998883248587 -3.8407211926928517 -4.308988516398019 -3.8319318554027024 -4.285554997669497 -3.825836594948875 -4.263804393080198 -3.8223717717210604 -4.243828626511679 -3.8214596039733295 -4.225733763981115 -3.823022309959752 -4.209611729370061 -3.8269679657987727 -4.195547375492261 -3.833240002947897 -4.178506102065666 -3.846774026739808 -4.1095066223574825 -3.920426269068199 -4.016069532291492 -4.016069532291491 -3.9204262690681997 -4.109506622357482 -3.846774026739809 -4.178506102065665 -3.833240002947898 -4.19554737549226 -3.826967965798773 -4.209611729370061 -3.823022309959752 -4.225733763981115 -3.8214596039733304 -4.243828626511678 -3.8223717717210604 -4.263804393080198 -3.825836594948875 -4.285554997669497 -3.8319318554027024 -4.308988516398019 -3.8407211926928517 -4.333998883248587 -3.8522682464296287 -4.360480032204023 -3.8839183459555384 -4.417444554496411 -3.9273559155238273 -4.479026484069947 -3.951192485117626 -4.508816892761336 -3.9822910413542103 -4.5536757469598115 -4.030445013153015 -4.636873930834221 -4.059337396232297 -4.69460212845029 -4.0892550841443 -4.761147947627756 -4.12048799066931 -4.839078185982325 -4.152413861839882 -4.929510072228273 -4.18356191555115 -5.031199098430711 -4.2126876438682235 -5.142716908891641 -4.239875899604847 -5.268094012263829 -4.263217494451815 -5.40288977796142 -4.281383964612397 -5.541577289050623 A7.002817496043395 7.002817496043395 0 0 1 -3.947332786795208 -5.784279676265091 L-3.8210468736524907 -5.72414553860666 -3.7000614318003295 -5.6602921803563895 -3.589222353714028 -5.595690956923865 -3.492162958415716 -5.533529844608158 -3.4050762253486653 -5.472482647918154 -3.3289360274055264 -5.414174350419602 -3.264471465301931 -5.360388323118901 -3.2104277043382172 -5.311371122047267 -3.16445316320097 -5.266053838730419 -3.1002073839157727 -5.194547037347348 -3.067154060694409 -5.151108404495657 -3.046187603477452 -5.119232737102338 -3.0010426552614566 -5.058891290727768 -2.956646593764805 -5.0111872518674625 -2.9350297603313797 -4.992022226109287 -2.9139595425551637 -4.975934441213198 -2.8935564809340524 -4.962896148514951 -2.8739411159659407 -4.952879599350305 -2.8552249083387284 -4.945839224924533 -2.8375327687105547 -4.94173382660315 -2.8209805279295646 -4.9405043856211925 -2.8056663664581705 -4.942123323059169 -2.785276908965864 -4.94972890148355 -2.6968947096151266 -4.998454334656859 -2.5784753625107353 -5.06054283464977 -2.458639565047157 -5.119851394287213 -2.3672701082081335 -5.162714004531362 -2.349132443594535 -5.174738975315718 -2.338821257430271 -5.18617680465025 -2.3300867330547956 -5.200290496014816 -2.3230088913105327 -5.2170168302289595 -2.3177035630456264 -5.236296788527709 -2.314277499298227 -5.25805353201562 -2.3128330809462394 -5.282223671767481 -2.313463609057574 -5.308725998727595 -2.3162623847001416 -5.3374793038402695 -2.3287604126308494 -5.401436202591251 -2.3510421334361715 -5.473427045189138 -2.3645063157194617 -5.509125312590264 -2.3802206519801206 -5.561398600566887 -2.400308147926542 -5.6554051711170485 -2.409947443007388 -5.7192361870132755 -2.417837066018144 -5.791770095971419 -2.42345955726434 -5.875537655874918 -2.4258778753961323 -5.971409127321921 -2.4240777976101517 -6.077746416265943 -2.4173171127100357 -6.192806501611302 -2.40443102484754 -6.32044884583766 -2.384976018357131 -6.455860186656876 -2.3593965603473066 -6.5933735958144455 A7.002817496043395 7.002817496043395 0 0 1 -1.9666958486835584 -6.720969791758677 L-1.8651732785514312 -6.624754334975577 -1.7698410585483297 -6.52663962492005 -1.684389706972269 -6.430949051644389 -1.6112895767009454 -6.341837318105447 -1.5473297929708312 -6.256866703389552 -1.4929344164051295 -6.177883601979976 -1.4482457710422227 -6.106809405005065 -1.4119942481604144 -6.043490835937612 -1.3822736719119655 -5.986184623818331 -1.3432691217190813 -5.898324576787552 -1.3252568190477796 -5.846797943359027 -1.3151666562195485 -5.81000339058148 -1.2908777914358254 -5.738664708595351 -1.2633959865597517 -5.679576334097879 -1.2487594749181352 -5.654669342570101 -1.2336919059370475 -5.632857894543889 -1.218316495251311 -5.614152848533656 -1.2027564584957484 -5.598565063053814 -1.187131882615882 -5.586085642851967 -1.1715742957852893 -5.576714005214469 -1.1562120974882477 -5.570429813660866 -1.1411471852481179 -5.567237178511464 -1.1194054058511513 -5.568169824560958 -1.0202919523253022 -5.587198863690125 -0.888482058953195 -5.609654945477332 -0.7561840900501624 -5.629029439641883 -0.6560412977443485 -5.641559489489933 -0.6350754332939814 -5.647391069708778 -0.6217344288585951 -5.655082760072736 -0.6090660320495463 -5.665806561744181 -0.5971658830115943 -5.679527077509797 -0.5861623812290161 -5.69622397088913 -0.5761807974967881 -5.7158571516349115 -0.5673380900711318 -5.738397970727931 -0.5597480885189672 -5.763798025382166 -0.5535246224072143 -5.792008912811594 -0.5456471846899823 -5.856697641157506 -0.5445919666540342 -5.932050431516567 -0.5463657936544541 -5.970162162489753 -0.5451576812177743 -6.02473301060796 -0.5352123972507634 -6.120345949726134 -0.5246550429697426 -6.184031559329756 -0.5097443098087229 -6.255453433686292 -0.4892060171587268 -6.33685856273246 -0.46188006042358676 -6.428785051779465 -0.4273080552959301 -6.529361568727773 -0.38532274012110834 -6.636701046133203 -0.333623688722128 -6.754114109224351 -0.27327647248062403 -6.876886019659519 -0.20645498187295863 -6.99976455628485 A7.002817496043395 7.002817496043395 0 0 1 0.20645498187295674 -6.999764556284851 L0.27327647248062226 -6.87688601965952 0.33362368872212644 -6.754114109224351 0.3853227401211067 -6.636701046133204 0.4273080552959285 -6.529361568727773 0.4618800604235852 -6.428785051779466 0.48920601715872525 -6.33685856273246 0.5097443098087213 -6.255453433686293 0.5246550429697412 -6.184031559329757 0.5352123972507619 -6.1203459497261345 0.5451576812177727 -6.024733010607961 0.5463657936544526 -5.970162162489754 0.5445919666540326 -5.932050431516568 0.5456471846899809 -5.856697641157506 0.5535246224072128 -5.792008912811595 0.5597480885189656 -5.763798025382167 0.5673380900711303 -5.738397970727932 0.5761807974967867 -5.715857151634912 0.5861623812290147 -5.696223970889131 0.5971658830115929 -5.679527077509798 0.6090660320495449 -5.665806561744181 0.6217344288585935 -5.6550827600727365 0.6350754332939799 -5.647391069708778 0.656041297744347 -5.641559489489934 0.756184090050161 -5.629029439641883 0.8884820589531935 -5.609654945477332 1.020291952325301 -5.587198863690125 1.11940540585115 -5.568169824560959 1.1411471852481165 -5.567237178511466 1.1562120974882464 -5.5704298136608665 1.1715742957852877 -5.576714005214469 1.1871318826158805 -5.586085642851968 1.202756458495747 -5.598565063053815 1.2183164952513097 -5.6141528485336565 1.2336919059370461 -5.63285789454389 1.2487594749181339 -5.654669342570102 1.2633959865597502 -5.67957633409788 1.290877791435824 -5.738664708595351 1.3151666562195472 -5.810003390581481 1.3252568190477783 -5.846797943359028 1.3432691217190798 -5.8983245767875525 1.382273671911964 -5.986184623818332 1.4119942481604129 -6.043490835937613 1.4482457710422212 -6.106809405005066 1.4929344164051281 -6.177883601979976 1.5473297929708298 -6.256866703389553 1.6112895767009439 -6.341837318105447 1.6843897069722678 -6.43094905164439 1.7698410585483282 -6.52663962492005 1.8651732785514294 -6.624754334975578 1.9666958486835568 -6.7209697917586775 A7.002817496043395 7.002817496043395 0 0 1 2.3593965603473053 -6.593373595814446 L2.3849760183571296 -6.455860186656877 2.4044310248475385 -6.32044884583766 2.417317112710035 -6.192806501611303 2.424077797610151 -6.077746416265944 2.425877875396131 -5.971409127321922 2.423459557264339 -5.875537655874918 2.417837066018143 -5.79177009597142 2.409947443007387 -5.7192361870132755 2.4003081479265407 -5.655405171117049 2.3802206519801192 -5.561398600566887 2.364506315719461 -5.509125312590264 2.3510421334361706 -5.473427045189139 2.3287604126308485 -5.401436202591252 2.3162623847001402 -5.33747930384027 2.313463609057573 -5.308725998727596 2.3128330809462385 -5.282223671767481 2.314277499298226 -5.258053532015621 2.3177035630456255 -5.23629678852771 2.323008891310532 -5.2170168302289595 2.3300867330547947 -5.200290496014817 2.33882125743027 -5.186176804650251 2.349132443594534 -5.174738975315718 2.3672701082081327 -5.162714004531363 2.458639565047156 -5.119851394287214 2.5784753625107344 -5.0605428346497705 2.6968947096151257 -4.99845433465686 2.785276908965863 -4.949728901483551 2.8056663664581696 -4.942123323059169 2.820980527929563 -4.940504385621193 2.837532768710554 -4.9417338266031505 2.8552249083387276 -4.945839224924533 2.87394111596594 -4.952879599350306 2.8935564809340515 -4.962896148514952 2.9139595425551628 -4.975934441213198 2.9350297603313784 -4.992022226109288 2.9566465937648037 -5.011187251867463 3.0010426552614557 -5.058891290727769 3.0461876034774513 -5.1192327371023385 3.067154060694408 -5.151108404495657 3.100207383915772 -5.19454703734735 3.1644531632009687 -5.26605383873042 3.2104277043382163 -5.311371122047267 3.26447146530193 -5.360388323118902 3.3289360274055255 -5.414174350419602 3.405076225348664 -5.472482647918155 3.4921629584157152 -5.533529844608159 3.5892223537140273 -5.595690956923866 3.700061431800328 -5.660292180356391 3.8210468736524894 -5.724145538606661 3.9473327867952066 -5.784279676265092 A7.002817496043395 7.002817496043395 0 0 1 4.281383964612396 -5.541577289050624 L4.263217494451814 -5.402889777961421 4.239875899604845 -5.2680940122638305 4.212687643868222 -5.142716908891642 4.183561915551148 -5.031199098430712 4.1524138618398805 -4.9295100722282745 4.120487990669308 -4.839078185982327 4.089255084144299 -4.761147947627758 4.059337396232296 -4.694602128450291 4.030445013153014 -4.636873930834223 3.9822910413542103 -4.553675746959812 3.951192485117625 -4.508816892761338 3.9273559155238265 -4.479026484069949 3.8839183459555375 -4.417444554496413 3.8522682464296274 -4.360480032204024 3.8407211926928513 -4.333998883248588 3.8319318554027024 -4.30898851639802 3.825836594948875 -4.2855549976694975 3.8223717717210604 -4.263804393080199 3.8214596039733295 -4.24382862651168 3.823022309959752 -4.225733763981116 3.8269679657987727 -4.209611729370062 3.833240002947897 -4.195547375492262 3.846774026739808 -4.178506102065666 3.920426269068199 -4.1095066223574825 4.016069532291491 -4.0160695322914925 4.109506622357482 -3.9204262690681997 4.178506102065665 -3.846774026739809 4.19554737549226 -3.833240002947899 4.209611729370061 -3.826967965798774 4.225733763981115 -3.823022309959753 4.243828626511678 -3.8214596039733313 4.263804393080198 -3.8223717717210612 4.285554997669497 -3.8258365949488757 4.308988516398019 -3.8319318554027033 4.333998883248587 -3.8407211926928526 4.360480032204023 -3.8522682464296287 4.417444554496411 -3.8839183459555393 4.479026484069947 -3.9273559155238282 4.508816892761336 -3.9511924851176268 4.553675746959812 -3.982291041354211 4.636873930834221 -4.030445013153016 4.69460212845029 -4.059337396232297 4.761147947627756 -4.089255084144301 4.839078185982326 -4.120487990669311 4.929510072228274 -4.152413861839883 5.031199098430711 -4.1835619155511505 5.142716908891641 -4.212687643868224 5.268094012263829 -4.239875899604847 5.40288977796142 -4.263217494451815 5.541577289050623 -4.281383964612397 A7.002817496043395 7.002817496043395 0 0 1 5.784279676265091 -3.9473327867952084 L5.724145538606659 -3.821046873652491 5.6602921803563895 -3.70006143180033 5.595690956923865 -3.5892223537140286 5.533529844608158 -3.492162958415716 5.472482647918154 -3.4050762253486653 5.414174350419602 -3.328936027405527 5.360388323118901 -3.2644714653019316 5.311371122047267 -3.2104277043382177 5.266053838730419 -3.16445316320097 5.194547037347348 -3.100207383915773 5.151108404495657 -3.067154060694409 5.119232737102338 -3.0461876034774527 5.058891290727768 -3.001042655261457 5.0111872518674625 -2.956646593764805 4.992022226109287 -2.9350297603313797 4.975934441213198 -2.913959542555164 4.962896148514951 -2.893556480934053 4.952879599350305 -2.873941115965941 4.945839224924533 -2.855224908338729 4.94173382660315 -2.837532768710555 4.9405043856211925 -2.8209805279295646 4.942123323059169 -2.805666366458171 4.94972890148355 -2.785276908965865 4.998454334656859 -2.696894709615127 5.06054283464977 -2.5784753625107357 5.119851394287213 -2.4586395650471573 5.162714004531362 -2.3672701082081335 5.174738975315718 -2.3491324435945353 5.18617680465025 -2.338821257430271 5.200290496014816 -2.330086733054796 5.2170168302289595 -2.323008891310533 5.236296788527709 -2.317703563045627 5.25805353201562 -2.3142774992982273 5.282223671767481 -2.31283308094624 5.308725998727595 -2.313463609057574 5.3374793038402695 -2.3162623847001416 5.401436202591251 -2.32876041263085 5.473427045189138 -2.351042133436172 5.509125312590264 -2.3645063157194626 5.561398600566887 -2.380220651980121 5.6554051711170485 -2.400308147926542 5.7192361870132755 -2.4099474430073884 5.791770095971419 -2.4178370660181443 5.875537655874918 -2.4234595572643403 5.971409127321921 -2.425877875396133 6.077746416265943 -2.4240777976101526 6.192806501611302 -2.417317112710036 6.32044884583766 -2.4044310248475402 6.455860186656877 -2.3849760183571314 6.5933735958144455 -2.359396560347307 A7.002817496043395 7.002817496043395 0 0 1 6.7209697917586775 -1.9666958486835573 Z" id="SvgjsPath1728">
        </path>
      </g>
    </g>
  </g>
</svg>
