  0
SECTION
  2
HEADER
  9
$ACADVER
  1
AC1014
  9
$HANDSEED
  5
FFFF
  9
$MEASUREMENT
 70
     1
  0
ENDSEC
  0
SECTION
  2
TABLES
  0
TABLE
  2
VPORT
  5
8
330
0
100
AcDbSymbolTable
 70
     4
  0
VPORT
  5
2E
330
8
100
AcDbSymbolTableRecord
100
AcDbViewportTableRecord
  2
*ACTIVE
 70
     0
 10
0.0
 20
0.0
 11
1.0
 21
1.0
 12
210.0
 22
148.5
 13
0.0
 23
0.0
 14
10.0
 24
10.0
 15
10.0
 25
10.0
 16
0.0
 26
0.0
 36
1.0
 17
0.0
 27
0.0
 37
0.0
 40
341.0
 41
1.24
 42
50.0
 43
0.0
 44
0.0
 50
0.0
 51
0.0
 71
     0
 72
   100
 73
     1
 74
     3
 75
     0
 76
     0
 77
     0
 78
     0
  0
ENDTAB
  0
TABLE
  2
LTYPE
  5
5
330
0
100
AcDbSymbolTable
 70
     1
  0
LTYPE
  5
14
330
5
100
AcDbSymbolTableRecord
100
AcDbLinetypeTableRecord
  2
BYBLOCK
 70
     0
  3

 72
    65
 73
     0
 40
0.0
  0
LTYPE
  5
15
330
5
100
AcDbSymbolTableRecord
100
AcDbLinetypeTableRecord
  2
BYLAYER
 70
     0
  3

 72
    65
 73
     0
 40
0.0
  0
LTYPE
  5
16
330
5
100
AcDbSymbolTableRecord
100
AcDbLinetypeTableRecord
  2
CONTINUOUS
 70
     0
  3
Solid line
 72
    65
 73
     0
 40
0.0
  0
ENDTAB
  0
TABLE
  2
LAYER
  5
2
100
AcDbSymbolTable
 70
1
  0
LAYER
  5
50
100
AcDbSymbolTableRecord
100
AcDbLayerTableRecord
  2
0
 70
0
  6
CONTINUOUS
  0
ENDTAB
  0
TABLE
  2
STYLE
  5
3
330
0
100
AcDbSymbolTable
 70
     1
  0
STYLE
  5
11
330
3
100
AcDbSymbolTableRecord
100
AcDbTextStyleTableRecord
  2
STANDARD
 70
     0
 40
0.0
 41
1.0
 50
0.0
 71
     0
 42
2.5
  3
txt
  4

  0
ENDTAB
  0
TABLE
  2
VIEW
  5
6
330
0
100
AcDbSymbolTable
 70
     0
  0
ENDTAB
  0
TABLE
  2
UCS
  5
7
330
0
100
AcDbSymbolTable
 70
     0
  0
ENDTAB
  0
TABLE
  2
APPID
  5
9
330
0
100
AcDbSymbolTable
 70
     2
  0
APPID
  5
12
330
9
100
AcDbSymbolTableRecord
100
AcDbRegAppTableRecord
  2
ACAD
 70
     0
  0
ENDTAB
  0
TABLE
  2
DIMSTYLE
  5
A
330
0
100
AcDbSymbolTable
 70
     1
  0
DIMSTYLE
105
27
330
A
100
AcDbSymbolTableRecord
100
AcDbDimStyleTableRecord
  2
ISO-25
 70
     0
  3

  4

  5

  6

  7

 40
1.0
 41
2.5
 42
0.625
 43
3.75
 44
1.25
 45
0.0
 46
0.0
 47
0.0
 48
0.0
140
2.5
141
2.5
142
0.0
143
0.03937007874016
144
1.0
145
0.0
146
1.0
147
0.625
 71
     0
 72
     0
 73
     0
 74
     0
 75
     0
 76
     0
 77
     1
 78
     8
170
     0
171
     3
172
     1
173
     0
174
     0
175
     0
176
     0
177
     0
178
     0
270
     2
271
     2
272
     2
273
     2
274
     3
340
11
275
     0
280
     0
281
     0
282
     0
283
     0
284
     8
285
     0
286
     0
287
     3
288
     0
  0
ENDTAB
  0
TABLE
  2
BLOCK_RECORD
  5
1
330
0
100
AcDbSymbolTable
 70
     1
  0
BLOCK_RECORD
  5
1F
330
1
100
AcDbSymbolTableRecord
100
AcDbBlockTableRecord
  2
*MODEL_SPACE
  0
BLOCK_RECORD
  5
1B
330
1
100
AcDbSymbolTableRecord
100
AcDbBlockTableRecord
  2
*PAPER_SPACE
  0
ENDTAB
  0
ENDSEC
  0
SECTION
  2
BLOCKS
  0
BLOCK
  5
20
330
1F
100
AcDbEntity
  8
0
100
AcDbBlockBegin
  2
*MODEL_SPACE
 70
     0
 10
0.0
 20
0.0
 30
0.0
  3
*MODEL_SPACE
  1

  0
ENDBLK
  5
21
330
1F
100
AcDbEntity
  8
0
100
AcDbBlockEnd
  0
BLOCK
  5
1C
330
1B
100
AcDbEntity
 67
     1
  8
0
100
AcDbBlockBegin
  2
*PAPER_SPACE
  1

  0
ENDBLK
  5
1D
330
1B
100
AcDbEntity
 67
     1
  8
0
100
AcDbBlockEnd
  0
ENDSEC
  0
SECTION
  2
ENTITIES
  0
SPLINE
  5
100
100
AcDbEntity
  8
0
 62
7
100
AcDbSpline
 70
8
 71
3
 72
8
 73
4
 74
0
 40
0
 40
0
 40
0
 40
0
 40
1
 40
1
 40
1
 40
1
 10
55.147182
 20
101.036736
 30
0.0
 10
53.529334
 20
101.036736
 30
0.0
 10
52.070789
 20
100.062168
 30
0.0
 10
51.451665
 20
98.567471
 30
0.0
  0
SPLINE
  5
101
100
AcDbEntity
  8
0
 62
7
100
AcDbSpline
 70
8
 71
3
 72
8
 73
4
 74
0
 40
0
 40
0
 40
0
 40
0
 40
1
 40
1
 40
1
 40
1
 10
51.451665
 20
98.567471
 30
0.0
 10
50.832542
 20
97.072774
 30
0.0
 10
51.174764
 20
95.352303
 30
0.0
 10
52.318756
 20
94.208311
 30
0.0
  0
SPLINE
  5
102
100
AcDbEntity
  8
0
 62
7
100
AcDbSpline
 70
8
 71
3
 72
8
 73
4
 74
0
 40
0
 40
0
 40
0
 40
0
 40
1
 40
1
 40
1
 40
1
 10
52.318756
 20
94.208311
 30
0.0
 10
53.462748
 20
93.064320
 30
0.0
 10
55.183218
 20
92.722097
 30
0.0
 10
56.677916
 20
93.341221
 30
0.0
  0
SPLINE
  5
103
100
AcDbEntity
  8
0
 62
7
100
AcDbSpline
 70
8
 71
3
 72
8
 73
4
 74
0
 40
0
 40
0
 40
0
 40
0
 40
1
 40
1
 40
1
 40
1
 10
56.677916
 20
93.341221
 30
0.0
 10
58.172613
 20
93.960344
 30
0.0
 10
59.147181
 20
95.418889
 30
0.0
 10
59.147181
 20
97.036738
 30
0.0
  0
SPLINE
  5
104
100
AcDbEntity
  8
0
 62
7
100
AcDbSpline
 70
8
 71
3
 72
8
 73
4
 74
0
 40
0
 40
0
 40
0
 40
0
 40
1
 40
1
 40
1
 40
1
 10
59.147181
 20
97.036738
 30
0.0
 10
59.147181
 20
98.097603
 30
0.0
 10
58.725754
 20
99.115019
 30
0.0
 10
57.975608
 20
99.865164
 30
0.0
  0
SPLINE
  5
105
100
AcDbEntity
  8
0
 62
7
100
AcDbSpline
 70
8
 71
3
 72
8
 73
4
 74
0
 40
0
 40
0
 40
0
 40
0
 40
1
 40
1
 40
1
 40
1
 10
57.975608
 20
99.865164
 30
0.0
 10
57.225463
 20
100.615309
 30
0.0
 10
56.208048
 20
101.036736
 30
0.0
 10
55.147182
 20
101.036736
 30
0.0
  0
LWPOLYLINE
  5
106
100
AcDbEntity
  8
0
 62
7
100
AcDbPolyline
 90
1
 70
1
 10
55.147182
 20
101.036736
 30
0.0
  0
SPLINE
  5
107
100
AcDbEntity
  8
0
 62
7
100
AcDbSpline
 70
8
 71
3
 72
8
 73
4
 74
0
 40
0
 40
0
 40
0
 40
0
 40
1
 40
1
 40
1
 40
1
 10
12.312775
 20
94.811164
 30
0.0
 10
12.297902
 20
95.097383
 30
0.0
 10
12.285898
 20
95.383744
 30
0.0
 10
12.276765
 20
95.670203
 30
0.0
  0
LWPOLYLINE
  5
108
100
AcDbEntity
  8
0
 62
7
100
AcDbPolyline
 90
30
 70
0
 10
12.779667
 20
92.224830
 30
0.0
 10
13.076481
 20
92.388400
 30
0.0
 10
13.363232
 20
92.538672
 30
0.0
 10
13.636868
 20
92.674837
 30
0.0
 10
13.896885
 20
92.797504
 30
0.0
 10
14.145248
 20
92.908376
 30
0.0
 10
14.380041
 20
93.007330
 30
0.0
 10
14.606722
 20
93.097253
 30
0.0
 10
14.661472
 20
93.123326
 30
0.0
 10
14.697362
 20
93.149591
 30
0.0
 10
14.708242
 20
93.162547
 30
0.0
 10
14.714442
 20
93.175258
 30
0.0
 10
14.715942
 20
93.187625
 30
0.0
 10
14.703482
 20
93.319334
 30
0.0
 10
14.675582
 20
93.638238
 30
0.0
 10
14.649912
 20
93.957329
 30
0.0
 10
14.640212
 20
94.089271
 30
0.0
 10
14.636712
 20
94.101218
 30
0.0
 10
14.628512
 20
94.112721
 30
0.0
 10
14.615622
 20
94.123681
 30
0.0
 10
14.575852
 20
94.143593
 30
0.0
 10
14.517522
 20
94.160170
 30
0.0
 10
14.279019
 20
94.211031
 30
0.0
 10
14.031012
 20
94.269443
 30
0.0
 10
13.767637
 20
94.337342
 30
0.0
 10
13.490804
 20
94.414929
 30
0.0
 10
13.198292
 20
94.503553
 30
0.0
 10
12.890496
 20
94.603899
 30
0.0
 10
12.570561
 20
94.715679
 30
0.0
 10
12.312775
 20
94.811164
 30
0.0
  0
SPLINE
  5
109
100
AcDbEntity
  8
0
 62
7
100
AcDbSpline
 70
8
 71
3
 72
8
 73
4
 74
0
 40
0
 40
0
 40
0
 40
0
 40
1
 40
1
 40
1
 40
1
 10
12.276734
 20
98.403269
 30
0.0
 10
12.285867
 20
98.689728
 30
0.0
 10
12.297871
 20
98.976089
 30
0.0
 10
12.312744
 20
99.262308
 30
0.0
  0
LWPOLYLINE
  5
10a
100
AcDbEntity
  8
0
 62
7
100
AcDbPolyline
 90
31
 70
0
 10
12.276765
 20
95.670203
 30
0.0
 10
12.525657
 20
95.786925
 30
0.0
 10
12.835117
 20
95.925085
 30
0.0
 10
13.133437
 20
96.050835
 30
0.0
 10
13.417507
 20
96.163625
 30
0.0
 10
13.686877
 20
96.264105
 30
0.0
 10
13.943647
 20
96.353805
 30
0.0
 10
14.185896
 20
96.432765
 30
0.0
 10
14.419306
 20
96.503405
 30
0.0
 10
14.476046
 20
96.524805
 30
0.0
 10
14.514006
 20
96.547975
 30
0.0
 10
14.525936
 20
96.559975
 30
0.0
 10
14.533136
 20
96.572125
 30
0.0
 10
14.535636
 20
96.584325
 30
0.0
 10
14.534236
 20
96.716615
 30
0.0
 10
14.533105
 20
97.036738
 30
0.0
 10
14.534205
 20
97.356858
 30
0.0
 10
14.535605
 20
97.489147
 30
0.0
 10
14.533105
 20
97.501347
 30
0.0
 10
14.525905
 20
97.513497
 30
0.0
 10
14.513975
 20
97.525497
 30
0.0
 10
14.476015
 20
97.548667
 30
0.0
 10
14.419275
 20
97.570067
 30
0.0
 10
14.185865
 20
97.640707
 30
0.0
 10
13.943616
 20
97.719667
 30
0.0
 10
13.686846
 20
97.809367
 30
0.0
 10
13.417476
 20
97.909847
 30
0.0
 10
13.133406
 20
98.022637
 30
0.0
 10
12.835086
 20
98.148387
 30
0.0
 10
12.525626
 20
98.286547
 30
0.0
 10
12.276734
 20
98.403269
 30
0.0
  0
SPLINE
  5
10b
100
AcDbEntity
  8
0
 62
7
100
AcDbSpline
 70
8
 71
3
 72
8
 73
4
 74
0
 40
0
 40
0
 40
0
 40
0
 40
1
 40
1
 40
1
 40
1
 10
12.541384
 20
101.985781
 30
0.0
 10
12.574453
 20
102.270472
 30
0.0
 10
12.610376
 20
102.554824
 30
0.0
 10
12.649145
 20
102.838795
 30
0.0
  0
LWPOLYLINE
  5
10c
100
AcDbEntity
  8
0
 62
7
100
AcDbPolyline
 90
31
 70
0
 10
12.312744
 20
99.262308
 30
0.0
 10
12.570530
 20
99.357793
 30
0.0
 10
12.890465
 20
99.469573
 30
0.0
 10
13.198261
 20
99.569919
 30
0.0
 10
13.490773
 20
99.658543
 30
0.0
 10
13.767606
 20
99.736130
 30
0.0
 10
14.030981
 20
99.804029
 30
0.0
 10
14.278988
 20
99.862441
 30
0.0
 10
14.517491
 20
99.913302
 30
0.0
 10
14.575821
 20
99.929879
 30
0.0
 10
14.615591
 20
99.949791
 30
0.0
 10
14.628481
 20
99.960751
 30
0.0
 10
14.636681
 20
99.972254
 30
0.0
 10
14.640181
 20
99.984201
 30
0.0
 10
14.649881
 20
100.116143
 30
0.0
 10
14.675551
 20
100.435234
 30
0.0
 10
14.703451
 20
100.754138
 30
0.0
 10
14.715911
 20
100.885847
 30
0.0
 10
14.714411
 20
100.898214
 30
0.0
 10
14.708211
 20
100.910925
 30
0.0
 10
14.697331
 20
100.923881
 30
0.0
 10
14.661441
 20
100.950146
 30
0.0
 10
14.606691
 20
100.976219
 30
0.0
 10
14.380010
 20
101.066142
 30
0.0
 10
14.145217
 20
101.165096
 30
0.0
 10
13.896854
 20
101.275968
 30
0.0
 10
13.636837
 20
101.398636
 30
0.0
 10
13.363201
 20
101.534800
 30
0.0
 10
13.076450
 20
101.685072
 30
0.0
 10
12.779636
 20
101.848642
 30
0.0
 10
12.541384
 20
101.985781
 30
0.0
  0
SPLINE
  5
10d
100
AcDbEntity
  8
0
 62
7
100
AcDbSpline
 70
8
 71
3
 72
8
 73
4
 74
0
 40
0
 40
0
 40
0
 40
0
 40
1
 40
1
 40
1
 40
1
 10
13.104819
 20
105.533579
 30
0.0
 10
13.161595
 20
105.814504
 30
0.0
 10
13.221185
 20
106.094853
 30
0.0
 10
13.283581
 20
106.374584
 30
0.0
  0
LWPOLYLINE
  5
10e
100
AcDbEntity
  8
0
 62
7
100
AcDbPolyline
 90
31
 70
0
 10
12.649145
 20
102.838795
 30
0.0
 10
12.914017
 20
102.912374
 30
0.0
 10
13.242184
 20
102.996990
 30
0.0
 10
13.557298
 20
103.071228
 30
0.0
 10
13.856199
 20
103.135064
 30
0.0
 10
14.138553
 20
103.189214
 30
0.0
 10
14.406686
 20
103.234837
 30
0.0
 10
14.658712
 20
103.272291
 30
0.0
 10
14.900634
 20
103.303016
 30
0.0
 10
14.960144
 20
103.314654
 30
0.0
 10
15.001434
 20
103.331169
 30
0.0
 10
15.015194
 20
103.341009
 30
0.0
 10
15.024294
 20
103.351785
 30
0.0
 10
15.028794
 20
103.363395
 30
0.0
 10
15.049484
 20
103.494065
 30
0.0
 10
15.101764
 20
103.809888
 30
0.0
 10
15.156254
 20
104.125339
 30
0.0
 10
15.179684
 20
104.255544
 30
0.0
 10
15.179244
 20
104.267992
 30
0.0
 10
15.174144
 20
104.281176
 30
0.0
 10
15.164344
 20
104.294998
 30
0.0
 10
15.130784
 20
104.324174
 30
0.0
 10
15.078404
 20
104.354737
 30
0.0
 10
14.860044
 20
104.463313
 30
0.0
 10
14.634354
 20
104.581567
 30
0.0
 10
14.396139
 20
104.712832
 30
0.0
 10
14.147298
 20
104.856827
 30
0.0
 10
13.886017
 20
105.015412
 30
0.0
 10
13.612846
 20
105.189151
 30
0.0
 10
13.330760
 20
105.376985
 30
0.0
 10
13.104819
 20
105.533579
 30
0.0
  0
SPLINE
  5
10f
100
AcDbEntity
  8
0
 62
7
100
AcDbSpline
 70
8
 71
3
 72
8
 73
4
 74
0
 40
0
 40
0
 40
0
 40
0
 40
1
 40
1
 40
1
 40
1
 10
13.963231
 20
109.021781
 30
0.0
 10
14.043314
 20
109.296970
 30
0.0
 10
14.126154
 20
109.571349
 30
0.0
 10
14.211737
 20
109.844877
 30
0.0
  0
LWPOLYLINE
  5
110
100
AcDbEntity
  8
0
 62
7
100
AcDbPolyline
 90
31
 70
0
 10
13.283581
 20
106.374584
 30
0.0
 10
13.553681
 20
106.425742
 30
0.0
 10
13.887777
 20
106.482602
 30
0.0
 10
14.207997
 20
106.530212
 30
0.0
 10
14.511192
 20
106.568813
 30
0.0
 10
14.797087
 20
106.599147
 30
0.0
 10
15.068098
 20
106.622173
 30
0.0
 10
15.322374
 20
106.638407
 30
0.0
 10
15.566018
 20
106.648781
 30
0.0
 10
15.626298
 20
106.655401
 30
0.0
 10
15.668828
 20
106.668403
 30
0.0
 10
15.683368
 20
106.677063
 30
0.0
 10
15.693378
 20
106.687033
 30
0.0
 10
15.698878
 20
106.698225
 30
0.0
 10
15.730428
 20
106.826704
 30
0.0
 10
15.808948
 20
107.137044
 30
0.0
 10
15.889648
 20
107.446829
 30
0.0
 10
15.923888
 20
107.574618
 30
0.0
 10
15.924491
 20
107.587058
 30
0.0
 10
15.920491
 20
107.600618
 30
0.0
 10
15.911891
 20
107.615208
 30
0.0
 10
15.880881
 20
107.647088
 30
0.0
 10
15.831251
 20
107.681928
 30
0.0
 10
15.622741
 20
107.808395
 30
0.0
 10
15.407739
 20
107.945119
 30
0.0
 10
15.181343
 20
108.095857
 30
0.0
 10
14.945424
 20
108.260170
 30
0.0
 10
14.698328
 20
108.440062
 30
0.0
 10
14.440653
 20
108.636050
 30
0.0
 10
14.175275
 20
108.846829
 30
0.0
 10
13.963231
 20
109.021781
 30
0.0
  0
SPLINE
  5
111
100
AcDbEntity
  8
0
 62
7
100
AcDbSpline
 70
8
 71
3
 72
8
 73
4
 74
0
 40
0
 40
0
 40
0
 40
0
 40
1
 40
1
 40
1
 40
1
 10
15.110556
 20
112.425863
 30
0.0
 10
15.213386
 20
112.693385
 30
0.0
 10
15.318895
 20
112.959870
 30
0.0
 10
15.427067
 20
113.225277
 30
0.0
  0
LWPOLYLINE
  5
112
100
AcDbEntity
  8
0
 62
7
100
AcDbPolyline
 90
31
 70
0
 10
14.211737
 20
109.844877
 30
0.0
 10
14.485171
 20
109.873257
 30
0.0
 10
14.822854
 20
109.901957
 30
0.0
 10
15.145935
 20
109.922607
 30
0.0
 10
15.451297
 20
109.935697
 30
0.0
 10
15.738728
 20
109.941997
 30
0.0
 10
16.010715
 20
109.942266
 30
0.0
 10
16.265457
 20
109.937166
 30
0.0
 10
16.509115
 20
109.927116
 30
0.0
 10
16.569735
 20
109.928616
 30
0.0
 10
16.613205
 20
109.938016
 30
0.0
 10
16.628415
 20
109.945416
 30
0.0
 10
16.639225
 20
109.954516
 30
0.0
 10
16.645625
 20
109.965216
 30
0.0
 10
16.687815
 20
110.090604
 30
0.0
 10
16.792034
 20
110.393287
 30
0.0
 10
16.898369
 20
110.695232
 30
0.0
 10
16.943189
 20
110.819706
 30
0.0
 10
16.944789
 20
110.832056
 30
0.0
 10
16.941989
 20
110.845906
 30
0.0
 10
16.934689
 20
110.861166
 30
0.0
 10
16.906459
 20
110.895526
 30
0.0
 10
16.859909
 20
110.934396
 30
0.0
 10
16.662714
 20
111.077868
 30
0.0
 10
16.459906
 20
111.232104
 30
0.0
 10
16.246918
 20
111.401257
 30
0.0
 10
16.025575
 20
111.584735
 30
0.0
 10
15.794399
 20
111.784672
 30
0.0
 10
15.554028
 20
112.001535
 30
0.0
 10
15.307217
 20
112.233781
 30
0.0
 10
15.110556
 20
112.425863
 30
0.0
  0
SPLINE
  5
113
100
AcDbEntity
  8
0
 62
7
100
AcDbSpline
 70
8
 71
3
 72
8
 73
4
 74
0
 40
0
 40
0
 40
0
 40
0
 40
1
 40
1
 40
1
 40
1
 10
16.538763
 20
115.722065
 30
0.0
 10
16.663618
 20
115.980045
 30
0.0
 10
16.791056
 20
116.236767
 30
0.0
 10
16.921058
 20
116.492192
 30
0.0
  0
LWPOLYLINE
  5
114
100
AcDbEntity
  8
0
 62
7
100
AcDbPolyline
 90
31
 70
0
 10
15.427067
 20
113.225277
 30
0.0
 10
15.701916
 20
113.230677
 30
0.0
 10
16.040816
 20
113.231024
 30
0.0
 10
16.364492
 20
113.224524
 30
0.0
 10
16.669879
 20
113.212024
 30
0.0
 10
16.956829
 20
113.194254
 30
0.0
 10
17.227884
 20
113.171764
 30
0.0
 10
17.481306
 20
113.145364
 30
0.0
 10
17.723269
 20
113.114964
 30
0.0
 10
17.783809
 20
113.111464
 30
0.0
 10
17.827909
 20
113.117164
 30
0.0
 10
17.843689
 20
113.123264
 30
0.0
 10
17.855229
 20
113.131464
 30
0.0
 10
17.862529
 20
113.141594
 30
0.0
 10
17.915069
 20
113.263012
 30
0.0
 10
18.044251
 20
113.555912
 30
0.0
 10
18.175478
 20
113.847900
 30
0.0
 10
18.230558
 20
113.968188
 30
0.0
 10
18.233258
 20
113.980358
 30
0.0
 10
18.231558
 20
113.994398
 30
0.0
 10
18.225558
 20
114.010208
 30
0.0
 10
18.200308
 20
114.046818
 30
0.0
 10
18.157178
 20
114.089448
 30
0.0
 10
17.972679
 20
114.248917
 30
0.0
 10
17.783489
 20
114.419583
 30
0.0
 10
17.585402
 20
114.605965
 30
0.0
 10
17.380189
 20
114.807321
 30
0.0
 10
17.166554
 20
115.025902
 30
0.0
 10
16.945174
 20
115.262118
 30
0.0
 10
16.718663
 20
115.514202
 30
0.0
 10
16.538763
 20
115.722065
 30
0.0
  0
SPLINE
  5
115
100
AcDbEntity
  8
0
 62
7
100
AcDbSpline
 70
8
 71
3
 72
8
 73
4
 74
0
 40
0
 40
0
 40
0
 40
0
 40
1
 40
1
 40
1
 40
1
 10
18.237747
 20
118.887250
 30
0.0
 10
18.383752
 20
119.133877
 30
0.0
 10
18.532224
 20
119.379034
 30
0.0
 10
18.683143
 20
119.622685
 30
0.0
  0
LWPOLYLINE
  5
116
100
AcDbEntity
  8
0
 62
7
100
AcDbPolyline
 90
31
 70
0
 10
16.921058
 20
116.492192
 30
0.0
 10
17.195393
 20
116.474572
 30
0.0
 10
17.533134
 20
116.446562
 30
0.0
 10
17.855135
 20
116.413042
 30
0.0
 10
18.158404
 20
116.375032
 30
0.0
 10
18.442861
 20
116.333312
 30
0.0
 10
18.711084
 20
116.288222
 30
0.0
 10
18.961409
 20
116.240712
 30
0.0
 10
19.199978
 20
116.190172
 30
0.0
 10
19.260008
 20
116.181572
 30
0.0
 10
19.304438
 20
116.183572
 30
0.0
 10
19.320678
 20
116.188372
 30
0.0
 10
19.332858
 20
116.195572
 30
0.0
 10
19.340958
 20
116.205072
 30
0.0
 10
19.403468
 20
116.321668
 30
0.0
 10
19.556706
 20
116.602731
 30
0.0
 10
19.711906
 20
116.882715
 30
0.0
 10
19.776856
 20
116.997972
 30
0.0
 10
19.780556
 20
117.009872
 30
0.0
 10
19.780083
 20
117.023992
 30
0.0
 10
19.775383
 20
117.040252
 30
0.0
 10
19.753283
 20
117.078842
 30
0.0
 10
19.713873
 20
117.124932
 30
0.0
 10
19.543365
 20
117.299281
 30
0.0
 10
19.369119
 20
117.485179
 30
0.0
 10
19.187323
 20
117.687483
 30
0.0
 10
18.999679
 20
117.905305
 30
0.0
 10
18.805084
 20
118.140995
 30
0.0
 10
18.604244
 20
118.394907
 30
0.0
 10
18.399622
 20
118.665061
 30
0.0
 10
18.237747
 20
118.887250
 30
0.0
  0
SPLINE
  5
117
100
AcDbEntity
  8
0
 62
7
100
AcDbSpline
 70
8
 71
3
 72
8
 73
4
 74
0
 40
0
 40
0
 40
0
 40
0
 40
1
 40
1
 40
1
 40
1
 10
20.195589
 20
121.899134
 30
0.0
 10
20.361718
 20
122.132679
 30
0.0
 10
20.530185
 20
122.364553
 30
0.0
 10
20.700962
 20
122.594721
 30
0.0
  0
LWPOLYLINE
  5
118
100
AcDbEntity
  8
0
 62
7
100
AcDbPolyline
 90
31
 70
0
 10
18.683143
 20
119.622685
 30
0.0
 10
18.955043
 20
119.582175
 30
0.0
 10
19.289255
 20
119.525995
 30
0.0
 10
19.607322
 20
119.465645
 30
0.0
 10
19.906346
 20
119.402385
 30
0.0
 10
20.186315
 20
119.337005
 30
0.0
 10
20.449823
 20
119.269625
 30
0.0
 10
20.695294
 20
119.201335
 30
0.0
 10
20.928797
 20
119.131006
 30
0.0
 10
20.987897
 20
119.117436
 30
0.0
 10
21.032337
 20
119.115736
 30
0.0
 10
21.048917
 20
119.119136
 30
0.0
 10
21.061657
 20
119.125236
 30
0.0
 10
21.070457
 20
119.134036
 30
0.0
 10
21.142507
 20
119.244992
 30
0.0
 10
21.318726
 20
119.512246
 30
0.0
 10
21.496810
 20
119.778261
 30
0.0
 10
21.571180
 20
119.887679
 30
0.0
 10
21.575880
 20
119.899229
 30
0.0
 10
21.576590
 20
119.913349
 30
0.0
 10
21.573290
 20
119.929949
 30
0.0
 10
21.554490
 20
119.970259
 30
0.0
 10
21.519070
 20
120.019479
 30
0.0
 10
21.363749
 20
120.207483
 30
0.0
 10
21.205670
 20
120.407310
 30
0.0
 10
21.041440
 20
120.624117
 30
0.0
 10
20.872681
 20
120.856876
 30
0.0
 10
20.698490
 20
121.108023
 30
0.0
 10
20.519602
 20
121.377851
 30
0.0
 10
20.338303
 20
121.664180
 30
0.0
 10
20.195589
 20
121.899134
 30
0.0
  0
SPLINE
  5
119
100
AcDbEntity
  8
0
 62
7
100
AcDbSpline
 70
8
 71
3
 72
8
 73
4
 74
0
 40
0
 40
0
 40
0
 40
0
 40
1
 40
1
 40
1
 40
1
 10
22.398538
 20
124.736622
 30
0.0
 10
22.583628
 20
124.955447
 30
0.0
 10
22.770906
 20
125.172411
 30
0.0
 10
22.960345
 20
125.387481
 30
0.0
  0
LWPOLYLINE
  5
11a
100
AcDbEntity
  8
0
 62
7
100
AcDbPolyline
 90
31
 70
0
 10
20.700962
 20
122.594721
 30
0.0
 10
20.968518
 20
122.531601
 30
0.0
 10
21.296858
 20
122.447661
 30
0.0
 10
21.608758
 20
122.360911
 30
0.0
 10
21.901441
 20
122.272851
 30
0.0
 10
22.174958
 20
122.184282
 30
0.0
 10
22.431904
 20
122.095082
 30
0.0
 10
22.670799
 20
122.006492
 30
0.0
 10
22.897599
 20
121.916872
 30
0.0
 10
22.955359
 20
121.898402
 30
0.0
 10
22.999499
 20
121.893002
 30
0.0
 10
23.016299
 20
121.895002
 30
0.0
 10
23.029499
 20
121.900002
 30
0.0
 10
23.038999
 20
121.908002
 30
0.0
 10
23.120079
 20
122.012540
 30
0.0
 10
23.318043
 20
122.264111
 30
0.0
 10
23.517762
 20
122.514291
 30
0.0
 10
23.601022
 20
122.617103
 30
0.0
 10
23.606622
 20
122.628223
 30
0.0
 10
23.608522
 20
122.642233
 30
0.0
 10
23.606622
 20
122.659053
 30
0.0
 10
23.591262
 20
122.700793
 30
0.0
 10
23.560092
 20
122.752813
 30
0.0
 10
23.421048
 20
122.953155
 30
0.0
 10
23.280245
 20
123.165508
 30
0.0
 10
23.134733
 20
123.395298
 30
0.0
 10
22.986042
 20
123.641362
 30
0.0
 10
22.833478
 20
123.906204
 30
0.0
 10
22.677795
 20
124.190054
 30
0.0
 10
22.521091
 20
124.490550
 30
0.0
 10
22.398538
 20
124.736622
 30
0.0
  0
SPLINE
  5
11b
100
AcDbEntity
  8
0
 62
7
100
AcDbSpline
 70
8
 71
3
 72
8
 73
4
 74
0
 40
0
 40
0
 40
0
 40
0
 40
1
 40
1
 40
1
 40
1
 10
24.831277
 20
127.379805
 30
0.0
 10
25.034028
 20
127.582374
 30
0.0
 10
25.238805
 20
127.782906
 30
0.0
 10
25.445576
 20
127.981371
 30
0.0
  0
LWPOLYLINE
  5
11c
100
AcDbEntity
  8
0
 62
7
100
AcDbPolyline
 90
31
 70
0
 10
22.960345
 20
125.387481
 30
0.0
 10
23.221680
 20
125.302192
 30
0.0
 10
23.541843
 20
125.191066
 30
0.0
 10
23.845391
 20
125.078520
 30
0.0
 10
24.129679
 20
124.966281
 30
0.0
 10
24.394824
 20
124.855131
 30
0.0
 10
24.643406
 20
124.744749
 30
0.0
 10
24.874050
 20
124.636476
 30
0.0
 10
25.092555
 20
124.528191
 30
0.0
 10
25.148565
 20
124.504951
 30
0.0
 10
25.192095
 20
124.495851
 30
0.0
 10
25.209005
 20
124.496432
 30
0.0
 10
25.222585
 20
124.500332
 30
0.0
 10
25.232765
 20
124.507532
 30
0.0
 10
25.322315
 20
124.604922
 30
0.0
 10
25.540636
 20
124.839046
 30
0.0
 10
25.760589
 20
125.071637
 30
0.0
 10
25.852159
 20
125.167117
 30
0.0
 10
25.858659
 20
125.177727
 30
0.0
 10
25.861759
 20
125.191527
 30
0.0
 10
25.861277
 20
125.208447
 30
0.0
 10
25.849467
 20
125.251317
 30
0.0
 10
25.822757
 20
125.305757
 30
0.0
 10
25.700965
 20
125.517031
 30
0.0
 10
25.578424
 20
125.740422
 30
0.0
 10
25.452651
 20
125.981581
 30
0.0
 10
25.325072
 20
126.239225
 30
0.0
 10
25.195204
 20
126.515904
 30
0.0
 10
25.063819
 20
126.811786
 30
0.0
 10
24.932810
 20
127.124340
 30
0.0
 10
24.831277
 20
127.379805
 30
0.0
  0
SPLINE
  5
11d
100
AcDbEntity
  8
0
 62
7
100
AcDbSpline
 70
8
 71
3
 72
8
 73
4
 74
0
 40
0
 40
0
 40
0
 40
0
 40
1
 40
1
 40
1
 40
1
 10
27.476639
 20
129.810180
 30
0.0
 10
27.695630
 20
129.995073
 30
0.0
 10
27.916468
 20
130.177767
 30
0.0
 10
28.139121
 20
130.358233
 30
0.0
  0
LWPOLYLINE
  5
11e
100
AcDbEntity
  8
0
 62
7
100
AcDbPolyline
 90
31
 70
0
 10
25.445576
 20
127.981371
 30
0.0
 10
25.698858
 20
127.874510
 30
0.0
 10
26.008600
 20
127.736983
 30
0.0
 10
26.301665
 20
127.599432
 30
0.0
 10
26.575564
 20
127.463798
 30
0.0
 10
26.830478
 20
127.330851
 30
0.0
 10
27.068951
 20
127.200055
 30
0.0
 10
27.289727
 20
127.072862
 30
0.0
 10
27.498404
 20
126.946672
 30
0.0
 10
27.552274
 20
126.918822
 30
0.0
 10
27.594894
 20
126.906112
 30
0.0
 10
27.611794
 20
126.905276
 30
0.0
 10
27.625654
 20
126.908076
 30
0.0
 10
27.636404
 20
126.914376
 30
0.0
 10
27.733784
 20
127.003926
 30
0.0
 10
27.970930
 20
127.218961
 30
0.0
 10
28.209575
 20
127.432331
 30
0.0
 10
28.308815
 20
127.519821
 30
0.0
 10
28.316215
 20
127.529851
 30
0.0
 10
28.320415
 20
127.543341
 30
0.0
 10
28.321350
 20
127.560241
 30
0.0
 10
28.313150
 20
127.603951
 30
0.0
 10
28.291090
 20
127.660441
 30
0.0
 10
28.187404
 20
127.881167
 30
0.0
 10
28.083986
 20
128.114028
 30
0.0
 10
27.978833
 20
128.364866
 30
0.0
 10
27.873261
 20
128.632280
 30
0.0
 10
27.767000
 20
128.918856
 30
0.0
 10
27.660836
 20
129.224695
 30
0.0
 10
27.556439
 20
129.547115
 30
0.0
 10
27.476639
 20
129.810180
 30
0.0
  0
SPLINE
  5
11f
100
AcDbEntity
  8
0
 62
7
100
AcDbSpline
 70
8
 71
3
 72
8
 73
4
 74
0
 40
0
 40
0
 40
0
 40
0
 40
1
 40
1
 40
1
 40
1
 10
30.316025
 20
132.010727
 30
0.0
 10
30.549720
 20
132.176647
 30
0.0
 10
30.785071
 20
132.340221
 30
0.0
 10
31.022044
 20
132.501423
 30
0.0
  0
LWPOLYLINE
  5
120
100
AcDbEntity
  8
0
 62
7
100
AcDbPolyline
 90
31
 70
0
 10
28.139121
 20
130.358233
 30
0.0
 10
28.382573
 20
130.230554
 30
0.0
 10
28.679721
 20
130.067591
 30
0.0
 10
28.960249
 20
129.905998
 30
0.0
 10
29.221838
 20
129.747921
 30
0.0
 10
29.464734
 20
129.594110
 30
0.0
 10
29.691425
 20
129.443817
 30
0.0
 10
29.900783
 20
129.298597
 30
0.0
 10
30.098169
 20
129.155388
 30
0.0
 10
30.149519
 20
129.123128
 30
0.0
 10
30.190929
 20
129.106898
 30
0.0
 10
30.207699
 20
129.104698
 30
0.0
 10
30.221739
 20
129.106298
 30
0.0
 10
30.232979
 20
129.111698
 30
0.0
 10
30.337511
 20
129.192788
 30
0.0
 10
30.591819
 20
129.387225
 30
0.0
 10
30.847481
 20
129.579877
 30
0.0
 10
30.953695
 20
129.658747
 30
0.0
 10
30.961895
 20
129.668147
 30
0.0
 10
30.967195
 20
129.681247
 30
0.0
 10
30.969495
 20
129.698007
 30
0.0
 10
30.964995
 20
129.742247
 30
0.0
 10
30.947735
 20
129.800377
 30
0.0
 10
30.862885
 20
130.029003
 30
0.0
 10
30.779315
 20
130.269702
 30
0.0
 10
30.695525
 20
130.528460
 30
0.0
 10
30.612695
 20
130.803771
 30
0.0
 10
30.530785
 20
131.098234
 30
0.0
 10
30.450585
 20
131.411883
 30
0.0
 10
30.373535
 20
131.741908
 30
0.0
 10
30.316025
 20
132.010727
 30
0.0
  0
SPLINE
  5
121
100
AcDbEntity
  8
0
 62
7
100
AcDbSpline
 70
8
 71
3
 72
8
 73
4
 74
0
 40
0
 40
0
 40
0
 40
0
 40
1
 40
1
 40
1
 40
1
 10
33.329667
 20
133.965938
 30
0.0
 10
33.576426
 20
134.111721
 30
0.0
 10
33.824639
 20
134.255027
 30
0.0
 10
34.074270
 20
134.395835
 30
0.0
  0
LWPOLYLINE
  5
122
100
AcDbEntity
  8
0
 62
7
100
AcDbPolyline
 90
31
 70
0
 10
31.022044
 20
132.501423
 30
0.0
 10
31.253958
 20
132.353819
 30
0.0
 10
31.536427
 20
132.166563
 30
0.0
 10
31.802449
 20
131.982063
 30
0.0
 10
32.049893
 20
131.802651
 30
0.0
 10
32.279067
 20
131.629054
 30
0.0
 10
32.492387
 20
131.460321
 30
0.0
 10
32.688858
 20
131.298091
 30
0.0
 10
32.873569
 20
131.138868
 30
0.0
 10
32.922039
 20
131.102428
 30
0.0
 10
32.961939
 20
131.082788
 30
0.0
 10
32.978459
 20
131.079188
 30
0.0
 10
32.992589
 20
131.079602
 30
0.0
 10
33.004239
 20
131.084002
 30
0.0
 10
33.115190
 20
131.156062
 30
0.0
 10
33.384876
 20
131.328536
 30
0.0
 10
33.655763
 20
131.499120
 30
0.0
 10
33.768204
 20
131.568830
 30
0.0
 10
33.777204
 20
131.577530
 30
0.0
 10
33.783604
 20
131.590139
 30
0.0
 10
33.787304
 20
131.606639
 30
0.0
 10
33.786527
 20
131.651109
 30
0.0
 10
33.774197
 20
131.710479
 30
0.0
 10
33.708777
 20
131.945404
 30
0.0
 10
33.645637
 20
132.192251
 30
0.0
 10
33.583787
 20
132.457113
 30
0.0
 10
33.524287
 20
132.738390
 30
0.0
 10
33.467307
 20
133.038674
 30
0.0
 10
33.413637
 20
133.357934
 30
0.0
 10
33.364477
 20
133.693249
 30
0.0
 10
33.329667
 20
133.965938
 30
0.0
  0
SPLINE
  5
123
100
AcDbEntity
  8
0
 62
7
100
AcDbSpline
 70
8
 71
3
 72
8
 73
4
 74
0
 40
0
 40
0
 40
0
 40
0
 40
1
 40
1
 40
1
 40
1
 10
36.496210
 20
135.662063
 30
0.0
 10
36.754302
 20
135.786687
 30
0.0
 10
37.013636
 20
135.908720
 30
0.0
 10
37.274174
 20
136.028145
 30
0.0
  0
LWPOLYLINE
  5
124
100
AcDbEntity
  8
0
 62
7
100
AcDbPolyline
 90
31
 70
0
 10
34.074270
 20
134.395835
 30
0.0
 10
34.293019
 20
134.229343
 30
0.0
 10
34.558829
 20
134.019107
 30
0.0
 10
34.808479
 20
133.812994
 30
0.0
 10
35.040043
 20
133.613506
 30
0.0
 10
35.253886
 20
133.421340
 30
0.0
 10
35.452339
 20
133.235347
 30
0.0
 10
35.634548
 20
133.057246
 30
0.0
 10
35.805286
 20
132.883125
 30
0.0
 10
35.850536
 20
132.842755
 30
0.0
 10
35.888656
 20
132.819845
 30
0.0
 10
35.904816
 20
132.814845
 30
0.0
 10
35.918926
 20
132.814076
 30
0.0
 10
35.930896
 20
132.817476
 30
0.0
 10
36.047488
 20
132.879996
 30
0.0
 10
36.330660
 20
133.029299
 30
0.0
 10
36.614871
 20
133.176617
 30
0.0
 10
36.732750
 20
133.236677
 30
0.0
 10
36.742350
 20
133.244577
 30
0.0
 10
36.749750
 20
133.256607
 30
0.0
 10
36.754850
 20
133.272737
 30
0.0
 10
36.757750
 20
133.317117
 30
0.0
 10
36.750450
 20
133.377317
 30
0.0
 10
36.704910
 20
133.616893
 30
0.0
 10
36.662650
 20
133.868158
 30
0.0
 10
36.623180
 20
134.137266
 30
0.0
 10
36.587430
 20
134.422534
 30
0.0
 10
36.555780
 20
134.726532
 30
0.0
 10
36.529010
 20
135.049164
 30
0.0
 10
36.508080
 20
135.387418
 30
0.0
 10
36.496210
 20
135.662063
 30
0.0
  0
SPLINE
  5
125
100
AcDbEntity
  8
0
 62
7
100
AcDbSpline
 70
8
 71
3
 72
8
 73
4
 74
0
 40
0
 40
0
 40
0
 40
0
 40
1
 40
1
 40
1
 40
1
 10
39.793509
 20
137.087285
 30
0.0
 10
40.061124
 20
137.189875
 30
0.0
 10
40.329760
 20
137.289780
 30
0.0
 10
40.599378
 20
137.386985
 30
0.0
  0
LWPOLYLINE
  5
126
100
AcDbEntity
  8
0
 62
7
100
AcDbPolyline
 90
31
 70
0
 10
37.274174
 20
136.028145
 30
0.0
 10
37.478225
 20
135.843932
 30
0.0
 10
37.725510
 20
135.612192
 30
0.0
 10
37.957038
 20
135.385912
 30
0.0
 10
38.171096
 20
135.167746
 30
0.0
 10
38.368110
 20
134.958361
 30
0.0
 10
38.550304
 20
134.756415
 30
0.0
 10
38.716970
 20
134.563692
 30
0.0
 10
38.872540
 20
134.375894
 30
0.0
 10
38.914259
 20
134.331884
 30
0.0
 10
38.950329
 20
134.305864
 30
0.0
 10
38.966019
 20
134.299564
 30
0.0
 10
38.980019
 20
134.297664
 30
0.0
 10
38.992239
 20
134.300064
 30
0.0
 10
39.113653
 20
134.352614
 30
0.0
 10
39.408326
 20
134.477698
 30
0.0
 10
39.703867
 20
134.600717
 30
0.0
 10
39.826359
 20
134.650697
 30
0.0
 10
39.836629
 20
134.657697
 30
0.0
 10
39.845029
 20
134.669057
 30
0.0
 10
39.851429
 20
134.684707
 30
0.0
 10
39.858029
 20
134.728676
 30
0.0
 10
39.855729
 20
134.789276
 30
0.0
 10
39.830399
 20
135.031822
 30
0.0
 10
39.809309
 20
135.285742
 30
0.0
 10
39.792499
 20
135.557209
 30
0.0
 10
39.780739
 20
135.844468
 30
0.0
 10
39.774639
 20
136.150050
 30
0.0
 10
39.774959
 20
136.473790
 30
0.0
 10
39.782359
 20
136.812609
 30
0.0
 10
39.793509
 20
137.087285
 30
0.0
  0
SPLINE
  5
127
100
AcDbEntity
  8
0
 62
7
100
AcDbSpline
 70
8
 71
3
 72
8
 73
4
 74
0
 40
0
 40
0
 40
0
 40
0
 40
1
 40
1
 40
1
 40
1
 10
43.198711
 20
138.231661
 30
0.0
 10
43.473972
 20
138.311498
 30
0.0
 10
43.750026
 20
138.388573
 30
0.0
 10
44.026832
 20
138.462876
 30
0.0
  0
LWPOLYLINE
  5
128
100
AcDbEntity
  8
0
 62
7
100
AcDbPolyline
 90
31
 70
0
 10
40.599378
 20
137.386985
 30
0.0
 10
40.787298
 20
137.186343
 30
0.0
 10
41.014325
 20
136.934723
 30
0.0
 10
41.226106
 20
136.689863
 30
0.0
 10
41.421158
 20
136.454550
 30
0.0
 10
41.599960
 20
136.229414
 30
0.0
 10
41.764616
 20
136.012930
 30
0.0
 10
41.914571
 20
135.806937
 30
0.0
 10
42.053880
 20
135.606780
 30
0.0
 10
42.091770
 20
135.559430
 30
0.0
 10
42.125540
 20
135.530490
 30
0.0
 10
42.140640
 20
135.522890
 30
0.0
 10
42.154430
 20
135.519790
 30
0.0
 10
42.166810
 20
135.521190
 30
0.0
 10
42.292196
 20
135.563390
 30
0.0
 10
42.596302
 20
135.663380
 30
0.0
 10
42.901100
 20
135.761240
 30
0.0
 10
43.027345
 20
135.800800
 30
0.0
 10
43.038175
 20
135.807000
 30
0.0
 10
43.047475
 20
135.817620
 30
0.0
 10
43.055175
 20
135.832670
 30
0.0
 10
43.065485
 20
135.875930
 30
0.0
 10
43.068285
 20
135.936510
 30
0.0
 10
43.063385
 20
136.180325
 30
0.0
 10
43.063621
 20
136.435118
 30
0.0
 10
43.069621
 20
136.707040
 30
0.0
 10
43.081941
 20
136.994276
 30
0.0
 10
43.101431
 20
137.299297
 30
0.0
 10
43.128841
 20
137.621875
 30
0.0
 10
43.164611
 20
137.958881
 30
0.0
 10
43.198711
 20
138.231661
 30
0.0
  0
SPLINE
  5
129
100
AcDbEntity
  8
0
 62
7
100
AcDbSpline
 70
8
 71
3
 72
8
 73
4
 74
0
 40
0
 40
0
 40
0
 40
0
 40
1
 40
1
 40
1
 40
1
 10
46.687685
 20
139.086872
 30
0.0
 10
46.968661
 20
139.143396
 30
0.0
 10
47.250197
 20
139.197102
 30
0.0
 10
47.532249
 20
139.247982
 30
0.0
  0
LWPOLYLINE
  5
12a
100
AcDbEntity
  8
0
 62
7
100
AcDbPolyline
 90
31
 70
0
 10
44.026832
 20
138.462876
 30
0.0
 10
44.197304
 20
138.247214
 30
0.0
 10
44.402479
 20
137.977479
 30
0.0
 10
44.593028
 20
137.715757
 30
0.0
 10
44.767706
 20
137.464948
 30
0.0
 10
44.927042
 20
137.225640
 30
0.0
 10
45.073006
 20
136.996137
 30
0.0
 10
45.205197
 20
136.778318
 30
0.0
 10
45.327270
 20
136.567206
 30
0.0
 10
45.361061
 20
136.516856
 30
0.0
 10
45.392287
 20
136.485186
 30
0.0
 10
45.406694
 20
136.476286
 30
0.0
 10
45.420172
 20
136.471986
 30
0.0
 10
45.432623
 20
136.472328
 30
0.0
 10
45.561100
 20
136.503888
 30
0.0
 10
45.872507
 20
136.578078
 30
0.0
 10
46.184424
 20
136.650088
 30
0.0
 10
46.313536
 20
136.678948
 30
0.0
 10
46.324840
 20
136.684148
 30
0.0
 10
46.335020
 20
136.693948
 30
0.0
 10
46.343980
 20
136.708298
 30
0.0
 10
46.357870
 20
136.750548
 30
0.0
 10
46.365750
 20
136.810678
 30
0.0
 10
46.381224
 20
137.054051
 30
0.0
 10
46.402780
 20
137.307931
 30
0.0
 10
46.431476
 20
137.578400
 30
0.0
 10
46.467790
 20
137.863597
 30
0.0
 10
46.512732
 20
138.165917
 30
0.0
 10
46.567038
 20
138.485070
 30
0.0
 10
46.630882
 20
138.817903
 30
0.0
 10
46.687685
 20
139.086872
 30
0.0
  0
SPLINE
  5
12b
100
AcDbEntity
  8
0
 62
7
100
AcDbSpline
 70
8
 71
3
 72
8
 73
4
 74
0
 40
0
 40
0
 40
0
 40
0
 40
1
 40
1
 40
1
 40
1
 10
50.235992
 20
139.647234
 30
0.0
 10
50.520712
 20
139.680047
 30
0.0
 10
50.805754
 20
139.710005
 30
0.0
 10
51.091075
 20
139.737104
 30
0.0
  0
LWPOLYLINE
  5
12c
100
AcDbEntity
  8
0
 62
7
100
AcDbPolyline
 90
31
 70
0
 10
47.532249
 20
139.247982
 30
0.0
 10
47.684077
 20
139.018811
 30
0.0
 10
47.865962
 20
138.732853
 30
0.0
 10
48.033942
 20
138.456104
 30
0.0
 10
48.187020
 20
138.191558
 30
0.0
 10
48.325773
 20
137.939756
 30
0.0
 10
48.452020
 20
137.698845
 30
0.0
 10
48.565521
 20
137.470729
 30
0.0
 10
48.669501
 20
137.250142
 30
0.0
 10
48.698960
 20
137.197142
 30
0.0
 10
48.727427
 20
137.162972
 30
0.0
 10
48.741041
 20
137.152922
 30
0.0
 10
48.754115
 20
137.147522
 30
0.0
 10
48.766551
 20
137.146821
 30
0.0
 10
48.897219
 20
137.167521
 30
0.0
 10
49.213741
 20
137.215391
 30
0.0
 10
49.530590
 20
137.261051
 30
0.0
 10
49.661664
 20
137.279001
 30
0.0
 10
49.673366
 20
137.283301
 30
0.0
 10
49.684331
 20
137.292201
 30
0.0
 10
49.694460
 20
137.305761
 30
0.0
 10
49.711836
 20
137.346701
 30
0.0
 10
49.724718
 20
137.405961
 30
0.0
 10
49.760503
 20
137.647186
 30
0.0
 10
49.803227
 20
137.898371
 30
0.0
 10
49.854455
 20
138.165490
 30
0.0
 10
49.914507
 20
138.446649
 30
0.0
 10
49.984589
 20
138.744148
 30
0.0
 10
50.065411
 20
139.057638
 30
0.0
 10
50.156882
 20
139.383961
 30
0.0
 10
50.235992
 20
139.647234
 30
0.0
  0
SPLINE
  5
12d
100
AcDbEntity
  8
0
 62
7
100
AcDbSpline
 70
8
 71
3
 72
8
 73
4
 74
0
 40
0
 40
0
 40
0
 40
0
 40
1
 40
1
 40
1
 40
1
 10
53.818743
 20
139.908838
 30
0.0
 10
54.105211
 20
139.917713
 30
0.0
 10
54.391760
 20
139.923717
 30
0.0
 10
54.678348
 20
139.926848
 30
0.0
  0
LWPOLYLINE
  5
12e
100
AcDbEntity
  8
0
 62
7
100
AcDbPolyline
 90
31
 70
0
 10
51.091075
 20
139.737104
 30
0.0
 10
51.223194
 20
139.496032
 30
0.0
 10
51.380513
 20
139.195858
 30
0.0
 10
51.524746
 20
138.906022
 30
0.0
 10
51.655150
 20
138.629595
 30
0.0
 10
51.772346
 20
138.367066
 30
0.0
 10
51.877992
 20
138.116435
 30
0.0
 10
51.972007
 20
137.879621
 30
0.0
 10
52.057164
 20
137.651108
 30
0.0
 10
52.082085
 20
137.595818
 30
0.0
 10
52.107593
 20
137.559388
 30
0.0
 10
52.120318
 20
137.548238
 30
0.0
 10
52.132897
 20
137.541838
 30
0.0
 10
52.145230
 20
137.540138
 30
0.0
 10
52.277171
 20
137.549838
 30
0.0
 10
52.596589
 20
137.571058
 30
0.0
 10
52.916148
 20
137.590038
 30
0.0
 10
53.048264
 20
137.596938
 30
0.0
 10
53.060282
 20
137.600238
 30
0.0
 10
53.071955
 20
137.608238
 30
0.0
 10
53.083182
 20
137.620898
 30
0.0
 10
53.103923
 20
137.660238
 30
0.0
 10
53.121718
 20
137.718208
 30
0.0
 10
53.177563
 20
137.955592
 30
0.0
 10
53.241156
 20
138.202322
 30
0.0
 10
53.314556
 20
138.464217
 30
0.0
 10
53.397924
 20
138.739365
 30
0.0
 10
53.492654
 20
139.029957
 30
0.0
 10
53.599424
 20
139.335584
 30
0.0
 10
53.717880
 20
139.653108
 30
0.0
 10
53.818743
 20
139.908838
 30
0.0
  0
SPLINE
  5
12f
100
AcDbEntity
  8
0
 62
7
100
AcDbSpline
 70
8
 71
3
 72
8
 73
4
 74
0
 40
0
 40
0
 40
0
 40
0
 40
1
 40
1
 40
1
 40
1
 10
57.410812
 20
139.869580
 30
0.0
 10
57.697017
 20
139.854451
 30
0.0
 10
57.983064
 20
139.836453
 30
0.0
 10
58.268908
 20
139.815590
 30
0.0
  0
LWPOLYLINE
  5
130
100
AcDbEntity
  8
0
 62
7
100
AcDbPolyline
 90
31
 70
0
 10
54.678348
 20
139.926848
 30
0.0
 10
54.789831
 20
139.675566
 30
0.0
 10
54.921480
 20
139.363281
 30
0.0
 10
55.040955
 20
139.062393
 30
0.0
 10
55.147771
 20
138.776023
 30
0.0
 10
55.242588
 20
138.504608
 30
0.0
 10
55.326890
 20
138.246016
 30
0.0
 10
55.400760
 20
138.002165
 30
0.0
 10
55.466496
 20
137.767328
 30
0.0
 10
55.486703
 20
137.710148
 30
0.0
 10
55.509073
 20
137.671708
 30
0.0
 10
55.520821
 20
137.659528
 30
0.0
 10
55.532817
 20
137.652028
 30
0.0
 10
55.544962
 20
137.649228
 30
0.0
 10
55.677252
 20
137.647828
 30
0.0
 10
55.997325
 20
137.642228
 30
0.0
 10
56.317351
 20
137.634428
 30
0.0
 10
56.449583
 20
137.630228
 30
0.0
 10
56.461833
 20
137.632528
 30
0.0
 10
56.474132
 20
137.639528
 30
0.0
 10
56.486379
 20
137.651208
 30
0.0
 10
56.510339
 20
137.688678
 30
0.0
 10
56.532923
 20
137.744958
 30
0.0
 10
56.608436
 20
137.976837
 30
0.0
 10
56.692452
 20
138.217380
 30
0.0
 10
56.787510
 20
138.472215
 30
0.0
 10
56.893609
 20
138.739422
 30
0.0
 10
57.012323
 20
139.021068
 30
0.0
 10
57.144293
 20
139.316689
 30
0.0
 10
57.288904
 20
139.623187
 30
0.0
 10
57.410812
 20
139.869580
 30
0.0
  0
SPLINE
  5
131
100
AcDbEntity
  8
0
 62
7
100
AcDbSpline
 70
8
 71
3
 72
8
 73
4
 74
0
 40
0
 40
0
 40
0
 40
0
 40
1
 40
1
 40
1
 40
1
 10
60.986999
 20
139.529893
 30
0.0
 10
61.270935
 20
139.490869
 30
0.0
 10
61.554472
 20
139.449000
 30
0.0
 10
61.837569
 20
139.404292
 30
0.0
  0
LWPOLYLINE
  5
132
100
AcDbEntity
  8
0
 62
7
100
AcDbPolyline
 90
31
 70
0
 10
58.268908
 20
139.815590
 30
0.0
 10
58.358974
 20
139.555861
 30
0.0
 10
58.464030
 20
139.233655
 30
0.0
 10
58.557908
 20
138.923825
 30
0.0
 10
58.640387
 20
138.629521
 30
0.0
 10
58.712160
 20
138.351124
 30
0.0
 10
58.774529
 20
138.086384
 30
0.0
 10
58.827734
 20
137.837207
 30
0.0
 10
58.873589
 20
137.597693
 30
0.0
 10
58.888941
 20
137.539023
 30
0.0
 10
58.908016
 20
137.498853
 30
0.0
 10
58.918703
 20
137.485733
 30
0.0
 10
58.930032
 20
137.477333
 30
0.0
 10
58.941903
 20
137.473533
 30
0.0
 10
59.073614
 20
137.461093
 30
0.0
 10
59.392097
 20
137.428743
 30
0.0
 10
59.710346
 20
137.394163
 30
0.0
 10
59.841766
 20
137.378953
 30
0.0
 10
59.854162
 20
137.380153
 30
0.0
 10
59.867000
 20
137.386053
 30
0.0
 10
59.880181
 20
137.396663
 30
0.0
 10
59.907192
 20
137.431993
 30
0.0
 10
59.934406
 20
137.486183
 30
0.0
 10
60.029057
 20
137.710930
 30
0.0
 10
60.132906
 20
137.943599
 30
0.0
 10
60.248955
 20
138.189586
 30
0.0
 10
60.377041
 20
138.446977
 30
0.0
 10
60.518906
 20
138.717701
 30
0.0
 10
60.675150
 20
139.001243
 30
0.0
 10
60.844901
 20
139.294566
 30
0.0
 10
60.986999
 20
139.529893
 30
0.0
  0
SPLINE
  5
133
100
AcDbEntity
  8
0
 62
7
100
AcDbSpline
 70
8
 71
3
 72
8
 73
4
 74
0
 40
0
 40
0
 40
0
 40
0
 40
1
 40
1
 40
1
 40
1
 10
64.522219
 20
138.892119
 30
0.0
 10
64.801894
 20
138.829473
 30
0.0
 10
65.080933
 20
138.764025
 30
0.0
 10
65.359296
 20
138.695785
 30
0.0
  0
LWPOLYLINE
  5
134
100
AcDbEntity
  8
0
 62
7
100
AcDbPolyline
 90
31
 70
0
 10
61.837569
 20
139.404292
 30
0.0
 10
61.905585
 20
139.137938
 30
0.0
 10
61.983311
 20
138.808070
 30
0.0
 10
62.050934
 20
138.491471
 30
0.0
 10
62.108497
 20
138.191298
 30
0.0
 10
62.156722
 20
137.907871
 30
0.0
 10
62.196719
 20
137.638842
 30
0.0
 10
62.228887
 20
137.386088
 30
0.0
 10
62.254539
 20
137.143575
 30
0.0
 10
62.264928
 20
137.083835
 30
0.0
 10
62.280575
 20
137.042205
 30
0.0
 10
62.290125
 20
137.028235
 30
0.0
 10
62.300707
 20
137.018835
 30
0.0
 10
62.312221
 20
137.014035
 30
0.0
 10
62.442428
 20
136.990615
 30
0.0
 10
62.757087
 20
136.931735
 30
0.0
 10
63.071327
 20
136.870655
 30
0.0
 10
63.201013
 20
136.844505
 30
0.0
 10
63.213467
 20
136.844685
 30
0.0
 10
63.226755
 20
136.849485
 30
0.0
 10
63.240778
 20
136.858985
 30
0.0
 10
63.270651
 20
136.891935
 30
0.0
 10
63.302304
 20
136.943655
 30
0.0
 10
63.415430
 20
137.159694
 30
0.0
 10
63.538384
 20
137.382858
 30
0.0
 10
63.674609
 20
137.618271
 30
0.0
 10
63.823784
 20
137.864041
 30
0.0
 10
63.987806
 20
138.121945
 30
0.0
 10
64.167228
 20
138.391417
 30
0.0
 10
64.360928
 20
138.669507
 30
0.0
 10
64.522219
 20
138.892119
 30
0.0
  0
SPLINE
  5
135
100
AcDbEntity
  8
0
 62
7
100
AcDbSpline
 70
8
 71
3
 72
8
 73
4
 74
0
 40
0
 40
0
 40
0
 40
0
 40
1
 40
1
 40
1
 40
1
 10
67.991844
 20
137.960872
 30
0.0
 10
68.265296
 20
137.875043
 30
0.0
 10
68.537880
 20
137.786475
 30
0.0
 10
68.809556
 20
137.695182
 30
0.0
  0
LWPOLYLINE
  5
136
100
AcDbEntity
  8
0
 62
7
100
AcDbPolyline
 90
31
 70
0
 10
65.359296
 20
138.695785
 30
0.0
 10
65.404786
 20
138.424673
 30
0.0
 10
65.454636
 20
138.089458
 30
0.0
 10
65.495526
 20
137.768312
 30
0.0
 10
65.527766
 20
137.464375
 30
0.0
 10
65.552106
 20
137.177907
 30
0.0
 10
65.569446
 20
136.906474
 30
0.0
 10
65.580356
 20
136.651914
 30
0.0
 10
65.585656
 20
136.408105
 30
0.0
 10
65.591056
 20
136.347705
 30
0.0
 10
65.603166
 20
136.304915
 30
0.0
 10
65.611566
 20
136.290195
 30
0.0
 10
65.621366
 20
136.279975
 30
0.0
 10
65.632436
 20
136.274275
 30
0.0
 10
65.760227
 20
136.240035
 30
0.0
 10
66.068856
 20
136.155025
 30
0.0
 10
66.376882
 20
136.067865
 30
0.0
 10
66.503925
 20
136.030955
 30
0.0
 10
66.516355
 20
136.030091
 30
0.0
 10
66.529995
 20
136.033791
 30
0.0
 10
66.544765
 20
136.042091
 30
0.0
 10
66.577295
 20
136.072421
 30
0.0
 10
66.613165
 20
136.121321
 30
0.0
 10
66.743971
 20
136.327137
 30
0.0
 10
66.885167
 20
136.539229
 30
0.0
 10
67.040614
 20
136.762418
 30
0.0
 10
67.209831
 20
136.994844
 30
0.0
 10
67.394858
 20
137.238118
 30
0.0
 10
67.596200
 20
137.491632
 30
0.0
 10
67.812491
 20
137.752538
 30
0.0
 10
67.991844
 20
137.960872
 30
0.0
  0
SPLINE
  5
137
100
AcDbEntity
  8
0
 62
7
100
AcDbSpline
 70
8
 71
3
 72
8
 73
4
 74
0
 40
0
 40
0
 40
0
 40
0
 40
1
 40
1
 40
1
 40
1
 10
71.371314
 20
136.742471
 30
0.0
 10
71.636624
 20
136.634061
 30
0.0
 10
71.900842
 20
136.522994
 30
0.0
 10
72.163926
 20
136.409288
 30
0.0
  0
LWPOLYLINE
  5
138
100
AcDbEntity
  8
0
 62
7
100
AcDbPolyline
 90
31
 70
0
 10
68.809556
 20
137.695182
 30
0.0
 10
68.832196
 20
137.421215
 30
0.0
 10
68.853826
 20
137.083005
 30
0.0
 10
68.867706
 20
136.759562
 30
0.0
 10
68.874406
 20
136.453992
 30
0.0
 10
68.874689
 20
136.166492
 30
0.0
 10
68.869289
 20
135.894559
 30
0.0
 10
68.858859
 20
135.639980
 30
0.0
 10
68.843709
 20
135.396586
 30
0.0
 10
68.843989
 20
135.335946
 30
0.0
 10
68.852489
 20
135.292286
 30
0.0
 10
68.859589
 20
135.276916
 30
0.0
 10
68.868489
 20
135.265916
 30
0.0
 10
68.879049
 20
135.259316
 30
0.0
 10
69.003526
 20
135.214506
 30
0.0
 10
69.303960
 20
135.103971
 30
0.0
 10
69.603612
 20
134.991336
 30
0.0
 10
69.727120
 20
134.943916
 30
0.0
 10
69.739430
 20
134.942016
 30
0.0
 10
69.753340
 20
134.944516
 30
0.0
 10
69.768750
 20
134.951516
 30
0.0
 10
69.803700
 20
134.979016
 30
0.0
 10
69.843540
 20
135.024736
 30
0.0
 10
69.991109
 20
135.218884
 30
0.0
 10
70.149558
 20
135.418417
 30
0.0
 10
70.323135
 20
135.627816
 30
0.0
 10
70.511208
 20
135.845267
 30
0.0
 10
70.715943
 20
136.072205
 30
0.0
 10
70.937792
 20
136.307982
 30
0.0
 10
71.175156
 20
136.549875
 30
0.0
 10
71.371314
 20
136.742471
 30
0.0
  0
SPLINE
  5
139
100
AcDbEntity
  8
0
 62
7
100
AcDbSpline
 70
8
 71
3
 72
8
 73
4
 74
0
 40
0
 40
0
 40
0
 40
0
 40
1
 40
1
 40
1
 40
1
 10
74.636853
 20
135.245657
 30
0.0
 10
74.892161
 20
135.115427
 30
0.0
 10
75.146158
 20
134.982640
 30
0.0
 10
75.398805
 20
134.847318
 30
0.0
  0
LWPOLYLINE
  5
13a
100
AcDbEntity
  8
0
 62
7
100
AcDbPolyline
 90
31
 70
0
 10
72.163926
 20
136.409288
 30
0.0
 10
72.163565
 20
136.134386
 30
0.0
 10
72.156765
 20
135.795552
 30
0.0
 10
72.143525
 20
135.472083
 30
0.0
 10
72.124625
 20
135.167025
 30
0.0
 10
72.100845
 20
134.880509
 30
0.0
 10
72.072685
 20
134.609985
 30
0.0
 10
72.040985
 20
134.357172
 30
0.0
 10
72.005525
 20
134.115899
 30
0.0
 10
72.000725
 20
134.055449
 30
0.0
 10
72.005525
 20
134.011239
 30
0.0
 10
72.011325
 20
133.995339
 30
0.0
 10
72.019225
 20
133.983629
 30
0.0
 10
72.029225
 20
133.976129
 30
0.0
 10
72.149516
 20
133.921059
 30
0.0
 10
72.439646
 20
133.785772
 30
0.0
 10
72.728823
 20
133.648458
 30
0.0
 10
72.847931
 20
133.590878
 30
0.0
 10
72.860041
 20
133.587978
 30
0.0
 10
72.874111
 20
133.589378
 30
0.0
 10
72.890051
 20
133.595078
 30
0.0
 10
72.927181
 20
133.619558
 30
0.0
 10
72.970701
 20
133.661788
 30
0.0
 10
73.133998
 20
133.842907
 30
0.0
 10
73.308588
 20
134.028481
 30
0.0
 10
73.499078
 20
134.222622
 30
0.0
 10
73.704688
 20
134.423572
 30
0.0
 10
73.927694
 20
134.632583
 30
0.0
 10
74.168495
 20
134.848968
 30
0.0
 10
74.425267
 20
135.070150
 30
0.0
 10
74.636853
 20
135.245657
 30
0.0
  0
SPLINE
  5
13b
100
AcDbEntity
  8
0
 62
7
100
AcDbSpline
 70
8
 71
3
 72
8
 73
4
 74
0
 40
0
 40
0
 40
0
 40
0
 40
1
 40
1
 40
1
 40
1
 10
77.765697
 20
133.480755
 30
0.0
 10
78.009213
 20
133.329617
 30
0.0
 10
78.251207
 20
133.176043
 30
0.0
 10
78.491645
 20
133.020054
 30
0.0
  0
LWPOLYLINE
  5
13c
100
AcDbEntity
  8
0
 62
7
100
AcDbPolyline
 90
31
 70
0
 10
75.398805
 20
134.847318
 30
0.0
 10
75.375445
 20
134.573412
 30
0.0
 10
75.340365
 20
134.236331
 30
0.0
 10
75.300105
 20
133.915104
 30
0.0
 10
75.255745
 20
133.612697
 30
0.0
 10
75.208075
 20
133.329176
 30
0.0
 10
75.157375
 20
133.061956
 30
0.0
 10
75.104635
 20
132.812682
 30
0.0
 10
75.049105
 20
132.575223
 30
0.0
 10
75.039305
 20
132.515383
 30
0.0
 10
75.040405
 20
132.470923
 30
0.0
 10
75.044805
 20
132.454593
 30
0.0
 10
75.051705
 20
132.442263
 30
0.0
 10
75.061005
 20
132.433963
 30
0.0
 10
75.176267
 20
132.369023
 30
0.0
 10
75.454059
 20
132.209933
 30
0.0
 10
75.730731
 20
132.048903
 30
0.0
 10
75.844603
 20
131.981553
 30
0.0
 10
75.856423
 20
131.977653
 30
0.0
 10
75.870553
 20
131.977830
 30
0.0
 10
75.886913
 20
131.982130
 30
0.0
 10
75.925953
 20
132.003420
 30
0.0
 10
75.972853
 20
132.041860
 30
0.0
 10
76.150734
 20
132.208679
 30
0.0
 10
76.340240
 20
132.378993
 30
0.0
 10
76.546307
 20
132.556513
 30
0.0
 10
76.768010
 20
132.739554
 30
0.0
 10
77.007724
 20
132.929171
 30
0.0
 10
77.265787
 20
133.124648
 30
0.0
 10
77.540167
 20
133.323569
 30
0.0
 10
77.765697
 20
133.480755
 30
0.0
  0
SPLINE
  5
13d
100
AcDbEntity
  8
0
 62
7
100
AcDbSpline
 70
8
 71
3
 72
8
 73
4
 74
0
 40
0
 40
0
 40
0
 40
0
 40
1
 40
1
 40
1
 40
1
 10
80.735947
 20
131.460262
 30
0.0
 10
80.965962
 20
131.289277
 30
0.0
 10
81.194257
 20
131.115992
 30
0.0
 10
81.420798
 20
130.940432
 30
0.0
  0
LWPOLYLINE
  5
13e
100
AcDbEntity
  8
0
 62
7
100
AcDbPolyline
 90
31
 70
0
 10
78.491645
 20
133.020054
 30
0.0
 10
78.445445
 20
132.749062
 30
0.0
 10
78.382285
 20
132.416100
 30
0.0
 10
78.315285
 20
132.099367
 30
0.0
 10
78.245785
 20
131.801733
 30
0.0
 10
78.174565
 20
131.523195
 30
0.0
 10
78.101685
 20
131.261156
 30
0.0
 10
78.028265
 20
131.017169
 30
0.0
 10
77.953055
 20
130.785189
 30
0.0
 10
77.938245
 20
130.726389
 30
0.0
 10
77.935645
 20
130.681999
 30
0.0
 10
77.938645
 20
130.665359
 30
0.0
 10
77.944545
 20
130.652499
 30
0.0
 10
77.953145
 20
130.643499
 30
0.0
 10
78.062568
 20
130.569139
 30
0.0
 10
78.326073
 20
130.387362
 30
0.0
 10
78.588300
 20
130.203745
 30
0.0
 10
78.696137
 20
130.127105
 30
0.0
 10
78.707587
 20
130.122205
 30
0.0
 10
78.721687
 20
130.121205
 30
0.0
 10
78.738347
 20
130.124105
 30
0.0
 10
78.779037
 20
130.142055
 30
0.0
 10
78.828987
 20
130.176435
 30
0.0
 10
79.020204
 20
130.327784
 30
0.0
 10
79.223297
 20
130.481644
 30
0.0
 10
79.443495
 20
130.641298
 30
0.0
 10
79.679737
 20
130.805145
 30
0.0
 10
79.934477
 20
130.974038
 30
0.0
 10
80.207992
 20
131.147236
 30
0.0
 10
80.498055
 20
131.322499
 30
0.0
 10
80.735947
 20
131.460262
 30
0.0
  0
SPLINE
  5
13f
100
AcDbEntity
  8
0
 62
7
100
AcDbSpline
 70
8
 71
3
 72
8
 73
4
 74
0
 40
0
 40
0
 40
0
 40
0
 40
1
 40
1
 40
1
 40
1
 10
83.526703
 20
129.198302
 30
0.0
 10
83.741604
 20
129.008671
 30
0.0
 10
83.954598
 20
128.816890
 30
0.0
 10
84.165654
 20
128.622988
 30
0.0
  0
LWPOLYLINE
  5
140
100
AcDbEntity
  8
0
 62
7
100
AcDbPolyline
 90
31
 70
0
 10
81.420798
 20
130.940432
 30
0.0
 10
81.352088
 20
130.674256
 30
0.0
 10
81.261288
 20
130.347747
 30
0.0
 10
81.168028
 20
130.037731
 30
0.0
 10
81.073858
 20
129.746957
 30
0.0
 10
80.979578
 20
129.475355
 30
0.0
 10
80.885018
 20
129.220333
 30
0.0
 10
80.791438
 20
128.983346
 30
0.0
 10
80.697088
 20
128.758472
 30
0.0
 10
80.677408
 20
128.701112
 30
0.0
 10
80.671108
 20
128.657092
 30
0.0
 10
80.672708
 20
128.640252
 30
0.0
 10
80.677508
 20
128.626942
 30
0.0
 10
80.685308
 20
128.617242
 30
0.0
 10
80.788126
 20
128.533992
 30
0.0
 10
81.035496
 20
128.330804
 30
0.0
 10
81.281439
 20
128.125889
 30
0.0
 10
81.382484
 20
128.040489
 30
0.0
 10
81.393484
 20
128.034689
 30
0.0
 10
81.407444
 20
128.032489
 30
0.0
 10
81.424294
 20
128.033989
 30
0.0
 10
81.466344
 20
128.048469
 30
0.0
 10
81.519004
 20
128.078549
 30
0.0
 10
81.722214
 20
128.213367
 30
0.0
 10
81.937470
 20
128.349692
 30
0.0
 10
82.170256
 20
128.490359
 30
0.0
 10
82.419380
 20
128.633864
 30
0.0
 10
82.687358
 20
128.780849
 30
0.0
 10
82.974407
 20
128.930552
 30
0.0
 10
83.278118
 20
129.080929
 30
0.0
 10
83.526703
 20
129.198302
 30
0.0
  0
SPLINE
  5
141
100
AcDbEntity
  8
0
 62
7
100
AcDbSpline
 70
8
 71
3
 72
8
 73
4
 74
0
 40
0
 40
0
 40
0
 40
0
 40
1
 40
1
 40
1
 40
1
 10
86.118349
 20
126.710861
 30
0.0
 10
86.316628
 20
126.503912
 30
0.0
 10
86.512827
 20
126.294981
 30
0.0
 10
86.706918
 20
126.084099
 30
0.0
  0
LWPOLYLINE
  5
142
100
AcDbEntity
  8
0
 62
7
100
AcDbPolyline
 90
31
 70
0
 10
84.165654
 20
128.622988
 30
0.0
 10
84.074904
 20
128.363497
 30
0.0
 10
83.957098
 20
128.045731
 30
0.0
 10
83.838219
 20
127.744606
 30
0.0
 10
83.720051
 20
127.462731
 30
0.0
 10
83.603373
 20
127.199972
 30
0.0
 10
83.487809
 20
126.953757
 30
0.0
 10
83.374730
 20
126.725430
 30
0.0
 10
83.261892
 20
126.509241
 30
0.0
 10
83.237482
 20
126.453731
 30
0.0
 10
83.227482
 20
126.410401
 30
0.0
 10
83.227708
 20
126.393481
 30
0.0
 10
83.231308
 20
126.379821
 30
0.0
 10
83.238308
 20
126.369491
 30
0.0
 10
83.333798
 20
126.277931
 30
0.0
 10
83.563299
 20
126.054755
 30
0.0
 10
83.791232
 20
125.829978
 30
0.0
 10
83.884772
 20
125.736428
 30
0.0
 10
83.895242
 20
125.729728
 30
0.0
 10
83.908972
 20
125.726428
 30
0.0
 10
83.925892
 20
125.726555
 30
0.0
 10
83.969002
 20
125.737465
 30
0.0
 10
84.023992
 20
125.763035
 30
0.0
 10
84.237771
 20
125.880376
 30
0.0
 10
84.463679
 20
125.998211
 30
0.0
 10
84.707420
 20
126.118907
 30
0.0
 10
84.967679
 20
126.241062
 30
0.0
 10
85.247017
 20
126.365107
 30
0.0
 10
85.545585
 20
126.490266
 30
0.0
 10
85.860814
 20
126.614701
 30
0.0
 10
86.118349
 20
126.710861
 30
0.0
  0
SPLINE
  5
143
100
AcDbEntity
  8
0
 62
7
100
AcDbSpline
 70
8
 71
3
 72
8
 73
4
 74
0
 40
0
 40
0
 40
0
 40
0
 40
1
 40
1
 40
1
 40
1
 10
88.492816
 20
124.015195
 30
0.0
 10
88.673082
 20
123.792380
 30
0.0
 10
88.851110
 20
123.567764
 30
0.0
 10
89.026873
 20
123.341380
 30
0.0
  0
LWPOLYLINE
  5
144
100
AcDbEntity
  8
0
 62
7
100
AcDbPolyline
 90
31
 70
0
 10
86.706918
 20
126.084099
 30
0.0
 10
86.594776
 20
125.833110
 30
0.0
 10
86.450793
 20
125.526316
 30
0.0
 10
86.307134
 20
125.236197
 30
0.0
 10
86.165794
 20
124.965198
 30
0.0
 10
86.027538
 20
124.713123
 30
0.0
 10
85.891776
 20
124.477442
 30
0.0
 10
85.759988
 20
124.259378
 30
0.0
 10
85.629455
 20
124.053389
 30
0.0
 10
85.600485
 20
124.000119
 30
0.0
 10
85.586885
 20
123.957779
 30
0.0
 10
85.585685
 20
123.940899
 30
0.0
 10
85.588185
 20
123.926979
 30
0.0
 10
85.594285
 20
123.916099
 30
0.0
 10
85.681775
 20
123.816869
 30
0.0
 10
85.891796
 20
123.575271
 30
0.0
 10
86.100121
 20
123.332210
 30
0.0
 10
86.185511
 20
123.231159
 30
0.0
 10
86.195411
 20
123.223559
 30
0.0
 10
86.208811
 20
123.219059
 30
0.0
 10
86.225681
 20
123.217759
 30
0.0
 10
86.269551
 20
123.225059
 30
0.0
 10
86.326491
 20
123.245939
 30
0.0
 10
86.549339
 20
123.344979
 30
0.0
 10
86.784315
 20
123.443499
 30
0.0
 10
87.037300
 20
123.543379
 30
0.0
 10
87.306868
 20
123.643329
 30
0.0
 10
87.595607
 20
123.743565
 30
0.0
 10
87.903601
 20
123.843305
 30
0.0
 10
88.228137
 20
123.940925
 30
0.0
 10
88.492816
 20
124.015195
 30
0.0
  0
SPLINE
  5
145
100
AcDbEntity
  8
0
 62
7
100
AcDbSpline
 70
8
 71
3
 72
8
 73
4
 74
0
 40
0
 40
0
 40
0
 40
0
 40
1
 40
1
 40
1
 40
1
 10
90.633284
 20
121.130288
 30
0.0
 10
90.794273
 20
120.893170
 30
0.0
 10
90.952882
 20
120.654445
 30
0.0
 10
91.109087
 20
120.414148
 30
0.0
  0
LWPOLYLINE
  5
146
100
AcDbEntity
  8
0
 62
7
100
AcDbPolyline
 90
31
 70
0
 10
89.026873
 20
123.341380
 30
0.0
 10
88.894123
 20
123.100656
 30
0.0
 10
88.724973
 20
122.806986
 30
0.0
 10
88.557542
 20
122.529904
 30
0.0
 10
88.394021
 20
122.271683
 30
0.0
 10
88.235156
 20
122.032062
 30
0.0
 10
88.080149
 20
121.808567
 30
0.0
 10
87.930577
 20
121.602296
 30
0.0
 10
87.783265
 20
121.407953
 30
0.0
 10
87.749945
 20
121.357293
 30
0.0
 10
87.732855
 20
121.316233
 30
0.0
 10
87.730255
 20
121.299513
 30
0.0
 10
87.731555
 20
121.285443
 30
0.0
 10
87.736655
 20
121.274093
 30
0.0
 10
87.815535
 20
121.167885
 30
0.0
 10
88.004603
 20
120.909561
 30
0.0
 10
88.191859
 20
120.649920
 30
0.0
 10
88.268489
 20
120.542078
 30
0.0
 10
88.277689
 20
120.533678
 30
0.0
 10
88.290669
 20
120.528078
 30
0.0
 10
88.307379
 20
120.525378
 30
0.0
 10
88.351709
 20
120.528978
 30
0.0
 10
88.410189
 20
120.545018
 30
0.0
 10
88.640543
 20
120.625068
 30
0.0
 10
88.882938
 20
120.703578
 30
0.0
 10
89.143393
 20
120.781938
 30
0.0
 10
89.420379
 20
120.858978
 30
0.0
 10
89.716493
 20
120.934698
 30
0.0
 10
90.031753
 20
121.008308
 30
0.0
 10
90.363320
 20
121.078428
 30
0.0
 10
90.633284
 20
121.130288
 30
0.0
  0
SPLINE
  5
147
100
AcDbEntity
  8
0
 62
7
100
AcDbSpline
 70
8
 71
3
 72
8
 73
4
 74
0
 40
0
 40
0
 40
0
 40
0
 40
1
 40
1
 40
1
 40
1
 10
92.524928
 20
118.076337
 30
0.0
 10
92.665512
 20
117.826580
 30
0.0
 10
92.803588
 20
117.575420
 30
0.0
 10
92.939137
 20
117.322895
 30
0.0
  0
LWPOLYLINE
  5
148
100
AcDbEntity
  8
0
 62
7
100
AcDbPolyline
 90
31
 70
0
 10
91.109087
 20
120.414148
 30
0.0
 10
90.956658
 20
120.185376
 30
0.0
 10
90.763528
 20
119.906890
 30
0.0
 10
90.573498
 20
119.644790
 30
0.0
 10
90.388943
 20
119.401158
 30
0.0
 10
90.210585
 20
119.175670
 30
0.0
 10
90.037420
 20
118.965931
 30
0.0
 10
89.871111
 20
118.772899
 30
0.0
 10
89.708054
 20
118.591563
 30
0.0
 10
89.670604
 20
118.543863
 30
0.0
 10
89.650134
 20
118.504383
 30
0.0
 10
89.646134
 20
118.487933
 30
0.0
 10
89.646253
 20
118.473803
 30
0.0
 10
89.650453
 20
118.462063
 30
0.0
 10
89.720173
 20
118.349627
 30
0.0
 10
89.886962
 20
118.076388
 30
0.0
 10
90.051835
 20
117.801988
 30
0.0
 10
90.119175
 20
117.688112
 30
0.0
 10
90.127675
 20
117.679012
 30
0.0
 10
90.140145
 20
117.672312
 30
0.0
 10
90.156565
 20
117.668212
 30
0.0
 10
90.201035
 20
117.668057
 30
0.0
 10
90.260655
 20
117.679147
 30
0.0
 10
90.496899
 20
117.739637
 30
0.0
 10
90.745014
 20
117.797587
 30
0.0
 10
91.011113
 20
117.853877
 30
0.0
 10
91.293574
 20
117.907467
 30
0.0
 10
91.594985
 20
117.958147
 30
0.0
 10
91.915298
 20
118.005117
 30
0.0
 10
92.251570
 20
118.047247
 30
0.0
 10
92.524928
 20
118.076337
 30
0.0
  0
SPLINE
  5
149
100
AcDbEntity
  8
0
 62
7
100
AcDbSpline
 70
8
 71
3
 72
8
 73
4
 74
0
 40
0
 40
0
 40
0
 40
0
 40
1
 40
1
 40
1
 40
1
 10
94.154422
 20
114.874890
 30
0.0
 10
94.273613
 20
114.614245
 30
0.0
 10
94.390188
 20
114.352412
 30
0.0
 10
94.504131
 20
114.089430
 30
0.0
  0
LWPOLYLINE
  5
14a
100
AcDbEntity
  8
0
 62
7
100
AcDbPolyline
 90
31
 70
0
 10
92.939137
 20
117.322895
 30
0.0
 10
92.768100
 20
117.107680
 30
0.0
 10
92.552344
 20
116.846331
 30
0.0
 10
92.341048
 20
116.601052
 30
0.0
 10
92.136753
 20
116.373717
 30
0.0
 10
91.940153
 20
116.163945
 30
0.0
 10
91.750045
 20
115.969432
 30
0.0
 10
91.568168
 20
115.790993
 30
0.0
 10
91.390509
 20
115.623938
 30
0.0
 10
91.349199
 20
115.579538
 30
0.0
 10
91.325499
 20
115.541908
 30
0.0
 10
91.320199
 20
115.525858
 30
0.0
 10
91.319099
 20
115.511768
 30
0.0
 10
91.322299
 20
115.499728
 30
0.0
 10
91.382369
 20
115.381852
 30
0.0
 10
91.525709
 20
115.095615
 30
0.0
 10
91.667042
 20
114.808382
 30
0.0
 10
91.724622
 20
114.689270
 30
0.0
 10
91.732322
 20
114.679470
 30
0.0
 10
91.744192
 20
114.671770
 30
0.0
 10
91.760211
 20
114.666370
 30
0.0
 10
91.804511
 20
114.662470
 30
0.0
 10
91.864851
 20
114.668570
 30
0.0
 10
92.105328
 20
114.709080
 30
0.0
 10
92.357423
 20
114.746070
 30
0.0
 10
92.627298
 20
114.779890
 30
0.0
 10
92.913253
 20
114.809660
 30
0.0
 10
93.217849
 20
114.834940
 30
0.0
 10
93.540970
 20
114.854950
 30
0.0
 10
93.879588
 20
114.868790
 30
0.0
 10
94.154422
 20
114.874890
 30
0.0
  0
SPLINE
  5
14b
100
AcDbEntity
  8
0
 62
7
100
AcDbSpline
 70
8
 71
3
 72
8
 73
4
 74
0
 40
0
 40
0
 40
0
 40
0
 40
1
 40
1
 40
1
 40
1
 10
95.510273
 20
111.548220
 30
0.0
 10
95.607236
 20
111.278516
 30
0.0
 10
95.701493
 20
111.007846
 30
0.0
 10
95.793030
 20
110.736252
 30
0.0
  0
LWPOLYLINE
  5
14c
100
AcDbEntity
  8
0
 62
7
100
AcDbPolyline
 90
31
 70
0
 10
94.504131
 20
114.089430
 30
0.0
 10
94.315685
 20
113.889282
 30
0.0
 10
94.078817
 20
113.646904
 30
0.0
 10
93.847738
 20
113.420166
 30
0.0
 10
93.625137
 20
113.210723
 30
0.0
 10
93.411672
 20
113.018137
 30
0.0
 10
93.205954
 20
112.840214
 30
0.0
 10
93.009783
 20
112.677621
 30
0.0
 10
92.818768
 20
112.526017
 30
0.0
 10
92.773888
 20
112.485237
 30
0.0
 10
92.747128
 20
112.449717
 30
0.0
 10
92.740428
 20
112.434167
 30
0.0
 10
92.738228
 20
112.420217
 30
0.0
 10
92.740428
 20
112.407947
 30
0.0
 10
92.790418
 20
112.285458
 30
0.0
 10
92.909304
 20
111.988231
 30
0.0
 10
93.026107
 20
111.690178
 30
0.0
 10
93.073517
 20
111.566667
 30
0.0
 10
93.080317
 20
111.556247
 30
0.0
 10
93.091507
 20
111.547647
 30
0.0
 10
93.107017
 20
111.540847
 30
0.0
 10
93.150837
 20
111.533247
 30
0.0
 10
93.211467
 20
111.534237
 30
0.0
 10
93.454490
 20
111.554477
 30
0.0
 10
93.708796
 20
111.570237
 30
0.0
 10
93.980555
 20
111.581357
 30
0.0
 10
94.267998
 20
111.587057
 30
0.0
 10
94.573641
 20
111.586760
 30
0.0
 10
94.897302
 20
111.579660
 30
0.0
 10
95.235891
 20
111.565120
 30
0.0
 10
95.510273
 20
111.548220
 30
0.0
  0
SPLINE
  5
14d
100
AcDbEntity
  8
0
 62
7
100
AcDbSpline
 70
8
 71
3
 72
8
 73
4
 74
0
 40
0
 40
0
 40
0
 40
0
 40
1
 40
1
 40
1
 40
1
 10
96.582874
 20
108.119886
 30
0.0
 10
96.656928
 20
107.843014
 30
0.0
 10
96.728206
 20
107.565406
 30
0.0
 10
96.796696
 20
107.287105
 30
0.0
  0
LWPOLYLINE
  5
14e
100
AcDbEntity
  8
0
 62
7
100
AcDbPolyline
 90
31
 70
0
 10
95.793030
 20
110.736252
 30
0.0
 10
95.588497
 20
110.552574
 30
0.0
 10
95.332178
 20
110.330867
 30
0.0
 10
95.082936
 20
110.124260
 30
0.0
 10
94.843591
 20
109.934179
 30
0.0
 10
94.614760
 20
109.760132
 30
0.0
 10
94.394875
 20
109.600046
 30
0.0
 10
94.185786
 20
109.454438
 30
0.0
 10
93.982756
 20
109.319350
 30
0.0
 10
93.934626
 20
109.282460
 30
0.0
 10
93.904986
 20
109.249310
 30
0.0
 10
93.896986
 20
109.234370
 30
0.0
 10
93.893586
 20
109.220650
 30
0.0
 10
93.894686
 20
109.208250
 30
0.0
 10
93.934256
 20
109.082008
 30
0.0
 10
94.027856
 20
108.775874
 30
0.0
 10
94.119306
 20
108.469094
 30
0.0
 10
94.156206
 20
108.342048
 30
0.0
 10
94.162106
 20
108.331098
 30
0.0
 10
94.172526
 20
108.321598
 30
0.0
 10
94.187416
 20
108.313598
 30
0.0
 10
94.230456
 20
108.302388
 30
0.0
 10
94.290956
 20
108.298288
 30
0.0
 10
94.534822
 20
108.298126
 30
0.0
 10
94.789554
 20
108.292526
 30
0.0
 10
95.061290
 20
108.280866
 30
0.0
 10
95.348205
 20
108.262536
 30
0.0
 10
95.652751
 20
108.236666
 30
0.0
 10
95.974684
 20
108.202506
 30
0.0
 10
96.310869
 20
108.159686
 30
0.0
 10
96.582874
 20
108.119886
 30
0.0
  0
SPLINE
  5
14f
100
AcDbEntity
  8
0
 62
7
100
AcDbSpline
 70
8
 71
3
 72
8
 73
4
 74
0
 40
0
 40
0
 40
0
 40
0
 40
1
 40
1
 40
1
 40
1
 10
97.364952
 20
104.613762
 30
0.0
 10
97.415578
 20
104.331664
 30
0.0
 10
97.463377
 20
104.049066
 30
0.0
 10
97.508339
 20
103.766010
 30
0.0
  0
LWPOLYLINE
  5
150
100
AcDbEntity
  8
0
 62
7
100
AcDbPolyline
 90
31
 70
0
 10
96.796696
 20
107.287105
 30
0.0
 10
96.577511
 20
107.121186
 30
0.0
 10
96.303538
 20
106.921706
 30
0.0
 10
96.037882
 20
106.736680
 30
0.0
 10
95.783470
 20
106.567293
 30
0.0
 10
95.540878
 20
106.413004
 30
0.0
 10
95.308368
 20
106.271879
 30
0.0
 10
95.087829
 20
106.144277
 30
0.0
 10
94.874206
 20
106.026653
 30
0.0
 10
94.823157
 20
105.993924
 30
0.0
 10
94.790847
 20
105.963368
 30
0.0
 10
94.781647
 20
105.949150
 30
0.0
 10
94.777147
 20
105.935764
 30
0.0
 10
94.777228
 20
105.923309
 30
0.0
 10
94.806088
 20
105.794198
 30
0.0
 10
94.873737
 20
105.481307
 30
0.0
 10
94.939197
 20
105.167949
 30
0.0
 10
94.965337
 20
105.038261
 30
0.0
 10
94.970337
 20
105.026850
 30
0.0
 10
94.979937
 20
105.016467
 30
0.0
 10
94.994097
 20
105.007207
 30
0.0
 10
95.036047
 20
104.992436
 30
0.0
 10
95.095997
 20
104.983296
 30
0.0
 10
95.338994
 20
104.962728
 30
0.0
 10
95.592367
 20
104.935860
 30
0.0
 10
95.862175
 20
104.901506
 30
0.0
 10
96.146550
 20
104.859227
 30
0.0
 10
96.447863
 20
104.807963
 30
0.0
 10
96.765808
 20
104.746985
 30
0.0
 10
97.097231
 20
104.676185
 30
0.0
 10
97.364952
 20
104.613762
 30
0.0
  0
SPLINE
  5
151
100
AcDbEntity
  8
0
 62
7
100
AcDbSpline
 70
8
 71
3
 72
8
 73
4
 74
0
 40
0
 40
0
 40
0
 40
0
 40
1
 40
1
 40
1
 40
1
 10
97.850913
 20
101.054498
 30
0.0
 10
97.877758
 20
100.769153
 30
0.0
 10
97.901742
 20
100.483546
 30
0.0
 10
97.922863
 20
100.197720
 30
0.0
  0
LWPOLYLINE
  5
152
100
AcDbEntity
  8
0
 62
7
100
AcDbPolyline
 90
31
 70
0
 10
97.508339
 20
103.766010
 30
0.0
 10
97.276038
 20
103.619014
 30
0.0
 10
96.986335
 20
103.443158
 30
0.0
 10
96.706128
 20
103.281010
 30
0.0
 10
96.438434
 20
103.133506
 30
0.0
 10
96.183781
 20
103.000058
 30
0.0
 10
95.940278
 20
102.878883
 30
0.0
 10
95.709835
 20
102.770184
 30
0.0
 10
95.487119
 20
102.670847
 30
0.0
 10
95.433509
 20
102.642504
 30
0.0
 10
95.398749
 20
102.614759
 30
0.0
 10
95.388419
 20
102.601358
 30
0.0
 10
95.382819
 20
102.588399
 30
0.0
 10
95.381858
 20
102.575981
 30
0.0
 10
95.399818
 20
102.444908
 30
0.0
 10
95.441048
 20
102.127453
 30
0.0
 10
95.480058
 20
101.809717
 30
0.0
 10
95.495258
 20
101.678296
 30
0.0
 10
95.499258
 20
101.666507
 30
0.0
 10
95.507958
 20
101.655358
 30
0.0
 10
95.521298
 20
101.644948
 30
0.0
 10
95.561858
 20
101.626718
 30
0.0
 10
95.620838
 20
101.612598
 30
0.0
 10
95.861261
 20
101.571769
 30
0.0
 10
96.111497
 20
101.523794
 30
0.0
 10
96.377485
 20
101.466983
 30
0.0
 10
96.657324
 20
101.401056
 30
0.0
 10
96.953291
 20
101.324759
 30
0.0
 10
97.265019
 20
101.237390
 30
0.0
 10
97.589355
 20
101.139105
 30
0.0
 10
97.850913
 20
101.054498
 30
0.0
  0
SPLINE
  5
153
100
AcDbEntity
  8
0
 62
7
100
AcDbSpline
 70
8
 71
3
 72
8
 73
4
 74
0
 40
0
 40
0
 40
0
 40
0
 40
1
 40
1
 40
1
 40
1
 10
98.037294
 20
97.467058
 30
0.0
 10
98.040167
 20
97.180467
 30
0.0
 10
98.040167
 20
96.893855
 30
0.0
 10
98.037294
 20
96.607264
 30
0.0
  0
LWPOLYLINE
  5
154
100
AcDbEntity
  8
0
 62
7
100
AcDbPolyline
 90
31
 70
0
 10
97.922863
 20
100.197720
 30
0.0
 10
97.679077
 20
100.070679
 30
0.0
 10
97.375674
 20
99.919681
 30
0.0
 10
97.082882
 20
99.781549
 30
0.0
 10
96.803784
 20
99.656963
 30
0.0
 10
96.538858
 20
99.545291
 30
0.0
 10
96.286069
 20
99.444917
 30
0.0
 10
96.047338
 20
99.355882
 30
0.0
 10
95.817091
 20
99.275530
 30
0.0
 10
95.761301
 20
99.251773
 30
0.0
 10
95.724341
 20
99.227034
 30
0.0
 10
95.712921
 20
99.214545
 30
0.0
 10
95.706221
 20
99.202103
 30
0.0
 10
95.704221
 20
99.189809
 30
0.0
 10
95.711121
 20
99.057694
 30
0.0
 10
95.725641
 20
98.737901
 30
0.0
 10
95.737931
 20
98.418015
 30
0.0
 10
95.742131
 20
98.285783
 30
0.0
 10
95.745131
 20
98.273699
 30
0.0
 10
95.752831
 20
98.261862
 30
0.0
 10
95.765251
 20
98.250372
 30
0.0
 10
95.804151
 20
98.228812
 30
0.0
 10
95.861741
 20
98.209807
 30
0.0
 10
96.097905
 20
98.149003
 30
0.0
 10
96.343249
 20
98.080257
 30
0.0
 10
96.603550
 20
98.001388
 30
0.0
 10
96.876891
 20
97.912277
 30
0.0
 10
97.165435
 20
97.811481
 30
0.0
 10
97.468759
 20
97.698334
 30
0.0
 10
97.783733
 20
97.573254
 30
0.0
 10
98.037294
 20
97.467058
 30
0.0
  0
SPLINE
  5
155
100
AcDbEntity
  8
0
 62
7
100
AcDbSpline
 70
8
 71
3
 72
8
 73
4
 74
0
 40
0
 40
0
 40
0
 40
0
 40
1
 40
1
 40
1
 40
1
 10
97.922863
 20
93.876601
 30
0.0
 10
97.901742
 20
93.590776
 30
0.0
 10
97.877758
 20
93.305169
 30
0.0
 10
97.850913
 20
93.019823
 30
0.0
  0
LWPOLYLINE
  5
156
100
AcDbEntity
  8
0
 62
7
100
AcDbPolyline
 90
31
 70
0
 10
98.037294
 20
96.607264
 30
0.0
 10
97.783733
 20
96.501068
 30
0.0
 10
97.468759
 20
96.375988
 30
0.0
 10
97.165435
 20
96.262841
 30
0.0
 10
96.876891
 20
96.162045
 30
0.0
 10
96.603550
 20
96.072933
 30
0.0
 10
96.343249
 20
95.994065
 30
0.0
 10
96.097905
 20
95.925319
 30
0.0
 10
95.861741
 20
95.864515
 30
0.0
 10
95.804151
 20
95.845510
 30
0.0
 10
95.765251
 20
95.823950
 30
0.0
 10
95.752831
 20
95.812460
 30
0.0
 10
95.745131
 20
95.800623
 30
0.0
 10
95.742131
 20
95.788539
 30
0.0
 10
95.737931
 20
95.656306
 30
0.0
 10
95.725641
 20
95.336420
 30
0.0
 10
95.711121
 20
95.016628
 30
0.0
 10
95.704221
 20
94.884513
 30
0.0
 10
95.706221
 20
94.872219
 30
0.0
 10
95.712921
 20
94.859777
 30
0.0
 10
95.724341
 20
94.847288
 30
0.0
 10
95.761301
 20
94.822549
 30
0.0
 10
95.817091
 20
94.798792
 30
0.0
 10
96.047338
 20
94.718440
 30
0.0
 10
96.286069
 20
94.629405
 30
0.0
 10
96.538858
 20
94.529031
 30
0.0
 10
96.803784
 20
94.417359
 30
0.0
 10
97.082882
 20
94.292772
 30
0.0
 10
97.375674
 20
94.154640
 30
0.0
 10
97.679077
 20
94.003643
 30
0.0
 10
97.922863
 20
93.876601
 30
0.0
  0
SPLINE
  5
157
100
AcDbEntity
  8
0
 62
7
100
AcDbSpline
 70
8
 71
3
 72
8
 73
4
 74
0
 40
0
 40
0
 40
0
 40
0
 40
1
 40
1
 40
1
 40
1
 10
97.508339
 20
90.308312
 30
0.0
 10
97.463377
 20
90.025256
 30
0.0
 10
97.415578
 20
89.742657
 30
0.0
 10
97.364952
 20
89.460559
 30
0.0
  0
LWPOLYLINE
  5
158
100
AcDbEntity
  8
0
 62
7
100
AcDbPolyline
 90
31
 70
0
 10
97.850913
 20
93.019823
 30
0.0
 10
97.589355
 20
92.935217
 30
0.0
 10
97.265019
 20
92.836932
 30
0.0
 10
96.953291
 20
92.749563
 30
0.0
 10
96.657324
 20
92.673266
 30
0.0
 10
96.377485
 20
92.607339
 30
0.0
 10
96.111497
 20
92.550528
 30
0.0
 10
95.861261
 20
92.502553
 30
0.0
 10
95.620838
 20
92.461724
 30
0.0
 10
95.561858
 20
92.447604
 30
0.0
 10
95.521298
 20
92.429374
 30
0.0
 10
95.507958
 20
92.418964
 30
0.0
 10
95.499258
 20
92.407815
 30
0.0
 10
95.495258
 20
92.396026
 30
0.0
 10
95.480058
 20
92.264605
 30
0.0
 10
95.441048
 20
91.946869
 30
0.0
 10
95.399818
 20
91.629413
 30
0.0
 10
95.381858
 20
91.498341
 30
0.0
 10
95.382819
 20
91.485923
 30
0.0
 10
95.388419
 20
91.472964
 30
0.0
 10
95.398749
 20
91.459563
 30
0.0
 10
95.433509
 20
91.431818
 30
0.0
 10
95.487119
 20
91.403475
 30
0.0
 10
95.709835
 20
91.304138
 30
0.0
 10
95.940278
 20
91.195438
 30
0.0
 10
96.183781
 20
91.074264
 30
0.0
 10
96.438434
 20
90.940815
 30
0.0
 10
96.706128
 20
90.793311
 30
0.0
 10
96.986335
 20
90.631164
 30
0.0
 10
97.276038
 20
90.455307
 30
0.0
 10
97.508339
 20
90.308312
 30
0.0
  0
SPLINE
  5
159
100
AcDbEntity
  8
0
 62
7
100
AcDbSpline
 70
8
 71
3
 72
8
 73
4
 74
0
 40
0
 40
0
 40
0
 40
0
 40
1
 40
1
 40
1
 40
1
 10
96.796696
 20
86.787216
 30
0.0
 10
96.728206
 20
86.508915
 30
0.0
 10
96.656928
 20
86.231307
 30
0.0
 10
96.582874
 20
85.954435
 30
0.0
  0
LWPOLYLINE
  5
15a
100
AcDbEntity
  8
0
 62
7
100
AcDbPolyline
 90
31
 70
0
 10
97.364952
 20
89.460559
 30
0.0
 10
97.097231
 20
89.398136
 30
0.0
 10
96.765808
 20
89.327336
 30
0.0
 10
96.447863
 20
89.266358
 30
0.0
 10
96.146550
 20
89.215094
 30
0.0
 10
95.862175
 20
89.172815
 30
0.0
 10
95.592367
 20
89.138461
 30
0.0
 10
95.338994
 20
89.111593
 30
0.0
 10
95.095997
 20
89.091025
 30
0.0
 10
95.036047
 20
89.081885
 30
0.0
 10
94.994097
 20
89.067114
 30
0.0
 10
94.979937
 20
89.057854
 30
0.0
 10
94.970337
 20
89.047471
 30
0.0
 10
94.965337
 20
89.036060
 30
0.0
 10
94.939197
 20
88.906372
 30
0.0
 10
94.873737
 20
88.593015
 30
0.0
 10
94.806088
 20
88.280123
 30
0.0
 10
94.777228
 20
88.151013
 30
0.0
 10
94.777147
 20
88.138558
 30
0.0
 10
94.781647
 20
88.125172
 30
0.0
 10
94.790847
 20
88.110954
 30
0.0
 10
94.823157
 20
88.080398
 30
0.0
 10
94.874206
 20
88.047669
 30
0.0
 10
95.087829
 20
87.930044
 30
0.0
 10
95.308368
 20
87.802443
 30
0.0
 10
95.540878
 20
87.661318
 30
0.0
 10
95.783470
 20
87.507028
 30
0.0
 10
96.037882
 20
87.337642
 30
0.0
 10
96.303538
 20
87.152616
 30
0.0
 10
96.577511
 20
86.953135
 30
0.0
 10
96.796696
 20
86.787216
 30
0.0
  0
SPLINE
  5
15b
100
AcDbEntity
  8
0
 62
7
100
AcDbSpline
 70
8
 71
3
 72
8
 73
4
 74
0
 40
0
 40
0
 40
0
 40
0
 40
1
 40
1
 40
1
 40
1
 10
95.793030
 20
83.338069
 30
0.0
 10
95.701493
 20
83.066475
 30
0.0
 10
95.607236
 20
82.795806
 30
0.0
 10
95.510273
 20
82.526101
 30
0.0
  0
LWPOLYLINE
  5
15c
100
AcDbEntity
  8
0
 62
7
100
AcDbPolyline
 90
31
 70
0
 10
96.582874
 20
85.954435
 30
0.0
 10
96.310869
 20
85.914635
 30
0.0
 10
95.974684
 20
85.871815
 30
0.0
 10
95.652751
 20
85.837655
 30
0.0
 10
95.348205
 20
85.811785
 30
0.0
 10
95.061290
 20
85.793455
 30
0.0
 10
94.789554
 20
85.781795
 30
0.0
 10
94.534822
 20
85.776195
 30
0.0
 10
94.290956
 20
85.776033
 30
0.0
 10
94.230456
 20
85.771933
 30
0.0
 10
94.187416
 20
85.760723
 30
0.0
 10
94.172526
 20
85.752723
 30
0.0
 10
94.162106
 20
85.743223
 30
0.0
 10
94.156206
 20
85.732273
 30
0.0
 10
94.119306
 20
85.605227
 30
0.0
 10
94.027856
 20
85.298447
 30
0.0
 10
93.934256
 20
84.992313
 30
0.0
 10
93.894686
 20
84.866071
 30
0.0
 10
93.893586
 20
84.853672
 30
0.0
 10
93.896986
 20
84.839952
 30
0.0
 10
93.904986
 20
84.825012
 30
0.0
 10
93.934626
 20
84.791862
 30
0.0
 10
93.982756
 20
84.754972
 30
0.0
 10
94.185786
 20
84.619884
 30
0.0
 10
94.394875
 20
84.474276
 30
0.0
 10
94.614760
 20
84.314190
 30
0.0
 10
94.843591
 20
84.140142
 30
0.0
 10
95.082936
 20
83.950061
 30
0.0
 10
95.332178
 20
83.743454
 30
0.0
 10
95.588497
 20
83.521747
 30
0.0
 10
95.793030
 20
83.338069
 30
0.0
  0
SPLINE
  5
15d
100
AcDbEntity
  8
0
 62
7
100
AcDbSpline
 70
8
 71
3
 72
8
 73
4
 74
0
 40
0
 40
0
 40
0
 40
0
 40
1
 40
1
 40
1
 40
1
 10
94.504131
 20
79.984891
 30
0.0
 10
94.390188
 20
79.721909
 30
0.0
 10
94.273613
 20
79.460076
 30
0.0
 10
94.154422
 20
79.199431
 30
0.0
  0
LWPOLYLINE
  5
15e
100
AcDbEntity
  8
0
 62
7
100
AcDbPolyline
 90
31
 70
0
 10
95.510273
 20
82.526101
 30
0.0
 10
95.235891
 20
82.509201
 30
0.0
 10
94.897302
 20
82.494661
 30
0.0
 10
94.573641
 20
82.487561
 30
0.0
 10
94.267998
 20
82.487264
 30
0.0
 10
93.980555
 20
82.492964
 30
0.0
 10
93.708796
 20
82.504084
 30
0.0
 10
93.454490
 20
82.519844
 30
0.0
 10
93.211467
 20
82.540084
 30
0.0
 10
93.150837
 20
82.541074
 30
0.0
 10
93.107017
 20
82.533474
 30
0.0
 10
93.091507
 20
82.526674
 30
0.0
 10
93.080317
 20
82.518074
 30
0.0
 10
93.073517
 20
82.507654
 30
0.0
 10
93.026107
 20
82.384143
 30
0.0
 10
92.909304
 20
82.086090
 30
0.0
 10
92.790418
 20
81.788863
 30
0.0
 10
92.740428
 20
81.666375
 30
0.0
 10
92.738228
 20
81.654105
 30
0.0
 10
92.740428
 20
81.640155
 30
0.0
 10
92.747128
 20
81.624605
 30
0.0
 10
92.773888
 20
81.589085
 30
0.0
 10
92.818768
 20
81.548305
 30
0.0
 10
93.009783
 20
81.396701
 30
0.0
 10
93.205954
 20
81.234108
 30
0.0
 10
93.411672
 20
81.056184
 30
0.0
 10
93.625137
 20
80.863598
 30
0.0
 10
93.847738
 20
80.654155
 30
0.0
 10
94.078817
 20
80.427417
 30
0.0
 10
94.315685
 20
80.185039
 30
0.0
 10
94.504131
 20
79.984891
 30
0.0
  0
SPLINE
  5
15f
100
AcDbEntity
  8
0
 62
7
100
AcDbSpline
 70
8
 71
3
 72
8
 73
4
 74
0
 40
0
 40
0
 40
0
 40
0
 40
1
 40
1
 40
1
 40
1
 10
92.939137
 20
76.751426
 30
0.0
 10
92.803588
 20
76.498901
 30
0.0
 10
92.665512
 20
76.247741
 30
0.0
 10
92.524928
 20
75.997984
 30
0.0
  0
LWPOLYLINE
  5
160
100
AcDbEntity
  8
0
 62
7
100
AcDbPolyline
 90
31
 70
0
 10
94.154422
 20
79.199431
 30
0.0
 10
93.879588
 20
79.205531
 30
0.0
 10
93.540970
 20
79.219371
 30
0.0
 10
93.217849
 20
79.239381
 30
0.0
 10
92.913253
 20
79.264661
 30
0.0
 10
92.627298
 20
79.294431
 30
0.0
 10
92.357423
 20
79.328251
 30
0.0
 10
92.105328
 20
79.365241
 30
0.0
 10
91.864851
 20
79.405751
 30
0.0
 10
91.804511
 20
79.411851
 30
0.0
 10
91.760211
 20
79.407951
 30
0.0
 10
91.744192
 20
79.402551
 30
0.0
 10
91.732322
 20
79.394851
 30
0.0
 10
91.724622
 20
79.385051
 30
0.0
 10
91.667042
 20
79.265939
 30
0.0
 10
91.525709
 20
78.978706
 30
0.0
 10
91.382369
 20
78.692469
 30
0.0
 10
91.322299
 20
78.574594
 30
0.0
 10
91.319099
 20
78.562554
 30
0.0
 10
91.320199
 20
78.548464
 30
0.0
 10
91.325499
 20
78.532414
 30
0.0
 10
91.349199
 20
78.494784
 30
0.0
 10
91.390509
 20
78.450384
 30
0.0
 10
91.568168
 20
78.283329
 30
0.0
 10
91.750045
 20
78.104890
 30
0.0
 10
91.940153
 20
77.910376
 30
0.0
 10
92.136753
 20
77.700604
 30
0.0
 10
92.341048
 20
77.473269
 30
0.0
 10
92.552344
 20
77.227990
 30
0.0
 10
92.768100
 20
76.966641
 30
0.0
 10
92.939137
 20
76.751426
 30
0.0
  0
SPLINE
  5
161
100
AcDbEntity
  8
0
 62
7
100
AcDbSpline
 70
8
 71
3
 72
8
 73
4
 74
0
 40
0
 40
0
 40
0
 40
0
 40
1
 40
1
 40
1
 40
1
 10
91.109087
 20
73.660173
 30
0.0
 10
90.952882
 20
73.419876
 30
0.0
 10
90.794273
 20
73.181151
 30
0.0
 10
90.633284
 20
72.944033
 30
0.0
  0
LWPOLYLINE
  5
162
100
AcDbEntity
  8
0
 62
7
100
AcDbPolyline
 90
31
 70
0
 10
92.524928
 20
75.997984
 30
0.0
 10
92.251570
 20
76.027074
 30
0.0
 10
91.915298
 20
76.069204
 30
0.0
 10
91.594985
 20
76.116174
 30
0.0
 10
91.293574
 20
76.166854
 30
0.0
 10
91.011113
 20
76.220444
 30
0.0
 10
90.745014
 20
76.276734
 30
0.0
 10
90.496899
 20
76.334684
 30
0.0
 10
90.260655
 20
76.395174
 30
0.0
 10
90.201035
 20
76.406264
 30
0.0
 10
90.156565
 20
76.406109
 30
0.0
 10
90.140145
 20
76.402009
 30
0.0
 10
90.127675
 20
76.395309
 30
0.0
 10
90.119175
 20
76.386209
 30
0.0
 10
90.051835
 20
76.272333
 30
0.0
 10
89.886962
 20
75.997933
 30
0.0
 10
89.720173
 20
75.724694
 30
0.0
 10
89.650453
 20
75.612258
 30
0.0
 10
89.646253
 20
75.600518
 30
0.0
 10
89.646134
 20
75.586389
 30
0.0
 10
89.650134
 20
75.569939
 30
0.0
 10
89.670604
 20
75.530459
 30
0.0
 10
89.708054
 20
75.482759
 30
0.0
 10
89.871111
 20
75.301423
 30
0.0
 10
90.037420
 20
75.108391
 30
0.0
 10
90.210585
 20
74.898651
 30
0.0
 10
90.388943
 20
74.673163
 30
0.0
 10
90.573498
 20
74.429531
 30
0.0
 10
90.763528
 20
74.167431
 30
0.0
 10
90.956658
 20
73.888945
 30
0.0
 10
91.109087
 20
73.660173
 30
0.0
  0
SPLINE
  5
163
100
AcDbEntity
  8
0
 62
7
100
AcDbSpline
 70
8
 71
3
 72
8
 73
4
 74
0
 40
0
 40
0
 40
0
 40
0
 40
1
 40
1
 40
1
 40
1
 10
89.026873
 20
70.732941
 30
0.0
 10
88.851110
 20
70.506557
 30
0.0
 10
88.673082
 20
70.281941
 30
0.0
 10
88.492816
 20
70.059126
 30
0.0
  0
LWPOLYLINE
  5
164
100
AcDbEntity
  8
0
 62
7
100
AcDbPolyline
 90
31
 70
0
 10
90.633284
 20
72.944033
 30
0.0
 10
90.363320
 20
72.995893
 30
0.0
 10
90.031753
 20
73.066013
 30
0.0
 10
89.716493
 20
73.139623
 30
0.0
 10
89.420379
 20
73.215343
 30
0.0
 10
89.143393
 20
73.292383
 30
0.0
 10
88.882938
 20
73.370743
 30
0.0
 10
88.640543
 20
73.449253
 30
0.0
 10
88.410189
 20
73.529303
 30
0.0
 10
88.351709
 20
73.545343
 30
0.0
 10
88.307379
 20
73.548943
 30
0.0
 10
88.290669
 20
73.546243
 30
0.0
 10
88.277689
 20
73.540643
 30
0.0
 10
88.268489
 20
73.532243
 30
0.0
 10
88.191859
 20
73.424401
 30
0.0
 10
88.004603
 20
73.164760
 30
0.0
 10
87.815535
 20
72.906436
 30
0.0
 10
87.736655
 20
72.800228
 30
0.0
 10
87.731555
 20
72.788878
 30
0.0
 10
87.730255
 20
72.774808
 30
0.0
 10
87.732855
 20
72.758088
 30
0.0
 10
87.749945
 20
72.717028
 30
0.0
 10
87.783265
 20
72.666368
 30
0.0
 10
87.930577
 20
72.472026
 30
0.0
 10
88.080149
 20
72.265755
 30
0.0
 10
88.235156
 20
72.042260
 30
0.0
 10
88.394021
 20
71.802638
 30
0.0
 10
88.557542
 20
71.544417
 30
0.0
 10
88.724973
 20
71.267335
 30
0.0
 10
88.894123
 20
70.973665
 30
0.0
 10
89.026873
 20
70.732941
 30
0.0
  0
SPLINE
  5
165
100
AcDbEntity
  8
0
 62
7
100
AcDbSpline
 70
8
 71
3
 72
8
 73
4
 74
0
 40
0
 40
0
 40
0
 40
0
 40
1
 40
1
 40
1
 40
1
 10
86.706918
 20
67.990222
 30
0.0
 10
86.512827
 20
67.779340
 30
0.0
 10
86.316628
 20
67.570409
 30
0.0
 10
86.118349
 20
67.363460
 30
0.0
  0
LWPOLYLINE
  5
166
100
AcDbEntity
  8
0
 62
7
100
AcDbPolyline
 90
31
 70
0
 10
88.492816
 20
70.059126
 30
0.0
 10
88.228137
 20
70.133396
 30
0.0
 10
87.903601
 20
70.231016
 30
0.0
 10
87.595607
 20
70.330756
 30
0.0
 10
87.306868
 20
70.430992
 30
0.0
 10
87.037300
 20
70.530942
 30
0.0
 10
86.784315
 20
70.630822
 30
0.0
 10
86.549339
 20
70.729342
 30
0.0
 10
86.326491
 20
70.828382
 30
0.0
 10
86.269551
 20
70.849262
 30
0.0
 10
86.225681
 20
70.856562
 30
0.0
 10
86.208811
 20
70.855262
 30
0.0
 10
86.195411
 20
70.850762
 30
0.0
 10
86.185511
 20
70.843162
 30
0.0
 10
86.100121
 20
70.742111
 30
0.0
 10
85.891796
 20
70.499050
 30
0.0
 10
85.681775
 20
70.257452
 30
0.0
 10
85.594285
 20
70.158222
 30
0.0
 10
85.588185
 20
70.147342
 30
0.0
 10
85.585685
 20
70.133422
 30
0.0
 10
85.586885
 20
70.116542
 30
0.0
 10
85.600485
 20
70.074202
 30
0.0
 10
85.629455
 20
70.020932
 30
0.0
 10
85.759988
 20
69.814943
 30
0.0
 10
85.891776
 20
69.596879
 30
0.0
 10
86.027538
 20
69.361199
 30
0.0
 10
86.165794
 20
69.109124
 30
0.0
 10
86.307134
 20
68.838125
 30
0.0
 10
86.450793
 20
68.548005
 30
0.0
 10
86.594776
 20
68.241211
 30
0.0
 10
86.706918
 20
67.990222
 30
0.0
  0
SPLINE
  5
167
100
AcDbEntity
  8
0
 62
7
100
AcDbSpline
 70
8
 71
3
 72
8
 73
4
 74
0
 40
0
 40
0
 40
0
 40
0
 40
1
 40
1
 40
1
 40
1
 10
84.165654
 20
65.451333
 30
0.0
 10
83.954598
 20
65.257431
 30
0.0
 10
83.741604
 20
65.065650
 30
0.0
 10
83.526703
 20
64.876018
 30
0.0
  0
LWPOLYLINE
  5
168
100
AcDbEntity
  8
0
 62
7
100
AcDbPolyline
 90
31
 70
0
 10
86.118349
 20
67.363460
 30
0.0
 10
85.860814
 20
67.459620
 30
0.0
 10
85.545585
 20
67.584055
 30
0.0
 10
85.247017
 20
67.709214
 30
0.0
 10
84.967679
 20
67.833259
 30
0.0
 10
84.707420
 20
67.955414
 30
0.0
 10
84.463679
 20
68.076110
 30
0.0
 10
84.237771
 20
68.193945
 30
0.0
 10
84.023992
 20
68.311286
 30
0.0
 10
83.969002
 20
68.336856
 30
0.0
 10
83.925892
 20
68.347766
 30
0.0
 10
83.908972
 20
68.347893
 30
0.0
 10
83.895242
 20
68.344593
 30
0.0
 10
83.884772
 20
68.337893
 30
0.0
 10
83.791232
 20
68.244343
 30
0.0
 10
83.563299
 20
68.019566
 30
0.0
 10
83.333798
 20
67.796390
 30
0.0
 10
83.238308
 20
67.704830
 30
0.0
 10
83.231308
 20
67.694500
 30
0.0
 10
83.227708
 20
67.680840
 30
0.0
 10
83.227482
 20
67.663920
 30
0.0
 10
83.237482
 20
67.620590
 30
0.0
 10
83.261892
 20
67.565080
 30
0.0
 10
83.374730
 20
67.348891
 30
0.0
 10
83.487809
 20
67.120564
 30
0.0
 10
83.603373
 20
66.874349
 30
0.0
 10
83.720051
 20
66.611590
 30
0.0
 10
83.838219
 20
66.329715
 30
0.0
 10
83.957098
 20
66.028591
 30
0.0
 10
84.074904
 20
65.710825
 30
0.0
 10
84.165654
 20
65.451333
 30
0.0
  0
SPLINE
  5
169
100
AcDbEntity
  8
0
 62
7
100
AcDbSpline
 70
8
 71
3
 72
8
 73
4
 74
0
 40
0
 40
0
 40
0
 40
0
 40
1
 40
1
 40
1
 40
1
 10
81.420798
 20
63.133889
 30
0.0
 10
81.194257
 20
62.958328
 30
0.0
 10
80.965962
 20
62.785043
 30
0.0
 10
80.735947
 20
62.614059
 30
0.0
  0
LWPOLYLINE
  5
16a
100
AcDbEntity
  8
0
 62
7
100
AcDbPolyline
 90
31
 70
0
 10
83.526703
 20
64.876018
 30
0.0
 10
83.278118
 20
64.993391
 30
0.0
 10
82.974407
 20
65.143768
 30
0.0
 10
82.687358
 20
65.293471
 30
0.0
 10
82.419380
 20
65.440456
 30
0.0
 10
82.170256
 20
65.583961
 30
0.0
 10
81.937470
 20
65.724629
 30
0.0
 10
81.722214
 20
65.860954
 30
0.0
 10
81.519004
 20
65.995772
 30
0.0
 10
81.466344
 20
66.025852
 30
0.0
 10
81.424294
 20
66.040332
 30
0.0
 10
81.407444
 20
66.041832
 30
0.0
 10
81.393484
 20
66.039632
 30
0.0
 10
81.382484
 20
66.033832
 30
0.0
 10
81.281439
 20
65.948432
 30
0.0
 10
81.035496
 20
65.743517
 30
0.0
 10
80.788126
 20
65.540328
 30
0.0
 10
80.685308
 20
65.457078
 30
0.0
 10
80.677508
 20
65.447378
 30
0.0
 10
80.672708
 20
65.434068
 30
0.0
 10
80.671108
 20
65.417228
 30
0.0
 10
80.677408
 20
65.373208
 30
0.0
 10
80.697088
 20
65.315848
 30
0.0
 10
80.791438
 20
65.090974
 30
0.0
 10
80.885018
 20
64.853987
 30
0.0
 10
80.979578
 20
64.598965
 30
0.0
 10
81.073858
 20
64.327363
 30
0.0
 10
81.168028
 20
64.036589
 30
0.0
 10
81.261288
 20
63.726573
 30
0.0
 10
81.352088
 20
63.400064
 30
0.0
 10
81.420798
 20
63.133889
 30
0.0
  0
SPLINE
  5
16b
100
AcDbEntity
  8
0
 62
7
100
AcDbSpline
 70
8
 71
3
 72
8
 73
4
 74
0
 40
0
 40
0
 40
0
 40
0
 40
1
 40
1
 40
1
 40
1
 10
78.491764
 20
61.053792
 30
0.0
 10
78.251326
 20
60.897804
 30
0.0
 10
78.009332
 20
60.744229
 30
0.0
 10
77.765816
 20
60.593091
 30
0.0
  0
LWPOLYLINE
  5
16c
100
AcDbEntity
  8
0
 62
7
100
AcDbPolyline
 90
31
 70
0
 10
80.735947
 20
62.614059
 30
0.0
 10
80.498174
 20
62.751348
 30
0.0
 10
80.208111
 20
62.926611
 30
0.0
 10
79.934596
 20
63.099809
 30
0.0
 10
79.679856
 20
63.268701
 30
0.0
 10
79.443614
 20
63.432548
 30
0.0
 10
79.223416
 20
63.592202
 30
0.0
 10
79.020323
 20
63.746062
 30
0.0
 10
78.829106
 20
63.897411
 30
0.0
 10
78.779156
 20
63.931791
 30
0.0
 10
78.738466
 20
63.949741
 30
0.0
 10
78.721806
 20
63.952641
 30
0.0
 10
78.707706
 20
63.951641
 30
0.0
 10
78.696256
 20
63.946741
 30
0.0
 10
78.588419
 20
63.870101
 30
0.0
 10
78.326192
 20
63.686484
 30
0.0
 10
78.062687
 20
63.504707
 30
0.0
 10
77.953264
 20
63.430347
 30
0.0
 10
77.944664
 20
63.421347
 30
0.0
 10
77.938764
 20
63.408487
 30
0.0
 10
77.935764
 20
63.391847
 30
0.0
 10
77.938364
 20
63.347457
 30
0.0
 10
77.953174
 20
63.288657
 30
0.0
 10
78.028384
 20
63.056678
 30
0.0
 10
78.101804
 20
62.812691
 30
0.0
 10
78.174684
 20
62.550652
 30
0.0
 10
78.245904
 20
62.272113
 30
0.0
 10
78.315404
 20
61.974479
 30
0.0
 10
78.382404
 20
61.657746
 30
0.0
 10
78.445564
 20
61.324784
 30
0.0
 10
78.491764
 20
61.053792
 30
0.0
  0
SPLINE
  5
16d
100
AcDbEntity
  8
0
 62
7
100
AcDbSpline
 70
8
 71
3
 72
8
 73
4
 74
0
 40
0
 40
0
 40
0
 40
0
 40
1
 40
1
 40
1
 40
1
 10
75.398924
 20
59.226528
 30
0.0
 10
75.146277
 20
59.091206
 30
0.0
 10
74.892280
 20
58.958420
 30
0.0
 10
74.636972
 20
58.828189
 30
0.0
  0
LWPOLYLINE
  5
16e
100
AcDbEntity
  8
0
 62
7
100
AcDbPolyline
 90
31
 70
0
 10
77.765816
 20
60.593091
 30
0.0
 10
77.540286
 20
60.750277
 30
0.0
 10
77.265906
 20
60.949198
 30
0.0
 10
77.007843
 20
61.144675
 30
0.0
 10
76.768129
 20
61.334292
 30
0.0
 10
76.546426
 20
61.517333
 30
0.0
 10
76.340359
 20
61.694853
 30
0.0
 10
76.150853
 20
61.865167
 30
0.0
 10
75.972972
 20
62.031986
 30
0.0
 10
75.926072
 20
62.070426
 30
0.0
 10
75.887032
 20
62.091716
 30
0.0
 10
75.870672
 20
62.096016
 30
0.0
 10
75.856542
 20
62.096193
 30
0.0
 10
75.844722
 20
62.092293
 30
0.0
 10
75.730850
 20
62.024943
 30
0.0
 10
75.454178
 20
61.863913
 30
0.0
 10
75.176386
 20
61.704823
 30
0.0
 10
75.061124
 20
61.639883
 30
0.0
 10
75.051824
 20
61.631583
 30
0.0
 10
75.044924
 20
61.619253
 30
0.0
 10
75.040524
 20
61.602923
 30
0.0
 10
75.039424
 20
61.558463
 30
0.0
 10
75.049224
 20
61.498623
 30
0.0
 10
75.104754
 20
61.261164
 30
0.0
 10
75.157494
 20
61.011890
 30
0.0
 10
75.208194
 20
60.744670
 30
0.0
 10
75.255864
 20
60.461149
 30
0.0
 10
75.300224
 20
60.158742
 30
0.0
 10
75.340484
 20
59.837516
 30
0.0
 10
75.375564
 20
59.500435
 30
0.0
 10
75.398924
 20
59.226528
 30
0.0
  0
SPLINE
  5
16f
100
AcDbEntity
  8
0
 62
7
100
AcDbSpline
 70
8
 71
3
 72
8
 73
4
 74
0
 40
0
 40
0
 40
0
 40
0
 40
1
 40
1
 40
1
 40
1
 10
72.164045
 20
57.664558
 30
0.0
 10
71.900961
 20
57.550852
 30
0.0
 10
71.636743
 20
57.439785
 30
0.0
 10
71.371433
 20
57.331375
 30
0.0
  0
LWPOLYLINE
  5
170
100
AcDbEntity
  8
0
 62
7
100
AcDbPolyline
 90
31
 70
0
 10
74.636972
 20
58.828189
 30
0.0
 10
74.425386
 20
59.003696
 30
0.0
 10
74.168614
 20
59.224878
 30
0.0
 10
73.927813
 20
59.441264
 30
0.0
 10
73.704807
 20
59.650275
 30
0.0
 10
73.499197
 20
59.851225
 30
0.0
 10
73.308707
 20
60.045365
 30
0.0
 10
73.134117
 20
60.230939
 30
0.0
 10
72.970820
 20
60.412058
 30
0.0
 10
72.927300
 20
60.454288
 30
0.0
 10
72.890170
 20
60.478768
 30
0.0
 10
72.874230
 20
60.484468
 30
0.0
 10
72.860160
 20
60.485868
 30
0.0
 10
72.848050
 20
60.482968
 30
0.0
 10
72.728942
 20
60.425388
 30
0.0
 10
72.439765
 20
60.288074
 30
0.0
 10
72.149635
 20
60.152787
 30
0.0
 10
72.029344
 20
60.097717
 30
0.0
 10
72.019344
 20
60.090217
 30
0.0
 10
72.011444
 20
60.078507
 30
0.0
 10
72.005644
 20
60.062607
 30
0.0
 10
72.000844
 20
60.018398
 30
0.0
 10
72.005644
 20
59.957948
 30
0.0
 10
72.041104
 20
59.716675
 30
0.0
 10
72.072804
 20
59.463862
 30
0.0
 10
72.100964
 20
59.193337
 30
0.0
 10
72.124744
 20
58.906821
 30
0.0
 10
72.143644
 20
58.601763
 30
0.0
 10
72.156884
 20
58.278294
 30
0.0
 10
72.163684
 20
57.939460
 30
0.0
 10
72.164045
 20
57.664558
 30
0.0
  0
SPLINE
  5
171
100
AcDbEntity
  8
0
 62
7
100
AcDbSpline
 70
8
 71
3
 72
8
 73
4
 74
0
 40
0
 40
0
 40
0
 40
0
 40
1
 40
1
 40
1
 40
1
 10
68.809696
 20
56.378644
 30
0.0
 10
68.538020
 20
56.287350
 30
0.0
 10
68.265436
 20
56.198782
 30
0.0
 10
67.991984
 20
56.112953
 30
0.0
  0
LWPOLYLINE
  5
172
100
AcDbEntity
  8
0
 62
7
100
AcDbPolyline
 90
31
 70
0
 10
71.371433
 20
57.331375
 30
0.0
 10
71.175296
 20
57.523950
 30
0.0
 10
70.937932
 20
57.765843
 30
0.0
 10
70.716083
 20
58.001620
 30
0.0
 10
70.511348
 20
58.228558
 30
0.0
 10
70.323275
 20
58.446009
 30
0.0
 10
70.149698
 20
58.655408
 30
0.0
 10
69.991249
 20
58.854941
 30
0.0
 10
69.843680
 20
59.049089
 30
0.0
 10
69.803840
 20
59.094809
 30
0.0
 10
69.768890
 20
59.122309
 30
0.0
 10
69.753480
 20
59.129309
 30
0.0
 10
69.739570
 20
59.131809
 30
0.0
 10
69.727260
 20
59.129909
 30
0.0
 10
69.603752
 20
59.082489
 30
0.0
 10
69.304100
 20
58.969854
 30
0.0
 10
69.003666
 20
58.859319
 30
0.0
 10
68.879189
 20
58.814509
 30
0.0
 10
68.868629
 20
58.807909
 30
0.0
 10
68.859729
 20
58.796909
 30
0.0
 10
68.852629
 20
58.781539
 30
0.0
 10
68.844129
 20
58.737879
 30
0.0
 10
68.843849
 20
58.677239
 30
0.0
 10
68.858999
 20
58.433845
 30
0.0
 10
68.869429
 20
58.179266
 30
0.0
 10
68.874829
 20
57.907333
 30
0.0
 10
68.874546
 20
57.619833
 30
0.0
 10
68.867846
 20
57.314263
 30
0.0
 10
68.853966
 20
56.990820
 30
0.0
 10
68.832336
 20
56.652611
 30
0.0
 10
68.809696
 20
56.378644
 30
0.0
  0
SPLINE
  5
173
100
AcDbEntity
  8
0
 62
7
100
AcDbSpline
 70
8
 71
3
 72
8
 73
4
 74
0
 40
0
 40
0
 40
0
 40
0
 40
1
 40
1
 40
1
 40
1
 10
65.359544
 20
55.378082
 30
0.0
 10
65.081237
 20
55.309823
 30
0.0
 10
64.802252
 20
55.244354
 30
0.0
 10
64.522633
 20
55.181686
 30
0.0
  0
LWPOLYLINE
  5
174
100
AcDbEntity
  8
0
 62
7
100
AcDbPolyline
 90
31
 70
0
 10
67.991984
 20
56.112953
 30
0.0
 10
67.812739
 20
56.321330
 30
0.0
 10
67.596448
 20
56.582236
 30
0.0
 10
67.395106
 20
56.835750
 30
0.0
 10
67.210079
 20
57.079023
 30
0.0
 10
67.040862
 20
57.311449
 30
0.0
 10
66.885415
 20
57.534638
 30
0.0
 10
66.744219
 20
57.746730
 30
0.0
 10
66.613413
 20
57.952546
 30
0.0
 10
66.577543
 20
58.001446
 30
0.0
 10
66.545013
 20
58.031776
 30
0.0
 10
66.530243
 20
58.040076
 30
0.0
 10
66.516603
 20
58.043776
 30
0.0
 10
66.504173
 20
58.042912
 30
0.0
 10
66.377130
 20
58.006002
 30
0.0
 10
66.069104
 20
57.918842
 30
0.0
 10
65.760475
 20
57.833832
 30
0.0
 10
65.632684
 20
57.799592
 30
0.0
 10
65.621614
 20
57.793892
 30
0.0
 10
65.611814
 20
57.783672
 30
0.0
 10
65.603414
 20
57.768952
 30
0.0
 10
65.591304
 20
57.726162
 30
0.0
 10
65.585904
 20
57.665762
 30
0.0
 10
65.580604
 20
57.421953
 30
0.0
 10
65.569694
 20
57.167393
 30
0.0
 10
65.552354
 20
56.895961
 30
0.0
 10
65.528014
 20
56.609493
 30
0.0
 10
65.495774
 20
56.305556
 30
0.0
 10
65.454884
 20
55.984409
 30
0.0
 10
65.405034
 20
55.649194
 30
0.0
 10
65.359544
 20
55.378082
 30
0.0
  0
SPLINE
  5
175
100
AcDbEntity
  8
0
 62
7
100
AcDbSpline
 70
8
 71
3
 72
8
 73
4
 74
0
 40
0
 40
0
 40
0
 40
0
 40
1
 40
1
 40
1
 40
1
 10
61.837982
 20
54.669513
 30
0.0
 10
61.554885
 20
54.624822
 30
0.0
 10
61.271347
 20
54.582968
 30
0.0
 10
60.987411
 20
54.543960
 30
0.0
  0
LWPOLYLINE
  5
176
100
AcDbEntity
  8
0
 62
7
100
AcDbPolyline
 90
31
 70
0
 10
64.522633
 20
55.181686
 30
0.0
 10
64.361341
 20
55.404298
 30
0.0
 10
64.167642
 20
55.682388
 30
0.0
 10
63.988219
 20
55.951860
 30
0.0
 10
63.824198
 20
56.209764
 30
0.0
 10
63.675023
 20
56.455535
 30
0.0
 10
63.538798
 20
56.690948
 30
0.0
 10
63.415843
 20
56.914112
 30
0.0
 10
63.302718
 20
57.130150
 30
0.0
 10
63.271065
 20
57.181870
 30
0.0
 10
63.241192
 20
57.214820
 30
0.0
 10
63.227169
 20
57.224320
 30
0.0
 10
63.213881
 20
57.229120
 30
0.0
 10
63.201427
 20
57.229300
 30
0.0
 10
63.071741
 20
57.203150
 30
0.0
 10
62.757501
 20
57.142070
 30
0.0
 10
62.442841
 20
57.083190
 30
0.0
 10
62.312634
 20
57.059770
 30
0.0
 10
62.301120
 20
57.054970
 30
0.0
 10
62.290538
 20
57.045570
 30
0.0
 10
62.280988
 20
57.031600
 30
0.0
 10
62.265341
 20
56.989970
 30
0.0
 10
62.254952
 20
56.930231
 30
0.0
 10
62.229300
 20
56.687718
 30
0.0
 10
62.197132
 20
56.434964
 30
0.0
 10
62.157135
 20
56.165934
 30
0.0
 10
62.108910
 20
55.882507
 30
0.0
 10
62.051347
 20
55.582334
 30
0.0
 10
61.983724
 20
55.265735
 30
0.0
 10
61.905998
 20
54.935867
 30
0.0
 10
61.837982
 20
54.669513
 30
0.0
  0
SPLINE
  5
177
100
AcDbEntity
  8
0
 62
7
100
AcDbSpline
 70
8
 71
3
 72
8
 73
4
 74
0
 40
0
 40
0
 40
0
 40
0
 40
1
 40
1
 40
1
 40
1
 10
58.269320
 20
54.258263
 30
0.0
 10
57.983476
 20
54.237400
 30
0.0
 10
57.697429
 20
54.219403
 30
0.0
 10
57.411224
 20
54.204273
 30
0.0
  0
LWPOLYLINE
  5
178
100
AcDbEntity
  8
0
 62
7
100
AcDbPolyline
 90
31
 70
0
 10
60.987411
 20
54.543960
 30
0.0
 10
60.845313
 20
54.779287
 30
0.0
 10
60.675563
 20
55.072610
 30
0.0
 10
60.519319
 20
55.356152
 30
0.0
 10
60.377453
 20
55.626876
 30
0.0
 10
60.249367
 20
55.884267
 30
0.0
 10
60.133318
 20
56.130254
 30
0.0
 10
60.029469
 20
56.362924
 30
0.0
 10
59.934818
 20
56.587671
 30
0.0
 10
59.907604
 20
56.641861
 30
0.0
 10
59.880593
 20
56.677191
 30
0.0
 10
59.867412
 20
56.687801
 30
0.0
 10
59.854574
 20
56.693701
 30
0.0
 10
59.842178
 20
56.694901
 30
0.0
 10
59.710758
 20
56.679691
 30
0.0
 10
59.392509
 20
56.645111
 30
0.0
 10
59.074026
 20
56.612761
 30
0.0
 10
58.942315
 20
56.600321
 30
0.0
 10
58.930444
 20
56.596521
 30
0.0
 10
58.919115
 20
56.588121
 30
0.0
 10
58.908428
 20
56.575001
 30
0.0
 10
58.889353
 20
56.534831
 30
0.0
 10
58.874001
 20
56.476161
 30
0.0
 10
58.828146
 20
56.236646
 30
0.0
 10
58.774941
 20
55.987469
 30
0.0
 10
58.712572
 20
55.722729
 30
0.0
 10
58.640799
 20
55.444332
 30
0.0
 10
58.558320
 20
55.150028
 30
0.0
 10
58.464442
 20
54.840198
 30
0.0
 10
58.359386
 20
54.517992
 30
0.0
 10
58.269320
 20
54.258263
 30
0.0
  0
SPLINE
  5
179
100
AcDbEntity
  8
0
 62
7
100
AcDbSpline
 70
8
 71
3
 72
8
 73
4
 74
0
 40
0
 40
0
 40
0
 40
0
 40
1
 40
1
 40
1
 40
1
 10
54.678761
 20
54.147022
 30
0.0
 10
54.392173
 20
54.150163
 30
0.0
 10
54.105625
 20
54.156175
 30
0.0
 10
53.819158
 20
54.165059
 30
0.0
  0
LWPOLYLINE
  5
17a
100
AcDbEntity
  8
0
 62
7
100
AcDbPolyline
 90
31
 70
0
 10
57.411224
 20
54.204273
 30
0.0
 10
57.289317
 20
54.450683
 30
0.0
 10
57.144706
 20
54.757181
 30
0.0
 10
57.012736
 20
55.052802
 30
0.0
 10
56.894022
 20
55.334448
 30
0.0
 10
56.787923
 20
55.601655
 30
0.0
 10
56.692865
 20
55.856490
 30
0.0
 10
56.608849
 20
56.097033
 30
0.0
 10
56.533336
 20
56.328913
 30
0.0
 10
56.510752
 20
56.385193
 30
0.0
 10
56.486792
 20
56.422663
 30
0.0
 10
56.474545
 20
56.434343
 30
0.0
 10
56.462246
 20
56.441343
 30
0.0
 10
56.449996
 20
56.443643
 30
0.0
 10
56.317764
 20
56.439443
 30
0.0
 10
55.997738
 20
56.431643
 30
0.0
 10
55.677665
 20
56.426043
 30
0.0
 10
55.545375
 20
56.424643
 30
0.0
 10
55.533230
 20
56.421843
 30
0.0
 10
55.521234
 20
56.414343
 30
0.0
 10
55.509486
 20
56.402163
 30
0.0
 10
55.487116
 20
56.363723
 30
0.0
 10
55.466909
 20
56.306543
 30
0.0
 10
55.401173
 20
56.071705
 30
0.0
 10
55.327304
 20
55.827854
 30
0.0
 10
55.243001
 20
55.569262
 30
0.0
 10
55.148184
 20
55.297847
 30
0.0
 10
55.041368
 20
55.011477
 30
0.0
 10
54.921893
 20
54.710589
 30
0.0
 10
54.790244
 20
54.398304
 30
0.0
 10
54.678761
 20
54.147022
 30
0.0
  0
SPLINE
  5
17b
100
AcDbEntity
  8
0
 62
7
100
AcDbSpline
 70
8
 71
3
 72
8
 73
4
 74
0
 40
0
 40
0
 40
0
 40
0
 40
1
 40
1
 40
1
 40
1
 10
51.091490
 20
54.336793
 30
0.0
 10
50.806169
 20
54.363892
 30
0.0
 10
50.521127
 20
54.393851
 30
0.0
 10
50.236406
 20
54.426663
 30
0.0
  0
LWPOLYLINE
  5
17c
100
AcDbEntity
  8
0
 62
7
100
AcDbPolyline
 90
31
 70
0
 10
53.819158
 20
54.165059
 30
0.0
 10
53.718295
 20
54.420789
 30
0.0
 10
53.599839
 20
54.738313
 30
0.0
 10
53.493068
 20
55.043940
 30
0.0
 10
53.398338
 20
55.334532
 30
0.0
 10
53.314970
 20
55.609680
 30
0.0
 10
53.241570
 20
55.871575
 30
0.0
 10
53.177978
 20
56.118305
 30
0.0
 10
53.122133
 20
56.355690
 30
0.0
 10
53.104338
 20
56.413660
 30
0.0
 10
53.083597
 20
56.453000
 30
0.0
 10
53.072370
 20
56.465660
 30
0.0
 10
53.060697
 20
56.473660
 30
0.0
 10
53.048679
 20
56.476960
 30
0.0
 10
52.916562
 20
56.483860
 30
0.0
 10
52.597004
 20
56.502840
 30
0.0
 10
52.277586
 20
56.524060
 30
0.0
 10
52.145644
 20
56.533760
 30
0.0
 10
52.133311
 20
56.532060
 30
0.0
 10
52.120732
 20
56.525660
 30
0.0
 10
52.108007
 20
56.514510
 30
0.0
 10
52.082499
 20
56.478080
 30
0.0
 10
52.057578
 20
56.422790
 30
0.0
 10
51.972421
 20
56.194276
 30
0.0
 10
51.878406
 20
55.957462
 30
0.0
 10
51.772761
 20
55.706831
 30
0.0
 10
51.655565
 20
55.444302
 30
0.0
 10
51.525161
 20
55.167875
 30
0.0
 10
51.380927
 20
54.878039
 30
0.0
 10
51.223609
 20
54.577865
 30
0.0
 10
51.091490
 20
54.336793
 30
0.0
  0
SPLINE
  5
17d
100
AcDbEntity
  8
0
 62
7
100
AcDbSpline
 70
8
 71
3
 72
8
 73
4
 74
0
 40
0
 40
0
 40
0
 40
0
 40
1
 40
1
 40
1
 40
1
 10
47.532664
 20
54.825915
 30
0.0
 10
47.250611
 20
54.876795
 30
0.0
 10
46.969076
 20
54.930501
 30
0.0
 10
46.688100
 20
54.987025
 30
0.0
  0
LWPOLYLINE
  5
17e
100
AcDbEntity
  8
0
 62
7
100
AcDbPolyline
 90
31
 70
0
 10
50.236406
 20
54.426663
 30
0.0
 10
50.157296
 20
54.689936
 30
0.0
 10
50.065826
 20
55.016259
 30
0.0
 10
49.985004
 20
55.329749
 30
0.0
 10
49.914922
 20
55.627248
 30
0.0
 10
49.854870
 20
55.908407
 30
0.0
 10
49.803642
 20
56.175526
 30
0.0
 10
49.760918
 20
56.426712
 30
0.0
 10
49.725133
 20
56.667937
 30
0.0
 10
49.712251
 20
56.727197
 30
0.0
 10
49.694875
 20
56.768137
 30
0.0
 10
49.684746
 20
56.781697
 30
0.0
 10
49.673781
 20
56.790597
 30
0.0
 10
49.662079
 20
56.794897
 30
0.0
 10
49.531005
 20
56.812847
 30
0.0
 10
49.214155
 20
56.858507
 30
0.0
 10
48.897633
 20
56.906377
 30
0.0
 10
48.766966
 20
56.927077
 30
0.0
 10
48.754530
 20
56.926376
 30
0.0
 10
48.741456
 20
56.920976
 30
0.0
 10
48.727842
 20
56.910926
 30
0.0
 10
48.699375
 20
56.876756
 30
0.0
 10
48.669916
 20
56.823756
 30
0.0
 10
48.565936
 20
56.603169
 30
0.0
 10
48.452435
 20
56.375053
 30
0.0
 10
48.326187
 20
56.134141
 30
0.0
 10
48.187435
 20
55.882339
 30
0.0
 10
48.034357
 20
55.617793
 30
0.0
 10
47.866377
 20
55.341044
 30
0.0
 10
47.684492
 20
55.055086
 30
0.0
 10
47.532664
 20
54.825915
 30
0.0
  0
SPLINE
  5
17f
100
AcDbEntity
  8
0
 62
7
100
AcDbSpline
 70
8
 71
3
 72
8
 73
4
 74
0
 40
0
 40
0
 40
0
 40
0
 40
1
 40
1
 40
1
 40
1
 10
44.027247
 20
55.611021
 30
0.0
 10
43.750441
 20
55.685324
 30
0.0
 10
43.474387
 20
55.762399
 30
0.0
 10
43.199126
 20
55.842236
 30
0.0
  0
LWPOLYLINE
  5
180
100
AcDbEntity
  8
0
 62
7
100
AcDbPolyline
 90
31
 70
0
 10
46.688100
 20
54.987025
 30
0.0
 10
46.631297
 20
55.255994
 30
0.0
 10
46.567453
 20
55.588827
 30
0.0
 10
46.513147
 20
55.907980
 30
0.0
 10
46.468205
 20
56.210300
 30
0.0
 10
46.431891
 20
56.495498
 30
0.0
 10
46.403195
 20
56.765967
 30
0.0
 10
46.381639
 20
57.019846
 30
0.0
 10
46.366165
 20
57.263219
 30
0.0
 10
46.358285
 20
57.323349
 30
0.0
 10
46.344395
 20
57.365599
 30
0.0
 10
46.335435
 20
57.379949
 30
0.0
 10
46.325255
 20
57.389749
 30
0.0
 10
46.313951
 20
57.394949
 30
0.0
 10
46.184839
 20
57.423809
 30
0.0
 10
45.872921
 20
57.495819
 30
0.0
 10
45.561515
 20
57.570009
 30
0.0
 10
45.433038
 20
57.601569
 30
0.0
 10
45.420587
 20
57.601911
 30
0.0
 10
45.407109
 20
57.597611
 30
0.0
 10
45.392702
 20
57.588711
 30
0.0
 10
45.361476
 20
57.557041
 30
0.0
 10
45.327685
 20
57.506691
 30
0.0
 10
45.205612
 20
57.295579
 30
0.0
 10
45.073421
 20
57.077760
 30
0.0
 10
44.927457
 20
56.848258
 30
0.0
 10
44.768121
 20
56.608950
 30
0.0
 10
44.593443
 20
56.358141
 30
0.0
 10
44.402894
 20
56.096418
 30
0.0
 10
44.197719
 20
55.826683
 30
0.0
 10
44.027247
 20
55.611021
 30
0.0
  0
SPLINE
  5
181
100
AcDbEntity
  8
0
 62
7
100
AcDbSpline
 70
8
 71
3
 72
8
 73
4
 74
0
 40
0
 40
0
 40
0
 40
0
 40
1
 40
1
 40
1
 40
1
 10
40.599793
 20
56.686913
 30
0.0
 10
40.330175
 20
56.784118
 30
0.0
 10
40.061539
 20
56.884023
 30
0.0
 10
39.793924
 20
56.986612
 30
0.0
  0
LWPOLYLINE
  5
182
100
AcDbEntity
  8
0
 62
7
100
AcDbPolyline
 90
31
 70
0
 10
43.199126
 20
55.842236
 30
0.0
 10
43.165026
 20
56.115016
 30
0.0
 10
43.129256
 20
56.452023
 30
0.0
 10
43.101846
 20
56.774601
 30
0.0
 10
43.082356
 20
57.079621
 30
0.0
 10
43.070036
 20
57.366857
 30
0.0
 10
43.064036
 20
57.638779
 30
0.0
 10
43.063800
 20
57.893572
 30
0.0
 10
43.068700
 20
58.137387
 30
0.0
 10
43.065900
 20
58.197967
 30
0.0
 10
43.055590
 20
58.241227
 30
0.0
 10
43.047890
 20
58.256277
 30
0.0
 10
43.038590
 20
58.266897
 30
0.0
 10
43.027760
 20
58.273097
 30
0.0
 10
42.901515
 20
58.312657
 30
0.0
 10
42.596717
 20
58.410517
 30
0.0
 10
42.292611
 20
58.510507
 30
0.0
 10
42.167225
 20
58.552707
 30
0.0
 10
42.154845
 20
58.554107
 30
0.0
 10
42.141055
 20
58.551007
 30
0.0
 10
42.125955
 20
58.543407
 30
0.0
 10
42.092185
 20
58.514467
 30
0.0
 10
42.054295
 20
58.467117
 30
0.0
 10
41.914986
 20
58.266960
 30
0.0
 10
41.765031
 20
58.060967
 30
0.0
 10
41.600375
 20
57.844483
 30
0.0
 10
41.421573
 20
57.619347
 30
0.0
 10
41.226521
 20
57.384034
 30
0.0
 10
41.014740
 20
57.139174
 30
0.0
 10
40.787713
 20
56.887555
 30
0.0
 10
40.599793
 20
56.686913
 30
0.0
  0
SPLINE
  5
183
100
AcDbEntity
  8
0
 62
7
100
AcDbSpline
 70
8
 71
3
 72
8
 73
4
 74
0
 40
0
 40
0
 40
0
 40
0
 40
1
 40
1
 40
1
 40
1
 10
37.274589
 20
58.045752
 30
0.0
 10
37.014051
 20
58.165177
 30
0.0
 10
36.754717
 20
58.287211
 30
0.0
 10
36.496625
 20
58.411834
 30
0.0
  0
LWPOLYLINE
  5
184
100
AcDbEntity
  8
0
 62
7
100
AcDbPolyline
 90
31
 70
0
 10
39.793924
 20
56.986612
 30
0.0
 10
39.782774
 20
57.261288
 30
0.0
 10
39.775374
 20
57.600107
 30
0.0
 10
39.775054
 20
57.923847
 30
0.0
 10
39.781154
 20
58.229429
 30
0.0
 10
39.792914
 20
58.516688
 30
0.0
 10
39.809724
 20
58.788155
 30
0.0
 10
39.830814
 20
59.042075
 30
0.0
 10
39.856144
 20
59.284621
 30
0.0
 10
39.858444
 20
59.345221
 30
0.0
 10
39.851844
 20
59.389191
 30
0.0
 10
39.845444
 20
59.404841
 30
0.0
 10
39.837044
 20
59.416201
 30
0.0
 10
39.826774
 20
59.423201
 30
0.0
 10
39.704282
 20
59.473181
 30
0.0
 10
39.408741
 20
59.596200
 30
0.0
 10
39.114068
 20
59.721284
 30
0.0
 10
38.992654
 20
59.773834
 30
0.0
 10
38.980434
 20
59.776234
 30
0.0
 10
38.966434
 20
59.774334
 30
0.0
 10
38.950744
 20
59.768034
 30
0.0
 10
38.914674
 20
59.742014
 30
0.0
 10
38.872955
 20
59.698004
 30
0.0
 10
38.717385
 20
59.510206
 30
0.0
 10
38.550719
 20
59.317482
 30
0.0
 10
38.368525
 20
59.115536
 30
0.0
 10
38.171511
 20
58.906151
 30
0.0
 10
37.957453
 20
58.687985
 30
0.0
 10
37.725925
 20
58.461705
 30
0.0
 10
37.478640
 20
58.229965
 30
0.0
 10
37.274589
 20
58.045752
 30
0.0
  0
SPLINE
  5
185
100
AcDbEntity
  8
0
 62
7
100
AcDbSpline
 70
8
 71
3
 72
8
 73
4
 74
0
 40
0
 40
0
 40
0
 40
0
 40
1
 40
1
 40
1
 40
1
 10
34.074685
 20
59.678064
 30
0.0
 10
33.825054
 20
59.818871
 30
0.0
 10
33.576841
 20
59.962177
 30
0.0
 10
33.330082
 20
60.107960
 30
0.0
  0
LWPOLYLINE
  5
186
100
AcDbEntity
  8
0
 62
7
100
AcDbPolyline
 90
31
 70
0
 10
36.496625
 20
58.411834
 30
0.0
 10
36.508495
 20
58.686479
 30
0.0
 10
36.529425
 20
59.024733
 30
0.0
 10
36.556195
 20
59.347365
 30
0.0
 10
36.587845
 20
59.651364
 30
0.0
 10
36.623595
 20
59.936632
 30
0.0
 10
36.663065
 20
60.205739
 30
0.0
 10
36.705325
 20
60.457004
 30
0.0
 10
36.750865
 20
60.696580
 30
0.0
 10
36.758165
 20
60.756780
 30
0.0
 10
36.755265
 20
60.801160
 30
0.0
 10
36.750165
 20
60.817290
 30
0.0
 10
36.742765
 20
60.829320
 30
0.0
 10
36.733165
 20
60.837220
 30
0.0
 10
36.615286
 20
60.897280
 30
0.0
 10
36.331075
 20
61.044598
 30
0.0
 10
36.047903
 20
61.193901
 30
0.0
 10
35.931311
 20
61.256421
 30
0.0
 10
35.919341
 20
61.259821
 30
0.0
 10
35.905231
 20
61.259052
 30
0.0
 10
35.889071
 20
61.254052
 30
0.0
 10
35.850951
 20
61.231142
 30
0.0
 10
35.805701
 20
61.190772
 30
0.0
 10
35.634963
 20
61.016651
 30
0.0
 10
35.452754
 20
60.838550
 30
0.0
 10
35.254301
 20
60.652557
 30
0.0
 10
35.040458
 20
60.460392
 30
0.0
 10
34.808894
 20
60.260904
 30
0.0
 10
34.559244
 20
60.054791
 30
0.0
 10
34.293434
 20
59.844556
 30
0.0
 10
34.074685
 20
59.678064
 30
0.0
  0
SPLINE
  5
187
100
AcDbEntity
  8
0
 62
7
100
AcDbSpline
 70
8
 71
3
 72
8
 73
4
 74
0
 40
0
 40
0
 40
0
 40
0
 40
1
 40
1
 40
1
 40
1
 10
31.022459
 20
61.572475
 30
0.0
 10
30.785486
 20
61.733677
 30
0.0
 10
30.550135
 20
61.897251
 30
0.0
 10
30.316440
 20
62.063171
 30
0.0
  0
LWPOLYLINE
  5
188
100
AcDbEntity
  8
0
 62
7
100
AcDbPolyline
 90
31
 70
0
 10
33.330082
 20
60.107960
 30
0.0
 10
33.364892
 20
60.380649
 30
0.0
 10
33.414052
 20
60.715964
 30
0.0
 10
33.467722
 20
61.035224
 30
0.0
 10
33.524702
 20
61.335508
 30
0.0
 10
33.584202
 20
61.616785
 30
0.0
 10
33.646052
 20
61.881647
 30
0.0
 10
33.709192
 20
62.128494
 30
0.0
 10
33.774612
 20
62.363419
 30
0.0
 10
33.786942
 20
62.422789
 30
0.0
 10
33.787719
 20
62.467259
 30
0.0
 10
33.784019
 20
62.483759
 30
0.0
 10
33.777619
 20
62.496369
 30
0.0
 10
33.768619
 20
62.505069
 30
0.0
 10
33.656178
 20
62.574779
 30
0.0
 10
33.385291
 20
62.745363
 30
0.0
 10
33.115605
 20
62.917837
 30
0.0
 10
33.004654
 20
62.989897
 30
0.0
 10
32.993004
 20
62.994297
 30
0.0
 10
32.978874
 20
62.994711
 30
0.0
 10
32.962354
 20
62.991111
 30
0.0
 10
32.922454
 20
62.971471
 30
0.0
 10
32.873984
 20
62.935031
 30
0.0
 10
32.689273
 20
62.775808
 30
0.0
 10
32.492802
 20
62.613578
 30
0.0
 10
32.279482
 20
62.444844
 30
0.0
 10
32.050308
 20
62.271247
 30
0.0
 10
31.802864
 20
62.091835
 30
0.0
 10
31.536842
 20
61.907335
 30
0.0
 10
31.254373
 20
61.720079
 30
0.0
 10
31.022459
 20
61.572475
 30
0.0
  0
SPLINE
  5
189
100
AcDbEntity
  8
0
 62
7
100
AcDbSpline
 70
8
 71
3
 72
8
 73
4
 74
0
 40
0
 40
0
 40
0
 40
0
 40
1
 40
1
 40
1
 40
1
 10
28.139536
 20
63.715664
 30
0.0
 10
27.916883
 20
63.896131
 30
0.0
 10
27.696045
 20
64.078824
 30
0.0
 10
27.477054
 20
64.263717
 30
0.0
  0
LWPOLYLINE
  5
18a
100
AcDbEntity
  8
0
 62
7
100
AcDbPolyline
 90
31
 70
0
 10
30.316440
 20
62.063171
 30
0.0
 10
30.373950
 20
62.331990
 30
0.0
 10
30.451000
 20
62.662016
 30
0.0
 10
30.531200
 20
62.975665
 30
0.0
 10
30.613110
 20
63.270127
 30
0.0
 10
30.695940
 20
63.545438
 30
0.0
 10
30.779730
 20
63.804196
 30
0.0
 10
30.863300
 20
64.044895
 30
0.0
 10
30.948150
 20
64.273521
 30
0.0
 10
30.965410
 20
64.331651
 30
0.0
 10
30.969910
 20
64.375891
 30
0.0
 10
30.967610
 20
64.392651
 30
0.0
 10
30.962310
 20
64.405751
 30
0.0
 10
30.954110
 20
64.415151
 30
0.0
 10
30.847896
 20
64.494021
 30
0.0
 10
30.592234
 20
64.686673
 30
0.0
 10
30.337926
 20
64.881110
 30
0.0
 10
30.233394
 20
64.962200
 30
0.0
 10
30.222154
 20
64.967600
 30
0.0
 10
30.208114
 20
64.969200
 30
0.0
 10
30.191344
 20
64.967000
 30
0.0
 10
30.149934
 20
64.950770
 30
0.0
 10
30.098584
 20
64.918510
 30
0.0
 10
29.901198
 20
64.775301
 30
0.0
 10
29.691840
 20
64.630081
 30
0.0
 10
29.465149
 20
64.479788
 30
0.0
 10
29.222253
 20
64.325977
 30
0.0
 10
28.960664
 20
64.167900
 30
0.0
 10
28.680136
 20
64.006307
 30
0.0
 10
28.382988
 20
63.843344
 30
0.0
 10
28.139536
 20
63.715664
 30
0.0
  0
SPLINE
  5
18b
100
AcDbEntity
  8
0
 62
7
100
AcDbSpline
 70
8
 71
3
 72
8
 73
4
 74
0
 40
0
 40
0
 40
0
 40
0
 40
1
 40
1
 40
1
 40
1
 10
25.445991
 20
66.092527
 30
0.0
 10
25.239220
 20
66.290991
 30
0.0
 10
25.034443
 20
66.491523
 30
0.0
 10
24.831692
 20
66.694092
 30
0.0
  0
LWPOLYLINE
  5
18c
100
AcDbEntity
  8
0
 62
7
100
AcDbPolyline
 90
31
 70
0
 10
27.477054
 20
64.263717
 30
0.0
 10
27.556854
 20
64.526782
 30
0.0
 10
27.661251
 20
64.849202
 30
0.0
 10
27.767415
 20
65.155041
 30
0.0
 10
27.873676
 20
65.441617
 30
0.0
 10
27.979248
 20
65.709032
 30
0.0
 10
28.084401
 20
65.959871
 30
0.0
 10
28.187819
 20
66.192732
 30
0.0
 10
28.291505
 20
66.413456
 30
0.0
 10
28.313565
 20
66.469946
 30
0.0
 10
28.321765
 20
66.513656
 30
0.0
 10
28.320830
 20
66.530556
 30
0.0
 10
28.316630
 20
66.544046
 30
0.0
 10
28.309230
 20
66.554076
 30
0.0
 10
28.209990
 20
66.641566
 30
0.0
 10
27.971345
 20
66.854936
 30
0.0
 10
27.734199
 20
67.069971
 30
0.0
 10
27.636819
 20
67.159521
 30
0.0
 10
27.626069
 20
67.165821
 30
0.0
 10
27.612209
 20
67.168621
 30
0.0
 10
27.595309
 20
67.167785
 30
0.0
 10
27.552689
 20
67.155075
 30
0.0
 10
27.498819
 20
67.127225
 30
0.0
 10
27.290142
 20
67.001035
 30
0.0
 10
27.069366
 20
66.873842
 30
0.0
 10
26.830893
 20
66.743046
 30
0.0
 10
26.575979
 20
66.610099
 30
0.0
 10
26.302080
 20
66.474465
 30
0.0
 10
26.009015
 20
66.336914
 30
0.0
 10
25.699273
 20
66.199388
 30
0.0
 10
25.445991
 20
66.092527
 30
0.0
  0
SPLINE
  5
18d
100
AcDbEntity
  8
0
 62
7
100
AcDbSpline
 70
8
 71
3
 72
8
 73
4
 74
0
 40
0
 40
0
 40
0
 40
0
 40
1
 40
1
 40
1
 40
1
 10
22.960760
 20
68.686416
 30
0.0
 10
22.771321
 20
68.901487
 30
0.0
 10
22.584043
 20
69.118451
 30
0.0
 10
22.398953
 20
69.337276
 30
0.0
  0
LWPOLYLINE
  5
18e
100
AcDbEntity
  8
0
 62
7
100
AcDbPolyline
 90
31
 70
0
 10
24.831692
 20
66.694092
 30
0.0
 10
24.933225
 20
66.949557
 30
0.0
 10
25.064234
 20
67.262111
 30
0.0
 10
25.195619
 20
67.557993
 30
0.0
 10
25.325487
 20
67.834672
 30
0.0
 10
25.453066
 20
68.092316
 30
0.0
 10
25.578839
 20
68.333475
 30
0.0
 10
25.701380
 20
68.556866
 30
0.0
 10
25.823172
 20
68.768141
 30
0.0
 10
25.849882
 20
68.822581
 30
0.0
 10
25.861692
 20
68.865451
 30
0.0
 10
25.862174
 20
68.882371
 30
0.0
 10
25.859074
 20
68.896171
 30
0.0
 10
25.852574
 20
68.906781
 30
0.0
 10
25.761004
 20
69.002261
 30
0.0
 10
25.541051
 20
69.234852
 30
0.0
 10
25.322730
 20
69.468975
 30
0.0
 10
25.233180
 20
69.566365
 30
0.0
 10
25.223000
 20
69.573565
 30
0.0
 10
25.209420
 20
69.577465
 30
0.0
 10
25.192510
 20
69.578046
 30
0.0
 10
25.148980
 20
69.568946
 30
0.0
 10
25.092970
 20
69.545706
 30
0.0
 10
24.874465
 20
69.437421
 30
0.0
 10
24.643821
 20
69.329149
 30
0.0
 10
24.395239
 20
69.218767
 30
0.0
 10
24.130094
 20
69.107617
 30
0.0
 10
23.845806
 20
68.995378
 30
0.0
 10
23.542258
 20
68.882832
 30
0.0
 10
23.222095
 20
68.771706
 30
0.0
 10
22.960760
 20
68.686416
 30
0.0
  0
SPLINE
  5
18f
100
AcDbEntity
  8
0
 62
7
100
AcDbSpline
 70
8
 71
3
 72
8
 73
4
 74
0
 40
0
 40
0
 40
0
 40
0
 40
1
 40
1
 40
1
 40
1
 10
20.701377
 20
71.479176
 30
0.0
 10
20.530600
 20
71.709344
 30
0.0
 10
20.362133
 20
71.941218
 30
0.0
 10
20.196004
 20
72.174764
 30
0.0
  0
LWPOLYLINE
  5
190
100
AcDbEntity
  8
0
 62
7
100
AcDbPolyline
 90
31
 70
0
 10
22.398953
 20
69.337276
 30
0.0
 10
22.521506
 20
69.583347
 30
0.0
 10
22.678210
 20
69.883843
 30
0.0
 10
22.833893
 20
70.167693
 30
0.0
 10
22.986457
 20
70.432535
 30
0.0
 10
23.135148
 20
70.678599
 30
0.0
 10
23.280660
 20
70.908389
 30
0.0
 10
23.421463
 20
71.120742
 30
0.0
 10
23.560507
 20
71.321084
 30
0.0
 10
23.591677
 20
71.373104
 30
0.0
 10
23.607037
 20
71.414844
 30
0.0
 10
23.608937
 20
71.431664
 30
0.0
 10
23.607037
 20
71.445674
 30
0.0
 10
23.601437
 20
71.456794
 30
0.0
 10
23.518177
 20
71.559606
 30
0.0
 10
23.318458
 20
71.809786
 30
0.0
 10
23.120494
 20
72.061358
 30
0.0
 10
23.039414
 20
72.165896
 30
0.0
 10
23.029914
 20
72.173896
 30
0.0
 10
23.016714
 20
72.178896
 30
0.0
 10
22.999914
 20
72.180896
 30
0.0
 10
22.955774
 20
72.175496
 30
0.0
 10
22.898014
 20
72.157026
 30
0.0
 10
22.671214
 20
72.067406
 30
0.0
 10
22.432319
 20
71.978816
 30
0.0
 10
22.175373
 20
71.889616
 30
0.0
 10
21.901856
 20
71.801046
 30
0.0
 10
21.609173
 20
71.712986
 30
0.0
 10
21.297273
 20
71.626236
 30
0.0
 10
20.968933
 20
71.542296
 30
0.0
 10
20.701377
 20
71.479176
 30
0.0
  0
SPLINE
  5
191
100
AcDbEntity
  8
0
 62
7
100
AcDbSpline
 70
8
 71
3
 72
8
 73
4
 74
0
 40
0
 40
0
 40
0
 40
0
 40
1
 40
1
 40
1
 40
1
 10
18.683558
 20
74.451212
 30
0.0
 10
18.532639
 20
74.694863
 30
0.0
 10
18.384167
 20
74.940020
 30
0.0
 10
18.238162
 20
75.186648
 30
0.0
  0
LWPOLYLINE
  5
192
100
AcDbEntity
  8
0
 62
7
100
AcDbPolyline
 90
31
 70
0
 10
20.196004
 20
72.174764
 30
0.0
 10
20.338718
 20
72.409718
 30
0.0
 10
20.520017
 20
72.696046
 30
0.0
 10
20.698905
 20
72.965874
 30
0.0
 10
20.873096
 20
73.217021
 30
0.0
 10
21.041855
 20
73.449780
 30
0.0
 10
21.206085
 20
73.666587
 30
0.0
 10
21.364164
 20
73.866414
 30
0.0
 10
21.519485
 20
74.054418
 30
0.0
 10
21.554905
 20
74.103638
 30
0.0
 10
21.573705
 20
74.143948
 30
0.0
 10
21.577005
 20
74.160548
 30
0.0
 10
21.576295
 20
74.174668
 30
0.0
 10
21.571595
 20
74.186218
 30
0.0
 10
21.497225
 20
74.295636
 30
0.0
 10
21.319141
 20
74.561651
 30
0.0
 10
21.142922
 20
74.828905
 30
0.0
 10
21.070872
 20
74.939862
 30
0.0
 10
21.062072
 20
74.948662
 30
0.0
 10
21.049332
 20
74.954762
 30
0.0
 10
21.032752
 20
74.958162
 30
0.0
 10
20.988312
 20
74.956462
 30
0.0
 10
20.929212
 20
74.942892
 30
0.0
 10
20.695709
 20
74.872562
 30
0.0
 10
20.450238
 20
74.804272
 30
0.0
 10
20.186730
 20
74.736892
 30
0.0
 10
19.906761
 20
74.671512
 30
0.0
 10
19.607737
 20
74.608252
 30
0.0
 10
19.289670
 20
74.547902
 30
0.0
 10
18.955458
 20
74.491722
 30
0.0
 10
18.683558
 20
74.451212
 30
0.0
  0
SPLINE
  5
193
100
AcDbEntity
  8
0
 62
7
100
AcDbSpline
 70
8
 71
3
 72
8
 73
4
 74
0
 40
0
 40
0
 40
0
 40
0
 40
1
 40
1
 40
1
 40
1
 10
16.921473
 20
77.581705
 30
0.0
 10
16.791471
 20
77.837130
 30
0.0
 10
16.664033
 20
78.093853
 30
0.0
 10
16.539178
 20
78.351833
 30
0.0
  0
LWPOLYLINE
  5
194
100
AcDbEntity
  8
0
 62
7
100
AcDbPolyline
 90
31
 70
0
 10
18.238162
 20
75.186648
 30
0.0
 10
18.400037
 20
75.408837
 30
0.0
 10
18.604659
 20
75.678990
 30
0.0
 10
18.805499
 20
75.932902
 30
0.0
 10
19.000094
 20
76.168592
 30
0.0
 10
19.187738
 20
76.386414
 30
0.0
 10
19.369534
 20
76.588718
 30
0.0
 10
19.543780
 20
76.774616
 30
0.0
 10
19.714288
 20
76.948965
 30
0.0
 10
19.753698
 20
76.995055
 30
0.0
 10
19.775798
 20
77.033645
 30
0.0
 10
19.780498
 20
77.049905
 30
0.0
 10
19.780971
 20
77.064025
 30
0.0
 10
19.777271
 20
77.075925
 30
0.0
 10
19.712321
 20
77.191182
 30
0.0
 10
19.557121
 20
77.471166
 30
0.0
 10
19.403883
 20
77.752229
 30
0.0
 10
19.341373
 20
77.868825
 30
0.0
 10
19.333273
 20
77.878325
 30
0.0
 10
19.321093
 20
77.885525
 30
0.0
 10
19.304853
 20
77.890325
 30
0.0
 10
19.260423
 20
77.892325
 30
0.0
 10
19.200393
 20
77.883725
 30
0.0
 10
18.961824
 20
77.833185
 30
0.0
 10
18.711499
 20
77.785675
 30
0.0
 10
18.443276
 20
77.740585
 30
0.0
 10
18.158819
 20
77.698865
 30
0.0
 10
17.855550
 20
77.660855
 30
0.0
 10
17.533549
 20
77.627335
 30
0.0
 10
17.195808
 20
77.599325
 30
0.0
 10
16.921473
 20
77.581705
 30
0.0
  0
SPLINE
  5
195
100
AcDbEntity
  8
0
 62
7
100
AcDbSpline
 70
8
 71
3
 72
8
 73
4
 74
0
 40
0
 40
0
 40
0
 40
0
 40
1
 40
1
 40
1
 40
1
 10
15.427482
 20
80.848620
 30
0.0
 10
15.319310
 20
81.114027
 30
0.0
 10
15.213801
 20
81.380512
 30
0.0
 10
15.110971
 20
81.648035
 30
0.0
  0
LWPOLYLINE
  5
196
100
AcDbEntity
  8
0
 62
7
100
AcDbPolyline
 90
31
 70
0
 10
16.539178
 20
78.351833
 30
0.0
 10
16.719078
 20
78.559696
 30
0.0
 10
16.945589
 20
78.811779
 30
0.0
 10
17.166969
 20
79.047995
 30
0.0
 10
17.380604
 20
79.266576
 30
0.0
 10
17.585817
 20
79.467932
 30
0.0
 10
17.783904
 20
79.654314
 30
0.0
 10
17.973094
 20
79.824980
 30
0.0
 10
18.157593
 20
79.984449
 30
0.0
 10
18.200723
 20
80.027079
 30
0.0
 10
18.225973
 20
80.063689
 30
0.0
 10
18.231973
 20
80.079499
 30
0.0
 10
18.233673
 20
80.093539
 30
0.0
 10
18.230973
 20
80.105709
 30
0.0
 10
18.175893
 20
80.225997
 30
0.0
 10
18.044666
 20
80.517985
 30
0.0
 10
17.915484
 20
80.810885
 30
0.0
 10
17.862944
 20
80.932303
 30
0.0
 10
17.855644
 20
80.942433
 30
0.0
 10
17.844104
 20
80.950633
 30
0.0
 10
17.828324
 20
80.956733
 30
0.0
 10
17.784224
 20
80.962433
 30
0.0
 10
17.723684
 20
80.958933
 30
0.0
 10
17.481721
 20
80.928533
 30
0.0
 10
17.228299
 20
80.902133
 30
0.0
 10
16.957244
 20
80.879643
 30
0.0
 10
16.670294
 20
80.861873
 30
0.0
 10
16.364907
 20
80.849373
 30
0.0
 10
16.041231
 20
80.842873
 30
0.0
 10
15.702331
 20
80.843220
 30
0.0
 10
15.427482
 20
80.848620
 30
0.0
  0
SPLINE
  5
197
100
AcDbEntity
  8
0
 62
7
100
AcDbSpline
 70
8
 71
3
 72
8
 73
4
 74
0
 40
0
 40
0
 40
0
 40
0
 40
1
 40
1
 40
1
 40
1
 10
14.212152
 20
84.229019
 30
0.0
 10
14.126569
 20
84.502547
 30
0.0
 10
14.043729
 20
84.776927
 30
0.0
 10
13.963646
 20
85.052115
 30
0.0
  0
LWPOLYLINE
  5
198
100
AcDbEntity
  8
0
 62
7
100
AcDbPolyline
 90
31
 70
0
 10
15.110971
 20
81.648035
 30
0.0
 10
15.307632
 20
81.840116
 30
0.0
 10
15.554443
 20
82.072362
 30
0.0
 10
15.794814
 20
82.289225
 30
0.0
 10
16.025990
 20
82.489162
 30
0.0
 10
16.247333
 20
82.672640
 30
0.0
 10
16.460321
 20
82.841793
 30
0.0
 10
16.663129
 20
82.996029
 30
0.0
 10
16.860324
 20
83.139501
 30
0.0
 10
16.906874
 20
83.178371
 30
0.0
 10
16.935104
 20
83.212731
 30
0.0
 10
16.942404
 20
83.227991
 30
0.0
 10
16.945204
 20
83.241841
 30
0.0
 10
16.943604
 20
83.254191
 30
0.0
 10
16.898784
 20
83.378665
 30
0.0
 10
16.792449
 20
83.680610
 30
0.0
 10
16.688230
 20
83.983293
 30
0.0
 10
16.646040
 20
84.108681
 30
0.0
 10
16.639640
 20
84.119381
 30
0.0
 10
16.628830
 20
84.128481
 30
0.0
 10
16.613620
 20
84.135881
 30
0.0
 10
16.570150
 20
84.145281
 30
0.0
 10
16.509530
 20
84.146781
 30
0.0
 10
16.265872
 20
84.136731
 30
0.0
 10
16.011130
 20
84.131631
 30
0.0
 10
15.739143
 20
84.131899
 30
0.0
 10
15.451712
 20
84.138199
 30
0.0
 10
15.146350
 20
84.151289
 30
0.0
 10
14.823269
 20
84.171939
 30
0.0
 10
14.485586
 20
84.200639
 30
0.0
 10
14.212152
 20
84.229019
 30
0.0
  0
SPLINE
  5
199
100
AcDbEntity
  8
0
 62
7
100
AcDbSpline
 70
8
 71
3
 72
8
 73
4
 74
0
 40
0
 40
0
 40
0
 40
0
 40
1
 40
1
 40
1
 40
1
 10
13.283996
 20
87.699313
 30
0.0
 10
13.221600
 20
87.979044
 30
0.0
 10
13.162010
 20
88.259393
 30
0.0
 10
13.105234
 20
88.540318
 30
0.0
  0
LWPOLYLINE
  5
19a
100
AcDbEntity
  8
0
 62
7
100
AcDbPolyline
 90
31
 70
0
 10
13.963646
 20
85.052115
 30
0.0
 10
14.175690
 20
85.227067
 30
0.0
 10
14.441068
 20
85.437846
 30
0.0
 10
14.698743
 20
85.633834
 30
0.0
 10
14.945839
 20
85.813726
 30
0.0
 10
15.181758
 20
85.978039
 30
0.0
 10
15.408154
 20
86.128777
 30
0.0
 10
15.623156
 20
86.265501
 30
0.0
 10
15.831666
 20
86.391969
 30
0.0
 10
15.881296
 20
86.426809
 30
0.0
 10
15.912306
 20
86.458689
 30
0.0
 10
15.920906
 20
86.473279
 30
0.0
 10
15.924906
 20
86.486839
 30
0.0
 10
15.924303
 20
86.499279
 30
0.0
 10
15.890063
 20
86.627067
 30
0.0
 10
15.809363
 20
86.936852
 30
0.0
 10
15.730843
 20
87.247193
 30
0.0
 10
15.699293
 20
87.375672
 30
0.0
 10
15.693793
 20
87.386864
 30
0.0
 10
15.683783
 20
87.396834
 30
0.0
 10
15.669243
 20
87.405494
 30
0.0
 10
15.626713
 20
87.418496
 30
0.0
 10
15.566433
 20
87.425116
 30
0.0
 10
15.322789
 20
87.435490
 30
0.0
 10
15.068513
 20
87.451724
 30
0.0
 10
14.797502
 20
87.474750
 30
0.0
 10
14.511607
 20
87.505084
 30
0.0
 10
14.208412
 20
87.543685
 30
0.0
 10
13.888192
 20
87.591295
 30
0.0
 10
13.554096
 20
87.648155
 30
0.0
 10
13.283996
 20
87.699313
 30
0.0
  0
SPLINE
  5
19b
100
AcDbEntity
  8
0
 62
7
100
AcDbSpline
 70
8
 71
3
 72
8
 73
4
 74
0
 40
0
 40
0
 40
0
 40
0
 40
1
 40
1
 40
1
 40
1
 10
12.649560
 20
91.235102
 30
0.0
 10
12.610791
 20
91.519073
 30
0.0
 10
12.574868
 20
91.803425
 30
0.0
 10
12.541799
 20
92.088116
 30
0.0
  0
LWPOLYLINE
  5
19c
100
AcDbEntity
  8
0
 62
7
100
AcDbPolyline
 90
31
 70
0
 10
13.105234
 20
88.540318
 30
0.0
 10
13.331175
 20
88.696912
 30
0.0
 10
13.613261
 20
88.884745
 30
0.0
 10
13.886432
 20
89.058485
 30
0.0
 10
14.147713
 20
89.217069
 30
0.0
 10
14.396554
 20
89.361064
 30
0.0
 10
14.634769
 20
89.492330
 30
0.0
 10
14.860459
 20
89.610583
 30
0.0
 10
15.078819
 20
89.719160
 30
0.0
 10
15.131199
 20
89.749723
 30
0.0
 10
15.164759
 20
89.778899
 30
0.0
 10
15.174559
 20
89.792721
 30
0.0
 10
15.179659
 20
89.805905
 30
0.0
 10
15.180099
 20
89.818353
 30
0.0
 10
15.156669
 20
89.948558
 30
0.0
 10
15.102179
 20
90.264008
 30
0.0
 10
15.049899
 20
90.579832
 30
0.0
 10
15.029209
 20
90.710501
 30
0.0
 10
15.024709
 20
90.722111
 30
0.0
 10
15.015609
 20
90.732887
 30
0.0
 10
15.001849
 20
90.742727
 30
0.0
 10
14.960559
 20
90.759242
 30
0.0
 10
14.901049
 20
90.770880
 30
0.0
 10
14.659127
 20
90.801605
 30
0.0
 10
14.407101
 20
90.839059
 30
0.0
 10
14.138968
 20
90.884682
 30
0.0
 10
13.856614
 20
90.938832
 30
0.0
 10
13.557713
 20
91.002668
 30
0.0
 10
13.242599
 20
91.076906
 30
0.0
 10
12.914432
 20
91.161523
 30
0.0
 10
12.649560
 20
91.235102
 30
0.0
  0
LWPOLYLINE
  5
19d
100
AcDbEntity
  8
0
 62
7
100
AcDbPolyline
 90
2
 70
0
 10
12.541799
 20
92.088116
 30
0.0
 10
12.779667
 20
92.224830
 30
0.0
  0
ENDSEC
  0
SECTION
  2
OBJECTS
  0
DICTIONARY
  5
C
330
0
100
AcDbDictionary
  3
ACAD_GROUP
350
D
  3
ACAD_MLINESTYLE
350
17
  0
DICTIONARY
  5
D
330
C
100
AcDbDictionary
  0
DICTIONARY
  5
1A
330
C
100
AcDbDictionary
  0
DICTIONARY
  5
17
330
C
100
AcDbDictionary
  3
STANDARD
350
18
  0
DICTIONARY
  5
19
330
C
100
AcDbDictionary
  0
ENDSEC
  0
EOF
