  0
SECTION
  2
HEADER
  9
$ACADVER
  1
AC1014
  9
$HANDSEED
  5
FFFF
  9
$MEASUREMENT
 70
     1
  0
ENDSEC
  0
SECTION
  2
TABLES
  0
TABLE
  2
VPORT
  5
8
330
0
100
AcDbSymbolTable
 70
     4
  0
VPORT
  5
2E
330
8
100
AcDbSymbolTableRecord
100
AcDbViewportTableRecord
  2
*ACTIVE
 70
     0
 10
0.0
 20
0.0
 11
1.0
 21
1.0
 12
210.0
 22
148.5
 13
0.0
 23
0.0
 14
10.0
 24
10.0
 15
10.0
 25
10.0
 16
0.0
 26
0.0
 36
1.0
 17
0.0
 27
0.0
 37
0.0
 40
341.0
 41
1.24
 42
50.0
 43
0.0
 44
0.0
 50
0.0
 51
0.0
 71
     0
 72
   100
 73
     1
 74
     3
 75
     0
 76
     0
 77
     0
 78
     0
  0
ENDTAB
  0
TABLE
  2
LTYPE
  5
5
330
0
100
AcDbSymbolTable
 70
     1
  0
LTYPE
  5
14
330
5
100
AcDbSymbolTableRecord
100
AcDbLinetypeTableRecord
  2
BYBLOCK
 70
     0
  3

 72
    65
 73
     0
 40
0.0
  0
LTYPE
  5
15
330
5
100
AcDbSymbolTableRecord
100
AcDbLinetypeTableRecord
  2
BYLAYER
 70
     0
  3

 72
    65
 73
     0
 40
0.0
  0
LTYPE
  5
16
330
5
100
AcDbSymbolTableRecord
100
AcDbLinetypeTableRecord
  2
CONTINUOUS
 70
     0
  3
Solid line
 72
    65
 73
     0
 40
0.0
  0
ENDTAB
  0
TABLE
  2
LAYER
  5
2
100
AcDbSymbolTable
 70
2
  0
LAYER
  5
50
100
AcDbSymbolTableRecord
100
AcDbLayerTableRecord
  2
0
 70
0
  6
CONTINUOUS
  0
LAYER
  5
51
100
AcDbSymbolTableRecord
100
AcDbLayerTableRecord
  2
Layer_1
 70
0
  6
CONTINUOUS
  0
ENDTAB
  0
TABLE
  2
STYLE
  5
3
330
0
100
AcDbSymbolTable
 70
     1
  0
STYLE
  5
11
330
3
100
AcDbSymbolTableRecord
100
AcDbTextStyleTableRecord
  2
STANDARD
 70
     0
 40
0.0
 41
1.0
 50
0.0
 71
     0
 42
2.5
  3
txt
  4

  0
ENDTAB
  0
TABLE
  2
VIEW
  5
6
330
0
100
AcDbSymbolTable
 70
     0
  0
ENDTAB
  0
TABLE
  2
UCS
  5
7
330
0
100
AcDbSymbolTable
 70
     0
  0
ENDTAB
  0
TABLE
  2
APPID
  5
9
330
0
100
AcDbSymbolTable
 70
     2
  0
APPID
  5
12
330
9
100
AcDbSymbolTableRecord
100
AcDbRegAppTableRecord
  2
ACAD
 70
     0
  0
ENDTAB
  0
TABLE
  2
DIMSTYLE
  5
A
330
0
100
AcDbSymbolTable
 70
     1
  0
DIMSTYLE
105
27
330
A
100
AcDbSymbolTableRecord
100
AcDbDimStyleTableRecord
  2
ISO-25
 70
     0
  3

  4

  5

  6

  7

 40
1.0
 41
2.5
 42
0.625
 43
3.75
 44
1.25
 45
0.0
 46
0.0
 47
0.0
 48
0.0
140
2.5
141
2.5
142
0.0
143
0.03937007874016
144
1.0
145
0.0
146
1.0
147
0.625
 71
     0
 72
     0
 73
     0
 74
     0
 75
     0
 76
     0
 77
     1
 78
     8
170
     0
171
     3
172
     1
173
     0
174
     0
175
     0
176
     0
177
     0
178
     0
270
     2
271
     2
272
     2
273
     2
274
     3
340
11
275
     0
280
     0
281
     0
282
     0
283
     0
284
     8
285
     0
286
     0
287
     3
288
     0
  0
ENDTAB
  0
TABLE
  2
BLOCK_RECORD
  5
1
330
0
100
AcDbSymbolTable
 70
     1
  0
BLOCK_RECORD
  5
1F
330
1
100
AcDbSymbolTableRecord
100
AcDbBlockTableRecord
  2
*MODEL_SPACE
  0
BLOCK_RECORD
  5
1B
330
1
100
AcDbSymbolTableRecord
100
AcDbBlockTableRecord
  2
*PAPER_SPACE
  0
ENDTAB
  0
ENDSEC
  0
SECTION
  2
BLOCKS
  0
BLOCK
  5
20
330
1F
100
AcDbEntity
  8
0
100
AcDbBlockBegin
  2
*MODEL_SPACE
 70
     0
 10
0.0
 20
0.0
 30
0.0
  3
*MODEL_SPACE
  1

  0
ENDBLK
  5
21
330
1F
100
AcDbEntity
  8
0
100
AcDbBlockEnd
  0
BLOCK
  5
1C
330
1B
100
AcDbEntity
 67
     1
  8
0
100
AcDbBlockBegin
  2
*PAPER_SPACE
  1

  0
ENDBLK
  5
1D
330
1B
100
AcDbEntity
 67
     1
  8
0
100
AcDbBlockEnd
  0
ENDSEC
  0
SECTION
  2
ENTITIES
  0
SPLINE
  5
100
100
AcDbEntity
  8
Layer_1
 62
7
100
AcDbSpline
 70
8
 71
3
 72
8
 73
4
 74
0
 40
0
 40
0
 40
0
 40
0
 40
1
 40
1
 40
1
 40
1
 10
138.020504
 20
721.694069
 30
0.0
 10
138.020504
 20
726.365360
 30
0.0
 10
135.206586
 20
730.576685
 30
0.0
 10
130.890877
 20
732.364310
 30
0.0
  0
SPLINE
  5
101
100
AcDbEntity
  8
Layer_1
 62
7
100
AcDbSpline
 70
8
 71
3
 72
8
 73
4
 74
0
 40
0
 40
0
 40
0
 40
0
 40
1
 40
1
 40
1
 40
1
 10
130.890877
 20
732.364310
 30
0.0
 10
126.575167
 20
734.151936
 30
0.0
 10
121.607570
 20
733.163819
 30
0.0
 10
118.304469
 20
729.860718
 30
0.0
  0
SPLINE
  5
102
100
AcDbEntity
  8
Layer_1
 62
7
100
AcDbSpline
 70
8
 71
3
 72
8
 73
4
 74
0
 40
0
 40
0
 40
0
 40
0
 40
1
 40
1
 40
1
 40
1
 10
118.304469
 20
729.860718
 30
0.0
 10
115.001368
 20
726.557617
 30
0.0
 10
114.013252
 20
721.590020
 30
0.0
 10
115.800877
 20
717.274311
 30
0.0
  0
SPLINE
  5
103
100
AcDbEntity
  8
Layer_1
 62
7
100
AcDbSpline
 70
8
 71
3
 72
8
 73
4
 74
0
 40
0
 40
0
 40
0
 40
0
 40
1
 40
1
 40
1
 40
1
 10
115.800877
 20
717.274311
 30
0.0
 10
117.588503
 20
712.958601
 30
0.0
 10
121.799828
 20
710.144684
 30
0.0
 10
126.471118
 20
710.144684
 30
0.0
  0
SPLINE
  5
104
100
AcDbEntity
  8
Layer_1
 62
7
100
AcDbSpline
 70
8
 71
3
 72
8
 73
4
 74
0
 40
0
 40
0
 40
0
 40
0
 40
1
 40
1
 40
1
 40
1
 10
126.471118
 20
710.144684
 30
0.0
 10
129.534206
 20
710.144684
 30
0.0
 10
132.471837
 20
711.361490
 30
0.0
 10
134.637767
 20
713.527420
 30
0.0
  0
SPLINE
  5
105
100
AcDbEntity
  8
Layer_1
 62
7
100
AcDbSpline
 70
8
 71
3
 72
8
 73
4
 74
0
 40
0
 40
0
 40
0
 40
0
 40
1
 40
1
 40
1
 40
1
 10
134.637767
 20
713.527420
 30
0.0
 10
136.803697
 20
715.693350
 30
0.0
 10
138.020504
 20
718.630982
 30
0.0
 10
138.020504
 20
721.694069
 30
0.0
  0
SPLINE
  5
106
100
AcDbEntity
  8
Layer_1
 62
7
100
AcDbSpline
 70
8
 71
3
 72
8
 73
4
 74
0
 40
0
 40
0
 40
0
 40
0
 40
1
 40
1
 40
1
 40
1
 10
140.907849
 20
721.694069
 30
0.0
 10
140.907849
 20
727.533182
 30
0.0
 10
137.390453
 20
732.797338
 30
0.0
 10
131.995816
 20
735.031870
 30
0.0
  0
SPLINE
  5
107
100
AcDbEntity
  8
Layer_1
 62
7
100
AcDbSpline
 70
8
 71
3
 72
8
 73
4
 74
0
 40
0
 40
0
 40
0
 40
0
 40
1
 40
1
 40
1
 40
1
 10
131.995816
 20
735.031870
 30
0.0
 10
126.601179
 20
737.266402
 30
0.0
 10
120.391684
 20
736.031256
 30
0.0
 10
116.262807
 20
731.902380
 30
0.0
  0
SPLINE
  5
108
100
AcDbEntity
  8
Layer_1
 62
7
100
AcDbSpline
 70
8
 71
3
 72
8
 73
4
 74
0
 40
0
 40
0
 40
0
 40
0
 40
1
 40
1
 40
1
 40
1
 10
116.262807
 20
731.902380
 30
0.0
 10
112.133931
 20
727.773504
 30
0.0
 10
110.898786
 20
721.564008
 30
0.0
 10
113.133318
 20
716.169371
 30
0.0
  0
SPLINE
  5
109
100
AcDbEntity
  8
Layer_1
 62
7
100
AcDbSpline
 70
8
 71
3
 72
8
 73
4
 74
0
 40
0
 40
0
 40
0
 40
0
 40
1
 40
1
 40
1
 40
1
 10
113.133318
 20
716.169371
 30
0.0
 10
115.367849
 20
710.774735
 30
0.0
 10
120.632005
 20
707.257338
 30
0.0
 10
126.471118
 20
707.257338
 30
0.0
  0
SPLINE
  5
10a
100
AcDbEntity
  8
Layer_1
 62
7
100
AcDbSpline
 70
8
 71
3
 72
8
 73
4
 74
0
 40
0
 40
0
 40
0
 40
0
 40
1
 40
1
 40
1
 40
1
 10
126.471118
 20
707.257338
 30
0.0
 10
130.299977
 20
707.257338
 30
0.0
 10
133.972016
 20
708.778346
 30
0.0
 10
136.679429
 20
711.485759
 30
0.0
  0
SPLINE
  5
10b
100
AcDbEntity
  8
Layer_1
 62
7
100
AcDbSpline
 70
8
 71
3
 72
8
 73
4
 74
0
 40
0
 40
0
 40
0
 40
0
 40
1
 40
1
 40
1
 40
1
 10
136.679429
 20
711.485759
 30
0.0
 10
139.386841
 20
714.193171
 30
0.0
 10
140.907849
 20
717.865210
 30
0.0
 10
140.907849
 20
721.694069
 30
0.0
  0
LWPOLYLINE
  5
10c
100
AcDbEntity
  8
Layer_1
 62
7
100
AcDbPolyline
 90
1
 70
1
 10
138.020504
 20
721.694069
 30
0.0
  0
LWPOLYLINE
  5
10d
100
AcDbEntity
  8
Layer_1
 62
7
100
AcDbPolyline
 90
1
 70
1
 10
140.907849
 20
721.694069
 30
0.0
  0
LWPOLYLINE
  5
10e
100
AcDbEntity
  8
Layer_1
 62
7
100
AcDbPolyline
 90
2
 70
0
 10
126.806624
 20
721.694069
 30
0.0
 10
126.135612
 20
721.694069
 30
0.0
  0
SPLINE
  5
10f
100
AcDbEntity
  8
Layer_1
 62
7
100
AcDbSpline
 70
8
 71
3
 72
8
 73
4
 74
0
 40
0
 40
0
 40
0
 40
0
 40
1
 40
1
 40
1
 40
1
 10
132.140409
 20
721.694069
 30
0.0
 10
132.140409
 20
723.987084
 30
0.0
 10
130.759131
 20
726.054313
 30
0.0
 10
128.640662
 20
726.931812
 30
0.0
  0
SPLINE
  5
110
100
AcDbEntity
  8
Layer_1
 62
7
100
AcDbSpline
 70
8
 71
3
 72
8
 73
4
 74
0
 40
0
 40
0
 40
0
 40
0
 40
1
 40
1
 40
1
 40
1
 10
128.640662
 20
726.931812
 30
0.0
 10
126.522193
 20
727.809310
 30
0.0
 10
124.083730
 20
727.324270
 30
0.0
 10
122.462324
 20
725.702864
 30
0.0
  0
SPLINE
  5
111
100
AcDbEntity
  8
Layer_1
 62
7
100
AcDbSpline
 70
8
 71
3
 72
8
 73
4
 74
0
 40
0
 40
0
 40
0
 40
0
 40
1
 40
1
 40
1
 40
1
 10
122.462324
 20
725.702864
 30
0.0
 10
120.840918
 20
724.081458
 30
0.0
 10
120.355877
 20
721.642994
 30
0.0
 10
121.233376
 20
719.524525
 30
0.0
  0
SPLINE
  5
112
100
AcDbEntity
  8
Layer_1
 62
7
100
AcDbSpline
 70
8
 71
3
 72
8
 73
4
 74
0
 40
0
 40
0
 40
0
 40
0
 40
1
 40
1
 40
1
 40
1
 10
121.233376
 20
719.524525
 30
0.0
 10
122.110874
 20
717.406056
 30
0.0
 10
124.178104
 20
716.024778
 30
0.0
 10
126.471118
 20
716.024778
 30
0.0
  0
SPLINE
  5
113
100
AcDbEntity
  8
Layer_1
 62
7
100
AcDbSpline
 70
8
 71
3
 72
8
 73
4
 74
0
 40
0
 40
0
 40
0
 40
0
 40
1
 40
1
 40
1
 40
1
 10
126.471118
 20
716.024778
 30
0.0
 10
127.974708
 20
716.024778
 30
0.0
 10
129.416714
 20
716.622077
 30
0.0
 10
130.479912
 20
717.685275
 30
0.0
  0
SPLINE
  5
114
100
AcDbEntity
  8
Layer_1
 62
7
100
AcDbSpline
 70
8
 71
3
 72
8
 73
4
 74
0
 40
0
 40
0
 40
0
 40
0
 40
1
 40
1
 40
1
 40
1
 10
130.479912
 20
717.685275
 30
0.0
 10
131.543111
 20
718.748473
 30
0.0
 10
132.140409
 20
720.190480
 30
0.0
 10
132.140409
 20
721.694069
 30
0.0
  0
LWPOLYLINE
  5
115
100
AcDbEntity
  8
Layer_1
 62
7
100
AcDbPolyline
 90
2
 70
0
 10
126.471118
 20
722.029576
 30
0.0
 10
126.471118
 20
721.358563
 30
0.0
  0
LWPOLYLINE
  5
116
100
AcDbEntity
  8
Layer_1
 62
7
100
AcDbPolyline
 90
1
 70
1
 10
132.140409
 20
721.694069
 30
0.0
  0
SPLINE
  5
117
100
AcDbEntity
  8
Layer_1
 62
7
100
AcDbSpline
 70
8
 71
3
 72
8
 73
4
 74
0
 40
0
 40
0
 40
0
 40
0
 40
1
 40
1
 40
1
 40
1
 10
120.275875
 20
734.733793
 30
0.0
 10
120.717871
 20
734.943794
 30
0.0
 10
121.170259
 20
735.131187
 30
0.0
 10
121.631286
 20
735.295245
 30
0.0
  0
LWPOLYLINE
  5
118
100
AcDbEntity
  8
Layer_1
 62
7
100
AcDbPolyline
 90
58
 70
0
 10
113.744419
 20
727.972743
 30
0.0
 10
114.108337
 20
728.054562
 30
0.0
 10
114.457804
 20
728.117840
 30
0.0
 10
114.790273
 20
728.163761
 30
0.0
 10
115.103961
 20
728.193789
 30
0.0
 10
115.400752
 20
728.209719
 30
0.0
 10
115.681289
 20
728.212979
 30
0.0
 10
115.937833
 20
728.205212
 30
0.0
 10
116.181207
 20
728.187609
 30
0.0
 10
116.596298
 20
728.131625
 30
0.0
 10
116.937386
 20
728.056280
 30
0.0
 10
117.197116
 20
727.975583
 30
0.0
 10
117.372379
 20
727.904907
 30
0.0
 10
117.543855
 20
727.715834
 30
0.0
 10
117.752091
 20
727.507717
 30
0.0
 10
117.961248
 20
727.327300
 30
0.0
 10
118.169484
 20
727.174263
 30
0.0
 10
118.374835
 20
727.048206
 30
0.0
 10
118.575414
 20
726.948569
 30
0.0
 10
118.769420
 20
726.874667
 30
0.0
 10
118.955027
 20
726.825800
 30
0.0
 10
119.130531
 20
726.801054
 30
0.0
 10
119.294249
 20
726.799490
 30
0.0
 10
119.444579
 20
726.820041
 30
0.0
 10
119.579936
 20
726.861591
 30
0.0
 10
119.698917
 20
726.922885
 30
0.0
 10
119.822448
 20
727.025210
 30
0.0
 10
120.215711
 20
727.479006
 30
0.0
 10
120.446358
 20
727.718791
 30
0.0
 10
120.686143
 20
727.949438
 30
0.0
 10
121.139939
 20
728.342701
 30
0.0
 10
121.242264
 20
728.466232
 30
0.0
 10
121.303558
 20
728.585213
 30
0.0
 10
121.345108
 20
728.720570
 30
0.0
 10
121.365659
 20
728.870900
 30
0.0
 10
121.364095
 20
729.034618
 30
0.0
 10
121.339349
 20
729.210122
 30
0.0
 10
121.290483
 20
729.395729
 30
0.0
 10
121.216581
 20
729.589735
 30
0.0
 10
121.116943
 20
729.790315
 30
0.0
 10
120.990886
 20
729.995665
 30
0.0
 10
120.837849
 20
730.203901
 30
0.0
 10
120.657432
 20
730.413058
 30
0.0
 10
120.449316
 20
730.621294
 30
0.0
 10
120.260242
 20
730.792770
 30
0.0
 10
120.189566
 20
730.968033
 30
0.0
 10
120.108869
 20
731.227763
 30
0.0
 10
120.033524
 20
731.568851
 30
0.0
 10
119.977540
 20
731.983942
 30
0.0
 10
119.959937
 20
732.227316
 30
0.0
 10
119.952170
 20
732.483860
 30
0.0
 10
119.955430
 20
732.764397
 30
0.0
 10
119.971360
 20
733.061188
 30
0.0
 10
120.001388
 20
733.374876
 30
0.0
 10
120.047309
 20
733.707346
 30
0.0
 10
120.110587
 20
734.056812
 30
0.0
 10
120.192406
 20
734.420730
 30
0.0
 10
120.275875
 20
734.733793
 30
0.0
  0
SPLINE
  5
119
100
AcDbEntity
  8
Layer_1
 62
7
100
AcDbSpline
 70
8
 71
3
 72
8
 73
4
 74
0
 40
0
 40
0
 40
0
 40
0
 40
1
 40
1
 40
1
 40
1
 10
131.310950
 20
735.295246
 30
0.0
 10
131.771963
 20
735.131199
 30
0.0
 10
132.224338
 20
734.943820
 30
0.0
 10
132.666323
 20
734.733833
 30
0.0
  0
LWPOLYLINE
  5
11a
100
AcDbEntity
  8
Layer_1
 62
7
100
AcDbPolyline
 90
59
 70
0
 10
121.631286
 20
735.295245
 30
0.0
 10
121.911676
 20
735.132898
 30
0.0
 10
122.226860
 20
734.933424
 30
0.0
 10
122.518715
 20
734.731058
 30
0.0
 10
122.786277
 20
734.528438
 30
0.0
 10
123.029320
 20
734.327858
 30
0.0
 10
123.250450
 20
734.129263
 30
0.0
 10
123.451115
 20
733.933191
 30
0.0
 10
123.627033
 20
733.746302
 30
0.0
 10
123.786680
 20
733.561767
 30
0.0
 10
124.040608
 20
733.228668
 30
0.0
 10
124.228517
 20
732.934205
 30
0.0
 10
124.355112
 20
732.693487
 30
0.0
 10
124.429068
 20
732.519581
 30
0.0
 10
124.416624
 20
732.264633
 30
0.0
 10
124.416709
 20
731.970227
 30
0.0
 10
124.437033
 20
731.694756
 30
0.0
 10
124.476066
 20
731.439298
 30
0.0
 10
124.532135
 20
731.204957
 30
0.0
 10
124.603512
 20
730.992671
 30
0.0
 10
124.688438
 20
730.803231
 30
0.0
 10
124.785128
 20
730.637433
 30
0.0
 10
124.891739
 20
730.495843
 30
0.0
 10
125.006400
 20
730.378970
 30
0.0
 10
125.127241
 20
730.287213
 30
0.0
 10
125.252334
 20
730.220882
 30
0.0
 10
125.379808
 20
730.180091
 30
0.0
 10
125.539512
 20
730.165096
 30
0.0
 10
126.138472
 20
730.207899
 30
0.0
 10
126.471118
 20
730.214362
 30
0.0
 10
126.803764
 20
730.207899
 30
0.0
 10
127.402724
 20
730.165096
 30
0.0
 10
127.562428
 20
730.180091
 30
0.0
 10
127.689902
 20
730.220882
 30
0.0
 10
127.814995
 20
730.287213
 30
0.0
 10
127.935836
 20
730.378970
 30
0.0
 10
128.050498
 20
730.495843
 30
0.0
 10
128.157109
 20
730.637433
 30
0.0
 10
128.253798
 20
730.803231
 30
0.0
 10
128.338724
 20
730.992671
 30
0.0
 10
128.410101
 20
731.204957
 30
0.0
 10
128.466170
 20
731.439298
 30
0.0
 10
128.505203
 20
731.694756
 30
0.0
 10
128.525528
 20
731.970227
 30
0.0
 10
128.525613
 20
732.264633
 30
0.0
 10
128.513169
 20
732.519581
 30
0.0
 10
128.587124
 20
732.693487
 30
0.0
 10
128.713720
 20
732.934205
 30
0.0
 10
128.901628
 20
733.228668
 30
0.0
 10
129.155556
 20
733.561767
 30
0.0
 10
129.315203
 20
733.746302
 30
0.0
 10
129.491121
 20
733.933191
 30
0.0
 10
129.691786
 20
734.129263
 30
0.0
 10
129.912917
 20
734.327858
 30
0.0
 10
130.155959
 20
734.528438
 30
0.0
 10
130.423521
 20
734.731058
 30
0.0
 10
130.715376
 20
734.933424
 30
0.0
 10
131.030561
 20
735.132898
 30
0.0
 10
131.310950
 20
735.295246
 30
0.0
  0
SPLINE
  5
11b
100
AcDbEntity
  8
Layer_1
 62
7
100
AcDbSpline
 70
8
 71
3
 72
8
 73
4
 74
0
 40
0
 40
0
 40
0
 40
0
 40
1
 40
1
 40
1
 40
1
 10
139.510842
 20
727.889314
 30
0.0
 10
139.720829
 20
727.447329
 30
0.0
 10
139.908209
 20
726.994954
 30
0.0
 10
140.072255
 20
726.533940
 30
0.0
  0
LWPOLYLINE
  5
11c
100
AcDbEntity
  8
Layer_1
 62
7
100
AcDbPolyline
 90
59
 70
0
 10
132.666323
 20
734.733833
 30
0.0
 10
132.749792
 20
734.420770
 30
0.0
 10
132.831611
 20
734.056851
 30
0.0
 10
132.894889
 20
733.707385
 30
0.0
 10
132.940810
 20
733.374915
 30
0.0
 10
132.970837
 20
733.061227
 30
0.0
 10
132.986768
 20
732.764436
 30
0.0
 10
132.990028
 20
732.483900
 30
0.0
 10
132.982261
 20
732.227356
 30
0.0
 10
132.964658
 20
731.983982
 30
0.0
 10
132.908674
 20
731.568891
 30
0.0
 10
132.833329
 20
731.227803
 30
0.0
 10
132.752632
 20
730.968073
 30
0.0
 10
132.681956
 20
730.792809
 30
0.0
 10
132.492882
 20
730.621333
 30
0.0
 10
132.284765
 20
730.413097
 30
0.0
 10
132.104349
 20
730.203940
 30
0.0
 10
131.951312
 20
729.995704
 30
0.0
 10
131.825255
 20
729.790354
 30
0.0
 10
131.725617
 20
729.589774
 30
0.0
 10
131.651715
 20
729.395768
 30
0.0
 10
131.602849
 20
729.210161
 30
0.0
 10
131.578102
 20
729.034657
 30
0.0
 10
131.576539
 20
728.870939
 30
0.0
 10
131.597090
 20
728.720610
 30
0.0
 10
131.638640
 20
728.585253
 30
0.0
 10
131.699934
 20
728.466271
 30
0.0
 10
131.802259
 20
728.342740
 30
0.0
 10
132.256054
 20
727.949477
 30
0.0
 10
132.495840
 20
727.718831
 30
0.0
 10
132.726486
 20
727.479045
 30
0.0
 10
133.119749
 20
727.025249
 30
0.0
 10
133.243280
 20
726.922924
 30
0.0
 10
133.362262
 20
726.861631
 30
0.0
 10
133.497619
 20
726.820081
 30
0.0
 10
133.647949
 20
726.799529
 30
0.0
 10
133.811666
 20
726.801093
 30
0.0
 10
133.987171
 20
726.825840
 30
0.0
 10
134.172778
 20
726.874706
 30
0.0
 10
134.366784
 20
726.948608
 30
0.0
 10
134.567363
 20
727.048246
 30
0.0
 10
134.772713
 20
727.174303
 30
0.0
 10
134.980949
 20
727.327339
 30
0.0
 10
135.190106
 20
727.507756
 30
0.0
 10
135.398342
 20
727.715873
 30
0.0
 10
135.569818
 20
727.904947
 30
0.0
 10
135.745082
 20
727.975623
 30
0.0
 10
136.004812
 20
728.056320
 30
0.0
 10
136.345900
 20
728.131664
 30
0.0
 10
136.760991
 20
728.187649
 30
0.0
 10
137.004365
 20
728.205252
 30
0.0
 10
137.260909
 20
728.213019
 30
0.0
 10
137.541445
 20
728.209759
 30
0.0
 10
137.838236
 20
728.193828
 30
0.0
 10
138.151924
 20
728.163801
 30
0.0
 10
138.484394
 20
728.117880
 30
0.0
 10
138.833861
 20
728.054602
 30
0.0
 10
139.197779
 20
727.972783
 30
0.0
 10
139.510842
 20
727.889314
 30
0.0
  0
SPLINE
  5
11d
100
AcDbEntity
  8
Layer_1
 62
7
100
AcDbSpline
 70
8
 71
3
 72
8
 73
4
 74
0
 40
0
 40
0
 40
0
 40
0
 40
1
 40
1
 40
1
 40
1
 10
140.072295
 20
716.854238
 30
0.0
 10
139.908248
 20
716.393224
 30
0.0
 10
139.720868
 20
715.940849
 30
0.0
 10
139.510881
 20
715.498865
 30
0.0
  0
LWPOLYLINE
  5
11e
100
AcDbEntity
  8
Layer_1
 62
7
100
AcDbPolyline
 90
59
 70
0
 10
140.072255
 20
726.533940
 30
0.0
 10
139.909907
 20
726.253551
 30
0.0
 10
139.710433
 20
725.938367
 30
0.0
 10
139.508067
 20
725.646512
 30
0.0
 10
139.305447
 20
725.378950
 30
0.0
 10
139.104867
 20
725.135907
 30
0.0
 10
138.906272
 20
724.914777
 30
0.0
 10
138.710200
 20
724.714112
 30
0.0
 10
138.523311
 20
724.538194
 30
0.0
 10
138.338776
 20
724.378547
 30
0.0
 10
138.005677
 20
724.124619
 30
0.0
 10
137.711214
 20
723.936711
 30
0.0
 10
137.470496
 20
723.810115
 30
0.0
 10
137.296590
 20
723.736159
 30
0.0
 10
137.041642
 20
723.748603
 30
0.0
 10
136.747236
 20
723.748518
 30
0.0
 10
136.471765
 20
723.728194
 30
0.0
 10
136.216307
 20
723.689161
 30
0.0
 10
135.981967
 20
723.633092
 30
0.0
 10
135.769680
 20
723.561715
 30
0.0
 10
135.580241
 20
723.476789
 30
0.0
 10
135.414442
 20
723.380100
 30
0.0
 10
135.272852
 20
723.273489
 30
0.0
 10
135.155979
 20
723.158827
 30
0.0
 10
135.064222
 20
723.037986
 30
0.0
 10
134.997891
 20
722.912893
 30
0.0
 10
134.957100
 20
722.785419
 30
0.0
 10
134.942105
 20
722.625715
 30
0.0
 10
134.984908
 20
722.026755
 30
0.0
 10
134.991411
 20
721.694069
 30
0.0
 10
134.984948
 20
721.361424
 30
0.0
 10
134.942145
 20
720.762463
 30
0.0
 10
134.957140
 20
720.602759
 30
0.0
 10
134.997931
 20
720.475285
 30
0.0
 10
135.064261
 20
720.350192
 30
0.0
 10
135.156019
 20
720.229351
 30
0.0
 10
135.272891
 20
720.114690
 30
0.0
 10
135.414482
 20
720.008079
 30
0.0
 10
135.580280
 20
719.911389
 30
0.0
 10
135.769720
 20
719.826463
 30
0.0
 10
135.982006
 20
719.755087
 30
0.0
 10
136.216346
 20
719.699017
 30
0.0
 10
136.471805
 20
719.659984
 30
0.0
 10
136.747276
 20
719.639660
 30
0.0
 10
137.041682
 20
719.639575
 30
0.0
 10
137.296630
 20
719.652019
 30
0.0
 10
137.470535
 20
719.578063
 30
0.0
 10
137.711254
 20
719.451468
 30
0.0
 10
138.005717
 20
719.263559
 30
0.0
 10
138.338816
 20
719.009631
 30
0.0
 10
138.523351
 20
718.849984
 30
0.0
 10
138.710239
 20
718.674066
 30
0.0
 10
138.906312
 20
718.473402
 30
0.0
 10
139.104907
 20
718.252271
 30
0.0
 10
139.305487
 20
718.009228
 30
0.0
 10
139.508107
 20
717.741666
 30
0.0
 10
139.710472
 20
717.449811
 30
0.0
 10
139.909946
 20
717.134627
 30
0.0
 10
140.072295
 20
716.854238
 30
0.0
  0
SPLINE
  5
11f
100
AcDbEntity
  8
Layer_1
 62
7
100
AcDbSpline
 70
8
 71
3
 72
8
 73
4
 74
0
 40
0
 40
0
 40
0
 40
0
 40
1
 40
1
 40
1
 40
1
 10
132.666362
 20
708.654346
 30
0.0
 10
132.224378
 20
708.444359
 30
0.0
 10
131.772003
 20
708.256979
 30
0.0
 10
131.310989
 20
708.092932
 30
0.0
  0
LWPOLYLINE
  5
120
100
AcDbEntity
  8
Layer_1
 62
7
100
AcDbPolyline
 90
59
 70
0
 10
139.510881
 20
715.498865
 30
0.0
 10
139.197819
 20
715.415396
 30
0.0
 10
138.833900
 20
715.333577
 30
0.0
 10
138.484434
 20
715.270299
 30
0.0
 10
138.151964
 20
715.224377
 30
0.0
 10
137.838276
 20
715.194350
 30
0.0
 10
137.541485
 20
715.178419
 30
0.0
 10
137.260949
 20
715.175160
 30
0.0
 10
137.004405
 20
715.182926
 30
0.0
 10
136.761030
 20
715.200530
 30
0.0
 10
136.345940
 20
715.256514
 30
0.0
 10
136.004852
 20
715.331859
 30
0.0
 10
135.745121
 20
715.412555
 30
0.0
 10
135.569858
 20
715.483232
 30
0.0
 10
135.398382
 20
715.672305
 30
0.0
 10
135.190146
 20
715.880422
 30
0.0
 10
134.980989
 20
716.060839
 30
0.0
 10
134.772753
 20
716.213876
 30
0.0
 10
134.567403
 20
716.339932
 30
0.0
 10
134.366823
 20
716.439570
 30
0.0
 10
134.172817
 20
716.513472
 30
0.0
 10
133.987210
 20
716.562339
 30
0.0
 10
133.811706
 20
716.587085
 30
0.0
 10
133.647988
 20
716.588649
 30
0.0
 10
133.497658
 20
716.568098
 30
0.0
 10
133.362301
 20
716.526547
 30
0.0
 10
133.243320
 20
716.465254
 30
0.0
 10
133.119789
 20
716.362929
 30
0.0
 10
132.726526
 20
715.909133
 30
0.0
 10
132.495879
 20
715.669348
 30
0.0
 10
132.256094
 20
715.438701
 30
0.0
 10
131.802298
 20
715.045438
 30
0.0
 10
131.699973
 20
714.921907
 30
0.0
 10
131.638680
 20
714.802926
 30
0.0
 10
131.597129
 20
714.667569
 30
0.0
 10
131.576578
 20
714.517239
 30
0.0
 10
131.578142
 20
714.353521
 30
0.0
 10
131.602888
 20
714.178017
 30
0.0
 10
131.651755
 20
713.992410
 30
0.0
 10
131.725657
 20
713.798404
 30
0.0
 10
131.825295
 20
713.597824
 30
0.0
 10
131.951351
 20
713.392474
 30
0.0
 10
132.104388
 20
713.184238
 30
0.0
 10
132.284805
 20
712.975081
 30
0.0
 10
132.492922
 20
712.766845
 30
0.0
 10
132.681995
 20
712.595369
 30
0.0
 10
132.752672
 20
712.420106
 30
0.0
 10
132.833368
 20
712.160376
 30
0.0
 10
132.908713
 20
711.819287
 30
0.0
 10
132.964697
 20
711.404197
 30
0.0
 10
132.982301
 20
711.160822
 30
0.0
 10
132.990068
 20
710.904279
 30
0.0
 10
132.986808
 20
710.623742
 30
0.0
 10
132.970877
 20
710.326951
 30
0.0
 10
132.940850
 20
710.013263
 30
0.0
 10
132.894928
 20
709.680793
 30
0.0
 10
132.831651
 20
709.331327
 30
0.0
 10
132.749831
 20
708.967409
 30
0.0
 10
132.666362
 20
708.654346
 30
0.0
  0
SPLINE
  5
121
100
AcDbEntity
  8
Layer_1
 62
7
100
AcDbSpline
 70
8
 71
3
 72
8
 73
4
 74
0
 40
0
 40
0
 40
0
 40
0
 40
1
 40
1
 40
1
 40
1
 10
121.631287
 20
708.092892
 30
0.0
 10
121.170273
 20
708.256940
 30
0.0
 10
120.717897
 20
708.444320
 30
0.0
 10
120.275913
 20
708.654307
 30
0.0
  0
LWPOLYLINE
  5
122
100
AcDbEntity
  8
Layer_1
 62
7
100
AcDbPolyline
 90
59
 70
0
 10
131.310989
 20
708.092932
 30
0.0
 10
131.030561
 20
708.255241
 30
0.0
 10
130.715376
 20
708.454715
 30
0.0
 10
130.423521
 20
708.657080
 30
0.0
 10
130.155959
 20
708.859701
 30
0.0
 10
129.912917
 20
709.060280
 30
0.0
 10
129.691786
 20
709.258876
 30
0.0
 10
129.491121
 20
709.454948
 30
0.0
 10
129.315203
 20
709.641836
 30
0.0
 10
129.155556
 20
709.826372
 30
0.0
 10
128.901628
 20
710.159471
 30
0.0
 10
128.713720
 20
710.453934
 30
0.0
 10
128.587124
 20
710.694652
 30
0.0
 10
128.513169
 20
710.868557
 30
0.0
 10
128.525613
 20
711.123506
 30
0.0
 10
128.525528
 20
711.417912
 30
0.0
 10
128.505203
 20
711.693383
 30
0.0
 10
128.466170
 20
711.948841
 30
0.0
 10
128.410101
 20
712.183181
 30
0.0
 10
128.338724
 20
712.395468
 30
0.0
 10
128.253798
 20
712.584907
 30
0.0
 10
128.157109
 20
712.750706
 30
0.0
 10
128.050498
 20
712.892296
 30
0.0
 10
127.935836
 20
713.009169
 30
0.0
 10
127.814995
 20
713.100926
 30
0.0
 10
127.689902
 20
713.167257
 30
0.0
 10
127.562428
 20
713.208047
 30
0.0
 10
127.402724
 20
713.223043
 30
0.0
 10
126.803764
 20
713.180239
 30
0.0
 10
126.471118
 20
713.173776
 30
0.0
 10
126.138472
 20
713.180239
 30
0.0
 10
125.539512
 20
713.223043
 30
0.0
 10
125.379808
 20
713.208047
 30
0.0
 10
125.252334
 20
713.167257
 30
0.0
 10
125.127241
 20
713.100926
 30
0.0
 10
125.006400
 20
713.009169
 30
0.0
 10
124.891739
 20
712.892296
 30
0.0
 10
124.785128
 20
712.750706
 30
0.0
 10
124.688438
 20
712.584907
 30
0.0
 10
124.603512
 20
712.395468
 30
0.0
 10
124.532135
 20
712.183181
 30
0.0
 10
124.476066
 20
711.948841
 30
0.0
 10
124.437033
 20
711.693383
 30
0.0
 10
124.416709
 20
711.417912
 30
0.0
 10
124.416624
 20
711.123506
 30
0.0
 10
124.429068
 20
710.868557
 30
0.0
 10
124.355112
 20
710.694652
 30
0.0
 10
124.228517
 20
710.453934
 30
0.0
 10
124.040608
 20
710.159471
 30
0.0
 10
123.786680
 20
709.826372
 30
0.0
 10
123.627033
 20
709.641836
 30
0.0
 10
123.451115
 20
709.454948
 30
0.0
 10
123.250450
 20
709.258876
 30
0.0
 10
123.029320
 20
709.060280
 30
0.0
 10
122.786277
 20
708.859701
 30
0.0
 10
122.518715
 20
708.657080
 30
0.0
 10
122.226860
 20
708.454715
 30
0.0
 10
121.911676
 20
708.255241
 30
0.0
 10
121.631287
 20
708.092892
 30
0.0
  0
SPLINE
  5
123
100
AcDbEntity
  8
Layer_1
 62
7
100
AcDbSpline
 70
8
 71
3
 72
8
 73
4
 74
0
 40
0
 40
0
 40
0
 40
0
 40
1
 40
1
 40
1
 40
1
 10
113.431394
 20
715.498826
 30
0.0
 10
113.221393
 20
715.940822
 30
0.0
 10
113.034000
 20
716.393210
 30
0.0
 10
112.869942
 20
716.854237
 30
0.0
  0
LWPOLYLINE
  5
124
100
AcDbEntity
  8
Layer_1
 62
7
100
AcDbPolyline
 90
59
 70
0
 10
120.275913
 20
708.654307
 30
0.0
 10
120.192444
 20
708.967370
 30
0.0
 10
120.110625
 20
709.331288
 30
0.0
 10
120.047347
 20
709.680755
 30
0.0
 10
120.001425
 20
710.013224
 30
0.0
 10
119.971398
 20
710.326913
 30
0.0
 10
119.955467
 20
710.623704
 30
0.0
 10
119.952207
 20
710.904240
 30
0.0
 10
119.959974
 20
711.160784
 30
0.0
 10
119.977578
 20
711.404158
 30
0.0
 10
120.033562
 20
711.819249
 30
0.0
 10
120.108907
 20
712.160337
 30
0.0
 10
120.189603
 20
712.420067
 30
0.0
 10
120.260280
 20
712.595330
 30
0.0
 10
120.449353
 20
712.766807
 30
0.0
 10
120.657470
 20
712.975042
 30
0.0
 10
120.837887
 20
713.184200
 30
0.0
 10
120.990924
 20
713.392436
 30
0.0
 10
121.116980
 20
713.597786
 30
0.0
 10
121.216618
 20
713.798365
 30
0.0
 10
121.290520
 20
713.992371
 30
0.0
 10
121.339387
 20
714.177978
 30
0.0
 10
121.364133
 20
714.353482
 30
0.0
 10
121.365697
 20
714.517200
 30
0.0
 10
121.345146
 20
714.667530
 30
0.0
 10
121.303595
 20
714.802887
 30
0.0
 10
121.242302
 20
714.921869
 30
0.0
 10
121.139977
 20
715.045400
 30
0.0
 10
120.686181
 20
715.438663
 30
0.0
 10
120.446396
 20
715.669309
 30
0.0
 10
120.215749
 20
715.909095
 30
0.0
 10
119.822486
 20
716.362890
 30
0.0
 10
119.698955
 20
716.465215
 30
0.0
 10
119.579974
 20
716.526509
 30
0.0
 10
119.444617
 20
716.568059
 30
0.0
 10
119.294287
 20
716.588610
 30
0.0
 10
119.130569
 20
716.587047
 30
0.0
 10
118.955065
 20
716.562300
 30
0.0
 10
118.769458
 20
716.513434
 30
0.0
 10
118.575452
 20
716.439532
 30
0.0
 10
118.374872
 20
716.339894
 30
0.0
 10
118.169522
 20
716.213837
 30
0.0
 10
117.961286
 20
716.060800
 30
0.0
 10
117.752129
 20
715.880384
 30
0.0
 10
117.543893
 20
715.672267
 30
0.0
 10
117.372417
 20
715.483193
 30
0.0
 10
117.197154
 20
715.412517
 30
0.0
 10
116.937423
 20
715.331820
 30
0.0
 10
116.596335
 20
715.256475
 30
0.0
 10
116.181245
 20
715.200491
 30
0.0
 10
115.937870
 20
715.182888
 30
0.0
 10
115.681327
 20
715.175121
 30
0.0
 10
115.400790
 20
715.178381
 30
0.0
 10
115.103999
 20
715.194312
 30
0.0
 10
114.790311
 20
715.224339
 30
0.0
 10
114.457841
 20
715.270260
 30
0.0
 10
114.108375
 20
715.333538
 30
0.0
 10
113.744457
 20
715.415357
 30
0.0
 10
113.431394
 20
715.498826
 30
0.0
  0
SPLINE
  5
125
100
AcDbEntity
  8
Layer_1
 62
7
100
AcDbSpline
 70
8
 71
3
 72
8
 73
4
 74
0
 40
0
 40
0
 40
0
 40
0
 40
1
 40
1
 40
1
 40
1
 10
112.869941
 20
726.533901
 30
0.0
 10
113.033988
 20
726.994915
 30
0.0
 10
113.221369
 20
727.447290
 30
0.0
 10
113.431356
 20
727.889275
 30
0.0
  0
LWPOLYLINE
  5
126
100
AcDbEntity
  8
Layer_1
 62
7
100
AcDbPolyline
 90
59
 70
0
 10
112.869942
 20
716.854237
 30
0.0
 10
113.032290
 20
717.134627
 30
0.0
 10
113.231764
 20
717.449811
 30
0.0
 10
113.434129
 20
717.741666
 30
0.0
 10
113.636750
 20
718.009228
 30
0.0
 10
113.837329
 20
718.252271
 30
0.0
 10
114.035924
 20
718.473402
 30
0.0
 10
114.231997
 20
718.674066
 30
0.0
 10
114.418885
 20
718.849984
 30
0.0
 10
114.603420
 20
719.009631
 30
0.0
 10
114.936520
 20
719.263559
 30
0.0
 10
115.230983
 20
719.451468
 30
0.0
 10
115.471701
 20
719.578063
 30
0.0
 10
115.645606
 20
719.652019
 30
0.0
 10
115.900554
 20
719.639575
 30
0.0
 10
116.194961
 20
719.639660
 30
0.0
 10
116.470431
 20
719.659984
 30
0.0
 10
116.725890
 20
719.699017
 30
0.0
 10
116.960230
 20
719.755087
 30
0.0
 10
117.172517
 20
719.826463
 30
0.0
 10
117.361956
 20
719.911389
 30
0.0
 10
117.527754
 20
720.008079
 30
0.0
 10
117.669345
 20
720.114690
 30
0.0
 10
117.786217
 20
720.229351
 30
0.0
 10
117.877975
 20
720.350192
 30
0.0
 10
117.944306
 20
720.475285
 30
0.0
 10
117.985096
 20
720.602759
 30
0.0
 10
118.000091
 20
720.762463
 30
0.0
 10
117.957288
 20
721.361424
 30
0.0
 10
117.950825
 20
721.694069
 30
0.0
 10
117.957288
 20
722.026715
 30
0.0
 10
118.000091
 20
722.625676
 30
0.0
 10
117.985096
 20
722.785380
 30
0.0
 10
117.944306
 20
722.912854
 30
0.0
 10
117.877975
 20
723.037946
 30
0.0
 10
117.786217
 20
723.158787
 30
0.0
 10
117.669345
 20
723.273449
 30
0.0
 10
117.527754
 20
723.380060
 30
0.0
 10
117.361956
 20
723.476750
 30
0.0
 10
117.172517
 20
723.561676
 30
0.0
 10
116.960230
 20
723.633052
 30
0.0
 10
116.725890
 20
723.689121
 30
0.0
 10
116.470431
 20
723.728154
 30
0.0
 10
116.194961
 20
723.748479
 30
0.0
 10
115.900554
 20
723.748564
 30
0.0
 10
115.645606
 20
723.736120
 30
0.0
 10
115.471701
 20
723.810076
 30
0.0
 10
115.230983
 20
723.936671
 30
0.0
 10
114.936520
 20
724.124580
 30
0.0
 10
114.603420
 20
724.378507
 30
0.0
 10
114.418885
 20
724.538154
 30
0.0
 10
114.231997
 20
724.714072
 30
0.0
 10
114.035924
 20
724.914737
 30
0.0
 10
113.837329
 20
725.135868
 30
0.0
 10
113.636750
 20
725.378910
 30
0.0
 10
113.434129
 20
725.646472
 30
0.0
 10
113.231764
 20
725.938328
 30
0.0
 10
113.032290
 20
726.253512
 30
0.0
 10
112.869941
 20
726.533901
 30
0.0
  0
LWPOLYLINE
  5
127
100
AcDbEntity
  8
Layer_1
 62
7
100
AcDbPolyline
 90
2
 70
0
 10
113.431356
 20
727.889275
 30
0.0
 10
113.744419
 20
727.972743
 30
0.0
  0
LWPOLYLINE
  5
128
100
AcDbEntity
  8
Layer_1
 62
7
100
AcDbPolyline
 90
2
 70
0
 10
108.329386
 20
733.243465
 30
0.0
 10
144.612851
 20
733.243465
 30
0.0
  0
SPLINE
  5
129
100
AcDbEntity
  8
Layer_1
 62
7
100
AcDbSpline
 70
8
 71
3
 72
8
 73
4
 74
0
 40
0
 40
0
 40
0
 40
0
 40
1
 40
1
 40
1
 40
1
 10
210.126331
 20
737.992819
 30
0.0
 10
205.455040
 20
737.992819
 30
0.0
 10
201.243715
 20
735.178901
 30
0.0
 10
199.456090
 20
730.863192
 30
0.0
  0
SPLINE
  5
12a
100
AcDbEntity
  8
Layer_1
 62
7
100
AcDbSpline
 70
8
 71
3
 72
8
 73
4
 74
0
 40
0
 40
0
 40
0
 40
0
 40
1
 40
1
 40
1
 40
1
 10
199.456090
 20
730.863192
 30
0.0
 10
197.668464
 20
726.547482
 30
0.0
 10
198.656581
 20
721.579885
 30
0.0
 10
201.959682
 20
718.276784
 30
0.0
  0
SPLINE
  5
12b
100
AcDbEntity
  8
Layer_1
 62
7
100
AcDbSpline
 70
8
 71
3
 72
8
 73
4
 74
0
 40
0
 40
0
 40
0
 40
0
 40
1
 40
1
 40
1
 40
1
 10
201.959682
 20
718.276784
 30
0.0
 10
205.262783
 20
714.973683
 30
0.0
 10
210.230380
 20
713.985567
 30
0.0
 10
214.546089
 20
715.773192
 30
0.0
  0
SPLINE
  5
12c
100
AcDbEntity
  8
Layer_1
 62
7
100
AcDbSpline
 70
8
 71
3
 72
8
 73
4
 74
0
 40
0
 40
0
 40
0
 40
0
 40
1
 40
1
 40
1
 40
1
 10
214.546089
 20
715.773192
 30
0.0
 10
218.861799
 20
717.560818
 30
0.0
 10
221.675716
 20
721.772143
 30
0.0
 10
221.675716
 20
726.443433
 30
0.0
  0
SPLINE
  5
12d
100
AcDbEntity
  8
Layer_1
 62
7
100
AcDbSpline
 70
8
 71
3
 72
8
 73
4
 74
0
 40
0
 40
0
 40
0
 40
0
 40
1
 40
1
 40
1
 40
1
 10
221.675716
 20
726.443433
 30
0.0
 10
221.675716
 20
729.506521
 30
0.0
 10
220.458910
 20
732.444152
 30
0.0
 10
218.292980
 20
734.610082
 30
0.0
  0
SPLINE
  5
12e
100
AcDbEntity
  8
Layer_1
 62
7
100
AcDbSpline
 70
8
 71
3
 72
8
 73
4
 74
0
 40
0
 40
0
 40
0
 40
0
 40
1
 40
1
 40
1
 40
1
 10
218.292980
 20
734.610082
 30
0.0
 10
216.127050
 20
736.776012
 30
0.0
 10
213.189418
 20
737.992819
 30
0.0
 10
210.126331
 20
737.992819
 30
0.0
  0
LWPOLYLINE
  5
12f
100
AcDbEntity
  8
Layer_1
 62
7
100
AcDbPolyline
 90
14
 70
1
 10
114.067748
 20
736.272543
 30
0.0
 10
116.221151
 20
730.356118
 30
0.0
 10
118.579353
 20
730.356118
 30
0.0
 10
120.732756
 20
736.272543
 30
0.0
 10
123.138614
 20
736.272543
 30
0.0
 10
125.292017
 20
730.356118
 30
0.0
 10
127.650219
 20
730.356118
 30
0.0
 10
129.803622
 20
736.272543
 30
0.0
 10
132.209480
 20
736.272543
 30
0.0
 10
134.362883
 20
730.356118
 30
0.0
 10
136.721085
 20
730.356118
 30
0.0
 10
138.874488
 20
736.272543
 30
0.0
 10
138.874488
 20
740.807976
 30
0.0
 10
114.067748
 20
740.807976
 30
0.0
  0
SPLINE
  5
130
100
AcDbEntity
  8
Layer_1
 62
7
100
AcDbSpline
 70
8
 71
3
 72
8
 73
4
 74
0
 40
0
 40
0
 40
0
 40
0
 40
1
 40
1
 40
1
 40
1
 10
210.126331
 20
740.880164
 30
0.0
 10
204.287218
 20
740.880164
 30
0.0
 10
199.023062
 20
737.362768
 30
0.0
 10
196.788530
 20
731.968131
 30
0.0
  0
SPLINE
  5
131
100
AcDbEntity
  8
Layer_1
 62
7
100
AcDbSpline
 70
8
 71
3
 72
8
 73
4
 74
0
 40
0
 40
0
 40
0
 40
0
 40
1
 40
1
 40
1
 40
1
 10
196.788530
 20
731.968131
 30
0.0
 10
194.553998
 20
726.573494
 30
0.0
 10
195.789144
 20
720.363999
 30
0.0
 10
199.918020
 20
716.235122
 30
0.0
  0
SPLINE
  5
132
100
AcDbEntity
  8
Layer_1
 62
7
100
AcDbSpline
 70
8
 71
3
 72
8
 73
4
 74
0
 40
0
 40
0
 40
0
 40
0
 40
1
 40
1
 40
1
 40
1
 10
199.918020
 20
716.235122
 30
0.0
 10
204.046896
 20
712.106246
 30
0.0
 10
210.256392
 20
710.871101
 30
0.0
 10
215.651029
 20
713.105632
 30
0.0
  0
SPLINE
  5
133
100
AcDbEntity
  8
Layer_1
 62
7
100
AcDbSpline
 70
8
 71
3
 72
8
 73
4
 74
0
 40
0
 40
0
 40
0
 40
0
 40
1
 40
1
 40
1
 40
1
 10
215.651029
 20
713.105632
 30
0.0
 10
221.045665
 20
715.340164
 30
0.0
 10
224.563062
 20
720.604320
 30
0.0
 10
224.563062
 20
726.443433
 30
0.0
  0
SPLINE
  5
134
100
AcDbEntity
  8
Layer_1
 62
7
100
AcDbSpline
 70
8
 71
3
 72
8
 73
4
 74
0
 40
0
 40
0
 40
0
 40
0
 40
1
 40
1
 40
1
 40
1
 10
224.563062
 20
726.443433
 30
0.0
 10
224.563062
 20
730.272292
 30
0.0
 10
223.042054
 20
733.944331
 30
0.0
 10
220.334641
 20
736.651744
 30
0.0
  0
SPLINE
  5
135
100
AcDbEntity
  8
Layer_1
 62
7
100
AcDbSpline
 70
8
 71
3
 72
8
 73
4
 74
0
 40
0
 40
0
 40
0
 40
0
 40
1
 40
1
 40
1
 40
1
 10
220.334641
 20
736.651744
 30
0.0
 10
217.627229
 20
739.359156
 30
0.0
 10
213.955190
 20
740.880164
 30
0.0
 10
210.126331
 20
740.880164
 30
0.0
  0
LWPOLYLINE
  5
136
100
AcDbEntity
  8
Layer_1
 62
7
100
AcDbPolyline
 90
1
 70
1
 10
210.126331
 20
737.992819
 30
0.0
  0
LWPOLYLINE
  5
137
100
AcDbEntity
  8
Layer_1
 62
7
100
AcDbPolyline
 90
1
 70
1
 10
210.126331
 20
740.880164
 30
0.0
  0
LWPOLYLINE
  5
138
100
AcDbEntity
  8
Layer_1
 62
7
100
AcDbPolyline
 90
2
 70
0
 10
210.126331
 20
727.742739
 30
0.0
 10
210.126331
 20
725.144127
 30
0.0
  0
SPLINE
  5
139
100
AcDbEntity
  8
Layer_1
 62
7
100
AcDbSpline
 70
8
 71
3
 72
8
 73
4
 74
0
 40
0
 40
0
 40
0
 40
0
 40
1
 40
1
 40
1
 40
1
 10
210.126331
 20
732.112724
 30
0.0
 10
207.833316
 20
732.112724
 30
0.0
 10
205.766087
 20
730.731446
 30
0.0
 10
204.888588
 20
728.612977
 30
0.0
  0
SPLINE
  5
13a
100
AcDbEntity
  8
Layer_1
 62
7
100
AcDbSpline
 70
8
 71
3
 72
8
 73
4
 74
0
 40
0
 40
0
 40
0
 40
0
 40
1
 40
1
 40
1
 40
1
 10
204.888588
 20
728.612977
 30
0.0
 10
204.011090
 20
726.494508
 30
0.0
 10
204.496130
 20
724.056045
 30
0.0
 10
206.117536
 20
722.434639
 30
0.0
  0
SPLINE
  5
13b
100
AcDbEntity
  8
Layer_1
 62
7
100
AcDbSpline
 70
8
 71
3
 72
8
 73
4
 74
0
 40
0
 40
0
 40
0
 40
0
 40
1
 40
1
 40
1
 40
1
 10
206.117536
 20
722.434639
 30
0.0
 10
207.738942
 20
720.813233
 30
0.0
 10
210.177406
 20
720.328192
 30
0.0
 10
212.295875
 20
721.205691
 30
0.0
  0
SPLINE
  5
13c
100
AcDbEntity
  8
Layer_1
 62
7
100
AcDbSpline
 70
8
 71
3
 72
8
 73
4
 74
0
 40
0
 40
0
 40
0
 40
0
 40
1
 40
1
 40
1
 40
1
 10
212.295875
 20
721.205691
 30
0.0
 10
214.414344
 20
722.083189
 30
0.0
 10
215.795622
 20
724.150419
 30
0.0
 10
215.795622
 20
726.443433
 30
0.0
  0
SPLINE
  5
13d
100
AcDbEntity
  8
Layer_1
 62
7
100
AcDbSpline
 70
8
 71
3
 72
8
 73
4
 74
0
 40
0
 40
0
 40
0
 40
0
 40
1
 40
1
 40
1
 40
1
 10
215.795622
 20
726.443433
 30
0.0
 10
215.795622
 20
727.947023
 30
0.0
 10
215.198323
 20
729.389029
 30
0.0
 10
214.135125
 20
730.452227
 30
0.0
  0
SPLINE
  5
13e
100
AcDbEntity
  8
Layer_1
 62
7
100
AcDbSpline
 70
8
 71
3
 72
8
 73
4
 74
0
 40
0
 40
0
 40
0
 40
0
 40
1
 40
1
 40
1
 40
1
 10
214.135125
 20
730.452227
 30
0.0
 10
213.071927
 20
731.515426
 30
0.0
 10
211.629920
 20
732.112724
 30
0.0
 10
210.126331
 20
732.112724
 30
0.0
  0
LWPOLYLINE
  5
13f
100
AcDbEntity
  8
Layer_1
 62
7
100
AcDbPolyline
 90
2
 70
0
 10
208.827025
 20
726.443433
 30
0.0
 10
211.425637
 20
726.443433
 30
0.0
  0
LWPOLYLINE
  5
140
100
AcDbEntity
  8
Layer_1
 62
7
100
AcDbPolyline
 90
1
 70
1
 10
210.126331
 20
732.112724
 30
0.0
  0
SPLINE
  5
141
100
AcDbEntity
  8
Layer_1
 62
7
100
AcDbSpline
 70
8
 71
3
 72
8
 73
4
 74
0
 40
0
 40
0
 40
0
 40
0
 40
1
 40
1
 40
1
 40
1
 10
224.544290
 20
727.176954
 30
0.0
 10
224.569153
 20
726.688255
 30
0.0
 10
224.569153
 20
726.198607
 30
0.0
 10
224.544290
 20
725.709908
 30
0.0
  0
LWPOLYLINE
  5
142
100
AcDbEntity
  8
Layer_1
 62
7
100
AcDbPolyline
 90
58
 70
0
 10
220.797366
 20
735.798626
 30
0.0
 10
220.733691
 20
735.431098
 30
0.0
 10
220.658417
 20
735.084017
 30
0.0
 10
220.573613
 20
734.759282
 30
0.0
 10
220.481311
 20
734.457982
 30
0.0
 10
220.382456
 20
734.177684
 30
0.0
 10
220.278099
 20
733.917259
 30
0.0
 10
220.172757
 20
733.683214
 30
0.0
 10
220.063363
 20
733.465099
 30
0.0
 10
219.852794
 20
733.103029
 30
0.0
 10
219.652657
 20
732.816738
 30
0.0
 10
219.478709
 20
732.607660
 30
0.0
 10
219.346342
 20
732.472782
 30
0.0
 10
219.106038
 20
732.386714
 30
0.0
 10
218.834073
 20
732.273971
 30
0.0
 10
218.587349
 20
732.149777
 30
0.0
 10
218.366272
 20
732.015956
 30
0.0
 10
218.171225
 20
731.874476
 30
0.0
 10
218.002414
 20
731.727296
 30
0.0
 10
217.859894
 20
731.576339
 30
0.0
 10
217.743718
 20
731.423561
 30
0.0
 10
217.653704
 20
731.270881
 30
0.0
 10
217.589607
 20
731.120222
 30
0.0
 10
217.551079
 20
730.973467
 30
0.0
 10
217.537671
 20
730.832511
 30
0.0
 10
217.548754
 20
730.699130
 30
0.0
 10
217.596016
 20
730.545844
 30
0.0
 10
217.864775
 20
730.008856
 30
0.0
 10
217.998043
 20
729.704005
 30
0.0
 10
218.119368
 20
729.394207
 30
0.0
 10
218.309035
 20
728.824460
 30
0.0
 10
218.384005
 20
728.682651
 30
0.0
 10
218.470473
 20
728.580490
 30
0.0
 10
218.579627
 20
728.490303
 30
0.0
 10
218.710644
 20
728.413775
 30
0.0
 10
218.862499
 20
728.352566
 30
0.0
 10
219.034111
 20
728.308255
 30
0.0
 10
219.224291
 20
728.282375
 30
0.0
 10
219.431809
 20
728.276408
 30
0.0
 10
219.655250
 20
728.291703
 30
0.0
 10
219.893210
 20
728.329580
 30
0.0
 10
220.144162
 20
728.391278
 30
0.0
 10
220.406440
 20
728.477919
 30
0.0
 10
220.678470
 20
728.590505
 30
0.0
 10
220.909249
 20
728.699566
 30
0.0
 10
221.098218
 20
728.697791
 30
0.0
 10
221.369057
 20
728.672951
 30
0.0
 10
221.713015
 20
728.612032
 30
0.0
 10
222.117932
 20
728.504905
 30
0.0
 10
222.349514
 20
728.428029
 30
0.0
 10
222.589498
 20
728.337021
 30
0.0
 10
222.847437
 20
728.226665
 30
0.0
 10
223.115538
 20
728.098366
 30
0.0
 10
223.393857
 20
727.950582
 30
0.0
 10
223.683446
 20
727.780926
 30
0.0
 10
223.982095
 20
727.588729
 30
0.0
 10
224.287001
 20
727.373872
 30
0.0
 10
224.544290
 20
727.176954
 30
0.0
  0
SPLINE
  5
143
100
AcDbEntity
  8
Layer_1
 62
7
100
AcDbSpline
 70
8
 71
3
 72
8
 73
4
 74
0
 40
0
 40
0
 40
0
 40
0
 40
1
 40
1
 40
1
 40
1
 10
220.840056
 20
716.767062
 30
0.0
 10
220.512074
 20
716.403920
 30
0.0
 10
220.165841
 20
716.057689
 30
0.0
 10
219.802698
 20
715.729709
 30
0.0
  0
LWPOLYLINE
  5
144
100
AcDbEntity
  8
Layer_1
 62
7
100
AcDbPolyline
 90
59
 70
0
 10
224.544290
 20
725.709908
 30
0.0
 10
224.287001
 20
725.512990
 30
0.0
 10
223.982095
 20
725.298133
 30
0.0
 10
223.683446
 20
725.105936
 30
0.0
 10
223.393857
 20
724.936280
 30
0.0
 10
223.115538
 20
724.788496
 30
0.0
 10
222.847437
 20
724.660197
 30
0.0
 10
222.589498
 20
724.549841
 30
0.0
 10
222.349514
 20
724.458833
 30
0.0
 10
222.117932
 20
724.381957
 30
0.0
 10
221.713015
 20
724.274830
 30
0.0
 10
221.369057
 20
724.213911
 30
0.0
 10
221.098218
 20
724.189071
 30
0.0
 10
220.909249
 20
724.187296
 30
0.0
 10
220.678470
 20
724.296357
 30
0.0
 10
220.406440
 20
724.408943
 30
0.0
 10
220.144162
 20
724.495584
 30
0.0
 10
219.893210
 20
724.557282
 30
0.0
 10
219.655250
 20
724.595158
 30
0.0
 10
219.431809
 20
724.610454
 30
0.0
 10
219.224291
 20
724.604487
 30
0.0
 10
219.034111
 20
724.578607
 30
0.0
 10
218.862499
 20
724.534295
 30
0.0
 10
218.710644
 20
724.473087
 30
0.0
 10
218.579627
 20
724.396559
 30
0.0
 10
218.470473
 20
724.306372
 30
0.0
 10
218.384005
 20
724.204211
 30
0.0
 10
218.309035
 20
724.062402
 30
0.0
 10
218.119368
 20
723.492655
 30
0.0
 10
217.998043
 20
723.182857
 30
0.0
 10
217.864775
 20
722.878006
 30
0.0
 10
217.596016
 20
722.341018
 30
0.0
 10
217.548754
 20
722.187732
 30
0.0
 10
217.537671
 20
722.054350
 30
0.0
 10
217.551079
 20
721.913395
 30
0.0
 10
217.589607
 20
721.766640
 30
0.0
 10
217.653704
 20
721.615981
 30
0.0
 10
217.743718
 20
721.463301
 30
0.0
 10
217.859894
 20
721.310522
 30
0.0
 10
218.002414
 20
721.159566
 30
0.0
 10
218.171225
 20
721.012386
 30
0.0
 10
218.366272
 20
720.870906
 30
0.0
 10
218.587349
 20
720.737085
 30
0.0
 10
218.834073
 20
720.612891
 30
0.0
 10
219.106038
 20
720.500148
 30
0.0
 10
219.346342
 20
720.414080
 30
0.0
 10
219.478709
 20
720.279202
 30
0.0
 10
219.652657
 20
720.070124
 30
0.0
 10
219.852794
 20
719.783833
 30
0.0
 10
220.063363
 20
719.421763
 30
0.0
 10
220.172757
 20
719.203648
 30
0.0
 10
220.278099
 20
718.969603
 30
0.0
 10
220.382456
 20
718.709178
 30
0.0
 10
220.481311
 20
718.428880
 30
0.0
 10
220.573613
 20
718.127580
 30
0.0
 10
220.658417
 20
717.802845
 30
0.0
 10
220.733691
 20
717.455764
 30
0.0
 10
220.797366
 20
717.088236
 30
0.0
 10
220.840056
 20
716.767062
 30
0.0
  0
SPLINE
  5
145
100
AcDbEntity
  8
Layer_1
 62
7
100
AcDbSpline
 70
8
 71
3
 72
8
 73
4
 74
0
 40
0
 40
0
 40
0
 40
0
 40
1
 40
1
 40
1
 40
1
 10
210.859853
 20
712.025471
 30
0.0
 10
210.371154
 20
712.000608
 30
0.0
 10
209.881507
 20
712.000608
 30
0.0
 10
209.392808
 20
712.025471
 30
0.0
  0
LWPOLYLINE
  5
146
100
AcDbEntity
  8
Layer_1
 62
7
100
AcDbPolyline
 90
59
 70
0
 10
219.802698
 20
715.729709
 30
0.0
 10
219.481523
 20
715.772398
 30
0.0
 10
219.113996
 20
715.836072
 30
0.0
 10
218.766915
 20
715.911345
 30
0.0
 10
218.442180
 20
715.996150
 30
0.0
 10
218.140879
 20
716.088453
 30
0.0
 10
217.860582
 20
716.187308
 30
0.0
 10
217.600159
 20
716.291665
 30
0.0
 10
217.366113
 20
716.397006
 30
0.0
 10
217.147999
 20
716.506400
 30
0.0
 10
216.785929
 20
716.716970
 30
0.0
 10
216.499638
 20
716.917109
 30
0.0
 10
216.290561
 20
717.091057
 30
0.0
 10
216.155683
 20
717.223423
 30
0.0
 10
216.069616
 20
717.463727
 30
0.0
 10
215.956873
 20
717.735690
 30
0.0
 10
215.832677
 20
717.982414
 30
0.0
 10
215.698856
 20
718.203489
 30
0.0
 10
215.557376
 20
718.398535
 30
0.0
 10
215.410195
 20
718.567347
 30
0.0
 10
215.259238
 20
718.709867
 30
0.0
 10
215.106460
 20
718.826043
 30
0.0
 10
214.953780
 20
718.916057
 30
0.0
 10
214.803122
 20
718.980154
 30
0.0
 10
214.656367
 20
719.018683
 30
0.0
 10
214.515411
 20
719.032090
 30
0.0
 10
214.382030
 20
719.021007
 30
0.0
 10
214.228743
 20
718.973745
 30
0.0
 10
213.691756
 20
718.704986
 30
0.0
 10
213.386905
 20
718.571718
 30
0.0
 10
213.077107
 20
718.450393
 30
0.0
 10
212.507359
 20
718.260727
 30
0.0
 10
212.365550
 20
718.185756
 30
0.0
 10
212.263390
 20
718.099288
 30
0.0
 10
212.173203
 20
717.990134
 30
0.0
 10
212.096674
 20
717.859117
 30
0.0
 10
212.035466
 20
717.707262
 30
0.0
 10
211.991155
 20
717.535650
 30
0.0
 10
211.965274
 20
717.345471
 30
0.0
 10
211.959307
 20
717.137952
 30
0.0
 10
211.974603
 20
716.914511
 30
0.0
 10
212.012480
 20
716.676551
 30
0.0
 10
212.074178
 20
716.425600
 30
0.0
 10
212.160819
 20
716.163321
 30
0.0
 10
212.273405
 20
715.891292
 30
0.0
 10
212.382466
 20
715.660512
 30
0.0
 10
212.380690
 20
715.471543
 30
0.0
 10
212.355850
 20
715.200704
 30
0.0
 10
212.294931
 20
714.856746
 30
0.0
 10
212.187804
 20
714.451829
 30
0.0
 10
212.110928
 20
714.220247
 30
0.0
 10
212.019920
 20
713.980263
 30
0.0
 10
211.909564
 20
713.722324
 30
0.0
 10
211.781265
 20
713.454223
 30
0.0
 10
211.633482
 20
713.175904
 30
0.0
 10
211.463826
 20
712.886315
 30
0.0
 10
211.271629
 20
712.587666
 30
0.0
 10
211.056772
 20
712.282760
 30
0.0
 10
210.859853
 20
712.025471
 30
0.0
  0
SPLINE
  5
147
100
AcDbEntity
  8
Layer_1
 62
7
100
AcDbSpline
 70
8
 71
3
 72
8
 73
4
 74
0
 40
0
 40
0
 40
0
 40
0
 40
1
 40
1
 40
1
 40
1
 10
200.449962
 20
715.729706
 30
0.0
 10
200.086819
 20
716.057688
 30
0.0
 10
199.740587
 20
716.403922
 30
0.0
 10
199.412606
 20
716.767066
 30
0.0
  0
LWPOLYLINE
  5
148
100
AcDbEntity
  8
Layer_1
 62
7
100
AcDbPolyline
 90
59
 70
0
 10
209.392808
 20
712.025471
 30
0.0
 10
209.195889
 20
712.282760
 30
0.0
 10
208.981033
 20
712.587666
 30
0.0
 10
208.788835
 20
712.886315
 30
0.0
 10
208.619180
 20
713.175904
 30
0.0
 10
208.471396
 20
713.454223
 30
0.0
 10
208.343097
 20
713.722324
 30
0.0
 10
208.232741
 20
713.980263
 30
0.0
 10
208.141733
 20
714.220247
 30
0.0
 10
208.064857
 20
714.451829
 30
0.0
 10
207.957730
 20
714.856746
 30
0.0
 10
207.896811
 20
715.200704
 30
0.0
 10
207.871971
 20
715.471543
 30
0.0
 10
207.870195
 20
715.660512
 30
0.0
 10
207.979257
 20
715.891292
 30
0.0
 10
208.091842
 20
716.163321
 30
0.0
 10
208.178483
 20
716.425600
 30
0.0
 10
208.240181
 20
716.676551
 30
0.0
 10
208.278058
 20
716.914511
 30
0.0
 10
208.293354
 20
717.137952
 30
0.0
 10
208.287387
 20
717.345471
 30
0.0
 10
208.261507
 20
717.535650
 30
0.0
 10
208.217195
 20
717.707262
 30
0.0
 10
208.155987
 20
717.859117
 30
0.0
 10
208.079458
 20
717.990134
 30
0.0
 10
207.989271
 20
718.099288
 30
0.0
 10
207.887111
 20
718.185756
 30
0.0
 10
207.745302
 20
718.260727
 30
0.0
 10
207.175554
 20
718.450393
 30
0.0
 10
206.865757
 20
718.571718
 30
0.0
 10
206.560905
 20
718.704986
 30
0.0
 10
206.023918
 20
718.973745
 30
0.0
 10
205.870632
 20
719.021007
 30
0.0
 10
205.737250
 20
719.032090
 30
0.0
 10
205.596295
 20
719.018683
 30
0.0
 10
205.449539
 20
718.980154
 30
0.0
 10
205.298881
 20
718.916057
 30
0.0
 10
205.146201
 20
718.826043
 30
0.0
 10
204.993422
 20
718.709868
 30
0.0
 10
204.842466
 20
718.567347
 30
0.0
 10
204.695285
 20
718.398536
 30
0.0
 10
204.553805
 20
718.203489
 30
0.0
 10
204.419985
 20
717.982413
 30
0.0
 10
204.295790
 20
717.735688
 30
0.0
 10
204.183048
 20
717.463723
 30
0.0
 10
204.096980
 20
717.223419
 30
0.0
 10
203.962101
 20
717.091053
 30
0.0
 10
203.753024
 20
716.917105
 30
0.0
 10
203.466733
 20
716.716967
 30
0.0
 10
203.104663
 20
716.506398
 30
0.0
 10
202.886548
 20
716.397004
 30
0.0
 10
202.652503
 20
716.291663
 30
0.0
 10
202.392078
 20
716.187305
 30
0.0
 10
202.111780
 20
716.088450
 30
0.0
 10
201.810479
 20
715.996148
 30
0.0
 10
201.485745
 20
715.911344
 30
0.0
 10
201.138663
 20
715.836070
 30
0.0
 10
200.771136
 20
715.772395
 30
0.0
 10
200.449962
 20
715.729706
 30
0.0
  0
SPLINE
  5
149
100
AcDbEntity
  8
Layer_1
 62
7
100
AcDbSpline
 70
8
 71
3
 72
8
 73
4
 74
0
 40
0
 40
0
 40
0
 40
0
 40
1
 40
1
 40
1
 40
1
 10
195.708372
 20
725.709913
 30
0.0
 10
195.683509
 20
726.198612
 30
0.0
 10
195.683509
 20
726.688259
 30
0.0
 10
195.708372
 20
727.176958
 30
0.0
  0
LWPOLYLINE
  5
14a
100
AcDbEntity
  8
Layer_1
 62
7
100
AcDbPolyline
 90
59
 70
0
 10
199.412606
 20
716.767066
 30
0.0
 10
199.455296
 20
717.088241
 30
0.0
 10
199.518971
 20
717.455768
 30
0.0
 10
199.594245
 20
717.802849
 30
0.0
 10
199.679049
 20
718.127584
 30
0.0
 10
199.771351
 20
718.428884
 30
0.0
 10
199.870206
 20
718.709183
 30
0.0
 10
199.974563
 20
718.969607
 30
0.0
 10
200.079905
 20
719.203653
 30
0.0
 10
200.189299
 20
719.421767
 30
0.0
 10
200.399868
 20
719.783837
 30
0.0
 10
200.600005
 20
720.070128
 30
0.0
 10
200.773953
 20
720.279206
 30
0.0
 10
200.906320
 20
720.414084
 30
0.0
 10
201.146624
 20
720.500153
 30
0.0
 10
201.418589
 20
720.612895
 30
0.0
 10
201.665313
 20
720.737089
 30
0.0
 10
201.886390
 20
720.870910
 30
0.0
 10
202.081437
 20
721.012390
 30
0.0
 10
202.250248
 20
721.159570
 30
0.0
 10
202.392768
 20
721.310527
 30
0.0
 10
202.508944
 20
721.463306
 30
0.0
 10
202.598958
 20
721.615985
 30
0.0
 10
202.663055
 20
721.766644
 30
0.0
 10
202.701583
 20
721.913399
 30
0.0
 10
202.714991
 20
722.054355
 30
0.0
 10
202.703908
 20
722.187736
 30
0.0
 10
202.656646
 20
722.341022
 30
0.0
 10
202.387887
 20
722.878010
 30
0.0
 10
202.254619
 20
723.182861
 30
0.0
 10
202.133294
 20
723.492659
 30
0.0
 10
201.943627
 20
724.062407
 30
0.0
 10
201.868657
 20
724.204215
 30
0.0
 10
201.782189
 20
724.306376
 30
0.0
 10
201.673035
 20
724.396563
 30
0.0
 10
201.542018
 20
724.473091
 30
0.0
 10
201.390163
 20
724.534300
 30
0.0
 10
201.218551
 20
724.578611
 30
0.0
 10
201.028371
 20
724.604491
 30
0.0
 10
200.820853
 20
724.610458
 30
0.0
 10
200.597412
 20
724.595163
 30
0.0
 10
200.359452
 20
724.557286
 30
0.0
 10
200.108500
 20
724.495588
 30
0.0
 10
199.846222
 20
724.408947
 30
0.0
 10
199.574192
 20
724.296361
 30
0.0
 10
199.343413
 20
724.187300
 30
0.0
 10
199.154444
 20
724.189076
 30
0.0
 10
198.883605
 20
724.213916
 30
0.0
 10
198.539647
 20
724.274834
 30
0.0
 10
198.134730
 20
724.381961
 30
0.0
 10
197.903148
 20
724.458837
 30
0.0
 10
197.663164
 20
724.549845
 30
0.0
 10
197.405225
 20
724.660202
 30
0.0
 10
197.137124
 20
724.788500
 30
0.0
 10
196.858805
 20
724.936284
 30
0.0
 10
196.569216
 20
725.105940
 30
0.0
 10
196.270567
 20
725.298137
 30
0.0
 10
195.965661
 20
725.512994
 30
0.0
 10
195.708372
 20
725.709913
 30
0.0
  0
SPLINE
  5
14b
100
AcDbEntity
  8
Layer_1
 62
7
100
AcDbSpline
 70
8
 71
3
 72
8
 73
4
 74
0
 40
0
 40
0
 40
0
 40
0
 40
1
 40
1
 40
1
 40
1
 10
199.412606
 20
736.119804
 30
0.0
 10
199.740588
 20
736.482947
 30
0.0
 10
200.086821
 20
736.829180
 30
0.0
 10
200.449964
 20
737.157162
 30
0.0
  0
LWPOLYLINE
  5
14c
100
AcDbEntity
  8
Layer_1
 62
7
100
AcDbPolyline
 90
59
 70
0
 10
195.708372
 20
727.176958
 30
0.0
 10
195.965661
 20
727.373876
 30
0.0
 10
196.270567
 20
727.588733
 30
0.0
 10
196.569216
 20
727.780930
 30
0.0
 10
196.858805
 20
727.950586
 30
0.0
 10
197.137124
 20
728.098370
 30
0.0
 10
197.405225
 20
728.226669
 30
0.0
 10
197.663164
 20
728.337025
 30
0.0
 10
197.903148
 20
728.428033
 30
0.0
 10
198.134730
 20
728.504909
 30
0.0
 10
198.539647
 20
728.612036
 30
0.0
 10
198.883605
 20
728.672955
 30
0.0
 10
199.154444
 20
728.697795
 30
0.0
 10
199.343413
 20
728.699570
 30
0.0
 10
199.574192
 20
728.590509
 30
0.0
 10
199.846222
 20
728.477923
 30
0.0
 10
200.108500
 20
728.391282
 30
0.0
 10
200.359452
 20
728.329585
 30
0.0
 10
200.597412
 20
728.291708
 30
0.0
 10
200.820853
 20
728.276412
 30
0.0
 10
201.028371
 20
728.282379
 30
0.0
 10
201.218551
 20
728.308259
 30
0.0
 10
201.390163
 20
728.352571
 30
0.0
 10
201.542018
 20
728.413779
 30
0.0
 10
201.673035
 20
728.490307
 30
0.0
 10
201.782189
 20
728.580494
 30
0.0
 10
201.868657
 20
728.682655
 30
0.0
 10
201.943627
 20
728.824464
 30
0.0
 10
202.133294
 20
729.394211
 30
0.0
 10
202.254619
 20
729.704009
 30
0.0
 10
202.387887
 20
730.008860
 30
0.0
 10
202.656646
 20
730.545848
 30
0.0
 10
202.703908
 20
730.699134
 30
0.0
 10
202.714991
 20
730.832516
 30
0.0
 10
202.701583
 20
730.973471
 30
0.0
 10
202.663055
 20
731.120227
 30
0.0
 10
202.598958
 20
731.270885
 30
0.0
 10
202.508944
 20
731.423565
 30
0.0
 10
202.392768
 20
731.576344
 30
0.0
 10
202.250248
 20
731.727300
 30
0.0
 10
202.081437
 20
731.874480
 30
0.0
 10
201.886390
 20
732.015960
 30
0.0
 10
201.665313
 20
732.149781
 30
0.0
 10
201.418589
 20
732.273975
 30
0.0
 10
201.146624
 20
732.386718
 30
0.0
 10
200.906320
 20
732.472786
 30
0.0
 10
200.773953
 20
732.607664
 30
0.0
 10
200.600005
 20
732.816742
 30
0.0
 10
200.399868
 20
733.103033
 30
0.0
 10
200.189299
 20
733.465103
 30
0.0
 10
200.079905
 20
733.683218
 30
0.0
 10
199.974563
 20
733.917263
 30
0.0
 10
199.870206
 20
734.177688
 30
0.0
 10
199.771351
 20
734.457986
 30
0.0
 10
199.679049
 20
734.759287
 30
0.0
 10
199.594245
 20
735.084021
 30
0.0
 10
199.518971
 20
735.431102
 30
0.0
 10
199.455296
 20
735.798630
 30
0.0
 10
199.412606
 20
736.119804
 30
0.0
  0
SPLINE
  5
14d
100
AcDbEntity
  8
Layer_1
 62
7
100
AcDbSpline
 70
8
 71
3
 72
8
 73
4
 74
0
 40
0
 40
0
 40
0
 40
0
 40
1
 40
1
 40
1
 40
1
 10
209.392810
 20
740.861397
 30
0.0
 10
209.881509
 20
740.886259
 30
0.0
 10
210.371156
 20
740.886259
 30
0.0
 10
210.859855
 20
740.861397
 30
0.0
  0
LWPOLYLINE
  5
14e
100
AcDbEntity
  8
Layer_1
 62
7
100
AcDbPolyline
 90
59
 70
0
 10
200.449964
 20
737.157162
 30
0.0
 10
200.771138
 20
737.114472
 30
0.0
 10
201.138666
 20
737.050797
 30
0.0
 10
201.485747
 20
736.975523
 30
0.0
 10
201.810482
 20
736.890719
 30
0.0
 10
202.111782
 20
736.798418
 30
0.0
 10
202.392080
 20
736.699562
 30
0.0
 10
202.652505
 20
736.595205
 30
0.0
 10
202.886550
 20
736.489863
 30
0.0
 10
203.104665
 20
736.380469
 30
0.0
 10
203.466735
 20
736.169900
 30
0.0
 10
203.753026
 20
735.969763
 30
0.0
 10
203.962104
 20
735.795815
 30
0.0
 10
204.096982
 20
735.663448
 30
0.0
 10
204.183050
 20
735.423144
 30
0.0
 10
204.295793
 20
735.151179
 30
0.0
 10
204.419987
 20
734.904455
 30
0.0
 10
204.553808
 20
734.683378
 30
0.0
 10
204.695288
 20
734.488332
 30
0.0
 10
204.842468
 20
734.319520
 30
0.0
 10
204.993424
 20
734.177000
 30
0.0
 10
205.146203
 20
734.060824
 30
0.0
 10
205.298883
 20
733.970810
 30
0.0
 10
205.449542
 20
733.906713
 30
0.0
 10
205.596297
 20
733.868185
 30
0.0
 10
205.737252
 20
733.854777
 30
0.0
 10
205.870634
 20
733.865860
 30
0.0
 10
206.023920
 20
733.913122
 30
0.0
 10
206.560908
 20
734.181881
 30
0.0
 10
206.865759
 20
734.315149
 30
0.0
 10
207.175557
 20
734.436475
 30
0.0
 10
207.745304
 20
734.626141
 30
0.0
 10
207.887113
 20
734.701111
 30
0.0
 10
207.989274
 20
734.787579
 30
0.0
 10
208.079461
 20
734.896733
 30
0.0
 10
208.155989
 20
735.027750
 30
0.0
 10
208.217197
 20
735.179605
 30
0.0
 10
208.261509
 20
735.351218
 30
0.0
 10
208.287389
 20
735.541397
 30
0.0
 10
208.293356
 20
735.748915
 30
0.0
 10
208.278060
 20
735.972356
 30
0.0
 10
208.240183
 20
736.210316
 30
0.0
 10
208.178486
 20
736.461268
 30
0.0
 10
208.091845
 20
736.723546
 30
0.0
 10
207.979259
 20
736.995576
 30
0.0
 10
207.870198
 20
737.226355
 30
0.0
 10
207.871973
 20
737.415324
 30
0.0
 10
207.896813
 20
737.686163
 30
0.0
 10
207.957732
 20
738.030121
 30
0.0
 10
208.064859
 20
738.435038
 30
0.0
 10
208.141735
 20
738.666621
 30
0.0
 10
208.232743
 20
738.906604
 30
0.0
 10
208.343099
 20
739.164543
 30
0.0
 10
208.471398
 20
739.432644
 30
0.0
 10
208.619182
 20
739.710963
 30
0.0
 10
208.788838
 20
740.000552
 30
0.0
 10
208.981035
 20
740.299201
 30
0.0
 10
209.195892
 20
740.604107
 30
0.0
 10
209.392810
 20
740.861397
 30
0.0
  0
SPLINE
  5
14f
100
AcDbEntity
  8
Layer_1
 62
7
100
AcDbSpline
 70
8
 71
3
 72
8
 73
4
 74
0
 40
0
 40
0
 40
0
 40
0
 40
1
 40
1
 40
1
 40
1
 10
219.802702
 20
737.157162
 30
0.0
 10
220.165845
 20
736.829180
 30
0.0
 10
220.512078
 20
736.482947
 30
0.0
 10
220.840059
 20
736.119804
 30
0.0
  0
LWPOLYLINE
  5
150
100
AcDbEntity
  8
Layer_1
 62
7
100
AcDbPolyline
 90
59
 70
0
 10
210.859855
 20
740.861397
 30
0.0
 10
211.056774
 20
740.604107
 30
0.0
 10
211.271631
 20
740.299201
 30
0.0
 10
211.463828
 20
740.000552
 30
0.0
 10
211.633484
 20
739.710963
 30
0.0
 10
211.781268
 20
739.432644
 30
0.0
 10
211.909566
 20
739.164543
 30
0.0
 10
212.019923
 20
738.906604
 30
0.0
 10
212.110931
 20
738.666621
 30
0.0
 10
212.187807
 20
738.435038
 30
0.0
 10
212.294934
 20
738.030121
 30
0.0
 10
212.355852
 20
737.686163
 30
0.0
 10
212.380692
 20
737.415324
 30
0.0
 10
212.382468
 20
737.226355
 30
0.0
 10
212.273407
 20
736.995576
 30
0.0
 10
212.160821
 20
736.723546
 30
0.0
 10
212.074180
 20
736.461268
 30
0.0
 10
212.012482
 20
736.210316
 30
0.0
 10
211.974605
 20
735.972356
 30
0.0
 10
211.959310
 20
735.748915
 30
0.0
 10
211.965277
 20
735.541397
 30
0.0
 10
211.991157
 20
735.351218
 30
0.0
 10
212.035468
 20
735.179605
 30
0.0
 10
212.096677
 20
735.027750
 30
0.0
 10
212.173205
 20
734.896733
 30
0.0
 10
212.263392
 20
734.787579
 30
0.0
 10
212.365553
 20
734.701111
 30
0.0
 10
212.507361
 20
734.626141
 30
0.0
 10
213.077109
 20
734.436475
 30
0.0
 10
213.386907
 20
734.315149
 30
0.0
 10
213.691758
 20
734.181881
 30
0.0
 10
214.228746
 20
733.913122
 30
0.0
 10
214.382032
 20
733.865860
 30
0.0
 10
214.515413
 20
733.854777
 30
0.0
 10
214.656369
 20
733.868185
 30
0.0
 10
214.803124
 20
733.906713
 30
0.0
 10
214.953783
 20
733.970810
 30
0.0
 10
215.106462
 20
734.060824
 30
0.0
 10
215.259241
 20
734.177000
 30
0.0
 10
215.410198
 20
734.319520
 30
0.0
 10
215.557378
 20
734.488332
 30
0.0
 10
215.698858
 20
734.683378
 30
0.0
 10
215.832679
 20
734.904455
 30
0.0
 10
215.956873
 20
735.151179
 30
0.0
 10
216.069615
 20
735.423144
 30
0.0
 10
216.155684
 20
735.663448
 30
0.0
 10
216.290562
 20
735.795815
 30
0.0
 10
216.499640
 20
735.969763
 30
0.0
 10
216.785931
 20
736.169900
 30
0.0
 10
217.148001
 20
736.380469
 30
0.0
 10
217.366116
 20
736.489863
 30
0.0
 10
217.600161
 20
736.595205
 30
0.0
 10
217.860585
 20
736.699562
 30
0.0
 10
218.140884
 20
736.798418
 30
0.0
 10
218.442184
 20
736.890719
 30
0.0
 10
218.766919
 20
736.975523
 30
0.0
 10
219.114000
 20
737.050797
 30
0.0
 10
219.481527
 20
737.114472
 30
0.0
 10
219.802702
 20
737.157162
 30
0.0
  0
SPLINE
  5
151
100
AcDbEntity
  8
Layer_1
 62
7
100
AcDbSpline
 70
8
 71
3
 72
8
 73
4
 74
0
 40
0
 40
0
 40
0
 40
0
 40
1
 40
1
 40
1
 40
1
 10
163.928693
 20
781.303014
 30
0.0
 10
141.740064
 20
781.303014
 30
0.0
 10
121.736270
 20
767.936906
 30
0.0
 10
113.245049
 20
747.437286
 30
0.0
  0
SPLINE
  5
152
100
AcDbEntity
  8
Layer_1
 62
7
100
AcDbSpline
 70
8
 71
3
 72
8
 73
4
 74
0
 40
0
 40
0
 40
0
 40
0
 40
1
 40
1
 40
1
 40
1
 10
113.245049
 20
747.437286
 30
0.0
 10
104.753828
 20
726.937665
 30
0.0
 10
109.447381
 20
703.341582
 30
0.0
 10
125.137111
 20
687.651851
 30
0.0
  0
SPLINE
  5
153
100
AcDbEntity
  8
Layer_1
 62
7
100
AcDbSpline
 70
8
 71
3
 72
8
 73
4
 74
0
 40
0
 40
0
 40
0
 40
0
 40
1
 40
1
 40
1
 40
1
 10
125.137111
 20
687.651851
 30
0.0
 10
140.826841
 20
671.962121
 30
0.0
 10
164.422925
 20
667.268568
 30
0.0
 10
184.922546
 20
675.759789
 30
0.0
  0
SPLINE
  5
154
100
AcDbEntity
  8
Layer_1
 62
7
100
AcDbSpline
 70
8
 71
3
 72
8
 73
4
 74
0
 40
0
 40
0
 40
0
 40
0
 40
1
 40
1
 40
1
 40
1
 10
184.922546
 20
675.759789
 30
0.0
 10
205.422166
 20
684.251010
 30
0.0
 10
218.788274
 20
704.254804
 30
0.0
 10
218.788274
 20
726.443433
 30
0.0
  0
SPLINE
  5
155
100
AcDbEntity
  8
Layer_1
 62
7
100
AcDbSpline
 70
8
 71
3
 72
8
 73
4
 74
0
 40
0
 40
0
 40
0
 40
0
 40
1
 40
1
 40
1
 40
1
 10
218.788274
 20
726.443433
 30
0.0
 10
218.788274
 20
740.993099
 30
0.0
 10
213.008442
 20
754.946848
 30
0.0
 10
202.720275
 20
765.235015
 30
0.0
  0
SPLINE
  5
156
100
AcDbEntity
  8
Layer_1
 62
7
100
AcDbSpline
 70
8
 71
3
 72
8
 73
4
 74
0
 40
0
 40
0
 40
0
 40
0
 40
1
 40
1
 40
1
 40
1
 10
202.720275
 20
765.235015
 30
0.0
 10
192.432107
 20
775.523182
 30
0.0
 10
178.478358
 20
781.303014
 30
0.0
 10
163.928693
 20
781.303014
 30
0.0
  0
LWPOLYLINE
  5
157
100
AcDbEntity
  8
Layer_1
 62
7
100
AcDbPolyline
 90
2
 70
0
 10
220.840059
 20
736.119804
 30
0.0
 10
220.797366
 20
735.798626
 30
0.0
  0
SPLINE
  5
158
100
AcDbEntity
  8
Layer_1
 62
7
100
AcDbSpline
 70
8
 71
3
 72
8
 73
4
 74
0
 40
0
 40
0
 40
0
 40
0
 40
1
 40
1
 40
1
 40
1
 10
163.928693
 20
784.190358
 30
0.0
 10
140.572242
 20
784.190358
 30
0.0
 10
119.515617
 20
770.120772
 30
0.0
 10
110.577491
 20
748.542225
 30
0.0
  0
SPLINE
  5
159
100
AcDbEntity
  8
Layer_1
 62
7
100
AcDbSpline
 70
8
 71
3
 72
8
 73
4
 74
0
 40
0
 40
0
 40
0
 40
0
 40
1
 40
1
 40
1
 40
1
 10
110.577491
 20
748.542225
 30
0.0
 10
101.639364
 20
726.963678
 30
0.0
 10
106.579945
 20
702.125695
 30
0.0
 10
123.095450
 20
685.610191
 30
0.0
  0
SPLINE
  5
15a
100
AcDbEntity
  8
Layer_1
 62
7
100
AcDbSpline
 70
8
 71
3
 72
8
 73
4
 74
0
 40
0
 40
0
 40
0
 40
0
 40
1
 40
1
 40
1
 40
1
 10
123.095450
 20
685.610191
 30
0.0
 10
139.610955
 20
669.094686
 30
0.0
 10
164.448937
 20
664.154104
 30
0.0
 10
186.027485
 20
673.092231
 30
0.0
  0
SPLINE
  5
15b
100
AcDbEntity
  8
Layer_1
 62
7
100
AcDbSpline
 70
8
 71
3
 72
8
 73
4
 74
0
 40
0
 40
0
 40
0
 40
0
 40
1
 40
1
 40
1
 40
1
 10
186.027485
 20
673.092231
 30
0.0
 10
207.606032
 20
682.030358
 30
0.0
 10
221.675618
 20
703.086982
 30
0.0
 10
221.675618
 20
726.443433
 30
0.0
  0
SPLINE
  5
15c
100
AcDbEntity
  8
Layer_1
 62
7
100
AcDbSpline
 70
8
 71
3
 72
8
 73
4
 74
0
 40
0
 40
0
 40
0
 40
0
 40
1
 40
1
 40
1
 40
1
 10
221.675618
 20
726.443433
 30
0.0
 10
221.675618
 20
741.758870
 30
0.0
 10
215.591585
 20
756.447026
 30
0.0
 10
204.761935
 20
767.276676
 30
0.0
  0
SPLINE
  5
15d
100
AcDbEntity
  8
Layer_1
 62
7
100
AcDbSpline
 70
8
 71
3
 72
8
 73
4
 74
0
 40
0
 40
0
 40
0
 40
0
 40
1
 40
1
 40
1
 40
1
 10
204.761935
 20
767.276676
 30
0.0
 10
193.932286
 20
778.106325
 30
0.0
 10
179.244130
 20
784.190358
 30
0.0
 10
163.928693
 20
784.190358
 30
0.0
  0
LWPOLYLINE
  5
15e
100
AcDbEntity
  8
Layer_1
 62
7
100
AcDbPolyline
 90
1
 70
1
 10
163.928693
 20
781.303014
 30
0.0
  0
SPLINE
  5
15f
100
AcDbEntity
  8
Layer_1
 62
7
100
AcDbSpline
 70
8
 71
3
 72
8
 73
4
 74
0
 40
0
 40
0
 40
0
 40
0
 40
1
 40
1
 40
1
 40
1
 10
163.928693
 20
787.077709
 30
0.0
 10
139.404418
 20
787.077709
 30
0.0
 10
117.294961
 20
772.304642
 30
0.0
 10
107.909927
 20
749.647166
 30
0.0
  0
SPLINE
  5
160
100
AcDbEntity
  8
Layer_1
 62
7
100
AcDbSpline
 70
8
 71
3
 72
8
 73
4
 74
0
 40
0
 40
0
 40
0
 40
0
 40
1
 40
1
 40
1
 40
1
 10
107.909927
 20
749.647166
 30
0.0
 10
98.524893
 20
726.989690
 30
0.0
 10
103.712504
 20
700.909807
 30
0.0
 10
121.053785
 20
683.568526
 30
0.0
  0
SPLINE
  5
161
100
AcDbEntity
  8
Layer_1
 62
7
100
AcDbSpline
 70
8
 71
3
 72
8
 73
4
 74
0
 40
0
 40
0
 40
0
 40
0
 40
1
 40
1
 40
1
 40
1
 10
121.053785
 20
683.568526
 30
0.0
 10
138.395067
 20
666.227244
 30
0.0
 10
164.474950
 20
661.039633
 30
0.0
 10
187.132426
 20
670.424667
 30
0.0
  0
SPLINE
  5
162
100
AcDbEntity
  8
Layer_1
 62
7
100
AcDbSpline
 70
8
 71
3
 72
8
 73
4
 74
0
 40
0
 40
0
 40
0
 40
0
 40
1
 40
1
 40
1
 40
1
 10
187.132426
 20
670.424667
 30
0.0
 10
209.789902
 20
679.809701
 30
0.0
 10
224.562969
 20
701.919158
 30
0.0
 10
224.562969
 20
726.443433
 30
0.0
  0
SPLINE
  5
163
100
AcDbEntity
  8
Layer_1
 62
7
100
AcDbSpline
 70
8
 71
3
 72
8
 73
4
 74
0
 40
0
 40
0
 40
0
 40
0
 40
1
 40
1
 40
1
 40
1
 10
224.562969
 20
726.443433
 30
0.0
 10
224.562969
 20
742.524643
 30
0.0
 10
218.174733
 20
757.947208
 30
0.0
 10
206.803600
 20
769.318341
 30
0.0
  0
SPLINE
  5
164
100
AcDbEntity
  8
Layer_1
 62
7
100
AcDbSpline
 70
8
 71
3
 72
8
 73
4
 74
0
 40
0
 40
0
 40
0
 40
0
 40
1
 40
1
 40
1
 40
1
 10
206.803600
 20
769.318341
 30
0.0
 10
195.432468
 20
780.689473
 30
0.0
 10
180.009903
 20
787.077709
 30
0.0
 10
163.928693
 20
787.077709
 30
0.0
  0
LWPOLYLINE
  5
165
100
AcDbEntity
  8
Layer_1
 62
7
100
AcDbPolyline
 90
1
 70
1
 10
163.928693
 20
784.190358
 30
0.0
  0
LWPOLYLINE
  5
166
100
AcDbEntity
  8
Layer_1
 62
7
100
AcDbPolyline
 90
1
 70
1
 10
163.928693
 20
787.077709
 30
0.0
  0
LWPOLYLINE
  5
167
100
AcDbEntity
  8
Layer_1
 62
7
100
AcDbPolyline
 90
2
 70
0
 10
163.928693
 20
727.742739
 30
0.0
 10
163.928693
 20
725.144127
 30
0.0
  0
LWPOLYLINE
  5
168
100
AcDbEntity
  8
Layer_1
 62
7
100
AcDbPolyline
 90
2
 70
0
 10
162.629387
 20
726.443433
 30
0.0
 10
165.227999
 20
726.443433
 30
0.0
  0
SPLINE
  5
169
100
AcDbEntity
  8
Layer_1
 62
7
100
AcDbSpline
 70
8
 71
3
 72
8
 73
4
 74
0
 40
0
 40
0
 40
0
 40
0
 40
1
 40
1
 40
1
 40
1
 10
224.051950
 20
735.285900
 30
0.0
 10
223.986012
 20
735.690360
 30
0.0
 10
223.923902
 20
736.095435
 30
0.0
 10
223.865629
 20
736.501071
 30
0.0
  0
LWPOLYLINE
  5
16a
100
AcDbEntity
  8
Layer_1
 62
7
100
AcDbPolyline
 90
44
 70
0
 10
224.694850
 20
727.115159
 30
0.0
 10
224.676992
 20
727.190816
 30
0.0
 10
224.629597
 20
727.303238
 30
0.0
 10
224.584271
 20
727.377109
 30
0.0
 10
224.527975
 20
727.449874
 30
0.0
 10
224.382643
 20
727.591238
 30
0.0
 10
224.193912
 20
727.725572
 30
0.0
 10
223.962208
 20
727.851175
 30
0.0
 10
223.182142
 20
728.184189
 30
0.0
 10
222.404825
 20
728.483074
 30
0.0
 10
221.600211
 20
728.757354
 30
0.0
 10
220.972876
 20
728.943137
 30
0.0
 10
220.724220
 20
729.008135
 30
0.0
 10
219.873487
 20
729.183657
 30
0.0
 10
219.148328
 20
729.345005
 30
0.0
 10
218.970028
 20
729.396057
 30
0.0
 10
218.845984
 20
729.451049
 30
0.0
 10
218.783367
 20
729.492718
 30
0.0
 10
218.739005
 20
729.535380
 30
0.0
 10
218.709893
 20
729.581528
 30
0.0
 10
218.695153
 20
729.636350
 30
0.0
 10
218.619269
 20
730.747672
 30
0.0
 10
218.619269
 20
730.747659
 30
0.0
 10
218.520369
 20
731.857171
 30
0.0
 10
218.526605
 20
731.913642
 30
0.0
 10
218.548148
 20
731.963776
 30
0.0
 10
218.585282
 20
732.012852
 30
0.0
 10
218.640614
 20
732.063805
 30
0.0
 10
218.754539
 20
732.137526
 30
0.0
 10
218.922661
 20
732.215841
 30
0.0
 10
219.613652
 20
732.488642
 30
0.0
 10
220.426452
 20
732.795086
 30
0.0
 10
220.661870
 20
732.898182
 30
0.0
 10
221.252420
 20
733.179815
 30
0.0
 10
222.004222
 20
733.576588
 30
0.0
 10
222.725211
 20
733.993392
 30
0.0
 10
223.443578
 20
734.444336
 30
0.0
 10
223.652775
 20
734.604638
 30
0.0
 10
223.818177
 20
734.766842
 30
0.0
 10
223.939613
 20
734.929199
 30
0.0
 10
223.983833
 20
735.009876
 30
0.0
 10
224.017055
 20
735.089930
 30
0.0
 10
224.046281
 20
735.208381
 30
0.0
 10
224.051950
 20
735.285900
 30
0.0
  0
SPLINE
  5
16b
100
AcDbEntity
  8
Layer_1
 62
7
100
AcDbSpline
 70
8
 71
3
 72
8
 73
4
 74
0
 40
0
 40
0
 40
0
 40
0
 40
1
 40
1
 40
1
 40
1
 10
221.928256
 20
744.582386
 30
0.0
 10
221.799857
 20
744.971552
 30
0.0
 10
221.675143
 20
745.361924
 30
0.0
 10
221.554131
 20
745.753449
 30
0.0
  0
LWPOLYLINE
  5
16c
100
AcDbEntity
  8
Layer_1
 62
7
100
AcDbPolyline
 90
45
 70
0
 10
223.865629
 20
736.501071
 30
0.0
 10
223.841818
 20
736.612813
 30
0.0
 10
223.812337
 20
736.684745
 30
0.0
 10
223.747934
 20
736.788368
 30
0.0
 10
223.691610
 20
736.854239
 30
0.0
 10
223.624627
 20
736.917302
 30
0.0
 10
223.458970
 20
737.034191
 30
0.0
 10
223.251559
 20
737.137347
 30
0.0
 10
223.003046
 20
737.225158
 30
0.0
 10
222.180489
 20
737.432045
 30
0.0
 10
221.365987
 20
737.605650
 30
0.0
 10
220.528372
 20
737.750685
 30
0.0
 10
219.879697
 20
737.836044
 30
0.0
 10
219.623927
 20
737.861358
 30
0.0
 10
218.756208
 20
737.901635
 30
0.0
 10
218.014739
 20
737.947557
 30
0.0
 10
217.830657
 20
737.970092
 30
0.0
 10
217.699526
 20
738.005001
 30
0.0
 10
217.631154
 20
738.036360
 30
0.0
 10
217.580669
 20
738.071555
 30
0.0
 10
217.544698
 20
738.112581
 30
0.0
 10
217.521454
 20
738.164404
 30
0.0
 10
217.272657
 20
739.250174
 30
0.0
 10
217.272660
 20
739.250161
 30
0.0
 10
217.001412
 20
740.330541
 30
0.0
 10
216.998600
 20
740.387271
 30
0.0
 10
217.011923
 20
740.440157
 30
0.0
 10
217.040922
 20
740.494440
 30
0.0
 10
217.087608
 20
740.553421
 30
0.0
 10
217.188578
 20
740.644053
 30
0.0
 10
217.342386
 20
740.747705
 30
0.0
 10
217.982194
 20
741.125242
 30
0.0
 10
218.737052
 20
741.555064
 30
0.0
 10
218.953449
 20
741.693721
 30
0.0
 10
219.492669
 20
742.064268
 30
0.0
 10
220.173146
 20
742.573763
 30
0.0
 10
220.820057
 20
743.098224
 30
0.0
 10
221.459037
 20
743.655993
 30
0.0
 10
221.640596
 20
743.847048
 30
0.0
 10
221.778587
 20
744.033128
 30
0.0
 10
221.873122
 20
744.212485
 30
0.0
 10
221.904162
 20
744.299086
 30
0.0
 10
221.924571
 20
744.383349
 30
0.0
 10
221.934776
 20
744.504915
 30
0.0
 10
221.928256
 20
744.582386
 30
0.0
  0
SPLINE
  5
16d
100
AcDbEntity
  8
Layer_1
 62
7
100
AcDbSpline
 70
8
 71
3
 72
8
 73
4
 74
0
 40
0
 40
0
 40
0
 40
0
 40
1
 40
1
 40
1
 40
1
 10
218.376621
 20
753.432188
 30
0.0
 10
218.188948
 20
753.796474
 30
0.0
 10
218.004727
 20
754.162527
 30
0.0
 10
217.823981
 20
754.530299
 30
0.0
  0
LWPOLYLINE
  5
16e
100
AcDbEntity
  8
Layer_1
 62
7
100
AcDbPolyline
 90
45
 70
0
 10
221.554131
 20
745.753449
 30
0.0
 10
221.513114
 20
745.860086
 30
0.0
 10
221.472748
 20
745.926521
 30
0.0
 10
221.392925
 20
746.018795
 30
0.0
 10
221.326991
 20
746.075043
 30
0.0
 10
221.250966
 20
746.126849
 30
0.0
 10
221.069066
 20
746.216384
 30
0.0
 10
220.848077
 20
746.285821
 30
0.0
 10
220.588906
 20
746.333676
 30
0.0
 10
219.744111
 20
746.409338
 30
0.0
 10
218.912479
 20
746.453391
 30
0.0
 10
218.062488
 20
746.465609
 30
0.0
 10
217.408448
 20
746.448431
 30
0.0
 10
217.151884
 20
746.433407
 30
0.0
 10
216.288550
 20
746.337446
 30
0.0
 10
215.549022
 20
746.266809
 30
0.0
 10
215.363665
 20
746.260261
 30
0.0
 10
215.228707
 20
746.274236
 30
0.0
 10
215.156282
 20
746.294504
 30
0.0
 10
215.100893
 20
746.321376
 30
0.0
 10
215.058940
 20
746.356271
 30
0.0
 10
215.027872
 20
746.403819
 30
0.0
 10
214.612285
 20
747.437301
 30
0.0
 10
214.612291
 20
747.437289
 30
0.0
 10
214.175373
 20
748.461935
 30
0.0
 10
214.163751
 20
748.517525
 30
0.0
 10
214.168853
 20
748.571859
 30
0.0
 10
214.188979
 20
748.630012
 30
0.0
 10
214.225858
 20
748.695566
 30
0.0
 10
214.311407
 20
748.800879
 30
0.0
 10
214.447102
 20
748.927313
 30
0.0
 10
215.019972
 20
749.400290
 30
0.0
 10
215.698297
 20
749.942906
 30
0.0
 10
215.890345
 20
750.113707
 30
0.0
 10
216.364961
 20
750.564045
 30
0.0
 10
216.957356
 20
751.173718
 30
0.0
 10
217.514259
 20
751.792921
 30
0.0
 10
218.058120
 20
752.443781
 30
0.0
 10
218.207534
 20
752.660887
 30
0.0
 10
218.314712
 20
752.866260
 30
0.0
 10
218.380022
 20
753.058197
 30
0.0
 10
218.397030
 20
753.148588
 30
0.0
 10
218.403833
 20
753.234985
 30
0.0
 10
218.395046
 20
753.356671
 30
0.0
 10
218.376621
 20
753.432188
 30
0.0
  0
SPLINE
  5
16f
100
AcDbEntity
  8
Layer_1
 62
7
100
AcDbSpline
 70
8
 71
3
 72
8
 73
4
 74
0
 40
0
 40
0
 40
0
 40
0
 40
1
 40
1
 40
1
 40
1
 10
213.484071
 20
761.617477
 30
0.0
 10
213.241698
 20
761.947919
 30
0.0
 10
213.002457
 20
762.280646
 30
0.0
 10
212.766381
 20
762.615615
 30
0.0
  0
LWPOLYLINE
  5
170
100
AcDbEntity
  8
Layer_1
 62
7
100
AcDbPolyline
 90
45
 70
0
 10
217.823981
 20
754.530299
 30
0.0
 10
217.766778
 20
754.629205
 30
0.0
 10
217.716520
 20
754.688509
 30
0.0
 10
217.623260
 20
754.767162
 30
0.0
 10
217.549332
 20
754.812403
 30
0.0
 10
217.466135
 20
754.851691
 30
0.0
 10
217.272472
 20
754.911672
 30
0.0
 10
217.043320
 20
754.945688
 30
0.0
 10
216.779839
 20
754.952491
 30
0.0
 10
215.933610
 20
754.895061
 30
0.0
 10
215.105326
 20
754.808462
 30
0.0
 10
214.263887
 20
754.687562
 30
0.0
 10
213.620584
 20
754.568291
 30
0.0
 10
213.369520
 20
754.513319
 30
0.0
 10
212.531825
 20
754.283486
 30
0.0
 10
211.812454
 20
754.098032
 30
0.0
 10
211.630414
 20
754.062574
 30
0.0
 10
211.494917
 20
754.055260
 30
0.0
 10
211.420196
 20
754.063963
 30
0.0
 10
211.361292
 20
754.081821
 30
0.0
 10
211.314407
 20
754.109714
 30
0.0
 10
211.276281
 20
754.151817
 30
0.0
 10
210.704136
 20
755.107563
 30
0.0
 10
210.704145
 20
755.107551
 30
0.0
 10
210.112316
 20
756.051233
 30
0.0
 10
210.092190
 20
756.104326
 30
0.0
 10
210.088505
 20
756.158780
 30
0.0
 10
210.099277
 20
756.219356
 30
0.0
 10
210.125356
 20
756.289882
 30
0.0
 10
210.193387
 20
756.407293
 30
0.0
 10
210.307623
 20
756.553391
 30
0.0
 10
210.799451
 20
757.110161
 30
0.0
 10
211.384542
 20
757.752211
 30
0.0
 10
211.547506
 20
757.950948
 30
0.0
 10
211.945830
 20
758.469988
 30
0.0
 10
212.435558
 20
759.164825
 30
0.0
 10
212.888741
 20
759.863523
 30
0.0
 10
213.324086
 20
760.591449
 30
0.0
 10
213.437699
 20
760.829247
 30
0.0
 10
213.511428
 20
761.048847
 30
0.0
 10
213.545897
 20
761.248633
 30
0.0
 10
213.548672
 20
761.340589
 30
0.0
 10
213.541869
 20
761.426989
 30
0.0
 10
213.514089
 20
761.545789
 30
0.0
 10
213.484071
 20
761.617477
 30
0.0
  0
SPLINE
  5
171
100
AcDbEntity
  8
Layer_1
 62
7
100
AcDbSpline
 70
8
 71
3
 72
8
 73
4
 74
0
 40
0
 40
0
 40
0
 40
0
 40
1
 40
1
 40
1
 40
1
 10
207.371588
 20
768.936560
 30
0.0
 10
207.080507
 20
769.225017
 30
0.0
 10
206.792161
 20
769.516222
 30
0.0
 10
206.506590
 20
769.810136
 30
0.0
  0
LWPOLYLINE
  5
172
100
AcDbEntity
  8
Layer_1
 62
7
100
AcDbPolyline
 90
45
 70
0
 10
212.766381
 20
762.615615
 30
0.0
 10
212.694409
 20
762.704340
 30
0.0
 10
212.635505
 20
762.755051
 30
0.0
 10
212.531077
 20
762.818151
 30
0.0
 10
212.450998
 20
762.851259
 30
0.0
 10
212.362671
 20
762.877054
 30
0.0
 10
212.162006
 20
762.905996
 30
0.0
 10
211.930359
 20
762.903740
 30
0.0
 10
211.669089
 20
762.869157
 30
0.0
 10
210.842263
 20
762.680058
 30
0.0
 10
210.037720
 20
762.464965
 30
0.0
 10
209.225557
 20
762.213929
 30
0.0
 10
208.608831
 20
761.995491
 30
0.0
 10
208.369446
 20
761.901919
 30
0.0
 10
207.578018
 20
761.543870
 30
0.0
 10
206.896516
 20
761.248165
 30
0.0
 10
206.722270
 20
761.184669
 30
0.0
 10
206.589609
 20
761.156237
 30
0.0
 10
206.514462
 20
761.153119
 30
0.0
 10
206.453489
 20
761.161623
 30
0.0
 10
206.402805
 20
761.181749
 30
0.0
 10
206.358557
 20
761.217381
 30
0.0
 10
205.643945
 20
762.071859
 30
0.0
 10
205.643954
 20
762.071848
 30
0.0
 10
204.911790
 20
762.911328
 30
0.0
 10
204.883444
 20
762.960594
 30
0.0
 10
204.871538
 20
763.013801
 30
0.0
 10
204.872740
 20
763.075341
 30
0.0
 10
204.887480
 20
763.149070
 30
0.0
 10
204.936293
 20
763.275665
 30
0.0
 10
205.026265
 20
763.437835
 30
0.0
 10
205.424938
 20
764.064692
 30
0.0
 10
205.902386
 20
764.790364
 30
0.0
 10
206.032241
 20
765.012146
 30
0.0
 10
206.344466
 20
765.587109
 30
0.0
 10
206.719469
 20
766.350003
 30
0.0
 10
207.057770
 20
767.110992
 30
0.0
 10
207.373884
 20
767.898060
 30
0.0
 10
207.448917
 20
768.150711
 30
0.0
 10
207.487383
 20
768.379156
 30
0.0
 10
207.490190
 20
768.581889
 30
0.0
 10
207.478568
 20
768.673137
 30
0.0
 10
207.458442
 20
768.757411
 30
0.0
 10
207.412464
 20
768.870428
 30
0.0
 10
207.371588
 20
768.936560
 30
0.0
  0
SPLINE
  5
173
100
AcDbEntity
  8
Layer_1
 62
7
100
AcDbSpline
 70
8
 71
3
 72
8
 73
4
 74
0
 40
0
 40
0
 40
0
 40
0
 40
1
 40
1
 40
1
 40
1
 10
200.189415
 20
775.209351
 30
0.0
 10
199.856793
 20
775.448722
 30
0.0
 10
199.526442
 20
775.691234
 30
0.0
 10
199.198409
 20
775.936857
 30
0.0
  0
LWPOLYLINE
  5
174
100
AcDbEntity
  8
Layer_1
 62
7
100
AcDbPolyline
 90
45
 70
0
 10
206.506590
 20
769.810136
 30
0.0
 10
206.421636
 20
769.886529
 30
0.0
 10
206.355504
 20
769.927405
 30
0.0
 10
206.242486
 20
769.973383
 30
0.0
 10
206.158212
 20
769.993509
 30
0.0
 10
206.066965
 20
770.005131
 30
0.0
 10
205.864231
 20
770.002325
 30
0.0
 10
205.635787
 20
769.963859
 30
0.0
 10
205.383135
 20
769.888826
 30
0.0
 10
204.596067
 20
769.572711
 30
0.0
 10
203.835078
 20
769.234411
 30
0.0
 10
203.072185
 20
768.859407
 30
0.0
 10
202.497222
 20
768.547182
 30
0.0
 10
202.275439
 20
768.417327
 30
0.0
 10
201.549767
 20
767.939879
 30
0.0
 10
200.922911
 20
767.541206
 30
0.0
 10
200.760741
 20
767.451234
 30
0.0
 10
200.634146
 20
767.402422
 30
0.0
 10
200.560416
 20
767.387682
 30
0.0
 10
200.498876
 20
767.386480
 30
0.0
 10
200.445670
 20
767.398385
 30
0.0
 10
200.396404
 20
767.426732
 30
0.0
 10
199.556923
 20
768.158895
 30
0.0
 10
199.556935
 20
768.158887
 30
0.0
 10
198.702456
 20
768.873498
 30
0.0
 10
198.666825
 20
768.917747
 30
0.0
 10
198.646699
 20
768.968430
 30
0.0
 10
198.638195
 20
769.029403
 30
0.0
 10
198.641313
 20
769.104550
 30
0.0
 10
198.669745
 20
769.237211
 30
0.0
 10
198.733241
 20
769.411457
 30
0.0
 10
199.028945
 20
770.092960
 30
0.0
 10
199.386995
 20
770.884387
 30
0.0
 10
199.480567
 20
771.123773
 30
0.0
 10
199.699004
 20
771.740498
 30
0.0
 10
199.950041
 20
772.552661
 30
0.0
 10
200.165134
 20
773.357204
 30
0.0
 10
200.354233
 20
774.184031
 30
0.0
 10
200.388815
 20
774.445300
 30
0.0
 10
200.391072
 20
774.676947
 30
0.0
 10
200.362130
 20
774.877612
 30
0.0
 10
200.336335
 20
774.965940
 30
0.0
 10
200.303226
 20
775.046018
 30
0.0
 10
200.240127
 20
775.150447
 30
0.0
 10
200.189415
 20
775.209351
 30
0.0
  0
SPLINE
  5
175
100
AcDbEntity
  8
Layer_1
 62
7
100
AcDbSpline
 70
8
 71
3
 72
8
 73
4
 74
0
 40
0
 40
0
 40
0
 40
0
 40
1
 40
1
 40
1
 40
1
 10
192.114270
 20
780.281728
 30
0.0
 10
191.748297
 20
780.466118
 30
0.0
 10
191.384077
 20
780.653967
 30
0.0
 10
191.021658
 20
780.845250
 30
0.0
  0
LWPOLYLINE
  5
176
100
AcDbEntity
  8
Layer_1
 62
7
100
AcDbPolyline
 90
45
 70
0
 10
199.198409
 20
775.936857
 30
0.0
 10
199.102541
 20
775.999020
 30
0.0
 10
199.030853
 20
776.029039
 30
0.0
 10
198.912053
 20
776.056819
 30
0.0
 10
198.825653
 20
776.063622
 30
0.0
 10
198.733697
 20
776.060847
 30
0.0
 10
198.533911
 20
776.026378
 30
0.0
 10
198.314311
 20
775.952649
 30
0.0
 10
198.076513
 20
775.839036
 30
0.0
 10
197.348587
 20
775.403691
 30
0.0
 10
196.649889
 20
774.950508
 30
0.0
 10
195.955053
 20
774.460780
 30
0.0
 10
195.436012
 20
774.062456
 30
0.0
 10
195.237275
 20
773.899492
 30
0.0
 10
194.595225
 20
773.314401
 30
0.0
 10
194.038455
 20
772.822573
 30
0.0
 10
193.892357
 20
772.708337
 30
0.0
 10
193.774946
 20
772.640306
 30
0.0
 10
193.704420
 20
772.614227
 30
0.0
 10
193.643844
 20
772.603455
 30
0.0
 10
193.589391
 20
772.607140
 30
0.0
 10
193.536298
 20
772.627266
 30
0.0
 10
192.592616
 20
773.219095
 30
0.0
 10
192.592627
 20
773.219086
 30
0.0
 10
191.636882
 20
773.791231
 30
0.0
 10
191.594779
 20
773.829357
 30
0.0
 10
191.566886
 20
773.876242
 30
0.0
 10
191.549027
 20
773.935146
 30
0.0
 10
191.540325
 20
774.009867
 30
0.0
 10
191.547638
 20
774.145363
 30
0.0
 10
191.583097
 20
774.327404
 30
0.0
 10
191.768551
 20
775.046775
 30
0.0
 10
191.998384
 20
775.884470
 30
0.0
 10
192.053356
 20
776.135534
 30
0.0
 10
192.172627
 20
776.778837
 30
0.0
 10
192.293527
 20
777.620276
 30
0.0
 10
192.380126
 20
778.448560
 30
0.0
 10
192.437556
 20
779.294789
 30
0.0
 10
192.430752
 20
779.558270
 30
0.0
 10
192.396737
 20
779.787422
 30
0.0
 10
192.336756
 20
779.981085
 30
0.0
 10
192.297467
 20
780.064282
 30
0.0
 10
192.252226
 20
780.138210
 30
0.0
 10
192.173573
 20
780.231470
 30
0.0
 10
192.114270
 20
780.281728
 30
0.0
  0
SPLINE
  5
177
100
AcDbEntity
  8
Layer_1
 62
7
100
AcDbSpline
 70
8
 71
3
 72
8
 73
4
 74
0
 40
0
 40
0
 40
0
 40
0
 40
1
 40
1
 40
1
 40
1
 10
183.345142
 20
784.028146
 30
0.0
 10
182.954829
 20
784.153015
 30
0.0
 10
182.565707
 20
784.281575
 30
0.0
 10
182.177828
 20
784.413808
 30
0.0
  0
LWPOLYLINE
  5
178
100
AcDbEntity
  8
Layer_1
 62
7
100
AcDbPolyline
 90
45
 70
0
 10
191.021658
 20
780.845250
 30
0.0
 10
190.917244
 20
780.891653
 30
0.0
 10
190.841726
 20
780.910078
 30
0.0
 10
190.720041
 20
780.918866
 30
0.0
 10
190.633643
 20
780.912062
 30
0.0
 10
190.543252
 20
780.895054
 30
0.0
 10
190.351316
 20
780.829744
 30
0.0
 10
190.145943
 20
780.722566
 30
0.0
 10
189.928837
 20
780.573152
 30
0.0
 10
189.277977
 20
780.029291
 30
0.0
 10
188.658774
 20
779.472388
 30
0.0
 10
188.049101
 20
778.879993
 30
0.0
 10
187.598763
 20
778.405377
 30
0.0
 10
187.427962
 20
778.213329
 30
0.0
 10
186.885346
 20
777.535004
 30
0.0
 10
186.412368
 20
776.962134
 30
0.0
 10
186.285935
 20
776.826439
 30
0.0
 10
186.180622
 20
776.740890
 30
0.0
 10
186.115068
 20
776.704011
 30
0.0
 10
186.056915
 20
776.683885
 30
0.0
 10
186.002581
 20
776.678783
 30
0.0
 10
185.946991
 20
776.690405
 30
0.0
 10
184.922344
 20
777.127323
 30
0.0
 10
184.922357
 20
777.127317
 30
0.0
 10
183.888875
 20
777.542905
 30
0.0
 10
183.841326
 20
777.573972
 30
0.0
 10
183.806432
 20
777.615925
 30
0.0
 10
183.779559
 20
777.671314
 30
0.0
 10
183.759292
 20
777.743739
 30
0.0
 10
183.745317
 20
777.878697
 30
0.0
 10
183.751865
 20
778.064054
 30
0.0
 10
183.822502
 20
778.803582
 30
0.0
 10
183.918463
 20
779.666916
 30
0.0
 10
183.933486
 20
779.923480
 30
0.0
 10
183.950664
 20
780.577520
 30
0.0
 10
183.938447
 20
781.427511
 30
0.0
 10
183.894394
 20
782.259143
 30
0.0
 10
183.818731
 20
783.103938
 30
0.0
 10
183.770877
 20
783.363110
 30
0.0
 10
183.701439
 20
783.584099
 30
0.0
 10
183.611904
 20
783.765998
 30
0.0
 10
183.560098
 20
783.842023
 30
0.0
 10
183.503851
 20
783.907957
 30
0.0
 10
183.411577
 20
783.987780
 30
0.0
 10
183.345142
 20
784.028146
 30
0.0
  0
SPLINE
  5
179
100
AcDbEntity
  8
Layer_1
 62
7
100
AcDbSpline
 70
8
 71
3
 72
8
 73
4
 74
0
 40
0
 40
0
 40
0
 40
0
 40
1
 40
1
 40
1
 40
1
 10
174.097870
 20
786.356850
 30
0.0
 10
173.692829
 20
786.419126
 30
0.0
 10
173.288387
 20
786.485232
 30
0.0
 10
172.884597
 20
786.555162
 30
0.0
  0
LWPOLYLINE
  5
17a
100
AcDbEntity
  8
Layer_1
 62
7
100
AcDbPolyline
 90
45
 70
0
 10
182.177828
 20
784.413808
 30
0.0
 10
182.067444
 20
784.443288
 30
0.0
 10
181.989973
 20
784.449808
 30
0.0
 10
181.868406
 20
784.439603
 30
0.0
 10
181.784144
 20
784.419194
 30
0.0
 10
181.697542
 20
784.388154
 30
0.0
 10
181.518186
 20
784.293619
 30
0.0
 10
181.332105
 20
784.155628
 30
0.0
 10
181.141050
 20
783.974069
 30
0.0
 10
180.583281
 20
783.335089
 30
0.0
 10
180.058821
 20
782.688178
 30
0.0
 10
179.549325
 20
782.007701
 30
0.0
 10
179.178778
 20
781.468481
 30
0.0
 10
179.040122
 20
781.252084
 30
0.0
 10
178.610300
 20
780.497226
 30
0.0
 10
178.232762
 20
779.857418
 30
0.0
 10
178.129110
 20
779.703610
 30
0.0
 10
178.038478
 20
779.602640
 30
0.0
 10
177.979498
 20
779.555954
 30
0.0
 10
177.925214
 20
779.526955
 30
0.0
 10
177.872328
 20
779.513632
 30
0.0
 10
177.815599
 20
779.516444
 30
0.0
 10
176.735218
 20
779.787692
 30
0.0
 10
176.735231
 20
779.787689
 30
0.0
 10
175.649462
 20
780.036486
 30
0.0
 10
175.597639
 20
780.059730
 30
0.0
 10
175.556613
 20
780.095701
 30
0.0
 10
175.521418
 20
780.146186
 30
0.0
 10
175.490058
 20
780.214558
 30
0.0
 10
175.455149
 20
780.345689
 30
0.0
 10
175.432614
 20
780.529771
 30
0.0
 10
175.386693
 20
781.271240
 30
0.0
 10
175.346415
 20
782.138959
 30
0.0
 10
175.321102
 20
782.394729
 30
0.0
 10
175.235742
 20
783.043404
 30
0.0
 10
175.090707
 20
783.881019
 30
0.0
 10
174.917102
 20
784.695521
 30
0.0
 10
174.710216
 20
785.518078
 30
0.0
 10
174.622404
 20
785.766591
 30
0.0
 10
174.519249
 20
785.974003
 30
0.0
 10
174.402359
 20
786.139659
 30
0.0
 10
174.339297
 20
786.206642
 30
0.0
 10
174.273425
 20
786.262966
 30
0.0
 10
174.169802
 20
786.327369
 30
0.0
 10
174.097870
 20
786.356850
 30
0.0
  0
SPLINE
  5
17b
100
AcDbEntity
  8
Layer_1
 62
7
100
AcDbSpline
 70
8
 71
3
 72
8
 73
4
 74
0
 40
0
 40
0
 40
0
 40
0
 40
1
 40
1
 40
1
 40
1
 10
164.600419
 20
787.209591
 30
0.0
 10
164.190623
 20
787.207697
 30
0.0
 10
163.780819
 20
787.209682
 30
0.0
 10
163.371061
 20
787.215543
 30
0.0
  0
LWPOLYLINE
  5
17c
100
AcDbEntity
  8
Layer_1
 62
7
100
AcDbPolyline
 90
45
 70
0
 10
172.884597
 20
786.555162
 30
0.0
 10
172.770959
 20
786.567067
 30
0.0
 10
172.693440
 20
786.561398
 30
0.0
 10
172.574988
 20
786.532173
 30
0.0
 10
172.494935
 20
786.498951
 30
0.0
 10
172.414258
 20
786.454730
 30
0.0
 10
172.251901
 20
786.333294
 30
0.0
 10
172.089697
 20
786.167892
 30
0.0
 10
171.929395
 20
785.958695
 30
0.0
 10
171.478451
 20
785.240328
 30
0.0
 10
171.061647
 20
784.519339
 30
0.0
 10
170.664874
 20
783.767537
 30
0.0
 10
170.383241
 20
783.176987
 30
0.0
 10
170.280145
 20
782.941569
 30
0.0
 10
169.973701
 20
782.128769
 30
0.0
 10
169.700900
 20
781.437779
 30
0.0
 10
169.622584
 20
781.269656
 30
0.0
 10
169.548864
 20
781.155731
 30
0.0
 10
169.497911
 20
781.100399
 30
0.0
 10
169.448835
 20
781.063265
 30
0.0
 10
169.398701
 20
781.041722
 30
0.0
 10
169.342229
 20
781.035486
 30
0.0
 10
168.232718
 20
781.134386
 30
0.0
 10
168.232731
 20
781.134386
 30
0.0
 10
167.121408
 20
781.210270
 30
0.0
 10
167.066586
 20
781.225010
 30
0.0
 10
167.020438
 20
781.254122
 30
0.0
 10
166.977777
 20
781.298484
 30
0.0
 10
166.936108
 20
781.361101
 30
0.0
 10
166.881116
 20
781.485146
 30
0.0
 10
166.830064
 20
781.663445
 30
0.0
 10
166.668917
 20
782.388227
 30
0.0
 10
166.493395
 20
783.238961
 30
0.0
 10
166.428397
 20
783.487616
 30
0.0
 10
166.242614
 20
784.114951
 30
0.0
 10
165.968334
 20
784.919565
 30
0.0
 10
165.669449
 20
785.696882
 30
0.0
 10
165.336435
 20
786.476948
 30
0.0
 10
165.210831
 20
786.708652
 30
0.0
 10
165.076498
 20
786.897383
 30
0.0
 10
164.935134
 20
787.042715
 30
0.0
 10
164.862369
 20
787.099011
 30
0.0
 10
164.788498
 20
787.144337
 30
0.0
 10
164.676076
 20
787.191732
 30
0.0
 10
164.600419
 20
787.209591
 30
0.0
  0
SPLINE
  5
17d
100
AcDbEntity
  8
Layer_1
 62
7
100
AcDbSpline
 70
8
 71
3
 72
8
 73
4
 74
0
 40
0
 40
0
 40
0
 40
0
 40
1
 40
1
 40
1
 40
1
 10
155.086226
 20
786.566690
 30
0.0
 10
154.681766
 20
786.500752
 30
0.0
 10
154.276691
 20
786.438642
 30
0.0
 10
153.871055
 20
786.380369
 30
0.0
  0
LWPOLYLINE
  5
17e
100
AcDbEntity
  8
Layer_1
 62
7
100
AcDbPolyline
 90
45
 70
0
 10
163.371061
 20
787.215543
 30
0.0
 10
163.256967
 20
787.209591
 30
0.0
 10
163.181310
 20
787.191732
 30
0.0
 10
163.068888
 20
787.144337
 30
0.0
 10
162.995017
 20
787.099011
 30
0.0
 10
162.922252
 20
787.042715
 30
0.0
 10
162.780888
 20
786.897383
 30
0.0
 10
162.646554
 20
786.708652
 30
0.0
 10
162.520951
 20
786.476948
 30
0.0
 10
162.187937
 20
785.696882
 30
0.0
 10
161.889052
 20
784.919565
 30
0.0
 10
161.614772
 20
784.114951
 30
0.0
 10
161.428989
 20
783.487616
 30
0.0
 10
161.363991
 20
783.238961
 30
0.0
 10
161.188469
 20
782.388227
 30
0.0
 10
161.027121
 20
781.663068
 30
0.0
 10
160.976069
 20
781.484769
 30
0.0
 10
160.921077
 20
781.360724
 30
0.0
 10
160.879408
 20
781.298107
 30
0.0
 10
160.836746
 20
781.253745
 30
0.0
 10
160.790598
 20
781.224633
 30
0.0
 10
160.735776
 20
781.209893
 30
0.0
 10
159.624454
 20
781.134009
 30
0.0
 10
159.624467
 20
781.134009
 30
0.0
 10
158.514955
 20
781.035109
 30
0.0
 10
158.458484
 20
781.041345
 30
0.0
 10
158.408350
 20
781.062888
 30
0.0
 10
158.359274
 20
781.100022
 30
0.0
 10
158.308321
 20
781.155354
 30
0.0
 10
158.234600
 20
781.269279
 30
0.0
 10
158.156285
 20
781.437402
 30
0.0
 10
157.883484
 20
782.128392
 30
0.0
 10
157.577040
 20
782.941192
 30
0.0
 10
157.473944
 20
783.176610
 30
0.0
 10
157.192311
 20
783.767160
 30
0.0
 10
156.795538
 20
784.518962
 30
0.0
 10
156.378734
 20
785.239951
 30
0.0
 10
155.927790
 20
785.958318
 30
0.0
 10
155.767488
 20
786.167515
 30
0.0
 10
155.605284
 20
786.332917
 30
0.0
 10
155.442927
 20
786.454353
 30
0.0
 10
155.362250
 20
786.498574
 30
0.0
 10
155.282196
 20
786.531796
 30
0.0
 10
155.163745
 20
786.561021
 30
0.0
 10
155.086226
 20
786.566690
 30
0.0
  0
SPLINE
  5
17f
100
AcDbEntity
  8
Layer_1
 62
7
100
AcDbSpline
 70
8
 71
3
 72
8
 73
4
 74
0
 40
0
 40
0
 40
0
 40
0
 40
1
 40
1
 40
1
 40
1
 10
145.789740
 20
784.442996
 30
0.0
 10
145.400574
 20
784.314597
 30
0.0
 10
145.010202
 20
784.189883
 30
0.0
 10
144.618677
 20
784.068871
 30
0.0
  0
LWPOLYLINE
  5
180
100
AcDbEntity
  8
Layer_1
 62
7
100
AcDbPolyline
 90
45
 70
0
 10
153.871055
 20
786.380369
 30
0.0
 10
153.759313
 20
786.356558
 30
0.0
 10
153.687381
 20
786.327077
 30
0.0
 10
153.583758
 20
786.262674
 30
0.0
 10
153.517887
 20
786.206350
 30
0.0
 10
153.454824
 20
786.139367
 30
0.0
 10
153.337935
 20
785.973711
 30
0.0
 10
153.234779
 20
785.766300
 30
0.0
 10
153.146968
 20
785.517786
 30
0.0
 10
152.940081
 20
784.695229
 30
0.0
 10
152.766476
 20
783.880727
 30
0.0
 10
152.621441
 20
783.043112
 30
0.0
 10
152.536082
 20
782.394437
 30
0.0
 10
152.510768
 20
782.138667
 30
0.0
 10
152.470491
 20
781.270948
 30
0.0
 10
152.424569
 20
780.529479
 30
0.0
 10
152.402034
 20
780.345397
 30
0.0
 10
152.367125
 20
780.214266
 30
0.0
 10
152.335766
 20
780.145894
 30
0.0
 10
152.300571
 20
780.095409
 30
0.0
 10
152.259545
 20
780.059438
 30
0.0
 10
152.207722
 20
780.036194
 30
0.0
 10
151.121952
 20
779.787397
 30
0.0
 10
151.121965
 20
779.787400
 30
0.0
 10
150.041585
 20
779.516152
 30
0.0
 10
149.984855
 20
779.513340
 30
0.0
 10
149.931969
 20
779.526663
 30
0.0
 10
149.877686
 20
779.555662
 30
0.0
 10
149.818705
 20
779.602348
 30
0.0
 10
149.728073
 20
779.703318
 30
0.0
 10
149.624421
 20
779.857126
 30
0.0
 10
149.246884
 20
780.496934
 30
0.0
 10
148.817062
 20
781.251792
 30
0.0
 10
148.678405
 20
781.468189
 30
0.0
 10
148.307858
 20
782.007409
 30
0.0
 10
147.798363
 20
782.687886
 30
0.0
 10
147.273902
 20
783.334797
 30
0.0
 10
146.716133
 20
783.973777
 30
0.0
 10
146.525078
 20
784.155336
 30
0.0
 10
146.338998
 20
784.293327
 30
0.0
 10
146.159641
 20
784.387862
 30
0.0
 10
146.073040
 20
784.418902
 30
0.0
 10
145.988777
 20
784.439311
 30
0.0
 10
145.867211
 20
784.449516
 30
0.0
 10
145.789740
 20
784.442996
 30
0.0
  0
SPLINE
  5
181
100
AcDbEntity
  8
Layer_1
 62
7
100
AcDbSpline
 70
8
 71
3
 72
8
 73
4
 74
0
 40
0
 40
0
 40
0
 40
0
 40
1
 40
1
 40
1
 40
1
 10
136.939938
 20
780.891361
 30
0.0
 10
136.575649
 20
780.703665
 30
0.0
 10
136.209593
 20
780.519420
 30
0.0
 10
135.841818
 20
780.338650
 30
0.0
  0
LWPOLYLINE
  5
182
100
AcDbEntity
  8
Layer_1
 62
7
100
AcDbPolyline
 90
45
 70
0
 10
144.618677
 20
784.068871
 30
0.0
 10
144.512040
 20
784.027854
 30
0.0
 10
144.445605
 20
783.987489
 30
0.0
 10
144.353331
 20
783.907665
 30
0.0
 10
144.297083
 20
783.841731
 30
0.0
 10
144.245277
 20
783.765706
 30
0.0
 10
144.155742
 20
783.583807
 30
0.0
 10
144.086305
 20
783.362818
 30
0.0
 10
144.038450
 20
783.103646
 30
0.0
 10
143.962788
 20
782.258851
 30
0.0
 10
143.918735
 20
781.427220
 30
0.0
 10
143.906517
 20
780.577228
 30
0.0
 10
143.923695
 20
779.923188
 30
0.0
 10
143.938719
 20
779.666624
 30
0.0
 10
144.034680
 20
778.803290
 30
0.0
 10
144.105317
 20
778.063762
 30
0.0
 10
144.111865
 20
777.878405
 30
0.0
 10
144.097890
 20
777.743447
 30
0.0
 10
144.077622
 20
777.671022
 30
0.0
 10
144.050750
 20
777.615633
 30
0.0
 10
144.015855
 20
777.573680
 30
0.0
 10
143.968307
 20
777.542613
 30
0.0
 10
142.934825
 20
777.127025
 30
0.0
 10
142.934837
 20
777.127031
 30
0.0
 10
141.910191
 20
776.690113
 30
0.0
 10
141.854601
 20
776.678491
 30
0.0
 10
141.800266
 20
776.683593
 30
0.0
 10
141.742114
 20
776.703719
 30
0.0
 10
141.676560
 20
776.740598
 30
0.0
 10
141.571247
 20
776.826147
 30
0.0
 10
141.444813
 20
776.961842
 30
0.0
 10
140.971836
 20
777.534712
 30
0.0
 10
140.429220
 20
778.213037
 30
0.0
 10
140.258419
 20
778.405085
 30
0.0
 10
139.808081
 20
778.879701
 30
0.0
 10
139.198408
 20
779.472096
 30
0.0
 10
138.579205
 20
780.028999
 30
0.0
 10
137.928345
 20
780.572860
 30
0.0
 10
137.711239
 20
780.722274
 30
0.0
 10
137.505866
 20
780.829452
 30
0.0
 10
137.313929
 20
780.894763
 30
0.0
 10
137.223538
 20
780.911770
 30
0.0
 10
137.137141
 20
780.918574
 30
0.0
 10
137.015455
 20
780.909786
 30
0.0
 10
136.939938
 20
780.891361
 30
0.0
  0
SPLINE
  5
183
100
AcDbEntity
  8
Layer_1
 62
7
100
AcDbSpline
 70
8
 71
3
 72
8
 73
4
 74
0
 40
0
 40
0
 40
0
 40
0
 40
1
 40
1
 40
1
 40
1
 10
128.754641
 20
775.998740
 30
0.0
 10
128.424199
 20
775.756367
 30
0.0
 10
128.091471
 20
775.517127
 30
0.0
 10
127.756502
 20
775.281050
 30
0.0
  0
LWPOLYLINE
  5
184
100
AcDbEntity
  8
Layer_1
 62
7
100
AcDbPolyline
 90
45
 70
0
 10
135.841818
 20
780.338650
 30
0.0
 10
135.742912
 20
780.281447
 30
0.0
 10
135.683608
 20
780.231189
 30
0.0
 10
135.604955
 20
780.137929
 30
0.0
 10
135.559714
 20
780.064002
 30
0.0
 10
135.520426
 20
779.980805
 30
0.0
 10
135.460445
 20
779.787142
 30
0.0
 10
135.426429
 20
779.557989
 30
0.0
 10
135.419626
 20
779.294509
 30
0.0
 10
135.477056
 20
778.448279
 30
0.0
 10
135.563654
 20
777.619996
 30
0.0
 10
135.684555
 20
776.778557
 30
0.0
 10
135.803825
 20
776.135254
 30
0.0
 10
135.858798
 20
775.884189
 30
0.0
 10
136.088631
 20
775.046494
 30
0.0
 10
136.274085
 20
774.327124
 30
0.0
 10
136.309543
 20
774.145083
 30
0.0
 10
136.316856
 20
774.009587
 30
0.0
 10
136.308154
 20
773.934866
 30
0.0
 10
136.290296
 20
773.875962
 30
0.0
 10
136.262403
 20
773.829077
 30
0.0
 10
136.220300
 20
773.790951
 30
0.0
 10
135.264555
 20
773.218806
 30
0.0
 10
135.264566
 20
773.218814
 30
0.0
 10
134.320884
 20
772.626986
 30
0.0
 10
134.267791
 20
772.606860
 30
0.0
 10
134.213338
 20
772.603174
 30
0.0
 10
134.152761
 20
772.613946
 30
0.0
 10
134.082235
 20
772.640025
 30
0.0
 10
133.964824
 20
772.708056
 30
0.0
 10
133.818727
 20
772.822293
 30
0.0
 10
133.261957
 20
773.314121
 30
0.0
 10
132.619907
 20
773.899211
 30
0.0
 10
132.421170
 20
774.062175
 30
0.0
 10
131.902129
 20
774.460500
 30
0.0
 10
131.207292
 20
774.950227
 30
0.0
 10
130.508595
 20
775.403410
 30
0.0
 10
129.780669
 20
775.838755
 30
0.0
 10
129.542871
 20
775.952368
 30
0.0
 10
129.323271
 20
776.026097
 30
0.0
 10
129.123485
 20
776.060566
 30
0.0
 10
129.031529
 20
776.063341
 30
0.0
 10
128.945129
 20
776.056538
 30
0.0
 10
128.826329
 20
776.028759
 30
0.0
 10
128.754641
 20
775.998740
 30
0.0
  0
SPLINE
  5
185
100
AcDbEntity
  8
Layer_1
 62
7
100
AcDbSpline
 70
8
 71
3
 72
8
 73
4
 74
0
 40
0
 40
0
 40
0
 40
0
 40
1
 40
1
 40
1
 40
1
 10
121.435557
 20
769.886257
 30
0.0
 10
121.147100
 20
769.595176
 30
0.0
 10
120.855895
 20
769.306830
 30
0.0
 10
120.561982
 20
769.021260
 30
0.0
  0
LWPOLYLINE
  5
186
100
AcDbEntity
  8
Layer_1
 62
7
100
AcDbPolyline
 90
45
 70
0
 10
127.756502
 20
775.281050
 30
0.0
 10
127.667778
 20
775.209078
 30
0.0
 10
127.617066
 20
775.150174
 30
0.0
 10
127.553967
 20
775.045746
 30
0.0
 10
127.520858
 20
774.965667
 30
0.0
 10
127.495063
 20
774.877340
 30
0.0
 10
127.466121
 20
774.676675
 30
0.0
 10
127.468378
 20
774.445028
 30
0.0
 10
127.502960
 20
774.183759
 30
0.0
 10
127.692060
 20
773.356932
 30
0.0
 10
127.907152
 20
772.552389
 30
0.0
 10
128.158189
 20
771.740226
 30
0.0
 10
128.376626
 20
771.123501
 30
0.0
 10
128.470198
 20
770.884115
 30
0.0
 10
128.828248
 20
770.092688
 30
0.0
 10
129.123952
 20
769.411185
 30
0.0
 10
129.187449
 20
769.236939
 30
0.0
 10
129.215880
 20
769.104278
 30
0.0
 10
129.218998
 20
769.029131
 30
0.0
 10
129.210494
 20
768.968158
 30
0.0
 10
129.190368
 20
768.917475
 30
0.0
 10
129.154737
 20
768.873226
 30
0.0
 10
128.300258
 20
768.158614
 30
0.0
 10
128.300270
 20
768.158623
 30
0.0
 10
127.460789
 20
767.426460
 30
0.0
 10
127.411523
 20
767.398113
 30
0.0
 10
127.358317
 20
767.386208
 30
0.0
 10
127.296777
 20
767.387409
 30
0.0
 10
127.223048
 20
767.402150
 30
0.0
 10
127.096452
 20
767.450962
 30
0.0
 10
126.934282
 20
767.540934
 30
0.0
 10
126.307426
 20
767.939607
 30
0.0
 10
125.581754
 20
768.417055
 30
0.0
 10
125.359971
 20
768.546910
 30
0.0
 10
124.785009
 20
768.859135
 30
0.0
 10
124.022115
 20
769.234139
 30
0.0
 10
123.261126
 20
769.572439
 30
0.0
 10
122.474058
 20
769.888553
 30
0.0
 10
122.221406
 20
769.963586
 30
0.0
 10
121.992962
 20
770.002053
 30
0.0
 10
121.790228
 20
770.004859
 30
0.0
 10
121.698981
 20
769.993237
 30
0.0
 10
121.614707
 20
769.973111
 30
0.0
 10
121.501689
 20
769.927133
 30
0.0
 10
121.435557
 20
769.886257
 30
0.0
  0
SPLINE
  5
187
100
AcDbEntity
  8
Layer_1
 62
7
100
AcDbSpline
 70
8
 71
3
 72
8
 73
4
 74
0
 40
0
 40
0
 40
0
 40
0
 40
1
 40
1
 40
1
 40
1
 10
115.162767
 20
762.704084
 30
0.0
 10
114.923396
 20
762.371462
 30
0.0
 10
114.680883
 20
762.041112
 30
0.0
 10
114.435261
 20
761.713078
 30
0.0
  0
LWPOLYLINE
  5
188
100
AcDbEntity
  8
Layer_1
 62
7
100
AcDbPolyline
 90
45
 70
0
 10
120.561982
 20
769.021260
 30
0.0
 10
120.485588
 20
768.936305
 30
0.0
 10
120.444712
 20
768.870173
 30
0.0
 10
120.398734
 20
768.757156
 30
0.0
 10
120.378609
 20
768.672882
 30
0.0
 10
120.366986
 20
768.581634
 30
0.0
 10
120.369793
 20
768.378900
 30
0.0
 10
120.408259
 20
768.150456
 30
0.0
 10
120.483292
 20
767.897804
 30
0.0
 10
120.799406
 20
767.110737
 30
0.0
 10
121.137707
 20
766.349748
 30
0.0
 10
121.512711
 20
765.586854
 30
0.0
 10
121.824935
 20
765.011891
 30
0.0
 10
121.954791
 20
764.790109
 30
0.0
 10
122.432238
 20
764.064437
 30
0.0
 10
122.830911
 20
763.437580
 30
0.0
 10
122.920883
 20
763.275410
 30
0.0
 10
122.969696
 20
763.148815
 30
0.0
 10
122.984436
 20
763.075086
 30
0.0
 10
122.985638
 20
763.013546
 30
0.0
 10
122.973732
 20
762.960339
 30
0.0
 10
122.945386
 20
762.911073
 30
0.0
 10
122.213222
 20
762.071593
 30
0.0
 10
122.213231
 20
762.071604
 30
0.0
 10
121.498620
 20
761.217126
 30
0.0
 10
121.454371
 20
761.181494
 30
0.0
 10
121.403687
 20
761.161368
 30
0.0
 10
121.342714
 20
761.152864
 30
0.0
 10
121.267568
 20
761.155982
 30
0.0
 10
121.134906
 20
761.184414
 30
0.0
 10
120.960660
 20
761.247910
 30
0.0
 10
120.279158
 20
761.543614
 30
0.0
 10
119.487730
 20
761.901664
 30
0.0
 10
119.248345
 20
761.995236
 30
0.0
 10
118.631619
 20
762.213674
 30
0.0
 10
117.819456
 20
762.464710
 30
0.0
 10
117.014913
 20
762.679803
 30
0.0
 10
116.188087
 20
762.868902
 30
0.0
 10
115.926817
 20
762.903485
 30
0.0
 10
115.695170
 20
762.905741
 30
0.0
 10
115.494506
 20
762.876799
 30
0.0
 10
115.406178
 20
762.851004
 30
0.0
 10
115.326099
 20
762.817895
 30
0.0
 10
115.221671
 20
762.754796
 30
0.0
 10
115.162767
 20
762.704084
 30
0.0
  0
SPLINE
  5
189
100
AcDbEntity
  8
Layer_1
 62
7
100
AcDbSpline
 70
8
 71
3
 72
8
 73
4
 74
0
 40
0
 40
0
 40
0
 40
0
 40
1
 40
1
 40
1
 40
1
 10
110.090390
 20
754.628939
 30
0.0
 10
109.905999
 20
754.262966
 30
0.0
 10
109.718150
 20
753.898746
 30
0.0
 10
109.526868
 20
753.536328
 30
0.0
  0
LWPOLYLINE
  5
18a
100
AcDbEntity
  8
Layer_1
 62
7
100
AcDbPolyline
 90
45
 70
0
 10
114.435261
 20
761.713078
 30
0.0
 10
114.373097
 20
761.617210
 30
0.0
 10
114.343078
 20
761.545522
 30
0.0
 10
114.315299
 20
761.426722
 30
0.0
 10
114.308495
 20
761.340322
 30
0.0
 10
114.311271
 20
761.248366
 30
0.0
 10
114.345740
 20
761.048580
 30
0.0
 10
114.419469
 20
760.828980
 30
0.0
 10
114.533082
 20
760.591182
 30
0.0
 10
114.968426
 20
759.863256
 30
0.0
 10
115.421610
 20
759.164559
 30
0.0
 10
115.911337
 20
758.469722
 30
0.0
 10
116.309662
 20
757.950681
 30
0.0
 10
116.472626
 20
757.751944
 30
0.0
 10
117.057716
 20
757.109894
 30
0.0
 10
117.549544
 20
756.553124
 30
0.0
 10
117.663780
 20
756.407027
 30
0.0
 10
117.731812
 20
756.289616
 30
0.0
 10
117.757891
 20
756.219090
 30
0.0
 10
117.768662
 20
756.158513
 30
0.0
 10
117.764977
 20
756.104060
 30
0.0
 10
117.744851
 20
756.050967
 30
0.0
 10
117.153023
 20
755.107285
 30
0.0
 10
117.153031
 20
755.107296
 30
0.0
 10
116.580886
 20
754.151551
 30
0.0
 10
116.542760
 20
754.109448
 30
0.0
 10
116.495875
 20
754.081555
 30
0.0
 10
116.436971
 20
754.063697
 30
0.0
 10
116.362250
 20
754.054994
 30
0.0
 10
116.226754
 20
754.062308
 30
0.0
 10
116.044713
 20
754.097766
 30
0.0
 10
115.325342
 20
754.283220
 30
0.0
 10
114.487648
 20
754.513053
 30
0.0
 10
114.236583
 20
754.568025
 30
0.0
 10
113.593280
 20
754.687296
 30
0.0
 10
112.751841
 20
754.808196
 30
0.0
 10
111.923558
 20
754.894795
 30
0.0
 10
111.077328
 20
754.952225
 30
0.0
 10
110.813848
 20
754.945422
 30
0.0
 10
110.584695
 20
754.911406
 30
0.0
 10
110.391032
 20
754.851425
 30
0.0
 10
110.307835
 20
754.812137
 30
0.0
 10
110.233908
 20
754.766896
 30
0.0
 10
110.140648
 20
754.688243
 30
0.0
 10
110.090390
 20
754.628939
 30
0.0
  0
SPLINE
  5
18b
100
AcDbEntity
  8
Layer_1
 62
7
100
AcDbSpline
 70
8
 71
3
 72
8
 73
4
 74
0
 40
0
 40
0
 40
0
 40
0
 40
1
 40
1
 40
1
 40
1
 10
106.343972
 20
745.859811
 30
0.0
 10
106.219102
 20
745.469499
 30
0.0
 10
106.090542
 20
745.080376
 30
0.0
 10
105.958310
 20
744.692497
 30
0.0
  0
LWPOLYLINE
  5
18c
100
AcDbEntity
  8
Layer_1
 62
7
100
AcDbPolyline
 90
45
 70
0
 10
109.526868
 20
753.536328
 30
0.0
 10
109.480465
 20
753.431913
 30
0.0
 10
109.462039
 20
753.356396
 30
0.0
 10
109.453252
 20
753.234710
 30
0.0
 10
109.460055
 20
753.148313
 30
0.0
 10
109.477063
 20
753.057922
 30
0.0
 10
109.542373
 20
752.865985
 30
0.0
 10
109.649551
 20
752.660612
 30
0.0
 10
109.798965
 20
752.443506
 30
0.0
 10
110.342826
 20
751.792646
 30
0.0
 10
110.899729
 20
751.173443
 30
0.0
 10
111.492125
 20
750.563770
 30
0.0
 10
111.966741
 20
750.113433
 30
0.0
 10
112.158788
 20
749.942631
 30
0.0
 10
112.837113
 20
749.400015
 30
0.0
 10
113.409984
 20
748.927038
 30
0.0
 10
113.545678
 20
748.800604
 30
0.0
 10
113.631228
 20
748.695291
 30
0.0
 10
113.668106
 20
748.629737
 30
0.0
 10
113.688232
 20
748.571585
 30
0.0
 10
113.693335
 20
748.517250
 30
0.0
 10
113.681713
 20
748.461660
 30
0.0
 10
113.244795
 20
747.437014
 30
0.0
 10
113.244800
 20
747.437026
 30
0.0
 10
112.829213
 20
746.403544
 30
0.0
 10
112.798145
 20
746.355996
 30
0.0
 10
112.756192
 20
746.321101
 30
0.0
 10
112.700803
 20
746.294229
 30
0.0
 10
112.628378
 20
746.273961
 30
0.0
 10
112.493421
 20
746.259986
 30
0.0
 10
112.308063
 20
746.266534
 30
0.0
 10
111.568535
 20
746.337171
 30
0.0
 10
110.705202
 20
746.433132
 30
0.0
 10
110.448638
 20
746.448156
 30
0.0
 10
109.794597
 20
746.465334
 30
0.0
 10
108.944606
 20
746.453116
 30
0.0
 10
108.112975
 20
746.409063
 30
0.0
 10
107.268180
 20
746.333401
 30
0.0
 10
107.009008
 20
746.285546
 30
0.0
 10
106.788019
 20
746.216109
 30
0.0
 10
106.606120
 20
746.126574
 30
0.0
 10
106.530094
 20
746.074768
 30
0.0
 10
106.464161
 20
746.018520
 30
0.0
 10
106.384337
 20
745.926246
 30
0.0
 10
106.343972
 20
745.859811
 30
0.0
  0
SPLINE
  5
18d
100
AcDbEntity
  8
Layer_1
 62
7
100
AcDbSpline
 70
8
 71
3
 72
8
 73
4
 74
0
 40
0
 40
0
 40
0
 40
0
 40
1
 40
1
 40
1
 40
1
 10
104.015268
 20
736.612539
 30
0.0
 10
103.952992
 20
736.207499
 30
0.0
 10
103.886885
 20
735.803056
 30
0.0
 10
103.816956
 20
735.399266
 30
0.0
  0
LWPOLYLINE
  5
18e
100
AcDbEntity
  8
Layer_1
 62
7
100
AcDbPolyline
 90
45
 70
0
 10
105.958310
 20
744.692497
 30
0.0
 10
105.928829
 20
744.582113
 30
0.0
 10
105.922310
 20
744.504642
 30
0.0
 10
105.932514
 20
744.383076
 30
0.0
 10
105.952924
 20
744.298813
 30
0.0
 10
105.983963
 20
744.212212
 30
0.0
 10
106.078499
 20
744.032855
 30
0.0
 10
106.216489
 20
743.846775
 30
0.0
 10
106.398048
 20
743.655720
 30
0.0
 10
107.037028
 20
743.097951
 30
0.0
 10
107.683940
 20
742.573490
 30
0.0
 10
108.364416
 20
742.063995
 30
0.0
 10
108.903637
 20
741.693447
 30
0.0
 10
109.120034
 20
741.554791
 30
0.0
 10
109.874891
 20
741.124969
 30
0.0
 10
110.514699
 20
740.747431
 30
0.0
 10
110.668507
 20
740.643780
 30
0.0
 10
110.769477
 20
740.553147
 30
0.0
 10
110.816164
 20
740.494167
 30
0.0
 10
110.845162
 20
740.439884
 30
0.0
 10
110.858485
 20
740.386998
 30
0.0
 10
110.855673
 20
740.330268
 30
0.0
 10
110.584426
 20
739.249888
 30
0.0
 10
110.584429
 20
739.249900
 30
0.0
 10
110.335632
 20
738.164131
 30
0.0
 10
110.312388
 20
738.112308
 30
0.0
 10
110.276416
 20
738.071282
 30
0.0
 10
110.225931
 20
738.036087
 30
0.0
 10
110.157559
 20
738.004727
 30
0.0
 10
110.026429
 20
737.969819
 30
0.0
 10
109.842347
 20
737.947283
 30
0.0
 10
109.100877
 20
737.901362
 30
0.0
 10
108.233158
 20
737.861085
 30
0.0
 10
107.977388
 20
737.835771
 30
0.0
 10
107.328713
 20
737.750411
 30
0.0
 10
106.491098
 20
737.605377
 30
0.0
 10
105.676597
 20
737.431772
 30
0.0
 10
104.854039
 20
737.224885
 30
0.0
 10
104.605526
 20
737.137073
 30
0.0
 10
104.398115
 20
737.033918
 30
0.0
 10
104.232458
 20
736.917028
 30
0.0
 10
104.165476
 20
736.853966
 30
0.0
 10
104.109151
 20
736.788095
 30
0.0
 10
104.044748
 20
736.684471
 30
0.0
 10
104.015268
 20
736.612539
 30
0.0
  0
SPLINE
  5
18f
100
AcDbEntity
  8
Layer_1
 62
7
100
AcDbSpline
 70
8
 71
3
 72
8
 73
4
 74
0
 40
0
 40
0
 40
0
 40
0
 40
1
 40
1
 40
1
 40
1
 10
103.162150
 20
727.114887
 30
0.0
 10
103.164043
 20
726.705092
 30
0.0
 10
103.162059
 20
726.295288
 30
0.0
 10
103.156197
 20
725.885530
 30
0.0
  0
LWPOLYLINE
  5
190
100
AcDbEntity
  8
Layer_1
 62
7
100
AcDbPolyline
 90
45
 70
0
 10
103.816956
 20
735.399266
 30
0.0
 10
103.805050
 20
735.285628
 30
0.0
 10
103.810720
 20
735.208109
 30
0.0
 10
103.839945
 20
735.089658
 30
0.0
 10
103.873167
 20
735.009604
 30
0.0
 10
103.917387
 20
734.928928
 30
0.0
 10
104.038824
 20
734.766570
 30
0.0
 10
104.204225
 20
734.604366
 30
0.0
 10
104.413422
 20
734.444064
 30
0.0
 10
105.131789
 20
733.993121
 30
0.0
 10
105.852779
 20
733.576316
 30
0.0
 10
106.604580
 20
733.179544
 30
0.0
 10
107.195131
 20
732.897910
 30
0.0
 10
107.430548
 20
732.794814
 30
0.0
 10
108.243349
 20
732.488370
 30
0.0
 10
108.934339
 20
732.215569
 30
0.0
 10
109.102462
 20
732.137254
 30
0.0
 10
109.216386
 20
732.063533
 30
0.0
 10
109.271718
 20
732.012580
 30
0.0
 10
109.308852
 20
731.963504
 30
0.0
 10
109.330396
 20
731.913371
 30
0.0
 10
109.336632
 20
731.856899
 30
0.0
 10
109.237731
 20
730.747388
 30
0.0
 10
109.237731
 20
730.747401
 30
0.0
 10
109.161848
 20
729.636078
 30
0.0
 10
109.147107
 20
729.581256
 30
0.0
 10
109.117996
 20
729.535108
 30
0.0
 10
109.073633
 20
729.492446
 30
0.0
 10
109.011016
 20
729.450777
 30
0.0
 10
108.886972
 20
729.395785
 30
0.0
 10
108.708673
 20
729.344733
 30
0.0
 10
107.983514
 20
729.183385
 30
0.0
 10
107.132780
 20
729.007864
 30
0.0
 10
106.884125
 20
728.942865
 30
0.0
 10
106.256789
 20
728.757082
 30
0.0
 10
105.452175
 20
728.482802
 30
0.0
 10
104.674859
 20
728.183917
 30
0.0
 10
103.894792
 20
727.850903
 30
0.0
 10
103.663089
 20
727.725300
 30
0.0
 10
103.474358
 20
727.590966
 30
0.0
 10
103.329026
 20
727.449602
 30
0.0
 10
103.272729
 20
727.376837
 30
0.0
 10
103.227403
 20
727.302966
 30
0.0
 10
103.180008
 20
727.190544
 30
0.0
 10
103.162150
 20
727.114887
 30
0.0
  0
SPLINE
  5
191
100
AcDbEntity
  8
Layer_1
 62
7
100
AcDbSpline
 70
8
 71
3
 72
8
 73
4
 74
0
 40
0
 40
0
 40
0
 40
0
 40
1
 40
1
 40
1
 40
1
 10
103.805050
 20
717.600694
 30
0.0
 10
103.870989
 20
717.196234
 30
0.0
 10
103.933099
 20
716.791159
 30
0.0
 10
103.991372
 20
716.385523
 30
0.0
  0
LWPOLYLINE
  5
192
100
AcDbEntity
  8
Layer_1
 62
7
100
AcDbPolyline
 90
45
 70
0
 10
103.156197
 20
725.885530
 30
0.0
 10
103.162150
 20
725.771435
 30
0.0
 10
103.180008
 20
725.695779
 30
0.0
 10
103.227403
 20
725.583357
 30
0.0
 10
103.272729
 20
725.509486
 30
0.0
 10
103.329026
 20
725.436720
 30
0.0
 10
103.474358
 20
725.295357
 30
0.0
 10
103.663089
 20
725.161023
 30
0.0
 10
103.894792
 20
725.035419
 30
0.0
 10
104.674859
 20
724.702405
 30
0.0
 10
105.452175
 20
724.403520
 30
0.0
 10
106.256789
 20
724.129240
 30
0.0
 10
106.884125
 20
723.943457
 30
0.0
 10
107.132780
 20
723.878459
 30
0.0
 10
107.983514
 20
723.702938
 30
0.0
 10
108.708673
 20
723.541590
 30
0.0
 10
108.886972
 20
723.490538
 30
0.0
 10
109.011016
 20
723.435545
 30
0.0
 10
109.073633
 20
723.393876
 30
0.0
 10
109.117996
 20
723.351215
 30
0.0
 10
109.147107
 20
723.305067
 30
0.0
 10
109.161848
 20
723.250245
 30
0.0
 10
109.237731
 20
722.138922
 30
0.0
 10
109.237731
 20
722.138935
 30
0.0
 10
109.336632
 20
721.029424
 30
0.0
 10
109.330396
 20
720.972952
 30
0.0
 10
109.308852
 20
720.922818
 30
0.0
 10
109.271718
 20
720.873742
 30
0.0
 10
109.216386
 20
720.822789
 30
0.0
 10
109.102462
 20
720.749069
 30
0.0
 10
108.934339
 20
720.670753
 30
0.0
 10
108.243349
 20
720.397953
 30
0.0
 10
107.430548
 20
720.091508
 30
0.0
 10
107.195131
 20
719.988412
 30
0.0
 10
106.604580
 20
719.706779
 30
0.0
 10
105.852779
 20
719.310006
 30
0.0
 10
105.131789
 20
718.893202
 30
0.0
 10
104.413422
 20
718.442258
 30
0.0
 10
104.204225
 20
718.281956
 30
0.0
 10
104.038824
 20
718.119752
 30
0.0
 10
103.917387
 20
717.957395
 30
0.0
 10
103.873167
 20
717.876718
 30
0.0
 10
103.839945
 20
717.796665
 30
0.0
 10
103.810720
 20
717.678213
 30
0.0
 10
103.805050
 20
717.600694
 30
0.0
  0
SPLINE
  5
193
100
AcDbEntity
  8
Layer_1
 62
7
100
AcDbSpline
 70
8
 71
3
 72
8
 73
4
 74
0
 40
0
 40
0
 40
0
 40
0
 40
1
 40
1
 40
1
 40
1
 10
105.928744
 20
708.304208
 30
0.0
 10
106.057143
 20
707.915042
 30
0.0
 10
106.181857
 20
707.524671
 30
0.0
 10
106.302869
 20
707.133145
 30
0.0
  0
LWPOLYLINE
  5
194
100
AcDbEntity
  8
Layer_1
 62
7
100
AcDbPolyline
 90
45
 70
0
 10
103.991372
 20
716.385523
 30
0.0
 10
104.015183
 20
716.273782
 30
0.0
 10
104.044663
 20
716.201850
 30
0.0
 10
104.109066
 20
716.098226
 30
0.0
 10
104.165391
 20
716.032355
 30
0.0
 10
104.232373
 20
715.969293
 30
0.0
 10
104.398030
 20
715.852403
 30
0.0
 10
104.605441
 20
715.749248
 30
0.0
 10
104.853954
 20
715.661436
 30
0.0
 10
105.676512
 20
715.454549
 30
0.0
 10
106.491013
 20
715.280944
 30
0.0
 10
107.328628
 20
715.135910
 30
0.0
 10
107.977303
 20
715.050550
 30
0.0
 10
108.233073
 20
715.025237
 30
0.0
 10
109.100792
 20
714.984959
 30
0.0
 10
109.842262
 20
714.939038
 30
0.0
 10
110.026344
 20
714.916502
 30
0.0
 10
110.157474
 20
714.881594
 30
0.0
 10
110.225846
 20
714.850234
 30
0.0
 10
110.276331
 20
714.815039
 30
0.0
 10
110.312303
 20
714.774013
 30
0.0
 10
110.335547
 20
714.722190
 30
0.0
 10
110.584344
 20
713.636421
 30
0.0
 10
110.584341
 20
713.636433
 30
0.0
 10
110.855588
 20
712.556053
 30
0.0
 10
110.858400
 20
712.499323
 30
0.0
 10
110.845077
 20
712.446437
 30
0.0
 10
110.816079
 20
712.392154
 30
0.0
 10
110.769392
 20
712.333174
 30
0.0
 10
110.668422
 20
712.242541
 30
0.0
 10
110.514614
 20
712.138890
 30
0.0
 10
109.874806
 20
711.761352
 30
0.0
 10
109.119949
 20
711.331530
 30
0.0
 10
108.903552
 20
711.192874
 30
0.0
 10
108.364331
 20
710.822326
 30
0.0
 10
107.683855
 20
710.312831
 30
0.0
 10
107.036943
 20
709.788370
 30
0.0
 10
106.397963
 20
709.230601
 30
0.0
 10
106.216404
 20
709.039546
 30
0.0
 10
106.078414
 20
708.853466
 30
0.0
 10
105.983878
 20
708.674109
 30
0.0
 10
105.952839
 20
708.587508
 30
0.0
 10
105.932429
 20
708.503246
 30
0.0
 10
105.922225
 20
708.381679
 30
0.0
 10
105.928744
 20
708.304208
 30
0.0
  0
SPLINE
  5
195
100
AcDbEntity
  8
Layer_1
 62
7
100
AcDbSpline
 70
8
 71
3
 72
8
 73
4
 74
0
 40
0
 40
0
 40
0
 40
0
 40
1
 40
1
 40
1
 40
1
 10
109.480380
 20
699.454406
 30
0.0
 10
109.668076
 20
699.090118
 30
0.0
 10
109.852321
 20
698.724061
 30
0.0
 10
110.033090
 20
698.356286
 30
0.0
  0
LWPOLYLINE
  5
196
100
AcDbEntity
  8
Layer_1
 62
7
100
AcDbPolyline
 90
45
 70
0
 10
106.302869
 20
707.133145
 30
0.0
 10
106.343887
 20
707.026509
 30
0.0
 10
106.384252
 20
706.960073
 30
0.0
 10
106.464076
 20
706.867800
 30
0.0
 10
106.530009
 20
706.811552
 30
0.0
 10
106.606035
 20
706.759746
 30
0.0
 10
106.787934
 20
706.670211
 30
0.0
 10
107.008923
 20
706.600773
 30
0.0
 10
107.268094
 20
706.552919
 30
0.0
 10
108.112890
 20
706.477256
 30
0.0
 10
108.944521
 20
706.433203
 30
0.0
 10
109.794512
 20
706.420986
 30
0.0
 10
110.448553
 20
706.438164
 30
0.0
 10
110.705117
 20
706.453187
 30
0.0
 10
111.568450
 20
706.549149
 30
0.0
 10
112.307978
 20
706.619785
 30
0.0
 10
112.493336
 20
706.626333
 30
0.0
 10
112.628293
 20
706.612358
 30
0.0
 10
112.700718
 20
706.592091
 30
0.0
 10
112.756107
 20
706.565218
 30
0.0
 10
112.798060
 20
706.530324
 30
0.0
 10
112.829128
 20
706.482775
 30
0.0
 10
113.244715
 20
705.449294
 30
0.0
 10
113.244710
 20
705.449306
 30
0.0
 10
113.681628
 20
704.424660
 30
0.0
 10
113.693250
 20
704.369069
 30
0.0
 10
113.688147
 20
704.314735
 30
0.0
 10
113.668021
 20
704.256582
 30
0.0
 10
113.631143
 20
704.191028
 30
0.0
 10
113.545593
 20
704.085715
 30
0.0
 10
113.409899
 20
703.959282
 30
0.0
 10
112.837028
 20
703.486304
 30
0.0
 10
112.158703
 20
702.943688
 30
0.0
 10
111.966656
 20
702.772887
 30
0.0
 10
111.492040
 20
702.322549
 30
0.0
 10
110.899644
 20
701.712876
 30
0.0
 10
110.342741
 20
701.093673
 30
0.0
 10
109.798880
 20
700.442813
 30
0.0
 10
109.649466
 20
700.225707
 30
0.0
 10
109.542288
 20
700.020334
 30
0.0
 10
109.476978
 20
699.828398
 30
0.0
 10
109.459970
 20
699.738007
 30
0.0
 10
109.453167
 20
699.651609
 30
0.0
 10
109.461954
 20
699.529924
 30
0.0
 10
109.480380
 20
699.454406
 30
0.0
  0
SPLINE
  5
197
100
AcDbEntity
  8
Layer_1
 62
7
100
AcDbSpline
 70
8
 71
3
 72
8
 73
4
 74
0
 40
0
 40
0
 40
0
 40
0
 40
1
 40
1
 40
1
 40
1
 10
114.373001
 20
691.269109
 30
0.0
 10
114.615373
 20
690.938667
 30
0.0
 10
114.854614
 20
690.605939
 30
0.0
 10
115.090690
 20
690.270970
 30
0.0
  0
LWPOLYLINE
  5
198
100
AcDbEntity
  8
Layer_1
 62
7
100
AcDbPolyline
 90
45
 70
0
 10
110.033090
 20
698.356286
 30
0.0
 10
110.090293
 20
698.257380
 30
0.0
 10
110.140551
 20
698.198076
 30
0.0
 10
110.233811
 20
698.119423
 30
0.0
 10
110.307739
 20
698.074182
 30
0.0
 10
110.390936
 20
698.034894
 30
0.0
 10
110.584599
 20
697.974913
 30
0.0
 10
110.813751
 20
697.940897
 30
0.0
 10
111.077232
 20
697.934094
 30
0.0
 10
111.923461
 20
697.991524
 30
0.0
 10
112.751745
 20
698.078123
 30
0.0
 10
113.593184
 20
698.199023
 30
0.0
 10
114.236487
 20
698.318294
 30
0.0
 10
114.487551
 20
698.373266
 30
0.0
 10
115.325246
 20
698.603099
 30
0.0
 10
116.044617
 20
698.788553
 30
0.0
 10
116.226658
 20
698.824011
 30
0.0
 10
116.362154
 20
698.831325
 30
0.0
 10
116.436875
 20
698.822622
 30
0.0
 10
116.495779
 20
698.804764
 30
0.0
 10
116.542664
 20
698.776871
 30
0.0
 10
116.580790
 20
698.734768
 30
0.0
 10
117.152935
 20
697.779023
 30
0.0
 10
117.152926
 20
697.779034
 30
0.0
 10
117.744755
 20
696.835352
 30
0.0
 10
117.764881
 20
696.782259
 30
0.0
 10
117.768566
 20
696.727806
 30
0.0
 10
117.757794
 20
696.667229
 30
0.0
 10
117.731716
 20
696.596703
 30
0.0
 10
117.663684
 20
696.479292
 30
0.0
 10
117.549448
 20
696.333195
 30
0.0
 10
117.057620
 20
695.776425
 30
0.0
 10
116.472529
 20
695.134375
 30
0.0
 10
116.309565
 20
694.935638
 30
0.0
 10
115.911241
 20
694.416597
 30
0.0
 10
115.421513
 20
693.721760
 30
0.0
 10
114.968330
 20
693.023063
 30
0.0
 10
114.532985
 20
692.295137
 30
0.0
 10
114.419373
 20
692.057339
 30
0.0
 10
114.345643
 20
691.837739
 30
0.0
 10
114.311174
 20
691.637953
 30
0.0
 10
114.308399
 20
691.545997
 30
0.0
 10
114.315202
 20
691.459597
 30
0.0
 10
114.342982
 20
691.340797
 30
0.0
 10
114.373001
 20
691.269109
 30
0.0
  0
SPLINE
  5
199
100
AcDbEntity
  8
Layer_1
 62
7
100
AcDbSpline
 70
8
 71
3
 72
8
 73
4
 74
0
 40
0
 40
0
 40
0
 40
0
 40
1
 40
1
 40
1
 40
1
 10
120.485483
 20
683.950025
 30
0.0
 10
120.776565
 20
683.661568
 30
0.0
 10
121.064910
 20
683.370363
 30
0.0
 10
121.350481
 20
683.076450
 30
0.0
  0
LWPOLYLINE
  5
19a
100
AcDbEntity
  8
Layer_1
 62
7
100
AcDbPolyline
 90
45
 70
0
 10
115.090690
 20
690.270970
 30
0.0
 10
115.162662
 20
690.182246
 30
0.0
 10
115.221566
 20
690.131534
 30
0.0
 10
115.325994
 20
690.068435
 30
0.0
 10
115.406073
 20
690.035326
 30
0.0
 10
115.494401
 20
690.009531
 30
0.0
 10
115.695065
 20
689.980589
 30
0.0
 10
115.926712
 20
689.982846
 30
0.0
 10
116.187982
 20
690.017428
 30
0.0
 10
117.014808
 20
690.206528
 30
0.0
 10
117.819351
 20
690.421620
 30
0.0
 10
118.631514
 20
690.672657
 30
0.0
 10
119.248240
 20
690.891094
 30
0.0
 10
119.487626
 20
690.984666
 30
0.0
 10
120.279053
 20
691.342716
 30
0.0
 10
120.960556
 20
691.638420
 30
0.0
 10
121.134801
 20
691.701917
 30
0.0
 10
121.267463
 20
691.730348
 30
0.0
 10
121.342609
 20
691.733466
 30
0.0
 10
121.403582
 20
691.724962
 30
0.0
 10
121.454266
 20
691.704836
 30
0.0
 10
121.498515
 20
691.669205
 30
0.0
 10
122.213126
 20
690.814726
 30
0.0
 10
122.213117
 20
690.814738
 30
0.0
 10
122.945281
 20
689.975257
 30
0.0
 10
122.973627
 20
689.925991
 30
0.0
 10
122.985533
 20
689.872785
 30
0.0
 10
122.984331
 20
689.811245
 30
0.0
 10
122.969591
 20
689.737516
 30
0.0
 10
122.920778
 20
689.610920
 30
0.0
 10
122.830807
 20
689.448750
 30
0.0
 10
122.432134
 20
688.821894
 30
0.0
 10
121.954686
 20
688.096222
 30
0.0
 10
121.824831
 20
687.874439
 30
0.0
 10
121.512606
 20
687.299477
 30
0.0
 10
121.137602
 20
686.536583
 30
0.0
 10
120.799301
 20
685.775594
 30
0.0
 10
120.483187
 20
684.988526
 30
0.0
 10
120.408154
 20
684.735874
 30
0.0
 10
120.369688
 20
684.507430
 30
0.0
 10
120.366882
 20
684.304696
 30
0.0
 10
120.378504
 20
684.213449
 30
0.0
 10
120.398630
 20
684.129175
 30
0.0
 10
120.444608
 20
684.016157
 30
0.0
 10
120.485483
 20
683.950025
 30
0.0
  0
SPLINE
  5
19b
100
AcDbEntity
  8
Layer_1
 62
7
100
AcDbSpline
 70
8
 71
3
 72
8
 73
4
 74
0
 40
0
 40
0
 40
0
 40
0
 40
1
 40
1
 40
1
 40
1
 10
127.667656
 20
677.677235
 30
0.0
 10
128.000279
 20
677.437864
 30
0.0
 10
128.330629
 20
677.195351
 30
0.0
 10
128.658662
 20
676.949729
 30
0.0
  0
LWPOLYLINE
  5
19c
100
AcDbEntity
  8
Layer_1
 62
7
100
AcDbPolyline
 90
45
 70
0
 10
121.350481
 20
683.076450
 30
0.0
 10
121.435435
 20
683.000056
 30
0.0
 10
121.501568
 20
682.959180
 30
0.0
 10
121.614585
 20
682.913203
 30
0.0
 10
121.698859
 20
682.893077
 30
0.0
 10
121.790106
 20
682.881454
 30
0.0
 10
121.992840
 20
682.884261
 30
0.0
 10
122.221284
 20
682.922727
 30
0.0
 10
122.473936
 20
682.997760
 30
0.0
 10
123.261004
 20
683.313874
 30
0.0
 10
124.021993
 20
683.652175
 30
0.0
 10
124.784887
 20
684.027179
 30
0.0
 10
125.359849
 20
684.339403
 30
0.0
 10
125.581632
 20
684.469259
 30
0.0
 10
126.307304
 20
684.946706
 30
0.0
 10
126.934160
 20
685.345380
 30
0.0
 10
127.096330
 20
685.435351
 30
0.0
 10
127.222926
 20
685.484164
 30
0.0
 10
127.296655
 20
685.498904
 30
0.0
 10
127.358195
 20
685.500106
 30
0.0
 10
127.411401
 20
685.488200
 30
0.0
 10
127.460667
 20
685.459854
 30
0.0
 10
128.300148
 20
684.727690
 30
0.0
 10
128.300136
 20
684.727699
 30
0.0
 10
129.154615
 20
684.013088
 30
0.0
 10
129.190246
 20
683.968839
 30
0.0
 10
129.210372
 20
683.918155
 30
0.0
 10
129.218876
 20
683.857182
 30
0.0
 10
129.215758
 20
683.782036
 30
0.0
 10
129.187327
 20
683.649374
 30
0.0
 10
129.123831
 20
683.475129
 30
0.0
 10
128.828126
 20
682.793626
 30
0.0
 10
128.470076
 20
682.002198
 30
0.0
 10
128.376505
 20
681.762813
 30
0.0
 10
128.158067
 20
681.146087
 30
0.0
 10
127.907031
 20
680.333924
 30
0.0
 10
127.691938
 20
679.529381
 30
0.0
 10
127.502838
 20
678.702555
 30
0.0
 10
127.468256
 20
678.441285
 30
0.0
 10
127.465999
 20
678.209638
 30
0.0
 10
127.494941
 20
678.008974
 30
0.0
 10
127.520736
 20
677.920646
 30
0.0
 10
127.553845
 20
677.840567
 30
0.0
 10
127.616944
 20
677.736139
 30
0.0
 10
127.667656
 20
677.677235
 30
0.0
  0
SPLINE
  5
19d
100
AcDbEntity
  8
Layer_1
 62
7
100
AcDbSpline
 70
8
 71
3
 72
8
 73
4
 74
0
 40
0
 40
0
 40
0
 40
0
 40
1
 40
1
 40
1
 40
1
 10
135.742801
 20
672.604858
 30
0.0
 10
136.108774
 20
672.420467
 30
0.0
 10
136.472994
 20
672.232618
 30
0.0
 10
136.835413
 20
672.041336
 30
0.0
  0
LWPOLYLINE
  5
19e
100
AcDbEntity
  8
Layer_1
 62
7
100
AcDbPolyline
 90
45
 70
0
 10
128.658662
 20
676.949729
 30
0.0
 10
128.754530
 20
676.887565
 30
0.0
 10
128.826218
 20
676.857546
 30
0.0
 10
128.945018
 20
676.829767
 30
0.0
 10
129.031418
 20
676.822963
 30
0.0
 10
129.123374
 20
676.825739
 30
0.0
 10
129.323160
 20
676.860208
 30
0.0
 10
129.542760
 20
676.933937
 30
0.0
 10
129.780558
 20
677.047550
 30
0.0
 10
130.508484
 20
677.482894
 30
0.0
 10
131.207182
 20
677.936078
 30
0.0
 10
131.902019
 20
678.425805
 30
0.0
 10
132.421059
 20
678.824130
 30
0.0
 10
132.619796
 20
678.987094
 30
0.0
 10
133.261846
 20
679.572184
 30
0.0
 10
133.818616
 20
680.064012
 30
0.0
 10
133.964714
 20
680.178249
 30
0.0
 10
134.082125
 20
680.246280
 30
0.0
 10
134.152651
 20
680.272359
 30
0.0
 10
134.213227
 20
680.283130
 30
0.0
 10
134.267681
 20
680.279445
 30
0.0
 10
134.320774
 20
680.259319
 30
0.0
 10
135.264455
 20
679.667491
 30
0.0
 10
135.264444
 20
679.667499
 30
0.0
 10
136.220189
 20
679.095354
 30
0.0
 10
136.262292
 20
679.057228
 30
0.0
 10
136.290185
 20
679.010343
 30
0.0
 10
136.308044
 20
678.951439
 30
0.0
 10
136.316746
 20
678.876718
 30
0.0
 10
136.309433
 20
678.741222
 30
0.0
 10
136.273974
 20
678.559181
 30
0.0
 10
136.088520
 20
677.839810
 30
0.0
 10
135.858687
 20
677.002116
 30
0.0
 10
135.803715
 20
676.751051
 30
0.0
 10
135.684444
 20
676.107748
 30
0.0
 10
135.563544
 20
675.266309
 30
0.0
 10
135.476945
 20
674.438026
 30
0.0
 10
135.419515
 20
673.591796
 30
0.0
 10
135.426319
 20
673.328316
 30
0.0
 10
135.460334
 20
673.099163
 30
0.0
 10
135.520315
 20
672.905500
 30
0.0
 10
135.559604
 20
672.822303
 30
0.0
 10
135.604845
 20
672.748376
 30
0.0
 10
135.683497
 20
672.655116
 30
0.0
 10
135.742801
 20
672.604858
 30
0.0
  0
SPLINE
  5
19f
100
AcDbEntity
  8
Layer_1
 62
7
100
AcDbSpline
 70
8
 71
3
 72
8
 73
4
 74
0
 40
0
 40
0
 40
0
 40
0
 40
1
 40
1
 40
1
 40
1
 10
144.511929
 20
668.858440
 30
0.0
 10
144.902242
 20
668.733570
 30
0.0
 10
145.291364
 20
668.605010
 30
0.0
 10
145.679243
 20
668.472778
 30
0.0
  0
LWPOLYLINE
  5
1a0
100
AcDbEntity
  8
Layer_1
 62
7
100
AcDbPolyline
 90
45
 70
0
 10
136.835413
 20
672.041336
 30
0.0
 10
136.939827
 20
671.994933
 30
0.0
 10
137.015345
 20
671.976507
 30
0.0
 10
137.137030
 20
671.967720
 30
0.0
 10
137.223427
 20
671.974523
 30
0.0
 10
137.313819
 20
671.991531
 30
0.0
 10
137.505755
 20
672.056841
 30
0.0
 10
137.711128
 20
672.164019
 30
0.0
 10
137.928234
 20
672.313433
 30
0.0
 10
138.579094
 20
672.857294
 30
0.0
 10
139.198297
 20
673.414197
 30
0.0
 10
139.807970
 20
674.006593
 30
0.0
 10
140.258308
 20
674.481209
 30
0.0
 10
140.429109
 20
674.673256
 30
0.0
 10
140.971725
 20
675.351581
 30
0.0
 10
141.444702
 20
675.924452
 30
0.0
 10
141.571136
 20
676.060146
 30
0.0
 10
141.676449
 20
676.145696
 30
0.0
 10
141.742003
 20
676.182574
 30
0.0
 10
141.800156
 20
676.202700
 30
0.0
 10
141.854490
 20
676.207803
 30
0.0
 10
141.910080
 20
676.196181
 30
0.0
 10
142.934727
 20
675.759263
 30
0.0
 10
142.934714
 20
675.759268
 30
0.0
 10
143.968196
 20
675.343681
 30
0.0
 10
144.015744
 20
675.312613
 30
0.0
 10
144.050639
 20
675.270660
 30
0.0
 10
144.077511
 20
675.215271
 30
0.0
 10
144.097779
 20
675.142846
 30
0.0
 10
144.111754
 20
675.007889
 30
0.0
 10
144.105206
 20
674.822531
 30
0.0
 10
144.034569
 20
674.083003
 30
0.0
 10
143.938608
 20
673.219670
 30
0.0
 10
143.923584
 20
672.963106
 30
0.0
 10
143.906407
 20
672.309065
 30
0.0
 10
143.918624
 20
671.459074
 30
0.0
 10
143.962677
 20
670.627443
 30
0.0
 10
144.038339
 20
669.782648
 30
0.0
 10
144.086194
 20
669.523476
 30
0.0
 10
144.155631
 20
669.302487
 30
0.0
 10
144.245167
 20
669.120588
 30
0.0
 10
144.296973
 20
669.044563
 30
0.0
 10
144.353220
 20
668.978629
 30
0.0
 10
144.445494
 20
668.898805
 30
0.0
 10
144.511929
 20
668.858440
 30
0.0
  0
SPLINE
  5
1a1
100
AcDbEntity
  8
Layer_1
 62
7
100
AcDbSpline
 70
8
 71
3
 72
8
 73
4
 74
0
 40
0
 40
0
 40
0
 40
0
 40
1
 40
1
 40
1
 40
1
 10
153.759201
 20
666.529736
 30
0.0
 10
154.164242
 20
666.467460
 30
0.0
 10
154.568684
 20
666.401353
 30
0.0
 10
154.972474
 20
666.331424
 30
0.0
  0
LWPOLYLINE
  5
1a2
100
AcDbEntity
  8
Layer_1
 62
7
100
AcDbPolyline
 90
45
 70
0
 10
145.679243
 20
668.472778
 30
0.0
 10
145.789627
 20
668.443297
 30
0.0
 10
145.867098
 20
668.436778
 30
0.0
 10
145.988665
 20
668.446982
 30
0.0
 10
146.072927
 20
668.467392
 30
0.0
 10
146.159529
 20
668.498431
 30
0.0
 10
146.338885
 20
668.592967
 30
0.0
 10
146.524965
 20
668.730957
 30
0.0
 10
146.716021
 20
668.912516
 30
0.0
 10
147.273790
 20
669.551496
 30
0.0
 10
147.798250
 20
670.198408
 30
0.0
 10
148.307746
 20
670.878884
 30
0.0
 10
148.678293
 20
671.418105
 30
0.0
 10
148.816949
 20
671.634502
 30
0.0
 10
149.246771
 20
672.389359
 30
0.0
 10
149.624309
 20
673.029167
 30
0.0
 10
149.727961
 20
673.182975
 30
0.0
 10
149.818593
 20
673.283945
 30
0.0
 10
149.877573
 20
673.330632
 30
0.0
 10
149.931857
 20
673.359630
 30
0.0
 10
149.984743
 20
673.372953
 30
0.0
 10
150.041472
 20
673.370141
 30
0.0
 10
151.121853
 20
673.098894
 30
0.0
 10
151.121840
 20
673.098897
 30
0.0
 10
152.207609
 20
672.850100
 30
0.0
 10
152.259432
 20
672.826856
 30
0.0
 10
152.300458
 20
672.790884
 30
0.0
 10
152.335653
 20
672.740399
 30
0.0
 10
152.367013
 20
672.672027
 30
0.0
 10
152.401922
 20
672.540897
 30
0.0
 10
152.424457
 20
672.356815
 30
0.0
 10
152.470378
 20
671.615345
 30
0.0
 10
152.510656
 20
670.747626
 30
0.0
 10
152.535969
 20
670.491856
 30
0.0
 10
152.621329
 20
669.843181
 30
0.0
 10
152.766363
 20
669.005566
 30
0.0
 10
152.939968
 20
668.191065
 30
0.0
 10
153.146855
 20
667.368507
 30
0.0
 10
153.234667
 20
667.119994
 30
0.0
 10
153.337822
 20
666.912583
 30
0.0
 10
153.454712
 20
666.746926
 30
0.0
 10
153.517774
 20
666.679944
 30
0.0
 10
153.583646
 20
666.623619
 30
0.0
 10
153.687269
 20
666.559216
 30
0.0
 10
153.759201
 20
666.529736
 30
0.0
  0
SPLINE
  5
1a3
100
AcDbEntity
  8
Layer_1
 62
7
100
AcDbSpline
 70
8
 71
3
 72
8
 73
4
 74
0
 40
0
 40
0
 40
0
 40
0
 40
1
 40
1
 40
1
 40
1
 10
163.256853
 20
665.676618
 30
0.0
 10
163.666648
 20
665.678511
 30
0.0
 10
164.076453
 20
665.676527
 30
0.0
 10
164.486210
 20
665.670665
 30
0.0
  0
LWPOLYLINE
  5
1a4
100
AcDbEntity
  8
Layer_1
 62
7
100
AcDbPolyline
 90
45
 70
0
 10
154.972474
 20
666.331424
 30
0.0
 10
155.086112
 20
666.319518
 30
0.0
 10
155.163631
 20
666.325188
 30
0.0
 10
155.282083
 20
666.354413
 30
0.0
 10
155.362136
 20
666.387635
 30
0.0
 10
155.442813
 20
666.431855
 30
0.0
 10
155.605170
 20
666.553292
 30
0.0
 10
155.767374
 20
666.718693
 30
0.0
 10
155.927676
 20
666.927890
 30
0.0
 10
156.378620
 20
667.646257
 30
0.0
 10
156.795424
 20
668.367247
 30
0.0
 10
157.192197
 20
669.119049
 30
0.0
 10
157.473830
 20
669.709599
 30
0.0
 10
157.576926
 20
669.945016
 30
0.0
 10
157.883370
 20
670.757817
 30
0.0
 10
158.156171
 20
671.448807
 30
0.0
 10
158.234486
 20
671.616930
 30
0.0
 10
158.308207
 20
671.730854
 30
0.0
 10
158.359160
 20
671.786186
 30
0.0
 10
158.408236
 20
671.823320
 30
0.0
 10
158.458370
 20
671.844864
 30
0.0
 10
158.514841
 20
671.851100
 30
0.0
 10
159.624353
 20
671.752199
 30
0.0
 10
159.624340
 20
671.752199
 30
0.0
 10
160.735662
 20
671.676316
 30
0.0
 10
160.790484
 20
671.661575
 30
0.0
 10
160.836633
 20
671.632464
 30
0.0
 10
160.879294
 20
671.588101
 30
0.0
 10
160.920963
 20
671.525484
 30
0.0
 10
160.975955
 20
671.401440
 30
0.0
 10
161.027007
 20
671.223141
 30
0.0
 10
161.188355
 20
670.497982
 30
0.0
 10
161.363877
 20
669.647248
 30
0.0
 10
161.428875
 20
669.398593
 30
0.0
 10
161.614658
 20
668.771257
 30
0.0
 10
161.888938
 20
667.966643
 30
0.0
 10
162.187823
 20
667.189327
 30
0.0
 10
162.520837
 20
666.409260
 30
0.0
 10
162.646440
 20
666.177557
 30
0.0
 10
162.780774
 20
665.988826
 30
0.0
 10
162.922138
 20
665.843494
 30
0.0
 10
162.994903
 20
665.787197
 30
0.0
 10
163.068774
 20
665.741871
 30
0.0
 10
163.181196
 20
665.694476
 30
0.0
 10
163.256853
 20
665.676618
 30
0.0
  0
SPLINE
  5
1a5
100
AcDbEntity
  8
Layer_1
 62
7
100
AcDbSpline
 70
8
 71
3
 72
8
 73
4
 74
0
 40
0
 40
0
 40
0
 40
0
 40
1
 40
1
 40
1
 40
1
 10
172.771046
 20
666.319518
 30
0.0
 10
173.175506
 20
666.385457
 30
0.0
 10
173.580581
 20
666.447567
 30
0.0
 10
173.986217
 20
666.505840
 30
0.0
  0
LWPOLYLINE
  5
1a6
100
AcDbEntity
  8
Layer_1
 62
7
100
AcDbPolyline
 90
45
 70
0
 10
164.486210
 20
665.670665
 30
0.0
 10
164.600305
 20
665.676618
 30
0.0
 10
164.675962
 20
665.694476
 30
0.0
 10
164.788384
 20
665.741871
 30
0.0
 10
164.862255
 20
665.787197
 30
0.0
 10
164.935020
 20
665.843494
 30
0.0
 10
165.076384
 20
665.988826
 30
0.0
 10
165.210718
 20
666.177557
 30
0.0
 10
165.336321
 20
666.409260
 30
0.0
 10
165.669335
 20
667.189327
 30
0.0
 10
165.968220
 20
667.966643
 30
0.0
 10
166.242500
 20
668.771257
 30
0.0
 10
166.428283
 20
669.398593
 30
0.0
 10
166.493281
 20
669.647248
 30
0.0
 10
166.668803
 20
670.497982
 30
0.0
 10
166.830151
 20
671.223141
 30
0.0
 10
166.881203
 20
671.401440
 30
0.0
 10
166.936195
 20
671.525484
 30
0.0
 10
166.977864
 20
671.588101
 30
0.0
 10
167.020525
 20
671.632464
 30
0.0
 10
167.066673
 20
671.661575
 30
0.0
 10
167.121495
 20
671.676316
 30
0.0
 10
168.232818
 20
671.752199
 30
0.0
 10
168.232805
 20
671.752199
 30
0.0
 10
169.342317
 20
671.851100
 30
0.0
 10
169.398788
 20
671.844864
 30
0.0
 10
169.448922
 20
671.823320
 30
0.0
 10
169.497998
 20
671.786186
 30
0.0
 10
169.548951
 20
671.730854
 30
0.0
 10
169.622671
 20
671.616930
 30
0.0
 10
169.700987
 20
671.448807
 30
0.0
 10
169.973788
 20
670.757817
 30
0.0
 10
170.280232
 20
669.945016
 30
0.0
 10
170.383328
 20
669.709599
 30
0.0
 10
170.664961
 20
669.119049
 30
0.0
 10
171.061734
 20
668.367247
 30
0.0
 10
171.478538
 20
667.646257
 30
0.0
 10
171.929482
 20
666.927890
 30
0.0
 10
172.089784
 20
666.718693
 30
0.0
 10
172.251988
 20
666.553292
 30
0.0
 10
172.414345
 20
666.431855
 30
0.0
 10
172.495022
 20
666.387635
 30
0.0
 10
172.575075
 20
666.354413
 30
0.0
 10
172.693527
 20
666.325188
 30
0.0
 10
172.771046
 20
666.319518
 30
0.0
  0
SPLINE
  5
1a7
100
AcDbEntity
  8
Layer_1
 62
7
100
AcDbSpline
 70
8
 71
3
 72
8
 73
4
 74
0
 40
0
 40
0
 40
0
 40
0
 40
1
 40
1
 40
1
 40
1
 10
182.067532
 20
668.443212
 30
0.0
 10
182.456698
 20
668.571611
 30
0.0
 10
182.847070
 20
668.696325
 30
0.0
 10
183.238595
 20
668.817337
 30
0.0
  0
LWPOLYLINE
  5
1a8
100
AcDbEntity
  8
Layer_1
 62
7
100
AcDbPolyline
 90
45
 70
0
 10
173.986217
 20
666.505840
 30
0.0
 10
174.097958
 20
666.529651
 30
0.0
 10
174.169890
 20
666.559131
 30
0.0
 10
174.273514
 20
666.623534
 30
0.0
 10
174.339385
 20
666.679859
 30
0.0
 10
174.402448
 20
666.746841
 30
0.0
 10
174.519337
 20
666.912498
 30
0.0
 10
174.622493
 20
667.119909
 30
0.0
 10
174.710304
 20
667.368422
 30
0.0
 10
174.917191
 20
668.190980
 30
0.0
 10
175.090796
 20
669.005481
 30
0.0
 10
175.235831
 20
669.843096
 30
0.0
 10
175.321190
 20
670.491771
 30
0.0
 10
175.346504
 20
670.747541
 30
0.0
 10
175.386781
 20
671.615260
 30
0.0
 10
175.432702
 20
672.356730
 30
0.0
 10
175.455238
 20
672.540812
 30
0.0
 10
175.490146
 20
672.671942
 30
0.0
 10
175.521506
 20
672.740314
 30
0.0
 10
175.556701
 20
672.790799
 30
0.0
 10
175.597727
 20
672.826771
 30
0.0
 10
175.649550
 20
672.850015
 30
0.0
 10
176.735320
 20
673.098812
 30
0.0
 10
176.735307
 20
673.098809
 30
0.0
 10
177.815687
 20
673.370056
 30
0.0
 10
177.872417
 20
673.372868
 30
0.0
 10
177.925303
 20
673.359545
 30
0.0
 10
177.979586
 20
673.330547
 30
0.0
 10
178.038567
 20
673.283860
 30
0.0
 10
178.129199
 20
673.182890
 30
0.0
 10
178.232850
 20
673.029082
 30
0.0
 10
178.610388
 20
672.389274
 30
0.0
 10
179.040210
 20
671.634417
 30
0.0
 10
179.178867
 20
671.418020
 30
0.0
 10
179.549414
 20
670.878799
 30
0.0
 10
180.058909
 20
670.198323
 30
0.0
 10
180.583370
 20
669.551411
 30
0.0
 10
181.141139
 20
668.912431
 30
0.0
 10
181.332194
 20
668.730872
 30
0.0
 10
181.518274
 20
668.592882
 30
0.0
 10
181.697631
 20
668.498346
 30
0.0
 10
181.784232
 20
668.467307
 30
0.0
 10
181.868495
 20
668.446897
 30
0.0
 10
181.990061
 20
668.436693
 30
0.0
 10
182.067532
 20
668.443212
 30
0.0
  0
SPLINE
  5
1a9
100
AcDbEntity
  8
Layer_1
 62
7
100
AcDbSpline
 70
8
 71
3
 72
8
 73
4
 74
0
 40
0
 40
0
 40
0
 40
0
 40
1
 40
1
 40
1
 40
1
 10
190.917334
 20
671.994848
 30
0.0
 10
191.281655
 20
672.182741
 30
0.0
 10
191.647746
 20
672.367181
 30
0.0
 10
192.015558
 20
672.548145
 30
0.0
  0
LWPOLYLINE
  5
1aa
100
AcDbEntity
  8
Layer_1
 62
7
100
AcDbPolyline
 90
45
 70
0
 10
183.238595
 20
668.817337
 30
0.0
 10
183.345232
 20
668.858355
 30
0.0
 10
183.411667
 20
668.898720
 30
0.0
 10
183.503941
 20
668.978544
 30
0.0
 10
183.560189
 20
669.044477
 30
0.0
 10
183.611995
 20
669.120503
 30
0.0
 10
183.701530
 20
669.302402
 30
0.0
 10
183.770967
 20
669.523391
 30
0.0
 10
183.818822
 20
669.782563
 30
0.0
 10
183.894484
 20
670.627358
 30
0.0
 10
183.938537
 20
671.458989
 30
0.0
 10
183.950755
 20
672.308980
 30
0.0
 10
183.933577
 20
672.963021
 30
0.0
 10
183.918553
 20
673.219585
 30
0.0
 10
183.822592
 20
674.082918
 30
0.0
 10
183.751955
 20
674.822446
 30
0.0
 10
183.745407
 20
675.007804
 30
0.0
 10
183.759382
 20
675.142761
 30
0.0
 10
183.779650
 20
675.215186
 30
0.0
 10
183.806522
 20
675.270575
 30
0.0
 10
183.841417
 20
675.312528
 30
0.0
 10
183.888965
 20
675.343596
 30
0.0
 10
184.922447
 20
675.759183
 30
0.0
 10
184.922434
 20
675.759178
 30
0.0
 10
185.947081
 20
676.196096
 30
0.0
 10
186.002671
 20
676.207718
 30
0.0
 10
186.057005
 20
676.202615
 30
0.0
 10
186.115158
 20
676.182489
 30
0.0
 10
186.180712
 20
676.145611
 30
0.0
 10
186.286025
 20
676.060061
 30
0.0
 10
186.412459
 20
675.924367
 30
0.0
 10
186.885436
 20
675.351496
 30
0.0
 10
187.428052
 20
674.673171
 30
0.0
 10
187.598853
 20
674.481124
 30
0.0
 10
188.049191
 20
674.006508
 30
0.0
 10
188.658864
 20
673.414112
 30
0.0
 10
189.278067
 20
672.857209
 30
0.0
 10
189.928927
 20
672.313348
 30
0.0
 10
190.146033
 20
672.163934
 30
0.0
 10
190.351406
 20
672.056756
 30
0.0
 10
190.543342
 20
671.991446
 30
0.0
 10
190.633734
 20
671.974438
 30
0.0
 10
190.720131
 20
671.967635
 30
0.0
 10
190.841816
 20
671.976422
 30
0.0
 10
190.917334
 20
671.994848
 30
0.0
  0
SPLINE
  5
1ab
100
AcDbEntity
  8
Layer_1
 62
7
100
AcDbSpline
 70
8
 71
3
 72
8
 73
4
 74
0
 40
0
 40
0
 40
0
 40
0
 40
1
 40
1
 40
1
 40
1
 10
199.102737
 20
676.888055
 30
0.0
 10
199.433178
 20
677.130428
 30
0.0
 10
199.765906
 20
677.369669
 30
0.0
 10
200.100875
 20
677.605745
 30
0.0
  0
LWPOLYLINE
  5
1ac
100
AcDbEntity
  8
Layer_1
 62
7
100
AcDbPolyline
 90
45
 70
0
 10
192.015558
 20
672.548145
 30
0.0
 10
192.114465
 20
672.605348
 30
0.0
 10
192.173769
 20
672.655606
 30
0.0
 10
192.252421
 20
672.748866
 30
0.0
 10
192.297662
 20
672.822794
 30
0.0
 10
192.336951
 20
672.905991
 30
0.0
 10
192.396932
 20
673.099654
 30
0.0
 10
192.430947
 20
673.328806
 30
0.0
 10
192.437751
 20
673.592287
 30
0.0
 10
192.380321
 20
674.438516
 30
0.0
 10
192.293722
 20
675.266800
 30
0.0
 10
192.172822
 20
676.108239
 30
0.0
 10
192.053551
 20
676.751542
 30
0.0
 10
191.998579
 20
677.002606
 30
0.0
 10
191.768746
 20
677.840301
 30
0.0
 10
191.583292
 20
678.559671
 30
0.0
 10
191.547833
 20
678.741712
 30
0.0
 10
191.540520
 20
678.877209
 30
0.0
 10
191.549222
 20
678.951930
 30
0.0
 10
191.567081
 20
679.010834
 30
0.0
 10
191.594974
 20
679.057719
 30
0.0
 10
191.637077
 20
679.095845
 30
0.0
 10
192.592823
 20
679.667990
 30
0.0
 10
192.592811
 20
679.667981
 30
0.0
 10
193.536493
 20
680.259810
 30
0.0
 10
193.589586
 20
680.279936
 30
0.0
 10
193.644040
 20
680.283621
 30
0.0
 10
193.704616
 20
680.272849
 30
0.0
 10
193.775142
 20
680.246770
 30
0.0
 10
193.892553
 20
680.178739
 30
0.0
 10
194.038651
 20
680.064503
 30
0.0
 10
194.595420
 20
679.572675
 30
0.0
 10
195.237471
 20
678.987584
 30
0.0
 10
195.436208
 20
678.824620
 30
0.0
 10
195.955248
 20
678.426296
 30
0.0
 10
196.650085
 20
677.936568
 30
0.0
 10
197.348783
 20
677.483385
 30
0.0
 10
198.076708
 20
677.048040
 30
0.0
 10
198.314507
 20
676.934427
 30
0.0
 10
198.534107
 20
676.860698
 30
0.0
 10
198.733893
 20
676.826229
 30
0.0
 10
198.825849
 20
676.823454
 30
0.0
 10
198.912249
 20
676.830257
 30
0.0
 10
199.031049
 20
676.858037
 30
0.0
 10
199.102737
 20
676.888055
 30
0.0
  0
SPLINE
  5
1ad
100
AcDbEntity
  8
Layer_1
 62
7
100
AcDbSpline
 70
8
 71
3
 72
8
 73
4
 74
0
 40
0
 40
0
 40
0
 40
0
 40
1
 40
1
 40
1
 40
1
 10
206.421820
 20
683.000538
 30
0.0
 10
206.710277
 20
683.291619
 30
0.0
 10
207.001482
 20
683.579965
 30
0.0
 10
207.295396
 20
683.865536
 30
0.0
  0
LWPOLYLINE
  5
1ae
100
AcDbEntity
  8
Layer_1
 62
7
100
AcDbPolyline
 90
45
 70
0
 10
200.100875
 20
677.605745
 30
0.0
 10
200.189599
 20
677.677717
 30
0.0
 10
200.240311
 20
677.736621
 30
0.0
 10
200.303410
 20
677.841049
 30
0.0
 10
200.336519
 20
677.921128
 30
0.0
 10
200.362314
 20
678.009455
 30
0.0
 10
200.391256
 20
678.210120
 30
0.0
 10
200.389000
 20
678.441767
 30
0.0
 10
200.354417
 20
678.703037
 30
0.0
 10
200.165318
 20
679.529863
 30
0.0
 10
199.950225
 20
680.334406
 30
0.0
 10
199.699189
 20
681.146569
 30
0.0
 10
199.480751
 20
681.763294
 30
0.0
 10
199.387179
 20
682.002680
 30
0.0
 10
199.029129
 20
682.794108
 30
0.0
 10
198.733425
 20
683.475610
 30
0.0
 10
198.669929
 20
683.649856
 30
0.0
 10
198.641497
 20
683.782517
 30
0.0
 10
198.638379
 20
683.857664
 30
0.0
 10
198.646883
 20
683.918637
 30
0.0
 10
198.667009
 20
683.969321
 30
0.0
 10
198.702641
 20
684.013569
 30
0.0
 10
199.557119
 20
684.728181
 30
0.0
 10
199.557108
 20
684.728172
 30
0.0
 10
200.396588
 20
685.460336
 30
0.0
 10
200.445854
 20
685.488682
 30
0.0
 10
200.499060
 20
685.500588
 30
0.0
 10
200.560601
 20
685.499386
 30
0.0
 10
200.634330
 20
685.484646
 30
0.0
 10
200.760925
 20
685.435833
 30
0.0
 10
200.923095
 20
685.345861
 30
0.0
 10
201.549951
 20
684.947188
 30
0.0
 10
202.275624
 20
684.469740
 30
0.0
 10
202.497406
 20
684.339885
 30
0.0
 10
203.072369
 20
684.027660
 30
0.0
 10
203.835263
 20
683.652657
 30
0.0
 10
204.596252
 20
683.314356
 30
0.0
 10
205.383319
 20
682.998242
 30
0.0
 10
205.635971
 20
682.923209
 30
0.0
 10
205.864415
 20
682.884743
 30
0.0
 10
206.067149
 20
682.881936
 30
0.0
 10
206.158397
 20
682.893558
 30
0.0
 10
206.242671
 20
682.913684
 30
0.0
 10
206.355688
 20
682.959662
 30
0.0
 10
206.421820
 20
683.000538
 30
0.0
  0
SPLINE
  5
1af
100
AcDbEntity
  8
Layer_1
 62
7
100
AcDbSpline
 70
8
 71
3
 72
8
 73
4
 74
0
 40
0
 40
0
 40
0
 40
0
 40
1
 40
1
 40
1
 40
1
 10
212.694610
 20
690.182711
 30
0.0
 10
212.933981
 20
690.515333
 30
0.0
 10
213.176494
 20
690.845684
 30
0.0
 10
213.422117
 20
691.173717
 30
0.0
  0
LWPOLYLINE
  5
1b0
100
AcDbEntity
  8
Layer_1
 62
7
100
AcDbPolyline
 90
45
 70
0
 10
207.295396
 20
683.865536
 30
0.0
 10
207.371789
 20
683.950490
 30
0.0
 10
207.412665
 20
684.016622
 30
0.0
 10
207.458643
 20
684.129640
 30
0.0
 10
207.478769
 20
684.213914
 30
0.0
 10
207.490391
 20
684.305161
 30
0.0
 10
207.487585
 20
684.507895
 30
0.0
 10
207.449118
 20
684.736339
 30
0.0
 10
207.374085
 20
684.988991
 30
0.0
 10
207.057971
 20
685.776059
 30
0.0
 10
206.719671
 20
686.537048
 30
0.0
 10
206.344667
 20
687.299941
 30
0.0
 10
206.032442
 20
687.874904
 30
0.0
 10
205.902587
 20
688.096687
 30
0.0
 10
205.425139
 20
688.822359
 30
0.0
 10
205.026466
 20
689.449215
 30
0.0
 10
204.936494
 20
689.611385
 30
0.0
 10
204.887682
 20
689.737980
 30
0.0
 10
204.872941
 20
689.811710
 30
0.0
 10
204.871740
 20
689.873250
 30
0.0
 10
204.883645
 20
689.926456
 30
0.0
 10
204.911991
 20
689.975722
 30
0.0
 10
205.644155
 20
690.815203
 30
0.0
 10
205.644146
 20
690.815191
 30
0.0
 10
206.358758
 20
691.669670
 30
0.0
 10
206.403007
 20
691.705301
 30
0.0
 10
206.453690
 20
691.725427
 30
0.0
 10
206.514663
 20
691.733931
 30
0.0
 10
206.589810
 20
691.730813
 30
0.0
 10
206.722471
 20
691.702381
 30
0.0
 10
206.896717
 20
691.638885
 30
0.0
 10
207.578220
 20
691.343181
 30
0.0
 10
208.369647
 20
690.985131
 30
0.0
 10
208.609033
 20
690.891559
 30
0.0
 10
209.225758
 20
690.673122
 30
0.0
 10
210.037921
 20
690.422085
 30
0.0
 10
210.842464
 20
690.206992
 30
0.0
 10
211.669291
 20
690.017893
 30
0.0
 10
211.930560
 20
689.983311
 30
0.0
 10
212.162207
 20
689.981054
 30
0.0
 10
212.362872
 20
690.009996
 30
0.0
 10
212.451199
 20
690.035791
 30
0.0
 10
212.531278
 20
690.068900
 30
0.0
 10
212.635706
 20
690.131999
 30
0.0
 10
212.694610
 20
690.182711
 30
0.0
  0
SPLINE
  5
1b1
100
AcDbEntity
  8
Layer_1
 62
7
100
AcDbSpline
 70
8
 71
3
 72
8
 73
4
 74
0
 40
0
 40
0
 40
0
 40
0
 40
1
 40
1
 40
1
 40
1
 10
217.766988
 20
698.257856
 30
0.0
 10
217.951378
 20
698.623829
 30
0.0
 10
218.139227
 20
698.988049
 30
0.0
 10
218.330510
 20
699.350468
 30
0.0
  0
LWPOLYLINE
  5
1b2
100
AcDbEntity
  8
Layer_1
 62
7
100
AcDbPolyline
 90
45
 70
0
 10
213.422117
 20
691.173717
 30
0.0
 10
213.484280
 20
691.269585
 30
0.0
 10
213.514299
 20
691.341273
 30
0.0
 10
213.542079
 20
691.460073
 30
0.0
 10
213.548882
 20
691.546473
 30
0.0
 10
213.546107
 20
691.638429
 30
0.0
 10
213.511637
 20
691.838215
 30
0.0
 10
213.437908
 20
692.057815
 30
0.0
 10
213.324296
 20
692.295613
 30
0.0
 10
212.888951
 20
693.023539
 30
0.0
 10
212.435768
 20
693.722237
 30
0.0
 10
211.946040
 20
694.417073
 30
0.0
 10
211.547716
 20
694.936114
 30
0.0
 10
211.384752
 20
695.134851
 30
0.0
 10
210.799661
 20
695.776901
 30
0.0
 10
210.307833
 20
696.333671
 30
0.0
 10
210.193597
 20
696.479769
 30
0.0
 10
210.125565
 20
696.597180
 30
0.0
 10
210.099487
 20
696.667706
 30
0.0
 10
210.088715
 20
696.728282
 30
0.0
 10
210.092400
 20
696.782735
 30
0.0
 10
210.112526
 20
696.835828
 30
0.0
 10
210.704355
 20
697.779510
 30
0.0
 10
210.704346
 20
697.779499
 30
0.0
 10
211.276491
 20
698.735244
 30
0.0
 10
211.314617
 20
698.777347
 30
0.0
 10
211.361502
 20
698.805240
 30
0.0
 10
211.420406
 20
698.823099
 30
0.0
 10
211.495127
 20
698.831801
 30
0.0
 10
211.630623
 20
698.824488
 30
0.0
 10
211.812664
 20
698.789029
 30
0.0
 10
212.532035
 20
698.603575
 30
0.0
 10
213.369729
 20
698.373742
 30
0.0
 10
213.620794
 20
698.318770
 30
0.0
 10
214.264097
 20
698.199499
 30
0.0
 10
215.105536
 20
698.078599
 30
0.0
 10
215.933820
 20
697.992000
 30
0.0
 10
216.780049
 20
697.934570
 30
0.0
 10
217.043529
 20
697.941374
 30
0.0
 10
217.272682
 20
697.975389
 30
0.0
 10
217.466345
 20
698.035370
 30
0.0
 10
217.549542
 20
698.074659
 30
0.0
 10
217.623470
 20
698.119900
 30
0.0
 10
217.716729
 20
698.198553
 30
0.0
 10
217.766988
 20
698.257856
 30
0.0
  0
SPLINE
  5
1b3
100
AcDbEntity
  8
Layer_1
 62
7
100
AcDbSpline
 70
8
 71
3
 72
8
 73
4
 74
0
 40
0
 40
0
 40
0
 40
0
 40
1
 40
1
 40
1
 40
1
 10
221.513406
 20
707.026984
 30
0.0
 10
221.638275
 20
707.417297
 30
0.0
 10
221.766835
 20
707.806419
 30
0.0
 10
221.899068
 20
708.194298
 30
0.0
  0
LWPOLYLINE
  5
1b4
100
AcDbEntity
  8
Layer_1
 62
7
100
AcDbPolyline
 90
45
 70
0
 10
218.330510
 20
699.350468
 30
0.0
 10
218.376913
 20
699.454882
 30
0.0
 10
218.395338
 20
699.530400
 30
0.0
 10
218.404125
 20
699.652085
 30
0.0
 10
218.397322
 20
699.738483
 30
0.0
 10
218.380314
 20
699.828874
 30
0.0
 10
218.315004
 20
700.020810
 30
0.0
 10
218.207826
 20
700.226183
 30
0.0
 10
218.058412
 20
700.443289
 30
0.0
 10
217.514551
 20
701.094149
 30
0.0
 10
216.957648
 20
701.713352
 30
0.0
 10
216.365253
 20
702.323025
 30
0.0
 10
215.890637
 20
702.773363
 30
0.0
 10
215.698589
 20
702.944164
 30
0.0
 10
215.020264
 20
703.486780
 30
0.0
 10
214.447394
 20
703.959758
 30
0.0
 10
214.311699
 20
704.086191
 30
0.0
 10
214.226150
 20
704.191504
 30
0.0
 10
214.189271
 20
704.257058
 30
0.0
 10
214.169145
 20
704.315211
 30
0.0
 10
214.164043
 20
704.369545
 30
0.0
 10
214.175665
 20
704.425135
 30
0.0
 10
214.612583
 20
705.449782
 30
0.0
 10
214.612577
 20
705.449769
 30
0.0
 10
215.028164
 20
706.483251
 30
0.0
 10
215.059232
 20
706.530800
 30
0.0
 10
215.101185
 20
706.565694
 30
0.0
 10
215.156574
 20
706.592566
 30
0.0
 10
215.228999
 20
706.612834
 30
0.0
 10
215.363957
 20
706.626809
 30
0.0
 10
215.549314
 20
706.620261
 30
0.0
 10
216.288842
 20
706.549624
 30
0.0
 10
217.152176
 20
706.453663
 30
0.0
 10
217.408740
 20
706.438640
 30
0.0
 10
218.062780
 20
706.421462
 30
0.0
 10
218.912771
 20
706.433679
 30
0.0
 10
219.744403
 20
706.477732
 30
0.0
 10
220.589198
 20
706.553395
 30
0.0
 10
220.848369
 20
706.601249
 30
0.0
 10
221.069358
 20
706.670686
 30
0.0
 10
221.251258
 20
706.760222
 30
0.0
 10
221.327283
 20
706.812028
 30
0.0
 10
221.393217
 20
706.868275
 30
0.0
 10
221.473040
 20
706.960549
 30
0.0
 10
221.513406
 20
707.026984
 30
0.0
  0
SPLINE
  5
1b5
100
AcDbEntity
  8
Layer_1
 62
7
100
AcDbSpline
 70
8
 71
3
 72
8
 73
4
 74
0
 40
0
 40
0
 40
0
 40
0
 40
1
 40
1
 40
1
 40
1
 10
223.842110
 20
716.274256
 30
0.0
 10
223.904385
 20
716.679297
 30
0.0
 10
223.970492
 20
717.083739
 30
0.0
 10
224.040421
 20
717.487529
 30
0.0
  0
LWPOLYLINE
  5
1b6
100
AcDbEntity
  8
Layer_1
 62
7
100
AcDbPolyline
 90
45
 70
0
 10
221.899068
 20
708.194298
 30
0.0
 10
221.928548
 20
708.304682
 30
0.0
 10
221.935068
 20
708.382153
 30
0.0
 10
221.924863
 20
708.503720
 30
0.0
 10
221.904454
 20
708.587982
 30
0.0
 10
221.873414
 20
708.674584
 30
0.0
 10
221.778879
 20
708.853940
 30
0.0
 10
221.640888
 20
709.040021
 30
0.0
 10
221.459329
 20
709.231076
 30
0.0
 10
220.820349
 20
709.788845
 30
0.0
 10
220.173437
 20
710.313305
 30
0.0
 10
219.492961
 20
710.822801
 30
0.0
 10
218.953740
 20
711.193348
 30
0.0
 10
218.737344
 20
711.332004
 30
0.0
 10
217.982486
 20
711.761826
 30
0.0
 10
217.342678
 20
712.139364
 30
0.0
 10
217.188870
 20
712.243016
 30
0.0
 10
217.087900
 20
712.333648
 30
0.0
 10
217.041214
 20
712.392628
 30
0.0
 10
217.012215
 20
712.446912
 30
0.0
 10
216.998892
 20
712.499798
 30
0.0
 10
217.001704
 20
712.556527
 30
0.0
 10
217.272951
 20
713.636908
 30
0.0
 10
217.272949
 20
713.636895
 30
0.0
 10
217.521746
 20
714.722664
 30
0.0
 10
217.544990
 20
714.774487
 30
0.0
 10
217.580961
 20
714.815513
 30
0.0
 10
217.631446
 20
714.850708
 30
0.0
 10
217.699818
 20
714.882068
 30
0.0
 10
217.830949
 20
714.916977
 30
0.0
 10
218.015031
 20
714.939512
 30
0.0
 10
218.756500
 20
714.985433
 30
0.0
 10
219.624219
 20
715.025711
 30
0.0
 10
219.879989
 20
715.051024
 30
0.0
 10
220.528664
 20
715.136384
 30
0.0
 10
221.366279
 20
715.281418
 30
0.0
 10
222.180780
 20
715.455024
 30
0.0
 10
223.003338
 20
715.661910
 30
0.0
 10
223.251851
 20
715.749722
 30
0.0
 10
223.459262
 20
715.852877
 30
0.0
 10
223.624919
 20
715.969767
 30
0.0
 10
223.691902
 20
716.032829
 30
0.0
 10
223.748226
 20
716.098701
 30
0.0
 10
223.812629
 20
716.202324
 30
0.0
 10
223.842110
 20
716.274256
 30
0.0
  0
SPLINE
  5
1b7
100
AcDbEntity
  8
Layer_1
 62
7
100
AcDbSpline
 70
8
 71
3
 72
8
 73
4
 74
0
 40
0
 40
0
 40
0
 40
0
 40
1
 40
1
 40
1
 40
1
 10
224.694850
 20
725.771707
 30
0.0
 10
224.692957
 20
726.181503
 30
0.0
 10
224.694942
 20
726.591307
 30
0.0
 10
224.700803
 20
727.001065
 30
0.0
  0
LWPOLYLINE
  5
1b8
100
AcDbEntity
  8
Layer_1
 62
7
100
AcDbPolyline
 90
45
 70
0
 10
224.040421
 20
717.487529
 30
0.0
 10
224.052327
 20
717.601167
 30
0.0
 10
224.046658
 20
717.678686
 30
0.0
 10
224.017432
 20
717.797138
 30
0.0
 10
223.984210
 20
717.877191
 30
0.0
 10
223.939990
 20
717.957868
 30
0.0
 10
223.818554
 20
718.120225
 30
0.0
 10
223.653152
 20
718.282429
 30
0.0
 10
223.443955
 20
718.442731
 30
0.0
 10
222.725588
 20
718.893675
 30
0.0
 10
222.004599
 20
719.310479
 30
0.0
 10
221.252797
 20
719.707252
 30
0.0
 10
220.662247
 20
719.988885
 30
0.0
 10
220.426829
 20
720.091981
 30
0.0
 10
219.614029
 20
720.398425
 30
0.0
 10
218.923038
 20
720.671226
 30
0.0
 10
218.754916
 20
720.749542
 30
0.0
 10
218.640991
 20
720.823262
 30
0.0
 10
218.585659
 20
720.874215
 30
0.0
 10
218.548525
 20
720.923291
 30
0.0
 10
218.526982
 20
720.973425
 30
0.0
 10
218.520746
 20
721.029897
 30
0.0
 10
218.619646
 20
722.139408
 30
0.0
 10
218.619646
 20
722.139395
 30
0.0
 10
218.695530
 20
723.250718
 30
0.0
 10
218.710270
 20
723.305540
 30
0.0
 10
218.739382
 20
723.351688
 30
0.0
 10
218.783744
 20
723.394349
 30
0.0
 10
218.846361
 20
723.436018
 30
0.0
 10
218.970405
 20
723.491010
 30
0.0
 10
219.148705
 20
723.542062
 30
0.0
 10
219.873487
 20
723.703209
 30
0.0
 10
220.724220
 20
723.878731
 30
0.0
 10
220.972876
 20
723.943729
 30
0.0
 10
221.600211
 20
724.129512
 30
0.0
 10
222.404825
 20
724.403792
 30
0.0
 10
223.182142
 20
724.702677
 30
0.0
 10
223.962208
 20
725.035691
 30
0.0
 10
224.193912
 20
725.161294
 30
0.0
 10
224.382643
 20
725.295628
 30
0.0
 10
224.527975
 20
725.436992
 30
0.0
 10
224.584271
 20
725.509757
 30
0.0
 10
224.629597
 20
725.583628
 30
0.0
 10
224.676992
 20
725.696050
 30
0.0
 10
224.694850
 20
725.771707
 30
0.0
  0
SPLINE
  5
1b9
100
AcDbEntity
  8
Layer_1
 62
7
100
AcDbSpline
 70
8
 71
3
 72
8
 73
4
 74
0
 40
0
 40
0
 40
0
 40
0
 40
1
 40
1
 40
1
 40
1
 10
163.928693
 20
791.408727
 30
0.0
 10
137.652684
 20
791.408727
 30
0.0
 10
113.963981
 20
775.580441
 30
0.0
 10
103.908588
 20
751.304575
 30
0.0
  0
SPLINE
  5
1ba
100
AcDbEntity
  8
Layer_1
 62
7
100
AcDbSpline
 70
8
 71
3
 72
8
 73
4
 74
0
 40
0
 40
0
 40
0
 40
0
 40
1
 40
1
 40
1
 40
1
 10
103.908588
 20
751.304575
 30
0.0
 10
93.853194
 20
727.028708
 30
0.0
 10
99.411349
 20
699.085977
 30
0.0
 10
117.991293
 20
680.506033
 30
0.0
  0
SPLINE
  5
1bb
100
AcDbEntity
  8
Layer_1
 62
7
100
AcDbSpline
 70
8
 71
3
 72
8
 73
4
 74
0
 40
0
 40
0
 40
0
 40
0
 40
1
 40
1
 40
1
 40
1
 10
117.991293
 20
680.506033
 30
0.0
 10
136.571237
 20
661.926089
 30
0.0
 10
164.513968
 20
656.367935
 30
0.0
 10
188.789835
 20
666.423328
 30
0.0
  0
SPLINE
  5
1bc
100
AcDbEntity
  8
Layer_1
 62
7
100
AcDbSpline
 70
8
 71
3
 72
8
 73
4
 74
0
 40
0
 40
0
 40
0
 40
0
 40
1
 40
1
 40
1
 40
1
 10
188.789835
 20
666.423328
 30
0.0
 10
213.065701
 20
676.478721
 30
0.0
 10
228.893987
 20
700.167424
 30
0.0
 10
228.893987
 20
726.443433
 30
0.0
  0
SPLINE
  5
1bd
100
AcDbEntity
  8
Layer_1
 62
7
100
AcDbSpline
 70
8
 71
3
 72
8
 73
4
 74
0
 40
0
 40
0
 40
0
 40
0
 40
1
 40
1
 40
1
 40
1
 10
228.893987
 20
726.443433
 30
0.0
 10
228.893987
 20
743.673300
 30
0.0
 10
222.049449
 20
760.197477
 30
0.0
 10
209.866093
 20
772.380833
 30
0.0
  0
SPLINE
  5
1be
100
AcDbEntity
  8
Layer_1
 62
7
100
AcDbSpline
 70
8
 71
3
 72
8
 73
4
 74
0
 40
0
 40
0
 40
0
 40
0
 40
1
 40
1
 40
1
 40
1
 10
209.866093
 20
772.380833
 30
0.0
 10
197.682737
 20
784.564189
 30
0.0
 10
181.158560
 20
791.408727
 30
0.0
 10
163.928693
 20
791.408727
 30
0.0
  0
LWPOLYLINE
  5
1bf
100
AcDbEntity
  8
Layer_1
 62
7
100
AcDbPolyline
 90
2
 70
0
 10
224.700803
 20
727.001065
 30
0.0
 10
224.694850
 20
727.115159
 30
0.0
  0
LWPOLYLINE
  5
1c0
100
AcDbEntity
  8
Layer_1
 62
7
100
AcDbPolyline
 90
1
 70
1
 10
163.928693
 20
791.408727
 30
0.0
  0
ENDSEC
  0
SECTION
  2
OBJECTS
  0
DICTIONARY
  5
C
330
0
100
AcDbDictionary
  3
ACAD_GROUP
350
D
  3
ACAD_MLINESTYLE
350
17
  0
DICTIONARY
  5
D
330
C
100
AcDbDictionary
  0
DICTIONARY
  5
1A
330
C
100
AcDbDictionary
  0
DICTIONARY
  5
17
330
C
100
AcDbDictionary
  3
STANDARD
350
18
  0
DICTIONARY
  5
19
330
C
100
AcDbDictionary
  0
ENDSEC
  0
EOF
