<?xml version="1.0" encoding="UTF-8"?>
<svg viewBox="-25.21014298575622 -25.21014298575622 50.42028597151244 50.42028597151244" height="50.42028597151244mm" width="50.42028597151244mm" xmlns:svgjs="http://svgjs.com/svgjs" xmlns:xlink="http://www.w3.org/1999/xlink" version="1.1" xmlns="http://www.w3.org/2000/svg" id="SvgjsSvg1127">
  <desc>Created with svg.js [http://svgjs.com]</desc>
  <defs id="SvgjsDefs1128">
  </defs>
  <defs id="SvgjsDefs1128">
  </defs>
  <g id="SvgjsG1129">
    <g transform="matrix(1,0,0,1,16.297466278076172,0)" id="SvgjsG1130">
      <g fill="none" stroke-width="0.04" stroke="blue" id="SvgjsG1131">
        <circle cy="0" cx="0" r="4.074366543152521" id="SvgjsCircle1132">
        </circle>
        <circle cy="0" cx="0" r="5.092958178940651" id="SvgjsCircle1133">
        </circle>
        <line y2="0.45836623610465854" x2="0" y1="-0.45836623610465854" x1="0" id="SvgjsLine1134">
        </line>
        <line y2="0" x2="0.45836623610465854" y1="0" x1="-0.45836623610465854" id="SvgjsLine1135">
        </line>
      </g>
      <g fill="none" stroke-width="0.1" stroke="black" id="SvgjsG1136">
        <circle cy="0" cx="0" r="2" id="SvgjsCircle1137">
        </circle>
        <path d="M3.7645041328171334 -3.300304049826731  L3.742041300958989 -3.170648451471269 3.7154866273293177 -3.0482060445673635 3.685569207526352 -2.9336468437481664 3.653006769296836 -2.827354732956495 3.6181329038078966 -2.728472089353791 3.581318316721214 -2.6366004442306243 3.544156272955323 -2.5540341617471434 3.50556444629964 -2.47708857502914 3.431280144305503 -2.3493583163695573 3.360675623199713 -2.2483611872052984 3.299310415388279 -2.1746032502069013 3.252614616819117 -2.1270216046280837 3.167840911396969 -2.096658887868892 3.071898263653318 -2.0568856701974783 2.9848594908939288 -2.013072277992133 2.906869018287679 -1.9658630259047105 2.838061375627152 -1.9159522493980155 2.7785080062643344 -1.8640298005195597 2.7282303327402637 -1.8107756359405625 2.687245950761652 -1.7568789511275686 2.655490892003964 -1.7030168044631828 2.6328788837176917 -1.6498678394566886 2.619286697972025 -1.5980953922800747 2.6145557367815324 -1.5483697961930083 2.618470384262153 -1.5013161190242421 2.6351434461146175 -1.4472403508053449 2.7299550363142817 -1.2578031254144229 2.7769693824364503 -1.1502583805000157 2.819770837890368 -1.040968599134024 2.886681266208191 -0.839974334085676 2.913128973514625 -0.7899473565812016 2.94363287394092 -0.7539073085959027 2.982139474871956 -0.7220912971435227 3.0283592500610697 -0.6950937753782244 3.081930348025678 -0.6735008862045555 3.1424708545658677 -0.6578688144334423 3.209561900300426 -0.6487384375385163 3.2827699650918136 -0.6466337405294371 3.361595272108537 -0.6520296161506245 3.4455418713534267 -0.6653917183511732 3.5340714456870113 -0.6871573281132348 3.6265978988665157 -0.7177222878223682 3.7225635076161088 -0.7574400727218311 3.803977252502091 -0.7959144517764718 3.8706414725720637 -0.7952880633488505 3.966187964562347 -0.7865250805033399 4.087528655131101 -0.7650342612472522 4.230374520867767 -0.7272422628621128 4.312071809345054 -0.7001220590380446 4.3967325207361005 -0.6680164139462244 4.487727428177032 -0.629085194856444 4.582307562783573 -0.5838241537967366 4.6804925559950545 -0.5316894023533725 4.782652954159902 -0.471838625025089 4.888009800182192 -0.40403575859427066 4.995573773729685 -0.3282390265098718 5.086340051182586 -0.2587704863652307 A5.092958178940651 5.092958178940651 0 0 1 5.086340051182586 0.25877048636523114 L4.995573773729685 0.32823902650987224 4.888009800182192 0.4040357585942711 4.782652954159902 0.47183862502508944 4.6804925559950545 0.5316894023533731 4.582307562783573 0.583824153796737 4.487727428177032 0.6290851948564444 4.3967325207361005 0.6680164139462248 4.3120718093450545 0.700122059038045 4.230374520867768 0.7272422628621132 4.087528655131101 0.7650342612472526 3.966187964562347 0.7865250805033404 3.8706414725720637 0.7952880633488509 3.803977252502091 0.7959144517764722 3.7225635076161088 0.7574400727218316 3.6265978988665157 0.7177222878223687 3.5340714456870113 0.6871573281132353 3.4455418713534267 0.6653917183511736 3.361595272108537 0.6520296161506249 3.2827699650918136 0.6466337405294373 3.209561900300426 0.6487384375385168 3.142470854565868 0.6578688144334425 3.081930348025678 0.673500886204556 3.02835925006107 0.6950937753782248 2.982139474871956 0.7220912971435229 2.94363287394092 0.7539073085959029 2.913128973514625 0.7899473565812019 2.886681266208191 0.8399743340856765 2.819770837890368 1.0409685991340243 2.7769693824364503 1.1502583805000162 2.7299550363142817 1.257803125414423 2.6351434461146175 1.4472403508053453 2.618470384262153 1.5013161190242423 2.6145557367815324 1.5483697961930085 2.619286697972025 1.598095392280075 2.6328788837176913 1.649867839456689 2.655490892003964 1.7030168044631833 2.6872459507616515 1.7568789511275686 2.7282303327402637 1.810775635940563 2.7785080062643344 1.86402980051956 2.838061375627152 1.915952249398016 2.906869018287679 1.965863025904711 2.9848594908939288 2.0130722779921335 3.071898263653318 2.0568856701974787 3.167840911396969 2.0966588878688923 3.252614616819117 2.1270216046280837 3.299310415388279 2.1746032502069017 3.360675623199713 2.2483611872052993 3.4312801443055028 2.3493583163695577 3.50556444629964 2.4770885750291405 3.544156272955323 2.554034161747144 3.581318316721214 2.6366004442306243 3.618132903807896 2.728472089353792 3.6530067692968355 2.8273547329564956 3.6855692075263518 2.933646843748167 3.7154866273293177 3.048206044567364 3.742041300958989 3.17064845147127 3.7645041328171334 3.300304049826731 3.7795639072917337 3.4136071759321425 A5.092958178940651 5.092958178940651 0 0 1 3.413607175932142 3.7795639072917337 L3.300304049826731 3.7645041328171334 3.1706484514712696 3.742041300958989 3.0482060445673635 3.7154866273293177 2.933646843748167 3.6855692075263518 2.827354732956495 3.6530067692968355 2.7284720893537915 3.618132903807896 2.6366004442306243 3.581318316721214 2.5540341617471434 3.544156272955323 2.4770885750291405 3.50556444629964 2.3493583163695577 3.431280144305503 2.248361187205299 3.360675623199713 2.1746032502069013 3.299310415388279 2.1270216046280837 3.252614616819117 2.096658887868892 3.167840911396969 2.0568856701974787 3.071898263653318 2.0130722779921335 2.9848594908939288 1.965863025904711 2.906869018287679 1.9159522493980157 2.838061375627152 1.86402980051956 2.7785080062643344 1.8107756359405627 2.7282303327402637 1.7568789511275686 2.6872459507616515 1.703016804463183 2.655490892003964 1.6498678394566886 2.6328788837176917 1.5980953922800747 2.619286697972025 1.5483697961930085 2.6145557367815324 1.5013161190242421 2.618470384262153 1.447240350805345 2.6351434461146175 1.257803125414423 2.7299550363142817 1.150258380500016 2.7769693824364503 1.0409685991340243 2.819770837890368 0.8399743340856762 2.886681266208191 0.7899473565812016 2.913128973514625 0.7539073085959029 2.94363287394092 0.7220912971435227 2.982139474871956 0.6950937753782246 3.0283592500610697 0.6735008862045557 3.081930348025678 0.6578688144334425 3.142470854565868 0.6487384375385166 3.209561900300426 0.6466337405294373 3.2827699650918136 0.6520296161506247 3.361595272108537 0.6653917183511734 3.4455418713534267 0.687157328113235 3.5340714456870113 0.7177222878223685 3.6265978988665157 0.7574400727218313 3.7225635076161088 0.795914451776472 3.803977252502091 0.7952880633488507 3.8706414725720637 0.7865250805033401 3.966187964562347 0.7650342612472524 4.087528655131101 0.727242262862113 4.230374520867768 0.7001220590380448 4.312071809345054 0.6680164139462246 4.3967325207361005 0.6290851948564442 4.487727428177032 0.5838241537967368 4.582307562783573 0.5316894023533727 4.6804925559950545 0.4718386250250892 4.782652954159902 0.4040357585942709 4.888009800182192 0.328239026509872 4.995573773729685 0.2587704863652309 5.086340051182586 A5.092958178940651 5.092958178940651 0 0 1 -0.2587704863652309 5.086340051182586 L-0.328239026509872 4.995573773729685 -0.4040357585942709 4.888009800182192 -0.4718386250250892 4.782652954159902 -0.5316894023533727 4.6804925559950545 -0.5838241537967368 4.582307562783573 -0.6290851948564442 4.487727428177032 -0.6680164139462246 4.3967325207361005 -0.7001220590380448 4.312071809345054 -0.727242262862113 4.230374520867768 -0.7650342612472524 4.087528655131101 -0.7865250805033401 3.966187964562347 -0.7952880633488507 3.8706414725720637 -0.795914451776472 3.803977252502091 -0.7574400727218313 3.7225635076161088 -0.7177222878223685 3.6265978988665157 -0.687157328113235 3.5340714456870113 -0.6653917183511734 3.4455418713534267 -0.6520296161506247 3.361595272108537 -0.6466337405294373 3.2827699650918136 -0.6487384375385166 3.209561900300426 -0.6578688144334425 3.142470854565868 -0.6735008862045557 3.081930348025678 -0.6950937753782246 3.0283592500610697 -0.7220912971435227 2.982139474871956 -0.7539073085959029 2.94363287394092 -0.7899473565812016 2.913128973514625 -0.8399743340856762 2.886681266208191 -1.0409685991340243 2.819770837890368 -1.150258380500016 2.7769693824364503 -1.257803125414423 2.7299550363142817 -1.447240350805345 2.6351434461146175 -1.5013161190242421 2.618470384262153 -1.5483697961930085 2.6145557367815324 -1.5980953922800747 2.619286697972025 -1.6498678394566886 2.6328788837176917 -1.703016804463183 2.655490892003964 -1.7568789511275686 2.6872459507616515 -1.8107756359405627 2.7282303327402637 -1.86402980051956 2.7785080062643344 -1.9159522493980157 2.838061375627152 -1.965863025904711 2.906869018287679 -2.0130722779921335 2.9848594908939288 -2.0568856701974787 3.071898263653318 -2.096658887868892 3.167840911396969 -2.1270216046280837 3.252614616819117 -2.1746032502069013 3.299310415388279 -2.248361187205299 3.360675623199713 -2.3493583163695577 3.431280144305503 -2.4770885750291405 3.50556444629964 -2.5540341617471434 3.544156272955323 -2.6366004442306243 3.581318316721214 -2.7284720893537915 3.618132903807896 -2.827354732956495 3.6530067692968355 -2.933646843748167 3.6855692075263518 -3.0482060445673635 3.7154866273293177 -3.1706484514712696 3.742041300958989 -3.300304049826731 3.7645041328171334 -3.413607175932142 3.7795639072917337 A5.092958178940651 5.092958178940651 0 0 1 -3.7795639072917337 3.4136071759321425 L-3.7645041328171334 3.300304049826731 -3.742041300958989 3.17064845147127 -3.7154866273293177 3.048206044567364 -3.6855692075263518 2.933646843748167 -3.6530067692968355 2.8273547329564956 -3.618132903807896 2.728472089353792 -3.581318316721214 2.6366004442306243 -3.544156272955323 2.554034161747144 -3.50556444629964 2.4770885750291405 -3.4312801443055028 2.3493583163695577 -3.360675623199713 2.2483611872052993 -3.299310415388279 2.1746032502069017 -3.252614616819117 2.1270216046280837 -3.167840911396969 2.0966588878688923 -3.071898263653318 2.0568856701974787 -2.9848594908939288 2.0130722779921335 -2.906869018287679 1.965863025904711 -2.838061375627152 1.915952249398016 -2.7785080062643344 1.86402980051956 -2.7282303327402637 1.810775635940563 -2.6872459507616515 1.7568789511275686 -2.655490892003964 1.7030168044631833 -2.6328788837176913 1.649867839456689 -2.619286697972025 1.598095392280075 -2.6145557367815324 1.5483697961930085 -2.618470384262153 1.5013161190242423 -2.6351434461146175 1.4472403508053453 -2.7299550363142817 1.257803125414423 -2.7769693824364503 1.1502583805000162 -2.819770837890368 1.0409685991340243 -2.886681266208191 0.8399743340856765 -2.913128973514625 0.7899473565812019 -2.94363287394092 0.7539073085959029 -2.982139474871956 0.7220912971435229 -3.02835925006107 0.6950937753782248 -3.081930348025678 0.673500886204556 -3.142470854565868 0.6578688144334425 -3.209561900300426 0.6487384375385168 -3.2827699650918136 0.6466337405294373 -3.361595272108537 0.6520296161506249 -3.4455418713534267 0.6653917183511736 -3.5340714456870113 0.6871573281132353 -3.6265978988665157 0.7177222878223687 -3.7225635076161088 0.7574400727218316 -3.803977252502091 0.7959144517764722 -3.8706414725720637 0.7952880633488509 -3.966187964562347 0.7865250805033404 -4.087528655131101 0.7650342612472526 -4.230374520867768 0.7272422628621132 -4.3120718093450545 0.700122059038045 -4.3967325207361005 0.6680164139462248 -4.487727428177032 0.6290851948564444 -4.582307562783573 0.583824153796737 -4.6804925559950545 0.5316894023533731 -4.782652954159902 0.47183862502508944 -4.888009800182192 0.4040357585942711 -4.995573773729685 0.32823902650987224 -5.086340051182586 0.25877048636523114 A5.092958178940651 5.092958178940651 0 0 1 -5.086340051182586 -0.2587704863652307 L-4.995573773729685 -0.3282390265098718 -4.888009800182192 -0.40403575859427066 -4.782652954159902 -0.471838625025089 -4.6804925559950545 -0.5316894023533725 -4.582307562783573 -0.5838241537967366 -4.487727428177032 -0.629085194856444 -4.3967325207361005 -0.6680164139462244 -4.312071809345054 -0.7001220590380446 -4.230374520867767 -0.7272422628621128 -4.087528655131101 -0.7650342612472522 -3.966187964562347 -0.7865250805033399 -3.8706414725720637 -0.7952880633488505 -3.803977252502091 -0.7959144517764718 -3.7225635076161088 -0.7574400727218311 -3.6265978988665157 -0.7177222878223682 -3.5340714456870113 -0.6871573281132348 -3.4455418713534267 -0.6653917183511732 -3.361595272108537 -0.6520296161506245 -3.2827699650918136 -0.6466337405294371 -3.209561900300426 -0.6487384375385163 -3.1424708545658677 -0.6578688144334423 -3.081930348025678 -0.6735008862045555 -3.0283592500610697 -0.6950937753782244 -2.982139474871956 -0.7220912971435227 -2.94363287394092 -0.7539073085959027 -2.913128973514625 -0.7899473565812016 -2.886681266208191 -0.839974334085676 -2.819770837890368 -1.040968599134024 -2.7769693824364503 -1.1502583805000157 -2.7299550363142817 -1.2578031254144229 -2.6351434461146175 -1.4472403508053449 -2.618470384262153 -1.5013161190242421 -2.6145557367815324 -1.5483697961930083 -2.619286697972025 -1.5980953922800747 -2.6328788837176917 -1.6498678394566886 -2.655490892003964 -1.7030168044631828 -2.687245950761652 -1.7568789511275686 -2.7282303327402637 -1.8107756359405625 -2.7785080062643344 -1.8640298005195597 -2.838061375627152 -1.9159522493980155 -2.906869018287679 -1.9658630259047105 -2.9848594908939288 -2.013072277992133 -3.071898263653318 -2.0568856701974783 -3.167840911396969 -2.096658887868892 -3.252614616819117 -2.1270216046280837 -3.299310415388279 -2.1746032502069013 -3.360675623199713 -2.2483611872052984 -3.431280144305503 -2.3493583163695573 -3.50556444629964 -2.47708857502914 -3.544156272955323 -2.5540341617471434 -3.581318316721214 -2.6366004442306243 -3.6181329038078966 -2.728472089353791 -3.653006769296836 -2.827354732956495 -3.685569207526352 -2.9336468437481664 -3.7154866273293177 -3.0482060445673635 -3.742041300958989 -3.170648451471269 -3.7645041328171334 -3.300304049826731 -3.7795639072917337 -3.4136071759321416 A5.092958178940651 5.092958178940651 0 0 1 -3.4136071759321425 -3.7795639072917333 L-3.3003040498267313 -3.7645041328171334 -3.17064845147127 -3.742041300958989 -3.0482060445673644 -3.7154866273293177 -2.9336468437481673 -3.6855692075263518 -2.827354732956496 -3.6530067692968355 -2.728472089353792 -3.618132903807896 -2.636600444230625 -3.581318316721214 -2.5540341617471443 -3.544156272955323 -2.477088575029141 -3.50556444629964 -2.349358316369558 -3.4312801443055028 -2.2483611872052993 -3.360675623199713 -2.1746032502069017 -3.299310415388279 -2.127021604628084 -3.252614616819117 -2.0966588878688928 -3.167840911396969 -2.056885670197479 -3.071898263653318 -2.0130722779921335 -2.9848594908939288 -1.9658630259047114 -2.906869018287679 -1.9159522493980161 -2.838061375627152 -1.8640298005195601 -2.7785080062643344 -1.8107756359405631 -2.7282303327402637 -1.756878951127569 -2.6872459507616515 -1.7030168044631833 -2.655490892003964 -1.649867839456689 -2.6328788837176913 -1.5980953922800751 -2.619286697972025 -1.5483697961930087 -2.614555736781532 -1.5013161190242426 -2.618470384262153 -1.4472403508053453 -2.6351434461146175 -1.2578031254144233 -2.7299550363142817 -1.1502583805000162 -2.7769693824364503 -1.0409685991340245 -2.819770837890368 -0.8399743340856765 -2.886681266208191 -0.7899473565812021 -2.913128973514625 -0.7539073085959032 -2.9436328739409205 -0.7220912971435232 -2.982139474871956 -0.695093775378225 -3.02835925006107 -0.673500886204556 -3.081930348025678 -0.6578688144334427 -3.142470854565868 -0.648738437538517 -3.209561900300426 -0.6466337405294376 -3.2827699650918136 -0.6520296161506252 -3.361595272108537 -0.6653917183511738 -3.4455418713534267 -0.6871573281132355 -3.5340714456870113 -0.7177222878223689 -3.6265978988665157 -0.7574400727218318 -3.7225635076161088 -0.7959144517764725 -3.803977252502091 -0.7952880633488512 -3.8706414725720637 -0.7865250805033406 -3.966187964562347 -0.7650342612472528 -4.087528655131101 -0.7272422628621135 -4.230374520867768 -0.7001220590380453 -4.3120718093450545 -0.668016413946225 -4.3967325207361005 -0.6290851948564449 -4.487727428177032 -0.5838241537967372 -4.582307562783573 -0.5316894023533734 -4.6804925559950545 -0.47183862502508966 -4.782652954159902 -0.4040357585942713 -4.888009800182192 -0.32823902650987247 -4.995573773729686 -0.25877048636523137 -5.086340051182586 A5.092958178940651 5.092958178940651 0 0 1 0.25877048636523026 -5.086340051182586 L0.32823902650987136 -4.995573773729686 0.4040357585942702 -4.888009800182193 0.47183862502508855 -4.782652954159903 0.531689402353372 -4.6804925559950545 0.5838241537967359 -4.582307562783574 0.6290851948564435 -4.487727428177032 0.668016413946224 -4.3967325207361005 0.7001220590380443 -4.3120718093450545 0.7272422628621125 -4.230374520867768 0.7650342612472518 -4.087528655131101 0.7865250805033396 -3.9661879645623475 0.7952880633488502 -3.870641472572064 0.7959144517764715 -3.8039772525020914 0.7574400727218308 -3.722563507616109 0.7177222878223679 -3.6265978988665157 0.6871573281132345 -3.5340714456870117 0.6653917183511728 -3.445541871353427 0.6520296161506244 -3.3615952721085374 0.6466337405294368 -3.2827699650918136 0.648738437538516 -3.2095619003004265 0.657868814433442 -3.142470854565868 0.6735008862045552 -3.0819303480256783 0.695093775378224 -3.02835925006107 0.7220912971435225 -2.982139474871956 0.7539073085959024 -2.9436328739409205 0.7899473565812014 -2.913128973514625 0.8399743340856758 -2.886681266208191 1.0409685991340236 -2.8197708378903683 1.1502583805000155 -2.7769693824364508 1.2578031254144229 -2.729955036314282 1.4472403508053446 -2.6351434461146175 1.501316119024242 -2.618470384262153 1.548369796193008 -2.614555736781533 1.5980953922800745 -2.6192866979720257 1.6498678394566884 -2.632878883717692 1.7030168044631826 -2.6554908920039644 1.7568789511275682 -2.6872459507616524 1.8107756359405625 -2.728230332740264 1.8640298005195595 -2.7785080062643353 1.9159522493980155 -2.8380613756271527 1.9658630259047105 -2.9068690182876793 2.013072277992133 -2.984859490893929 2.0568856701974783 -3.0718982636533188 2.096658887868892 -3.1678409113969694 2.127021604628083 -3.2526146168191175 2.174603250206901 -3.2993104153882795 2.2483611872052984 -3.3606756231997132 2.3493583163695573 -3.4312801443055037 2.47708857502914 -3.5055644462996405 2.5540341617471434 -3.5441562729553233 2.636600444230624 -3.581318316721215 2.728472089353791 -3.6181329038078966 2.827354732956495 -3.653006769296837 2.9336468437481664 -3.685569207526352 3.0482060445673635 -3.7154866273293186 3.170648451471269 -3.7420413009589897 3.300304049826731 -3.7645041328171347 3.4136071759321416 -3.7795639072917337 A5.092958178940651 5.092958178940651 0 0 1 3.7795639072917337 -3.4136071759321416 Z" id="SvgjsPath1138">
        </path>
      </g>
    </g>
    <g transform="matrix(1,0,0,1,0,0)" id="SvgjsG1139">
      <g fill="none" stroke-width="0.04" stroke="blue" id="SvgjsG1140">
        <circle cy="0" cx="0" r="19.353241079974474" id="SvgjsCircle1141">
        </circle>
        <circle cy="0" cx="0" r="20.371832715762604" id="SvgjsCircle1142">
        </circle>
        <circle cy="0" cx="0" r="21.390424351550735" id="SvgjsCircle1143">
        </circle>
        <line y2="0.45836623610465854" x2="0" y1="-0.45836623610465854" x1="0" id="SvgjsLine1144">
        </line>
        <line y2="0" x2="0.45836623610465854" y1="0" x1="-0.45836623610465854" id="SvgjsLine1145">
        </line>
      </g>
      <g fill="none" stroke-width="0.1" stroke="black" id="SvgjsG1146">
        <path d="M21.43695 -0.23697000000000012  L21.43065 -0.26366 21.41393 -0.3033199999999998 21.39794 -0.32938 21.378080000000004 -0.35504999999999987 21.32681 -0.40491999999999995 21.26023 -0.45231 21.17849 -0.49662000000000006 20.903300000000005 -0.6141000000000001 20.62908 -0.7195400000000001 20.34523 -0.8163 20.12392 -0.88184 20.036200000000004 -0.9047700000000001 19.73608 -0.9666899999999999 19.480259999999998 -1.0236099999999997 19.41736 -1.04162 19.3736 -1.06102 19.35151 -1.0757199999999996 19.335859999999997 -1.0907699999999996 19.325589999999995 -1.1070499999999999 19.320349999999998 -1.1263899999999998 19.293579999999995 -1.51844 19.293580363435222 -1.518435382117616 19.258690648293936 -1.9098463466770674 19.260840692644773 -1.9297679557809875 19.268437498811828 -1.94745410392184 19.28154048264329 -1.9647670128256767 19.301058931450942 -1.9827416687651636 19.341245344613608 -2.0087483947628697 19.40055355652167 -2.036376389628019 19.644319738062627 -2.132614674821286 19.93105834076675 -2.240721448518811 20.014111319720378 -2.2770915734419863 20.222443911538754 -2.3764451787426455 20.48766264817939 -2.5164178254803 20.74201209494355 -2.663457143115984 20.995436128439 -2.822539969803522 21.069238162253313 -2.8790913933476805 21.127585022671877 -2.9363133504908623 21.170422417122637 -2.9935897630589556 21.18602223484927 -3.022050511237731 21.19773868925644 -3.050291056489634 21.208048647427695 -3.09207836033311 21.21009584810152 -3.119425299273347 A22.91831180523293 22.91831180523293 0 0 1 21.144365438007096 -3.5481106254612382 L21.135955297740352 -3.587530311415007 21.12555762532268 -3.6129061760957377 21.102839285384434 -3.649462311428268 21.082969466659367 -3.6727000824881837 21.05933830349757 -3.6949472537155623 21.000898135503697 -3.736182876238428 20.927724416488616 -3.7725740200168536 20.840059160382438 -3.8035515372162365 20.549879284981138 -3.8765359630349323 20.262540938229293 -3.937780362663951 19.967049003914074 -3.9889451635982667 19.738210982418227 -4.019057745982819 19.64798391889785 -4.027983008359337 19.341872472043146 -4.042191558761113 19.080297791002007 -4.058391714261196 19.015354809663197 -4.066340253424284 18.969098739256975 -4.07865583504167 18.944981117177136 -4.089719216315679 18.92716945594796 -4.1021357264637555 18.914479143599195 -4.116608710692682 18.906278214140603 -4.134890886602981 18.818507665243846 -4.517926349904177 18.81850874660054 -4.517921845729384 18.722818416897066 -4.899055937882317 18.721825564371237 -4.919068619957989 18.726562118125166 -4.937725424575506 18.736795446839842 -4.956874941107715 18.753261735467493 -4.977681657302997 18.788885038929696 -5.00965473739297 18.84314109773597 -5.046220434197631 19.068851128414774 -5.179407298606151 19.33514787779358 -5.331038898446955 19.41148879572197 -5.379953595112173 19.601714139531918 -5.510674390215277 19.841771047306572 -5.690413092585325 20.06998701331814 -5.875431131860985 20.29540493953823 -6.072199638077381 20.359451756159444 -6.139600001434627 20.408128783650945 -6.2052449212273375 20.441478773731923 -6.268517410996583 20.452434289899937 -6.2990681092781635 20.459588700722087 -6.328793823832871 20.46323475167763 -6.3716794894150866 20.460978744150424 -6.399009994899567 A22.91831180523293 22.91831180523293 0 0 1 20.328996424804824 -6.8121349918195735 L20.31452322983636 -6.849753720232491 20.300283910203834 -6.873190611587846 20.27212663125447 -6.905742748878165 20.248866254685495 -6.925586099952761 20.222045806026273 -6.943862643217771 20.157874460926337 -6.975448530383806 20.07990880270798 -6.99994474720555 19.988476900045264 -7.01682701232238 19.69045234082683 -7.043518745174693 19.397070871041475 -7.059059504055355 19.097212994515377 -7.063369258718746 18.866481703082762 -7.0573129517716096 18.775969265792334 -7.052013706943688 18.471403851830136 -7.018160946080875 18.210515326511686 -6.9932423554873955 18.14512847556803 -6.990933714399687 18.09751531272408 -6.995861627141966 18.07196392446181 -7.003015972525761 18.052429184216443 -7.012493257134035 18.037631037125667 -7.024802852687088 18.026671112309074 -7.041577036661714 17.88006121672315 -7.40616635893581 17.88006298937472 -7.4061620793763385 17.725928258604362 -7.7676345128624185 17.721816956526144 -7.787245489258854 17.723576628193797 -7.806413557904967 17.730688323276265 -7.826928157414926 17.743696997049415 -7.850054603459742 17.77388002685295 -7.8872067542975985 17.821747968324093 -7.93180978423185 18.023844118096786 -8.098665725232022 18.263141904392327 -8.290088477991599 18.330890994535103 -8.350343304228389 18.498325111050303 -8.509212509321054 18.70730919218637 -8.72429150395259 18.90377224295677 -8.942732506701592 19.09563352443876 -9.172341598786566 19.148348078682456 -9.248931281322065 19.18615668328026 -9.32138276797601 19.20919808155339 -9.389093356258932 19.215239534995455 -9.420981745059674 19.217655736894013 -9.451460683170858 19.214548102758773 -9.494388723075813 19.208044437423112 -9.52102982735476 A22.91831180523293 22.91831180523293 0 0 1 19.01306005155283 -9.908421986499453 L18.992880179976552 -9.943313459428595 18.975149832436117 -9.964234283410821 18.94224694013202 -9.991980881004489 18.916168753387034 -10.007941202934 18.88681942768834 -10.02179708908509 18.818497016971186 -10.042955491524715 18.73765919280807 -10.054953603233344 18.64471200047746 -10.05732491887142 18.34618111117666 -10.037066719709745 18.053980543821183 -10.006521172781586 17.75714022117552 -9.963869760710983 17.530197029954458 -9.921793690808927 17.44162793549363 -9.902400423771416 17.146107965710343 -9.821319918967328 16.8923295374473 -9.755896160680757 16.82810885817554 -9.743387185747773 16.78031099698211 -9.740806088048425 16.753955002516616 -9.743875233814746 16.73317819339199 -9.750179930682856 16.716636591052815 -9.760023034464318 16.703187540601107 -9.774876190423488 16.50134832052569 -10.112041972553506 16.50135074082358 -10.112038022986315 16.29256691760174 -10.444948146834886 16.28543839987292 -10.463674530228108 16.28417786049783 -10.482881881437576 16.2879928084128 -10.504256426401296 16.297223550609843 -10.52913315244175 16.32122310038922 -10.570549564772941 16.36152425694161 -10.622091653210832 16.535030247882126 -10.818508123772114 16.741436765411986 -11.04500856598183 16.79892582032349 -11.11511984799394 16.93944592591336 -11.298225575990122 17.112211298754865 -11.54334890422906 17.27208386195065 -11.789834127999598 17.42566423719337 -12.046630068077132 17.4657485217845 -12.130523177620272 17.49175773016384 -12.207997235081333 17.503923180933622 -12.278478662475848 17.504901811015557 -12.310919543831979 17.502520309080875 -12.341401212889549 17.4927355101209 -12.383314596304789 17.48214432880178 -12.4086103069741 A22.91831180523293 22.91831180523293 0 0 1 17.228959039103017 -12.760730747704478 L17.203569386330283 -12.792035821288163 17.182784590882033 -12.809925437778588 17.145946263630165 -12.83218328235717 17.117692398215368 -12.843867579046421 17.086536873280735 -12.8529616301815 17.015745721447303 -12.863171557805941 16.93402622685568 -12.862376131071738 16.841852413206393 -12.850178107570105 16.550166015085033 -12.783468800490912 16.266341297885813 -12.707589080494161 15.979827723020666 -12.619026721006664 15.762260726560298 -12.541966940633149 15.677815839978662 -12.508957177983072 15.398617996804902 -12.38264540035675 15.158198532743416 -12.278327424435114 15.096725351403443 -12.25592612813461 15.049919733835122 -12.245899575185163 15.02340810522068 -12.244807948779336 15.001900821211708 -12.2477848153463 14.984023072772155 -12.254919057473678 14.968416056942297 -12.267485451422882 14.716317463841612 -12.568925552863707 14.716320472190048 -12.568922030540246 14.45802850715823 -12.865072492636799 14.448058301543496 -12.88245317731836 14.443808589788565 -12.901226862358865 14.444232853857278 -12.922935040541294 14.449458372970248 -12.948949499021147 14.466683494159952 -12.993610363320888 14.498425517567416 -13.050822372986692 14.63906905634542 -13.271962947734973 14.807501891624058 -13.527963886795751 14.853315339977131 -13.606205252134043 14.963461363282562 -13.809038832317404 15.095753970974751 -14.078170744304815 15.21509945350342 -14.346630904850102 15.326617263964348 -14.624290524618623 15.353084270784159 -14.713421334387185 15.36665364991513 -14.794010294239015 15.367643599408794 -14.865527074088227 15.363535309010098 -14.897721645835645 15.356414743723548 -14.927455485984543 15.34019371416313 -14.967322166307838 15.325775806894736 -14.990649619019184 A22.91831180523293 22.91831180523293 0 0 1 15.020623875473682 -15.298827967463717 L14.990649619019184 -15.325775806894736 14.967322166307838 -15.34019371416313 14.927455485984543 -15.356414743723548 14.897721645835645 -15.363535309010098 14.865527074088227 -15.367643599408794 14.794010294239015 -15.36665364991513 14.713421334387185 -15.353084270784159 14.624290524618623 -15.326617263964348 14.346630904850102 -15.21509945350342 14.078170744304815 -15.095753970974751 13.809038832317404 -14.963461363282562 13.606205252134043 -14.853315339977131 13.527963886795751 -14.807501891624058 13.271962947734973 -14.63906905634542 13.050822372986692 -14.498425517567416 12.993610363320888 -14.466683494159952 12.948949499021147 -14.449458372970248 12.922935040541294 -14.444232853857278 12.901226862358865 -14.443808589788565 12.88245317731836 -14.448058301543496 12.865072492636799 -14.45802850715823 12.568922030540246 -14.716320472190048 12.568925552863707 -14.716317463841612 12.267485451422882 -14.968416056942297 12.254919057473678 -14.984023072772155 12.2477848153463 -15.001900821211708 12.244807948779336 -15.02340810522068 12.245899575185163 -15.049919733835122 12.25592612813461 -15.096725351403443 12.278327424435114 -15.158198532743416 12.38264540035675 -15.398617996804902 12.508957177983072 -15.677815839978662 12.541966940633149 -15.762260726560298 12.619026721006664 -15.979827723020666 12.707589080494161 -16.266341297885813 12.783468800490912 -16.550166015085033 12.850178107570105 -16.841852413206393 12.862376131071738 -16.93402622685568 12.863171557805941 -17.015745721447303 12.8529616301815 -17.086536873280735 12.843867579046421 -17.117692398215368 12.83218328235717 -17.145946263630165 12.809925437778588 -17.182784590882033 12.792035821288163 -17.203569386330283 A22.91831180523293 22.91831180523293 0 0 1 12.442431101437599 -17.460217268764968 L12.408610306974102 -17.482144328801773 12.383314596304793 -17.4927355101209 12.34140121288955 -17.50252030908087 12.310919543831982 -17.504901811015554 12.27847866247585 -17.50392318093362 12.207997235081335 -17.491757730163837 12.130523177620274 -17.465748521784498 12.046630068077135 -17.425664237193367 11.7898341279996 -17.272083861950648 11.543348904229061 -17.112211298754865 11.298225575990124 -16.939445925913358 11.115119847993943 -16.798925820323486 11.045008565981831 -16.741436765411983 10.818508123772116 -16.535030247882123 10.622091653210834 -16.36152425694161 10.570549564772943 -16.32122310038921 10.529133152441752 -16.297223550609843 10.5042564264013 -16.2879928084128 10.482881881437578 -16.284177860497827 10.46367453022811 -16.285438399872916 10.444948146834887 -16.292566917601736 10.112038022986319 -16.50135074082358 10.11204197255351 -16.50134832052569 9.77487619042349 -16.703187540601103 9.76002303446432 -16.71663659105281 9.750179930682858 -16.733178193391986 9.74387523381475 -16.753955002516616 9.740806088048426 -16.78031099698211 9.743387185747775 -16.82810885817554 9.75589616068076 -16.8923295374473 9.82131991896733 -17.14610796571034 9.902400423771418 -17.441627935493628 9.921793690808931 -17.530197029954454 9.963869760710985 -17.757140221175515 10.006521172781587 -18.053980543821183 10.037066719709747 -18.346181111176655 10.057324918871423 -18.644712000477455 10.054953603233345 -18.737659192808067 10.042955491524717 -18.818497016971182 10.021797089085092 -18.886819427688337 10.007941202934003 -18.91616875338703 9.99198088100449 -18.942246940132016 9.964234283410825 -18.975149832436117 9.943313459428596 -18.992880179976552 A22.91831180523293 22.91831180523293 0 0 1 9.557864379622785 -19.19167807377036 L9.521029827354761 -19.208044437423112 9.494388723075815 -19.214548102758773 9.45146068317086 -19.217655736894013 9.420981745059674 -19.215239534995455 9.389093356258932 -19.20919808155339 9.32138276797601 -19.18615668328026 9.248931281322065 -19.148348078682456 9.17234159878657 -19.09563352443876 8.942732506701594 -18.90377224295677 8.724291503952593 -18.70730919218637 8.509212509321056 -18.4983251110503 8.35034330422839 -18.330890994535103 8.290088477991599 -18.263141904392327 8.098665725232022 -18.023844118096786 7.9318097842318505 -17.821747968324093 7.887206754297599 -17.77388002685295 7.850054603459743 -17.743696997049415 7.826928157414928 -17.730688323276265 7.806413557904968 -17.723576628193797 7.787245489258856 -17.721816956526144 7.7676345128624185 -17.725928258604362 7.406162079376339 -17.88006298937472 7.406166358935811 -17.88006121672315 7.041577036661716 -18.026671112309074 7.02480285268709 -18.037631037125667 7.012493257134036 -18.052429184216443 7.003015972525763 -18.07196392446181 6.9958616271419665 -18.09751531272408 6.990933714399688 -18.14512847556803 6.993242355487396 -18.210515326511686 7.018160946080876 -18.471403851830136 7.05201370694369 -18.775969265792334 7.057312951771611 -18.866481703082762 7.0633692587187475 -19.09721299451538 7.059059504055356 -19.397070871041475 7.043518745174694 -19.69045234082683 7.0168270123223815 -19.988476900045264 6.99994474720555 -20.07990880270798 6.975448530383806 -20.157874460926337 6.943862643217773 -20.222045806026273 6.925586099952761 -20.248866254685495 6.905742748878167 -20.27212663125447 6.873190611587848 -20.300283910203834 6.849753720232493 -20.31452322983636 A22.91831180523293 22.91831180523293 0 0 1 6.4379513160484105 -20.450576071071705 L6.3990099948995685 -20.460978744150424 6.371679489415088 -20.46323475167763 6.328793823832873 -20.459588700722087 6.299068109278165 -20.452434289899937 6.268517410996584 -20.441478773731923 6.205244921227339 -20.408128783650945 6.139600001434629 -20.359451756159444 6.072199638077382 -20.29540493953823 5.875431131860987 -20.06998701331814 5.690413092585326 -19.841771047306572 5.510674390215279 -19.601714139531918 5.379953595112175 -19.41148879572197 5.331038898446957 -19.33514787779358 5.179407298606153 -19.068851128414774 5.046220434197632 -18.84314109773597 5.009654737392972 -18.788885038929696 4.977681657302998 -18.753261735467493 4.956874941107717 -18.736795446839842 4.937725424575508 -18.726562118125166 4.919068619957991 -18.721825564371237 4.899055937882319 -18.722818416897066 4.5179218457293855 -18.81850874660054 4.517926349904179 -18.818507665243846 4.1348908866029825 -18.906278214140603 4.116608710692684 -18.914479143599195 4.102135726463757 -18.92716945594796 4.089719216315681 -18.944981117177136 4.078655835041671 -18.969098739256975 4.066340253424285 -19.015354809663197 4.058391714261198 -19.080297791002007 4.042191558761115 -19.341872472043146 4.027983008359339 -19.64798391889785 4.0190577459828205 -19.738210982418227 3.9889451635982685 -19.967049003914074 3.937780362663952 -20.262540938229293 3.876535963034934 -20.549879284981138 3.8035515372162383 -20.840059160382438 3.7725740200168554 -20.927724416488616 3.7361828762384297 -21.000898135503697 3.694947253715564 -21.05933830349757 3.6727000824881855 -21.082969466659367 3.6494623114282696 -21.102839285384434 3.6129061760957395 -21.12555762532268 3.5875303114150086 -21.135955297740352 A22.91831180523293 22.91831180523293 0 0 1 3.1595145247374887 -21.205913013932523 L3.1194252992733484 -21.21009584810152 3.092078360333111 -21.208048647427695 3.0502910564896353 -21.19773868925644 3.0220505112377323 -21.18602223484927 2.9935897630589565 -21.170422417122637 2.9363133504908636 -21.127585022671877 2.879091393347682 -21.069238162253313 2.8225399698035227 -20.995436128439 2.663457143115985 -20.74201209494355 2.516417825480301 -20.48766264817939 2.376445178742647 -20.222443911538754 2.2770915734419876 -20.014111319720378 2.240721448518812 -19.93105834076675 2.132614674821287 -19.644319738062627 2.0363763896280203 -19.40055355652167 2.008748394762871 -19.341245344613608 1.9827416687651647 -19.301058931450942 1.9647670128256778 -19.28154048264329 1.947454103921841 -19.268437498811828 1.9297679557809886 -19.260840692644773 1.9098463466770683 -19.258690648293936 1.518435382117617 -19.293580363435222 1.5184400000000011 -19.293579999999995 1.1263900000000011 -19.320349999999998 1.107050000000001 -19.325589999999995 1.090770000000001 -19.335859999999997 1.0757200000000007 -19.35151 1.0610200000000012 -19.3736 1.041620000000001 -19.41736 1.0236100000000008 -19.480259999999998 0.966690000000001 -19.73608 0.9047700000000012 -20.036200000000004 0.8818400000000011 -20.12392 0.8163000000000011 -20.34523 0.7195400000000012 -20.62908 0.6141000000000012 -20.903300000000005 0.49662000000000117 -21.17849 0.4523100000000011 -21.26023 0.40492000000000106 -21.32681 0.355050000000001 -21.378080000000004 0.3293800000000011 -21.39794 0.30332000000000114 -21.41393 0.2636600000000011 -21.43065 0.23697000000000124 -21.43695 A22.91831180523293 22.91831180523293 0 0 1 -0.19671999999999845 -21.43909 L-0.23696999999999857 -21.43695 -0.26365999999999845 -21.43065 -0.3033199999999985 -21.41393 -0.32937999999999845 -21.39794 -0.3550499999999983 -21.378080000000004 -0.4049199999999984 -21.32681 -0.45230999999999844 -21.26023 -0.4966199999999985 -21.17849 -0.6140999999999985 -20.903300000000005 -0.7195399999999987 -20.62908 -0.8162999999999985 -20.34523 -0.8818399999999986 -20.12392 -0.9047699999999987 -20.036200000000004 -0.9666899999999986 -19.73608 -1.0236099999999984 -19.480259999999998 -1.0416199999999987 -19.41736 -1.0610199999999987 -19.3736 -1.0757199999999982 -19.35151 -1.0907699999999982 -19.335859999999997 -1.1070499999999985 -19.325589999999995 -1.1263899999999984 -19.320349999999998 -1.5184399999999987 -19.293579999999995 -1.5184353821176146 -19.293580363435222 -1.909846346677066 -19.258690648293936 -1.9297679557809861 -19.260840692644773 -1.9474541039218387 -19.268437498811828 -1.9647670128256753 -19.28154048264329 -1.9827416687651622 -19.301058931450942 -2.0087483947628684 -19.341245344613608 -2.0363763896280176 -19.40055355652167 -2.132614674821285 -19.644319738062627 -2.24072144851881 -19.93105834076675 -2.277091573441985 -20.014111319720378 -2.376445178742644 -20.222443911538754 -2.516417825480299 -20.48766264817939 -2.6634571431159824 -20.74201209494355 -2.82253996980352 -20.995436128439 -2.879091393347679 -21.069238162253313 -2.936313350490861 -21.127585022671877 -2.993589763058954 -21.170422417122637 -3.0220505112377296 -21.18602223484927 -3.0502910564896326 -21.19773868925644 -3.092078360333108 -21.208048647427695 -3.1194252992733458 -21.21009584810152 A22.91831180523293 22.91831180523293 0 0 1 -3.548110625461237 -21.144365438007096 L-3.587530311415005 -21.135955297740356 -3.612906176095736 -21.125557625322685 -3.649462311428267 -21.102839285384437 -3.672700082488182 -21.082969466659367 -3.6949472537155605 -21.059338303497572 -3.736182876238427 -21.000898135503697 -3.7725740200168527 -20.92772441648862 -3.803551537216235 -20.84005916038244 -3.8765359630349305 -20.54987928498114 -3.937780362663949 -20.262540938229296 -3.988945163598266 -19.967049003914074 -4.019057745982817 -19.738210982418227 -4.027983008359335 -19.64798391889785 -4.042191558761113 -19.341872472043146 -4.058391714261195 -19.080297791002007 -4.066340253424283 -19.015354809663197 -4.078655835041668 -18.969098739256975 -4.089719216315678 -18.94498111717714 -4.102135726463755 -18.927169455947965 -4.11660871069268 -18.9144791435992 -4.13489088660298 -18.906278214140606 -4.517926349904176 -18.818507665243846 -4.517921845729383 -18.81850874660054 -4.899055937882316 -18.72281841689707 -4.919068619957987 -18.72182556437124 -4.937725424575505 -18.72656211812517 -4.956874941107714 -18.736795446839846 -4.977681657302996 -18.753261735467493 -5.009654737392969 -18.788885038929696 -5.04622043419763 -18.84314109773597 -5.179407298606149 -19.068851128414774 -5.331038898446954 -19.33514787779358 -5.3799535951121715 -19.41148879572197 -5.510674390215276 -19.601714139531918 -5.690413092585324 -19.841771047306576 -5.875431131860983 -20.069987013318144 -6.072199638077381 -20.295404939538233 -6.139600001434626 -20.359451756159448 -6.205244921227337 -20.408128783650945 -6.268517410996581 -20.441478773731927 -6.299068109278162 -20.452434289899937 -6.3287938238328705 -20.45958870072209 -6.371679489415085 -20.463234751677632 -6.399009994899565 -20.460978744150427 A22.91831180523293 22.91831180523293 0 0 1 -6.8121349918195735 -20.328996424804824 L-6.849753720232491 -20.31452322983636 -6.873190611587846 -20.300283910203834 -6.905742748878163 -20.27212663125447 -6.925586099952759 -20.248866254685495 -6.943862643217771 -20.222045806026273 -6.9754485303838045 -20.157874460926337 -6.999944747205548 -20.07990880270798 -7.016827012322378 -19.988476900045264 -7.043518745174692 -19.69045234082683 -7.059059504055354 -19.397070871041475 -7.063369258718744 -19.097212994515377 -7.057312951771609 -18.866481703082762 -7.052013706943688 -18.775969265792334 -7.018160946080874 -18.471403851830136 -6.993242355487394 -18.210515326511686 -6.990933714399685 -18.14512847556803 -6.995861627141965 -18.09751531272408 -7.00301597252576 -18.07196392446181 -7.012493257134033 -18.052429184216443 -7.024802852687088 -18.037631037125667 -7.041577036661712 -18.026671112309074 -7.406166358935809 -17.88006121672315 -7.406162079376338 -17.88006298937472 -7.767634512862417 -17.725928258604362 -7.7872454892588525 -17.721816956526144 -7.806413557904965 -17.723576628193797 -7.826928157414925 -17.730688323276265 -7.850054603459741 -17.743696997049415 -7.887206754297597 -17.77388002685295 -7.931809784231848 -17.821747968324093 -8.09866572523202 -18.023844118096786 -8.290088477991597 -18.263141904392327 -8.350343304228389 -18.330890994535103 -8.509212509321054 -18.498325111050303 -8.72429150395259 -18.70730919218637 -8.942732506701592 -18.90377224295677 -9.172341598786566 -19.09563352443876 -9.248931281322063 -19.148348078682456 -9.321382767976008 -19.18615668328026 -9.389093356258932 -19.20919808155339 -9.420981745059672 -19.215239534995455 -9.451460683170856 -19.217655736894013 -9.494388723075813 -19.214548102758773 -9.52102982735476 -19.208044437423112 A22.91831180523293 22.91831180523293 0 0 1 -9.908421986499453 -19.01306005155283 L-9.943313459428595 -18.992880179976552 -9.964234283410821 -18.975149832436117 -9.991980881004489 -18.94224694013202 -10.007941202934 -18.916168753387034 -10.02179708908509 -18.88681942768834 -10.042955491524715 -18.818497016971186 -10.054953603233344 -18.73765919280807 -10.05732491887142 -18.64471200047746 -10.037066719709745 -18.34618111117666 -10.006521172781586 -18.053980543821183 -9.963869760710983 -17.75714022117552 -9.921793690808927 -17.530197029954458 -9.902400423771416 -17.44162793549363 -9.821319918967328 -17.146107965710343 -9.755896160680757 -16.8923295374473 -9.743387185747773 -16.82810885817554 -9.740806088048425 -16.78031099698211 -9.743875233814746 -16.753955002516616 -9.750179930682856 -16.73317819339199 -9.760023034464318 -16.716636591052815 -9.774876190423488 -16.703187540601107 -10.112041972553506 -16.50134832052569 -10.112038022986315 -16.50135074082358 -10.444948146834886 -16.29256691760174 -10.463674530228108 -16.28543839987292 -10.482881881437576 -16.28417786049783 -10.504256426401296 -16.2879928084128 -10.52913315244175 -16.297223550609843 -10.570549564772941 -16.32122310038922 -10.622091653210832 -16.36152425694161 -10.818508123772114 -16.535030247882126 -11.04500856598183 -16.741436765411986 -11.11511984799394 -16.79892582032349 -11.298225575990122 -16.93944592591336 -11.54334890422906 -17.112211298754865 -11.789834127999598 -17.27208386195065 -12.046630068077132 -17.42566423719337 -12.130523177620272 -17.4657485217845 -12.207997235081333 -17.49175773016384 -12.278478662475848 -17.503923180933622 -12.310919543831979 -17.504901811015557 -12.341401212889549 -17.502520309080875 -12.383314596304789 -17.4927355101209 -12.4086103069741 -17.48214432880178 A22.91831180523293 22.91831180523293 0 0 1 -12.760730747704475 -17.22895903910302 L-12.792035821288161 -17.203569386330287 -12.809925437778585 -17.182784590882033 -12.832183282357166 -17.14594626363017 -12.84386757904642 -17.117692398215368 -12.852961630181497 -17.08653687328074 -12.863171557805938 -17.015745721447303 -12.862376131071736 -16.934026226855682 -12.850178107570104 -16.841852413206396 -12.783468800490908 -16.550166015085036 -12.707589080494158 -16.266341297885816 -12.619026721006662 -15.979827723020668 -12.541966940633145 -15.7622607265603 -12.50895717798307 -15.677815839978663 -12.382645400356749 -15.398617996804905 -12.27832742443511 -15.158198532743418 -12.255926128134606 -15.096725351403444 -12.245899575185161 -15.049919733835123 -12.244807948779332 -15.023408105220682 -12.247784815346298 -15.00190082121171 -12.254919057473677 -14.984023072772157 -12.26748545142288 -14.9684160569423 -12.568925552863703 -14.716317463841614 -12.568922030540243 -14.71632047219005 -12.865072492636797 -14.458028507158232 -12.882453177318359 -14.448058301543497 -12.901226862358863 -14.443808589788567 -12.92293504054129 -14.44423285385728 -12.948949499021145 -14.44945837297025 -12.993610363320885 -14.466683494159954 -13.050822372986689 -14.498425517567417 -13.271962947734972 -14.639069056345424 -13.52796388679575 -14.80750189162406 -13.606205252134039 -14.853315339977133 -13.809038832317402 -14.963461363282564 -14.078170744304812 -15.095753970974753 -14.346630904850098 -15.215099453503422 -14.62429052461862 -15.326617263964351 -14.713421334387183 -15.353084270784162 -14.794010294239012 -15.36665364991513 -14.865527074088224 -15.367643599408797 -14.897721645835643 -15.363535309010098 -14.92745548598454 -15.356414743723553 -14.967322166307838 -15.34019371416313 -14.990649619019182 -15.32577580689474 A22.91831180523293 22.91831180523293 0 0 1 -15.298827967463714 -15.020623875473683 L-15.325775806894733 -14.990649619019187 -15.340193714163126 -14.967322166307842 -15.356414743723548 -14.927455485984545 -15.363535309010093 -14.897721645835649 -15.36764359940879 -14.865527074088227 -15.366653649915126 -14.794010294239017 -15.353084270784159 -14.713421334387188 -15.326617263964344 -14.624290524618624 -15.215099453503417 -14.346630904850104 -15.09575397097475 -14.078170744304817 -14.96346136328256 -13.809038832317405 -14.853315339977128 -13.606205252134044 -14.807501891624057 -13.527963886795755 -14.639069056345418 -13.271962947734977 -14.498425517567412 -13.050822372986694 -14.466683494159948 -12.99361036332089 -14.449458372970247 -12.948949499021149 -14.444232853857276 -12.922935040541295 -14.443808589788564 -12.901226862358866 -14.448058301543494 -12.882453177318364 -14.458028507158227 -12.8650724926368 -14.716320472190047 -12.568922030540248 -14.71631746384161 -12.568925552863709 -14.968416056942294 -12.267485451422884 -14.984023072772153 -12.254919057473682 -15.001900821211706 -12.247784815346302 -15.023408105220678 -12.244807948779338 -15.04991973383512 -12.245899575185165 -15.096725351403439 -12.255926128134611 -15.158198532743413 -12.278327424435115 -15.3986179968049 -12.382645400356754 -15.67781583997866 -12.508957177983076 -15.762260726560294 -12.54196694063315 -15.979827723020664 -12.619026721006666 -16.266341297885813 -12.707589080494163 -16.55016601508503 -12.783468800490914 -16.84185241320639 -12.850178107570107 -16.93402622685568 -12.862376131071741 -17.0157457214473 -12.863171557805943 -17.086536873280732 -12.852961630181504 -17.117692398215365 -12.843867579046425 -17.145946263630165 -12.832183282357171 -17.18278459088203 -12.809925437778592 -17.20356938633028 -12.792035821288167 A22.91831180523293 22.91831180523293 0 0 1 -17.460217268764968 -12.442431101437599 L-17.482144328801773 -12.408610306974102 -17.4927355101209 -12.383314596304793 -17.50252030908087 -12.34140121288955 -17.504901811015554 -12.310919543831982 -17.50392318093362 -12.27847866247585 -17.491757730163837 -12.207997235081335 -17.465748521784498 -12.130523177620274 -17.425664237193367 -12.046630068077135 -17.272083861950648 -11.7898341279996 -17.112211298754865 -11.543348904229061 -16.939445925913358 -11.298225575990124 -16.798925820323486 -11.115119847993943 -16.741436765411983 -11.045008565981831 -16.535030247882123 -10.818508123772116 -16.36152425694161 -10.622091653210834 -16.32122310038921 -10.570549564772943 -16.297223550609843 -10.529133152441752 -16.2879928084128 -10.5042564264013 -16.284177860497827 -10.482881881437578 -16.285438399872916 -10.46367453022811 -16.292566917601736 -10.444948146834887 -16.50135074082358 -10.112038022986319 -16.50134832052569 -10.11204197255351 -16.703187540601103 -9.77487619042349 -16.71663659105281 -9.76002303446432 -16.733178193391986 -9.750179930682858 -16.753955002516616 -9.74387523381475 -16.78031099698211 -9.740806088048426 -16.82810885817554 -9.743387185747775 -16.8923295374473 -9.75589616068076 -17.14610796571034 -9.82131991896733 -17.441627935493628 -9.902400423771418 -17.530197029954454 -9.921793690808931 -17.757140221175515 -9.963869760710985 -18.053980543821183 -10.006521172781587 -18.346181111176655 -10.037066719709747 -18.644712000477455 -10.057324918871423 -18.737659192808067 -10.054953603233345 -18.818497016971182 -10.042955491524717 -18.886819427688337 -10.021797089085092 -18.91616875338703 -10.007941202934003 -18.942246940132016 -9.99198088100449 -18.975149832436117 -9.964234283410825 -18.992880179976552 -9.943313459428596 A22.91831180523293 22.91831180523293 0 0 1 -19.19167807377036 -9.557864379622787 L-19.208044437423112 -9.521029827354763 -19.214548102758773 -9.494388723075817 -19.217655736894013 -9.45146068317086 -19.215239534995455 -9.420981745059676 -19.20919808155339 -9.389093356258936 -19.18615668328026 -9.321382767976012 -19.148348078682456 -9.248931281322067 -19.09563352443876 -9.17234159878657 -18.90377224295677 -8.942732506701596 -18.70730919218637 -8.724291503952594 -18.4983251110503 -8.509212509321058 -18.330890994535103 -8.350343304228392 -18.263141904392327 -8.2900884779916 -18.023844118096786 -8.098665725232024 -17.821747968324093 -7.931809784231851 -17.77388002685295 -7.8872067542976 -17.743696997049415 -7.850054603459744 -17.730688323276265 -7.826928157414929 -17.723576628193797 -7.8064135579049685 -17.721816956526144 -7.787245489258856 -17.725928258604362 -7.76763451286242 -17.88006298937472 -7.406162079376341 -17.88006121672315 -7.406166358935812 -18.026671112309074 -7.041577036661716 -18.037631037125667 -7.024802852687092 -18.052429184216443 -7.012493257134037 -18.07196392446181 -7.0030159725257635 -18.09751531272408 -6.995861627141967 -18.14512847556803 -6.990933714399689 -18.210515326511686 -6.993242355487397 -18.471403851830136 -7.018160946080878 -18.775969265792334 -7.052013706943692 -18.866481703082762 -7.057312951771612 -19.09721299451538 -7.0633692587187475 -19.397070871041475 -7.059059504055358 -19.69045234082683 -7.043518745174696 -19.988476900045264 -7.0168270123223815 -20.07990880270798 -6.999944747205552 -20.157874460926337 -6.975448530383808 -20.222045806026273 -6.943862643217774 -20.248866254685495 -6.9255860999527625 -20.27212663125447 -6.905742748878167 -20.300283910203834 -6.87319061158785 -20.31452322983636 -6.849753720232495 A22.91831180523293 22.91831180523293 0 0 1 -20.450576071071705 -6.4379513160484105 L-20.460978744150424 -6.399009994899569 -20.46323475167763 -6.371679489415089 -20.459588700722087 -6.328793823832875 -20.452434289899937 -6.299068109278167 -20.441478773731923 -6.268517410996585 -20.408128783650945 -6.205244921227341 -20.359451756159444 -6.13960000143463 -20.29540493953823 -6.072199638077383 -20.06998701331814 -5.875431131860988 -19.841771047306572 -5.690413092585327 -19.601714139531918 -5.51067439021528 -19.41148879572197 -5.379953595112176 -19.33514787779358 -5.331038898446958 -19.068851128414774 -5.179407298606153 -18.84314109773597 -5.046220434197633 -18.788885038929696 -5.009654737392974 -18.753261735467493 -4.977681657303 -18.736795446839842 -4.956874941107719 -18.726562118125166 -4.9377254245755084 -18.721825564371237 -4.919068619957992 -18.722818416897066 -4.89905593788232 -18.81850874660054 -4.517921845729386 -18.818507665243846 -4.5179263499041795 -18.906278214140603 -4.134890886602983 -18.914479143599195 -4.1166087106926845 -18.92716945594796 -4.102135726463758 -18.944981117177136 -4.089719216315682 -18.969098739256975 -4.078655835041673 -19.015354809663197 -4.066340253424287 -19.080297791002007 -4.058391714261199 -19.341872472043146 -4.042191558761116 -19.64798391889785 -4.02798300835934 -19.738210982418227 -4.019057745982821 -19.967049003914074 -3.9889451635982702 -20.262540938229293 -3.9377803626639536 -20.549879284981138 -3.876535963034935 -20.840059160382438 -3.803551537216239 -20.927724416488616 -3.7725740200168563 -21.000898135503697 -3.7361828762384315 -21.05933830349757 -3.694947253715565 -21.082969466659367 -3.6727000824881864 -21.102839285384434 -3.6494623114282714 -21.12555762532268 -3.6129061760957404 -21.135955297740352 -3.5875303114150094 A22.91831180523293 22.91831180523293 0 0 1 -21.205913013932523 -3.1595145247374905 L-21.21009584810152 -3.1194252992733498 -21.208048647427695 -3.0920783603331126 -21.19773868925644 -3.0502910564896366 -21.18602223484927 -3.0220505112377336 -21.170422417122637 -2.9935897630589583 -21.127585022671877 -2.936313350490865 -21.069238162253313 -2.879091393347683 -20.995436128439 -2.8225399698035245 -20.74201209494355 -2.663457143115987 -20.48766264817939 -2.5164178254803025 -20.222443911538754 -2.3764451787426477 -20.014111319720378 -2.2770915734419885 -19.93105834076675 -2.240721448518814 -19.644319738062627 -2.1326146748212884 -19.40055355652167 -2.036376389628021 -19.341245344613608 -2.008748394762872 -19.301058931450942 -1.982741668765166 -19.28154048264329 -1.9647670128256791 -19.268437498811828 -1.9474541039218423 -19.26084069264477 -1.92976795578099 -19.258690648293936 -1.9098463466770697 -19.293580363435222 -1.5184353821176184 -19.293579999999995 -1.5184400000000025 -19.320349999999998 -1.1263900000000024 -19.32559 -1.1070500000000023 -19.335859999999997 -1.0907700000000022 -19.35151 -1.075720000000002 -19.3736 -1.0610200000000025 -19.41736 -1.0416200000000024 -19.480259999999998 -1.0236100000000021 -19.73608 -0.9666900000000024 -20.036200000000004 -0.9047700000000025 -20.12392 -0.8818400000000024 -20.34523 -0.8163000000000025 -20.62908 -0.7195400000000027 -20.903300000000005 -0.6141000000000028 -21.17849 -0.4966200000000027 -21.26023 -0.45231000000000265 -21.32681 -0.4049200000000026 -21.378080000000004 -0.35505000000000253 -21.39794 -0.32938000000000267 -21.41393 -0.3033200000000025 -21.43065 -0.26366000000000267 -21.43695 -0.2369700000000028 A22.91831180523293 22.91831180523293 0 0 1 -21.43909 0.19671999999999734 L-21.43695 0.23696999999999746 -21.43065 0.26365999999999734 -21.41393 0.30331999999999715 -21.39794 0.32937999999999734 -21.378080000000004 0.3550499999999972 -21.32681 0.4049199999999973 -21.26023 0.4523099999999973 -21.17849 0.4966199999999974 -20.903300000000005 0.6140999999999974 -20.62908 0.7195399999999974 -20.34523 0.8162999999999974 -20.12392 0.8818399999999975 -20.036200000000004 0.9047699999999976 -19.73608 0.9666899999999975 -19.480259999999998 1.0236099999999972 -19.41736 1.0416199999999975 -19.3736 1.0610199999999976 -19.35151 1.0757199999999973 -19.335859999999997 1.0907699999999974 -19.325589999999995 1.1070499999999974 -19.320349999999998 1.1263899999999976 -19.293579999999995 1.5184399999999976 -19.293580363435222 1.5184353821176135 -19.258690648293936 1.9098463466770648 -19.260840692644773 1.929767955780985 -19.268437498811828 1.9474541039218374 -19.28154048264329 1.9647670128256745 -19.301058931450942 1.9827416687651611 -19.341245344613608 2.0087483947628675 -19.40055355652167 2.0363763896280167 -19.644319738062627 2.1326146748212835 -19.93105834076675 2.2407214485188085 -20.014111319720378 2.277091573441984 -20.222443911538754 2.376445178742643 -20.48766264817939 2.516417825480297 -20.74201209494355 2.6634571431159815 -20.995436128439 2.822539969803519 -21.069238162253313 2.879091393347678 -21.127585022671877 2.9363133504908596 -21.170422417122637 2.993589763058953 -21.18602223484927 3.0220505112377283 -21.19773868925644 3.0502910564896313 -21.208048647427695 3.0920783603331072 -21.21009584810152 3.1194252992733444 A22.91831180523293 22.91831180523293 0 0 1 -21.144365438007096 3.548110625461235 L-21.135955297740356 3.587530311415004 -21.12555762532268 3.612906176095735 -21.102839285384437 3.649462311428266 -21.082969466659367 3.672700082488181 -21.059338303497572 3.6949472537155597 -21.000898135503697 3.736182876238426 -20.92772441648862 3.772574020016851 -20.84005916038244 3.8035515372162334 -20.54987928498114 3.8765359630349296 -20.262540938229296 3.9377803626639483 -19.967049003914074 3.988945163598265 -19.738210982418227 4.019057745982816 -19.64798391889785 4.027983008359334 -19.341872472043146 4.042191558761111 -19.080297791002007 4.0583917142611945 -19.015354809663197 4.066340253424282 -18.969098739256975 4.078655835041667 -18.94498111717714 4.089719216315677 -18.927169455947965 4.102135726463753 -18.9144791435992 4.116608710692679 -18.906278214140606 4.134890886602979 -18.818507665243846 4.517926349904175 -18.81850874660054 4.517921845729382 -18.72281841689707 4.8990559378823155 -18.72182556437124 4.9190686199579865 -18.72656211812517 4.937725424575503 -18.736795446839846 4.9568749411077135 -18.753261735467493 4.977681657302995 -18.788885038929696 5.009654737392968 -18.84314109773597 5.046220434197629 -19.068851128414774 5.179407298606147 -19.33514787779358 5.331038898446953 -19.41148879572197 5.379953595112171 -19.601714139531918 5.510674390215275 -19.841771047306576 5.690413092585322 -20.069987013318144 5.875431131860982 -20.295404939538233 6.072199638077379 -20.359451756159448 6.139600001434625 -20.408128783650945 6.205244921227336 -20.441478773731927 6.26851741099658 -20.452434289899937 6.299068109278162 -20.45958870072209 6.32879382383287 -20.463234751677636 6.371679489415084 -20.460978744150427 6.399009994899564 A22.91831180523293 22.91831180523293 0 0 1 -20.328996424804828 6.812134991819572 L-20.314523229836364 6.849753720232489 -20.300283910203838 6.8731906115878445 -20.272126631254473 6.905742748878162 -20.2488662546855 6.925586099952756 -20.222045806026276 6.943862643217769 -20.15787446092634 6.975448530383803 -20.079908802707983 6.9999447472055465 -19.988476900045264 7.016827012322378 -19.69045234082683 7.043518745174691 -19.39707087104148 7.059059504055353 -19.097212994515377 7.063369258718744 -18.866481703082762 7.057312951771608 -18.775969265792337 7.052013706943686 -18.47140385183014 7.018160946080873 -18.21051532651169 6.993242355487393 -18.145128475568033 6.990933714399684 -18.097515312724084 6.995861627141964 -18.071963924461812 7.003015972525759 -18.052429184216447 7.012493257134032 -18.037631037125667 7.0248028526870865 -18.026671112309074 7.041577036661711 -17.880061216723153 7.406166358935808 -17.880062989374725 7.406162079376337 -17.725928258604362 7.767634512862416 -17.721816956526144 7.7872454892588525 -17.7235766281938 7.806413557904964 -17.73068832327627 7.826928157414924 -17.74369699704942 7.85005460345974 -17.773880026852954 7.887206754297596 -17.821747968324097 7.931809784231847 -18.02384411809679 8.09866572523202 -18.26314190439233 8.290088477991597 -18.330890994535103 8.350343304228389 -18.498325111050303 8.509212509321053 -18.707309192186372 8.724291503952589 -18.90377224295677 8.94273250670159 -19.09563352443876 9.172341598786566 -19.14834807868246 9.248931281322061 -19.186156683280263 9.321382767976006 -19.209198081553392 9.389093356258929 -19.215239534995458 9.42098174505967 -19.217655736894017 9.451460683170856 -19.214548102758776 9.494388723075811 -19.208044437423116 9.521029827354758 A22.91831180523293 22.91831180523293 0 0 1 -19.01306005155283 9.908421986499452 L-18.992880179976552 9.943313459428591 -18.975149832436117 9.96423428341082 -18.94224694013202 9.991980881004485 -18.916168753387034 10.007941202933997 -18.88681942768834 10.021797089085089 -18.818497016971186 10.042955491524712 -18.73765919280807 10.054953603233342 -18.644712000477455 10.057324918871418 -18.34618111117666 10.037066719709744 -18.053980543821183 10.006521172781584 -17.75714022117552 9.963869760710981 -17.530197029954458 9.921793690808926 -17.44162793549363 9.902400423771414 -17.146107965710343 9.821319918967326 -16.8923295374473 9.755896160680756 -16.82810885817554 9.743387185747771 -16.78031099698211 9.740806088048423 -16.753955002516616 9.743875233814745 -16.73317819339199 9.750179930682854 -16.716636591052815 9.760023034464316 -16.703187540601107 9.774876190423486 -16.50134832052569 10.112041972553504 -16.50135074082358 10.112038022986313 -16.29256691760174 10.444948146834884 -16.28543839987292 10.463674530228106 -16.28417786049783 10.482881881437574 -16.2879928084128 10.504256426401295 -16.297223550609843 10.529133152441748 -16.32122310038922 10.57054956477294 -16.36152425694161 10.62209165321083 -16.535030247882126 10.818508123772112 -16.741436765411986 11.045008565981828 -16.79892582032349 11.115119847993938 -16.93944592591336 11.29822557599012 -17.112211298754865 11.543348904229058 -17.27208386195065 11.789834127999596 -17.425664237193374 12.04663006807713 -17.4657485217845 12.13052317762027 -17.49175773016384 12.20799723508133 -17.503923180933622 12.278478662475846 -17.504901811015557 12.310919543831977 -17.502520309080875 12.341401212889545 -17.4927355101209 12.383314596304787 -17.48214432880178 12.408610306974097 A22.91831180523293 22.91831180523293 0 0 1 -17.22895903910302 12.760730747704475 L-17.203569386330287 12.792035821288161 -17.182784590882033 12.809925437778585 -17.14594626363017 12.832183282357166 -17.117692398215368 12.84386757904642 -17.08653687328074 12.852961630181497 -17.015745721447303 12.863171557805938 -16.934026226855682 12.862376131071736 -16.841852413206396 12.850178107570104 -16.550166015085036 12.783468800490908 -16.266341297885816 12.707589080494158 -15.979827723020668 12.619026721006662 -15.7622607265603 12.541966940633145 -15.677815839978663 12.50895717798307 -15.398617996804905 12.382645400356749 -15.158198532743418 12.27832742443511 -15.096725351403444 12.255926128134606 -15.049919733835123 12.245899575185161 -15.023408105220682 12.244807948779332 -15.00190082121171 12.247784815346298 -14.984023072772157 12.254919057473677 -14.9684160569423 12.26748545142288 -14.716317463841614 12.568925552863703 -14.71632047219005 12.568922030540243 -14.458028507158232 12.865072492636797 -14.448058301543497 12.882453177318359 -14.443808589788567 12.901226862358863 -14.44423285385728 12.92293504054129 -14.44945837297025 12.948949499021145 -14.466683494159954 12.993610363320885 -14.498425517567417 13.050822372986689 -14.639069056345424 13.271962947734972 -14.80750189162406 13.52796388679575 -14.853315339977133 13.606205252134039 -14.963461363282564 13.809038832317402 -15.095753970974753 14.078170744304812 -15.215099453503422 14.346630904850098 -15.326617263964351 14.62429052461862 -15.353084270784162 14.713421334387183 -15.36665364991513 14.794010294239012 -15.367643599408797 14.865527074088224 -15.363535309010098 14.897721645835643 -15.356414743723553 14.92745548598454 -15.34019371416313 14.967322166307838 -15.32577580689474 14.990649619019182 A22.91831180523293 22.91831180523293 0 0 1 -15.02062387547369 15.298827967463708 L-14.990649619019194 15.325775806894729 -14.967322166307849 15.340193714163123 -14.927455485984552 15.35641474372354 -14.897721645835656 15.36353530901009 -14.865527074088234 15.367643599408787 -14.794010294239024 15.366653649915122 -14.713421334387196 15.353084270784151 -14.62429052461863 15.32661726396434 -14.34663090485011 15.215099453503413 -14.078170744304824 15.095753970974744 -13.809038832317412 14.963461363282555 -13.606205252134052 14.853315339977124 -13.52796388679576 14.80750189162405 -13.271962947734982 14.639069056345415 -13.050822372986701 14.498425517567409 -12.993610363320895 14.466683494159945 -12.948949499021154 14.449458372970241 -12.922935040541303 14.444232853857272 -12.901226862358874 14.443808589788558 -12.88245317731837 14.448058301543488 -12.865072492636807 14.458028507158224 -12.568922030540255 14.716320472190041 -12.568925552863716 14.716317463841605 -12.26748545142289 14.96841605694229 -12.254919057473687 14.984023072772148 -12.247784815346309 15.0019008212117 -12.244807948779345 15.023408105220675 -12.245899575185174 15.049919733835114 -12.255926128134616 15.096725351403435 -12.278327424435123 15.158198532743409 -12.38264540035676 15.398617996804896 -12.508957177983081 15.677815839978656 -12.541966940633158 15.76226072656029 -12.619026721006673 15.979827723020659 -12.70758908049417 16.266341297885806 -12.78346880049092 16.550166015085026 -12.850178107570116 16.841852413206386 -12.862376131071748 16.93402622685567 -12.86317155780595 17.015745721447296 -12.852961630181511 17.08653687328073 -12.843867579046432 17.11769239821536 -12.832183282357178 17.145946263630158 -12.809925437778599 17.18278459088203 -12.792035821288174 17.203569386330276 A22.91831180523293 22.91831180523293 0 0 1 -12.442431101437593 17.46021726876497 L-12.408610306974095 17.482144328801784 -12.383314596304785 17.492735510120905 -12.341401212889544 17.502520309080875 -12.310919543831975 17.504901811015557 -12.278478662475845 17.503923180933626 -12.207997235081328 17.491757730163844 -12.130523177620267 17.4657485217845 -12.046630068077128 17.425664237193374 -11.789834127999592 17.27208386195065 -11.543348904229056 17.11221129875487 -11.298225575990118 16.93944592591336 -11.115119847993936 16.79892582032349 -11.045008565981824 16.741436765411986 -10.818508123772109 16.53503024788213 -10.622091653210827 16.361524256941614 -10.570549564772936 16.32122310038922 -10.529133152441744 16.297223550609846 -10.504256426401293 16.287992808412803 -10.48288188143757 16.28417786049783 -10.463674530228102 16.285438399872923 -10.444948146834882 16.29256691760174 -10.112038022986312 16.501350740823582 -10.112041972553502 16.501348320525693 -9.774876190423484 16.703187540601107 -9.760023034464313 16.71663659105282 -9.750179930682851 16.73317819339199 -9.743875233814743 16.75395500251662 -9.74080608804842 16.780310996982113 -9.743387185747768 16.82810885817554 -9.755896160680752 16.892329537447303 -9.821319918967323 17.146107965710346 -9.902400423771411 17.44162793549363 -9.921793690808924 17.530197029954458 -9.96386976071098 17.75714022117552 -10.006521172781582 18.053980543821186 -10.03706671970974 18.34618111117666 -10.057324918871416 18.644712000477455 -10.054953603233338 18.73765919280807 -10.04295549152471 18.81849701697119 -10.021797089085084 18.886819427688344 -10.007941202933996 18.916168753387034 -9.991980881004483 18.94224694013202 -9.964234283410818 18.97514983243612 -9.94331345942859 18.992880179976556 A22.91831180523293 22.91831180523293 0 0 1 -9.557864379622796 19.191678073770355 L-9.521029827354772 19.20804443742311 -9.494388723075826 19.21454810275877 -9.45146068317087 19.21765573689401 -9.420981745059684 19.21523953499545 -9.389093356258943 19.209198081553385 -9.32138276797602 19.186156683280256 -9.248931281322076 19.148348078682453 -9.172341598786579 19.095633524438753 -8.942732506701605 18.903772242956762 -8.724291503952603 18.707309192186365 -8.509212509321067 18.498325111050292 -8.350343304228401 18.330890994535096 -8.29008847799161 18.263141904392324 -8.098665725232033 18.023844118096783 -7.931809784231859 17.821747968324086 -7.887206754297609 17.773880026852947 -7.8500546034597525 17.743696997049412 -7.826928157414938 17.73068832327626 -7.806413557904977 17.723576628193793 -7.787245489258864 17.72181695652614 -7.767634512862428 17.72592825860436 -7.406162079376349 17.880062989374718 -7.40616635893582 17.880061216723146 -7.041577036661725 18.02667111230907 -7.0248028526871 18.037631037125664 -7.012493257134046 18.05242918421644 -7.003015972525772 18.071963924461805 -6.995861627141976 18.097515312724077 -6.990933714399698 18.145128475568026 -6.993242355487407 18.210515326511686 -7.0181609460808865 18.471403851830132 -7.0520137069437006 18.77596926579233 -7.057312951771621 18.866481703082755 -7.063369258718757 19.097212994515374 -7.059059504055367 19.39707087104147 -7.043518745174705 19.690452340826823 -7.016827012322392 19.988476900045256 -6.999944747205561 20.079908802707976 -6.975448530383817 20.157874460926333 -6.943862643217784 20.22204580602627 -6.925586099952771 20.248866254685492 -6.905742748878177 20.272126631254466 -6.87319061158786 20.30028391020383 -6.8497537202325045 20.314523229836357 A22.91831180523293 22.91831180523293 0 0 1 -6.437951316048403 20.450576071071705 L-6.399009994899561 20.460978744150427 -6.371679489415081 20.463234751677636 -6.328793823832866 20.45958870072209 -6.299068109278158 20.452434289899937 -6.268517410996577 20.441478773731927 -6.205244921227332 20.408128783650945 -6.139600001434622 20.359451756159448 -6.072199638077375 20.295404939538233 -5.87543113186098 20.069987013318144 -5.69041309258532 19.841771047306576 -5.510674390215272 19.601714139531918 -5.379953595112168 19.41148879572197 -5.33103889844695 19.33514787779358 -5.1794072986061455 19.068851128414774 -5.046220434197626 18.84314109773597 -5.009654737392966 18.788885038929696 -4.977681657302992 18.753261735467493 -4.956874941107711 18.736795446839846 -4.9377254245755005 18.72656211812517 -4.919068619957984 18.72182556437124 -4.899055937882313 18.72281841689707 -4.517921845729379 18.81850874660054 -4.517926349904172 18.818507665243846 -4.134890886602976 18.906278214140606 -4.1166087106926765 18.9144791435992 -4.10213572646375 18.927169455947965 -4.089719216315674 18.94498111717714 -4.078655835041665 18.969098739256975 -4.066340253424279 19.015354809663197 -4.058391714261192 19.080297791002007 -4.0421915587611075 19.341872472043146 -4.027983008359332 19.64798391889785 -4.019057745982813 19.738210982418227 -3.9889451635982622 19.967049003914074 -3.9377803626639456 20.262540938229296 -3.876535963034927 20.54987928498114 -3.8035515372162307 20.84005916038244 -3.7725740200168483 20.92772441648862 -3.7361828762384226 21.000898135503697 -3.694947253715557 21.059338303497572 -3.6727000824881784 21.082969466659367 -3.6494623114282625 21.102839285384437 -3.6129061760957324 21.12555762532268 -3.5875303114150014 21.135955297740356 A22.91831180523293 22.91831180523293 0 0 1 -3.159514524737501 21.205913013932523 L-3.1194252992733604 21.21009584810152 -3.092078360333123 21.208048647427695 -3.0502910564896473 21.19773868925644 -3.0220505112377443 21.18602223484927 -2.993589763058969 21.170422417122637 -2.9363133504908756 21.127585022671877 -2.879091393347694 21.069238162253313 -2.822539969803535 20.995436128439 -2.6634571431159975 20.74201209494355 -2.516417825480313 20.48766264817939 -2.3764451787426584 20.222443911538754 -2.277091573441999 20.014111319720378 -2.2407214485188236 19.93105834076675 -2.1326146748212986 19.644319738062627 -2.036376389628031 19.40055355652167 -2.0087483947628817 19.341245344613608 -1.9827416687651758 19.301058931450942 -1.9647670128256889 19.28154048264329 -1.947454103921852 19.268437498811828 -1.9297679557809997 19.26084069264477 -1.9098463466770794 19.258690648293936 -1.518435382117628 19.293580363435222 -1.518440000000012 19.293579999999995 -1.1263900000000122 19.320349999999998 -1.107050000000012 19.32559 -1.0907700000000116 19.335859999999997 -1.0757200000000118 19.35151 -1.0610200000000123 19.3736 -1.0416200000000122 19.41736 -1.023610000000012 19.480259999999998 -0.9666900000000124 19.73608 -0.9047700000000125 20.036200000000004 -0.8818400000000126 20.12392 -0.8163000000000127 20.34523 -0.719540000000013 20.62908 -0.6141000000000132 20.903300000000005 -0.49662000000001316 21.17849 -0.4523100000000133 21.26023 -0.40492000000001327 21.32681 -0.3550500000000132 21.378080000000004 -0.32938000000001333 21.39794 -0.30332000000001313 21.41393 -0.26366000000001333 21.43065 -0.23697000000001345 21.43695 A22.91831180523293 22.91831180523293 0 0 1 0.19672000000000556 21.43909 L0.23697000000000568 21.43695 0.26366000000000556 21.43065 0.3033200000000056 21.41393 0.32938000000000556 21.39794 0.3550500000000054 21.378080000000004 0.4049200000000055 21.32681 0.45231000000000554 21.26023 0.4966200000000056 21.17849 0.6141000000000056 20.903300000000005 0.7195400000000056 20.62908 0.8163000000000054 20.34523 0.8818400000000053 20.12392 0.9047700000000054 20.036200000000004 0.9666900000000053 19.73608 1.023610000000005 19.480259999999998 1.041620000000005 19.41736 1.0610200000000052 19.3736 1.0757200000000047 19.35151 1.090770000000005 19.335859999999997 1.107050000000005 19.32559 1.126390000000005 19.320349999999998 1.5184400000000051 19.293579999999995 1.518435382117621 19.293580363435222 1.9098463466770723 19.258690648293936 1.9297679557809926 19.26084069264477 1.947454103921845 19.268437498811828 1.9647670128256818 19.28154048264329 1.9827416687651687 19.301058931450942 2.0087483947628746 19.341245344613608 2.0363763896280243 19.40055355652167 2.1326146748212915 19.644319738062627 2.2407214485188165 19.93105834076675 2.2770915734419916 20.014111319720378 2.376445178742651 20.222443911538754 2.5164178254803056 20.48766264817939 2.6634571431159895 20.74201209494355 2.822539969803527 20.995436128439 2.8790913933476863 21.069238162253313 2.936313350490868 21.127585022671877 2.993589763058961 21.170422417122637 3.0220505112377367 21.18602223484927 3.0502910564896397 21.19773868925644 3.0920783603331152 21.208048647427695 3.119425299273353 21.21009584810152 A22.91831180523293 22.91831180523293 0 0 1 3.5481106254612245 21.1443654380071 L3.5875303114149935 21.135955297740356 3.612906176095724 21.12555762532268 3.649462311428255 21.102839285384437 3.67270008248817 21.08296946665937 3.694947253715549 21.059338303497572 3.7361828762384155 21.0008981355037 3.7725740200168403 20.92772441648862 3.8035515372162227 20.84005916038244 3.876535963034919 20.54987928498114 3.9377803626639376 20.2625409382293 3.988945163598254 19.967049003914077 4.019057745982806 19.73821098241823 4.027983008359325 19.647983918897854 4.0421915587611 19.34187247204315 4.058391714261185 19.08029779100201 4.066340253424272 19.0153548096632 4.0786558350416575 18.969098739256978 4.089719216315667 18.944981117177143 4.102135726463744 18.92716945594797 4.116608710692669 18.914479143599202 4.134890886602969 18.906278214140606 4.517926349904165 18.81850766524385 4.517921845729372 18.818508746600543 4.899055937882306 18.72281841689707 4.919068619957977 18.721825564371244 4.937725424575494 18.726562118125173 4.956874941107704 18.73679544683985 4.977681657302985 18.753261735467497 5.0096547373929585 18.7888850389297 5.046220434197619 18.843141097735973 5.179407298606138 19.068851128414778 5.331038898446943 19.335147877793585 5.379953595112161 19.411488795721972 5.510674390215264 19.60171413953192 5.690413092585311 19.84177104730658 5.875431131860972 20.069987013318144 6.072199638077368 20.29540493953824 6.139600001434614 20.359451756159448 6.205244921227325 20.408128783650948 6.268517410996569 20.441478773731927 6.299068109278151 20.45243428989994 6.328793823832859 20.45958870072209 6.371679489415074 20.463234751677636 6.399009994899553 20.460978744150427 A22.91831180523293 22.91831180523293 0 0 1 6.81213499181958 20.32899642480482 L6.849753720232497 20.31452322983636 6.8731906115878525 20.30028391020383 6.90574274887817 20.27212663125447 6.925586099952764 20.248866254685492 6.943862643217776 20.222045806026273 6.97544853038381 20.157874460926337 6.999944747205554 20.07990880270798 7.016827012322385 19.98847690004526 7.043518745174698 19.690452340826827 7.05905950405536 19.39707087104147 7.063369258718751 19.097212994515377 7.057312951771614 18.86648170308276 7.0520137069436934 18.775969265792334 7.018160946080879 18.471403851830136 6.993242355487399 18.210515326511683 6.9909337143996915 18.14512847556803 6.99586162714197 18.09751531272408 7.003015972525765 18.07196392446181 7.0124932571340395 18.052429184216443 7.024802852687094 18.037631037125664 7.041577036661717 18.02667111230907 7.406166358935814 17.88006121672315 7.406162079376343 17.88006298937472 7.767634512862422 17.72592825860436 7.787245489258858 17.72181695652614 7.806413557904971 17.723576628193797 7.8269281574149305 17.730688323276265 7.850054603459746 17.743696997049415 7.887206754297603 17.77388002685295 7.931809784231853 17.82174796832409 8.098665725232026 18.023844118096786 8.290088477991603 18.263141904392327 8.350343304228394 18.3308909945351 8.50921250932106 18.498325111050296 8.724291503952596 18.707309192186365 8.942732506701597 18.903772242956766 9.172341598786572 19.095633524438757 9.248931281322069 19.148348078682456 9.321382767976013 19.18615668328026 9.389093356258936 19.20919808155339 9.420981745059677 19.21523953499545 9.451460683170863 19.217655736894013 9.494388723075819 19.21454810275877 9.521029827354765 19.208044437423112 A22.91831180523293 22.91831180523293 0 0 1 9.908421986499445 19.013060051552838 L9.943313459428584 18.992880179976556 9.964234283410812 18.975149832436124 9.991980881004476 18.942246940132023 10.00794120293399 18.916168753387037 10.02179708908508 18.886819427688344 10.042955491524705 18.81849701697119 10.054953603233335 18.737659192808074 10.05732491887141 18.64471200047746 10.037066719709735 18.346181111176662 10.006521172781577 18.053980543821183 9.963869760710974 17.757140221175522 9.921793690808919 17.53019702995446 9.902400423771407 17.441627935493635 9.821319918967319 17.146107965710346 9.755896160680749 16.892329537447306 9.743387185747764 16.828108858175543 9.740806088048416 16.780310996982113 9.743875233814737 16.753955002516623 9.750179930682847 16.733178193391993 9.760023034464309 16.71663659105282 9.774876190423479 16.70318754060111 10.112041972553499 16.501348320525693 10.112038022986308 16.501350740823582 10.444948146834877 16.292566917601743 10.463674530228099 16.285438399872923 10.482881881437567 16.284177860497834 10.504256426401287 16.287992808412806 10.52913315244174 16.297223550609846 10.570549564772932 16.321223100389222 10.622091653210823 16.361524256941617 10.818508123772105 16.53503024788213 11.04500856598182 16.74143676541199 11.115119847993931 16.798925820323493 11.298225575990113 16.939445925913365 11.54334890422905 17.112211298754872 11.78983412799959 17.272083861950655 12.046630068077123 17.425664237193377 12.130523177620264 17.465748521784505 12.207997235081322 17.491757730163844 12.278478662475841 17.503923180933626 12.31091954383197 17.50490181101556 12.34140121288954 17.50252030908088 12.38331459630478 17.49273551012091 12.40861030697409 17.482144328801784 A22.91831180523293 22.91831180523293 0 0 1 12.760730747704482 17.228959039103014 L12.792035821288168 17.20356938633028 12.809925437778592 17.18278459088203 12.832183282357173 17.145946263630165 12.843867579046426 17.117692398215365 12.852961630181504 17.086536873280732 12.863171557805945 17.0157457214473 12.862376131071743 16.93402622685568 12.85017810757011 16.84185241320639 12.783468800490915 16.55016601508503 12.707589080494165 16.266341297885813 12.619026721006668 15.979827723020664 12.541966940633152 15.762260726560294 12.508957177983078 15.67781583997866 12.382645400356756 15.3986179968049 12.278327424435117 15.158198532743413 12.255926128134613 15.096725351403439 12.245899575185168 15.04991973383512 12.24480794877934 15.023408105220678 12.247784815346304 15.001900821211706 12.254919057473684 14.984023072772153 12.267485451422885 14.968416056942294 12.56892555286371 14.71631746384161 12.56892203054025 14.716320472190047 12.865072492636802 14.458028507158227 12.882453177318366 14.448058301543494 12.901226862358868 14.443808589788564 12.922935040541297 14.444232853857276 12.948949499021152 14.449458372970247 12.993610363320892 14.466683494159948 13.050822372986696 14.498425517567412 13.271962947734979 14.639069056345418 13.527963886795757 14.807501891624057 13.606205252134046 14.853315339977128 13.809038832317407 14.96346136328256 14.078170744304819 15.09575397097475 14.346630904850105 15.215099453503417 14.624290524618628 15.326617263964344 14.71342133438719 15.353084270784159 14.794010294239019 15.366653649915126 14.86552707408823 15.36764359940879 14.89772164583565 15.363535309010093 14.927455485984547 15.356414743723548 14.967322166307845 15.340193714163126 14.99064961901919 15.325775806894733 A22.91831180523293 22.91831180523293 0 0 1 15.298827967463705 15.02062387547369 L15.325775806894725 14.990649619019194 15.340193714163119 14.967322166307849 15.35641474372354 14.927455485984552 15.363535309010086 14.897721645835656 15.367643599408783 14.865527074088234 15.366653649915119 14.794010294239024 15.353084270784151 14.713421334387196 15.326617263964337 14.62429052461863 15.21509945350341 14.34663090485011 15.095753970974743 14.078170744304824 14.963461363282553 13.809038832317412 14.853315339977122 13.60620525213405 14.807501891624048 13.52796388679576 14.639069056345413 13.271962947734982 14.498425517567407 13.050822372986701 14.466683494159943 12.993610363320895 14.44945837297024 12.948949499021154 14.444232853857269 12.922935040541303 14.443808589788556 12.901226862358874 14.448058301543487 12.88245317731837 14.458028507158222 12.865072492636807 14.71632047219004 12.568922030540255 14.716317463841603 12.568925552863716 14.968416056942289 12.26748545142289 14.984023072772146 12.254919057473687 15.001900821211699 12.247784815346309 15.023408105220671 12.244807948779345 15.049919733835113 12.245899575185174 15.096725351403434 12.255926128134616 15.158198532743407 12.278327424435123 15.398617996804894 12.38264540035676 15.677815839978654 12.508957177983081 15.762260726560289 12.54196694063316 15.979827723020657 12.619026721006673 16.266341297885806 12.70758908049417 16.550166015085022 12.78346880049092 16.841852413206382 12.850178107570116 16.93402622685567 12.862376131071748 17.015745721447292 12.86317155780595 17.086536873280725 12.852961630181511 17.117692398215357 12.843867579046432 17.145946263630158 12.832183282357178 17.182784590882022 12.809925437778599 17.203569386330273 12.792035821288174 A22.91831180523293 22.91831180523293 0 0 1 17.460217268764968 12.442431101437595 L17.48214432880178 12.408610306974097 17.4927355101209 12.383314596304787 17.502520309080875 12.341401212889545 17.504901811015557 12.310919543831977 17.503923180933622 12.278478662475846 17.49175773016384 12.20799723508133 17.4657485217845 12.13052317762027 17.425664237193374 12.04663006807713 17.27208386195065 11.789834127999596 17.112211298754865 11.543348904229058 16.93944592591336 11.29822557599012 16.79892582032349 11.115119847993938 16.741436765411986 11.045008565981828 16.535030247882126 10.818508123772112 16.36152425694161 10.62209165321083 16.32122310038922 10.57054956477294 16.297223550609843 10.529133152441748 16.2879928084128 10.504256426401295 16.28417786049783 10.482881881437574 16.28543839987292 10.463674530228106 16.29256691760174 10.444948146834884 16.50135074082358 10.112038022986313 16.50134832052569 10.112041972553504 16.703187540601107 9.774876190423486 16.716636591052815 9.760023034464316 16.73317819339199 9.750179930682854 16.753955002516616 9.743875233814745 16.78031099698211 9.740806088048423 16.82810885817554 9.743387185747771 16.8923295374473 9.755896160680756 17.146107965710343 9.821319918967326 17.44162793549363 9.902400423771414 17.530197029954458 9.921793690808926 17.75714022117552 9.963869760710981 18.053980543821183 10.006521172781584 18.34618111117666 10.037066719709744 18.644712000477455 10.057324918871418 18.73765919280807 10.054953603233342 18.818497016971186 10.042955491524712 18.88681942768834 10.021797089085089 18.916168753387034 10.007941202933997 18.94224694013202 9.991980881004485 18.975149832436117 9.96423428341082 18.992880179976552 9.943313459428591 A22.91831180523293 22.91831180523293 0 0 1 19.191678073770355 9.557864379622798 L19.20804443742311 9.521029827354774 19.21454810275877 9.494388723075826 19.21765573689401 9.45146068317087 19.21523953499545 9.420981745059684 19.209198081553385 9.389093356258945 19.186156683280256 9.321382767976022 19.148348078682453 9.248931281322077 19.095633524438753 9.172341598786579 18.903772242956762 8.942732506701605 18.707309192186365 8.724291503952603 18.498325111050292 8.509212509321067 18.330890994535096 8.350343304228401 18.263141904392324 8.290088477991612 18.023844118096783 8.098665725232035 17.821747968324086 7.931809784231861 17.773880026852947 7.88720675429761 17.743696997049412 7.850054603459753 17.73068832327626 7.8269281574149385 17.723576628193793 7.806413557904978 17.72181695652614 7.787245489258866 17.72592825860436 7.767634512862429 17.880062989374718 7.40616207937635 17.880061216723146 7.406166358935821 18.02667111230907 7.041577036661726 18.037631037125664 7.024802852687102 18.05242918421644 7.012493257134047 18.071963924461805 7.003015972525773 18.097515312724077 6.995861627141977 18.145128475568026 6.990933714399699 18.210515326511686 6.993242355487407 18.471403851830132 7.018160946080887 18.77596926579233 7.052013706943701 18.866481703082755 7.057312951771622 19.097212994515374 7.063369258718758 19.39707087104147 7.059059504055368 19.690452340826823 7.043518745174706 19.988476900045256 7.016827012322392 20.079908802707976 6.9999447472055625 20.157874460926333 6.975448530383819 20.22204580602627 6.943862643217786 20.248866254685492 6.925586099952773 20.272126631254466 6.905742748878177 20.30028391020383 6.873190611587861 20.314523229836357 6.849753720232506 A22.91831180523293 22.91831180523293 0 0 1 20.450576071071705 6.437951316048404 L20.460978744150427 6.399009994899562 20.463234751677636 6.371679489415082 20.45958870072209 6.328793823832868 20.452434289899937 6.29906810927816 20.441478773731927 6.268517410996578 20.408128783650945 6.205244921227334 20.359451756159448 6.139600001434623 20.295404939538233 6.072199638077377 20.069987013318144 5.875431131860981 19.841771047306576 5.69041309258532 19.601714139531918 5.510674390215273 19.41148879572197 5.379953595112169 19.33514787779358 5.331038898446951 19.068851128414774 5.179407298606147 18.84314109773597 5.046220434197627 18.788885038929696 5.0096547373929665 18.753261735467493 4.977681657302993 18.736795446839846 4.956874941107712 18.72656211812517 4.937725424575502 18.72182556437124 4.919068619957985 18.72281841689707 4.899055937882314 18.81850874660054 4.51792184572938 18.818507665243846 4.517926349904173 18.906278214140606 4.134890886602977 18.9144791435992 4.116608710692677 18.927169455947965 4.102135726463752 18.94498111717714 4.089719216315675 18.969098739256975 4.0786558350416655 19.015354809663197 4.06634025342428 19.080297791002007 4.058391714261193 19.341872472043146 4.042191558761109 19.64798391889785 4.027983008359333 19.738210982418227 4.019057745982814 19.967049003914074 3.988945163598263 20.262540938229296 3.9377803626639465 20.54987928498114 3.876535963034928 20.84005916038244 3.8035515372162316 20.92772441648862 3.772574020016849 21.000898135503697 3.7361828762384244 21.059338303497572 3.694947253715558 21.082969466659367 3.6727000824881793 21.102839285384437 3.6494623114282643 21.12555762532268 3.6129061760957333 21.135955297740356 3.5875303114150023 A22.91831180523293 22.91831180523293 0 0 1 21.205913013932523 3.159514524737502 L21.21009584810152 3.1194252992733618 21.208048647427695 3.092078360333124 21.19773868925644 3.0502910564896486 21.18602223484927 3.0220505112377456 21.170422417122637 2.99358976305897 21.127585022671877 2.936313350490877 21.069238162253313 2.879091393347695 20.995436128439 2.822539969803536 20.74201209494355 2.6634571431159983 20.48766264817939 2.516417825480314 20.222443911538754 2.3764451787426593 20.014111319720378 2.277091573442 19.93105834076675 2.2407214485188245 19.644319738062627 2.1326146748212995 19.40055355652167 2.0363763896280322 19.341245344613608 2.0087483947628826 19.301058931450942 1.9827416687651769 19.28154048264329 1.96476701282569 19.268437498811828 1.947454103921853 19.26084069264477 1.9297679557810008 19.258690648293936 1.9098463466770808 19.293580363435222 1.518435382117629 19.293579999999995 1.5184400000000131 19.320349999999998 1.126390000000013 19.32559 1.1070500000000132 19.335859999999997 1.090770000000013 19.35151 1.0757200000000129 19.3736 1.0610200000000134 19.41736 1.041620000000013 19.480259999999998 1.023610000000013 19.73608 0.9666900000000135 20.036200000000004 0.9047700000000136 20.12392 0.8818400000000137 20.34523 0.8163000000000138 20.62908 0.7195400000000141 20.903300000000005 0.6141000000000143 21.17849 0.4966200000000143 21.26023 0.4523100000000144 21.32681 0.4049200000000144 21.378080000000004 0.3550500000000143 21.39794 0.32938000000001444 21.41393 0.30332000000001447 21.43065 0.26366000000001444 21.43695 0.23697000000001456 A22.91831180523293 22.91831180523293 0 0 1 21.43909 -0.19672 Z" id="SvgjsPath1149">
        </path>
        <circle cy="0" cx="0" r="22.91831180523293" id="SvgjsCircle1150">
        </circle>
      </g>
      <g fill="none" stroke-width="0.04" stroke="green" id="SvgjsG1147">
      </g>
      <g fill="none" stroke-width="0.04" stroke="red" id="SvgjsG1148">
      </g>
    </g>
  </g>
</svg>
