0
SECTION
2
HEADER
9
$INSUNITS
70
4
0
ENDSEC
0
SECTION
2
ENTITIES
0
CIRCLE
8
0
10
44.563384065730695
20
44.563384065730695
40
2.55
0
ARC
8
0
10
88.72402806978347
20
43.83304359286654
40
0.15
50
0
51
82.5685920288323
0
ARC
8
0
10
88.83230314421931
20
44.97782651363166
40
1
50
-114.37698324006256
51
-95.09884377611891
0
ARC
8
0
10
88.6677681314614
20
44.563384065730695
40
0.555
50
180
51
-116.56505117707799
0
ARC
8
0
10
88.6677681314614
20
44.563384065730695
40
0.555
50
116.56505117707799
51
180
0
ARC
8
0
10
88.83230314421931
20
44.14894161782973
40
1
50
95.09884377611891
51
114.37698324006256
0
ARC
8
0
10
88.72402806978346
20
45.29372453859485
40
0.15
50
-82.5685920288269
51
0
0
ARC
8
0
10
44.57066073045891
20
44.563547381118525
40
44.3093840657307
50
0.9442235325791443
51
1.6272050388502244
0
ARC
8
0
10
88.71232784119185
20
45.815038798536214
40
0.15
50
2.5714285714260905
51
85.14002060025514
0
ARC
8
0
10
88.76913339830419
20
46.96352674192124
40
1
50
-111.80555466863291
51
-92.52741520468882
0
ARC
8
0
10
88.62335795147091
20
46.54211977455365
40
0.555
50
-177.428571428572
51
-113.99362260565054
0
ARC
8
0
10
88.62335795147091
20
46.542119774553655
40
0.555
50
119.13647974850743
51
-177.42857142857127
0
ARC
8
0
10
88.80632117853447
20
46.13547647805428
40
1
50
97.67027234754764
51
116.94841181149152
0
ARC
8
0
10
88.64679463836552
20
47.2742489357478
40
0.15
50
-79.99716345739962
51
2.5714285714288017
0
ARC
8
0
10
44.5706460762246
20
44.563873682998775
40
44.3093840657307
50
3.51565210400845
51
4.198633610279532
0
ARC
8
0
10
88.61171751529398
20
47.79451333814751
40
0.15
50
5.142857142855845
51
87.71144917168417
0
ARC
8
0
10
88.61693915625068
20
48.94439340227826
40
1
50
-109.23412609720658
51
-89.95598663326267
0
ARC
8
0
10
88.49021684769171
20
48.51687057299439
40
0.555
50
-174.85714285714366
51
-111.42219403422303
0
ARC
8
0
10
88.49021684769171
20
48.51687057299441
40
0.555
50
121.70790831993722
51
-174.8571428571422
0
ARC
8
0
10
88.69123982547083
20
48.1188453533786
40
1
50
100.24170091897466
51
119.51984038291901
0
ARC
8
0
10
88.48078308479049
20
49.24931401182156
40
0.15
50
-77.42573488597064
51
5.142857142855845
0
ARC
8
0
10
44.57061679726757
20
44.56419899885569
40
44.3093840657307
50
6.087080675436872
51
6.770062181707962
0
ARC
8
0
10
88.42239970789672
20
49.76748081341135
40
0.15
50
7.714285714281511
51
90.28287774311315
0
ARC
8
0
10
88.37602691700774
20
50.91643729286773
40
1
50
-106.66269752577557
51
-87.38455806183231
0
ARC
8
0
10
88.26861294858803
20
50.48365957574989
40
0.555
50
-172.2857142857144
51
-108.85076546279204
0
ARC
8
0
10
88.26861294858803
20
50.48365957574989
40
0.555
50
124.2793368913633
51
-172.2857142857144
0
ARC
8
0
10
88.48729084355818
20
50.09505400283975
40
1
50
102.81312949040546
51
122.09126895434865
0
ARC
8
0
10
88.22632773423399
20
51.214942248599776
40
0.15
50
-74.85430631454481
51
7.714285714284203
0
ARC
8
0
10
44.57057295255149
20
44.564522673547636
40
44.3093840657307
50
8.658509246862824
51
9.34149075313391
0
ARC
8
0
10
88.14475567986928
20
51.72996793040023
40
0.15
50
10.285714285713976
51
92.85430631454496
0
ARC
8
0
10
88.0468818457641
20
52.87568697973875
40
1
50
-104.09126895434957
51
-84.81312949040564
0
ARC
8
0
10
87.95899253492105
20
52.43852593151404
40
0.555
50
-169.71428571428513
51
-106.27933689136242
0
ARC
8
0
10
87.95899253492105
20
52.43852593151402
40
0.555
50
126.85076546279025
51
-169.71428571428729
0
ARC
8
0
10
88.19488495890398
20
52.06012260521673
40
1
50
105.38455806183327
51
124.66269752577753
0
ARC
8
0
10
87.8839410259085
20
53.167175132404545
40
0.15
50
-72.2828777431144
51
10.285714285713976
0
ARC
8
0
10
44.57051463037485
20
44.564844055230125
40
44.3093840657307
50
11.229937818295129
51
11.912919324566214
0
ARC
8
0
10
87.77934456933446
20
53.67802250123349
40
0.15
50
12.857142857142817
51
95.42573488596986
0
ARC
8
0
10
87.63016679688964
20
54.8181967947641
40
1
50
-101.51984038292042
51
-82.2417009189761
0
ARC
8
0
10
87.56197914099882
20
54.37753279960508
40
0.555
50
-167.1428571428579
51
-103.70790831993543
0
ARC
8
0
10
87.56197914099882
20
54.37753279960508
40
0.555
50
129.42219403422055
51
-167.1428571428579
0
ARC
8
0
10
87.81461103804577
20
54.010093773860866
40
1
50
107.95598663326264
51
127.23412609720567
0
ARC
8
0
10
87.45431248107879
20
55.10208112601617
40
0.15
50
-69.7114491716859
51
12.857142857142817
0
ARC
8
0
10
44.57044194818928
20
44.565162496691826
40
44.3093840657307
50
13.801366389722482
51
14.484347895993574
0
ARC
8
0
10
87.32690226563902
20
55.6077214032577
40
0.15
50
15.428571428573976
51
97.99716345739633
0
ARC
8
0
10
87.12672097903531
20
56.74005478169062
40
1
50
-98.94841181149195
51
-79.67027234754777
0
ARC
8
0
10
87.07837229896107
20
56.29677527823882
40
0.555
50
-164.57142857142833
51
-101.13647974850787
0
ARC
8
0
10
87.07837229896107
20
56.296775278238826
40
0.555
50
131.99362260565084
51
-164.5714285714276
0
ARC
8
0
10
87.34723490205232
20
55.9410405263458
40
1
50
110.52741520469084
51
129.80555466863478
0
ARC
8
0
10
86.93830731445811
20
57.01576358626589
40
0.15
50
-67.14002060025554
51
15.428571428571356
0
ARC
8
0
10
44.570355052367624
20
44.56547735663029
40
44.3093840657307
50
16.372794961149754
51
17.05577646742083
0
ARC
8
0
10
86.78833992737043
20
57.51517847969358
40
0.15
50
17.999999999999154
51
100.56859202882387
0
ARC
8
0
10
86.5375582650784
20
58.63739057429854
40
1
50
-96.3769832400635
51
-77.09884377611986
0
ARC
8
0
10
86.50914592862802
20
58.192388268481125
40
0.555
50
-161.99999999999903
51
-98.56505117707722
0
ARC
8
0
10
86.50914592862802
20
58.19238826848112
40
0.555
50
134.56505117707783
51
-161.99999999999974
0
ARC
8
0
10
86.7936977842619
20
57.84907419288748
40
1
50
113.09884377611914
51
132.37698324006277
0
ARC
8
0
10
86.33696469178072
20
58.90436861135666
40
0.15
50
-64.56859202882839
51
17.999999999999154
0
ARC
8
0
10
44.57025411790738
20
44.56578800095699
40
44.3093840657307
50
18.944223532580363
51
19.627205038851457
0
ARC
8
0
10
86.16474214740464
20
59.396552365838595
40
0.15
50
20.571428571430587
51
103.1400206002528
0
ARC
8
0
10
85.86386515031742
20
60.50638319080401
40
1
50
-93.80555466863424
51
-74.52741520468992
0
ARC
8
0
10
85.85544637615536
20
60.06055425804279
40
0.555
50
-159.42857142857164
51
-95.99362260564982
0
ARC
8
0
10
85.85544637615536
20
60.06055425804279
40
0.555
50
137.13647974850585
51
-159.42857142857164
0
ARC
8
0
10
86.1551144347635
20
59.730352247607634
40
1
50
115.67027234754667
51
134.94841181149005
0
ARC
8
0
10
85.65149563706039
20
60.76409280210847
40
0.15
50
-61.9971634574012
51
20.571428571430587
0
ARC
8
0
10
44.57013934807471
20
44.56609380408254
40
44.3093840657307
50
21.515652104004836
51
22.198633610275916
0
ARC
8
0
10
85.45736476868049
20
61.248054225064244
40
0.15
50
23.14285714285622
51
105.71144917168692
0
ARC
8
0
10
85.10699836302874
20
62.34326872880782
40
1
50
-91.23412609720528
51
-71.95598663326146
0
ARC
8
0
10
85.11859010544573
20
61.89751100924131
40
0.555
50
-156.8571428571422
51
-93.42219403422003
0
ARC
8
0
10
85.11859010544573
20
61.89751100924131
40
0.555
50
139.70790831993506
51
-156.8571428571422
0
ARC
8
0
10
85.43277087543875
20
61.58108604686951
40
1
50
118.24170091897533
51
137.51984038291917
0
ARC
8
0
10
84.88328059374933
20
62.59119092149814
40
0.15
50
-59.425734885970904
51
23.14285714285622
0
ARC
8
0
10
44.57001097400514
20
44.56639415014891
40
44.3093840657307
50
24.087080675438735
51
24.77006218170983
0
ARC
8
0
10
84.66763235509903
20
63.06595537902875
40
0.15
50
25.714285714283797
51
108.28287774310945
0
ARC
8
0
10
84.26848213219604
20
64.14434794529397
40
1
50
-88.6626975257751
51
-69.38455806183147
0
ARC
8
0
10
84.30006104696558
20
63.69955913564678
40
0.555
50
-154.28571428571496
51
-90.85076546279312
0
ARC
8
0
10
84.30006104696558
20
63.6995591356468
40
0.555
50
142.2793368913658
51
-154.285714285713
0
ARC
8
0
10
84.62812181008466
20
63.39754845910188
40
1
50
120.81312949040296
51
140.09126895434673
0
ARC
8
0
10
84.03386664470867
20
64.38198343706821
40
0.15
50
-56.85430631453817
51
25.714285714286245
0
ARC
8
0
10
44.56986925422114
20
44.56668843431277
40
44.3093840657307
50
26.65850924686282
51
27.341490753133893
0
ARC
8
0
10
83.79713532264165
20
64.84659481673911
40
0.15
50
28.285714285713926
51
110.8543063145418
0
ARC
8
0
10
83.3500051179164
20
65.90599370641287
40
1
50
-86.0912689543478
51
-66.81312949040372
0
ARC
8
0
10
83.40150760930666
20
65.46306955215394
40
0.555
50
-151.71428571428567
51
-88.27933689136343
0
ARC
8
0
10
83.40150760930666
20
65.46306955215393
40
0.555
50
144.85076546279166
51
-151.71428571428697
0
ARC
8
0
10
83.74278769483413
20
65.17608137074613
40
1
50
123.38455806183183
51
142.66269752577645
0
ARC
8
0
10
83.10496439658958
20
66.13286393101573
40
0.15
50
-54.28287774310989
51
28.285714285713926
0
ARC
8
0
10
44.5697144741325
20
44.56697606391403
40
44.3093840657307
50
29.22993781829266
51
29.91291932456377
0
ARC
8
0
10
82.84762673648359
20
66.58638656733999
40
0.15
50
30.857142857139692
51
113.42573488597431
0
ARC
8
0
10
82.35341701066312
20
67.62465829204604
40
1
50
-83.51984038291909
51
-64.24170091897528
0
ARC
8
0
10
82.42473935951058
20
67.18449078347653
40
0.555
50
-149.14285714285757
51
-85.70790831993536
0
ARC
8
0
10
82.42473935951058
20
67.18449078347653
40
0.555
50
147.42219403422064
51
-149.14285714285757
0
ARC
8
0
10
82.77855147477264
20
66.91310305321007
40
1
50
125.95598663326287
51
145.23412609720685
0
ARC
8
0
10
82.09844453489896
20
67.84030636303768
40
0.15
50
-51.71144917168526
51
30.857142857139692
0
ARC
8
0
10
44.5695469454437
20
44.567256459709334
40
44.3093840657307
50
31.801366389722077
51
32.48434789599319
0
ARC
8
0
10
81.8210187805543
20
68.28182692178167
40
0.15
50
33.42857142857424
51
115.99716345739608
0
ARC
8
0
10
81.28072480625572
20
69.29688054044242
40
1
50
-80.94841181149135
51
-61.67027234754756
0
ARC
8
0
10
81.37172337884152
20
68.86035611634595
40
0.555
50
-146.57142857142816
51
-83.13647974850522
0
ARC
8
0
10
81.37172337884154
20
68.86035611634594
40
0.555
50
149.99362260564803
51
-146.57142857143018
0
ARC
8
0
10
81.73735499332425
20
68.60511537599254
40
1
50
128.5274152046902
51
147.80555466863402
0
ARC
8
0
10
81.01633405668798
20
69.50087217130685
40
0.15
50
-49.140020600257024
51
33.42857142857424
0
ARC
8
0
10
44.56936700553473
20
44.567529057019485
40
44.3093840657307
50
34.37279496115001
51
35.05577646742107
0
ARC
8
0
10
80.71937890665338
20
69.929501488824
40
0.15
50
36.00000000000038
51
118.56859202882555
0
ARC
8
0
10
80.13408876403716
20
70.91929281853744
40
1
50
-78.37698324006384
51
-59.09884377611929
0
ARC
8
0
10
80.24458030134647
20
70.48729058101034
40
0.555
50
-144.00000000000182
51
-80.56505117707829
0
ARC
8
0
10
80.24458030134647
20
70.48729058101034
40
0.555
50
152.56505117707718
51
-144.00000000000182
0
ARC
8
0
10
80.62129508163751
20
70.24871085145296
40
1
50
131.09884377611934
51
150.37698324006223
0
ARC
8
0
10
79.86081218844964
20
71.11121719727787
40
0.15
50
-46.56859202882686
51
36.00000000000038
0
ARC
8
0
10
44.56917501678124
20
44.56779330686868
40
44.3093840657307
50
36.94422353257805
51
37.62720503884914
0
ARC
8
0
10
79.54492567087766
20
71.52609207116583
40
0.15
50
38.57142857142707
51
121.14002060025395
0
ARC
8
0
10
78.91581805639905
20
72.48862780391795
40
1
50
-75.80555466863242
51
-56.527415204688694
0
ARC
8
0
10
79.04558004318028
20
72.06201774797461
40
0.555
50
-141.4285714285729
51
-77.99362260564901
0
ARC
8
0
10
79.04558004318028
20
72.06201774797461
40
0.555
50
155.13647974850699
51
-141.4285714285729
0
ARC
8
0
10
79.43261933584631
20
71.84057949703777
40
1
50
133.67027234754687
51
152.94841181149113
0
ARC
8
0
10
78.6342059974467
20
72.6680984203774
40
0.15
50
-43.99716345740127
51
38.57142857143045
0
ARC
8
0
10
44.56897136582276
20
44.56804867709329
40
44.3093840657307
50
39.51565210400565
51
40.19863361027671
0
ARC
8
0
10
78.30002426574475
20
73.0683833478528
40
0.15
50
41.142857142855114
51
123.71144917168883
0
ARC
8
0
10
77.62836611841603
20
74.00172506477462
40
1
50
-73.23412609720394
51
-53.95598663326003
0
ARC
8
0
10
77.77713723129683
20
73.5813663262933
40
0.555
50
-138.85714285714434
51
-75.42219403422163
0
ARC
8
0
10
77.77713723129682
20
73.5813663262933
40
0.555
50
157.70790831993477
51
-138.85714285714337
0
ARC
8
0
10
78.17372159071066
20
73.37751550114483
40
1
50
136.24170091897705
51
155.51984038292065
0
ARC
8
0
10
77.33898570530783
20
74.16838048901595
40
0.15
50
-41.42573488596728
51
41.142857142855114
0
ARC
8
0
10
44.56875646278604
20
44.56829465341063
40
44.3093840657307
50
42.08708067543445
51
42.770062181705555
0
ARC
8
0
10
76.98718175700975
20
74.55326934950581
40
0.15
50
43.71428571428792
51
126.28287774311224
0
ARC
8
0
10
76.27432570695365
20
75.45553742459106
40
1
50
-70.6626975257768
51
-51.38455806183332
0
ARC
8
0
10
76.4418063407115
20
75.0422765501286
40
0.555
50
-136.2857142857158
51
-72.85076546279139
0
ARC
8
0
10
76.4418063407115
20
75.04227655012862
40
0.555
50
160.27933689136322
51
-136.28571428571473
0
ARC
8
0
10
76.84713709875173
20
74.85642367920131
40
1
50
138.81312949040424
51
158.0912689543478
0
ARC
8
0
10
75.9777597133301
20
75.60904203476878
40
0.15
50
-38.854306314539116
51
43.71428571428792
0
ARC
8
0
10
44.5685307404579
20
44.56853074045667
40
44.3093840657307
50
44.658509246865584
51
45.34149075313665
0
ARC
8
0
10
75.60904203476878
20
75.97775971333009
40
0.15
50
46.28571428571208
51
128.85430631453912
0
ARC
8
0
10
74.85642367920131
20
76.84713709875172
40
1
50
-68.09126895434781
51
-48.81312949040422
0
ARC
8
0
10
75.04227655012862
20
76.44180634071148
40
0.555
50
-133.71428571428626
51
-70.27933689136323
0
ARC
8
0
10
75.04227655012862
20
76.4418063407115
40
0.555
50
162.85076546279322
51
-133.71428571428524
0
ARC
8
0
10
75.45553742459106
20
76.27432570695363
40
1
50
141.38455806183333
51
160.66269752577682
0
ARC
8
0
10
74.55326934950581
20
76.98718175700974
40
0.15
50
-36.28287774311225
51
46.28571428571208
0
ARC
8
0
10
44.56829465341014
20
44.56875646278649
40
44.3093840657307
50
47.22993781829358
51
47.91291932456466
0
ARC
8
0
10
74.16838048901596
20
77.33898570530782
40
0.15
50
48.85714285714489
51
131.42573488596727
0
ARC
8
0
10
73.37751550114484
20
78.17372159071064
40
1
50
-65.51984038292063
51
-46.24170091897707
0
ARC
8
0
10
73.58136632629332
20
77.7771372312968
40
0.555
50
-131.14285714285776
51
-67.70790831993479
0
ARC
8
0
10
73.58136632629332
20
77.7771372312968
40
0.555
50
165.4221940342202
51
-131.14285714285776
0
ARC
8
0
10
74.00172506477463
20
77.62836611841601
40
1
50
143.95598663326
51
163.23412609720395
0
ARC
8
0
10
73.06838334785282
20
78.30002426574474
40
0.15
50
-33.711449171688834
51
48.85714285714489
0
ARC
8
0
10
44.568048677093245
20
44.5689713658228
40
44.3093840657307
50
49.80136638972319
51
50.48434789599428
0
ARC
8
0
10
72.6680984203774
20
78.6342059974467
40
0.15
50
51.428571428569555
51
133.99716345740129
0
ARC
8
0
10
71.84057949703777
20
79.43261933584631
40
1
50
-62.94841181149111
51
-43.6702723475469
0
ARC
8
0
10
72.06201774797461
20
79.04558004318028
40
0.555
50
-128.57142857142713
51
-65.13647974850697
0
ARC
8
0
10
72.06201774797461
20
79.04558004318028
40
0.555
50
167.99362260564902
51
-128.57142857142713
0
ARC
8
0
10
72.48862780391795
20
78.91581805639905
40
1
50
146.5274152046887
51
165.80555466863245
0
ARC
8
0
10
71.52609207116583
20
79.54492567087766
40
0.15
50
-31.14002060025394
51
51.42857142857293
0
ARC
8
0
10
44.56779330686889
20
44.56917501678108
40
44.3093840657307
50
52.37279496115121
51
53.05577646742227
0
ARC
8
0
10
71.11121719727788
20
79.86081218844963
40
0.15
50
53.999999999999616
51
136.56859202882688
0
ARC
8
0
10
70.24871085145297
20
80.6212950816375
40
1
50
-60.37698324006223
51
-41.09884377611932
0
ARC
8
0
10
70.48729058101036
20
80.24458030134646
40
0.555
50
-126.00000000000023
51
-62.565051177077166
0
ARC
8
0
10
70.48729058101036
20
80.24458030134646
40
0.555
50
170.5650511770783
51
-126.00000000000023
0
ARC
8
0
10
70.91929281853746
20
80.13408876403714
40
1
50
149.0988437761193
51
168.37698324006382
0
ARC
8
0
10
69.92950148882402
20
80.71937890665336
40
0.15
50
-28.568592028825538
51
53.999999999999616
0
ARC
8
0
10
44.56752905701933
20
44.56936700553484
40
44.3093840657307
50
54.944223532578654
51
55.627205038849745
0
ARC
8
0
10
69.50087217130685
20
81.01633405668798
40
0.15
50
56.57142857142576
51
139.14002060025703
0
ARC
8
0
10
68.60511537599254
20
81.73735499332425
40
1
50
-57.805554668634
51
-38.52741520469019
0
ARC
8
0
10
68.86035611634594
20
81.37172337884154
40
0.555
50
-123.42857142856985
51
-59.99362260564802
0
ARC
8
0
10
68.86035611634595
20
81.37172337884152
40
0.555
50
173.13647974850522
51
-123.42857142857189
0
ARC
8
0
10
69.29688054044242
20
81.28072480625572
40
1
50
151.67027234754755
51
170.94841181149135
0
ARC
8
0
10
68.28182692178167
20
81.8210187805543
40
0.15
50
-25.997163457396077
51
56.57142857142576
0
ARC
8
0
10
44.56725645970977
20
44.56954694544342
40
44.3093840657307
50
57.51565210400748
51
58.19863361027857
0
ARC
8
0
10
67.84030636303768
20
82.09844453489895
40
0.15
50
59.142857142855654
51
141.71144917168527
0
ARC
8
0
10
66.91310305321005
20
82.77855147477261
40
1
50
-55.23412609720506
51
-35.955986633261745
0
ARC
8
0
10
67.18449078347655
20
82.42473935951057
40
0.555
50
-120.85714285714447
51
-57.4221940342206
0
ARC
8
0
10
67.18449078347655
20
82.42473935951057
40
0.555
50
175.70790831993537
51
-120.85714285714447
0
ARC
8
0
10
67.62465829204605
20
82.35341701066311
40
1
50
154.2417009189753
51
173.51984038291909
0
ARC
8
0
10
66.58638656734
20
82.84762673648358
40
0.15
50
-23.425734885974297
51
59.142857142860315
0
ARC
8
0
10
44.566976063913756
20
44.56971447413266
40
44.3093840657307
50
60.0870806754358
51
60.77006218170692
0
ARC
8
0
10
66.13286393101573
20
83.10496439658958
40
0.15
50
61.714285714286085
51
144.2828777431099
0
ARC
8
0
10
65.17608137074613
20
83.74278769483413
40
1
50
-52.66269752577646
51
-33.38455806183183
0
ARC
8
0
10
65.46306955215394
20
83.40150760930666
40
0.555
50
-118.28571428571306
51
-54.85076546279286
0
ARC
8
0
10
65.46306955215394
20
83.40150760930666
40
0.555
50
178.27933689136344
51
-118.28571428571306
0
ARC
8
0
10
65.90599370641287
20
83.3500051179164
40
1
50
156.81312949040372
51
176.09126895434778
0
ARC
8
0
10
64.84659481673911
20
83.79713532264165
40
0.15
50
-20.85430631454181
51
61.714285714286085
0
ARC
8
0
10
44.566688434312375
20
44.56986925422134
40
44.3093840657307
50
62.65850924686554
51
63.34149075313659
0
ARC
8
0
10
64.38198343706823
20
84.03386664470867
40
0.15
50
64.28571428571377
51
146.85430631453818
0
ARC
8
0
10
63.39754845910189
20
84.62812181008466
40
1
50
-50.091268954346745
51
-30.81312949040296
0
ARC
8
0
10
63.69955913564681
20
84.30006104696557
40
0.555
50
-115.71428571428832
51
-52.27933689136432
0
ARC
8
0
10
63.699559135646794
20
84.30006104696558
40
0.555
50
-179.14923453720687
51
-115.71428571428638
0
ARC
8
0
10
64.14434794529399
20
84.26848213219604
40
1
50
159.38455806183146
51
178.66269752577512
0
ARC
8
0
10
63.065955379028765
20
84.66763235509903
40
0.15
50
-18.282877743109427
51
64.28571428571621
0
ARC
8
0
10
44.566394150149186
20
44.57001097400502
40
44.3093840657307
50
65.22993781829057
51
65.91291932456166
0
ARC
8
0
10
62.591190921498146
20
84.88328059374933
40
0.15
50
66.85714285714378
51
149.4257348859709
0
ARC
8
0
10
61.581086046869515
20
85.43277087543875
40
1
50
-47.51984038291916
51
-28.241700918975315
0
ARC
8
0
10
61.89751100924132
20
85.11859010544573
40
0.555
50
-113.1428571428571
51
-49.70790831993505
0
ARC
8
0
10
61.89751100924132
20
85.11859010544573
40
0.555
50
-176.57780596578
51
-113.1428571428571
0
ARC
8
0
10
62.34326872880783
20
85.10699836302872
40
1
50
161.9559866332607
51
-178.76587390279553
0
ARC
8
0
10
61.24805422506425
20
85.45736476868049
40
0.15
50
-15.711449171686912
51
66.85714285714378
0
ARC
8
0
10
44.56609380408243
20
44.57013934807476
40
44.3093840657307
50
67.80136638972392
51
68.48434789599499
0
ARC
8
0
10
60.764092802108486
20
85.65149563706039
40
0.15
50
69.42857142856943
51
151.99716345740117
0
ARC
8
0
10
59.73035224760765
20
86.1551144347635
40
1
50
-44.94841181149006
51
-25.670272347546693
0
ARC
8
0
10
60.06055425804281
20
85.85544637615536
40
0.555
50
-110.57142857142904
51
-47.13647974850585
0
ARC
8
0
10
60.06055425804281
20
85.85544637615536
40
0.555
50
-174.00637739435018
51
-110.57142857142904
0
ARC
8
0
10
60.50638319080402
20
85.86386515031742
40
1
50
164.5274152046899
51
-176.19444533136578
0
ARC
8
0
10
59.39655236583861
20
86.16474214740464
40
0.15
50
-13.140020600252795
51
69.42857142856687
0
ARC
8
0
10
44.56578800095732
20
44.570254117907275
40
44.3093840657307
50
70.37279496114895
51
71.05577646742006
0
ARC
8
0
10
58.904368611356674
20
86.33696469178072
40
0.15
50
72.00000000000085
51
154.56859202882842
0
ARC
8
0
10
57.84907419288749
20
86.7936977842619
40
1
50
-42.37698324006279
51
-23.098843776119125
0
ARC
8
0
10
58.19238826848113
20
86.50914592862802
40
0.555
50
-108.00000000000028
51
-44.565051177077834
0
ARC
8
0
10
58.19238826848113
20
86.50914592862802
40
0.555
50
-171.43494882292265
51
-108.00000000000028
0
ARC
8
0
10
58.63739057429856
20
86.5375582650784
40
1
50
167.09884377611985
51
-173.62301675993655
0
ARC
8
0
10
57.515178479693596
20
86.78833992737043
40
0.15
50
-10.568592028823861
51
72.00000000000085
0
ARC
8
0
10
44.565477356630225
20
44.57035505236765
40
44.3093840657307
50
72.94422353257907
51
73.62720503885014
0
ARC
8
0
10
57.01576358626591
20
86.93830731445811
40
0.15
50
74.57142857142865
51
157.14002060025555
0
ARC
8
0
10
55.94104052634582
20
87.34723490205232
40
1
50
-39.805554668634784
51
-20.52741520469082
0
ARC
8
0
10
56.29677527823885
20
87.07837229896107
40
0.555
50
-105.42857142857241
51
-41.993622605650835
0
ARC
8
0
10
56.29677527823884
20
87.07837229896107
40
0.555
50
-168.86352025149216
51
-105.4285714285717
0
ARC
8
0
10
56.74005478169064
20
87.12672097903531
40
1
50
169.67027234754775
51
-171.05158818850808
0
ARC
8
0
10
55.60772140325772
20
87.32690226563902
40
0.15
50
-7.997163457396322
51
74.57142857142603
0
ARC
8
0
10
44.565162496692935
20
44.57044194818899
40
44.3093840657307
50
75.51565210400788
51
76.19863361027896
0
ARC
8
0
10
55.102081126016195
20
87.45431248107877
40
0.15
50
77.1428571428572
51
159.7114491716859
0
ARC
8
0
10
54.010093773860895
20
87.81461103804575
40
1
50
-37.23412609720567
51
-17.95598663326262
0
ARC
8
0
10
54.37753279960511
20
87.5619791409988
40
0.555
50
-102.8571428571446
51
-39.42219403422102
0
ARC
8
0
10
54.377532799605106
20
87.56197914099882
40
0.555
50
-166.29209168006315
51
-102.85714285714356
0
ARC
8
0
10
54.81819679476413
20
87.63016679688963
40
1
50
172.24170091897608
51
-168.4801596170796
0
ARC
8
0
10
53.67802250123352
20
87.77934456933444
40
0.15
50
-5.42573488596985
51
77.1428571428572
0
ARC
8
0
10
44.56484405523048
20
44.57051463037477
40
44.3093840657307
50
78.08708067543421
51
78.77006218170533
0
ARC
8
0
10
53.16717513240456
20
87.88394102590848
40
0.15
50
79.71428571428604
51
162.2828777431144
0
ARC
8
0
10
52.06012260521675
20
88.19488495890396
40
1
50
-34.66269752577684
51
-15.384558061832491
0
ARC
8
0
10
52.43852593151405
20
87.95899253492105
40
0.555
50
-100.28571428571416
51
-36.85076546279229
0
ARC
8
0
10
52.43852593151405
20
87.95899253492105
40
0.555
50
-163.720663108636
51
-100.28571428571416
0
ARC
8
0
10
52.87568697973877
20
88.04688184576409
40
1
50
174.81312949040566
51
-165.90873104565046
0
ARC
8
0
10
51.72996793040024
20
88.14475567986926
40
0.15
50
-2.8543063145449517
51
79.71428571428604
0
ARC
8
0
10
44.56452267354653
20
44.57057295255165
40
44.3093840657307
50
80.65850924686463
51
81.34149075313572
0
ARC
8
0
10
51.21494224859979
20
88.22632773423399
40
0.15
50
82.28571428571581
51
164.85430631454483
0
ARC
8
0
10
50.09505400283977
20
88.48729084355818
40
1
50
-32.09126895434866
51
-12.813129490405455
0
ARC
8
0
10
50.483659575749904
20
88.26861294858803
40
0.555
50
-97.71428571428561
51
-34.2793368913633
0
ARC
8
0
10
50.483659575749904
20
88.26861294858803
40
0.555
50
-161.14923453720797
51
-97.71428571428561
0
ARC
8
0
10
50.91643729286774
20
88.37602691700774
40
1
50
177.38455806183234
51
-163.33730247422443
0
ARC
8
0
10
49.76748081341137
20
88.42239970789672
40
0.15
50
-0.28287774311314706
51
82.2857142857185
0
ARC
8
0
10
44.564198998855616
20
44.57061679726758
40
44.3093840657307
50
83.22993781829193
51
83.91291932456299
0
ARC
8
0
10
49.24931401182158
20
88.48078308479049
40
0.15
50
84.85714285714145
51
167.42573488597066
0
ARC
8
0
10
48.118845353378624
20
88.69123982547083
40
1
50
-29.519840382918996
51
-10.241700918974638
0
ARC
8
0
10
48.51687057299442
20
88.4902168476917
40
0.555
50
-95.14285714285708
51
-31.707908319935573
0
ARC
8
0
10
48.51687057299442
20
88.4902168476917
40
0.555
50
-158.57780596577862
51
-95.14285714285708
0
ARC
8
0
10
48.94439340227828
20
88.61693915625068
40
1
50
179.95598663326268
51
-160.76587390279343
0
ARC
8
0
10
47.79451333814753
20
88.61171751529398
40
0.15
50
2.2885508283158407
51
84.85714285714145
0
ARC
8
0
10
44.56387368299894
20
44.570646076224584
40
44.3093840657307
50
85.80136638972064
51
86.48434789599173
0
ARC
8
0
10
47.27424893574782
20
88.64679463836552
40
0.15
50
87.4285714285712
51
169.99716345739964
0
ARC
8
0
10
46.1354764780543
20
88.80632117853447
40
1
50
-26.948411811491525
51
-7.6702723475476375
0
ARC
8
0
10
46.54211977455367
20
88.6233579514709
40
0.555
50
-92.57142857142728
51
-29.13647974850578
0
ARC
8
0
10
46.542119774553676
20
88.6233579514709
40
0.555
50
-156.00637739435112
51
-92.57142857142802
0
ARC
8
0
10
46.963526741921264
20
88.76913339830419
40
1
50
-177.4725847953112
51
-158.1944453313671
0
ARC
8
0
10
45.815038798536236
20
88.71232784119185
40
0.15
50
4.859979399744861
51
87.4285714285739
0
ARC
8
0
10
44.563547381118624
20
44.57066073045891
40
44.3093840657307
50
88.37279496114988
51
89.05577646742094
0
ARC
8
0
10
45.29372453859489
20
88.72402806978346
40
0.15
50
90
51
172.5685920288269
0
ARC
8
0
10
44.14894161782976
20
88.83230314421931
40
1
50
-24.37698324006254
51
-5.0988437761189065
0
ARC
8
0
10
44.56338406573073
20
88.6677681314614
40
0.555
50
-90.00000000000074
51
-26.56505117707799
0
ARC
8
0
10
44.56338406573073
20
88.6677681314614
40
0.555
50
-153.43494882292202
51
-90.00000000000074
0
ARC
8
0
10
44.9778265136317
20
88.83230314421931
40
1
50
-174.90115622388112
51
-155.62301675993749
0
ARC
8
0
10
43.833043592866574
20
88.72402806978347
40
0.15
50
7.431407971167711
51
90
0
ARC
8
0
10
44.563220750344044
20
44.57066073045895
40
44.3093840657307
50
90.94422353258064
51
91.62720503885173
0
ARC
8
0
10
43.311729332925196
20
88.71232784119185
40
0.15
50
92.5714285714261
51
175.14002060025516
0
ARC
8
0
10
42.16324138954017
20
88.76913339830419
40
1
50
-21.8055546686329
51
-2.5274152046888134
0
ARC
8
0
10
42.58464835690776
20
88.62335795147091
40
0.555
50
-87.428571428572
51
-23.993622605650526
0
ARC
8
0
10
42.584648356907756
20
88.62335795147091
40
0.555
50
-150.86352025149256
51
-87.42857142857126
0
ARC
8
0
10
42.99129165340713
20
88.80632117853447
40
1
50
-172.3297276524524
51
-153.0515881885085
0
ARC
8
0
10
41.85251919571361
20
88.64679463836552
40
0.15
50
10.002836542600377
51
92.57142857142881
0
ARC
8
0
10
44.5628944484627
20
44.5706460762246
40
44.3093840657307
50
93.51565210400854
51
94.1986336102796
0
ARC
8
0
10
41.332254793313915
20
88.61171751529398
40
0.15
50
95.14285714285586
51
177.71144917168417
0
ARC
8
0
10
40.18237472918317
20
88.61693915625068
40
1
50
-19.234126097206573
51
0.04401336673734472
0
ARC
8
0
10
40.60989755846703
20
88.49021684769171
40
0.555
50
-84.85714285714366
51
-21.42219403422302
0
ARC
8
0
10
40.60989755846702
20
88.49021684769171
40
0.555
50
-148.2920916800628
51
-84.8571428571422
0
ARC
8
0
10
41.00792277808282
20
88.69123982547083
40
1
50
-169.75829908102537
51
-150.480159617081
0
ARC
8
0
10
39.877454119639864
20
88.48078308479049
40
0.15
50
12.574265114029364
51
95.14285714285586
0
ARC
8
0
10
44.562569132605624
20
44.57061679726756
40
44.3093840657307
50
96.08708067543674
51
96.77006218170784
0
ARC
8
0
10
39.35928731805006
20
88.42239970789672
40
0.15
50
97.71428571428152
51
-179.71712225688685
0
ARC
8
0
10
38.210330838593684
20
88.37602691700774
40
1
50
-16.662697525775563
51
2.6154419381676917
0
ARC
8
0
10
38.64310855571152
20
88.26861294858803
40
0.555
50
-82.28571428571439
51
-18.85076546279203
0
ARC
8
0
10
38.64310855571152
20
88.26861294858803
40
0.555
50
-145.7206631086367
51
-82.28571428571439
0
ARC
8
0
10
39.03171412862166
20
88.48729084355818
40
1
50
-167.18687050959454
51
-147.90873104565134
0
ARC
8
0
10
37.911825882861635
20
88.22632773423399
40
0.15
50
15.145693685455184
51
97.71428571428422
0
ARC
8
0
10
44.56224545791505
20
44.57057295255168
40
44.3093840657307
50
98.65850924686448
51
99.34149075313556
0
ARC
8
0
10
37.39680020106119
20
88.14475567986926
40
0.15
50
100.28571428571396
51
-177.14569368546046
0
ARC
8
0
10
36.251081151722666
20
88.0468818457641
40
1
50
-14.091268954349577
51
5.186870509594352
0
ARC
8
0
10
36.68824219994738
20
87.95899253492107
40
0.555
50
-79.71428571428585
51
-16.279336891364014
0
ARC
8
0
10
36.68824219994739
20
87.95899253492107
40
0.555
50
-143.14923453720814
51
-79.71428571428656
0
ARC
8
0
10
37.066645526244685
20
88.19488495890397
40
1
50
-164.61544193816752
51
-145.33730247422315
0
ARC
8
0
10
35.95959299905687
20
87.8839410259085
40
0.15
50
17.717122256885602
51
100.28571428571396
0
ARC
8
0
10
44.56192407623014
20
44.570514630374625
40
44.3093840657307
50
101.22993781829362
51
101.91291932456471
0
ARC
8
0
10
35.448745630227926
20
87.77934456933447
40
0.15
50
102.85714285714282
51
-174.57426511403017
0
ARC
8
0
10
34.30857133669732
20
87.63016679688965
40
1
50
-11.519840382920396
51
7.758299081023916
0
ARC
8
0
10
34.74923533185633
20
87.56197914099882
40
0.555
50
-77.14285714285646
51
-13.707908319933825
0
ARC
8
0
10
34.749235331856354
20
87.56197914099882
40
0.555
50
-140.57780596578152
51
-77.1428571428586
0
ARC
8
0
10
35.11667435760055
20
87.81461103804578
40
1
50
-162.04401336673737
51
-142.76587390279434
0
ARC
8
0
10
34.02468700544525
20
87.4543124810788
40
0.15
50
20.288550828314094
51
102.85714285714282
0
ARC
8
0
10
44.56160563476874
20
44.57044194818908
40
44.3093840657307
50
103.80136638972135
51
104.48434789599241
0
ARC
8
0
10
33.51904672820373
20
87.32690226563905
40
0.15
50
105.42857142857399
51
-172.00283654260366
0
ARC
8
0
10
32.386713349770815
20
87.12672097903534
40
1
50
-8.948411811491944
51
10.32972765245225
0
ARC
8
0
10
32.829992853222606
20
87.07837229896107
40
0.555
50
-74.57142857142831
51
-11.136479748504827
0
ARC
8
0
10
32.82999285322262
20
87.07837229896107
40
0.555
50
-138.00637739435282
51
-74.57142857142972
0
ARC
8
0
10
33.18572760511563
20
87.34723490205234
40
1
50
-159.47258479530996
51
-140.19444533136613
0
ARC
8
0
10
32.11100454519554
20
86.93830731445814
40
0.15
50
22.859979399744464
51
105.42857142857136
0
ARC
8
0
10
44.56129077483284
20
44.57035505236816
40
44.3093840657307
50
106.37279496115205
51
107.05577646742316
0
ARC
8
0
10
31.611589651767833
20
86.78833992737043
40
0.15
50
108.00000000000045
51
-169.4314079711708
0
ARC
8
0
10
30.48937755716287
20
86.53755826507837
40
1
50
-6.376983240061828
51
12.901156223880934
0
ARC
8
0
10
30.934379862980304
20
86.50914592862803
40
0.555
50
-72.00000000000007
51
-8.565051177078773
0
ARC
8
0
10
30.93437986298029
20
86.50914592862803
40
0.555
50
-135.43494882292035
51
-71.99999999999868
0
ARC
8
0
10
31.277693938573936
20
86.7936977842619
40
1
50
-156.9011562238808
51
-137.6230167599371
0
ARC
8
0
10
30.222399520104755
20
86.33696469178072
40
0.15
50
25.43140797117103
51
107.99999999999916
0
ARC
8
0
10
44.56098013050267
20
44.570254117906785
40
44.3093840657307
50
108.94422353257798
51
109.62720503884904
0
ARC
8
0
10
29.73021576562283
20
86.16474214740467
40
0.15
50
110.57142857142932
51
-166.85997939974132
0
ARC
8
0
10
28.62038494065742
20
85.86386515031745
40
1
50
-3.8055546686342434
51
15.472584795309253
0
ARC
8
0
10
29.066213873418636
20
85.85544637615538
40
0.555
50
-69.4285714285713
51
-5.993622605649824
0
ARC
8
0
10
29.06621387341864
20
85.85544637615538
40
0.555
50
-132.86352025149415
51
-69.42857142857164
0
ARC
8
0
10
29.39641588385378
20
86.15511443476355
40
1
50
-154.32972765245233
51
-135.05158818850865
0
ARC
8
0
10
28.362675329352957
20
85.65149563706042
40
0.15
50
28.002836542599447
51
110.57142857142932
0
ARC
8
0
10
44.56067432738013
20
44.57013934807522
40
44.3093840657307
50
111.51565210400656
51
112.19863361027764
0
ARC
8
0
10
27.878713906397195
20
85.4573647686805
40
0.15
50
113.14285714285623
51
-164.2885508283131
0
ARC
8
0
10
26.783499402653614
20
85.10699836302875
40
1
50
-1.234126097205271
51
18.044013366738483
0
ARC
8
0
10
27.229257122220123
20
85.11859010544575
40
0.555
50
-66.8571428571429
51
-3.422194034220025
0
ARC
8
0
10
27.22925712222012
20
85.11859010544575
40
0.555
50
-130.29209168006497
51
-66.85714285714256
0
ARC
8
0
10
27.54568208459192
20
85.43277087543876
40
1
50
-151.7582990810246
51
-132.4801596170807
0
ARC
8
0
10
26.535577209963293
20
84.88328059374935
40
0.15
50
30.574265114029096
51
113.14285714285498
0
ARC
8
0
10
44.560373981311336
20
44.570010974004624
40
44.3093840657307
50
114.08708067543706
51
114.77006218170814
0
ARC
8
0
10
26.060812752432685
20
84.66763235509906
40
0.15
50
115.71428571428625
51
-161.717122256891
0
ARC
8
0
10
24.982420186167445
20
84.2684821321961
40
1
50
1.3373024742232533
51
20.61544193816672
0
ARC
8
0
10
25.42720899581465
20
84.3000610469656
40
0.555
50
-64.2857142857143
51
-0.8507654627916524
0
ARC
8
0
10
25.427208995814645
20
84.3000610469656
40
0.555
50
-127.72066310863627
51
-64.28571428571398
0
ARC
8
0
10
25.729219672359548
20
84.62812181008469
40
1
50
-149.18687050959693
51
-129.90873104565296
0
ARC
8
0
10
24.744784694393218
20
84.0338666447087
40
0.15
50
33.14569368546257
51
115.71428571428625
0
ARC
8
0
10
44.56007969714936
20
44.569869254221516
40
44.3093840657307
50
116.65850924686384
51
117.3414907531349
0
ARC
8
0
10
24.28017331472231
20
83.79713532264167
40
0.15
50
118.28571428571392
51
-159.1456936854577
0
ARC
8
0
10
23.22077442504856
20
83.35000511791641
40
1
50
3.90873104565223
51
23.186870509596364
0
ARC
8
0
10
23.663698579307493
20
83.40150760930669
40
0.555
50
-61.714285714286326
51
1.720663108635108
0
ARC
8
0
10
23.663698579307482
20
83.40150760930668
40
0.555
50
-125.14923453720685
51
-61.71428571428466
0
ARC
8
0
10
23.950686760715303
20
83.74278769483413
40
1
50
-146.61544193816908
51
-127.33730247422453
0
ARC
8
0
10
22.99390420044569
20
83.1049643965896
40
0.15
50
35.717122256889326
51
118.28571428571631
0
ARC
8
0
10
44.55979206754789
20
44.5697144741328
40
44.3093840657307
50
119.22993781829341
51
119.9129193245645
0
ARC
8
0
10
22.540381564121454
20
82.8476267364836
40
0.15
50
120.85714285714204
51
-156.5742651140268
0
ARC
8
0
10
21.502109839415397
20
82.35341701066314
40
1
50
6.480159617080933
51
25.758299081024717
0
ARC
8
0
10
21.94227734798489
20
82.42473935951061
40
0.555
50
-59.142857142857245
51
4.292091680063143
0
ARC
8
0
10
21.942277347984888
20
82.4247393595106
40
0.555
50
-122.57780596577881
51
-59.14285714285619
0
ARC
8
0
10
22.21366507825138
20
82.77855147477264
40
1
50
-144.044013366738
51
-124.76587390279447
0
ARC
8
0
10
21.286461768423756
20
82.09844453489897
40
0.15
50
38.28855082831475
51
120.85714285714319
0
ARC
8
0
10
44.559511671751764
20
44.569546945443506
40
44.3093840657307
50
121.80136638972157
51
122.48434789599266
0
ARC
8
0
10
20.844941209679767
20
81.82101878055433
40
0.15
50
123.42857142857311
51
-154.00283654260394
0
ARC
8
0
10
19.829887591019023
20
81.28072480625575
40
1
50
9.051588188508685
51
28.32972765245245
0
ARC
8
0
10
20.266412015115478
20
81.37172337884155
40
0.555
50
-56.57142857142812
51
6.863520251494728
0
ARC
8
0
10
20.26641201511549
20
81.37172337884157
40
0.555
50
-120.006377394352
51
-56.57142857142986
0
ARC
8
0
10
20.521652755468896
20
81.73735499332427
40
1
50
-141.47258479531007
51
-122.19444533136634
0
ARC
8
0
10
19.62589596015458
20
81.01633405668801
40
0.15
50
40.859979399743864
51
123.42857142857198
0
ARC
8
0
10
44.559239074441955
20
44.56936700553476
40
44.3093840657307
50
124.37279496115002
51
125.05577646742108
0
ARC
8
0
10
19.197266642637437
20
80.7193789066534
40
0.15
50
126.00000000000038
51
-151.43140797117576
0
ARC
8
0
10
18.207475312923997
20
80.13408876403719
40
1
50
11.623016759936208
51
30.901156223880925
0
ARC
8
0
10
18.639477550451094
20
80.2445803013465
40
0.555
50
-54.000000000000064
51
9.434948822921719
0
ARC
8
0
10
18.639477550451097
20
80.2445803013465
40
0.555
50
-117.43494882292283
51
-54.00000000000036
0
ARC
8
0
10
18.87805728000846
20
80.62129508163756
40
1
50
-138.90115622387955
51
-119.62301675993615
0
ARC
8
0
10
18.015550934183562
20
79.86081218844967
40
0.15
50
43.43140797117313
51
126.00000000000038
0
ARC
8
0
10
44.558974824592326
20
44.56917501678095
40
44.3093840657307
50
126.94422353257737
51
127.62720503884847
0
ARC
8
0
10
17.60067606029558
20
79.54492567087769
40
0.15
50
128.57142857142603
51
-148.85997939974538
0
ARC
8
0
10
16.63814032754346
20
78.91581805639909
40
1
50
14.194445331366774
51
33.47258479531041
0
ARC
8
0
10
17.06475038348681
20
79.0455800431803
40
0.555
50
-51.428571428571374
51
12.006377394352581
0
ARC
8
0
10
17.06475038348681
20
79.0455800431803
40
0.555
50
-114.8635202514943
51
-51.428571428571374
0
ARC
8
0
10
17.286188634423656
20
79.43261933584634
40
1
50
-136.32972765245324
51
-117.05158818850943
0
ARC
8
0
10
16.458669711084013
20
78.63420599744673
40
0.15
50
46.002836542598736
51
128.57142857143046
0
ARC
8
0
10
44.55871945436952
20
44.568971365823934
40
44.3093840657307
50
129.515652104008
51
130.19863361027907
0
ARC
8
0
10
16.05838478360861
20
78.30002426574474
40
0.15
50
131.1428571428582
51
-146.2885508283172
0
ARC
8
0
10
15.125043066686768
20
77.62836611841605
40
1
50
16.76587390279433
51
36.04401336673807
0
ARC
8
0
10
15.545401805168094
20
77.77713723129682
40
0.555
50
-48.857142857142826
51
14.57780596577988
0
ARC
8
0
10
15.545401805168096
20
77.77713723129682
40
0.555
50
-112.29209168006541
51
-48.85714285714296
0
ARC
8
0
10
15.749252630316573
20
78.17372159071066
40
1
50
-133.75829908102287
51
-114.48015961707937
0
ARC
8
0
10
14.958387642445448
20
77.33898570530783
40
0.15
50
48.57426511403018
51
131.14285714285717
0
ARC
8
0
10
44.558473478050885
20
44.56875646278616
40
44.3093840657307
50
132.0870806754347
51
132.77006218170575
0
ARC
8
0
10
14.573498781955584
20
76.98718175700976
40
0.15
50
133.71428571428498
51
-143.71712225688694
0
ARC
8
0
10
13.671230706870347
20
76.27432570695365
40
1
50
19.337302474224035
51
38.61544193816751
0
ARC
8
0
10
14.08449158133279
20
76.44180634071151
40
0.555
50
-46.28571428571487
51
17.14923453720846
0
ARC
8
0
10
14.084491581332793
20
76.44180634071151
40
0.555
50
-109.72066310863713
51
-46.28571428571514
0
ARC
8
0
10
14.27034445226009
20
76.84713709875174
40
1
50
-131.18687050959565
51
-111.90873104565192
0
ARC
8
0
10
13.517726096692627
20
75.97775971333012
40
0.15
50
51.14569368545983
51
133.71428571428598
0
ARC
8
0
10
44.55823739100405
20
44.56853074045724
40
44.3093840657307
50
134.65850924686436
51
135.34149075313545
0
ARC
8
0
10
13.149008418131288
20
75.60904203476878
40
0.15
50
136.28571428571067
51
-141.14569368545918
0
ARC
8
0
10
12.279631032709666
20
74.85642367920131
40
1
50
21.908731045652154
51
41.186870509595785
0
ARC
8
0
10
12.684961790749902
20
75.04227655012862
40
0.555
50
-43.71428571428577
51
19.72066310863672
0
ARC
8
0
10
12.684961790749897
20
75.04227655012862
40
0.555
50
-107.14923453720715
51
-43.714285714285396
0
ARC
8
0
10
12.85244242450775
20
75.45553742459106
40
1
50
-128.6154419381667
51
-109.33730247422292
0
ARC
8
0
10
12.139586374451643
20
74.55326934950581
40
0.15
50
53.71712225688667
51
136.28571428571067
0
ARC
8
0
10
44.55801166867481
20
44.56829465341005
40
44.3093840657307
50
137.22993781829342
51
137.91291932456448
0
ARC
8
0
10
11.787782426153564
20
74.16838048901596
40
0.15
50
138.85714285714536
51
-138.5742651140282
0
ARC
8
0
10
10.953046540750773
20
73.3775155011448
40
1
50
24.480159617082048
51
43.75829908102524
0
ARC
8
0
10
11.349630900164586
20
73.58136632629332
40
0.555
50
-41.142857142857856
51
22.292091680065084
0
ARC
8
0
10
11.349630900164586
20
73.58136632629332
40
0.555
50
-104.57780596577945
51
-41.142857142857856
0
ARC
8
0
10
11.498402013045375
20
74.00172506477463
40
1
50
-126.04401336673965
51
-106.76587390279559
0
ARC
8
0
10
10.826743865716665
20
73.06838334785282
40
0.15
50
56.288550828314555
51
138.85714285714488
0
ARC
8
0
10
44.55779676563794
20
44.56804867709246
40
44.3093840657307
50
139.8013663897219
51
140.48434789599295
0
ARC
8
0
10
10.492562134014696
20
72.6680984203774
40
0.15
50
141.42857142857125
51
-136.00283654260062
0
ARC
8
0
10
9.694148795615062
20
71.84057949703778
40
1
50
27.051588188507925
51
46.32972765245196
0
ARC
8
0
10
10.081188088281106
20
72.06201774797461
40
0.555
50
-38.57142857142737
51
24.863520251493185
0
ARC
8
0
10
10.081188088281102
20
72.06201774797461
40
0.555
50
-102.00637739434993
51
-38.571428571427134
0
ARC
8
0
10
10.210950075062343
20
72.48862780391795
40
1
50
-123.47258479531132
51
-104.19444533136738
0
ARC
8
0
10
9.581842460583726
20
71.52609207116583
40
0.15
50
58.859979399744894
51
141.42857142857164
0
ARC
8
0
10
44.55759311467998
20
44.56779330686847
40
44.3093840657307
50
142.37279496115053
51
143.05577646742165
0
ARC
8
0
10
9.265955943011733
20
71.11121719727785
40
0.15
50
143.99999999999963
51
-133.43140797117263
0
ARC
8
0
10
8.505473049823888
20
70.24871085145293
40
1
50
29.623016759938842
51
48.90115622388222
0
ARC
8
0
10
8.88218783011491
20
70.48729058101033
40
0.555
50
-36.00000000000034
51
27.434948822922667
0
ARC
8
0
10
8.882187830114907
20
70.48729058101033
40
0.555
50
-99.43494882292191
51
-36.00000000000013
0
ARC
8
0
10
8.992679367424241
20
70.91929281853741
40
1
50
-120.90115622388139
51
-101.62301675993753
0
ARC
8
0
10
8.407389224808007
20
69.92950148882399
40
0.15
50
61.431407971170295
51
143.99999999999883
0
ARC
8
0
10
44.5574011259267
20
44.56752905701954
40
44.3093840657307
50
144.94422353257903
51
145.62720503885015
0
ARC
8
0
10
8.110434074773385
20
69.50087217130681
40
0.15
50
146.57142857142577
51
-130.85997939974197
0
ARC
8
0
10
7.389413138137122
20
68.60511537599248
40
1
50
32.19444533136658
51
51.47258479531025
0
ARC
8
0
10
7.755044752619831
20
68.86035611634591
40
0.555
50
-33.428571428571466
51
30.006377394350523
0
ARC
8
0
10
7.755044752619835
20
68.86035611634591
40
0.555
50
-96.86352025149397
51
-33.42857142857167
0
ARC
8
0
10
7.846043325205654
20
69.29688054044237
40
1
50
-118.3297276524528
51
-99.05158818850911
0
ARC
8
0
10
7.30574935090706
20
68.28182692178163
40
0.15
50
64.00283654260087
51
146.57142857142614
0
ARC
8
0
10
44.55722118601795
20
44.56725645970975
40
44.3093840657307
50
147.5156521040075
51
148.19863361027862
0
ARC
8
0
10
7.028323596562417
20
67.84030636303766
40
0.15
50
149.14285714286137
51
-128.2885508283158
0
ARC
8
0
10
6.348216656688739
20
66.91310305321004
40
1
50
34.76587390279326
51
54.04401336673745
0
ARC
8
0
10
6.702028771950795
20
67.1844907834765
40
0.555
50
-30.85714285714417
51
32.57780596577944
0
ARC
8
0
10
6.702028771950799
20
67.1844907834765
40
0.555
50
-94.29209168006555
51
-30.85714285714436
0
ARC
8
0
10
6.773351120798253
20
67.624658292046
40
1
50
-115.7582990810249
51
-96.48015961708113
0
ARC
8
0
10
6.27914139497779
20
66.58638656733994
40
0.15
50
66.57426511403098
51
149.14285714285617
0
ARC
8
0
10
44.55705365732896
20
44.566976063914154
40
44.3093840657307
50
150.08708067543645
51
150.77006218170757
0
ARC
8
0
10
6.021803734871804
20
66.1328639310157
40
0.15
50
151.7142857142869
51
-125.71712225688901
0
ARC
8
0
10
5.383980436627228
20
65.17608137074612
40
1
50
37.3373024742226
51
56.61544193816657
0
ARC
8
0
10
5.725260522154712
20
65.46306955215391
40
0.555
50
-28.285714285714636
51
35.149234537207306
0
ARC
8
0
10
5.725260522154712
20
65.46306955215391
40
0.555
50
-91.7206631086363
51
-28.285714285714636
0
ARC
8
0
10
5.776763013544982
20
65.90599370641284
40
1
50
-113.18687050959602
51
-93.90873104565229
0
ARC
8
0
10
5.329632808819735
20
64.84659481673908
40
0.15
50
69.14569368545914
51
151.71428571428672
0
ARC
8
0
10
44.55689887723968
20
44.56668843431166
40
44.3093840657307
50
152.65850924686453
51
153.34149075313564
0
ARC
8
0
10
5.0929014867526785
20
64.38198343706816
40
0.15
50
154.28571428571288
51
-123.14569368545756
0
ARC
8
0
10
4.498646321376686
20
63.39754845910183
40
1
50
39.90873104565288
51
59.18687050959643
0
ARC
8
0
10
4.826707084495786
20
63.69955913564673
40
0.555
50
-25.71428571428565
51
37.72066310863631
0
ARC
8
0
10
4.826707084495785
20
63.69955913564673
40
0.555
50
-89.14923453720762
51
-25.71428571428561
0
ARC
8
0
10
4.858285999265267
20
64.14434794529393
40
1
50
-110.61544193816573
51
-91.33730247422199
0
ARC
8
0
10
4.45913577636231
20
63.065955379028686
40
0.15
50
71.71712225688606
51
154.28571428571288
0
ARC
8
0
10
44.55675715745728
20
44.56639415015118
40
44.3093840657307
50
155.2299378182935
51
155.91291932456457
0
ARC
8
0
10
4.2434875377120385
20
62.59119092149808
40
0.15
50
156.85714285714272
51
-120.57426511402882
0
ARC
8
0
10
3.693997256022621
20
61.58108604686946
40
1
50
42.48015961708056
51
61.75829908102434
0
ARC
8
0
10
4.008178026015631
20
61.897511009241256
40
0.555
50
-23.142857142856922
51
40.2920916800646
0
ARC
8
0
10
4.00817802601563
20
61.897511009241256
40
0.555
50
-86.5778059657787
51
-23.142857142856887
0
ARC
8
0
10
4.0197697684326466
20
62.343268728807764
40
1
50
-108.04401336673897
51
-88.7658739027952
0
ARC
8
0
10
3.669403362780889
20
61.24805422506419
40
0.15
50
74.28855082831488
51
156.85714285714266
0
ARC
8
0
10
44.55662878338604
20
44.56609380408091
40
44.3093840657307
50
157.80136638972186
51
158.48434789599298
0
ARC
8
0
10
3.475272494400973
20
60.7640928021084
40
0.15
50
159.4285714285702
51
-118.00283654260174
0
ARC
8
0
10
2.971653696697861
20
59.73035224760757
40
1
50
45.05158818850999
51
64.32972765245356
0
ARC
8
0
10
3.2713217553060057
20
60.06055425804273
40
0.555
50
-20.571428571429074
51
42.86352025149397
0
ARC
8
0
10
3.271321755306005
20
60.06055425804273
40
0.555
50
-84.00637739435072
51
-20.57142857142906
0
ARC
8
0
10
3.262902981143944
20
60.506383190803945
40
1
50
-105.4725847953101
51
-86.19444533136637
0
ARC
8
0
10
2.9620259840567242
20
59.39655236583854
40
0.15
50
76.85997939974493
51
159.4285714285757
0
ARC
8
0
10
44.556514013554384
20
44.56578800095808
40
44.3093840657307
50
160.37279496115013
51
161.05577646742125
0
ARC
8
0
10
2.7898034396806413
20
58.90436861135657
40
0.15
50
162.00000000000117
51
-115.43140797117314
0
ARC
8
0
10
2.3330703471994716
20
57.849074192887386
40
1
50
47.62301675993748
51
66.90115622388127
0
ARC
8
0
10
2.6176222028333433
20
58.192388268481025
40
0.555
50
-17.999999999999506
51
45.43494882292211
0
ARC
8
0
10
2.617622202833344
20
58.192388268481025
40
0.555
50
-81.43494882292187
51
-17.999999999999517
0
ARC
8
0
10
2.5892098663829675
20
58.63739057429845
40
1
50
-102.90115622388046
51
-83.62301675993668
0
ARC
8
0
10
2.338428204090926
20
57.51517847969349
40
0.15
50
79.43140797117297
51
162.0000000000011
0
ARC
8
0
10
44.556413079093666
20
44.56547735663
40
44.3093840657307
50
162.94422353257892
51
163.62720503884998
0
ARC
8
0
10
2.1884608170032482
20
57.01576358626582
40
0.15
50
164.5714285714293
51
-112.85997939974479
0
ARC
8
0
10
1.7795332294090516
20
55.94104052634573
40
1
50
50.19444533136591
51
69.47258479530974
0
ARC
8
0
10
2.0483958325003058
20
56.29677527823875
40
0.555
50
-15.428571428571734
51
48.006377394351205
0
ARC
8
0
10
2.048395832500306
20
56.29677527823875
40
0.555
50
-78.86352025149358
51
-15.428571428571747
0
ARC
8
0
10
2.0000471524260552
20
56.74005478169055
40
1
50
-100.3297276524521
51
-81.05158818850838
0
ARC
8
0
10
1.7998658658223419
20
55.607721403257635
40
0.15
50
82.00283654260096
51
164.57142857142912
0
ARC
8
0
10
44.5563261832723
20
44.56516249669256
40
44.3093840657307
50
165.5156521040075
51
166.19863361027865
0
ARC
8
0
10
1.67245565038257
20
55.10208112601606
40
0.15
50
167.1428571428572
51
-110.28855082831467
0
ARC
8
0
10
1.3121570934156082
20
54.01009377386075
40
1
50
52.76587390279495
51
72.04401336673865
0
ARC
8
0
10
1.5647889904625507
20
54.37753279960497
40
0.555
50
-12.857142857142941
51
50.577805965779255
0
ARC
8
0
10
1.5647889904625507
20
54.37753279960497
40
0.555
50
-76.29209168006467
51
-12.857142857142941
0
ARC
8
0
10
1.4966013345717313
20
54.81819679476399
40
1
50
-97.75829908102376
51
-78.48015961707993
0
ARC
8
0
10
1.3474235621269173
20
53.678022501233386
40
0.15
50
84.57426511402966
51
167.1428571428572
0
ARC
8
0
10
44.55625350108681
20
44.56484405523139
40
44.3093840657307
50
168.0870806754356
51
168.7700621817067
0
ARC
8
0
10
1.2428271055528854
20
53.16717513240444
40
0.15
50
169.71428571428572
51
-107.71712225688682
0
ARC
8
0
10
0.931883172557392
20
52.06012260521663
40
1
50
55.3373024742226
51
74.61544193816646
0
ARC
8
0
10
1.1677755965403114
20
52.43852593151392
40
0.555
50
-10.28571428571348
51
53.149234537208464
0
ARC
8
0
10
1.167775596540313
20
52.43852593151394
40
0.555
50
-73.72066310863681
51
-10.285714285714953
0
ARC
8
0
10
1.0798862856972713
20
52.875686979738646
40
1
50
-95.18687050959443
51
-75.90873104565061
0
ARC
8
0
10
0.982012451592106
20
51.72996793040012
40
0.15
50
87.14569368545823
51
169.7142857142857
0
ARC
8
0
10
44.55619517890975
20
44.56452267354662
40
44.3093840657307
50
170.65850924686492
51
171.341490753136
0
ARC
8
0
10
0.9004403972273827
20
51.21494224859967
40
0.15
50
172.28571428571564
51
-105.1456936854583
0
ARC
8
0
10
0.6394772879032027
20
50.09505400283964
40
1
50
57.908731045652175
51
77.1868705095959
0
ARC
8
0
10
0.8581551828733467
20
50.48365957574978
40
0.555
50
-7.714285714285706
51
55.720663108636735
0
ARC
8
0
10
0.8581551828733459
20
50.483659575749776
40
0.555
50
-71.14923453720753
51
-7.714285714284968
0
ARC
8
0
10
0.750741214453645
20
50.91643729286762
40
1
50
-92.61544193816833
51
-73.33730247422461
0
ARC
8
0
10
0.7043684235646546
20
49.76748081341125
40
0.15
50
89.71712225688736
51
172.28571428571837
0
ARC
8
0
10
44.55615133419395
20
44.56419899885681
40
44.3093840657307
50
173.22993781829362
51
173.9129193245648
0
ARC
8
0
10
0.6459850466708972
20
49.249314011821426
40
0.15
50
174.85714285714423
51
-102.57426511402979
0
ARC
8
0
10
0.4355283059905348
20
48.11884535337847
40
1
50
60.48015961708053
51
79.75829908102432
0
ARC
8
0
10
0.636551283769681
20
48.516870572994264
40
0.555
50
-5.142857142856388
51
58.29209168006479
0
ARC
8
0
10
0.636551283769681
20
48.516870572994264
40
0.555
50
-68.57780596577881
51
-5.142857142856388
0
ARC
8
0
10
0.5098289752107024
20
48.94439340227812
40
1
50
-90.04401336673762
51
-70.76587390279373
0
ARC
8
0
10
0.5150506161674027
20
47.794513338147375
40
0.15
50
92.28855082831568
51
174.85714285714423
0
ARC
8
0
10
44.55612205523681
20
44.56387368299912
40
44.3093840657307
50
175.80136638972112
51
176.48434789599216
0
ARC
8
0
10
0.4799734930958597
20
47.27424893574767
40
0.15
50
177.42857142857116
51
-100.00283654260095
0
ARC
8
0
10
0.3204469529269232
20
46.135476478054144
40
1
50
63.05158818850986
51
82.32972765245353
0
ARC
8
0
10
0.5034101799904855
20
46.54211977455353
40
0.555
50
-2.5714285714287586
51
60.86352025149431
0
ARC
8
0
10
0.5034101799904858
20
46.542119774553534
40
0.555
50
-66.00637739435112
51
-2.5714285714294927
0
ARC
8
0
10
0.3576347331571724
20
46.963526741921115
40
1
50
-87.47258479530988
51
-68.19444533136613
0
ARC
8
0
10
0.41444029026953466
20
45.81503879853609
40
0.15
50
94.85997939974425
51
177.4285714285739
0
ARC
8
0
10
44.55610740100249
20
44.563547381119015
40
44.3093840657307
50
178.37279496115056
51
179.05577646742168
0
ARC
8
0
10
0.4027400616779293
20
45.29372453859471
40
0.15
50
180
51
-97.43140797117235
0
ARC
8
0
10
0.29446498724209935
20
44.14894161782958
40
1
50
65.62301675993865
51
84.90115622388227
0
ARC
8
0
10
0.45899999999999563
20
44.56338406573056
40
0.555
50
7.335333319411353e-13
51
63.43494882292231
0
ARC
8
0
10
0.45899999999999574
20
44.56338406573056
40
0.555
50
-63.43494882292201
51
7.335333319411353e-13
0
ARC
8
0
10
0.29446498724208314
20
44.97782651363153
40
1
50
-84.9011562238811
51
-65.62301675993729
0
ARC
8
0
10
0.40274006167793364
20
43.8330435928664
40
0.15
50
97.43140797117267
51
180
0
ARC
8
0
10
44.556107401002485
20
44.563220750342545
40
44.3093840657307
50
-179.0557764674211
51
-178.37279496114996
0
ARC
8
0
10
0.41444029026954365
20
43.311729332925005
40
0.15
50
-177.4285714285739
51
-94.85997939974388
0
ARC
8
0
10
0.35763473315720384
20
42.16324138953998
40
1
50
68.19444533136739
51
87.47258479531109
0
ARC
8
0
10
0.5034101799904998
20
42.584648356907564
40
0.555
50
2.5714285714287586
51
66.00637739435143
0
ARC
8
0
10
0.5034101799904995
20
42.58464835690757
40
0.555
50
-60.86352025149399
51
2.5714285714280254
0
ARC
8
0
10
0.3204469529269212
20
42.99129165340694
40
1
50
-82.32972765245232
51
-63.05158818850849
0
ARC
8
0
10
0.4799734930958791
20
41.85251919571342
40
0.15
50
100.0028365426013
51
-177.42857142857116
0
ARC
8
0
10
44.556122055236855
20
44.56289444846165
40
44.3093840657307
50
-176.48434789599256
51
-175.8013663897215
0
ARC
8
0
10
0.5150506161674178
20
41.33225479331371
40
0.15
50
-174.85714285714147
51
-92.28855082831501
0
ARC
8
0
10
0.5098289752107197
20
40.18237472918296
40
1
50
70.7658739027937
51
90.04401336673763
0
ARC
8
0
10
0.6365512837697032
20
40.60989755846682
40
0.555
50
5.1428571428571255
51
68.57780596577923
0
ARC
8
0
10
0.6365512837697028
20
40.60989755846682
40
0.555
50
-58.29209168006454
51
5.142857142857123
0
ARC
8
0
10
0.43552830599055853
20
41.007922778082616
40
1
50
-79.75829908102418
51
-60.48015961708048
0
ARC
8
0
10
0.6459850466709237
20
39.87745411963966
40
0.15
50
102.57426511402996
51
-174.85714285714147
0
ARC
8
0
10
44.55615133419386
20
44.56256913260533
40
44.3093840657307
50
-173.91291932456338
51
-173.22993781829226
0
ARC
8
0
10
0.7043684235646914
20
39.359287318049844
40
0.15
50
-172.2857142857156
51
-89.71712225688668
0
ARC
8
0
10
0.7507412144536837
20
38.21033083859347
40
1
50
73.33730247422461
51
92.61544193816833
0
ARC
8
0
10
0.8581551828733888
20
38.64310855571131
40
0.555
50
7.714285714285699
51
71.14923453720814
0
ARC
8
0
10
0.8581551828733887
20
38.64310855571131
40
0.555
50
-55.720663108636
51
7.714285714285698
0
ARC
8
0
10
0.6394772879032475
20
39.03171412862146
40
1
50
-77.18687050959582
51
-57.90873104565213
0
ARC
8
0
10
0.9004403972274295
20
37.91182588286143
40
0.15
50
105.14569368545838
51
-172.28571428571288
0
ARC
8
0
10
44.55619517890973
20
44.562245457914926
40
44.3093840657307
50
-171.3414907531354
51
-170.6585092468643
0
ARC
8
0
10
0.9820124515921584
20
37.39680020106097
40
0.15
50
-169.7142857142857
51
-87.1456936854579
0
ARC
8
0
10
1.079886285697345
20
36.251081151722445
40
1
50
75.90873104565186
51
95.18687050959558
0
ARC
8
0
10
1.1677755965403624
20
36.68824219994717
40
0.555
50
10.285714285714226
51
73.72066310863623
0
ARC
8
0
10
1.1677755965403633
20
36.68824219994716
40
0.555
50
-53.14923453720736
51
10.285714285714965
0
ARC
8
0
10
0.9318831725574688
20
37.06664552624447
40
1
50
-74.61544193816734
51
-55.33730247422362
0
ARC
8
0
10
1.2428271055529476
20
35.95959299905666
40
0.15
50
107.71712225688731
51
-169.71428571428572
0
ARC
8
0
10
44.556253501086914
20
44.5619240762295
40
44.3093840657307
50
-168.77006218170695
51
-168.08708067543589
0
ARC
8
0
10
1.3474235621269763
20
35.44874563022771
40
0.15
50
-167.1428571428572
51
-84.57426511402922
0
ARC
8
0
10
1.4966013345717912
20
34.308571336697106
40
1
50
78.4801596170799
51
97.75829908102375
0
ARC
8
0
10
1.5647889904626222
20
34.74923533185613
40
0.555
50
12.85714285714295
51
76.29209168006578
0
ARC
8
0
10
1.564788990462621
20
34.74923533185613
40
0.555
50
-50.57780596577954
51
12.857142857142925
0
ARC
8
0
10
1.3121570934156739
20
35.11667435760034
40
1
50
-72.04401336673841
51
-52.76587390279465
0
ARC
8
0
10
1.6724556503826389
20
34.02468700544504
40
0.15
50
110.28855082831507
51
-167.1428571428572
0
ARC
8
0
10
44.55632618327221
20
44.56160563476915
40
44.3093840657307
50
-166.19863361027782
51
-165.51565210400673
0
ARC
8
0
10
1.7998658658224078
20
33.5190467282035
40
0.15
50
-164.57142857142912
51
-82.00283654260053
0
ARC
8
0
10
2.000047152426143
20
32.38671334977059
40
1
50
81.05158818850956
51
100.32972765245336
0
ARC
8
0
10
2.048395832500368
20
32.82999285322239
40
0.555
50
15.428571428570981
51
78.86352025149306
0
ARC
8
0
10
2.04839583250037
20
32.829992853222386
40
0.555
50
-48.006377394349975
51
15.428571428571747
0
ARC
8
0
10
1.7795332294091257
20
33.18572760511541
40
1
50
-69.47258479530973
51
-50.19444533136591
0
ARC
8
0
10
2.1884608170033224
20
32.11100454519532
40
0.15
50
112.85997939974463
51
-164.57142857142648
0
ARC
8
0
10
44.55641307909377
20
44.561290774831036
40
44.3093840657307
50
-163.62720503885006
51
-162.94422353257897
0
ARC
8
0
10
2.338428204091012
20
31.611589651767606
40
0.15
50
-161.99999999999972
51
-79.4314079711723
0
ARC
8
0
10
2.5892098663830763
20
30.489377557162648
40
1
50
83.62301675993784
51
102.90115622388169
0
ARC
8
0
10
2.6176222028334375
20
30.934379862980073
40
0.555
50
18.00000000000026
51
81.43494882292246
0
ARC
8
0
10
2.6176222028334375
20
30.934379862980073
40
0.555
50
-45.43494882292178
51
18.00000000000026
0
ARC
8
0
10
2.333070347199566
20
31.277693938573716
40
1
50
-66.90115622388117
51
-47.62301675993745
0
ARC
8
0
10
2.7898034396807367
20
30.22239952010453
40
0.15
50
115.43140797117228
51
-161.99999999999966
0
ARC
8
0
10
44.55651401355439
20
44.560980130503275
40
44.3093840657307
50
-161.0557764674209
51
-160.3727949611498
0
ARC
8
0
10
2.962025984056817
20
29.730215765622578
40
0.15
50
-159.42857142857153
51
-76.85997939974426
0
ARC
8
0
10
3.2629029811440398
20
28.620384940657168
40
1
50
86.19444533136637
51
105.47258479531011
0
ARC
8
0
10
3.2713217553061034
20
29.066213873418384
40
0.555
50
20.571428571428665
51
84.00637739435096
0
ARC
8
0
10
3.2713217553061043
20
29.06621387341838
40
0.555
50
-42.863520251493185
51
20.57142857142904
0
ARC
8
0
10
2.971653696697948
20
29.396415883853532
40
1
50
-64.32972765245255
51
-45.051588188508795
0
ARC
8
0
10
3.4752724944010773
20
28.362675329352705
40
0.15
50
118.00283654260141
51
-159.42857142857147
0
ARC
8
0
10
44.556628783385904
20
44.560674327380795
40
44.3093840657307
50
-158.4843478959922
51
-157.80136638972107
0
ARC
8
0
10
3.669403362780999
20
27.878713906396925
40
0.15
50
-156.85714285714272
51
-74.28855082831488
0
ARC
8
0
10
4.019769768432746
20
26.783499402653344
40
1
50
88.76587390279458
51
108.04401336673833
0
ARC
8
0
10
4.008178026015745
20
27.229257122219853
40
0.555
50
23.142857142857295
51
86.57780596577925
0
ARC
8
0
10
4.008178026015746
20
27.22925712221985
40
0.555
50
-40.29209168006425
51
23.142857142857668
0
ARC
8
0
10
3.6939972560227288
20
27.545682084591643
40
1
50
-61.758299081023736
51
-42.48015961707993
0
ARC
8
0
10
4.243487537712158
20
26.535577209963026
40
0.15
50
120.57426511403008
51
-156.85714285714286
0
ARC
8
0
10
44.55675715745698
20
44.56037398131086
40
44.3093840657307
50
-155.91291932456326
51
-155.22993781829214
0
ARC
8
0
10
4.459135776362444
20
26.060812752432415
40
0.15
50
-154.28571428571576
51
-71.71712225688704
0
ARC
8
0
10
4.85828599926543
20
24.982420186167182
40
1
50
91.33730247422382
51
110.61544193816762
0
ARC
8
0
10
4.826707084495924
20
25.427208995814386
40
0.555
50
25.714285714286103
51
89.14923453720844
0
ARC
8
0
10
4.826707084495923
20
25.427208995814386
40
0.555
50
-37.72066310863631
51
25.714285714286063
0
ARC
8
0
10
4.498646321376808
20
25.72921967235927
40
1
50
-59.186870509595245
51
-39.90873104565154
0
ARC
8
0
10
5.092901486752821
20
24.74478469439295
40
0.15
50
123.14569368545843
51
-154.28571428571425
0
ARC
8
0
10
44.55689887723974
20
44.56007969714962
40
44.3093840657307
50
-153.34149075313542
51
-152.65850924686433
0
ARC
8
0
10
5.329632808819863
20
24.280173314722052
40
0.15
50
-151.7142857142849
51
-69.14569368545772
0
ARC
8
0
10
5.7767630135451125
20
23.2207744250483
40
1
50
93.90873104565223
51
113.18687050959609
0
ARC
8
0
10
5.725260522154849
20
23.663698579307233
40
0.555
50
28.285714285714725
51
91.72066310863686
0
ARC
8
0
10
5.725260522154849
20
23.663698579307233
40
0.555
50
-35.149234537207604
51
28.285714285714725
0
ARC
8
0
10
5.383980436627368
20
23.950686760715026
40
1
50
-56.61544193816666
51
-37.337302474222874
0
ARC
8
0
10
6.021803734871941
20
22.993904200445435
40
0.15
50
125.71712225688795
51
-151.7142857142852
0
ARC
8
0
10
44.5570536573289
20
44.559792067547335
40
44.3093840657307
50
-150.77006218170706
51
-150.08708067543597
0
ARC
8
0
10
6.279141394977927
20
22.5403815641212
40
0.15
50
-149.142857142857
51
-66.57426511402898
0
ARC
8
0
10
6.773351120798384
20
21.502109839415144
40
1
50
96.4801596170807
51
115.75829908102445
0
ARC
8
0
10
6.702028771950936
20
21.942277347984643
40
0.555
50
30.857142857143494
51
94.29209168006545
0
ARC
8
0
10
6.7020287719509355
20
21.942277347984643
40
0.555
50
-32.577805965778886
51
30.85714285714344
0
ARC
8
0
10
6.3482166566888925
20
22.21366507825113
40
1
50
-54.04401336673807
51
-34.76587390279422
0
ARC
8
0
10
7.028323596562561
20
21.286461768423507
40
0.15
50
128.28855082831612
51
-149.14285714285717
0
ARC
8
0
10
44.55722118601792
20
44.55951167175169
40
44.3093840657307
50
-148.19863361027816
51
-147.51565210400705
0
ARC
8
0
10
7.305749350907222
20
20.8449412096795
40
0.15
50
-146.57142857142878
51
-64.00283654260089
0
ARC
8
0
10
7.846043325205814
20
19.829887591018768
40
1
50
99.05158818850923
51
118.32972765245303
0
ARC
8
0
10
7.755044752619996
20
20.26641201511522
40
0.555
50
33.42857142857157
51
96.86352025149418
0
ARC
8
0
10
7.7550447526199955
20
20.26641201511522
40
0.555
50
-30.006377394350476
51
33.428571428571516
0
ARC
8
0
10
7.389413138137286
20
20.52165275546864
40
1
50
-51.47258479530983
51
-32.19444533136618
0
ARC
8
0
10
8.110434074773558
20
19.625895960154324
40
0.15
50
130.85997939974436
51
-146.57142857142745
0
ARC
8
0
10
44.5574011259266
20
44.55923907444199
40
44.3093840657307
50
-145.62720503884952
51
-144.94422353257843
0
ARC
8
0
10
8.407389224808174
20
19.197266642637164
40
0.15
50
-143.9999999999992
51
-61.431407971171545
0
ARC
8
0
10
8.992679367424415
20
18.207475312923734
40
1
50
101.62301675993798
51
120.90115622388184
0
ARC
8
0
10
8.88218783011508
20
18.639477550450827
40
0.555
50
36.00000000000034
51
99.43494882292286
0
ARC
8
0
10
8.882187830115079
20
18.639477550450827
40
0.555
50
-27.434948822921843
51
36.000000000000234
0
ARC
8
0
10
8.505473049824046
20
18.87805728000821
40
1
50
-48.90115622388099
51
-29.6230167599372
0
ARC
8
0
10
9.265955943011907
20
18.0155509341833
40
0.15
50
133.43140797117263
51
-143.99999999999963
0
ARC
8
0
10
44.55759311467972
20
44.55897482459327
40
44.3093840657307
50
-143.05577646742069
51
-142.37279496114957
0
ARC
8
0
10
9.581842460583912
20
17.60067606029531
40
0.15
50
-141.42857142857125
51
-58.85997939974304
0
ARC
8
0
10
10.210950075062525
20
16.638140327543194
40
1
50
104.19444533136709
51
123.47258479531087
0
ARC
8
0
10
10.081188088281298
20
17.06475038348654
40
0.555
50
38.57142857142869
51
102.00637739435072
0
ARC
8
0
10
10.0811880882813
20
17.064750383486537
40
0.555
50
-24.86352025149285
51
38.57142857142909
0
ARC
8
0
10
9.69414879561526
20
17.286188634423375
40
1
50
-46.32972765245225
51
-27.05158818850838
0
ARC
8
0
10
10.492562134014891
20
16.45866971108375
40
0.15
50
136.0028365426021
51
-141.42857142857125
0
ARC
8
0
10
44.5577967656375
20
44.55871945436947
40
44.3093840657307
50
-140.48434789599168
51
-139.80136638972058
0
ARC
8
0
10
10.826743865716862
20
16.05838478360836
40
0.15
50
-138.85714285714286
51
-56.28855082831606
0
ARC
8
0
10
11.498402013045565
20
15.125043066686526
40
1
50
106.76587390279518
51
126.04401336673895
0
ARC
8
0
10
11.349630900164783
20
15.545401805167849
40
0.555
50
41.14285714285746
51
104.57780596577972
0
ARC
8
0
10
11.349630900164783
20
15.54540180516785
40
0.555
50
-22.292091680064846
51
41.14285714285732
0
ARC
8
0
10
10.953046540750956
20
15.749252630316338
40
1
50
-43.758299081023594
51
-24.480159617079817
0
ARC
8
0
10
11.787782426153766
20
14.958387642445205
40
0.15
50
138.57426511402974
51
-138.85714285714238
0
ARC
8
0
10
44.55801166867476
20
44.55847347805139
40
44.3093840657307
50
-137.91291932456403
51
-137.2299378182929
0
ARC
8
0
10
12.139586374451852
20
14.573498781955342
40
0.15
50
-136.28571428571408
51
-53.71712225688641
0
ARC
8
0
10
12.852442424507966
20
13.671230706870107
40
1
50
109.33730247422358
51
128.61544193816732
0
ARC
8
0
10
12.684961790750112
20
14.084491581332548
40
0.555
50
43.714285714286426
51
107.14923453720824
0
ARC
8
0
10
12.684961790750112
20
14.084491581332548
40
0.555
50
-19.72066310863579
51
43.714285714286426
0
ARC
8
0
10
12.279631032709872
20
14.270344452259852
40
1
50
-41.18687050959529
51
-21.90873104565147
0
ARC
8
0
10
13.149008418131503
20
13.517726096692389
40
0.15
50
141.145693685458
51
-136.28571428571456
0
ARC
8
0
10
44.55823739100414
20
44.558237391004056
40
44.3093840657307
50
-135.34149075313522
51
-134.65850924686416
0
ARC
8
0
10
13.517726096692826
20
13.14900841813107
40
0.15
50
-133.71428571428544
51
-51.145693685457076
0
ARC
8
0
10
14.270344452260298
20
12.279631032709446
40
1
50
111.90873104565212
51
131.1868705095958
0
ARC
8
0
10
14.084491581332994
20
12.684961790749686
40
0.555
50
46.285714285714754
51
109.72066310863696
0
ARC
8
0
10
14.084491581332994
20
12.684961790749686
40
0.555
50
-17.149234537207477
51
46.285714285714754
0
ARC
8
0
10
13.67123070687055
20
12.852442424507533
40
1
50
-38.61544193816653
51
-19.337302474222685
0
ARC
8
0
10
14.573498781955795
20
12.139586374451431
40
0.15
50
143.71712225688736
51
-133.71428571428595
0
ARC
8
0
10
44.55847347805151
20
44.558011668674645
40
44.3093840657307
50
-132.7700621817065
51
-132.0870806754354
0
ARC
8
0
10
14.958387642445672
20
11.787782426153338
40
0.15
50
-131.14285714285663
51
-48.57426511402877
0
ARC
8
0
10
15.74925263031682
20
10.953046540750542
40
1
50
114.48015961708084
51
133.7582990810246
0
ARC
8
0
10
15.54540180516832
20
11.349630900164364
40
0.555
50
48.85714285714268
51
112.29209168006525
0
ARC
8
0
10
15.54540180516832
20
11.349630900164364
40
0.555
50
-14.577805965778944
51
48.85714285714268
0
ARC
8
0
10
15.125043066686992
20
11.498402013045133
40
1
50
-36.04401336673766
51
-16.76587390279398
0
ARC
8
0
10
16.05838478360884
20
10.82674386571645
40
0.15
50
146.28855082831666
51
-131.1428571428562
0
ARC
8
0
10
44.558719454369054
20
44.557796765637846
40
44.3093840657307
50
-130.19863361027794
51
-129.51565210400682
0
ARC
8
0
10
16.458669711084227
20
10.492562134014499
40
0.15
50
-128.57142857142875
51
-46.00283654260062
0
ARC
8
0
10
17.28618863442387
20
9.694148795614883
40
1
50
117.05158818850975
51
136.32972765245339
0
ARC
8
0
10
17.06475038348702
20
10.081188088280918
40
0.555
50
51.428571428571836
51
114.8635202514941
0
ARC
8
0
10
17.06475038348702
20
10.081188088280918
40
0.555
50
-12.006377394350354
51
51.428571428571836
0
ARC
8
0
10
16.638140327543667
20
10.21095007506212
40
1
50
-33.472584795309025
51
-14.194445331365394
0
ARC
8
0
10
17.6006760602958
20
9.581842460583536
40
0.15
50
148.85997939974362
51
-128.57142857142875
0
ARC
8
0
10
44.55897482459312
20
44.55759311467983
40
44.3093840657307
50
-127.62720503884943
51
-126.94422353257829
0
ARC
8
0
10
18.01555093418379
20
9.265955943011539
40
0.15
50
-125.99999999999889
51
-43.43140797117313
0
ARC
8
0
10
18.87805728000871
20
8.505473049823687
40
1
50
119.62301675993814
51
138.90115622388186
0
ARC
8
0
10
18.639477550451325
20
8.882187830114718
40
0.555
50
54.00000000000068
51
117.43494882292308
0
ARC
8
0
10
18.639477550451325
20
8.88218783011472
40
0.555
50
-9.43494882292214
51
54.000000000000576
0
ARC
8
0
10
18.207475312924227
20
8.992679367424053
40
1
50
-30.901156223881188
51
-11.623016759937444
0
ARC
8
0
10
19.19726664263767
20
8.407389224807824
40
0.15
50
151.43140797117337
51
-125.99999999999889
0
ARC
8
0
10
44.55923907444203
20
44.557401125926575
40
44.3093840657307
50
-125.05577646742083
51
-124.37279496114974
0
ARC
8
0
10
19.62589596015483
20
8.110434074773211
40
0.15
50
-123.42857142857143
51
-40.859979399742464
0
ARC
8
0
10
20.521652755469155
20
7.389413138136949
40
1
50
122.19444533136662
51
141.47258479531035
0
ARC
8
0
10
20.26641201511573
20
7.755044752619659
40
0.555
50
56.57142857142894
51
120.00637739435093
0
ARC
8
0
10
20.266412015115733
20
7.755044752619658
40
0.555
50
-6.8635202514929095
51
56.5714285714293
0
ARC
8
0
10
19.82988759101928
20
7.846043325205477
40
1
50
-28.32972765245232
51
-9.051588188508536
0
ARC
8
0
10
20.84494120968002
20
7.305749350906894
40
0.15
50
154.0028365426009
51
-123.42857142857123
0
ARC
8
0
10
44.55951167175141
20
44.557221186018104
40
44.3093840657307
50
-122.48434789599173
51
-121.8013663897206
0
ARC
8
0
10
21.286461768424047
20
7.02832359656223
40
0.15
50
-120.85714285714302
51
-38.28855082831448
0
ARC
8
0
10
22.213665078251683
20
6.348216656688582
40
1
50
124.76587390279549
51
144.04401336673922
0
ARC
8
0
10
21.942277347985183
20
6.702028771950614
40
0.555
50
59.14285714285696
51
122.57780596577935
0
ARC
8
0
10
21.942277347985186
20
6.702028771950613
40
0.555
50
-4.292091680064266
51
59.14285714285734
0
ARC
8
0
10
21.502109839415688
20
6.77335112079806
40
1
50
-25.758299081023846
51
-6.480159617080024
0
ARC
8
0
10
22.540381564121752
20
6.279141394977616
40
0.15
50
156.57426511403042
51
-120.85714285714285
0
ARC
8
0
10
44.559792067547576
20
44.55705365732876
40
44.3093840657307
50
-119.91291932456362
51
-119.22993781829251
0
ARC
8
0
10
22.993904200445986
20
6.021803734871632
40
0.15
50
-118.28571428571344
51
-35.71712225688606
0
ARC
8
0
10
23.950686760715588
20
5.383980436627073
40
1
50
127.33730247422363
51
146.6154419381674
0
ARC
8
0
10
23.66369857930779
20
5.7252605221545485
40
0.555
50
61.71428571428602
51
125.14923453720837
0
ARC
8
0
10
23.66369857930779
20
5.725260522154547
40
0.555
50
-1.7206631086357496
51
61.71428571428609
0
ARC
8
0
10
23.22077442504886
20
5.776763013544811
40
1
50
-23.18687050959549
51
-3.9087310456516717
0
ARC
8
0
10
24.280173314722617
20
5.329632808819575
40
0.15
50
159.14569368545946
51
-118.2857142857133
0
ARC
8
0
10
44.56007969715006
20
44.55689887723952
40
44.3093840657307
50
-117.34149075313549
51
-116.65850924686443
0
ARC
8
0
10
24.744784694393516
20
5.092901486752533
40
0.15
50
-115.71428571428562
51
-33.14569368545786
0
ARC
8
0
10
25.729219672359847
20
4.498646321376537
40
1
50
129.90873104565256
51
149.1868705095963
0
ARC
8
0
10
25.42720899581495
20
4.826707084495644
40
0.555
50
64.28571428571435
51
127.72066310863677
0
ARC
8
0
10
25.427208995814954
20
4.826707084495643
40
0.555
50
0.8507654627927526
51
64.28571428571472
0
ARC
8
0
10
24.98242018616775
20
4.85828599926514
40
1
50
-20.61544193816637
51
-1.337302474222643
0
ARC
8
0
10
26.06081275243299
20
4.459135776362174
40
0.15
50
161.71712225688674
51
-115.71428571428577
0
ARC
8
0
10
44.560373981310036
20
44.55675715745736
40
44.3093840657307
50
-114.77006218170585
51
-114.08708067543478
0
ARC
8
0
10
26.535577209963606
20
4.243487537711905
40
0.15
50
-113.1428571428573
51
-30.57426511402851
0
ARC
8
0
10
27.545682084592237
20
3.6939972560224987
40
1
50
132.48015961708134
51
151.75829908102506
0
ARC
8
0
10
27.229257122220428
20
4.008178026015503
40
0.555
50
66.85714285714275
51
130.2920916800648
0
ARC
8
0
10
27.22925712222044
20
4.0081780260155
40
0.555
50
3.4221940342218775
51
66.85714285714387
0
ARC
8
0
10
26.783499402653927
20
4.019769768432502
40
1
50
-18.04401336673772
51
1.2341260972059833
0
ARC
8
0
10
27.878713906397515
20
3.6694033627807654
40
0.15
50
164.2885508283156
51
-113.1428571428586
0
ARC
8
0
10
44.56067432738112
20
44.55662878338577
40
44.3093840657307
50
-112.1986336102786
51
-111.5156521040075
0
ARC
8
0
10
28.362675329353273
20
3.475272494400854
40
0.15
50
-110.57142857142848
51
-28.00283654260065
0
ARC
8
0
10
29.396415883854104
20
2.9716536966977323
40
1
50
135.05158818850904
51
154.32972765245293
0
ARC
8
0
10
29.066213873418953
20
3.2713217553058884
40
0.555
50
69.42857142857174
51
132.86352025149364
0
ARC
8
0
10
29.066213873418956
20
3.271321755305887
40
0.555
50
5.993622605650189
51
69.42857142857214
0
ARC
8
0
10
28.620384940657743
20
3.2629029811438235
40
1
50
-15.47258479530953
51
3.8055546686342825
0
ARC
8
0
10
29.730215765623154
20
2.9620259840566123
40
0.15
50
166.8599793997446
51
-110.57142857142848
0
ARC
8
0
10
44.5609801305029
20
44.556514013554526
40
44.3093840657307
50
-109.62720503884891
51
-108.94422353257777
0
ARC
8
0
10
30.222399520105128
20
2.7898034396805356
40
0.15
50
-107.99999999999896
51
-25.431407971171794
0
ARC
8
0
10
31.277693938574316
20
2.3330703471993774
40
1
50
137.62301675993808
51
156.90115622388186
0
ARC
8
0
10
30.93437986298067
20
2.6176222028332443
40
0.555
50
72.00000000000014
51
135.43494882292237
0
ARC
8
0
10
30.934379862980677
20
2.617622202833243
40
0.555
50
8.565051177078683
51
72.00000000000088
0
ARC
8
0
10
30.489377557163248
20
2.589209866382893
40
1
50
-12.90115622388167
51
6.3769832400621285
0
ARC
8
0
10
31.611589651768206
20
2.338428204090832
40
0.15
50
169.43140797117363
51
-107.9999999999975
0
ARC
8
0
10
44.56129077483142
20
44.556413079093666
40
44.3093840657307
50
-107.05577646742073
51
-106.37279496114964
0
ARC
8
0
10
32.111004545195904
20
2.188460817003148
40
0.15
50
-105.4285714285709
51
-22.859979399742624
0
ARC
8
0
10
33.18572760511601
20
1.7795332294089727
40
1
50
140.19444533136715
51
159.4725847953109
0
ARC
8
0
10
32.829992853222976
20
2.048395832500211
40
0.555
50
74.57142857142902
51
138.00637739435126
0
ARC
8
0
10
32.829992853222976
20
2.0483958325002116
40
0.555
50
11.136479748507039
51
74.57142857142902
0
ARC
8
0
10
32.38671334977117
20
2.000047152425967
40
1
50
-10.32972765245209
51
8.94841181149163
0
ARC
8
0
10
33.51904672820409
20
1.7998658658222546
40
0.15
50
172.00283654260127
51
-105.42857142857089
0
ARC
8
0
10
44.561605634769215
20
44.55632618327219
40
44.3093840657307
50
-104.48434789599258
51
-103.80136638972154
0
ARC
8
0
10
34.024687005445585
20
1.6724556503825023
40
0.15
50
-102.85714285714005
51
-20.288550828314893
0
ARC
8
0
10
35.116674357600886
20
1.312157093415526
40
1
50
142.76587390279377
51
162.04401336673777
0
ARC
8
0
10
34.74923533185669
20
1.564788990462491
40
0.555
50
77.14285714285856
51
140.57780596578033
0
ARC
8
0
10
34.74923533185668
20
1.564788990462492
40
0.555
50
13.707908319935179
51
77.14285714285782
0
ARC
8
0
10
34.30857133669766
20
1.4966013345716704
40
1
50
-7.758299081023702
51
11.51984038292011
0
ARC
8
0
10
35.44874563022827
20
1.3474235621268593
40
0.15
50
174.57426511403042
51
-102.85714285714005
0
ARC
8
0
10
44.561924076229865
20
44.556253501086836
40
44.3093840657307
50
-101.91291932456387
51
-101.2299378182928
0
ARC
8
0
10
35.95959299905722
20
1.242827105552831
40
0.15
50
-100.28571428571428
51
-17.71712225688641
0
ARC
8
0
10
37.06664552624503
20
0.931883172557357
40
1
50
145.33730247422366
51
164.6154419381675
0
ARC
8
0
10
36.68824219994773
20
1.1677755965402612
40
0.555
50
79.71428571428653
51
143.14923453720866
0
ARC
8
0
10
36.68824219994773
20
1.1677755965402616
40
0.555
50
16.279336891363904
51
79.71428571428653
0
ARC
8
0
10
36.251081151723014
20
1.0798862856972251
40
1
50
-5.186870509594422
51
14.091268954349378
0
ARC
8
0
10
37.39680020106154
20
0.9820124515920606
40
0.15
50
177.14569368545853
51
-100.28571428571432
0
ARC
8
0
10
44.56224545791457
20
44.55619517890978
40
44.3093840657307
50
-99.34149075313448
51
-98.65850924686342
0
ARC
8
0
10
37.91182588286199
20
0.900440397227343
40
0.15
50
-97.71428571428439
51
-15.14569368545797
0
ARC
8
0
10
39.03171412862202
20
0.6394772879031647
40
1
50
147.9087310456522
51
167.186870509596
0
ARC
8
0
10
38.643108555711876
20
0.85815518287331
40
0.555
50
82.28571428571503
51
145.72066310863687
0
ARC
8
0
10
38.643108555711876
20
0.8581551828733103
40
0.555
50
18.850765462792786
51
82.28571428571503
0
ARC
8
0
10
38.21033083859404
20
0.7507412144535917
40
1
50
-2.615441938167107
51
16.66269752577664
0
ARC
8
0
10
39.35928731805041
20
0.7043684235646231
40
0.15
50
179.71712225688765
51
-97.71428571428164
0
ARC
8
0
10
44.562569132605
20
44.55615133419389
40
44.3093840657307
50
-96.77006218170658
51
-96.08708067543554
0
ARC
8
0
10
39.87745411964017
20
0.6459850466708716
40
0.15
50
-95.14285714285853
51
-12.574265114029282
0
ARC
8
0
10
41.00792277808313
20
0.43552830599052955
40
1
50
150.48015961708165
51
169.7582990810254
0
ARC
8
0
10
40.609897558467324
20
0.6365512837696605
40
0.555
50
84.85714285714214
51
148.29209168006508
0
ARC
8
0
10
40.60989755846733
20
0.6365512837696602
40
0.555
50
21.422194034221423
51
84.85714285714288
0
ARC
8
0
10
40.18237472918347
20
0.5098289752106836
40
1
50
-0.04401336673756736
51
19.2341260972063
0
ARC
8
0
10
41.33225479331422
20
0.5150506161673852
40
0.15
50
-177.71144917168405
51
-95.1428571428558
0
ARC
8
0
10
44.56289444846158
20
44.55612205523686
40
44.3093840657307
50
-94.19863361027775
51
-93.5156521040066
0
ARC
8
0
10
41.852519195713974
20
0.4799734930958492
40
0.15
50
-92.57142857142884
51
-10.00283654260065
0
ARC
8
0
10
42.9912916534075
20
0.3204469529269136
40
1
50
153.05158818850987
51
172.32972765245356
0
ARC
8
0
10
42.58464835690811
20
0.5034101799904711
40
0.555
50
87.42857142857125
51
150.8635202514935
0
ARC
8
0
10
42.58464835690812
20
0.503410179990471
40
0.555
50
23.99362260565015
51
87.42857142857197
0
ARC
8
0
10
42.16324138954053
20
0.3576347331571683
40
1
50
2.527415204690106
51
21.80555466863385
0
ARC
8
0
10
43.31172933292556
20
0.4144402902695306
40
0.15
50
-175.14002060025558
51
-92.57142857142884
0
ARC
8
0
10
44.563220750342744
20
44.55610740100248
40
44.3093840657307
50
-91.6272050388496
51
-90.94422353257855
0
ARC
8
0
10
43.833043592866886
20
0.4027400616779251
40
0.15
50
-90
51
-7.431407971172041
0
ARC
8
0
10
44.97782651363202
20
0.2944649872420977
40
1
50
155.62301675993868
51
174.90115622388237
0
ARC
8
0
10
44.563384065731036
20
0.4589999999999958
40
0.555
50
90
51
153.43494882292254
0
ARC
8
0
10
44.563384065731036
20
0.45899999999999574
40
0.555
50
26.565051177078196
51
90
0
ARC
8
0
10
44.14894161783007
20
0.2944649872420854
40
1
50
5.098843776118903
51
24.37698324006271
0
ARC
8
0
10
45.29372453859519
20
0.4027400616779369
40
0.15
50
-172.5685920288271
51
-90
0
ARC
8
0
10
44.563547381118845
20
44.55610740100249
40
44.3093840657307
50
-89.05577646742081
51
-88.3727949611498
0
ARC
8
0
10
45.81503879853652
20
0.4144402902695481
40
0.15
50
-87.42857142857389
51
-4.859979399743657
0
ARC
8
0
10
46.96352674192155
20
0.3576347331572084
40
1
50
158.19444533136735
51
177.47258479531106
0
ARC
8
0
10
46.54211977455396
20
0.5034101799904995
40
0.555
50
92.57142857142877
51
156.00637739435095
0
ARC
8
0
10
46.54211977455396
20
0.5034101799904998
40
0.555
50
29.136479748507167
51
92.57142857142877
0
ARC
8
0
10
46.135476478054585
20
0.32044695292693026
40
1
50
7.670272347547705
51
26.948411811491503
0
ARC
8
0
10
47.274248935748105
20
0.4799734930958891
40
0.15
50
-169.99716345739847
51
-87.42857142857117
0
ARC
8
0
10
44.56387368299926
20
44.55612205523683
40
44.3093840657307
50
-86.48434789599179
51
-85.80136638972064
0
ARC
8
0
10
47.79451333814785
20
0.5150506161674375
40
0.15
50
-84.85714285714148
51
-2.2885508283149085
0
ARC
8
0
10
48.9443934022786
20
0.5098289752107599
40
1
50
160.76587390279494
51
-179.95598663326123
0
ARC
8
0
10
48.51687057299473
20
0.6365512837697238
40
0.555
50
95.1428571428564
51
158.57780596577936
0
ARC
8
0
10
48.51687057299474
20
0.6365512837697244
40
0.555
50
31.707908319935584
51
95.14285714285712
0
ARC
8
0
10
48.118845353378944
20
0.43552830599058107
40
1
50
10.241700918975855
51
29.519840382919543
0
ARC
8
0
10
49.2493140118219
20
0.6459850466709472
40
0.15
50
-167.4257348859699
51
-84.85714285714148
0
ARC
8
0
10
44.564198998856675
20
44.55615133419393
40
44.3093840657307
50
-83.91291932456397
51
-83.22993781829292
0
ARC
8
0
10
49.76748081341166
20
0.7043684235647034
40
0.15
50
-82.28571428571561
51
0.2828777431135711
0
ARC
8
0
10
50.91643729286803
20
0.7507412144536965
40
1
50
163.33730247422463
51
-177.38455806183168
0
ARC
8
0
10
50.483659575750195
20
0.8581551828734041
40
0.555
50
97.71428571428646
51
161.14923453720843
0
ARC
8
0
10
50.483659575750195
20
0.858155182873404
40
0.555
50
34.27933689136402
51
97.71428571428646
0
ARC
8
0
10
50.09505400284006
20
0.6394772879032451
40
1
50
12.813129490405306
51
32.091268954349175
0
ARC
8
0
10
51.21494224860008
20
0.9004403972274458
40
0.15
50
-164.8543063145415
51
-82.2857142857129
0
ARC
8
0
10
44.564522673546335
20
44.55619517890971
40
44.3093840657307
50
-81.34149075313508
51
-80.65850924686404
0
ARC
8
0
10
51.72996793040049
20
0.9820124515921703
40
0.15
50
-79.7142857142857
51
2.8543063145422836
0
ARC
8
0
10
52.875686979739015
20
1.079886285697358
40
1
50
165.90873104565185
51
-174.81312949040438
0
ARC
8
0
10
52.43852593151429
20
1.1677755965403753
40
0.555
50
100.28571428571348
51
163.72066310863624
0
ARC
8
0
10
52.4385259315143
20
1.1677755965403767
40
0.555
50
36.8507654627928
51
100.28571428571425
0
ARC
8
0
10
52.06012260521699
20
0.9318831725574838
40
1
50
15.384558061832717
51
34.662697525776395
0
ARC
8
0
10
53.1671751324048
20
1.2428271055529636
40
0.15
50
-162.28287774311272
51
-79.71428571428572
0
ARC
8
0
10
44.56484405523172
20
44.556253501086886
40
44.3093840657307
50
-78.77006218170665
51
-78.0870806754355
0
ARC
8
0
10
53.67802250123379
20
1.3474235621270036
40
0.15
50
-77.1428571428572
51
5.425734885970777
0
ARC
8
0
10
54.8181967947644
20
1.4966013345718185
40
1
50
168.48015961707992
51
-172.24170091897625
0
ARC
8
0
10
54.377532799605376
20
1.5647889904626433
40
0.555
50
102.85714285714296
51
166.29209168006517
0
ARC
8
0
10
54.37753279960538
20
1.5647889904626435
40
0.555
50
39.422194034221484
51
102.85714285714367
0
ARC
8
0
10
54.010093773861165
20
1.3121570934157036
40
1
50
17.955986633261578
51
37.234126097205326
0
ARC
8
0
10
55.102081126016465
20
1.6724556503826704
40
0.15
50
-159.71144917168425
51
-77.14285714285992
0
ARC
8
0
10
44.56516249669293
20
44.55632618327238
40
44.3093840657307
50
-76.1986336102786
51
-75.51565210400756
0
ARC
8
0
10
55.60772140325796
20
1.7998658658224218
40
0.15
50
-74.57142857142912
51
7.997163457399388
0
ARC
8
0
10
56.74005478169087
20
2.000047152426157
40
1
50
171.05158818850956
51
-169.67027234754667
0
ARC
8
0
10
56.296775278239075
20
2.0483958325003897
40
0.555
50
105.4285714285717
51
168.863520251494
0
ARC
8
0
10
56.296775278239075
20
2.04839583250039
40
0.555
50
41.993622605649634
51
105.42857142857173
0
ARC
8
0
10
55.94104052634605
20
1.779533229409139
40
1
50
20.527415204690367
51
39.805554668634144
0
ARC
8
0
10
57.01576358626614
20
2.1884608170033375
40
0.15
50
-157.14002060025538
51
-74.5714285714265
0
ARC
8
0
10
44.565477356629586
20
44.55641307909354
40
44.3093840657307
50
-73.62720503884896
51
-72.94422353257794
0
ARC
8
0
10
57.515178479693795
20
2.33842820409102
40
0.15
50
-72.00000000000112
51
10.568592028827531
0
ARC
8
0
10
58.637390574298756
20
2.589209866383063
40
1
50
173.6230167599367
51
-167.09884377611957
0
ARC
8
0
10
58.19238826848133
20
2.617622202833446
40
0.555
50
108.0000000000003
51
171.4349488229226
0
ARC
8
0
10
58.19238826848133
20
2.6176222028334455
40
0.555
50
44.56505117707793
51
108.00000000000028
0
ARC
8
0
10
57.84907419288769
20
2.3330703471995733
40
1
50
23.098843776118844
51
42.37698324006257
0
ARC
8
0
10
58.90436861135687
20
2.789803439680746
40
0.15
50
-154.56859202882654
51
-72.00000000000117
0
ARC
8
0
10
44.56578800095847
20
44.55651401355452
40
44.3093840657307
50
-71.05577646742135
51
-70.37279496115022
0
ARC
8
0
10
59.39655236583885
20
2.9620259840568286
40
0.15
50
-69.42857142856995
51
13.140020600257047
0
ARC
8
0
10
60.50638319080426
20
3.262902981144054
40
1
50
176.19444533136638
51
-164.52741520468987
0
ARC
8
0
10
60.06055425804304
20
3.271321755306119
40
0.555
50
110.57142857142907
51
174.00637739435112
0
ARC
8
0
10
60.06055425804304
20
3.2713217553061185
40
0.555
50
47.13647974850682
51
110.57142857142904
0
ARC
8
0
10
59.73035224760789
20
2.9716536966979623
40
1
50
25.67027234754749
51
44.9484118114912
0
ARC
8
0
10
60.76409280210871
20
3.475272494401092
40
0.15
50
-151.99716345739796
51
-69.4285714285702
0
ARC
8
0
10
44.56609380408068
20
44.55662878338594
40
44.3093840657307
50
-68.48434789599224
51
-67.80136638972121
0
ARC
8
0
10
61.24805422506444
20
3.669403362780992
40
0.15
50
-66.85714285714272
51
15.711449171685114
0
ARC
8
0
10
62.34326872880802
20
4.019769768432749
40
1
50
178.76587390279514
51
-161.9559866332611
0
ARC
8
0
10
61.89751100924151
20
4.008178026015747
40
0.555
50
113.14285714285771
51
176.5778059657802
0
ARC
8
0
10
61.897511009241505
20
4.008178026015745
40
0.555
50
49.70790831993449
51
113.14285714285697
0
ARC
8
0
10
61.581086046869714
20
3.6939972560227283
40
1
50
28.241700918975845
51
47.51984038291952
0
ARC
8
0
10
62.59119092149834
20
4.24348753771215
40
0.15
50
-149.4257348859709
51
-66.85714285714259
0
ARC
8
0
10
44.5663941501513
20
44.55675715745732
40
44.3093840657307
50
-65.91291932456437
51
-65.22993781829328
0
ARC
8
0
10
63.06595537902895
20
4.4591357763624275
40
0.15
50
-64.28571428571287
51
18.282877743113936
0
ARC
8
0
10
64.14434794529419
20
4.8582859992654255
40
1
50
-178.6626975257757
51
-159.38455806183194
0
ARC
8
0
10
63.69955913564698
20
4.826707084495903
40
0.555
50
115.71428571428478
51
179.14923453720763
0
ARC
8
0
10
63.69955913564698
20
4.8267070844959035
40
0.555
50
52.27933689136461
51
115.71428571428484
0
ARC
8
0
10
63.3975484591021
20
4.498646321376783
40
1
50
30.813129490405334
51
50.09126895434932
0
ARC
8
0
10
64.38198343706841
20
5.092901486752805
40
0.15
50
-146.85430631454187
51
-64.28571428571287
0
ARC
8
0
10
44.56668843431146
20
44.55689887723958
40
44.3093840657307
50
-63.341490753135
51
-62.65850924686392
0
ARC
8
0
10
64.84659481673931
20
5.329632808819852
40
0.15
50
-61.71428571428672
51
20.85430631454054
0
ARC
8
0
10
65.90599370641307
20
5.776763013545098
40
1
50
-176.09126895434778
51
-156.81312949040398
0
ARC
8
0
10
65.46306955215414
20
5.725260522154833
40
0.555
50
118.28571428571463
51
-178.27933689136336
0
ARC
8
0
10
65.46306955215414
20
5.725260522154834
40
0.555
50
54.85076546279275
51
118.28571428571469
0
ARC
8
0
10
65.17608137074635
20
5.383980436627349
40
1
50
33.38455806183356
51
52.66269752577747
0
ARC
8
0
10
66.13286393101593
20
6.021803734871929
40
0.15
50
-144.28287774311042
51
-61.71428571428688
0
ARC
8
0
10
44.56697606391406
20
44.5570536573289
40
44.3093840657307
50
-60.77006218170709
51
-60.08708067543605
0
ARC
8
0
10
66.58638656734013
20
6.279141394977895
40
0.15
50
-59.14285714285618
51
23.425734885969028
0
ARC
8
0
10
67.62465829204619
20
6.773351120798358
40
1
50
-173.51984038291883
51
-154.24170091897508
0
ARC
8
0
10
67.18449078347669
20
6.7020287719509035
40
0.555
50
120.85714285714265
51
-175.70790831993438
0
ARC
8
0
10
67.18449078347669
20
6.702028771950903
40
0.555
50
57.4221940342206
51
120.85714285714259
0
ARC
8
0
10
66.9131030532102
20
6.348216656688866
40
1
50
35.95598663326124
51
55.23412609720479
0
ARC
8
0
10
67.84030636303783
20
7.028323596562522
40
0.15
50
-141.71144917168527
51
-59.14285714285548
0
ARC
8
0
10
44.56725645971002
20
44.55722118601812
40
44.3093840657307
50
-58.19863361027875
51
-57.515652104007636
0
ARC
8
0
10
68.28182692178183
20
7.3057493509071785
40
0.15
50
-56.57142857142614
51
25.99716345739943
0
ARC
8
0
10
69.29688054044257
20
7.846043325205773
40
1
50
-170.94841181149084
51
-151.67027234754718
0
ARC
8
0
10
68.86035611634611
20
7.755044752619964
40
0.555
50
123.42857142857342
51
-173.13647974850488
0
ARC
8
0
10
68.8603561163461
20
7.755044752619956
40
0.555
50
59.99362260564798
51
123.42857142857174
0
ARC
8
0
10
68.60511537599268
20
7.3894131381372405
40
1
50
38.52741520468996
51
57.805554668633505
0
ARC
8
0
10
69.50087217130701
20
8.11043407477351
40
0.15
50
-139.14002060025754
51
-56.57142857142576
0
ARC
8
0
10
44.56752905701839
20
44.5574011259259
40
44.3093840657307
50
-55.627205038848025
51
-54.94422353257702
0
ARC
8
0
10
69.92950148882412
20
8.407389224808105
40
0.15
50
-53.99999999999882
51
28.56859202882971
0
ARC
8
0
10
70.91929281853754
20
8.992679367424339
40
1
50
-168.37698324006237
51
-149.09884377611863
0
ARC
8
0
10
70.48729058101046
20
8.882187830114997
40
0.555
50
125.9999999999984
51
-170.56505117707863
0
ARC
8
0
10
70.48729058101047
20
8.882187830115006
40
0.555
50
62.56505117707889
51
126.00000000000013
0
ARC
8
0
10
70.24871085145308
20
8.505473049823973
40
1
50
41.098843776119004
51
60.376983240063026
0
ARC
8
0
10
71.111217197278
20
9.265955943011834
40
0.15
50
-136.56859202882734
51
-53.999999999999616
0
ARC
8
0
10
44.56779330686793
20
44.55759311467958
40
44.3093840657307
50
-53.055776467420536
51
-52.37279496114945
0
ARC
8
0
10
71.52609207116595
20
9.581842460583816
40
0.15
50
-51.428571428571665
51
31.140020600255106
0
ARC
8
0
10
72.48862780391806
20
10.210950075062433
40
1
50
-165.80555466863262
51
-146.5274152046887
0
ARC
8
0
10
72.06201774797472
20
10.081188088281195
40
0.555
50
128.57142857142713
51
-167.99362260564993
0
ARC
8
0
10
72.06201774797472
20
10.0811880882812
40
0.555
50
65.13647974850682
51
128.57142857142748
0
ARC
8
0
10
71.8405794970379
20
9.694148795615158
40
1
50
43.6702723475479
51
62.948411811492036
0
ARC
8
0
10
72.66809842037752
20
10.492562134014788
40
0.15
50
-133.9971634573994
51
-51.42857142857082
0
ARC
8
0
10
44.56804867709208
20
44.557796765637626
40
44.3093840657307
50
-50.48434789599214
51
-49.801366389721046
0
ARC
8
0
10
73.06838334785292
20
10.826743865716756
40
0.15
50
-48.85714285714489
51
33.71144917168601
0
ARC
8
0
10
74.00172506477473
20
11.498402013045467
40
1
50
-163.2341260972043
51
-143.95598663326035
0
ARC
8
0
10
73.58136632629342
20
11.349630900164668
40
0.555
50
131.14285714285603
51
-165.42219403422146
0
ARC
8
0
10
73.58136632629342
20
11.349630900164675
40
0.555
50
67.70790831993506
51
131.1428571428565
0
ARC
8
0
10
73.3775155011449
20
10.953046540750861
40
1
50
46.241700918974956
51
65.51984038291803
0
ARC
8
0
10
74.16838048901606
20
11.787782426153653
40
0.15
50
-131.42573488597316
51
-48.85714285713946
0
ARC
8
0
10
44.56829465340972
20
44.55801166867451
40
44.3093840657307
50
-47.912919324563745
51
-47.229937818292726
0
ARC
8
0
10
74.5532693495059
20
12.139586374451717
40
0.15
50
-46.28571428571694
51
36.28287774311114
0
ARC
8
0
10
75.45553742459114
20
12.852442424507817
40
1
50
-160.662697525777
51
-141.38455806183333
0
ARC
8
0
10
75.04227655012869
20
12.684961790749973
40
0.555
50
133.714285714286
51
-162.8507654627914
0
ARC
8
0
10
75.04227655012869
20
12.68496179074997
40
0.555
50
70.27933689136329
51
133.71428571428575
0
ARC
8
0
10
74.85642367920138
20
12.27963103270973
40
1
50
48.813129490404485
51
68.09126895434792
0
ARC
8
0
10
75.60904203476885
20
13.149008418131364
40
0.15
50
-128.85430631453954
51
-46.28571428571648
0
ARC
8
0
10
44.56853074045807
20
44.55823739100488
40
44.3093840657307
50
-45.34149075313685
51
-44.658509246865734
0
ARC
8
0
10
75.97775971333019
20
13.517726096692682
40
0.15
50
-43.714285714283506
51
38.85430631454569
0
ARC
8
0
10
76.8471370987518
20
14.270344452260153
40
1
50
-158.0912689543482
51
-138.81312949040438
0
ARC
8
0
10
76.44180634071157
20
14.084491581332857
40
0.555
50
136.28571428571516
51
-160.2793368913629
0
ARC
8
0
10
76.44180634071157
20
14.084491581332856
40
0.555
50
72.85076546279149
51
136.28571428571502
0
ARC
8
0
10
76.2743257069537
20
13.67123070687041
40
1
50
51.38455806183249
51
70.66269752577598
0
ARC
8
0
10
76.98718175700982
20
14.573498781955648
40
0.15
50
-126.28287774311306
51
-43.714285714284976
0
ARC
8
0
10
44.56875646278693
20
44.55847347805172
40
44.3093840657307
50
-42.77006218170711
51
-42.08708067543603
0
ARC
8
0
10
77.3389857053079
20
14.958387642445501
40
0.15
50
-41.142857142855114
51
41.42573488597545
0
ARC
8
0
10
78.17372159071071
20
15.749252630316633
40
1
50
-155.51984038292053
51
-136.24170091897713
0
ARC
8
0
10
77.77713723129688
20
15.545401805168156
40
0.555
50
138.85714285714295
51
-157.70790831993446
0
ARC
8
0
10
77.77713723129688
20
15.545401805168154
40
0.555
50
75.42219403422013
51
138.8571428571428
0
ARC
8
0
10
77.62836611841611
20
15.125043066686828
40
1
50
53.955986633261936
51
73.23412609720567
0
ARC
8
0
10
78.3000242657448
20
16.05838478360867
40
0.15
50
-123.71144917168283
51
-41.14285714285715
0
ARC
8
0
10
44.56897136582353
20
44.558719454369026
40
44.3093840657307
50
-40.19863361027816
51
-39.51565210400712
0
ARC
8
0
10
78.63420599744673
20
16.458669711084035
40
0.15
50
-38.57142857142601
51
43.9971634573975
0
ARC
8
0
10
79.43261933584638
20
17.286188634423645
40
1
50
-152.94841181149278
51
-133.6702723475492
0
ARC
8
0
10
79.04558004318032
20
17.064750383486835
40
0.555
50
141.4285714285714
51
-155.13647974850568
0
ARC
8
0
10
79.04558004318032
20
17.06475038348683
40
0.555
50
77.99362260564894
51
141.4285714285711
0
ARC
8
0
10
78.91581805639912
20
16.638140327543482
40
1
50
56.52741520469049
51
75.80555466863406
0
ARC
8
0
10
79.5449256708777
20
17.600676060295612
40
0.15
50
-121.14002060025395
51
-38.57142857143152
0
ARC
8
0
10
44.569175016781614
20
44.55897482459321
40
44.3093840657307
50
-37.62720503884986
51
-36.944223532578725
0
ARC
8
0
10
79.8608121884497
20
18.0155509341836
40
0.15
50
-36.00000000000038
51
46.56859202882686
0
ARC
8
0
10
80.62129508163758
20
18.8780572800085
40
1
50
-150.37698324006385
51
-131.09884377612048
0
ARC
8
0
10
80.24458030134653
20
18.639477550451137
40
0.555
50
144.00000000000037
51
-152.56505117707718
0
ARC
8
0
10
80.24458030134653
20
18.639477550451133
40
0.555
50
80.56505117707829
51
144.00000000000009
0
ARC
8
0
10
80.13408876403722
20
18.207475312924036
40
1
50
59.09884377611909
51
78.3769832400638
0
ARC
8
0
10
80.71937890665343
20
19.197266642637477
40
0.15
50
-118.56859202882427
51
-36.00000000000038
0
ARC
8
0
10
44.56936700553458
20
44.55923907444169
40
44.3093840657307
50
-35.0557764674206
51
-34.37279496114956
0
ARC
8
0
10
81.01633405668802
20
19.625895960154605
40
0.15
50
-33.42857142857197
51
49.140020600256136
0
ARC
8
0
10
81.73735499332429
20
20.52165275546892
40
1
50
-147.80555466863365
51
-128.52741520468993
0
ARC
8
0
10
81.37172337884158
20
20.2664120151155
40
0.555
50
146.57142857142816
51
-149.9936226056493
0
ARC
8
0
10
81.37172337884158
20
20.266412015115502
40
0.555
50
83.13647974850673
51
146.57142857142844
0
ARC
8
0
10
81.28072480625576
20
19.829887591019048
40
1
50
61.67027234754756
51
80.94841181149133
0
ARC
8
0
10
81.82101878055434
20
20.844941209679792
40
0.15
50
-115.99716345739608
51
-33.42857142857311
0
ARC
8
0
10
44.569546945443804
20
44.559511671752226
40
44.3093840657307
50
-32.48434789599333
51
-31.801366389722297
0
ARC
8
0
10
82.09844453489897
20
21.286461768423745
40
0.15
50
-30.857142857143188
51
51.71144917168526
0
ARC
8
0
10
82.77855147477264
20
22.21366507825137
40
1
50
-145.23412609720557
51
-125.95598663326197
0
ARC
8
0
10
82.4247393595106
20
21.942277347984888
40
0.555
50
149.14285714285788
51
-147.42219403422033
0
ARC
8
0
10
82.4247393595106
20
21.942277347984884
40
0.555
50
85.70790831993536
51
149.14285714285757
0
ARC
8
0
10
82.35341701066314
20
21.502109839415386
40
1
50
64.24170091897528
51
83.51984038291907
0
ARC
8
0
10
82.8476267364836
20
22.540381564121443
40
0.15
50
-113.42573488597324
51
-30.857142857142016
0
ARC
8
0
10
44.56971447413284
20
44.55979206754793
40
44.3093840657307
50
-29.912919324564584
51
-29.229937818293497
0
ARC
8
0
10
83.1049643965896
20
22.993904200445677
40
0.15
50
-28.28571428571631
51
54.282877743110674
0
ARC
8
0
10
83.74278769483413
20
23.95068676071529
40
1
50
-142.66269752577546
51
-123.38455806183094
0
ARC
8
0
10
83.40150760930668
20
23.66369857930747
40
0.555
50
151.71428571428464
51
-144.85076546279285
0
ARC
8
0
10
83.40150760930669
20
23.66369857930748
40
0.555
50
88.27933689136488
51
151.71428571428598
0
ARC
8
0
10
83.35000511791641
20
23.220774425048546
40
1
50
66.81312949040364
51
86.09126895434777
0
ARC
8
0
10
83.79713532264167
20
24.280173314722298
40
0.15
50
-110.8543063145423
51
-28.285714285713926
0
ARC
8
0
10
44.56986925422119
20
44.560079697148716
40
44.3093840657307
50
-27.341490753134
51
-26.658509246862973
0
ARC
8
0
10
84.03386664470867
20
24.744784694393164
40
0.15
50
-25.714285714286245
51
56.85430631453744
0
ARC
8
0
10
84.62812181008468
20
25.72921967235949
40
1
50
-140.0912689543479
51
-120.81312949040387
0
ARC
8
0
10
84.30006104696558
20
25.427208995814585
40
0.555
50
154.285714285713
51
-142.27933689136552
0
ARC
8
0
10
84.30006104696558
20
25.4272089958146
40
0.555
50
90.85076546279313
51
154.2857142857143
0
ARC
8
0
10
84.26848213219607
20
24.982420186167396
40
1
50
69.38455806183329
51
88.66269752577675
0
ARC
8
0
10
84.66763235509903
20
26.060812752432636
40
0.15
50
-108.28287774310901
51
-25.714285714286245
0
ARC
8
0
10
44.57001097400494
20
44.560373981312026
40
44.3093840657307
50
-24.770062181709196
51
-24.08708067543804
0
ARC
8
0
10
84.88328059374935
20
26.53557720996328
40
0.15
50
-23.142857142854968
51
59.425734885970904
0
ARC
8
0
10
85.43277087543876
20
27.545682084591906
40
1
50
-137.5198403829193
51
-118.2417009189754
0
ARC
8
0
10
85.11859010544575
20
27.229257122220105
40
0.555
50
156.8571428571422
51
-139.70790831993506
0
ARC
8
0
10
85.11859010544575
20
27.22925712222011
40
0.555
50
93.42219403422003
51
156.85714285714258
0
ARC
8
0
10
85.10699836302875
20
26.7834994026536
40
1
50
71.95598663326153
51
91.23412609720528
0
ARC
8
0
10
85.4573647686805
20
27.87871390639718
40
0.15
50
-105.71144917168692
51
-23.14285714285622
0
ARC
8
0
10
44.5701393480747
20
44.560674327378806
40
44.3093840657307
50
-22.198633610275813
51
-21.51565210400473
0
ARC
8
0
10
85.6514956370604
20
28.36267532935295
40
0.15
50
-20.57142857142932
51
61.99716345740055
0
ARC
8
0
10
86.15511443476353
20
29.396415883853777
40
1
50
-134.94841181149104
51
-115.6702723475476
0
ARC
8
0
10
85.85544637615537
20
29.066213873418626
40
0.555
50
159.42857142857164
51
-137.1364797485061
0
ARC
8
0
10
85.85544637615537
20
29.066213873418626
40
0.555
50
95.99362260564982
51
159.42857142857164
0
ARC
8
0
10
85.86386515031745
20
28.620384940657413
40
1
50
74.5274152046907
51
93.80555466863508
0
ARC
8
0
10
86.16474214740465
20
29.730215765622823
40
0.15
50
-103.14002060025312
51
-20.571428571430587
0
ARC
8
0
10
44.57025411790742
20
44.56098013050449
40
44.3093840657307
50
-19.627205038851546
51
-18.944223532580512
0
ARC
8
0
10
86.33696469178072
20
30.222399520104712
40
0.15
50
-17.999999999999154
51
64.56859202882897
0
ARC
8
0
10
86.7936977842619
20
31.277693938573897
40
1
50
-132.37698324006277
51
-113.09884377611914
0
ARC
8
0
10
86.50914592862802
20
30.934379862980258
40
0.555
50
161.99999999999974
51
-134.56505117707783
0
ARC
8
0
10
86.50914592862802
20
30.934379862980258
40
0.555
50
98.56505117707728
51
161.99999999999974
0
ARC
8
0
10
86.53755826507837
20
30.489377557162832
40
1
50
77.09884377611823
51
96.37698324006185
0
ARC
8
0
10
86.78833992737043
20
31.611589651767794
40
0.15
50
-100.56859202882362
51
-18.000000000001734
0
ARC
8
0
10
44.570355052367816
20
44.561290774831704
40
44.3093840657307
50
-17.055776467421673
51
-16.372794961150635
0
ARC
8
0
10
86.93830731445811
20
32.11100454519545
40
0.15
50
-15.428571428571356
51
67.14002060025554
0
ARC
8
0
10
87.34723490205232
20
33.18572760511554
40
1
50
-129.80555466863478
51
-110.52741520469084
0
ARC
8
0
10
87.07837229896106
20
32.82999285322253
40
0.555
50
164.571428571429
51
-131.99362260564877
0
ARC
8
0
10
87.07837229896106
20
32.829992853222514
40
0.555
50
101.13647974850628
51
164.5714285714276
0
ARC
8
0
10
87.12672097903531
20
32.38671334977072
40
1
50
79.67027234754777
51
98.94841181149195
0
ARC
8
0
10
87.32690226563902
20
33.51904672820364
40
0.15
50
-97.99716345739633
51
-15.428571428573976
0
ARC
8
0
10
44.570441948188964
20
44.561605634768306
40
44.3093840657307
50
-14.484347895991961
51
-13.801366389720872
0
ARC
8
0
10
87.45431248107877
20
34.02468700544517
40
0.15
50
-12.857142857142817
51
69.7114491716859
0
ARC
8
0
10
87.81461103804575
20
35.11667435760047
40
1
50
-127.23412609720567
51
-107.95598663326264
0
ARC
8
0
10
87.56197914099882
20
34.749235331856255
40
0.555
50
167.14285714285646
51
-129.42219403422217
0
ARC
8
0
10
87.56197914099882
20
34.74923533185626
40
0.555
50
103.70790831993686
51
167.1428571428572
0
ARC
8
0
10
87.63016679688963
20
34.30857133669724
40
1
50
82.2417009189761
51
101.51984038292042
0
ARC
8
0
10
87.77934456933444
20
35.44874563022785
40
0.15
50
-95.42573488596986
51
-12.857142857142817
0
ARC
8
0
10
44.57051463037494
20
44.561924076231676
40
44.3093840657307
50
-11.912919324566827
51
-11.229937818295692
0
ARC
8
0
10
87.8839410259085
20
35.95959299905683
40
0.15
50
-10.285714285713976
51
72.2828777431144
0
ARC
8
0
10
88.19488495890398
20
37.06664552624464
40
1
50
-124.66269752577753
51
-105.38455806183327
0
ARC
8
0
10
87.95899253492105
20
36.688242199947354
40
0.555
50
169.71428571428729
51
-126.85076546279025
0
ARC
8
0
10
87.95899253492105
20
36.68824219994733
40
0.555
50
106.27933689136242
51
169.71428571428513
0
ARC
8
0
10
88.0468818457641
20
36.25108115172262
40
1
50
84.81312949040564
51
104.09126895434957
0
ARC
8
0
10
88.14475567986928
20
37.39680020106115
40
0.15
50
-92.85430631454496
51
-10.285714285713976
0
ARC
8
0
10
44.57057295255137
20
44.56224545791307
40
44.3093840657307
50
-9.341490753133034
51
-8.658509246862003
0
ARC
8
0
10
88.22632773423398
20
37.911825882861564
40
0.15
50
-7.714285714286891
51
74.85430631454481
0
ARC
8
0
10
88.48729084355817
20
39.03171412862159
40
1
50
-122.09126895434865
51
-102.81312949040546
0
ARC
8
0
10
88.26861294858801
20
38.64310855571144
40
0.555
50
172.28571428571348
51
-124.27933689136371
0
ARC
8
0
10
88.26861294858803
20
38.64310855571146
40
0.555
50
108.85076546279367
51
172.28571428571513
0
ARC
8
0
10
88.37602691700772
20
38.21033083859361
40
1
50
87.38455806183231
51
106.66269752577557
0
ARC
8
0
10
88.42239970789672
20
39.35928731804999
40
0.15
50
-90.28287774311859
51
-7.714285714284203
0
ARC
8
0
10
44.570616797267604
20
44.56256913260589
40
44.3093840657307
50
-6.770062181708277
51
-6.087080675437233
0
ARC
8
0
10
88.48078308479049
20
39.877454119639744
40
0.15
50
-5.142857142858548
51
77.42573488597064
0
ARC
8
0
10
88.69123982547083
20
41.0079227780827
40
1
50
-119.51984038291901
51
-100.24170091897466
0
ARC
8
0
10
88.49021684769168
20
40.60989755846691
40
0.555
50
174.85714285714366
51
-121.70790831993395
0
ARC
8
0
10
88.49021684769168
20
40.60989755846689
40
0.555
50
111.42219403421812
51
174.85714285714147
0
ARC
8
0
10
88.6169391562507
20
40.182374729183046
40
1
50
89.95598663326348
51
109.23412609720658
0
ARC
8
0
10
88.61171751529398
20
41.332254793313794
40
0.15
50
-87.71144917168417
51
-5.142857142858548
0
ARC
8
0
10
44.570646076224584
20
44.5628944484624
40
44.3093840657307
50
-4.198633610279374
51
-3.5156521040082933
0
ARC
8
0
10
88.64679463836552
20
41.8525191957135
40
0.15
50
-2.5714285714288017
51
79.99716345739962
0
ARC
8
0
10
88.80632117853447
20
42.99129165340702
40
1
50
-116.94841181149152
51
-97.67027234754764
0
ARC
8
0
10
88.6233579514709
20
42.58464835690765
40
0.555
50
177.428571428572
51
-119.13647974850579
0
ARC
8
0
10
88.6233579514709
20
42.58464835690764
40
0.555
50
113.9936226056489
51
177.42857142857127
0
ARC
8
0
10
88.76913339830419
20
42.163241389540055
40
1
50
92.52741520468882
51
111.80555466863291
0
ARC
8
0
10
88.71232784119185
20
43.31172933292508
40
0.15
50
-85.14002060025514
51
-2.5714285714260905
0
ARC
8
0
10
44.57066073045892
20
44.563220750342765
40
44.3093840657307
50
-1.6272050388502157
51
-0.944223532579181
0
ENDSEC
0
EOF