0
SECTION
2
HEADER
9
$INSUNITS
70
4
0
ENDSEC
0
SECTION
2
ENTITIES
0
CIRCLE
8
0
10
57.29577951308232
20
57.29577951308232
40
1.5
0
ARC
8
0
10
114.18881896448671
20
56.565439040218166
40
0.15
50
0
51
82.5685920288323
0
ARC
8
0
10
114.29709403892255
20
57.71022196098329
40
1
50
-114.37698324006256
51
-95.09884377611891
0
ARC
8
0
10
114.13255902616466
20
57.295779513082316
40
0.555
50
179.99999999999923
51
-116.56505117707964
0
ARC
8
0
10
114.13255902616466
20
57.29577951308233
40
0.555
50
116.56505117707964
51
-179.99999999999923
0
ARC
8
0
10
114.29709403892255
20
56.881337065181356
40
1
50
95.09884377611891
51
114.37698324006256
0
ARC
8
0
10
114.1888189644867
20
58.02611998594648
40
0.15
50
-82.5685920288269
51
0
0
ARC
8
0
10
57.301713812624094
20
57.29588309666576
40
57.041779513082325
50
0.733508580178186
51
1.2664914198225556
0
ARC
8
0
10
114.17964977697581
20
58.55142238663065
40
0.15
50
1.9999999999992344
51
84.56859202882762
0
ARC
8
0
10
114.24790654539348
20
59.69928668217468
40
1
50
-112.37698324006212
51
-93.09884377611847
0
ARC
8
0
10
114.09793559576366
20
59.279354512279916
40
0.555
50
-178.0000000000001
51
-114.56505117707849
0
ARC
8
0
10
114.09793559576366
20
59.279354512279916
40
0.555
50
118.56505117707785
51
-178.0000000000001
0
ARC
8
0
10
114.27683421108127
20
58.87090672065553
40
1
50
97.09884377611765
51
116.37698324006159
0
ARC
8
0
10
114.12867274712697
20
60.011213524993096
40
0.15
50
-80.56859202882885
51
1.9999999999992344
0
ARC
8
0
10
57.30170658259429
20
57.296090137631566
40
57.041779513082325
50
2.7335085801793566
51
3.266491419823723
0
ARC
8
0
10
114.10117635583687
20
60.53587592561866
40
0.15
50
3.9999999999976703
51
86.56859202882643
0
ARC
8
0
10
114.1293316578782
20
61.685423100112416
40
1
50
-110.37698324006172
51
-91.09884377611827
0
ARC
8
0
10
113.99410748787733
20
61.260512830887286
40
0.555
50
-176.0000000000002
51
-112.5650511770777
0
ARC
8
0
10
113.99410748787733
20
61.260512830887286
40
0.555
50
120.5650511770783
51
-176.0000000000002
0
ARC
8
0
10
114.18715174534911
20
60.85855732625703
40
1
50
99.0988437761181
51
118.37698324006223
0
ARC
8
0
10
113.99928440379763
20
61.99299872597673
40
0.15
50
-78.5685920288243
51
4.000000000000379
0
ARC
8
0
10
57.30169213134318
20
57.29629680015119
40
57.041779513082325
50
4.733508580178526
51
5.266491419822907
0
ARC
8
0
10
113.95349430884562
20
62.516381906226584
40
0.15
50
6.000000000003546
51
88.5685920288307
0
ARC
8
0
10
113.94151384161206
20
63.666211413512116
40
1
50
-108.37698324006243
51
-89.09884377611911
0
ARC
8
0
10
113.8212012010616
20
63.23684073266727
40
0.555
50
-174.00000000000009
51
-110.56505117707792
0
ARC
8
0
10
113.8212012010616
20
63.23684073266726
40
0.555
50
122.56505117707736
51
-174.00000000000082
0
ARC
8
0
10
114.028155905996
20
62.84186723589703
40
1
50
101.09884377611847
51
120.37698324006165
0
ARC
8
0
10
113.8008115742643
20
63.969061088900624
40
0.15
50
-76.5685920288315
51
6.000000000000845
0
ARC
8
0
10
57.30167047647703
20
57.296502832439664
40
57.041779513082325
50
6.7335085801742
51
7.266491419818556
0
ARC
8
0
10
113.73678356382769
20
64.49052738699062
40
0.15
50
7.999999999996272
51
90.56859202883177
0
ARC
8
0
10
113.6846819236731
20
65.63923833693096
40
1
50
-106.37698324006182
51
-87.0988437761181
0
ARC
8
0
10
113.5794273949928
20
65.2059303665015
40
0.555
50
-172.0000000000007
51
-108.5650511770766
0
ARC
8
0
10
113.5794273949928
20
65.20593036650149
40
0.555
50
124.56505117707542
51
-172.00000000000216
0
ARC
8
0
10
113.80004040496087
20
64.81842009195613
40
1
50
103.09884377612151
51
122.37698324006504
0
ARC
8
0
10
113.53349606709739
20
65.9369930861646
40
0.15
50
-74.56859202882971
51
8.000000000001648
0
ARC
8
0
10
57.30164164438088
20
57.29670798346362
40
57.041779513082325
50
8.733508580181326
51
9.266491419825698
0
ARC
8
0
10
113.45130814944403
20
66.45590717573627
40
0.15
50
9.999999999992696
51
92.5685920288235
0
ARC
8
0
10
113.3591488141913
20
67.60210004098425
40
1
50
-104.376983240059
51
-85.09884377611596
0
ARC
8
0
10
113.26908063381123
20
67.16538269998618
40
0.555
50
-170.00000000000102
51
-106.56505117707778
0
ARC
8
0
10
113.26908063381123
20
67.1653826999862
40
0.555
50
126.5650511770781
51
-169.9999999999996
0
ARC
8
0
10
113.50308316584302
20
66.78580776924379
40
1
50
105.09884377611964
51
124.3769832400637
0
ARC
8
0
10
113.19766356506553
20
67.8943970957667
40
0.15
50
-72.5685920288293
51
9.999999999998986
0
ARC
8
0
10
57.30160567017931
20
57.29691200329928
40
57.041779513082325
50
10.733508580178457
51
11.26649141982281
0
ARC
8
0
10
113.0974158735131
20
68.41012675993443
40
0.15
50
11.999999999999561
51
94.56859202882576
0
ARC
8
0
10
112.96531112511626
20
69.55240508104124
40
1
50
-102.37698324006324
51
-83.09884377612016
0
ARC
8
0
10
112.89053902724012
20
69.11281044228345
40
0.555
50
-168.000000000001
51
-104.56505117707717
0
ARC
8
0
10
112.89053902724012
20
69.11281044228345
40
0.555
50
128.56505117707803
51
-168.000000000001
0
ARC
8
0
10
113.13764598529572
20
68.74163330892809
40
1
50
107.09884377611846
51
126.37698324006249
0
ARC
8
0
10
112.79372322834146
20
69.83888832243616
40
0.15
50
-70.56859202883065
51
11.999999999999561
0
ARC
8
0
10
57.301562597703985
20
57.29711464336401
40
57.041779513082325
50
12.733508580181764
51
13.266491419826135
0
ARC
8
0
10
112.6755378992601
20
70.35080522404627
40
0.15
50
13.999999999999089
51
96.56859202882434
0
ARC
8
0
10
112.50364868700582
20
71.48777731083214
40
1
50
-100.37698324006276
51
-81.09884377611942
0
ARC
8
0
10
112.44426376991721
20
71.04584095266756
40
0.555
50
-165.9999999999998
51
-102.56505117707745
0
ARC
8
0
10
112.44426376991721
20
71.04584095266756
40
0.555
50
130.56505117707727
51
-165.9999999999998
0
ARC
8
0
10
112.70417409223217
20
70.68351383886079
40
1
50
109.0988437761191
51
128.37698324006257
0
ARC
8
0
10
112.3221671960032
20
71.76809770313923
40
0.15
50
-68.56859202882441
51
13.999999999999089
0
ARC
8
0
10
57.301512479428794
20
57.29731565678671
40
57.041779513082325
50
14.73350858017625
51
15.266491419820614
0
ARC
8
0
10
112.18618822001142
20
72.27557815030184
40
0.15
50
16.000000000005542
51
98.56859202883342
0
ARC
8
0
10
111.97472396442731
20
73.40585877741614
40
1
50
-98.37698324006371
51
-79.09884377612003
0
ARC
8
0
10
111.93079857950015
20
72.96211913122212
40
0.555
50
-164.0000000000006
51
-100.56505117707906
0
ARC
8
0
10
111.93079857950013
20
72.96211913122212
40
0.555
50
132.5650511770771
51
-164.0000000000002
0
ARC
8
0
10
112.20319560538279
20
72.60908347673993
40
1
50
111.0988437761191
51
130.3769832400626
0
ARC
8
0
10
111.78356998643858
20
73.67967479341745
40
0.15
50
-66.56859202883061
51
15.99999999999361
0
ARC
8
0
10
57.30145537641942
20
57.29751479864642
40
57.041779513082325
50
16.733508580179556
51
17.26649141982393
0
ARC
8
0
10
111.62996303297257
20
74.18210049937908
40
0.15
50
17.999999999999154
51
100.56859202882339
0
ARC
8
0
10
111.37918137068051
20
75.30431259398404
40
1
50
-96.37698324006189
51
-77.09884377611819
0
ARC
8
0
10
111.35076903423015
20
74.85931028816661
40
0.555
50
-162.00000000000043
51
-98.56505117707734
0
ARC
8
0
10
111.35076903423015
20
74.85931028816661
40
0.555
50
134.56505117707783
51
-162.00000000000043
0
ARC
8
0
10
111.63532088986402
20
74.51599621257296
40
1
50
113.09884377611824
51
132.37698324006163
0
ARC
8
0
10
111.17858779738286
20
75.57129063104215
40
0.15
50
-64.56859202882839
51
17.999999999999154
0
ARC
8
0
10
57.30139135824323
20
57.297711826333426
40
57.041779513082325
50
18.733508580177144
51
19.26649141982153
0
ARC
8
0
10
111.00754001285414
20
76.06804946747285
40
0.15
50
20.00000000000167
51
102.56859202882758
0
ARC
8
0
10
110.71774648267964
20
77.18082578699472
40
1
50
-94.37698324005963
51
-75.09884377611662
0
ARC
8
0
10
110.70488181076149
20
76.73510298831617
40
0.555
50
-160.00000000000014
51
-96.56505117707705
0
ARC
8
0
10
110.70488181076149
20
76.73510298831617
40
0.555
50
136.56505117707832
51
-160.00000000000014
0
ARC
8
0
10
111.00124181354235
20
76.40192876692873
40
1
50
115.09884377611803
51
134.3769832400629
0
ARC
8
0
10
110.50795770644308
20
77.44064057349632
40
0.15
50
-62.56859202882625
51
20.00000000000167
0
ARC
8
0
10
57.301320502899266
20
57.29790649979105
40
57.041779513082325
50
20.73350858017829
51
21.266491419822643
0
ARC
8
0
10
110.31967748622917
20
77.93112731627369
40
0.15
50
22.00000000000133
51
104.56859202882373
0
ARC
8
0
10
109.99122515694957
20
79.0331121141772
40
1
50
-92.37698324006301
51
-73.09884377611873
0
ARC
8
0
10
109.9939238231846
20
78.58721186720939
40
0.555
50
-157.99999999999923
51
-94.56505117707627
0
ARC
8
0
10
109.99392382318462
20
78.58721186720938
40
0.555
50
138.56505117707655
51
-158.00000000000114
0
ARC
8
0
10
110.30173090409986
20
78.26458342149537
40
1
50
117.09884377612079
51
136.37698324006416
0
ARC
8
0
10
109.77249677308235
20
79.28544710582634
40
0.15
50
-60.56859202883121
51
21.999999999996295
0
ARC
8
0
10
57.30124289671347
20
57.2980985818414
40
57.041779513082325
50
22.73350858018117
51
23.266491419825552
0
ARC
8
0
10
109.56721350762923
20
79.76906417240801
40
0.15
50
24.000000000002586
51
106.56859202882482
0
ARC
8
0
10
109.2005025478135
20
80.85891484996463
40
1
50
-90.37698324006175
51
-71.09884377611829
0
ARC
8
0
10
109.21876126429272
20
80.41338041547284
40
0.555
50
-155.99999999999986
51
-92.56505117707887
0
ARC
8
0
10
109.21876126429272
20
80.41338041547286
40
0.555
50
140.56505117707945
51
-155.99999999999855
0
ARC
8
0
10
109.53764040782822
20
80.10169081849621
40
1
50
119.0988437761185
51
138.37698324006166
0
ARC
8
0
10
108.97310104315892
20
81.1034626154432
40
0.15
50
-58.56859202882686
51
23.99999999999763
0
ARC
8
0
10
57.301158634233275
20
57.298287838470635
40
57.041779513082325
50
24.73350858017647
51
25.26649141982084
0
ARC
8
0
10
108.75106483850415
20
81.57962079292908
40
0.15
50
25.999999999997808
51
108.56859202882792
0
ARC
8
0
10
108.34654202896931
20
82.65600953496686
40
1
50
-88.37698324006139
51
-69.09884377611763
0
ARC
8
0
10
108.3803385502592
20
82.21138372803017
40
0.555
50
-153.9999999999999
51
-90.56505117707938
0
ARC
8
0
10
108.38033855025918
20
82.21138372803019
40
0.555
50
142.56505117707835
51
-153.99999999999793
0
ARC
8
0
10
108.70990125129816
20
81.91101272555277
40
1
50
121.09884377611851
51
140.37698324006178
0
ARC
8
0
10
108.11074445723227
20
82.89247213049231
40
0.15
50
-56.56859202882599
51
25.999999999997808
0
ARC
8
0
10
57.301067818124146
20
57.29847403908795
40
57.041779513082325
50
26.73350858017591
51
27.26649141982028
0
ARC
8
0
10
107.87222583028912
20
83.36059129348962
40
0.15
50
28.000000000003777
51
110.56859202882686
0
ARC
8
0
10
107.43038401976668
20
84.42220668613136
40
1
50
-86.37698324006254
51
-67.09884377611874
0
ARC
8
0
10
107.47967717001195
20
83.97903121480618
40
0.555
50
-152.00000000000094
51
-88.56505117707877
0
ARC
8
0
10
107.47967717001195
20
83.97903121480618
40
0.555
50
144.56505117707837
51
-152.00000000000094
0
ARC
8
0
10
107.81952190716844
20
83.69034476262593
40
1
50
123.09884377611914
51
142.3769832400631
0
ARC
8
0
10
107.18647766396649
20
84.65029601845534
40
0.15
50
-54.56859202882772
51
27.999999999998984
0
ARC
8
0
10
57.30097055903171
20
57.298656956837064
40
57.041779513082325
50
28.733508580179137
51
29.266491419823506
0
ARC
8
0
10
106.93176721294088
20
85.10980583587222
40
0.15
50
29.999999999995698
51
112.56859202883018
0
ARC
8
0
10
106.4531447176164
20
86.15535446429128
40
1
50
-84.37698324006156
51
-65.09884377611779
0
ARC
8
0
10
106.51787444070656
20
85.71416926962348
40
0.555
50
-149.99999999999952
51
-86.56505117707934
0
ARC
8
0
10
106.51787444070656
20
85.7141692696235
40
0.555
50
146.56505117707957
51
-149.99999999999827
0
ARC
8
0
10
106.8675871655174
20
85.43751908771361
40
1
50
125.09884377612075
51
144.3769832400641
0
ARC
8
0
10
106.20142674007673
20
86.37479264169683
40
0.15
50
-52.56859202883291
51
29.999999999995698
0
ARC
8
0
10
57.30086697544824
20
57.29883636886657
40
57.041779513082325
50
30.733508580179723
51
31.266491419824078
0
ARC
8
0
10
105.93083479041815
20
86.8251332716028
40
0.15
50
31.99999999999834
51
114.56859202882211
0
ARC
8
0
10
105.4160147380761
20
87.85334129584992
40
1
50
-82.37698324006455
51
-63.09884377612023
0
ARC
8
0
10
105.49610217081434
20
87.41468389403981
40
0.555
50
-147.99999999999895
51
-84.56505117707819
0
ARC
8
0
10
105.49610217081434
20
87.41468389403981
40
0.555
50
148.56505117707886
51
-147.99999999999895
0
ARC
8
0
10
105.85525681219347
20
87.15040703803227
40
1
50
127.09884377612117
51
146.3769832400644
0
ARC
8
0
10
105.15679181837832
20
88.06386096671967
40
0.15
50
-50.56859202882834
51
31.99999999999086
0
ARC
8
0
10
57.30075719357222
20
57.299012056593384
40
57.041779513082325
50
32.733508580174096
51
33.266491419818465
0
ARC
8
0
10
104.87064804469597
20
88.5044837384269
40
0.15
50
34.00000000000305
51
116.56859202883501
0
ARC
8
0
10
104.32025766426808
20
89.51409844540777
40
1
50
-80.37698324006192
51
-61.09884377611826
0
ARC
8
0
10
104.41560523245423
20
89.0785032729295
40
0.555
50
-146.000000000001
51
-82.56505117707762
0
ARC
8
0
10
104.41560523245423
20
89.0785032729295
40
0.555
50
150.56505117707817
51
-146.000000000001
0
ARC
8
0
10
104.78376421579462
20
88.8269217234646
40
1
50
129.09884377611797
51
148.37698324006226
0
ARC
8
0
10
104.05384562560975
20
89.7154431239509
40
0.15
50
-48.568592028831276
51
33.99999999999552
0
ARC
8
0
10
57.30064134716471
20
57.299183805955444
40
57.041779513082325
50
34.73350858017854
51
35.26649141982291
0
ARC
8
0
10
103.75249865001469
20
90.14581120648475
40
0.15
50
36.00000000000038
51
118.56859202882555
0
ARC
8
0
10
103.16720850739847
20
91.13560253619819
40
1
50
-78.37698324006384
51
-59.09884377611929
0
ARC
8
0
10
103.27770004470777
20
90.70360029867109
40
0.555
50
-143.99999999999977
51
-80.56505117707682
0
ARC
8
0
10
103.27770004470779
20
90.70360029867108
40
0.555
50
152.56505117707587
51
-144.00000000000182
0
ARC
8
0
10
103.65441482499882
20
90.4650205691137
40
1
50
131.09884377611934
51
150.37698324006223
0
ARC
8
0
10
102.89393193181095
20
91.32752691493862
40
0.15
50
-46.56859202882686
51
36.00000000000038
0
ARC
8
0
10
57.30051957735959
20
57.29935140771371
40
57.041779513082325
50
36.733508580179816
51
37.26649141982418
0
ARC
8
0
10
102.57774889917404
20
91.74711597108363
40
0.15
50
38.00000000000338
51
120.5685920288222
0
ARC
8
0
10
101.9582720802512
20
92.71587801526005
40
1
50
-76.3769832400633
51
-57.098843776119516
0
ARC
8
0
10
102.08377296976543
20
92.28799504086572
40
0.555
50
-142.00000000000148
51
-78.56505117707854
0
ARC
8
0
10
102.08377296976543
20
92.28799504086574
40
0.555
50
154.5650511770794
51
-142.00000000000034
0
ARC
8
0
10
102.46858457807575
20
92.0627078038659
40
1
50
133.0988437761175
51
152.3769832400608
0
ARC
8
0
10
101.67846391314687
20
92.89814826390598
40
0.15
50
-44.56859202882615
51
37.999999999999105
0
ARC
8
0
10
57.300392032512526
20
57.299514657673406
40
57.041779513082325
50
38.73350858017491
51
39.266491419819296
0
ARC
8
0
10
101.34783004378914
20
93.30644708903007
40
0.15
50
39.999999999997605
51
122.56859202882997
0
ARC
8
0
10
100.6949212856404
20
94.25299956034495
40
1
50
-74.3769832400612
51
-55.098843776117455
0
ARC
8
0
10
100.8352786238576
20
93.82975715857738
40
0.555
50
-140.00000000000037
51
-76.56505117707603
0
ARC
8
0
10
100.83527862385762
20
93.82975715857738
40
0.555
50
156.5650511770777
51
-140.0000000000013
0
ARC
8
0
10
101.2277182265182
20
93.61803689193059
40
1
50
135.09884377611652
51
154.37698324006027
0
ARC
8
0
10
100.40892243016977
20
94.425393610675
40
0.15
50
-42.56859202882746
51
40.00000000000176
0
ARC
8
0
10
57.30025886802673
20
57.29967335692773
40
57.041779513082325
50
40.733508580179134
51
41.26649141982352
0
ARC
8
0
10
100.06424055053074
20
94.82190475555328
40
0.15
50
42.000000000001094
51
124.56859202882617
0
ARC
8
0
10
99.37869532190511
20
95.74509442562561
40
1
50
-72.37698324006416
51
-53.09884377612047
0
ARC
8
0
10
99.53373810502902
20
95.32700825215585
40
0.555
50
-137.99999999999858
51
-74.56505117707836
0
ARC
8
0
10
99.53373810502902
20
95.32700825215584
40
0.555
50
158.56505117707803
51
-137.9999999999997
0
ARC
8
0
10
99.93332757483476
20
95.12911290439405
40
1
50
137.09884377612073
51
156.37698324006521
0
ARC
8
0
10
99.08685422361873
20
95.90740224204471
40
0.15
50
-40.56859202882719
51
42.000000000001094
0
ARC
8
0
10
57.300120246134654
20
57.29982731213598
40
57.041779513082325
50
42.7335085801797
51
43.266491419824035
0
ARC
8
0
10
98.72854427547462
20
96.291642618925
40
0.15
50
43.99999999999637
51
126.56859202882467
0
ARC
8
0
10
98.01119780763298
20
97.19034472334822
40
1
50
-70.37698324006318
51
-51.09884377611952
0
ARC
8
0
10
98.1807371399149
20
96.77792415177741
40
0.555
50
-135.9999999999991
51
-72.56505117707735
0
ARC
8
0
10
98.1807371399149
20
96.77792415177741
40
0.555
50
160.56505117707815
51
-135.9999999999991
0
ARC
8
0
10
98.58698963864882
20
96.5940948278983
40
1
50
139.09884377611817
51
158.37698324006138
0
ARC
8
0
10
97.71387002995448
20
97.34236855878366
40
0.15
50
-38.56859202882365
51
44.00000000000404
0
ARC
8
0
10
57.299976335725646
20
57.29997633572698
40
57.041779513082325
50
44.73350858017688
51
45.266491419821214
0
ARC
8
0
10
97.34236855878368
20
97.71387002995448
40
0.15
50
45.999999999995964
51
128.56859202882364
0
ARC
8
0
10
96.59409482789832
20
98.58698963864882
40
1
50
-68.37698324006136
51
-49.098843776118166
0
ARC
8
0
10
96.77792415177741
20
98.1807371399149
40
0.555
50
-133.9999999999999
51
-70.56505117707677
0
ARC
8
0
10
96.77792415177741
20
98.18073713991488
40
0.555
50
162.56505117707553
51
-134.0000000000009
0
ARC
8
0
10
97.19034472334823
20
98.01119780763298
40
1
50
141.0988437761195
51
160.3769832400632
0
ARC
8
0
10
96.29164261892501
20
98.72854427547462
40
0.15
50
-36.56859202882467
51
46.000000000003645
0
ARC
8
0
10
57.29982731213692
20
57.30012024613379
40
57.041779513082325
50
46.73350858017724
51
47.266491419821584
0
ARC
8
0
10
95.90740224204471
20
99.08685422361873
40
0.15
50
47.999999999998906
51
130.5685920288272
0
ARC
8
0
10
95.12911290439405
20
99.93332757483476
40
1
50
-66.37698324006521
51
-47.09884377612073
0
ARC
8
0
10
95.32700825215584
20
99.53373810502902
40
0.555
50
-132.0000000000003
51
-68.56505117707803
0
ARC
8
0
10
95.32700825215584
20
99.53373810502902
40
0.555
50
164.56505117707798
51
-132.0000000000003
0
ARC
8
0
10
95.74509442562561
20
99.37869532190511
40
1
50
143.09884377612048
51
162.3769832400642
0
ARC
8
0
10
94.82190475555328
20
100.06424055053074
40
0.15
50
-34.56859202882617
51
47.999999999998906
0
ARC
8
0
10
57.299673356928004
20
57.30025886802649
40
57.041779513082325
50
48.73350858017686
51
49.266491419821236
0
ARC
8
0
10
94.425393610675
20
100.40892243016977
40
0.15
50
49.999999999998245
51
132.56859202882745
0
ARC
8
0
10
93.61803689193059
20
101.2277182265182
40
1
50
-64.37698324006026
51
-45.09884377611653
0
ARC
8
0
10
93.82975715857738
20
100.83527862385762
40
0.555
50
-129.99999999999872
51
-66.56505117707768
0
ARC
8
0
10
93.82975715857738
20
100.8352786238576
40
0.555
50
166.56505117707601
51
-129.99999999999966
0
ARC
8
0
10
94.25299956034495
20
100.6949212856404
40
1
50
145.09884377611746
51
164.37698324006118
0
ARC
8
0
10
93.30644708903007
20
101.34783004378914
40
0.15
50
-32.56859202882996
51
50.00000000000241
0
ARC
8
0
10
57.29951465767295
20
57.3003920325129
40
57.041779513082325
50
50.73350858018013
51
51.26649141982448
0
ARC
8
0
10
92.898148263906
20
101.67846391314687
40
0.15
50
52.0000000000009
51
134.56859202882617
0
ARC
8
0
10
92.06270780386592
20
102.46858457807575
40
1
50
-62.37698324006079
51
-43.0988437761175
0
ARC
8
0
10
92.28799504086575
20
102.08377296976542
40
0.555
50
-128.00000000000176
51
-64.56505117707877
0
ARC
8
0
10
92.28799504086574
20
102.08377296976543
40
0.555
50
168.56505117707854
51
-127.99999999999967
0
ARC
8
0
10
92.71587801526006
20
101.9582720802512
40
1
50
147.0988437761195
51
166.37698324006328
0
ARC
8
0
10
91.74711597108364
20
102.57774889917404
40
0.15
50
-30.56859202882218
51
51.99999999999662
0
ARC
8
0
10
57.29935140771468
20
57.30051957735886
40
57.041779513082325
50
52.73350858017703
51
53.266491419821406
0
ARC
8
0
10
91.32752691493862
20
102.89393193181095
40
0.15
50
53.999999999999616
51
136.56859202882688
0
ARC
8
0
10
90.4650205691137
20
103.65441482499882
40
1
50
-60.37698324006223
51
-41.09884377611932
0
ARC
8
0
10
90.70360029867108
20
103.27770004470779
40
0.555
50
-125.9999999999982
51
-62.56505117707587
0
ARC
8
0
10
90.70360029867109
20
103.27770004470777
40
0.555
50
170.56505117707684
51
-126.00000000000023
0
ARC
8
0
10
91.13560253619819
20
103.16720850739847
40
1
50
149.0988437761193
51
168.37698324006382
0
ARC
8
0
10
90.14581120648475
20
103.75249865001469
40
0.15
50
-28.568592028825538
51
53.999999999999616
0
ARC
8
0
10
57.29918380595638
20
57.300641347164046
40
57.041779513082325
50
54.73350858017824
51
55.26649141982263
0
ARC
8
0
10
89.71544312395089
20
104.05384562560975
40
0.15
50
56.000000000004476
51
138.5685920288313
0
ARC
8
0
10
88.82692172346458
20
104.78376421579462
40
1
50
-58.37698324006226
51
-39.098843776117974
0
ARC
8
0
10
89.07850327292948
20
104.41560523245424
40
0.555
50
-123.999999999999
51
-60.56505117707889
0
ARC
8
0
10
89.07850327292948
20
104.41560523245424
40
0.555
50
172.5650511770791
51
-123.999999999999
0
ARC
8
0
10
89.51409844540775
20
104.32025766426808
40
1
50
151.09884377611826
51
170.37698324006192
0
ARC
8
0
10
88.50448373842688
20
104.87064804469597
40
0.15
50
-26.568592028835003
51
55.99999999999695
0
ARC
8
0
10
57.29901205659294
20
57.30075719357251
40
57.041779513082325
50
56.73350858018102
51
57.26649141982538
0
ARC
8
0
10
88.06386096671967
20
105.15679181837832
40
0.15
50
58.00000000000914
51
140.56859202882833
0
ARC
8
0
10
87.15040703803227
20
105.85525681219347
40
1
50
-56.37698324006437
51
-37.09884377612117
0
ARC
8
0
10
87.41468389403981
20
105.49610217081435
40
0.555
50
-122.00000000000027
51
-58.5650511770796
0
ARC
8
0
10
87.41468389403981
20
105.49610217081434
40
0.555
50
174.5650511770782
51
-122.00000000000107
0
ARC
8
0
10
87.85334129584992
20
105.4160147380761
40
1
50
153.09884377612025
51
172.37698324006456
0
ARC
8
0
10
86.8251332716028
20
105.93083479041815
40
0.15
50
-24.56859202882211
51
58.00000000000168
0
ARC
8
0
10
57.29883636886612
20
57.300866975448514
40
57.041779513082325
50
58.73350858017538
51
59.26649141981974
0
ARC
8
0
10
86.37479264169684
20
106.20142674007673
40
0.15
50
60.00000000000431
51
142.5685920288329
0
ARC
8
0
10
85.43751908771362
20
106.8675871655174
40
1
50
-54.3769832400641
51
-35.098843776120745
0
ARC
8
0
10
85.7141692696235
20
106.51787444070655
40
0.555
50
-120.0000000000005
51
-56.565051177077535
0
ARC
8
0
10
85.7141692696235
20
106.51787444070655
40
0.555
50
176.56505117707786
51
-120.0000000000005
0
ARC
8
0
10
86.15535446429129
20
106.4531447176164
40
1
50
155.09884377611777
51
174.37698324006158
0
ARC
8
0
10
85.10980583587224
20
106.93176721294088
40
0.15
50
-22.56859202883018
51
60.00000000000431
0
ARC
8
0
10
57.298656956838
20
57.3009705590312
40
57.041779513082325
50
60.73350858017755
51
61.266491419821946
0
ARC
8
0
10
84.65029601845534
20
107.18647766396649
40
0.15
50
62.00000000000102
51
144.5685920288277
0
ARC
8
0
10
83.69034476262593
20
107.81952190716844
40
1
50
-52.376983240063105
51
-33.098843776119125
0
ARC
8
0
10
83.97903121480618
20
107.47967717001194
40
0.555
50
-117.99999999999908
51
-54.565051177077514
0
ARC
8
0
10
83.97903121480618
20
107.47967717001194
40
0.555
50
178.56505117707732
51
-117.99999999999908
0
ARC
8
0
10
84.42220668613136
20
107.43038401976668
40
1
50
157.09884377611877
51
176.37698324006254
0
ARC
8
0
10
83.36059129348962
20
107.87222583028912
40
0.15
50
-20.568592028826842
51
61.999999999996234
0
ARC
8
0
10
57.29847403908827
20
57.30106781812398
40
57.041779513082325
50
62.73350858018008
51
63.266491419824455
0
ARC
8
0
10
82.89247213049231
20
108.11074445723227
40
0.15
50
64.0000000000022
51
146.56859202882598
0
ARC
8
0
10
81.91101272555277
20
108.70990125129816
40
1
50
-50.376983240061776
51
-31.098843776118503
0
ARC
8
0
10
82.21138372803019
20
108.38033855025918
40
0.555
50
-116.0000000000021
51
-52.565051177078374
0
ARC
8
0
10
82.21138372803017
20
108.38033855025918
40
0.555
50
-179.43494882292208
51
-116.00000000000078
0
ARC
8
0
10
82.65600953496686
20
108.34654202896931
40
1
50
159.09884377611763
51
178.3769832400614
0
ARC
8
0
10
81.57962079292908
20
108.75106483850415
40
0.15
50
-18.568592028827904
51
64.0000000000022
0
ARC
8
0
10
57.29828783847094
20
57.30115863423313
40
57.041779513082325
50
64.7335085801795
51
65.26649141982386
0
ARC
8
0
10
81.1034626154432
20
108.97310104315892
40
0.15
50
66.00000000000237
51
148.56859202882688
0
ARC
8
0
10
80.10169081849621
20
109.53764040782822
40
1
50
-48.37698324006166
51
-29.098843776118496
0
ARC
8
0
10
80.41338041547286
20
109.21876126429272
40
0.555
50
-114.00000000000148
51
-50.56505117707945
0
ARC
8
0
10
80.41338041547284
20
109.21876126429272
40
0.555
50
-177.43494882292114
51
-114.00000000000016
0
ARC
8
0
10
80.85891484996463
20
109.2005025478135
40
1
50
161.0988437761183
51
-179.62301675993825
0
ARC
8
0
10
79.76906417240801
20
109.56721350762923
40
0.15
50
-16.56859202882482
51
65.9999999999974
0
ARC
8
0
10
57.298098581841714
20
57.301242896713326
40
57.041779513082325
50
66.73350858017479
51
67.26649141981918
0
ARC
8
0
10
79.28544710582634
20
109.77249677308235
40
0.15
50
68.00000000000371
51
150.56859202883123
0
ARC
8
0
10
78.26458342149537
20
110.30173090409986
40
1
50
-46.376983240064156
51
-27.09884377612078
0
ARC
8
0
10
78.58721186720938
20
109.99392382318462
40
0.555
50
-111.99999999999888
51
-48.56505117707654
0
ARC
8
0
10
78.58721186720939
20
109.9939238231846
40
0.555
50
-175.43494882292373
51
-112.00000000000078
0
ARC
8
0
10
79.0331121141772
20
109.99122515694957
40
1
50
163.09884377611874
51
-177.623016759937
0
ARC
8
0
10
77.93112731627369
20
110.31967748622917
40
0.15
50
-14.568592028823728
51
67.99999999999868
0
ARC
8
0
10
57.29790649979214
20
57.30132050289884
40
57.041779513082325
50
68.73350858017855
51
69.26649141982287
0
ARC
8
0
10
77.44064057349634
20
110.50795770644307
40
0.15
50
69.99999999999834
51
152.56859202882626
0
ARC
8
0
10
76.40192876692875
20
111.00124181354234
40
1
50
-44.3769832400629
51
-25.098843776118017
0
ARC
8
0
10
76.73510298831619
20
110.70488181076148
40
0.555
50
-110.00000000000125
51
-46.565051177078324
0
ARC
8
0
10
76.73510298831619
20
110.70488181076148
40
0.555
50
-173.434948822923
51
-110.00000000000125
0
ARC
8
0
10
77.18082578699473
20
110.71774648267963
40
1
50
165.0988437761166
51
-175.62301675994038
0
ARC
8
0
10
76.06804946747286
20
111.00754001285412
40
0.15
50
-12.56859202882756
51
69.99999999999834
0
ARC
8
0
10
57.29771182633291
20
57.3013913582434
40
57.041779513082325
50
70.73350858017791
51
71.26649141982232
0
ARC
8
0
10
75.57129063104215
20
111.17858779738286
40
0.15
50
72.00000000000085
51
154.56859202882842
0
ARC
8
0
10
74.51599621257296
20
111.63532088986402
40
1
50
-42.37698324006165
51
-23.098843776118215
0
ARC
8
0
10
74.85931028816661
20
111.35076903423015
40
0.555
50
-107.99999999999957
51
-44.565051177077834
0
ARC
8
0
10
74.85931028816661
20
111.35076903423015
40
0.555
50
-171.43494882292265
51
-107.99999999999957
0
ARC
8
0
10
75.30431259398404
20
111.37918137068051
40
1
50
167.0988437761182
51
-173.62301675993814
0
ARC
8
0
10
74.18210049937908
20
111.62996303297257
40
0.15
50
-10.568592028823364
51
72.00000000000085
0
ARC
8
0
10
57.29751479864669
20
57.301455376419334
40
57.041779513082325
50
72.73350858017636
51
73.26649141982072
0
ARC
8
0
10
73.67967479341745
20
111.78356998643858
40
0.15
50
74.0000000000064
51
156.5685920288306
0
ARC
8
0
10
72.60908347673993
20
112.20319560538279
40
1
50
-40.376983240062586
51
-21.098843776119093
0
ARC
8
0
10
72.96211913122212
20
111.93079857950013
40
0.555
50
-105.9999999999998
51
-42.5650511770771
0
ARC
8
0
10
72.96211913122212
20
111.93079857950015
40
0.555
50
-169.43494882292092
51
-105.9999999999994
0
ARC
8
0
10
73.40585877741614
20
111.97472396442731
40
1
50
169.09884377612005
51
-171.6230167599363
0
ARC
8
0
10
72.27557815030184
20
112.18618822001142
40
0.15
50
-8.568592028833411
51
73.99999999999446
0
ARC
8
0
10
57.297315656787
20
57.301512479428716
40
57.041779513082325
50
74.7335085801797
51
75.26649141982405
0
ARC
8
0
10
71.76809770313923
20
112.3221671960032
40
0.15
50
76.00000000000091
51
158.5685920288244
0
ARC
8
0
10
70.68351383886079
20
112.70417409223217
40
1
50
-38.37698324006257
51
-19.098843776119086
0
ARC
8
0
10
71.04584095266756
20
112.44426376991721
40
0.555
50
-103.99999999999878
51
-40.56505117707727
0
ARC
8
0
10
71.04584095266756
20
112.44426376991721
40
0.555
50
-167.43494882292256
51
-103.99999999999878
0
ARC
8
0
10
71.48777731083214
20
112.50364868700582
40
1
50
171.09884377611945
51
-169.62301675993726
0
ARC
8
0
10
70.35080522404627
20
112.6755378992601
40
0.15
50
-6.568592028824333
51
76.00000000000091
0
ARC
8
0
10
57.29711464336401
20
57.30156259770398
40
57.041779513082325
50
76.73350858017388
51
77.26649141981822
0
ARC
8
0
10
69.83888832243618
20
112.79372322834146
40
0.15
50
78.00000000000044
51
160.56859202883066
0
ARC
8
0
10
68.7416333089281
20
113.13764598529572
40
1
50
-36.376983240062486
51
-17.098843776118446
0
ARC
8
0
10
69.11281044228346
20
112.89053902724011
40
0.555
50
-102.00000000000043
51
-38.56505117707689
0
ARC
8
0
10
69.11281044228346
20
112.89053902724011
40
0.555
50
-165.43494882292282
51
-102.00000000000043
0
ARC
8
0
10
69.55240508104126
20
112.96531112511624
40
1
50
173.09884377611937
51
-167.62301675993677
0
ARC
8
0
10
68.41012675993444
20
113.0974158735131
40
0.15
50
-4.568592028825754
51
78.00000000000044
0
ARC
8
0
10
57.29691200329985
20
57.3016056701792
40
57.041779513082325
50
78.73350858017776
51
79.26649141982215
0
ARC
8
0
10
67.8943970957667
20
113.19766356506553
40
0.15
50
80.00000000000101
51
162.5685920288293
0
ARC
8
0
10
66.78580776924379
20
113.50308316584302
40
1
50
-34.3769832400637
51
-15.09884377611964
0
ARC
8
0
10
67.1653826999862
20
113.26908063381123
40
0.555
50
-100.00000000000043
51
-36.565051177078104
0
ARC
8
0
10
67.16538269998618
20
113.26908063381123
40
0.555
50
-163.43494882292225
51
-99.99999999999899
0
ARC
8
0
10
67.60210004098425
20
113.3591488141913
40
1
50
175.09884377611596
51
-165.623016759941
0
ARC
8
0
10
66.45590717573627
20
113.45130814944403
40
0.15
50
-2.568592028823502
51
80.0000000000073
0
ARC
8
0
10
57.29670798346514
20
57.301641644380624
40
57.041779513082325
50
80.73350858017585
51
81.2664914198202
0
ARC
8
0
10
65.93699308616462
20
113.53349606709737
40
0.15
50
81.99999999999837
51
164.56859202882973
0
ARC
8
0
10
64.81842009195614
20
113.80004040496085
40
1
50
-32.376983240065044
51
-13.098843776121498
0
ARC
8
0
10
65.2059303665015
20
113.5794273949928
40
0.555
50
-97.99999999999785
51
-34.56505117707662
0
ARC
8
0
10
65.20593036650152
20
113.5794273949928
40
0.555
50
-161.43494882292202
51
-97.9999999999993
0
ARC
8
0
10
65.63923833693097
20
113.68468192367308
40
1
50
177.09884377611812
51
-163.6230167599382
0
ARC
8
0
10
64.49052738699064
20
113.73678356382767
40
0.15
50
-0.5685920288317754
51
82.00000000000372
0
ARC
8
0
10
57.29650283243866
20
57.30167047647715
40
57.041779513082325
50
82.73350858018041
51
83.26649141982479
0
ARC
8
0
10
63.969061088900624
20
113.8008115742643
40
0.15
50
83.99999999999915
51
166.5685920288315
0
ARC
8
0
10
62.84186723589703
20
114.028155905996
40
1
50
-30.37698324006165
51
-11.098843776118468
0
ARC
8
0
10
63.23684073266726
20
113.8212012010616
40
0.555
50
-95.99999999999919
51
-32.56505117707735
0
ARC
8
0
10
63.23684073266727
20
113.8212012010616
40
0.555
50
-159.43494882292208
51
-95.99999999999991
0
ARC
8
0
10
63.666211413512116
20
113.94151384161206
40
1
50
179.0988437761191
51
-161.62301675993757
0
ARC
8
0
10
62.516381906226584
20
113.95349430884562
40
0.15
50
1.4314079711692964
51
83.99999999999646
0
ARC
8
0
10
57.29629680015138
20
57.30169213134316
40
57.041779513082325
50
84.7335085801773
51
85.26649141982166
0
ARC
8
0
10
61.99299872597675
20
113.99928440379763
40
0.15
50
85.99999999999962
51
168.5685920288243
0
ARC
8
0
10
60.85855732625704
20
114.18715174534911
40
1
50
-28.376983240062238
51
-9.098843776118088
0
ARC
8
0
10
61.2605128308873
20
113.99410748787733
40
0.555
50
-94.00000000000055
51
-30.565051177078278
0
ARC
8
0
10
61.2605128308873
20
113.99410748787733
40
0.555
50
-157.43494882292228
51
-94.00000000000055
0
ARC
8
0
10
61.68542310011243
20
114.1293316578782
40
1
50
-178.90115622388174
51
-159.62301675993828
0
ARC
8
0
10
60.535875925618676
20
114.10117635583687
40
0.15
50
3.4314079711735648
51
86.00000000000233
0
ARC
8
0
10
57.2960901376319
20
57.30170658259428
40
57.041779513082325
50
86.7335085801766
51
87.26649141982098
0
ARC
8
0
10
60.0112135249931
20
114.12867274712697
40
0.15
50
88.00000000000077
51
170.56859202882887
0
ARC
8
0
10
58.87090672065554
20
114.27683421108127
40
1
50
-26.37698324006156
51
-7.098843776117623
0
ARC
8
0
10
59.27935451227992
20
114.09793559576366
40
0.555
50
-91.9999999999999
51
-28.565051177077834
0
ARC
8
0
10
59.27935451227992
20
114.09793559576366
40
0.555
50
-155.4349488229215
51
-91.9999999999999
0
ARC
8
0
10
59.69928668217469
20
114.24790654539348
40
1
50
-176.90115622388154
51
-157.6230167599379
0
ARC
8
0
10
58.551422386630655
20
114.17964977697581
40
0.15
50
5.431407971172389
51
88.00000000000077
0
ARC
8
0
10
57.295883096664554
20
57.30171381262412
40
57.041779513082325
50
88.73350858017623
51
89.26649141982061
0
ARC
8
0
10
58.02611998594648
20
114.18881896448671
40
0.15
50
90
51
172.56859202883228
0
ARC
8
0
10
56.881337065181356
20
114.29709403892255
40
1
50
-24.37698324006254
51
-5.0988437761189065
0
ARC
8
0
10
57.29577951308233
20
114.13255902616466
40
0.555
50
-90.00000000000074
51
-26.565051177079628
0
ARC
8
0
10
57.295779513082316
20
114.13255902616466
40
0.555
50
-153.43494882292038
51
-89.99999999999928
0
ARC
8
0
10
57.71022196098329
20
114.29709403892255
40
1
50
-174.90115622388112
51
-155.62301675993749
0
ARC
8
0
10
56.565439040218166
20
114.18881896448671
40
0.15
50
7.431407971167711
51
90
0
ARC
8
0
10
57.29567592950039
20
57.30171381262413
40
57.041779513082325
50
90.7335085801797
51
91.26649141982406
0
ARC
8
0
10
56.04013663953401
20
114.17964977697581
40
0.15
50
91.99999999999923
51
174.56859202882762
0
ARC
8
0
10
54.89227234398998
20
114.24790654539348
40
1
50
-22.376983240062106
51
-3.0988437761184677
0
ARC
8
0
10
55.312204513884744
20
114.09793559576366
40
0.555
50
-88.00000000000011
51
-24.565051177078473
0
ARC
8
0
10
55.312204513884744
20
114.09793559576366
40
0.555
50
-151.4349488229222
51
-88.00000000000011
0
ARC
8
0
10
55.72065230550913
20
114.27683421108127
40
1
50
-172.9011562238824
51
-153.62301675993845
0
ARC
8
0
10
54.580345501171564
20
114.12867274712697
40
0.15
50
9.43140797117116
51
91.99999999999923
0
ARC
8
0
10
57.295468888532994
20
57.301706582594285
40
57.041779513082325
50
92.73350858017926
51
93.26649141982365
0
ARC
8
0
10
54.05568310054598
20
114.10117635583687
40
0.15
50
93.99999999999767
51
176.56859202882646
0
ARC
8
0
10
52.90613592605222
20
114.1293316578782
40
1
50
-20.37698324006171
51
-1.0988437761182674
0
ARC
8
0
10
53.33104619527735
20
113.99410748787733
40
0.555
50
-85.99999999999946
51
-22.565051177077706
0
ARC
8
0
10
53.33104619527735
20
113.99410748787733
40
0.555
50
-149.4349488229217
51
-85.99999999999946
0
ARC
8
0
10
53.73300169990761
20
114.18715174534911
40
1
50
-170.9011562238819
51
-151.62301675993777
0
ARC
8
0
10
52.598560300187906
20
113.99928440379763
40
0.15
50
11.431407971175696
51
94.00000000000038
0
ARC
8
0
10
57.295262226012056
20
57.30169213134307
40
57.041779513082325
50
94.73350858017713
51
95.26649141982149
0
ARC
8
0
10
52.07517711993807
20
113.95349430884563
40
0.15
50
96.00000000000357
51
178.56859202883072
0
ARC
8
0
10
50.92534761265254
20
113.94151384161208
40
1
50
-18.376983240062422
51
0.901156223880889
0
ARC
8
0
10
51.354718293497385
20
113.82120120106161
40
0.555
50
-84.00000000000011
51
-20.5650511770779
0
ARC
8
0
10
51.35471829349739
20
113.82120120106161
40
0.555
50
-147.43494882292268
51
-84.00000000000084
0
ARC
8
0
10
51.749691790267626
20
114.02815590599602
40
1
50
-168.90115622388154
51
-149.62301675993834
0
ARC
8
0
10
50.62249793726403
20
113.80081157426432
40
0.15
50
13.431407971168502
51
96.00000000000087
0
ARC
8
0
10
57.29505619372633
20
57.3016704764772
40
57.041779513082325
50
96.73350858017557
51
97.26649141981993
0
ARC
8
0
10
50.101031639174025
20
113.73678356382769
40
0.15
50
97.99999999999896
51
-179.4314079711682
0
ARC
8
0
10
48.952320689233694
20
113.6846819236731
40
1
50
-16.37698324006193
51
2.901156223881913
0
ARC
8
0
10
49.38562865966313
20
113.5794273949928
40
0.555
50
-81.99999999999925
51
-18.565051177076345
0
ARC
8
0
10
49.385628659663155
20
113.5794273949928
40
0.555
50
-145.43494882292458
51
-82.00000000000142
0
ARC
8
0
10
49.773138934208546
20
113.80004040496082
40
1
50
-166.90115622388106
51
-147.62301675993788
0
ARC
8
0
10
48.65456594000005
20
113.53349606709739
40
0.15
50
15.43140797116958
51
97.99999999999896
0
ARC
8
0
10
57.29485104270091
20
57.30164164438086
40
57.041779513082325
50
98.73350858018121
51
99.26649141982558
0
ARC
8
0
10
48.1356518504284
20
113.45130814944405
40
0.15
50
100.00000000000166
51
-177.43140797117118
0
ARC
8
0
10
46.989458985180406
20
113.35914881419137
40
1
50
-14.37698324006314
51
4.901156223879957
0
ARC
8
0
10
47.42617632617846
20
113.26908063381123
40
0.555
50
-79.99999999999959
51
-16.565051177077553
0
ARC
8
0
10
47.42617632617846
20
113.26908063381123
40
0.555
50
-143.43494882292188
51
-79.99999999999959
0
ARC
8
0
10
47.80575125692088
20
113.503083165843
40
1
50
-164.90115622388205
51
-145.6230167599381
0
ARC
8
0
10
46.69716193039796
20
113.19766356506553
40
0.15
50
17.431407971171527
51
100.00000000000435
0
ARC
8
0
10
57.29464702286552
20
57.30160567017934
40
57.041779513082325
50
100.73350858017862
51
101.26649141982296
0
ARC
8
0
10
46.18143226623023
20
113.0974158735131
40
0.15
50
101.99999999999956
51
-175.43140797117448
0
ARC
8
0
10
45.03915394512341
20
112.96531112511624
40
1
50
-12.37698324006323
51
6.901156223880642
0
ARC
8
0
10
45.478748583881206
20
112.89053902724012
40
0.555
50
-78.00000000000028
51
-14.565051177078583
0
ARC
8
0
10
45.4787485838812
20
112.89053902724012
40
0.555
50
-141.4349488229215
51
-77.99999999999957
0
ARC
8
0
10
45.849925717236566
20
113.13764598529572
40
1
50
-162.90115622388157
51
-143.62301675993754
0
ARC
8
0
10
44.75267070372849
20
112.79372322834146
40
0.15
50
19.431407971169357
51
101.9999999999969
0
ARC
8
0
10
57.294444382799995
20
57.30156259770383
40
57.041779513082325
50
102.73350858018111
51
103.2664914198255
0
ARC
8
0
10
44.24075380211837
20
112.6755378992601
40
0.15
50
104.00000000000175
51
-173.43140797117567
0
ARC
8
0
10
43.1037817153325
20
112.5036486870058
40
1
50
-10.37698324006196
51
8.901156223881452
0
ARC
8
0
10
43.545718073497085
20
112.44426376991721
40
0.555
50
-75.9999999999998
51
-12.565051177077438
0
ARC
8
0
10
43.54571807349709
20
112.44426376991721
40
0.555
50
-139.4349488229232
51
-76.00000000000051
0
ARC
8
0
10
43.90804518730385
20
112.70417409223217
40
1
50
-160.90115622388078
51
-141.6230167599372
0
ARC
8
0
10
42.82346132302541
20
112.3221671960032
40
0.15
50
21.43140797117559
51
104.00000000000436
0
ARC
8
0
10
57.29424336937845
20
57.301512479428936
40
57.041779513082325
50
104.73350858017679
51
105.26649141982115
0
ARC
8
0
10
42.3159808758628
20
112.1861882200114
40
0.15
50
105.99999999999885
51
-171.43140797117198
0
ARC
8
0
10
41.1857002487485
20
111.9747239644273
40
1
50
-8.376983240062902
51
10.901156223880848
0
ARC
8
0
10
41.62943989494253
20
111.93079857950013
40
0.555
50
-74.00000000000021
51
-10.565051177077752
0
ARC
8
0
10
41.62943989494253
20
111.93079857950013
40
0.555
50
-137.4349488229224
51
-74.00000000000021
0
ARC
8
0
10
41.98247554942474
20
112.20319560538279
40
1
50
-158.90115622388106
51
-139.62301675993768
0
ARC
8
0
10
40.91188423274722
20
111.78356998643858
40
0.15
50
23.431407971170472
51
105.99999999999885
0
ARC
8
0
10
57.294044227518064
20
57.30145537641936
40
57.041779513082325
50
106.73350858017939
51
107.26649141982377
0
ARC
8
0
10
40.40945852678557
20
111.62996303297257
40
0.15
50
107.99999999999916
51
-169.43140797117613
0
ARC
8
0
10
39.28724643218061
20
111.37918137068054
40
1
50
-6.376983240063492
51
12.901156223880136
0
ARC
8
0
10
39.732248737998034
20
111.35076903423017
40
0.555
50
-71.99999999999903
51
-8.565051177078773
0
ARC
8
0
10
39.73224873799803
20
111.35076903423017
40
0.555
50
-135.4349488229206
51
-71.99999999999834
0
ARC
8
0
10
40.075562813591674
20
111.63532088986403
40
1
50
-156.9011562238809
51
-137.6230167599372
0
ARC
8
0
10
39.02026839512249
20
111.17858779738286
40
0.15
50
25.43140797117161
51
107.99999999999916
0
ARC
8
0
10
57.29384719983162
20
57.30139135824337
40
57.041779513082325
50
108.73350858017757
51
109.26649141982196
0
ARC
8
0
10
38.523509558691806
20
111.00754001285414
40
0.15
50
110.00000000000168
51
-167.43140797117246
0
ARC
8
0
10
37.41073323916993
20
110.71774648267969
40
1
50
-4.376983240062104
51
14.901156223880905
0
ARC
8
0
10
37.85645603784847
20
110.70488181076149
40
0.555
50
-69.99999999999945
51
-6.5650511770770414
0
ARC
8
0
10
37.856456037848474
20
110.70488181076149
40
0.555
50
-133.43494882292165
51
-70.00000000000013
0
ARC
8
0
10
38.18963025923593
20
111.00124181354232
40
1
50
-154.90115622388365
51
-135.6230167599391
0
ARC
8
0
10
37.150918452668336
20
110.50795770644308
40
0.15
50
27.431407971173755
51
110.00000000000168
0
ARC
8
0
10
57.29365252637311
20
57.301320502899074
40
57.041779513082325
50
110.73350858017776
51
111.26649141982213
0
ARC
8
0
10
36.66043170989095
20
110.31967748622917
40
0.15
50
111.99999999999882
51
-165.43140797117556
0
ARC
8
0
10
35.55844691198745
20
109.99122515694957
40
1
50
-2.376983240062998
51
16.901156223881397
0
ARC
8
0
10
36.00434715895525
20
109.9939238231846
40
0.555
50
-67.99999999999991
51
-4.565051177076209
0
ARC
8
0
10
36.00434715895527
20
109.99392382318462
40
0.555
50
-131.43494882292347
51
-68.00000000000252
0
ARC
8
0
10
36.32697560466927
20
110.30173090409986
40
1
50
-152.9011562238792
51
-133.62301675993584
0
ARC
8
0
10
35.30611192033831
20
109.77249677308235
40
0.15
50
29.43140797116879
51
111.9999999999963
0
ARC
8
0
10
57.29346044432247
20
57.30124289671314
40
57.041779513082325
50
112.73350858018033
51
113.2664914198247
0
ARC
8
0
10
34.822494853756645
20
109.56721350762925
40
0.15
50
114.00000000000011
51
-163.4314079711752
0
ARC
8
0
10
33.73264417620002
20
109.2005025478135
40
1
50
-0.3769832400609155
51
18.901156223882495
0
ARC
8
0
10
34.178178610691816
20
109.21876126429272
40
0.555
50
-65.99999999999987
51
-2.5650511770774007
0
ARC
8
0
10
34.178178610691816
20
109.21876126429272
40
0.555
50
-129.43494882292265
51
-65.99999999999987
0
ARC
8
0
10
34.48986820766844
20
109.53764040782825
40
1
50
-150.90115622388058
51
-131.6230167599372
0
ARC
8
0
10
33.488096410721454
20
108.97310104315893
40
0.15
50
31.43140797117456
51
114.00000000000011
0
ARC
8
0
10
57.29327118769467
20
57.30115863423359
40
57.041779513082325
50
114.73350858017722
51
115.26649141982159
0
ARC
8
0
10
33.01193823323557
20
108.75106483850415
40
0.15
50
116.00000000000026
51
-161.4314079711712
0
ARC
8
0
10
31.935549491197786
20
108.34654202896934
40
1
50
1.6230167599369782
51
20.90115622388063
0
ARC
8
0
10
32.380175298134475
20
108.3803385502592
40
0.555
50
-63.99999999999989
51
-0.5650511770793676
0
ARC
8
0
10
32.38017529813447
20
108.38033855025918
40
0.555
50
-127.43494882292165
51
-63.99999999999858
0
ARC
8
0
10
32.68054630061187
20
108.70990125129818
40
1
50
-148.9011562238806
51
-129.6230167599371
0
ARC
8
0
10
31.699086895672327
20
108.11074445723227
40
0.15
50
33.43140797117178
51
116.00000000000026
0
ARC
8
0
10
57.29308498707837
20
57.301067818125
40
57.041779513082325
50
116.73350858017783
51
117.26649141982215
0
ARC
8
0
10
31.230967732675037
20
107.87222583028912
40
0.15
50
118.0000000000002
51
-159.4314079711727
0
ARC
8
0
10
30.169352340033296
20
107.43038401976669
40
1
50
3.623016759936651
51
22.901156223880427
0
ARC
8
0
10
30.612527811358476
20
107.47967717001195
40
0.555
50
-62.00000000000028
51
1.4349488229212353
0
ARC
8
0
10
30.612527811358472
20
107.47967717001194
40
0.555
50
-125.4349488229222
51
-61.99999999999927
0
ARC
8
0
10
30.901214263538744
20
107.81952190716844
40
1
50
-146.9011562238811
51
-127.62301675993737
0
ARC
8
0
10
29.94126300770932
20
107.18647766396649
40
0.15
50
35.43140797117071
51
117.999999999999
0
ARC
8
0
10
57.29290206932742
20
57.30097055903162
40
57.041779513082325
50
118.73350858017895
51
119.26649141982334
0
ARC
8
0
10
29.481753190292437
20
106.93176721294088
40
0.15
50
119.99999999999805
51
-157.43140797117033
0
ARC
8
0
10
28.436204561873367
20
106.45314471761641
40
1
50
5.623016759937596
51
24.901156223881223
0
ARC
8
0
10
28.87738975654117
20
106.51787444070656
40
0.555
50
-59.99999999999952
51
3.43494882292068
0
ARC
8
0
10
28.87738975654116
20
106.51787444070656
40
0.555
50
-123.43494882292012
51
-59.99999999999856
0
ARC
8
0
10
29.15403993845105
20
106.86758716551739
40
1
50
-144.9011562238798
51
-125.62301675993638
0
ARC
8
0
10
28.216766384467835
20
106.20142674007673
40
0.15
50
37.4314079711671
51
119.99999999999687
0
ARC
8
0
10
57.292722657295954
20
57.300866975446965
40
57.041779513082325
50
120.73350858017724
51
121.26649141982159
0
ARC
8
0
10
27.76642575456185
20
105.93083479041816
40
0.15
50
122.00000000000065
51
-155.43140797117732
0
ARC
8
0
10
26.738217730314744
20
105.4160147380761
40
1
50
7.6230167599363305
51
26.901156223880772
0
ARC
8
0
10
27.17687513212485
20
105.49610217081435
40
0.555
50
-58.00000000000036
51
5.434948822921882
0
ARC
8
0
10
27.176875132124856
20
105.49610217081435
40
0.555
50
-121.43494882292306
51
-58.00000000000099
0
ARC
8
0
10
27.441151988132376
20
105.85525681219349
40
1
50
-142.90115622387873
51
-123.62301675993565
0
ARC
8
0
10
26.527698059444976
20
105.15679181837835
40
0.15
50
39.43140797116747
51
121.9999999999972
0
ARC
8
0
10
57.29254696957371
20
57.300757193573816
40
57.041779513082325
50
122.73350858017702
51
123.2664914198214
0
ARC
8
0
10
26.08707528773776
20
104.87064804469595
40
0.15
50
123.99999999999778
51
-153.43140797117047
0
ARC
8
0
10
25.07746058075688
20
104.32025766426808
40
1
50
9.62301675993804
51
28.901156223881536
0
ARC
8
0
10
25.51305575323516
20
104.41560523245423
40
0.555
50
-55.99999999999926
51
7.434948822922421
0
ARC
8
0
10
25.51305575323516
20
104.41560523245423
40
0.555
50
-119.43494882292184
51
-55.99999999999926
0
ARC
8
0
10
25.764637302700066
20
104.78376421579462
40
1
50
-140.90115622388214
51
-121.62301675993794
0
ARC
8
0
10
24.876115902213755
20
104.05384562560975
40
0.15
50
41.43140797116962
51
123.99999999999663
0
ARC
8
0
10
57.29237522020942
20
57.300641347164856
40
57.041779513082325
50
124.7335085801788
51
125.26649141982318
0
ARC
8
0
10
24.445747819679912
20
103.75249865001469
40
0.15
50
126.00000000000148
51
-151.43140797117576
0
ARC
8
0
10
23.45595648996647
20
103.16720850739847
40
1
50
11.623016759936208
51
30.901156223880925
0
ARC
8
0
10
23.887958727493572
20
103.27770004470777
40
0.555
50
-54.00000000000066
51
9.434948822923225
0
ARC
8
0
10
23.88795872749358
20
103.27770004470779
40
0.555
50
-117.43494882292349
51
-54.00000000000212
0
ARC
8
0
10
24.12653845705094
20
103.65441482499882
40
1
50
-138.9011562238803
51
-119.6230167599369
0
ARC
8
0
10
23.26403211122604
20
102.89393193181095
40
0.15
50
43.43140797117313
51
126.00000000000148
0
ARC
8
0
10
57.292207618449666
20
57.300519577358635
40
57.041779513082325
50
126.73350858017822
51
127.2664914198226
0
ARC
8
0
10
22.84444305508099
20
102.57774889917404
40
0.15
50
128.00000000000125
51
-149.4314079711764
0
ARC
8
0
10
21.875681010904586
20
101.95827208025119
40
1
50
13.6230167599375
51
32.90115622388129
0
ARC
8
0
10
22.303563985298908
20
102.08377296976543
40
0.555
50
-52.00000000000032
51
11.434948822921461
0
ARC
8
0
10
22.3035639852989
20
102.08377296976543
40
0.555
50
-115.43494882292097
51
-51.999999999999744
0
ARC
8
0
10
22.528851222298698
20
102.46858457807576
40
1
50
-136.90115622388123
51
-117.6230167599372
0
ARC
8
0
10
21.69341076225864
20
101.67846391314687
40
0.15
50
45.43140797117384
51
128.00000000000017
0
ARC
8
0
10
57.29204436849286
20
57.30039203251385
40
57.041779513082325
50
128.73350858017702
51
129.2664914198214
0
ARC
8
0
10
21.285111937134584
20
101.34783004378914
40
0.15
50
129.99999999999966
51
-147.43140797117005
0
ARC
8
0
10
20.338559465819696
20
100.69492128564043
40
1
50
15.62301675993713
51
34.90115622388075
0
ARC
8
0
10
20.761801867587266
20
100.8352786238576
40
0.555
50
-50.00000000000035
51
13.434948822923886
0
ARC
8
0
10
20.76180186758727
20
100.83527862385762
40
0.555
50
-113.43494882292234
51
-50.00000000000157
0
ARC
8
0
10
20.97352213423405
20
101.22771822651822
40
1
50
-134.90115622388274
51
-115.62301675993868
0
ARC
8
0
10
20.166165415489644
20
100.40892243016977
40
0.15
50
47.431407971174536
51
130.00000000000176
0
ARC
8
0
10
57.291885669236905
20
57.300258868026724
40
57.041779513082325
50
130.73350858017912
51
131.26649141982352
0
ARC
8
0
10
19.769654270611365
20
100.06424055053074
40
0.15
50
132.00000000000009
51
-145.43140797117306
0
ARC
8
0
10
18.846464600539054
20
99.37869532190508
40
1
50
17.623016759937578
51
36.90115622388145
0
ARC
8
0
10
19.26455077400881
20
99.53373810502902
40
0.555
50
-47.999999999999694
51
15.434948822921848
0
ARC
8
0
10
19.264550774008814
20
99.53373810502902
40
0.555
50
-111.43494882292268
51
-47.999999999999964
0
ARC
8
0
10
19.462446121770625
20
99.93332757483475
40
1
50
-132.90115622388058
51
-113.6230167599368
0
ARC
8
0
10
18.684156784119946
20
99.08685422361873
40
0.15
50
49.43140797117281
51
132.00000000000009
0
ARC
8
0
10
57.29173171402647
20
57.300120246132614
40
57.041779513082325
50
132.73350858017668
51
133.266491419821
0
ARC
8
0
10
18.299916407239657
20
98.72854427547465
40
0.15
50
133.99999999999733
51
-143.4314079711753
0
ARC
8
0
10
17.401214302816445
20
98.01119780763298
40
1
50
19.623016759938416
51
38.90115622388214
0
ARC
8
0
10
17.81363487438725
20
98.18073713991492
40
0.555
50
-46.00000000000091
51
17.434948822922756
0
ARC
8
0
10
17.81363487438725
20
98.18073713991492
40
0.555
50
-109.43494882292254
51
-46.00000000000091
0
ARC
8
0
10
17.99746419826633
20
98.58698963864884
40
1
50
-130.90115622388123
51
-111.62301675993733
0
ARC
8
0
10
17.249190467380988
20
97.7138700299545
40
0.15
50
51.431407971177414
51
134.00000000000307
0
ARC
8
0
10
57.29158269043922
20
57.29997633572721
40
57.041779513082325
50
134.73350858017906
51
135.26649141982347
0
ARC
8
0
10
16.87768899621015
20
97.34236855878366
40
0.15
50
136.0000000000008
51
-141.43140797116956
0
ARC
8
0
10
16.00456938751583
20
96.59409482789829
40
1
50
21.623016759938796
51
40.9011562238821
0
ARC
8
0
10
16.41082188624974
20
96.77792415177741
40
0.555
50
-44.00000000000014
51
19.43494882292034
0
ARC
8
0
10
16.41082188624973
20
96.7779241517774
40
0.555
50
-107.43494882292124
51
-43.99999999999857
0
ARC
8
0
10
16.580361218531667
20
97.1903447233482
40
1
50
-128.9011562238808
51
-109.62301675993722
0
ARC
8
0
10
15.86301475069002
20
96.29164261892498
40
0.15
50
53.431407971174245
51
136.00000000000225
0
ARC
8
0
10
57.29143878003
20
57.299827312135974
40
57.041779513082325
50
136.73350858017596
51
137.2664914198203
0
ARC
8
0
10
15.504704802545923
20
95.90740224204471
40
0.15
50
137.99999999999847
51
-139.43140797117238
0
ARC
8
0
10
14.658231451329897
20
95.12911290439403
40
1
50
23.623016759935577
51
42.90115622388007
0
ARC
8
0
10
15.057820921135633
20
95.32700825215584
40
0.555
50
-42.000000000000064
51
21.434948822921648
0
ARC
8
0
10
15.057820921135638
20
95.32700825215584
40
0.555
50
-105.43494882292258
51
-42.00000000000043
0
ARC
8
0
10
15.212863704259547
20
95.74509442562561
40
1
50
-126.90115622387987
51
-107.62301675993642
0
ARC
8
0
10
14.527318475633908
20
94.82190475555328
40
0.15
50
55.43140797117272
51
137.9999999999989
0
ARC
8
0
10
57.29130015813806
20
57.29967335692788
40
57.041779513082325
50
138.7335085801767
51
139.26649141982105
0
ARC
8
0
10
14.18263659599489
20
94.42539361067502
40
0.15
50
139.99999999999739
51
-137.43140797117024
0
ARC
8
0
10
13.36384079964644
20
93.61803689193061
40
1
50
25.623016759938743
51
44.9011562238821
0
ARC
8
0
10
13.756280402307045
20
93.8297571585774
40
0.555
50
-40.000000000001016
51
23.434948822922617
0
ARC
8
0
10
13.75628040230705
20
93.8297571585774
40
0.555
50
-103.43494882292327
51
-40.00000000000138
0
ARC
8
0
10
13.896637740524245
20
94.25299956034496
40
1
50
-124.90115622388213
51
-105.62301675993814
0
ARC
8
0
10
13.24372898237552
20
93.30644708903009
40
0.15
50
57.43140797117233
51
140.00000000000327
0
ARC
8
0
10
57.29116699365072
20
57.29951465767169
40
57.041779513082325
50
140.73350858017847
51
141.26649141982284
0
ARC
8
0
10
12.913095113017773
20
92.89814826390601
40
0.15
50
142.00000000000134
51
-135.4314079711729
0
ARC
8
0
10
12.122974448088895
20
92.06270780386593
40
1
50
27.623016759939063
51
46.90115622388235
0
ARC
8
0
10
12.507786056399231
20
92.28799504086574
40
0.555
50
-38.00000000000002
51
25.434948822923964
0
ARC
8
0
10
12.507786056399237
20
92.28799504086575
40
0.555
50
-101.43494882292327
51
-38.00000000000152
0
ARC
8
0
10
12.633286945913449
20
92.71587801526007
40
1
50
-122.9011562238806
51
-103.62301675993682
0
ARC
8
0
10
12.0138101269906
20
91.74711597108367
40
0.15
50
59.43140797117097
51
142.00000000000048
0
ARC
8
0
10
57.2910394488069
20
57.299351407716166
40
57.041779513082325
50
142.73350858017886
51
143.2664914198233
0
ARC
8
0
10
11.697627094353699
20
91.32752691493862
40
0.15
50
143.99999999999963
51
-133.43140797117263
0
ARC
8
0
10
10.937144201165854
20
90.46502056911369
40
1
50
29.623016759938842
51
48.90115622388222
0
ARC
8
0
10
11.313858981456871
20
90.7036002986711
40
0.555
50
-36.00000000000002
51
27.43494882292111
0
ARC
8
0
10
11.313858981456864
20
90.70360029867109
40
0.555
50
-99.434948822921
51
-35.9999999999984
0
ARC
8
0
10
11.424350518766207
20
91.13560253619818
40
1
50
-120.90115622388139
51
-101.62301675993753
0
ARC
8
0
10
10.839060376149973
20
90.14581120648475
40
0.15
50
61.431407971170295
51
143.99999999999883
0
ARC
8
0
10
57.2909176790004
20
57.29918380595607
40
57.041779513082325
50
144.73350858017787
51
145.26649141982224
0
ARC
8
0
10
10.53771340055491
20
89.71544312395089
40
0.15
50
145.99999999999886
51
-131.43140797117334
0
ARC
8
0
10
9.807794810370027
20
88.8269217234646
40
1
50
31.623016759937478
51
50.901156223881394
0
ARC
8
0
10
10.175953793710423
20
89.0785032729295
40
0.555
50
-33.99999999999922
51
29.434948822921562
0
ARC
8
0
10
10.17595379371042
20
89.0785032729295
40
0.555
50
-97.43494882292146
51
-33.99999999999901
0
ARC
8
0
10
10.27130136189657
20
89.51409844540777
40
1
50
-118.90115622388191
51
-99.62301675993808
0
ARC
8
0
10
9.720910981468695
20
88.5044837384269
40
0.15
50
63.43140797116924
51
145.99999999999773
0
ARC
8
0
10
57.290801832591406
20
57.299012056591806
40
57.041779513082325
50
146.73350858017966
51
147.26649141982404
0
ARC
8
0
10
9.434767207786303
20
88.06386096671966
40
0.15
50
148.00000000000276
51
-129.43140797117564
0
ARC
8
0
10
8.736302213971186
20
87.15040703803226
40
1
50
33.62301675993687
51
52.901156223880946
0
ARC
8
0
10
9.095456855350298
20
87.4146838940398
40
0.555
50
-31.99999999999931
51
31.434948822922127
0
ARC
8
0
10
9.0954568553503
20
87.4146838940398
40
0.555
50
-95.43494882292232
51
-31.999999999999407
0
ARC
8
0
10
9.175544288088558
20
87.8533412958499
40
1
50
-116.90115622388062
51
-97.62301675993692
0
ARC
8
0
10
8.660724235746498
20
86.8251332716028
40
0.15
50
65.43140797117604
51
148.00000000000313
0
ARC
8
0
10
57.29069205071679
20
57.298836368867214
40
57.041779513082325
50
148.73350858017668
51
149.26649141982102
0
ARC
8
0
10
8.390132286087914
20
86.37479264169681
40
0.15
50
149.99999999999926
51
-127.43140797117418
0
ARC
8
0
10
7.723971860647249
20
85.4375190877136
40
1
50
35.62301675993712
51
54.901156223881024
0
ARC
8
0
10
8.07368458545809
20
85.71416926962348
40
0.555
50
-30.000000000000494
51
33.434948822922465
0
ARC
8
0
10
8.073684585458084
20
85.71416926962348
40
0.555
50
-93.43494882292158
51
-30.00000000000022
0
ARC
8
0
10
8.138414308548242
20
86.15535446429128
40
1
50
-114.90115622388237
51
-95.62301675993844
0
ARC
8
0
10
7.6597918132237615
20
85.10980583587222
40
0.15
50
67.43140797117294
51
150.0000000000043
0
ARC
8
0
10
57.2905884671337
20
57.29865695683844
40
57.041779513082325
50
150.73350858017807
51
151.26649141982242
0
ARC
8
0
10
7.405081362198186
20
84.65029601845535
40
0.15
50
152.00000000000196
51
-125.43140797117476
0
ARC
8
0
10
6.772037118996225
20
83.69034476262594
40
1
50
37.62301675993681
51
56.90115622388079
0
ARC
8
0
10
7.111881856152718
20
83.9790312148062
40
0.555
50
-27.999999999999293
51
35.43494882292207
0
ARC
8
0
10
7.111881856152714
20
83.9790312148062
40
0.555
50
-91.43494882292151
51
-27.999999999999122
0
ARC
8
0
10
7.161175006397989
20
84.42220668613137
40
1
50
-112.9011562238813
51
-93.62301675993753
0
ARC
8
0
10
6.719333195875538
20
83.36059129348963
40
0.15
50
69.4314079711722
51
151.99999999999608
0
ARC
8
0
10
57.290491208039995
20
57.29847403908697
40
57.041779513082325
50
152.73350858017858
51
153.266491419823
0
ARC
8
0
10
6.480814568932368
20
82.8924721304923
40
0.15
50
154.00000000000324
51
-123.431407971176
0
ARC
8
0
10
5.881657774866479
20
81.91101272555274
40
1
50
39.62301675993892
51
58.90115622388231
0
ARC
8
0
10
6.211220475905458
20
82.21138372803016
40
0.555
50
-26.000000000000526
51
37.4349488229228
0
ARC
8
0
10
6.211220475905456
20
82.21138372803016
40
0.555
50
-89.4349488229222
51
-26.000000000000444
0
ARC
8
0
10
6.245016997195322
20
82.65600953496684
40
1
50
-110.90115622388224
51
-91.62301675993832
0
ARC
8
0
10
5.840494187660494
20
81.57962079292906
40
0.15
50
71.43140797117499
51
154.0000000000031
0
ARC
8
0
10
57.29040039193112
20
57.29828783847012
40
57.041779513082325
50
154.7335085801786
51
155.26649141982293
0
ARC
8
0
10
5.6184579830057215
20
81.10346261544322
40
0.15
50
156.00000000000225
51
-121.43140797117226
0
ARC
8
0
10
5.053918618336435
20
80.10169081849622
40
1
50
41.62301675993855
51
60.90115622388208
0
ARC
8
0
10
5.372797761871936
20
80.41338041547286
40
0.555
50
-24.0000000000001
51
39.43494882292227
0
ARC
8
0
10
5.372797761871934
20
80.41338041547286
40
0.555
50
-87.43494882292197
51
-24.00000000000002
0
ARC
8
0
10
5.391056478351138
20
80.85891484996465
40
1
50
-108.9011562238815
51
-89.62301675993761
0
ARC
8
0
10
5.024345518535401
20
79.76906417240802
40
0.15
50
73.43140797117225
51
155.99999999999687
0
ARC
8
0
10
57.29031612945244
20
57.298098581844386
40
57.041779513082325
50
156.7335085801777
51
157.26649141982205
0
ARC
8
0
10
4.8190622530823095
20
79.28544710582634
40
0.15
50
157.9999999999979
51
-119.43140797117381
0
ARC
8
0
10
4.289828122064822
20
78.26458342149537
40
1
50
43.62301675993693
51
62.901156223880776
0
ARC
8
0
10
4.5976352029800385
20
78.5872118672094
40
0.555
50
-21.999999999999197
51
41.43494882292163
0
ARC
8
0
10
4.5976352029800385
20
78.5872118672094
40
0.555
50
-85.43494882292163
51
-21.999999999999197
0
ARC
8
0
10
4.600333869215104
20
79.03311211417721
40
1
50
-106.9011562238814
51
-87.62301675993767
0
ARC
8
0
10
4.271881539935494
20
77.9311273162737
40
0.15
50
75.43140797117299
51
157.9999999999979
0
ARC
8
0
10
57.29023852326532
20
57.297906499790855
40
57.041779513082325
50
158.73350858017716
51
159.2664914198215
0
ARC
8
0
10
4.083601319721587
20
77.44064057349634
40
0.15
50
159.99999999999886
51
-117.43140797117226
0
ARC
8
0
10
3.5903172126222875
20
76.40192876692876
40
1
50
45.623016759935815
51
64.90115622387995
0
ARC
8
0
10
3.886677215403169
20
76.73510298831619
40
0.555
50
-19.999999999999893
51
43.43494882292205
0
ARC
8
0
10
3.8866772154031684
20
76.73510298831619
40
0.555
50
-83.43494882292227
51
-19.99999999999988
0
ARC
8
0
10
3.8738125434850077
20
77.18082578699473
40
1
50
-104.90115622388325
51
-85.62301675993949
0
ARC
8
0
10
3.584019013310517
20
76.06804946747286
40
0.15
50
77.43140797117228
51
159.99999999999886
0
ARC
8
0
10
57.29016766792144
20
57.297711826333504
40
57.041779513082325
50
160.73350858017855
51
161.26649141982293
0
ARC
8
0
10
3.4129712287817884
20
75.57129063104216
40
0.15
50
162.00000000000117
51
-115.4314079711733
0
ARC
8
0
10
2.956238136300603
20
74.51599621257299
40
1
50
47.623016759936306
51
66.90115622388032
0
ARC
8
0
10
3.2407899919344896
20
74.85931028816661
40
0.555
50
-17.999999999999517
51
45.43494882292211
0
ARC
8
0
10
3.2407899919344896
20
74.85931028816661
40
0.555
50
-81.43494882292195
51
-17.999999999999517
0
ARC
8
0
10
3.2123776554841332
20
75.30431259398404
40
1
50
-102.90115622388174
51
-83.62301675993784
0
ARC
8
0
10
2.9615959931920726
20
74.18210049937908
40
0.15
50
79.43140797117414
51
162.00000000000136
0
ARC
8
0
10
57.29010364974578
20
57.29751479864822
40
57.041779513082325
50
162.73350858017798
51
163.2664914198223
0
ARC
8
0
10
2.8079890397260794
20
73.67967479341746
40
0.15
50
164.00000000000085
51
-113.43140797117404
0
ARC
8
0
10
2.3883634207818716
20
72.60908347673994
40
1
50
49.62301675993806
51
68.90115622388169
0
ARC
8
0
10
2.66076044666452
20
72.96211913122215
40
0.555
50
-15.99999999999963
51
47.434948822922664
0
ARC
8
0
10
2.6607604466645176
20
72.96211913122215
40
0.555
50
-79.43494882292221
51
-15.99999999999957
0
ARC
8
0
10
2.616835061737341
20
73.40585877741617
40
1
50
-100.90115622388
51
-81.62301675993628
0
ARC
8
0
10
2.4053708061532495
20
72.27557815030187
40
0.15
50
81.43140797117145
51
163.9999999999951
0
ARC
8
0
10
57.2900465467355
20
57.297315656785415
40
57.041779513082325
50
164.733508580178
51
165.26649141982242
0
ARC
8
0
10
2.269391830161437
20
71.76809770313923
40
0.15
50
166.00000000000165
51
-111.43140797117354
0
ARC
8
0
10
1.8873849339324948
20
70.68351383886079
40
1
50
51.6230167599378
51
70.90115622388146
0
ARC
8
0
10
2.1472952562474275
20
71.04584095266756
40
0.555
50
-14.000000000000263
51
49.434948822921896
0
ARC
8
0
10
2.1472952562474257
20
71.04584095266756
40
0.555
50
-77.43494882292158
51
-14.000000000000217
0
ARC
8
0
10
2.0879103391588187
20
71.48777731083214
40
1
50
-98.90115622388046
51
-79.6230167599367
0
ARC
8
0
10
1.9160211269045284
20
70.35080522404627
40
0.15
50
83.43140797117297
51
166.00000000000156
0
ARC
8
0
10
57.289996428461365
20
57.29711464336707
40
57.041779513082325
50
166.73350858017704
51
167.2664914198214
0
ARC
8
0
10
1.79783579782319
20
69.83888832243616
40
0.15
50
168.0000000000003
51
-109.43140797117152
0
ARC
8
0
10
1.4539130408689194
20
68.74163330892809
40
1
50
53.62301675993729
51
72.90115622388112
0
ARC
8
0
10
1.7010199989245223
20
69.11281044228345
40
0.555
50
-11.999999999998844
51
51.43494882292211
0
ARC
8
0
10
1.7010199989245232
20
69.11281044228345
40
0.555
50
-75.43494882292221
51
-11.999999999998863
0
ARC
8
0
10
1.6262479010483946
20
69.55240508104124
40
1
50
-96.90115622388062
51
-77.62301675993679
0
ARC
8
0
10
1.4941431526515334
20
68.41012675993443
40
0.15
50
85.43140797117196
51
168.0000000000003
0
ARC
8
0
10
57.28995335598562
20
57.29691200330074
40
57.041779513082325
50
168.7335085801787
51
169.26649141982304
0
ARC
8
0
10
1.3938954610991243
20
67.89439709576669
40
0.15
50
170.00000000000142
51
-107.43140797117202
0
ARC
8
0
10
1.0884758603216245
20
66.78580776924377
40
1
50
55.62301675993645
51
74.90115622388043
0
ARC
8
0
10
1.3224783923534191
20
67.16538269998618
40
0.555
50
-10.000000000000313
51
53.43494882292214
0
ARC
8
0
10
1.3224783923534185
20
67.16538269998618
40
0.555
50
-73.43494882292248
51
-10.000000000000302
0
ARC
8
0
10
1.2324102119733418
20
67.60210004098424
40
1
50
-94.90115622388437
51
-75.62301675994065
0
ARC
8
0
10
1.140250876720597
20
66.45590717573626
40
0.15
50
87.43140797117329
51
170.0000000000069
0
ARC
8
0
10
57.28991738178427
20
57.296707983466774
40
57.041779513082325
50
170.73350858017753
51
171.26649141982185
0
ARC
8
0
10
1.058062959067274
20
65.93699308616462
40
0.15
50
171.99999999999815
51
-105.43140797117285
0
ARC
8
0
10
0.7915186212038087
20
64.81842009195613
40
1
50
57.62301675993591
51
76.90115622387984
0
ARC
8
0
10
1.0121316311718374
20
65.20593036650152
40
0.555
50
-7.999999999999361
51
55.43494882292182
0
ARC
8
0
10
1.0121316311718367
20
65.20593036650152
40
0.555
50
-71.4349488229219
51
-7.999999999999351
0
ARC
8
0
10
0.9068771024915592
20
65.63923833693097
40
1
50
-92.90115622388171
51
-73.62301675993808
0
ARC
8
0
10
0.8547754623369852
20
64.49052738699064
40
0.15
50
89.43140797117285
51
172.00000000000358
0
ARC
8
0
10
57.28988854968718
20
57.29650283243602
40
57.041779513082325
50
172.73350858017773
51
173.2664914198221
0
ARC
8
0
10
0.7907474519003397
20
63.96906108890064
40
0.15
50
173.99999999999935
51
-103.43140797117213
0
ARC
8
0
10
0.563403120168638
20
62.84186723589704
40
1
50
59.623016759938324
51
78.90115622388201
0
ARC
8
0
10
0.7703578251030426
20
63.23684073266728
40
0.555
50
-5.999999999999922
51
57.434948822922266
0
ARC
8
0
10
0.7703578251030434
20
63.23684073266728
40
0.555
50
-69.43494882292237
51
-5.99999999999993
0
ARC
8
0
10
0.6500451845525683
20
63.66621141351213
40
1
50
-90.90115622388109
51
-71.62301675993726
0
ARC
8
0
10
0.6380647173190166
20
62.5163819062266
40
0.15
50
91.43140797117228
51
173.99999999999662
0
ARC
8
0
10
57.289866894821536
20
57.29629680015217
40
57.041779513082325
50
174.7335085801781
51
175.26649141982244
0
ARC
8
0
10
0.5922746223670101
20
61.99299872597675
40
0.15
50
175.9999999999997
51
-101.43140797117263
0
ARC
8
0
10
0.40440728081553023
20
60.85855732625704
40
1
50
61.623016759937805
51
80.90115622388151
0
ARC
8
0
10
0.5974515382873204
20
61.26051283088729
40
0.555
50
-3.9999999999990608
51
59.43494882292282
0
ARC
8
0
10
0.5974515382873207
20
61.2605128308873
40
0.555
50
-67.43494882292262
51
-3.9999999999997944
0
ARC
8
0
10
0.4622273682864527
20
61.68542310011243
40
1
50
-88.9011562238822
51
-69.62301675993847
0
ARC
8
0
10
0.4903826703277694
20
60.535875925618676
40
0.15
50
93.43140797117272
51
176.00000000000242
0
ARC
8
0
10
57.289852443570446
20
57.296090137633406
40
57.041779513082325
50
176.73350858017812
51
177.26649141982253
0
ARC
8
0
10
0.46288627903767393
20
60.01121352499308
40
0.15
50
178.0000000000007
51
-99.43140797117232
0
ARC
8
0
10
0.31472481508336825
20
58.87090672065552
40
1
50
63.62301675993826
51
82.90115622388197
0
ARC
8
0
10
0.4936234304009805
20
59.2793545122799
40
0.555
50
-2.0000000000006275
51
61.43494882292234
0
ARC
8
0
10
0.49362343040098033
20
59.2793545122799
40
0.555
50
-65.43494882292218
51
-2.000000000000626
0
ARC
8
0
10
0.34365248077115135
20
59.699286682174666
40
1
50
-86.90115622388142
51
-67.6230167599377
0
ARC
8
0
10
0.41190924918882305
20
58.551422386630634
40
0.15
50
95.4314079711726
51
178.0000000000007
0
ARC
8
0
10
57.289845213540545
20
57.2958830966661
40
57.041779513082325
50
178.73350858017778
51
179.26649141982216
0
ARC
8
0
10
0.4027400616779314
20
58.02611998594649
40
0.15
50
180
51
-97.43140797117249
0
ARC
8
0
10
0.29446498724208187
20
56.88133706518136
40
1
50
65.62301675993731
51
84.90115622388116
0
ARC
8
0
10
0.45899999999999563
20
57.29577951308233
40
0.555
50
0
51
63.43494882292216
0
ARC
8
0
10
0.45899999999999574
20
57.29577951308233
40
0.555
50
-63.43494882292216
51
0
0
ARC
8
0
10
0.2944649872420815
20
57.7102219609833
40
1
50
-84.90115622388113
51
-65.62301675993729
0
ARC
8
0
10
0.4027400616779313
20
56.56543904021817
40
0.15
50
97.43140797117249
51
180
0
ARC
8
0
10
57.289845213540545
20
57.295675929498756
40
57.041779513082325
50
-179.26649141982196
51
-178.73350858017758
0
ARC
8
0
10
0.41190924918882277
20
56.040136639534005
40
0.15
50
-178.0000000000007
51
-95.43140797117259
0
ARC
8
0
10
0.3436524807711516
20
54.89227234398997
40
1
50
67.6230167599377
51
86.90115622388144
0
ARC
8
0
10
0.4936234304009801
20
55.31220451388474
40
0.555
50
1.9999999999998923
51
65.43494882292217
0
ARC
8
0
10
0.4936234304009802
20
55.31220451388474
40
0.555
50
-61.43494882292231
51
1.9999999999998925
0
ARC
8
0
10
0.31472481508336786
20
55.72065230550912
40
1
50
-82.90115622388196
51
-63.62301675993824
0
ARC
8
0
10
0.46288627903767404
20
54.58034550117156
40
0.15
50
99.43140797117232
51
-178.0000000000007
0
ARC
8
0
10
57.28985244357046
20
57.295468888531
40
57.041779513082325
50
-177.26649141982273
51
-176.73350858017838
0
ARC
8
0
10
0.49038267032776195
20
54.055683100546005
40
0.15
50
-176.00000000000242
51
-93.43140797117269
0
ARC
8
0
10
0.4622273682864451
20
52.90613592605225
40
1
50
69.62301675993845
51
88.90115622388218
0
ARC
8
0
10
0.5974515382873139
20
53.33104619527738
40
0.555
50
4.0000000000005285
51
67.43494882292266
0
ARC
8
0
10
0.5974515382873136
20
53.33104619527739
40
0.555
50
-59.43494882292284
51
3.9999999999997944
0
ARC
8
0
10
0.4044072808155225
20
53.73300169990764
40
1
50
-80.90115622388149
51
-61.623016759937784
0
ARC
8
0
10
0.592274622367003
20
52.598560300187934
40
0.15
50
101.4314079711726
51
-175.9999999999997
0
ARC
8
0
10
57.28986689482151
20
57.295262226012824
40
57.041779513082325
50
-175.26649141982213
51
-174.73350858017776
0
ARC
8
0
10
0.6380647173190094
20
52.07517711993808
40
0.15
50
-173.99999999999662
51
-91.43140797117228
0
ARC
8
0
10
0.6500451845525613
20
50.92534761265255
40
1
50
71.62301675993726
51
90.9011562238811
0
ARC
8
0
10
0.7703578251030363
20
51.3547182934974
40
0.555
50
5.99999999999993
51
69.43494882292237
0
ARC
8
0
10
0.7703578251030356
20
51.3547182934974
40
0.555
50
-57.43494882292227
51
5.999999999999923
0
ARC
8
0
10
0.5634031201686306
20
51.74969179026764
40
1
50
-78.90115622388198
51
-59.623016759938295
0
ARC
8
0
10
0.7907474519003326
20
50.62249793726404
40
0.15
50
103.43140797117213
51
-173.99999999999935
0
ARC
8
0
10
57.289888549687106
20
57.29505619372925
40
57.041779513082325
50
-173.26649141982153
51
-172.73350858017713
0
ARC
8
0
10
0.8547754623369843
20
50.10103163917402
40
0.15
50
-172.00000000000085
51
-89.43140797117246
0
ARC
8
0
10
0.9068771024915592
20
48.95232068923369
40
1
50
73.62301675993795
51
92.90115622388173
0
ARC
8
0
10
1.012131631171838
20
49.38562865966313
40
0.555
50
8.000000000000098
51
71.43494882292202
0
ARC
8
0
10
1.012131631171838
20
49.38562865966313
40
0.555
50
-55.43494882292187
51
8.000000000000098
0
ARC
8
0
10
0.791518621203844
20
49.773138934208546
40
1
50
-76.90115622388188
51
-57.62301675993827
0
ARC
8
0
10
1.058062959067274
20
48.65456594000004
40
0.15
50
105.43140797117205
51
-172.00000000000082
0
ARC
8
0
10
57.28991738178434
20
57.29485104269745
40
57.041779513082325
50
-171.26649141982233
51
-170.73350858017795
0
ARC
8
0
10
1.1402508767205932
20
48.135651850428395
40
0.15
50
-169.99999999999594
51
-87.43140797117196
0
ARC
8
0
10
1.2324102119732792
20
46.9894589851804
40
1
50
75.62301675993699
51
94.90115622388075
0
ARC
8
0
10
1.3224783923534198
20
47.42617632617845
40
0.555
50
10.000000000000325
51
73.43494882292241
0
ARC
8
0
10
1.322478392353419
20
47.42617632617846
40
0.555
50
-53.434948822922564
51
9.999999999999588
0
ARC
8
0
10
1.0884758603216416
20
47.80575125692087
40
1
50
-74.90115622388147
51
-55.62301675993771
0
ARC
8
0
10
1.3938954610991243
20
46.697161930397954
40
0.15
50
107.43140797117275
51
-169.99999999999875
0
ARC
8
0
10
57.28995335598548
20
57.29464702286459
40
57.041779513082325
50
-169.26649141982236
51
-168.733508580178
0
ARC
8
0
10
1.4941431526515347
20
46.18143226623023
40
0.15
50
-168.0000000000004
51
-85.43140797117279
0
ARC
8
0
10
1.6262479010483948
20
45.03915394512341
40
1
50
77.6230167599368
51
96.90115622388065
0
ARC
8
0
10
1.7010199989245263
20
45.4787485838812
40
0.555
50
12.000000000001084
51
75.4349488229227
0
ARC
8
0
10
1.701019998924525
20
45.478748583881206
40
0.555
50
-51.43494882292232
51
12.000000000000334
0
ARC
8
0
10
1.4539130408689194
20
45.849925717236566
40
1
50
-72.90115622388112
51
-53.62301675993729
0
ARC
8
0
10
1.7978357978231914
20
44.7526707037285
40
0.15
50
109.4314079711729
51
-168.0000000000004
0
ARC
8
0
10
57.28999642846137
20
57.29444438279754
40
57.041779513082325
50
-167.26649141982142
51
-166.73350858017707
0
ARC
8
0
10
1.9160211269045269
20
44.240753802118384
40
0.15
50
-165.99999999999883
51
-83.43140797117239
0
ARC
8
0
10
2.0879103391588396
20
43.10378171533252
40
1
50
79.6230167599379
51
98.90115622388171
0
ARC
8
0
10
2.1472952562474257
20
43.5457180734971
40
0.555
50
14.000000000000217
51
77.43494882292158
0
ARC
8
0
10
2.1472952562474275
20
43.54571807349709
40
0.555
50
-49.43494882292143
51
14.000000000000975
0
ARC
8
0
10
1.8873849339324953
20
43.90804518730386
40
1
50
-70.90115622388136
51
-51.62301675993756
0
ARC
8
0
10
2.2693918301614335
20
42.82346132302543
40
0.15
50
111.43140797117229
51
-165.99999999999608
0
ARC
8
0
10
57.290046546735546
20
57.294243369379075
40
57.041779513082325
50
-165.26649141982256
51
-164.73350858017824
0
ARC
8
0
10
2.4053708061532393
20
42.3159808758628
40
0.15
50
-164.0000000000008
51
-81.43140797117297
0
ARC
8
0
10
2.6168350617373477
20
41.1857002487485
40
1
50
81.62301675993746
51
100.90115622388123
0
ARC
8
0
10
2.6607604466645074
20
41.62943989494253
40
0.555
50
16.000000000000387
51
79.43494882292248
0
ARC
8
0
10
2.6607604466645056
20
41.62943989494253
40
0.555
50
-47.43494882292217
51
16.000000000000338
0
ARC
8
0
10
2.3883634207818583
20
41.98247554942474
40
1
50
-68.90115622388159
51
-49.62301675993784
0
ARC
8
0
10
2.8079890397260634
20
40.91188423274722
40
0.15
50
113.43140797117235
51
-164.00000000000068
0
ARC
8
0
10
57.29010364974572
20
57.29404422751661
40
57.041779513082325
50
-163.26649141982216
51
-162.73350858017776
0
ARC
8
0
10
2.9615959931920703
20
40.409458526785556
40
0.15
50
-162.0000000000011
51
-79.4314079711728
0
ARC
8
0
10
3.2123776554841124
20
39.287246432180595
40
1
50
83.62301675993668
51
102.90115622388046
0
ARC
8
0
10
3.2407899919344896
20
39.73224873799802
40
0.555
50
17.999999999999517
51
81.43494882292195
0
ARC
8
0
10
3.2407899919344896
20
39.73224873799802
40
0.555
50
-45.43494882292211
51
17.999999999999517
0
ARC
8
0
10
2.9562381363006174
20
40.07556281359166
40
1
50
-66.90115622388123
51
-47.62301675993745
0
ARC
8
0
10
3.4129712287817884
20
39.02026839512248
40
0.15
50
115.4314079711733
51
-162.00000000000117
0
ARC
8
0
10
57.29016766792125
20
57.293847199831696
40
57.041779513082325
50
-161.26649141982233
51
-160.73350858017795
0
ARC
8
0
10
3.58401901331051
20
38.523509558691806
40
0.15
50
-159.99999999999886
51
-77.43140797117228
0
ARC
8
0
10
3.8738125434849593
20
37.41073323916993
40
1
50
85.6230167599371
51
104.90115622388086
0
ARC
8
0
10
3.886677215403164
20
37.856456037848474
40
0.555
50
19.999999999999975
51
83.43494882292246
0
ARC
8
0
10
3.8866772154031617
20
37.856456037848474
40
0.555
50
-43.43494882292205
51
19.999999999999893
0
ARC
8
0
10
3.5903172126223075
20
38.18963025923592
40
1
50
-64.90115622388147
51
-45.62301675993778
0
ARC
8
0
10
4.083601319721581
20
37.150918452668336
40
0.15
50
117.43140797117226
51
-159.99999999999886
0
ARC
8
0
10
57.29023852326543
20
57.293652526373485
40
57.041779513082325
50
-159.26649141982185
51
-158.73350858017747
0
ARC
8
0
10
4.271881539935487
20
36.66043170989095
40
0.15
50
-158.00000000000043
51
-75.4314079711723
0
ARC
8
0
10
4.600333869215097
20
35.55844691198745
40
1
50
87.62301675993767
51
106.9011562238815
0
ARC
8
0
10
4.597635202980034
20
36.004347158955255
40
0.555
50
21.999999999999986
51
85.43494882292192
0
ARC
8
0
10
4.597635202980033
20
36.004347158955255
40
0.555
50
-41.434948822921754
51
21.999999999999947
0
ARC
8
0
10
4.289828122064816
20
36.32697560466928
40
1
50
-62.90115622388064
51
-43.62301675993667
0
ARC
8
0
10
4.819062253082302
20
35.30611192033832
40
0.15
50
119.43140797117249
51
-158.00000000000043
0
ARC
8
0
10
57.29031612945253
20
57.293460444320075
40
57.041779513082325
50
-157.26649141982227
51
-156.73350858017795
0
ARC
8
0
10
5.024345518535382
20
34.82249485375665
40
0.15
50
-155.99999999999977
51
-73.43140797117323
0
ARC
8
0
10
5.391056478351137
20
33.732644176200026
40
1
50
89.62301675993878
51
108.90115622388261
0
ARC
8
0
10
5.372797761871912
20
34.17817861069182
40
0.555
50
23.999999999999982
51
87.43494882292185
0
ARC
8
0
10
5.372797761871914
20
34.17817861069182
40
0.555
50
-39.43494882292227
51
24.0000000000001
0
ARC
8
0
10
5.053918618336401
20
34.48986820766845
40
1
50
-60.901156223881465
51
-41.62301675993776
0
ARC
8
0
10
5.6184579830057
20
33.48809641072146
40
0.15
50
121.43140797117368
51
-155.99999999999977
0
ARC
8
0
10
57.29040039193082
20
57.29327118769516
40
57.041779513082325
50
-155.2664914198223
51
-154.7335085801779
0
ARC
8
0
10
5.840494187660481
20
33.0119382332356
40
0.15
50
-153.9999999999996
51
-71.43140797117188
0
ARC
8
0
10
6.245016997195295
20
31.935549491197815
40
1
50
91.62301675993713
51
110.90115622388093
0
ARC
8
0
10
6.211220475905453
20
32.3801752981345
40
0.555
50
25.999999999999623
51
89.43494882292258
0
ARC
8
0
10
6.211220475905451
20
32.3801752981345
40
0.555
50
-37.434948822922216
51
25.999999999999545
0
ARC
8
0
10
5.8816577748664605
20
32.68054630061191
40
1
50
-58.90115622388133
51
-39.62301675993756
0
ARC
8
0
10
6.480814568932355
20
31.699086895672355
40
0.15
50
123.43140797117178
51
-153.99999999999977
0
ARC
8
0
10
57.29049120803936
20
57.29308498707893
40
57.041779513082325
50
-153.2664914198216
51
-152.73350858017722
0
ARC
8
0
10
6.719333195875533
20
31.23096773267502
40
0.15
50
-152.00000000000014
51
-69.43140797117269
0
ARC
8
0
10
7.161175006397972
20
30.169352340033278
40
1
50
93.62301675993696
51
112.90115622388072
0
ARC
8
0
10
7.111881856152713
20
30.612527811358458
40
0.555
50
28.00000000000003
51
91.43494882292208
0
ARC
8
0
10
7.111881856152713
20
30.612527811358458
40
0.555
50
-35.434948822922166
51
28.00000000000003
0
ARC
8
0
10
6.772037118996224
20
30.90121426353873
40
1
50
-56.90115622388138
51
-37.62301675993763
0
ARC
8
0
10
7.405081362198177
20
29.941263007709306
40
0.15
50
125.43140797117344
51
-152.0000000000003
0
ARC
8
0
10
57.29058846713349
20
57.29290206932658
40
57.041779513082325
50
-151.266491419822
51
-150.73350858017764
0
ARC
8
0
10
7.659791813223767
20
29.48175319029242
40
0.15
50
-150.00000000000043
51
-67.43140797117337
0
ARC
8
0
10
8.13841430854823
20
28.436204561873346
40
1
50
95.62301675993731
51
114.9011562238811
0
ARC
8
0
10
8.073684585458093
20
28.87738975654115
40
0.555
50
30.000000000000313
51
93.43494882292178
0
ARC
8
0
10
8.073684585458095
20
28.87738975654115
40
0.555
50
-33.434948822921754
51
30.000000000000405
0
ARC
8
0
10
7.723971860647262
20
29.154039938451046
40
1
50
-54.901156223881266
51
-35.623016759937464
0
ARC
8
0
10
8.39013228608792
20
28.21676638446782
40
0.15
50
127.43140797117253
51
-150.0000000000001
0
ARC
8
0
10
57.290692050717425
20
57.29272265729637
40
57.041779513082325
50
-149.26649141982224
51
-148.7335085801779
0
ARC
8
0
10
8.660724235746486
20
27.766425754561848
40
0.15
50
-148.00000000000088
51
-65.43140797117307
0
ARC
8
0
10
9.175544288088561
20
26.738217730314748
40
1
50
97.62301675993747
51
116.90115622388115
0
ARC
8
0
10
9.095456855350292
20
27.17687513212485
40
0.555
50
32.00000000000003
51
95.43494882292227
0
ARC
8
0
10
9.095456855350292
20
27.17687513212485
40
0.555
50
-31.434948822922227
51
32.00000000000003
0
ARC
8
0
10
8.736302213971182
20
27.441151988132404
40
1
50
-52.90115622388148
51
-33.62301675993767
0
ARC
8
0
10
9.43476720778629
20
26.527698059444983
40
0.15
50
129.43140797117232
51
-148.0000000000005
0
ARC
8
0
10
57.290801832590304
20
57.29254696957453
40
57.041779513082325
50
-147.26649141982202
51
-146.73350858017764
0
ARC
8
0
10
9.720910981468693
20
26.087075287737765
40
0.15
50
-145.99999999999997
51
-63.431407971172284
0
ARC
8
0
10
10.271301361896555
20
25.077460580756878
40
1
50
99.62301675993751
51
118.90115622388117
0
ARC
8
0
10
10.175953793710422
20
25.513055753235165
40
0.555
50
34.000000000000135
51
97.43494882292248
0
ARC
8
0
10
10.17595379371042
20
25.513055753235165
40
0.555
50
-29.434948822922053
51
34.000000000000036
0
ARC
8
0
10
9.807794810370018
20
25.76463730270006
40
1
50
-50.90115622388118
51
-31.623016759937247
0
ARC
8
0
10
10.537713400554903
20
24.876115902213762
40
0.15
50
131.43140797117243
51
-145.99999999999997
0
ARC
8
0
10
57.290917679000444
20
57.29237522020851
40
57.041779513082325
50
-145.26649141982233
51
-144.73350858017795
0
ARC
8
0
10
10.83906037614996
20
24.44574781967991
40
0.15
50
-143.9999999999992
51
-61.431407971171545
0
ARC
8
0
10
11.424350518766202
20
23.45595648996648
40
1
50
101.62301675993798
51
120.90115622388184
0
ARC
8
0
10
11.31385898145686
20
23.88795872749357
40
0.555
50
35.99999999999921
51
99.43494882292208
0
ARC
8
0
10
11.313858981456862
20
23.88795872749357
40
0.555
50
-27.43494882292234
51
35.999999999999325
0
ARC
8
0
10
10.93714420116583
20
24.12653845705096
40
1
50
-48.901156223881564
51
-29.623016759937887
0
ARC
8
0
10
11.697627094353683
20
23.264032111226037
40
0.15
50
133.4314079711712
51
-143.9999999999992
0
ARC
8
0
10
57.29103944880612
20
57.292207618449524
40
57.041779513082325
50
-143.266491419822
51
-142.7335085801776
0
ARC
8
0
10
12.01381012699058
20
22.84444305508101
40
0.15
50
-141.9999999999994
51
-59.43140797117166
0
ARC
8
0
10
12.633286945913438
20
21.875681010904607
40
1
50
103.62301675993741
51
122.90115622388122
0
ARC
8
0
10
12.507786056399212
20
22.30356398529893
40
0.555
50
38.00000000000072
51
101.43494882292292
0
ARC
8
0
10
12.507786056399206
20
22.303563985298936
40
0.555
50
-25.434948822922813
51
37.9999999999998
0
ARC
8
0
10
12.12297444808886
20
22.528851222298723
40
1
50
-46.90115622388121
51
-27.62301675993724
0
ARC
8
0
10
12.91309511301775
20
21.69341076225866
40
0.15
50
135.4314079711724
51
-141.99999999999983
0
ARC
8
0
10
57.291166993649895
20
57.29204436849397
40
57.041779513082325
50
-141.26649141982156
51
-140.7335085801772
0
ARC
8
0
10
13.24372898237551
20
21.285111937134587
40
0.15
50
-139.9999999999993
51
-57.431407971171915
0
ARC
8
0
10
13.89663774052422
20
20.338559465819696
40
1
50
105.62301675993704
51
124.90115622388083
0
ARC
8
0
10
13.756280402307036
20
20.761801867587266
40
0.555
50
40.000000000000334
51
103.43494882292248
0
ARC
8
0
10
13.756280402307036
20
20.761801867587266
40
0.555
50
-23.434948822922205
51
40.000000000000334
0
ARC
8
0
10
13.363840799646423
20
20.97352213423403
40
1
50
-44.90115622388144
51
-25.623016759937606
0
ARC
8
0
10
14.182636595994886
20
20.16616541548964
40
0.15
50
137.43140797117215
51
-139.9999999999993
0
ARC
8
0
10
57.291300158138874
20
57.29188566923582
40
57.041779513082325
50
-139.26649141982233
51
-138.73350858017795
0
ARC
8
0
10
14.527318475633894
20
19.769654270611365
40
0.15
50
-137.99999999999991
51
-55.43140797117195
0
ARC
8
0
10
15.21286370425955
20
18.846464600539054
40
1
50
107.62301675993758
51
126.90115622388129
0
ARC
8
0
10
15.057820921135619
20
19.26455077400881
40
0.555
50
42.000000000000064
51
105.43494882292185
0
ARC
8
0
10
15.05782092113562
20
19.264550774008807
40
0.555
50
-21.434948822921715
51
42.00000000000046
0
ARC
8
0
10
14.658231451329893
20
19.462446121770633
40
1
50
-42.90115622388093
51
-23.62301675993713
0
ARC
8
0
10
15.50470480254591
20
18.684156784119946
40
0.15
50
139.43140797117283
51
-137.99999999999991
0
ARC
8
0
10
57.291438780030994
20
57.29173171402759
40
57.041779513082325
50
-137.26649141982182
51
-136.7335085801774
0
ARC
8
0
10
15.863014750690025
20
18.299916407239635
40
0.15
50
-136.00000000000077
51
-53.431407971173705
0
ARC
8
0
10
16.58036121853169
20
17.401214302816424
40
1
50
109.62301675993804
51
128.90115622388183
0
ARC
8
0
10
16.41082188624975
20
17.81363487438723
40
0.555
50
44.00000000000013
51
107.43494882292241
0
ARC
8
0
10
16.41082188624975
20
17.81363487438723
40
0.555
50
-19.43494882292254
51
44.00000000000013
0
ARC
8
0
10
16.00456938751583
20
17.997464198266307
40
1
50
-40.901156223881216
51
-21.623016759937318
0
ARC
8
0
10
16.87768899621016
20
17.24919046738096
40
0.15
50
141.43140797117363
51
-136.00000000000077
0
ARC
8
0
10
57.29158269043823
20
57.29158269043842
40
57.041779513082325
50
-135.26649141982205
51
-134.73350858017773
0
ARC
8
0
10
17.249190467380945
20
16.877688996210175
40
0.15
50
-133.99999999999923
51
-51.431407971173606
0
ARC
8
0
10
17.997464198266293
20
16.004569387515843
40
1
50
111.62301675993733
51
130.90115622388123
0
ARC
8
0
10
17.813634874387215
20
16.410821886249764
40
0.555
50
45.99999999999987
51
109.43494882292254
0
ARC
8
0
10
17.813634874387215
20
16.410821886249764
40
0.555
50
-17.434948822922408
51
45.99999999999987
0
ARC
8
0
10
17.40121430281641
20
16.580361218531703
40
1
50
-38.90115622388182
51
-19.623016759938032
0
ARC
8
0
10
18.29991640723962
20
15.86301475069004
40
0.15
50
143.43140797117368
51
-133.99999999999923
0
ARC
8
0
10
57.29173171402698
20
57.29143878003157
40
57.041779513082325
50
-133.26649141982176
51
-132.73350858017739
0
ARC
8
0
10
18.68415678411994
20
15.504704802545925
40
0.15
50
-132.00000000000009
51
-49.43140797117281
0
ARC
8
0
10
19.46244612177063
20
14.658231451329911
40
1
50
113.62301675993736
51
132.90115622388123
0
ARC
8
0
10
19.2645507740088
20
15.057820921135637
40
0.555
50
47.999999999999424
51
111.43494882292173
0
ARC
8
0
10
19.264550774008804
20
15.057820921135633
40
0.555
50
-15.434948822921848
51
47.999999999999936
0
ARC
8
0
10
18.846464600539047
20
15.212863704259561
40
1
50
-36.90115622388121
51
-17.62301675993738
0
ARC
8
0
10
19.76965427061136
20
14.527318475633908
40
0.15
50
145.43140797117252
51
-132.00000000000009
0
ARC
8
0
10
57.29188566923601
20
57.29130015813871
40
57.041779513082325
50
-131.2664914198223
51
-130.73350858017795
0
ARC
8
0
10
20.166165415489633
20
14.182636595994893
40
0.15
50
-130.0000000000007
51
-47.43140797117217
0
ARC
8
0
10
20.973522134234024
20
13.36384079964643
40
1
50
115.62301675993761
51
134.90115622388146
0
ARC
8
0
10
20.761801867587256
20
13.75628040230704
40
0.555
50
50.000000000000185
51
113.43494882292174
0
ARC
8
0
10
20.761801867587256
20
13.756280402307038
40
0.555
50
-13.43494882292184
51
50.0000000000003
0
ARC
8
0
10
20.33855946581969
20
13.89663774052423
40
1
50
-34.90115622388091
51
-15.623016759937233
0
ARC
8
0
10
21.28511193713458
20
13.243728982375519
40
0.15
50
147.43140797117192
51
-130.0000000000007
0
ARC
8
0
10
57.292044368493805
20
57.29116699365002
40
57.041779513082325
50
-129.26649141982264
51
-128.73350858017824
0
ARC
8
0
10
21.693410762258655
20
12.913095113017757
40
0.15
50
-128.00000000000017
51
-45.43140797117242
0
ARC
8
0
10
22.528851222298716
20
12.122974448088867
40
1
50
117.62301675993724
51
136.9011562238812
0
ARC
8
0
10
22.303563985298922
20
12.507786056399212
40
0.555
50
52.00000000000032
51
115.43494882292208
0
ARC
8
0
10
22.303563985298922
20
12.507786056399214
40
0.555
50
-11.43494882292236
51
52.000000000000206
0
ARC
8
0
10
21.8756810109046
20
12.633286945913445
40
1
50
-32.9011562238812
51
-13.623016759937402
0
ARC
8
0
10
22.844443055081
20
12.013810126990586
40
0.15
50
149.43140797117167
51
-128.00000000000057
0
ARC
8
0
10
57.2922076184492
20
57.29103944880636
40
57.041779513082325
50
-127.26649141982199
51
-126.73350858017764
0
ARC
8
0
10
23.264032111226022
20
11.697627094353697
40
0.15
50
-126.00000000000078
51
-43.43140797117073
0
ARC
8
0
10
24.12653845705094
20
10.937144201165843
40
1
50
119.62301675993767
51
138.9011562238813
0
ARC
8
0
10
23.88795872749355
20
11.313858981456873
40
0.555
50
54.00000000000017
51
117.43494882292187
0
ARC
8
0
10
23.887958727493555
20
11.31385898145687
40
0.555
50
-9.434948822921537
51
54.00000000000068
0
ARC
8
0
10
23.455956489966464
20
11.424350518766216
40
1
50
-30.90115622388183
51
-11.623016759937986
0
ARC
8
0
10
24.445747819679895
20
10.839060376149975
40
0.15
50
151.43140797117155
51
-126.00000000000078
0
ARC
8
0
10
57.292375220208655
20
57.290917679000344
40
57.041779513082325
50
-125.26649141982224
51
-124.73350858017788
0
ARC
8
0
10
24.87611590221373
20
10.537713400554924
40
0.15
50
-124.00000000000001
51
-41.43140797117243
0
ARC
8
0
10
25.764637302700027
20
9.807794810370039
40
1
50
121.62301675993724
51
140.9011562238812
0
ARC
8
0
10
25.513055753235133
20
10.175953793710441
40
0.555
50
55.99999999999997
51
119.43494882292205
0
ARC
8
0
10
25.513055753235133
20
10.175953793710441
40
0.555
50
-7.434948822922238
51
55.99999999999997
0
ARC
8
0
10
25.077460580756853
20
10.271301361896585
40
1
50
-28.901156223881816
51
-9.62301675993804
0
ARC
8
0
10
26.087075287737733
20
9.720910981468714
40
0.15
50
153.4314079711723
51
-124.00000000000001
0
ARC
8
0
10
57.29254696957443
20
57.29080183259036
40
57.041779513082325
50
-123.26649141982229
51
-122.73350858017791
0
ARC
8
0
10
26.52769805944497
20
9.434767207786297
40
0.15
50
-121.99999999999947
51
-39.431407971172334
0
ARC
8
0
10
27.44115198813239
20
8.73630221397119
40
1
50
123.62301675993767
51
142.9011562238815
0
ARC
8
0
10
27.176875132124835
20
9.0954568553503
40
0.555
50
57.999999999999964
51
121.43494882292221
0
ARC
8
0
10
27.176875132124835
20
9.0954568553503
40
0.555
50
-5.434948822922247
51
57.999999999999964
0
ARC
8
0
10
26.738217730314734
20
9.175544288088568
40
1
50
-26.901156223881134
51
-7.623016759937467
0
ARC
8
0
10
27.766425754561833
20
8.660724235746493
40
0.15
50
155.43140797117306
51
-121.99999999999913
0
ARC
8
0
10
57.29272265729645
20
57.290692050717375
40
57.041779513082325
50
-121.2664914198222
51
-120.73350858017785
0
ARC
8
0
10
28.216766384467803
20
8.390132286087928
40
0.15
50
-119.99999999999956
51
-37.43140797117251
0
ARC
8
0
10
29.154039938451028
20
7.723971860647269
40
1
50
125.62301675993749
51
144.90115622388126
0
ARC
8
0
10
28.877389756541138
20
8.073684585458105
40
0.555
50
60.00000000000041
51
123.43494882292256
0
ARC
8
0
10
28.877389756541135
20
8.073684585458107
40
0.555
50
-3.434948822922533
51
60.00000000000001
0
ARC
8
0
10
28.43620456187333
20
8.138414308548237
40
1
50
-24.901156223881088
51
-5.623016759937293
0
ARC
8
0
10
29.4817531902924
20
7.659791813223774
40
0.15
50
157.4314079711734
51
-119.99999999999956
0
ARC
8
0
10
57.29290206932631
20
57.29058846713364
40
57.041779513082325
50
-119.26649141982209
51
-118.73350858017767
0
ARC
8
0
10
29.941263007709313
20
7.40508136219817
40
0.15
50
-117.9999999999997
51
-35.43140797117342
0
ARC
8
0
10
30.901214263538737
20
6.7720371189962165
40
1
50
127.62301675993764
51
146.9011562238814
0
ARC
8
0
10
30.612527811358465
20
7.1118818561527055
40
0.555
50
61.99999999999997
51
125.43494882292217
0
ARC
8
0
10
30.612527811358465
20
7.1118818561527055
40
0.555
50
-1.4349488229221519
51
61.99999999999997
0
ARC
8
0
10
30.169352340033285
20
7.161175006397965
40
1
50
-22.901156223880715
51
-3.6230167599370064
0
ARC
8
0
10
31.230967732675026
20
6.719333195875526
40
0.15
50
159.4314079711727
51
-117.99999999999989
0
ARC
8
0
10
57.29308498707839
20
57.29049120803964
40
57.041779513082325
50
-117.2664914198222
51
-116.73350858017785
0
ARC
8
0
10
31.699086895672313
20
6.480814568932376
40
0.15
50
-116.00000000000026
51
-33.43140797117178
0
ARC
8
0
10
32.680546300611866
20
5.881657774866481
40
1
50
129.6230167599375
51
148.9011562238813
0
ARC
8
0
10
32.38017529813446
20
6.2112204759054706
40
0.555
50
63.99999999999956
51
127.4349488229221
0
ARC
8
0
10
32.38017529813446
20
6.2112204759054706
40
0.555
50
0.5650511770778089
51
63.99999999999956
0
ARC
8
0
10
31.935549491197772
20
6.245016997195318
40
1
50
-20.901156223880964
51
-1.6230167599372325
0
ARC
8
0
10
33.011938233235554
20
5.840494187660502
40
0.15
50
161.43140797117155
51
-116.00000000000043
0
ARC
8
0
10
57.293271187694984
20
57.29040039193091
40
57.041779513082325
50
-115.26649141982197
51
-114.73350858017757
0
ARC
8
0
10
33.48809641072145
20
5.618457983005706
40
0.15
50
-114.00000000000024
51
-31.431407971173403
0
ARC
8
0
10
34.48986820766844
20
5.053918618336408
40
1
50
131.62301675993777
51
150.90115622388146
0
ARC
8
0
10
34.17817861069181
20
5.372797761871921
40
0.555
50
65.99999999999991
51
129.43494882292228
0
ARC
8
0
10
34.17817861069181
20
5.37279776187192
40
0.555
50
2.565051177078042
51
66
0
ARC
8
0
10
33.73264417620001
20
5.391056478351144
40
1
50
-18.90115622388259
51
0.3769832400612208
0
ARC
8
0
10
34.82249485375664
20
5.024345518535389
40
0.15
50
163.43140797117326
51
-114.00000000000024
0
ARC
8
0
10
57.29346044431982
20
57.290316129452634
40
57.041779513082325
50
-113.26649141982182
51
-112.73350858017746
0
ARC
8
0
10
35.3061119203383
20
4.8190622530823095
40
0.15
50
-111.99999999999959
51
-29.431407971172487
0
ARC
8
0
10
36.326975604669265
20
4.289828122064822
40
1
50
133.62301675993663
51
152.90115622388058
0
ARC
8
0
10
36.00434715895524
20
4.5976352029800385
40
0.555
50
68.00000000000081
51
131.43494882292165
0
ARC
8
0
10
36.00434715895524
20
4.5976352029800385
40
0.555
50
4.56505117707837
51
68.00000000000081
0
ARC
8
0
10
35.55844691198744
20
4.6003338692151035
40
1
50
-16.901156223881447
51
2.376983240062388
0
ARC
8
0
10
36.660431709890936
20
4.271881539935494
40
0.15
50
165.43140797117232
51
-111.99999999999959
0
ARC
8
0
10
57.293652526373556
20
57.29023852326541
40
57.041779513082325
50
-111.26649141982261
51
-110.7335085801783
0
ARC
8
0
10
37.15091845266829
20
4.083601319721595
40
0.15
50
-110.00000000000117
51
-27.43140797117225
0
ARC
8
0
10
38.18963025923588
20
3.590317212622322
40
1
50
135.6230167599378
51
154.90115622388151
0
ARC
8
0
10
37.85645603784844
20
3.886677215403178
40
0.555
50
70.00000000000003
51
133.43494882292276
0
ARC
8
0
10
37.85645603784843
20
3.886677215403181
40
0.555
50
6.565051177077262
51
69.99999999999925
0
ARC
8
0
10
37.410733239169886
20
3.873812543484974
40
1
50
-14.901156223880859
51
4.3769832400628905
0
ARC
8
0
10
38.523509558691764
20
3.5840190133105247
40
0.15
50
167.43140797117226
51
-110.00000000000117
0
ARC
8
0
10
57.2938471998311
20
57.29016766792146
40
57.041779513082325
50
-109.26649141982145
51
-108.73350858017703
0
ARC
8
0
10
39.020268395122486
20
3.412971228781789
40
0.15
50
-107.99999999999883
51
-25.431407971173297
0
ARC
8
0
10
40.07556281359167
20
2.9562381363006174
40
1
50
137.62301675993746
51
156.9011562238812
0
ARC
8
0
10
39.73224873799803
20
3.2407899919344914
40
0.555
50
71.99999999999973
51
135.43494882292222
0
ARC
8
0
10
39.73224873799803
20
3.240789991934492
40
0.555
50
8.565051177077823
51
71.99999999999972
0
ARC
8
0
10
39.2872464321806
20
3.212377655484112
40
1
50
-12.90115622388046
51
6.376983240063365
0
ARC
8
0
10
40.40945852678556
20
2.9615959931920703
40
0.15
50
169.43140797117297
51
-107.99999999999889
0
ARC
8
0
10
57.29404422751699
20
57.2901036497456
40
57.041779513082325
50
-107.26649141982264
51
-106.73350858017825
0
ARC
8
0
10
40.91188423274723
20
2.8079890397260563
40
0.15
50
-105.99999999999935
51
-23.431407971172494
0
ARC
8
0
10
41.98247554942475
20
2.3883634207818516
40
1
50
139.62301675993785
51
158.90115622388163
0
ARC
8
0
10
41.629439894942536
20
2.6607604466644985
40
0.555
50
73.99999999999967
51
137.43494882292217
0
ARC
8
0
10
41.629439894942536
20
2.6607604466645003
40
0.555
50
10.565051177077528
51
73.99999999999962
0
ARC
8
0
10
41.18570024874851
20
2.6168350617373406
40
1
50
-10.901156223881223
51
8.376983240062549
0
ARC
8
0
10
42.315980875862806
20
2.405370806153232
40
0.15
50
171.43140797117297
51
-105.99999999999926
0
ARC
8
0
10
57.294243369378634
20
57.29004654673565
40
57.041779513082325
50
-105.26649141982134
51
-104.73350858017702
0
ARC
8
0
10
42.82346132302541
20
2.269391830161434
40
0.15
50
-104.00000000000395
51
-21.431407971172273
0
ARC
8
0
10
43.90804518730385
20
1.8873849339324948
40
1
50
141.62301675993757
51
160.90115622388132
0
ARC
8
0
10
43.54571807349708
20
2.1472952562474275
40
0.555
50
75.99999999999903
51
139.43494882292143
0
ARC
8
0
10
43.545718073497085
20
2.1472952562474257
40
0.555
50
12.565051177078423
51
75.99999999999979
0
ARC
8
0
10
43.1037817153325
20
2.087910339158839
40
1
50
-8.901156223881703
51
10.376983240062135
0
ARC
8
0
10
44.24075380211837
20
1.9160211269045264
40
0.15
50
173.4314079711724
51
-104.00000000000121
0
ARC
8
0
10
57.29444438279697
20
57.28999642846151
40
57.041779513082325
50
-103.26649141982237
51
-102.73350858017801
0
ARC
8
0
10
44.75267070372846
20
1.7978357978231987
40
0.15
50
-101.99999999999956
51
-19.431407971172977
0
ARC
8
0
10
45.84992571723653
20
1.4539130408689265
40
1
50
143.6230167599373
51
162.90115622388112
0
ARC
8
0
10
45.47874858388117
20
1.7010199989245307
40
0.555
50
78.00000000000041
51
141.43494882292222
0
ARC
8
0
10
45.47874858388117
20
1.7010199989245318
40
0.555
50
14.56505117707763
51
78.00000000000038
0
ARC
8
0
10
45.039153945123374
20
1.6262479010484017
40
1
50
-6.901156223880604
51
12.376983240063218
0
ARC
8
0
10
46.181432266230196
20
1.494143152651542
40
0.15
50
175.43140797117272
51
-101.99999999999959
0
ARC
8
0
10
57.29464702286432
20
57.28995335598553
40
57.041779513082325
50
-101.26649141982176
51
-100.73350858017739
0
ARC
8
0
10
46.69716193039796
20
1.393895461099123
40
0.15
50
-100.00000000000404
51
-17.431407971172337
0
ARC
8
0
10
47.80575125692088
20
1.0884758603216416
40
1
50
145.6230167599377
51
164.90115622388151
0
ARC
8
0
10
47.42617632617846
20
1.3224783923534178
40
0.555
50
80.00000000000044
51
143.43494882292202
0
ARC
8
0
10
47.42617632617846
20
1.3224783923534185
40
0.555
50
16.56505117707773
51
80.00000000000041
0
ARC
8
0
10
46.989458985180406
20
1.2324102119732785
40
1
50
-4.901156223880692
51
14.376983240063053
0
ARC
8
0
10
48.1356518504284
20
1.1402508767205948
40
0.15
50
177.4314079711725
51
-100.0000000000013
0
ARC
8
0
10
57.29485104269755
20
57.28991738178432
40
57.041779513082325
50
-99.26649141982217
51
-98.73350858017776
0
ARC
8
0
10
48.654565940000076
20
1.058062959067267
40
0.15
50
-97.99999999999918
51
-15.431407971172034
0
ARC
8
0
10
49.773138934208575
20
0.7915186212038366
40
1
50
147.62301675993805
51
166.9011562238818
0
ARC
8
0
10
49.385628659663176
20
1.0121316311718367
40
0.555
50
82.00000000000136
51
145.4349488229228
0
ARC
8
0
10
49.38562865966317
20
1.0121316311718371
40
0.555
50
18.565051177077365
51
82.00000000000064
0
ARC
8
0
10
48.95232068923372
20
0.9068771024915517
40
1
50
-2.9011562238816966
51
16.376983240062057
0
ARC
8
0
10
50.10103163917405
20
0.8547754623369773
40
0.15
50
179.4314079711725
51
-97.99999999999918
0
ARC
8
0
10
57.29505619372888
20
57.28988854968714
40
57.041779513082325
50
-97.26649141982249
51
-96.73350858017815
0
ARC
8
0
10
50.62249793726403
20
0.7907474519003326
40
0.15
50
-96.00000000000068
51
-13.431407971172092
0
ARC
8
0
10
51.749691790267626
20
0.5634031201686305
40
1
50
149.62301675993828
51
168.901156223882
0
ARC
8
0
10
51.354718293497385
20
0.7703578251030356
40
0.555
50
84.00000000000007
51
147.4349488229223
0
ARC
8
0
10
51.354718293497385
20
0.7703578251030363
40
0.555
50
20.565051177077613
51
84.00000000000007
0
ARC
8
0
10
50.92534761265254
20
0.6500451845525611
40
1
50
-0.9011562238810733
51
18.376983240062753
0
ARC
8
0
10
52.07517711993807
20
0.6380647173190095
40
0.15
50
-178.56859202882777
51
-96.0000000000034
0
ARC
8
0
10
57.29526222601208
20
57.28986689482157
40
57.041779513082325
50
-95.26649141982152
51
-94.73350858017717
0
ARC
8
0
10
52.59856030018789
20
0.5922746223670096
40
0.15
50
-94.00000000000031
51
-11.43140797117258
0
ARC
8
0
10
53.7330016999076
20
0.4044072808155311
40
1
50
151.62301675993785
51
170.9011562238816
0
ARC
8
0
10
53.331046195277345
20
0.5974515382873207
40
0.555
50
86.00000000000021
51
149.43494882292285
0
ARC
8
0
10
53.33104619527734
20
0.5974515382873211
40
0.555
50
22.565051177077322
51
85.99999999999947
0
ARC
8
0
10
52.90613592605221
20
0.4622273682864523
40
1
50
1.0988437761178316
51
20.37698324006156
0
ARC
8
0
10
54.05568310054596
20
0.49038267032776933
40
0.15
50
-176.5685920288273
51
-93.9999999999976
0
ARC
8
0
10
57.29546888853074
20
57.289852443570474
40
57.041779513082325
50
-93.2664914198214
51
-92.73350858017706
0
ARC
8
0
10
54.580345501171514
20
0.462886279037681
40
0.15
50
-91.9999999999993
51
-9.43140797117233
0
ARC
8
0
10
55.72065230550908
20
0.314724815083375
40
1
50
153.62301675993825
51
172.90115622388194
0
ARC
8
0
10
55.31220451388469
20
0.49362343040098033
40
0.555
50
87.99999999999937
51
151.43494882292134
0
ARC
8
0
10
55.312204513884694
20
0.49362343040098
40
0.555
50
24.565051177078505
51
88.00000000000011
0
ARC
8
0
10
54.89227234398993
20
0.34365248077115795
40
1
50
3.0988437761186103
51
22.376983240062337
0
ARC
8
0
10
56.04013663953396
20
0.4119092491888299
40
0.15
50
-174.56859202882745
51
-91.9999999999993
0
ARC
8
0
10
57.29567592949916
20
57.28984521354054
40
57.041779513082325
50
-91.26649141982288
51
-90.7335085801785
0
ARC
8
0
10
56.56543904021816
20
0.40274006167793086
40
0.15
50
-90
51
-7.431407971172483
0
ARC
8
0
10
57.71022196098328
20
0.29446498724208203
40
1
50
155.62301675993731
51
174.90115622388117
0
ARC
8
0
10
57.295779513082316
20
0.45899999999999574
40
0.555
50
90
51
153.43494882292217
0
ARC
8
0
10
57.295779513082316
20
0.45899999999999574
40
0.555
50
26.565051177077827
51
90
0
ARC
8
0
10
56.88133706518135
20
0.2944649872420814
40
1
50
5.098843776118877
51
24.37698324006271
0
ARC
8
0
10
58.02611998594647
20
0.4027400616779314
40
0.15
50
-172.5685920288275
51
-90
0
ARC
8
0
10
57.29588309666589
20
57.289845213540545
40
57.041779513082325
50
-89.26649141982195
51
-88.73350858017757
0
ARC
8
0
10
58.55142238663066
20
0.41190924918882305
40
0.15
50
-88.0000000000007
51
-5.431407971172598
0
ARC
8
0
10
59.699286682174694
20
0.3436524807711516
40
1
50
157.6230167599377
51
176.90115622388143
0
ARC
8
0
10
59.27935451227993
20
0.4936234304009801
40
0.555
50
91.9999999999999
51
155.43494882292217
0
ARC
8
0
10
59.27935451227993
20
0.4936234304009802
40
0.555
50
28.565051177077695
51
91.9999999999999
0
ARC
8
0
10
58.87090672065555
20
0.3147248150833679
40
1
50
7.098843776118058
51
26.376983240061765
0
ARC
8
0
10
60.01121352499311
20
0.46288627903767404
40
0.15
50
-170.5685920288277
51
-88.0000000000007
0
ARC
8
0
10
57.29609013763366
20
57.28985244357046
40
57.041779513082325
50
-87.26649141982276
51
-86.7335085801784
0
ARC
8
0
10
60.53587592561866
20
0.49038267032776217
40
0.15
50
-86.0000000000024
51
-3.4314079711726757
0
ARC
8
0
10
61.685423100112416
20
0.4622273682864456
40
1
50
159.62301675993848
51
178.90115622388223
0
ARC
8
0
10
61.260512830887286
20
0.597451538287314
40
0.555
50
94.00000000000053
51
157.43494882292268
0
ARC
8
0
10
61.26051283088728
20
0.5974515382873136
40
0.555
50
30.565051177077162
51
93.9999999999998
0
ARC
8
0
10
60.85855732625703
20
0.40440728081552296
40
1
50
9.098843776118494
51
28.376983240062206
0
ARC
8
0
10
61.99299872597673
20
0.5922746223670029
40
0.15
50
-168.56859202882742
51
-85.9999999999997
0
ARC
8
0
10
57.29629680015158
20
57.28986689482148
40
57.041779513082325
50
-85.26649141982188
51
-84.73350858017753
0
ARC
8
0
10
62.51638190622655
20
0.6380647173190087
40
0.15
50
-83.99999999999662
51
-1.4314079711722218
0
ARC
8
0
10
63.66621141351208
20
0.6500451845525409
40
1
50
161.62301675993604
51
-179.09884377612005
0
ARC
8
0
10
63.23684073266724
20
0.7703578251030362
40
0.555
50
95.99999999999994
51
159.43494882292237
0
ARC
8
0
10
63.23684073266724
20
0.7703578251030356
40
0.555
50
32.565051177077706
51
95.99999999999993
0
ARC
8
0
10
62.841867235897
20
0.5634031201686304
40
1
50
11.098843776118022
51
30.3769832400617
0
ARC
8
0
10
63.969061088900595
20
0.7907474519003325
40
0.15
50
-166.5685920288279
51
-83.99999999999933
0
ARC
8
0
10
57.29650283243605
20
57.28988854968718
40
57.041779513082325
50
-83.26649141982219
51
-82.7335085801778
0
ARC
8
0
10
64.49052738699062
20
0.8547754623369779
40
0.15
50
-82.00000000000358
51
0.5685920288271533
0
ARC
8
0
10
65.63923833693096
20
0.9068771024915518
40
1
50
163.62301675993805
51
-177.09884377611831
0
ARC
8
0
10
65.2059303665015
20
1.0121316311718371
40
0.555
50
97.99999999999936
51
161.43494882292265
0
ARC
8
0
10
65.2059303665015
20
1.0121316311718367
40
0.555
50
34.565051177077635
51
97.99999999999936
0
ARC
8
0
10
64.81842009195611
20
0.7915186212038013
40
1
50
13.09884377612018
51
32.376983240064106
0
ARC
8
0
10
65.9369930861646
20
1.058062959067267
40
0.15
50
-164.5685920288272
51
-81.99999999999815
0
ARC
8
0
10
57.29670798346652
20
57.28991738178423
40
57.041779513082325
50
-81.26649141982162
51
-80.73350858017729
0
ARC
8
0
10
66.45590717573624
20
1.14025087672059
40
0.15
50
-80.0000000000069
51
2.5685920288268065
0
ARC
8
0
10
67.60210004098423
20
1.2324102119733347
40
1
50
165.62301675994067
51
-175.09884377611567
0
ARC
8
0
10
67.16538269998617
20
1.3224783923534116
40
0.555
50
100.00000000000031
51
163.43494882292248
0
ARC
8
0
10
67.16538269998617
20
1.3224783923534118
40
0.555
50
36.56505117707788
51
100.00000000000031
0
ARC
8
0
10
66.78580776924376
20
1.0884758603216178
40
1
50
15.09884377611954
51
34.37698324006354
0
ARC
8
0
10
67.89439709576668
20
1.3938954610991172
40
0.15
50
-162.568592028828
51
-80.0000000000014
0
ARC
8
0
10
57.296912003299866
20
57.28995335598544
40
57.041779513082325
50
-79.26649141982217
51
-78.73350858017783
0
ARC
8
0
10
68.41012675993439
20
1.4941431526515265
40
0.15
50
-78.0000000000003
51
4.5685920288280375
0
ARC
8
0
10
69.5524050810412
20
1.626247901048388
40
1
50
167.62301675993683
51
-173.09884377611937
0
ARC
8
0
10
69.1128104422834
20
1.701019998924516
40
0.555
50
101.99999999999888
51
165.43494882292225
0
ARC
8
0
10
69.1128104422834
20
1.7010199989245152
40
0.555
50
38.565051177077855
51
101.99999999999886
0
ARC
8
0
10
68.74163330892804
20
1.4539130408689116
40
1
50
17.098843776118937
51
36.37698324006273
0
ARC
8
0
10
69.83888832243612
20
1.7978357978231831
40
0.15
50
-160.56859202882848
51
-78.00000000000031
0
ARC
8
0
10
57.297114643367394
20
57.28999642846144
40
57.041779513082325
50
-77.26649141982176
51
-76.73350858017737
0
ARC
8
0
10
70.35080522404625
20
1.9160211269045218
40
0.15
50
-76.0000000000016
51
6.5685920288268616
0
ARC
8
0
10
71.48777731083213
20
2.0879103391588116
40
1
50
169.62301675993675
51
-171.09884377611954
0
ARC
8
0
10
71.04584095266755
20
2.147295256247426
40
0.555
50
104.00000000000024
51
167.43494882292234
0
ARC
8
0
10
71.04584095266755
20
2.147295256247426
40
0.555
50
40.565051177077656
51
104.00000000000024
0
ARC
8
0
10
70.68351383886078
20
1.8873849339324877
40
1
50
19.09884377611853
51
38.37698324006221
0
ARC
8
0
10
71.76809770313922
20
2.26939183016143
40
0.15
50
-158.5685920288265
51
-76.00000000000166
0
ARC
8
0
10
57.29731565678503
20
57.2900465467354
40
57.041779513082325
50
-75.26649141982203
51
-74.73350858017763
0
ARC
8
0
10
72.27557815030185
20
2.4053708061532433
40
0.15
50
-73.99999999999517
51
8.568592028828379
0
ARC
8
0
10
73.40585877741616
20
2.616835061737335
40
1
50
171.6230167599363
51
-169.09884377612
0
ARC
8
0
10
72.96211913122214
20
2.66076044666451
40
0.555
50
105.99999999999957
51
169.4349488229221
0
ARC
8
0
10
72.96211913122214
20
2.6607604466645127
40
0.555
50
42.565051177077336
51
105.99999999999964
0
ARC
8
0
10
72.60908347673993
20
2.3883634207818654
40
1
50
21.09884377611825
51
40.376983240061904
0
ARC
8
0
10
73.67967479341745
20
2.8079890397260723
40
0.15
50
-156.5685920288258
51
-74.00000000000084
0
ARC
8
0
10
57.297514798647995
20
57.29010364974571
40
57.041779513082325
50
-73.26649141982209
51
-72.73350858017776
0
ARC
8
0
10
74.18210049937906
20
2.9615959931920655
40
0.15
50
-72.00000000000138
51
10.568592028825698
0
ARC
8
0
10
75.30431259398402
20
3.2123776554841257
40
1
50
173.6230167599378
51
-167.09884377611826
0
ARC
8
0
10
74.8593102881666
20
3.2407899919344825
40
0.555
50
107.99999999999953
51
171.43494882292197
0
ARC
8
0
10
74.8593102881666
20
3.2407899919344825
40
0.555
50
44.56505117707789
51
107.99999999999953
0
ARC
8
0
10
74.51599621257294
20
2.956238136300625
40
1
50
23.098843776117864
51
42.376983240061385
0
ARC
8
0
10
75.57129063104213
20
3.4129712287817817
40
0.15
50
-154.56859202882669
51
-72.00000000000117
0
ARC
8
0
10
57.29771182633343
20
57.290167667921416
40
57.041779513082325
50
-71.26649141982287
51
-70.73350858017851
0
ARC
8
0
10
76.06804946747282
20
3.584019013310503
40
0.15
50
-69.99999999999885
51
12.568592028827727
0
ARC
8
0
10
77.18082578699469
20
3.8738125434849935
40
1
50
175.62301675993947
51
-165.09884377611675
0
ARC
8
0
10
76.73510298831614
20
3.886677215403154
40
0.555
50
109.99999999999989
51
173.43494882292228
0
ARC
8
0
10
76.73510298831614
20
3.8866772154031546
40
0.555
50
46.56505117707794
51
109.9999999999999
0
ARC
8
0
10
76.40192876692872
20
3.5903172126222724
40
1
50
25.098843776120155
51
44.376983240064234
0
ARC
8
0
10
77.4406405734963
20
4.0836013197215735
40
0.15
50
-152.56859202882777
51
-69.99999999999885
0
ARC
8
0
10
57.2979064997909
20
57.29023852326533
40
57.041779513082325
50
-69.26649141982159
51
-68.7335085801772
0
ARC
8
0
10
77.93112731627369
20
4.271881539935488
40
0.15
50
-67.99999999999791
51
14.568592028826682
0
ARC
8
0
10
79.0331121141772
20
4.600333869215097
40
1
50
177.62301675993768
51
-163.09884377611866
0
ARC
8
0
10
78.58721186720939
20
4.597635202980038
40
0.555
50
112.00000000000081
51
175.43494882292228
0
ARC
8
0
10
78.58721186720939
20
4.597635202980036
40
0.555
50
48.56505117707807
51
112.00000000000074
0
ARC
8
0
10
78.26458342149536
20
4.289828122064816
40
1
50
27.098843776119182
51
46.37698324006304
0
ARC
8
0
10
79.28544710582632
20
4.819062253082302
40
0.15
50
-150.56859202882617
51
-67.99999999999791
0
ARC
8
0
10
57.29809858184398
20
57.29031612945228
40
57.041779513082325
50
-67.26649141982165
51
-66.73350858017726
0
ARC
8
0
10
79.76906417240802
20
5.024345518535401
40
0.15
50
-65.99999999999686
51
16.56859202882775
0
ARC
8
0
10
80.85891484996465
20
5.391056478351138
40
1
50
179.6230167599376
51
-161.0988437761185
0
ARC
8
0
10
80.41338041547286
20
5.372797761871934
40
0.555
50
114.00000000000003
51
177.43494882292194
0
ARC
8
0
10
80.41338041547286
20
5.372797761871936
40
0.555
50
50.56505117707773
51
114.0000000000001
0
ARC
8
0
10
80.10169081849622
20
5.053918618336435
40
1
50
29.09884377611792
51
48.37698324006146
0
ARC
8
0
10
81.10346261544322
20
5.6184579830057215
40
0.15
50
-148.56859202882774
51
-66.00000000000223
0
ARC
8
0
10
57.298287838470465
20
57.290400391931286
40
57.041779513082325
50
-65.26649141982332
51
-64.73350858017898
0
ARC
8
0
10
81.57962079292908
20
5.840494187660494
40
0.15
50
-64.0000000000031
51
18.56859202882533
0
ARC
8
0
10
82.65600953496686
20
6.245016997195323
40
1
50
-178.37698324006163
51
-159.09884377611777
0
ARC
8
0
10
82.21138372803017
20
6.211220475905456
40
0.555
50
116.00000000000047
51
179.4349488229222
0
ARC
8
0
10
82.21138372803017
20
6.211220475905458
40
0.555
50
52.56505117707721
51
116.00000000000051
0
ARC
8
0
10
81.91101272555275
20
5.881657774866479
40
1
50
31.098843776117686
51
50.37698324006108
0
ARC
8
0
10
82.89247213049231
20
6.480814568932368
40
0.15
50
-146.56859202882399
51
-64.00000000000323
0
ARC
8
0
10
57.298474039086024
20
57.29049120803952
40
57.041779513082325
50
-63.26649141982193
51
-62.73350858017758
0
ARC
8
0
10
83.36059129348959
20
6.7193331958755165
40
0.15
50
-61.99999999999607
51
20.56859202882779
0
ARC
8
0
10
84.42220668613133
20
7.161175006397968
40
1
50
-176.3769832400625
51
-157.0988437761187
0
ARC
8
0
10
83.97903121480616
20
7.111881856152693
40
0.555
50
117.99999999999913
51
-178.56505117707852
0
ARC
8
0
10
83.97903121480616
20
7.111881856152697
40
0.555
50
54.56505117707794
51
117.9999999999993
0
ARC
8
0
10
83.6903447626259
20
6.772037118996204
40
1
50
33.09884377611922
51
52.376983240063204
0
ARC
8
0
10
84.65029601845531
20
7.405081362198166
40
0.15
50
-144.56859202882495
51
-62.00000000000197
0
ARC
8
0
10
57.29865695683847
20
57.290588467133716
40
57.041779513082325
50
-61.26649141982251
51
-60.7335085801781
0
ARC
8
0
10
85.10980583587224
20
7.659791813223769
40
0.15
50
-60.00000000000431
51
22.568592028827364
0
ARC
8
0
10
86.15535446429129
20
8.138414308548251
40
1
50
-174.3769832400615
51
-155.0988437761176
0
ARC
8
0
10
85.7141692696235
20
8.073684585458091
40
0.555
50
120.00000000000023
51
-176.56505117707843
0
ARC
8
0
10
85.7141692696235
20
8.073684585458096
40
0.555
50
56.565051177077535
51
120.0000000000005
0
ARC
8
0
10
85.43751908771361
20
7.723971860647256
40
1
50
35.09884377611899
51
54.376983240062884
0
ARC
8
0
10
86.37479264169683
20
8.390132286087923
40
0.15
50
-142.5685920288253
51
-59.999999999999275
0
ARC
8
0
10
57.298836368868194
20
57.29069205071737
40
57.041779513082325
50
-59.26649141982216
51
-58.733508580177826
0
ARC
8
0
10
86.8251332716028
20
8.660724235746484
40
0.15
50
-58.00000000000311
51
24.56859202882396
0
ARC
8
0
10
87.8533412958499
20
9.175544288088544
40
1
50
-172.3769832400631
51
-153.0988437761194
0
ARC
8
0
10
87.4146838940398
20
9.095456855350294
40
0.555
50
122.00000000000117
51
-174.56505117707678
0
ARC
8
0
10
87.4146838940398
20
9.095456855350287
40
0.555
50
58.565051177077684
51
122.00000000000077
0
ARC
8
0
10
87.15040703803226
20
8.736302213971172
40
1
50
37.098843776119054
51
56.376983240063126
0
ARC
8
0
10
88.06386096671966
20
9.434767207786289
40
0.15
50
-140.56859202882438
51
-58.00000000000275
0
ARC
8
0
10
57.29901205658996
20
57.290801832590205
40
57.041779513082325
50
-57.266491419821826
51
-56.73350858017747
0
ARC
8
0
10
88.50448373842686
20
9.720910981468673
40
0.15
50
-55.999999999997705
51
26.568592028830757
0
ARC
8
0
10
89.51409844540773
20
10.27130136189655
40
1
50
-170.37698324006192
51
-151.0988437761181
0
ARC
8
0
10
89.07850327292945
20
10.175953793710399
40
0.555
50
123.999999999999
51
-172.56505117707852
0
ARC
8
0
10
89.07850327292945
20
10.175953793710402
40
0.555
50
60.565051177078445
51
123.99999999999922
0
ARC
8
0
10
88.82692172346455
20
9.807794810370003
40
1
50
39.098843776118684
51
58.37698324006258
0
ARC
8
0
10
89.71544312395085
20
10.537713400554889
40
0.15
50
-138.56859202882669
51
-55.99999999999884
0
ARC
8
0
10
57.29918380595669
20
57.290917679000835
40
57.041779513082325
50
-55.26649141982304
51
-54.733508580178636
0
ARC
8
0
10
90.14581120648474
20
10.839060376149959
40
0.15
50
-53.99999999999882
51
28.56859202882971
0
ARC
8
0
10
91.13560253619816
20
11.424350518766193
40
1
50
-168.37698324006237
51
-149.09884377611863
0
ARC
8
0
10
90.70360029867108
20
11.313858981456866
40
0.555
50
126.00000000000013
51
-170.5650511770772
0
ARC
8
0
10
90.70360029867108
20
11.313858981456864
40
0.555
50
62.56505117707725
51
126.00000000000003
0
ARC
8
0
10
90.46502056911368
20
10.937144201165838
40
1
50
41.09884377611794
51
60.37698324006121
0
ARC
8
0
10
91.3275269149386
20
11.697627094353685
40
0.15
50
-136.56859202882785
51
-53.999999999999616
0
ARC
8
0
10
57.29935140771517
20
57.29103944880616
40
57.041779513082325
50
-53.266491419822046
51
-52.73350858017764
0
ARC
8
0
10
91.74711597108367
20
12.013810126990608
40
0.15
50
-52.00000000000048
51
30.568592028829038
0
ARC
8
0
10
92.71587801526007
20
12.633286945913458
40
1
50
-166.3769832400631
51
-147.09884377611934
0
ARC
8
0
10
92.28799504086575
20
12.507786056399228
40
0.555
50
127.9999999999998
51
-168.56505117707837
0
ARC
8
0
10
92.28799504086575
20
12.507786056399231
40
0.555
50
64.56505117707768
51
128.00000000000003
0
ARC
8
0
10
92.06270780386593
20
12.122974448088902
40
1
50
43.09884377611764
51
62.376983240060945
0
ARC
8
0
10
92.89814826390601
20
12.91309511301778
40
0.15
50
-134.5685920288271
51
-52.000000000001315
0
ARC
8
0
10
57.29951465767209
20
57.291166993651046
40
57.041779513082325
50
-51.26649141982337
51
-50.73350858017901
0
ARC
8
0
10
93.30644708903007
20
13.243728982375506
40
0.15
50
-50.000000000003276
51
32.56859202882767
0
ARC
8
0
10
94.25299956034495
20
13.89663774052423
40
1
50
-164.37698324006186
51
-145.0988437761179
0
ARC
8
0
10
93.82975715857738
20
13.756280402307027
40
0.555
50
129.99999999999966
51
-166.56505117707763
0
ARC
8
0
10
93.82975715857738
20
13.756280402307027
40
0.555
50
66.56505117707754
51
129.99999999999966
0
ARC
8
0
10
93.6180368919306
20
13.363840799646425
40
1
50
45.09884377611791
51
64.37698324006126
0
ARC
8
0
10
94.425393610675
20
14.182636595994875
40
0.15
50
-132.56859202882976
51
-49.99999999999737
0
ARC
8
0
10
57.2996733569282
20
57.29130015813833
40
57.041779513082325
50
-49.2664914198215
51
-48.733508580177165
0
ARC
8
0
10
94.82190475555325
20
14.527318475633873
40
0.15
50
-47.999999999998906
51
34.56859202882672
0
ARC
8
0
10
95.74509442562558
20
15.21286370425951
40
1
50
-162.37698324006368
51
-143.09884377612013
0
ARC
8
0
10
95.3270082521558
20
15.057820921135608
40
0.555
50
132.0000000000003
51
-164.5650511770769
0
ARC
8
0
10
95.3270082521558
20
15.057820921135601
40
0.555
50
68.56505117707823
51
131.99999999999983
0
ARC
8
0
10
95.129112904394
20
14.658231451329861
40
1
50
47.09884377611993
51
66.37698324006442
0
ARC
8
0
10
95.90740224204468
20
15.504704802545888
40
0.15
50
-130.56859202882762
51
-47.99999999999845
0
ARC
8
0
10
57.29982731213582
20
57.29143878002985
40
57.041779513082325
50
-47.26649141982012
51
-46.73350858017581
0
ARC
8
0
10
96.29164261892495
20
15.863014750689985
40
0.15
50
-46.00000000000223
51
36.568592028825755
0
ARC
8
0
10
97.19034472334818
20
16.580361218531632
40
1
50
-160.3769832400628
51
-141.0988437761192
0
ARC
8
0
10
96.77792415177737
20
16.410821886249703
40
0.555
50
133.99999999999858
51
-162.56505117707806
0
ARC
8
0
10
96.77792415177737
20
16.410821886249707
40
0.555
50
70.56505117707816
51
133.99999999999883
0
ARC
8
0
10
96.59409482789826
20
16.004569387515794
40
1
50
49.0988437761179
51
68.37698324006121
0
ARC
8
0
10
97.34236855878363
20
16.877688996210114
40
0.15
50
-128.56859202883047
51
-46.00000000000081
0
ARC
8
0
10
57.29997633572692
20
57.29158269043893
40
57.041779513082325
50
-45.266491419823105
51
-44.7335085801787
0
ARC
8
0
10
97.71387002995448
20
17.249190467380952
40
0.15
50
-44.00000000000306
51
38.56859202882259
0
ARC
8
0
10
98.58698963864879
20
17.997464198266325
40
1
50
-158.3769832400607
51
-139.09884377611633
0
ARC
8
0
10
98.18073713991488
20
17.81363487438721
40
0.555
50
135.99999999999886
51
-160.56505117707815
0
ARC
8
0
10
98.18073713991488
20
17.813634874387212
40
0.555
50
72.56505117707735
51
135.9999999999991
0
ARC
8
0
10
98.01119780763295
20
17.40121430281641
40
1
50
51.09884377611849
51
70.37698324006236
0
ARC
8
0
10
98.7285442754746
20
18.29991640723962
40
0.15
50
-126.56859202882467
51
-43.999999999997335
0
ARC
8
0
10
57.300120246132536
20
57.2917317140264
40
57.041779513082325
50
-43.26649141982095
51
-42.73350858017657
0
ARC
8
0
10
99.08685422361873
20
18.684156784119953
40
0.15
50
-42.00000000000009
51
40.56859202882719
0
ARC
8
0
10
99.93332757483475
20
19.462446121770633
40
1
50
-156.3769832400632
51
-137.09884377611945
0
ARC
8
0
10
99.53373810502902
20
19.264550774008818
40
0.555
50
137.9999999999997
51
-158.5650511770777
0
ARC
8
0
10
99.53373810502902
20
19.264550774008818
40
0.555
50
74.56505117707816
51
137.9999999999997
0
ARC
8
0
10
99.37869532190508
20
18.84646460053906
40
1
50
53.09884377611855
51
72.37698324006242
0
ARC
8
0
10
100.06424055053074
20
19.769654270611372
40
0.15
50
-124.56859202882694
51
-42.00000000000009
0
ARC
8
0
10
57.300258868025985
20
57.29188566923608
40
57.041779513082325
50
-41.26649141982239
51
-40.73350858017803
0
ARC
8
0
10
100.40892243016974
20
20.16616541548963
40
0.15
50
-40.00000000000176
51
42.568592028825464
0
ARC
8
0
10
101.22771822651819
20
20.973522134234035
40
1
50
-154.37698324006135
51
-135.09884377611723
0
ARC
8
0
10
100.83527862385759
20
20.761801867587238
40
0.555
50
139.9999999999977
51
-156.56505117707937
0
ARC
8
0
10
100.8352786238576
20
20.76180186758725
40
0.555
50
76.56505117707906
51
139.99999999999952
0
ARC
8
0
10
100.6949212856404
20
20.33855946581968
40
1
50
55.09884377611926
51
74.37698324006287
0
ARC
8
0
10
101.34783004378912
20
21.28511193713457
40
0.15
50
-122.56859202882997
51
-39.99999999999968
0
ARC
8
0
10
57.30039203251456
20
57.29204436849375
40
57.041779513082325
50
-39.266491419822565
51
-38.733508580178224
0
ARC
8
0
10
101.67846391314684
20
21.693410762258605
40
0.15
50
-38.00000000000018
51
44.56859202882615
0
ARC
8
0
10
102.46858457807575
20
22.528851222298663
40
1
50
-152.37698324006317
51
-133.0988437761194
0
ARC
8
0
10
102.08377296976539
20
22.30356398529887
40
0.555
50
141.99999999999855
51
-154.56505117707812
0
ARC
8
0
10
102.08377296976539
20
22.303563985298872
40
0.555
50
78.5650511770771
51
141.99999999999883
0
ARC
8
0
10
101.95827208025116
20
21.87568101090455
40
1
50
57.09884377611872
51
76.3769832400625
0
ARC
8
0
10
102.57774889917401
20
22.844443055080955
40
0.15
50
-120.56859202882357
51
-38.00000000000124
0
ARC
8
0
10
57.300519577358585
20
57.292207618449595
40
57.041779513082325
50
-37.266491419822565
51
-36.73350858017815
0
ARC
8
0
10
102.89393193181094
20
23.26403211122602
40
0.15
50
-36.000000000001485
51
46.56859202882686
0
ARC
8
0
10
103.65441482499881
20
24.12653845705092
40
1
50
-150.3769832400631
51
-131.09884377611974
0
ARC
8
0
10
103.27770004470777
20
23.88795872749355
40
0.555
50
144.00000000000009
51
-152.56505117707718
0
ARC
8
0
10
103.27770004470777
20
23.887958727493547
40
0.555
50
80.56505117707829
51
143.99999999999977
0
ARC
8
0
10
103.16720850739846
20
23.45595648996645
40
1
50
59.09884377611909
51
78.3769832400638
0
ARC
8
0
10
103.75249865001467
20
24.44574781967989
40
0.15
50
-118.56859202882427
51
-36.000000000001485
0
ARC
8
0
10
57.30064134716457
20
57.29237522020902
40
57.041779513082325
50
-35.26649141982271
51
-34.73350858017835
0
ARC
8
0
10
104.05384562560972
20
24.876115902213716
40
0.15
50
-33.999999999996646
51
48.56859202883038
0
ARC
8
0
10
104.78376421579459
20
25.76463730270003
40
1
50
-148.37698324006192
51
-129.09884377611772
0
ARC
8
0
10
104.4156052324542
20
25.513055753235122
40
0.555
50
145.99999999999926
51
-150.56505117707817
0
ARC
8
0
10
104.41560523245421
20
25.513055753235125
40
0.555
50
82.56505117707903
51
146.0000000000004
0
ARC
8
0
10
104.32025766426806
20
25.077460580756846
40
1
50
61.09884377611837
51
80.37698324006196
0
ARC
8
0
10
104.87064804469593
20
26.087075287737722
40
0.15
50
-116.56859202882956
51
-33.99999999999776
0
ARC
8
0
10
57.30075719357352
20
57.29254696957326
40
57.041779513082325
50
-33.266491419820895
51
-32.733508580176554
0
ARC
8
0
10
105.15679181837831
20
26.52769805944492
40
0.15
50
-31.999999999997183
51
50.56859202883254
0
ARC
8
0
10
105.85525681219345
20
27.44115198813232
40
1
50
-146.3769832400644
51
-127.0988437761213
0
ARC
8
0
10
105.49610217081431
20
27.17687513212479
40
0.555
50
147.99999999999926
51
-148.5650511770779
0
ARC
8
0
10
105.49610217081431
20
27.176875132124792
40
0.555
50
84.56505117707812
51
147.9999999999996
0
ARC
8
0
10
105.41601473807606
20
26.738217730314688
40
1
50
63.09884377611923
51
82.37698324006367
0
ARC
8
0
10
105.93083479041812
20
27.766425754561794
40
0.15
50
-114.56859202882269
51
-32.00000000000064
0
ARC
8
0
10
57.3008669754483
20
57.29272265729816
40
57.041779513082325
50
-31.266491419824252
51
-30.733508580179855
0
ARC
8
0
10
106.20142674007673
20
28.216766384467796
40
0.15
50
-29.999999999996867
51
52.56859202883291
0
ARC
8
0
10
106.86758716551739
20
29.15403993845101
40
1
50
-144.37698324006362
51
-125.0988437761202
0
ARC
8
0
10
106.51787444070655
20
28.87738975654114
40
0.555
50
150.00000000000122
51
-146.5650511770772
0
ARC
8
0
10
106.51787444070654
20
28.877389756541135
40
0.555
50
86.56505117707637
51
149.99999999999983
0
ARC
8
0
10
106.45314471761641
20
28.43620456187333
40
1
50
65.09884377611878
51
84.37698324006242
0
ARC
8
0
10
106.93176721294088
20
29.481753190292398
40
0.15
50
-112.56859202882967
51
-29.999999999998042
0
ARC
8
0
10
57.30097055903092
20
57.29290206932613
40
57.041779513082325
50
-29.266491419821875
51
-28.733508580177492
0
ARC
8
0
10
107.18647766396649
20
29.941263007709303
40
0.15
50
-27.999999999998984
51
54.5685920288293
0
ARC
8
0
10
107.81952190716844
20
30.901214263538723
40
1
50
-142.37698324006294
51
-123.09884377611901
0
ARC
8
0
10
107.47967717001194
20
30.61252781135847
40
0.555
50
152.00000000000094
51
-144.56505117707692
0
ARC
8
0
10
107.47967717001194
20
30.61252781135846
40
0.555
50
88.56505117707731
51
152.0000000000003
0
ARC
8
0
10
107.43038401976666
20
30.16935234003328
40
1
50
67.09884377611883
51
86.37698324006172
0
ARC
8
0
10
107.87222583028911
20
31.230967732675023
40
0.15
50
-110.56859202882733
51
-28.00000000000018
0
ARC
8
0
10
57.30106781812516
20
57.2930849870787
40
57.041779513082325
50
-27.266491419822536
51
-26.73350858017815
0
ARC
8
0
10
108.11074445723229
20
31.699086895672355
40
0.15
50
-26.000000000000245
51
56.56859202882822
0
ARC
8
0
10
108.70990125129819
20
32.6805463006119
40
1
50
-140.37698324006294
51
-121.09884377611942
0
ARC
8
0
10
108.3803385502592
20
32.38017529813451
40
0.555
50
154.00000000000054
51
-142.5650511770772
0
ARC
8
0
10
108.38033855025918
20
32.3801752981345
40
0.555
50
90.56505117707644
51
153.99999999999923
0
ARC
8
0
10
108.34654202896935
20
31.935549491197815
40
1
50
69.09884377611937
51
88.37698324006304
0
ARC
8
0
10
108.75106483850416
20
33.0119382332356
40
0.15
50
-108.56859202882879
51
-26.000000000000245
0
ARC
8
0
10
57.30115863423371
20
57.29327118769491
40
57.041779513082325
50
-25.26649141982182
51
-24.73350858017747
0
ARC
8
0
10
108.97310104315893
20
33.48809641072144
40
0.15
50
-24.00000000000011
51
58.56859202882544
0
ARC
8
0
10
109.53764040782825
20
34.48986820766842
40
1
50
-138.3769832400628
51
-119.09884377611941
0
ARC
8
0
10
109.21876126429272
20
34.1781786106918
40
0.555
50
155.99999999999986
51
-140.56505117707738
0
ARC
8
0
10
109.21876126429272
20
34.1781786106918
40
0.555
50
92.56505117707741
51
155.99999999999986
0
ARC
8
0
10
109.2005025478135
20
33.732644176200004
40
1
50
71.0988437761175
51
90.37698324006091
0
ARC
8
0
10
109.56721350762925
20
34.82249485375663
40
0.15
50
-106.56859202882482
51
-24.00000000000011
0
ARC
8
0
10
57.301242896712594
20
57.293460444321184
40
57.041779513082325
50
-23.2664914198233
51
-22.733508580178945
0
ARC
8
0
10
109.77249677308234
20
35.30611192033829
40
0.15
50
-21.999999999996295
51
60.56859202883121
0
ARC
8
0
10
110.30173090409984
20
36.32697560466925
40
1
50
-136.37698324006416
51
-117.09884377612079
0
ARC
8
0
10
109.9939238231846
20
36.004347158955234
40
0.555
50
157.99999999999991
51
-138.56505117707763
0
ARC
8
0
10
109.9939238231846
20
36.004347158955234
40
0.555
50
94.56505117707775
51
157.99999999999991
0
ARC
8
0
10
109.99122515694955
20
35.55844691198743
40
1
50
73.09884377611861
51
92.37698324006301
0
ARC
8
0
10
110.31967748622915
20
36.66043170989093
40
0.15
50
-104.56859202882443
51
-21.99999999999881
0
ARC
8
0
10
57.30132050289907
20
57.293652526373094
40
57.041779513082325
50
-21.266491419822128
51
-20.73350858017772
0
ARC
8
0
10
110.50795770644308
20
37.15091845266834
40
0.15
50
-20.00000000000167
51
62.56859202882625
0
ARC
8
0
10
111.00124181354232
20
38.18963025923594
40
1
50
-134.37698324006087
51
-115.09884377611635
0
ARC
8
0
10
110.70488181076149
20
37.85645603784848
40
0.555
50
160.00000000000014
51
-136.56505117707832
0
ARC
8
0
10
110.70488181076149
20
37.856456037848474
40
0.555
50
96.56505117707705
51
159.99999999999946
0
ARC
8
0
10
110.71774648267969
20
37.410733239169936
40
1
50
75.0988437761191
51
94.37698324006212
0
ARC
8
0
10
111.00754001285414
20
38.52350955869181
40
0.15
50
-102.56859202882758
51
-20.00000000000167
0
ARC
8
0
10
57.30139135824353
20
57.29384719983207
40
57.041779513082325
50
-19.266491419822422
51
-18.733508580178075
0
ARC
8
0
10
111.17858779738286
20
39.02026839512248
40
0.15
50
-17.999999999999154
51
64.56859202882839
0
ARC
8
0
10
111.63532088986403
20
40.07556281359166
40
1
50
-132.37698324006277
51
-113.09884377611914
0
ARC
8
0
10
111.35076903423015
20
39.73224873799802
40
0.555
50
162.00000000000043
51
-134.56505117707783
0
ARC
8
0
10
111.35076903423015
20
39.73224873799802
40
0.555
50
98.56505117707734
51
162.00000000000043
0
ARC
8
0
10
111.37918137068054
20
39.287246432180595
40
1
50
77.09884377611986
51
96.3769832400635
0
ARC
8
0
10
111.62996303297257
20
40.409458526785556
40
0.15
50
-100.56859202882387
51
-17.999999999999154
0
ARC
8
0
10
57.30145537641954
20
57.2940442275186
40
57.041779513082325
50
-17.266491419824337
51
-16.73350858017998
0
ARC
8
0
10
111.78356998643858
20
40.91188423274718
40
0.15
50
-15.999999999998826
51
66.56859202882953
0
ARC
8
0
10
112.20319560538279
20
41.9824755494247
40
1
50
-130.37698324006234
51
-111.09884377611895
0
ARC
8
0
10
111.93079857950013
20
41.6294398949425
40
0.555
50
164.00000000000134
51
-132.5650511770766
0
ARC
8
0
10
111.93079857950012
20
41.62943989494248
40
0.555
50
100.56505117707619
51
163.9999999999988
0
ARC
8
0
10
111.9747239644273
20
41.18570024874846
40
1
50
79.09884377611915
51
98.37698324006291
0
ARC
8
0
10
112.1861882200114
20
42.315980875862756
40
0.15
50
-98.56859202882806
51
-15.999999999998826
0
ARC
8
0
10
57.3015124794286
20
57.29424336937719
40
57.041779513082325
50
-15.266491419819877
51
-14.733508580175497
0
ARC
8
0
10
112.3221671960032
20
42.823461323025406
40
0.15
50
-14.000000000004356
51
68.56859202882441
0
ARC
8
0
10
112.70417409223217
20
43.90804518730384
40
1
50
-128.37698324006283
51
-109.09884377611922
0
ARC
8
0
10
112.44426376991721
20
43.545718073497085
40
0.555
50
166.0000000000005
51
-130.56505117707678
0
ARC
8
0
10
112.44426376991721
20
43.54571807349708
40
0.555
50
102.56505117707745
51
165.9999999999998
0
ARC
8
0
10
112.5036486870058
20
43.103781715332495
40
1
50
81.09884377611854
51
100.37698324006196
0
ARC
8
0
10
112.6755378992601
20
44.24075380211836
40
0.15
50
-96.56859202882434
51
-14.000000000001723
0
ARC
8
0
10
57.30156259770395
20
57.294444382800464
40
57.041779513082325
50
-13.26649141982598
51
-12.733508580181619
0
ARC
8
0
10
112.79372322834146
20
44.75267070372845
40
0.15
50
-11.999999999996906
51
70.56859202883065
0
ARC
8
0
10
113.13764598529572
20
45.84992571723652
40
1
50
-126.37698324006249
51
-107.09884377611846
0
ARC
8
0
10
112.89053902724011
20
45.47874858388117
40
0.555
50
168.000000000001
51
-128.56505117707644
0
ARC
8
0
10
112.89053902724011
20
45.478748583881156
40
0.555
50
104.56505117707557
51
167.99999999999957
0
ARC
8
0
10
112.96531112511626
20
45.03915394512336
40
1
50
83.09884377612022
51
102.37698324006315
0
ARC
8
0
10
113.0974158735131
20
46.18143226623019
40
0.15
50
-94.56859202882553
51
-11.999999999999561
0
ARC
8
0
10
57.30160567017929
20
57.29464702286522
40
57.041779513082325
50
-11.266491419822694
51
-10.733508580178345
0
ARC
8
0
10
113.19766356506553
20
46.69716193039791
40
0.15
50
-10.00000000000166
51
72.56859202882848
0
ARC
8
0
10
113.50308316584301
20
47.80575125692083
40
1
50
-124.37698324006257
51
-105.09884377611876
0
ARC
8
0
10
113.26908063381123
20
47.426176326178414
40
0.555
50
170.00000000000128
51
-126.56505117707766
0
ARC
8
0
10
113.26908063381121
20
47.4261763261784
40
0.555
50
106.56505117707594
51
169.9999999999996
0
ARC
8
0
10
113.35914881419137
20
46.989458985180356
40
1
50
85.09884377612005
51
104.37698324006314
0
ARC
8
0
10
113.45130814944405
20
48.13565185042835
40
0.15
50
-92.5685920288288
51
-10.00000000000433
0
ARC
8
0
10
57.30164164438048
20
57.29485104269855
40
57.041779513082325
50
-9.266491419823224
51
-8.73350858017882
0
ARC
8
0
10
113.53349606709737
20
48.65456594000002
40
0.15
50
-7.999999999998958
51
74.56859202883042
0
ARC
8
0
10
113.80004040496081
20
49.77313893420852
40
1
50
-122.37698324006215
51
-103.09884377611894
0
ARC
8
0
10
113.5794273949928
20
49.38562865966312
40
0.555
50
172.0000000000007
51
-124.56505117707704
0
ARC
8
0
10
113.5794273949928
20
49.38562865966311
40
0.555
50
108.56505117707799
51
172
0
ARC
8
0
10
113.68468192367308
20
48.952320689233666
40
1
50
87.09884377611809
51
106.37698324006193
0
ARC
8
0
10
113.73678356382767
20
50.101031639173996
40
0.15
50
-90.56859202883177
51
-7.999999999998958
0
ARC
8
0
10
57.30167047647711
20
57.29505619372571
40
57.041779513082325
50
-7.266491419819332
51
-6.733508580174941
0
ARC
8
0
10
113.8008115742643
20
50.62249793726402
40
0.15
50
-6.000000000000845
51
76.5685920288315
0
ARC
8
0
10
114.028155905996
20
51.74969179026762
40
1
50
-120.37698324006165
51
-101.09884377611847
0
ARC
8
0
10
113.8212012010616
20
51.354718293497385
40
0.555
50
174.00000000000009
51
-122.56505117707736
0
ARC
8
0
10
113.8212012010616
20
51.35471829349738
40
0.555
50
110.56505117707792
51
173.99999999999937
0
ARC
8
0
10
113.94151384161206
20
50.92534761265253
40
1
50
89.09884377611911
51
108.37698324006243
0
ARC
8
0
10
113.95349430884562
20
52.07517711993806
40
0.15
50
-88.5685920288307
51
-6.000000000003546
0
ARC
8
0
10
57.301692131343124
20
57.29526222601283
40
57.041779513082325
50
-5.266491419822277
51
-4.733508580177866
0
ARC
8
0
10
113.99928440379763
20
52.59856030018794
40
0.15
50
-4.000000000000379
51
78.5685920288243
0
ARC
8
0
10
114.18715174534911
20
53.733001699907646
40
1
50
-118.37698324006223
51
-99.0988437761181
0
ARC
8
0
10
113.99410748787733
20
53.33104619527739
40
0.555
50
176.0000000000002
51
-120.5650511770783
0
ARC
8
0
10
113.99410748787733
20
53.33104619527739
40
0.555
50
112.5650511770777
51
176.0000000000002
0
ARC
8
0
10
114.1293316578782
20
52.90613592605226
40
1
50
91.09884377611827
51
110.37698324006172
0
ARC
8
0
10
114.10117635583687
20
54.05568310054601
40
0.15
50
-86.56859202882643
51
-3.9999999999976703
0
ARC
8
0
10
57.301706582594285
20
57.29546888853296
40
57.041779513082325
50
-3.2664914198235735
51
-2.7335085801792283
0
ARC
8
0
10
114.12867274712697
20
54.58034550117156
40
0.15
50
-1.9999999999992344
51
80.56859202882885
0
ARC
8
0
10
114.27683421108127
20
55.72065230550912
40
1
50
-116.37698324006159
51
-97.09884377611765
0
ARC
8
0
10
114.09793559576366
20
55.31220451388474
40
0.555
50
177.9999999999994
51
-118.56505117707785
0
ARC
8
0
10
114.09793559576366
20
55.31220451388474
40
0.555
50
114.56505117707849
51
177.9999999999994
0
ARC
8
0
10
114.24790654539348
20
54.89227234398997
40
1
50
93.09884377611847
51
112.37698324006212
0
ARC
8
0
10
114.17964977697581
20
56.040136639534005
40
0.15
50
-84.56859202882762
51
-1.9999999999992344
0
ARC
8
0
10
57.301713812624094
20
57.295675929498636
40
57.041779513082325
50
-1.2664914198222987
51
-0.7335085801779505
0
ENDSEC
0
EOF