  0
SECTION
  2
HEADER
  9
$ACADVER
  1
AC1014
  9
$HANDSEED
  5
FFFF
  9
$MEASUREMENT
 70
     1
  0
ENDSEC
  0
SECTION
  2
TABLES
  0
TABLE
  2
VPORT
  5
8
330
0
100
AcDbSymbolTable
 70
     4
  0
VPORT
  5
2E
330
8
100
AcDbSymbolTableRecord
100
AcDbViewportTableRecord
  2
*ACTIVE
 70
     0
 10
0.0
 20
0.0
 11
1.0
 21
1.0
 12
210.0
 22
148.5
 13
0.0
 23
0.0
 14
10.0
 24
10.0
 15
10.0
 25
10.0
 16
0.0
 26
0.0
 36
1.0
 17
0.0
 27
0.0
 37
0.0
 40
341.0
 41
1.24
 42
50.0
 43
0.0
 44
0.0
 50
0.0
 51
0.0
 71
     0
 72
   100
 73
     1
 74
     3
 75
     0
 76
     0
 77
     0
 78
     0
  0
ENDTAB
  0
TABLE
  2
LTYPE
  5
5
330
0
100
AcDbSymbolTable
 70
     1
  0
LTYPE
  5
14
330
5
100
AcDbSymbolTableRecord
100
AcDbLinetypeTableRecord
  2
BYBLOCK
 70
     0
  3

 72
    65
 73
     0
 40
0.0
  0
LTYPE
  5
15
330
5
100
AcDbSymbolTableRecord
100
AcDbLinetypeTableRecord
  2
BYLAYER
 70
     0
  3

 72
    65
 73
     0
 40
0.0
  0
LTYPE
  5
16
330
5
100
AcDbSymbolTableRecord
100
AcDbLinetypeTableRecord
  2
CONTINUOUS
 70
     0
  3
Solid line
 72
    65
 73
     0
 40
0.0
  0
ENDTAB
  0
TABLE
  2
LAYER
  5
2
100
AcDbSymbolTable
 70
1
  0
LAYER
  5
50
100
AcDbSymbolTableRecord
100
AcDbLayerTableRecord
  2
0
 70
0
  6
CONTINUOUS
  0
ENDTAB
  0
TABLE
  2
STYLE
  5
3
330
0
100
AcDbSymbolTable
 70
     1
  0
STYLE
  5
11
330
3
100
AcDbSymbolTableRecord
100
AcDbTextStyleTableRecord
  2
STANDARD
 70
     0
 40
0.0
 41
1.0
 50
0.0
 71
     0
 42
2.5
  3
txt
  4

  0
ENDTAB
  0
TABLE
  2
VIEW
  5
6
330
0
100
AcDbSymbolTable
 70
     0
  0
ENDTAB
  0
TABLE
  2
UCS
  5
7
330
0
100
AcDbSymbolTable
 70
     0
  0
ENDTAB
  0
TABLE
  2
APPID
  5
9
330
0
100
AcDbSymbolTable
 70
     2
  0
APPID
  5
12
330
9
100
AcDbSymbolTableRecord
100
AcDbRegAppTableRecord
  2
ACAD
 70
     0
  0
ENDTAB
  0
TABLE
  2
DIMSTYLE
  5
A
330
0
100
AcDbSymbolTable
 70
     1
  0
DIMSTYLE
105
27
330
A
100
AcDbSymbolTableRecord
100
AcDbDimStyleTableRecord
  2
ISO-25
 70
     0
  3

  4

  5

  6

  7

 40
1.0
 41
2.5
 42
0.625
 43
3.75
 44
1.25
 45
0.0
 46
0.0
 47
0.0
 48
0.0
140
2.5
141
2.5
142
0.0
143
0.03937007874016
144
1.0
145
0.0
146
1.0
147
0.625
 71
     0
 72
     0
 73
     0
 74
     0
 75
     0
 76
     0
 77
     1
 78
     8
170
     0
171
     3
172
     1
173
     0
174
     0
175
     0
176
     0
177
     0
178
     0
270
     2
271
     2
272
     2
273
     2
274
     3
340
11
275
     0
280
     0
281
     0
282
     0
283
     0
284
     8
285
     0
286
     0
287
     3
288
     0
  0
ENDTAB
  0
TABLE
  2
BLOCK_RECORD
  5
1
330
0
100
AcDbSymbolTable
 70
     1
  0
BLOCK_RECORD
  5
1F
330
1
100
AcDbSymbolTableRecord
100
AcDbBlockTableRecord
  2
*MODEL_SPACE
  0
BLOCK_RECORD
  5
1B
330
1
100
AcDbSymbolTableRecord
100
AcDbBlockTableRecord
  2
*PAPER_SPACE
  0
ENDTAB
  0
ENDSEC
  0
SECTION
  2
BLOCKS
  0
BLOCK
  5
20
330
1F
100
AcDbEntity
  8
0
100
AcDbBlockBegin
  2
*MODEL_SPACE
 70
     0
 10
0.0
 20
0.0
 30
0.0
  3
*MODEL_SPACE
  1

  0
ENDBLK
  5
21
330
1F
100
AcDbEntity
  8
0
100
AcDbBlockEnd
  0
BLOCK
  5
1C
330
1B
100
AcDbEntity
 67
     1
  8
0
100
AcDbBlockBegin
  2
*PAPER_SPACE
  1

  0
ENDBLK
  5
1D
330
1B
100
AcDbEntity
 67
     1
  8
0
100
AcDbBlockEnd
  0
ENDSEC
  0
SECTION
  2
ENTITIES
  0
LWPOLYLINE
  5
100
100
AcDbEntity
  8
0
 62
7
100
AcDbPolyline
 90
2
 70
0
 10
70.282756
 20
140.848826
 30
0.0
 10
70.282756
 20
138.448827
 30
0.0
  0
SPLINE
  5
101
100
AcDbEntity
  8
0
 62
7
100
AcDbSpline
 70
8
 71
3
 72
8
 73
4
 74
0
 40
0
 40
0
 40
0
 40
0
 40
1
 40
1
 40
1
 40
1
 10
70.282756
 20
141.648825
 30
0.0
 10
69.473832
 20
141.648825
 30
0.0
 10
68.744560
 20
141.161541
 30
0.0
 10
68.434998
 20
140.414193
 30
0.0
  0
SPLINE
  5
102
100
AcDbEntity
  8
0
 62
7
100
AcDbSpline
 70
8
 71
3
 72
8
 73
4
 74
0
 40
0
 40
0
 40
0
 40
0
 40
1
 40
1
 40
1
 40
1
 10
68.434998
 20
140.414193
 30
0.0
 10
68.125437
 20
139.666845
 30
0.0
 10
68.296548
 20
138.806609
 30
0.0
 10
68.868544
 20
138.234614
 30
0.0
  0
SPLINE
  5
103
100
AcDbEntity
  8
0
 62
7
100
AcDbSpline
 70
8
 71
3
 72
8
 73
4
 74
0
 40
0
 40
0
 40
0
 40
0
 40
1
 40
1
 40
1
 40
1
 10
68.868544
 20
138.234614
 30
0.0
 10
69.440539
 20
137.662618
 30
0.0
 10
70.300774
 20
137.491507
 30
0.0
 10
71.048123
 20
137.801069
 30
0.0
  0
SPLINE
  5
104
100
AcDbEntity
  8
0
 62
7
100
AcDbSpline
 70
8
 71
3
 72
8
 73
4
 74
0
 40
0
 40
0
 40
0
 40
0
 40
1
 40
1
 40
1
 40
1
 10
71.048123
 20
137.801069
 30
0.0
 10
71.795471
 20
138.110630
 30
0.0
 10
72.282755
 20
138.839903
 30
0.0
 10
72.282755
 20
139.648827
 30
0.0
  0
SPLINE
  5
105
100
AcDbEntity
  8
0
 62
7
100
AcDbSpline
 70
8
 71
3
 72
8
 73
4
 74
0
 40
0
 40
0
 40
0
 40
0
 40
1
 40
1
 40
1
 40
1
 10
72.282755
 20
139.648827
 30
0.0
 10
72.282755
 20
140.179259
 30
0.0
 10
72.072042
 20
140.687967
 30
0.0
 10
71.696969
 20
141.063039
 30
0.0
  0
SPLINE
  5
106
100
AcDbEntity
  8
0
 62
7
100
AcDbSpline
 70
8
 71
3
 72
8
 73
4
 74
0
 40
0
 40
0
 40
0
 40
0
 40
1
 40
1
 40
1
 40
1
 10
71.696969
 20
141.063039
 30
0.0
 10
71.321897
 20
141.438112
 30
0.0
 10
70.813189
 20
141.648825
 30
0.0
 10
70.282756
 20
141.648825
 30
0.0
  0
LWPOLYLINE
  5
107
100
AcDbEntity
  8
0
 62
7
100
AcDbPolyline
 90
2
 70
0
 10
69.082757
 20
139.648827
 30
0.0
 10
71.482756
 20
139.648827
 30
0.0
  0
LWPOLYLINE
  5
108
100
AcDbEntity
  8
0
 62
7
100
AcDbPolyline
 90
1
 70
1
 10
70.282756
 20
141.648825
 30
0.0
  0
SPLINE
  5
109
100
AcDbEntity
  8
0
 62
7
100
AcDbSpline
 70
8
 71
3
 72
8
 73
4
 74
0
 40
0
 40
0
 40
0
 40
0
 40
1
 40
1
 40
1
 40
1
 10
60.080172
 20
136.440421
 30
0.0
 10
59.988444
 20
136.732115
 30
0.0
 10
59.909267
 20
137.027609
 30
0.0
 10
59.842861
 20
137.326088
 30
0.0
  0
LWPOLYLINE
  5
10a
100
AcDbEntity
  8
0
 62
7
100
AcDbPolyline
 90
52
 70
0
 10
62.448869
 20
132.632390
 30
0.0
 10
62.509520
 20
132.869699
 30
0.0
 10
62.576157
 20
133.091261
 30
0.0
 10
62.646112
 20
133.292834
 30
0.0
 10
62.719407
 20
133.478623
 30
0.0
 10
62.794551
 20
133.647950
 30
0.0
 10
62.869626
 20
133.799617
 30
0.0
 10
62.944549
 20
133.936266
 30
0.0
 10
63.015850
 20
134.054288
 30
0.0
 10
63.084708
 20
134.158222
 30
0.0
 10
63.206463
 20
134.319635
 30
0.0
 10
63.301620
 20
134.426177
 30
0.0
 10
63.360133
 20
134.481910
 30
0.0
 10
63.505429
 20
134.569711
 30
0.0
 10
63.638337
 20
134.664667
 30
0.0
 10
63.751555
 20
134.761187
 30
0.0
 10
63.845207
 20
134.857796
 30
0.0
 10
63.919520
 20
134.953043
 30
0.0
 10
63.974782
 20
135.045466
 30
0.0
 10
64.011414
 20
135.133657
 30
0.0
 10
64.029871
 20
135.216228
 30
0.0
 10
64.030714
 20
135.291828
 30
0.0
 10
64.014591
 20
135.359134
 30
0.0
 10
63.996216
 20
135.396423
 30
0.0
 10
63.843092
 20
135.632522
 30
0.0
 10
63.710113
 20
135.854109
 30
0.0
 10
63.584702
 20
136.080066
 30
0.0
 10
63.456797
 20
136.330725
 30
0.0
 10
63.433693
 20
136.365283
 30
0.0
 10
63.383466
 20
136.412899
 30
0.0
 10
63.317573
 20
136.449969
 30
0.0
 10
63.236836
 20
136.475270
 30
0.0
 10
63.142144
 20
136.487641
 30
0.0
 10
63.034472
 20
136.485991
 30
0.0
 10
62.914829
 20
136.469258
 30
0.0
 10
62.784337
 20
136.436457
 30
0.0
 10
62.644139
 20
136.386667
 30
0.0
 10
62.495451
 20
136.319043
 30
0.0
 10
62.346765
 20
136.237114
 30
0.0
 10
62.269242
 20
136.214307
 30
0.0
 10
62.129395
 20
136.185170
 30
0.0
 10
61.928730
 20
136.160433
 30
0.0
 10
61.804291
 20
136.152763
 30
0.0
 10
61.666430
 20
136.150023
 30
0.0
 10
61.510627
 20
136.153463
 30
0.0
 10
61.341742
 20
136.164280
 30
0.0
 10
61.157529
 20
136.183867
 30
0.0
 10
60.959984
 20
136.213286
 30
0.0
 10
60.750438
 20
136.253490
 30
0.0
 10
60.525242
 20
136.306562
 30
0.0
 10
60.289401
 20
136.372691
 30
0.0
 10
60.080172
 20
136.440421
 30
0.0
  0
SPLINE
  5
10b
100
AcDbEntity
  8
0
 62
7
100
AcDbSpline
 70
8
 71
3
 72
8
 73
4
 74
0
 40
0
 40
0
 40
0
 40
0
 40
1
 40
1
 40
1
 40
1
 10
59.842861
 20
141.971565
 30
0.0
 10
59.909268
 20
142.270041
 30
0.0
 10
59.988444
 20
142.565532
 30
0.0
 10
60.080172
 20
142.857224
 30
0.0
  0
LWPOLYLINE
  5
10c
100
AcDbEntity
  8
0
 62
7
100
AcDbPolyline
 90
53
 70
0
 10
59.842861
 20
137.326088
 30
0.0
 10
59.990193
 20
137.489358
 30
0.0
 10
60.161373
 20
137.664548
 30
0.0
 10
60.329863
 20
137.823108
 30
0.0
 10
60.491232
 20
137.962698
 30
0.0
 10
60.647602
 20
138.086948
 30
0.0
 10
60.797342
 20
138.196017
 30
0.0
 10
60.938192
 20
138.289827
 30
0.0
 10
61.071402
 20
138.370707
 30
0.0
 10
61.192162
 20
138.437267
 30
0.0
 10
61.303762
 20
138.492847
 30
0.0
 10
61.489912
 20
138.571757
 30
0.0
 10
61.625592
 20
138.616447
 30
0.0
 10
61.704132
 20
138.635457
 30
0.0
 10
61.873862
 20
138.638847
 30
0.0
 10
62.036441
 20
138.654627
 30
0.0
 10
62.182751
 20
138.681607
 30
0.0
 10
62.312161
 20
138.718447
 30
0.0
 10
62.424141
 20
138.763777
 30
0.0
 10
62.518211
 20
138.816187
 30
0.0
 10
62.594031
 20
138.874247
 30
0.0
 10
62.651301
 20
138.936527
 30
0.0
 10
62.689831
 20
139.001577
 30
0.0
 10
62.709521
 20
139.067927
 30
0.0
 10
62.712251
 20
139.109407
 30
0.0
 10
62.697691
 20
139.390437
 30
0.0
 10
62.693321
 20
139.648827
 30
0.0
 10
62.697691
 20
139.907216
 30
0.0
 10
62.712251
 20
140.188246
 30
0.0
 10
62.709521
 20
140.229726
 30
0.0
 10
62.689831
 20
140.296076
 30
0.0
 10
62.651301
 20
140.361126
 30
0.0
 10
62.594031
 20
140.423406
 30
0.0
 10
62.518211
 20
140.481466
 30
0.0
 10
62.424141
 20
140.533876
 30
0.0
 10
62.312161
 20
140.579206
 30
0.0
 10
62.182751
 20
140.616046
 30
0.0
 10
62.036441
 20
140.643026
 30
0.0
 10
61.873862
 20
140.658806
 30
0.0
 10
61.704132
 20
140.662196
 30
0.0
 10
61.625592
 20
140.681206
 30
0.0
 10
61.489912
 20
140.725896
 30
0.0
 10
61.303762
 20
140.804806
 30
0.0
 10
61.192162
 20
140.860386
 30
0.0
 10
61.071402
 20
140.926946
 30
0.0
 10
60.938192
 20
141.007826
 30
0.0
 10
60.797342
 20
141.101636
 30
0.0
 10
60.647602
 20
141.210706
 30
0.0
 10
60.491232
 20
141.334955
 30
0.0
 10
60.329863
 20
141.474545
 30
0.0
 10
60.161373
 20
141.633105
 30
0.0
 10
59.990193
 20
141.808295
 30
0.0
 10
59.842861
 20
141.971565
 30
0.0
  0
SPLINE
  5
10d
100
AcDbEntity
  8
0
 62
7
100
AcDbSpline
 70
8
 71
3
 72
8
 73
4
 74
0
 40
0
 40
0
 40
0
 40
0
 40
1
 40
1
 40
1
 40
1
 10
62.402913
 20
146.880316
 30
0.0
 10
62.609661
 20
147.105600
 30
0.0
 10
62.825975
 20
147.321915
 30
0.0
 10
63.051260
 20
147.528663
 30
0.0
  0
LWPOLYLINE
  5
10e
100
AcDbEntity
  8
0
 62
7
100
AcDbPolyline
 90
53
 70
0
 10
60.080172
 20
142.857224
 30
0.0
 10
60.289400
 20
142.924954
 30
0.0
 10
60.525242
 20
142.991083
 30
0.0
 10
60.750438
 20
143.044155
 30
0.0
 10
60.959983
 20
143.084359
 30
0.0
 10
61.157529
 20
143.113778
 30
0.0
 10
61.341742
 20
143.133365
 30
0.0
 10
61.510627
 20
143.144182
 30
0.0
 10
61.666430
 20
143.147622
 30
0.0
 10
61.804291
 20
143.144882
 30
0.0
 10
61.928729
 20
143.137212
 30
0.0
 10
62.129395
 20
143.112475
 30
0.0
 10
62.269242
 20
143.083338
 30
0.0
 10
62.346765
 20
143.060531
 30
0.0
 10
62.495451
 20
142.978602
 30
0.0
 10
62.644139
 20
142.910978
 30
0.0
 10
62.784337
 20
142.861188
 30
0.0
 10
62.914829
 20
142.828387
 30
0.0
 10
63.034472
 20
142.811654
 30
0.0
 10
63.142144
 20
142.810004
 30
0.0
 10
63.236836
 20
142.822375
 30
0.0
 10
63.317573
 20
142.847676
 30
0.0
 10
63.383466
 20
142.884746
 30
0.0
 10
63.433693
 20
142.932362
 30
0.0
 10
63.456796
 20
142.966920
 30
0.0
 10
63.584702
 20
143.217579
 30
0.0
 10
63.710113
 20
143.443536
 30
0.0
 10
63.843092
 20
143.665123
 30
0.0
 10
63.996216
 20
143.901222
 30
0.0
 10
64.014592
 20
143.938510
 30
0.0
 10
64.030715
 20
144.005816
 30
0.0
 10
64.029872
 20
144.081416
 30
0.0
 10
64.011415
 20
144.163987
 30
0.0
 10
63.974783
 20
144.252178
 30
0.0
 10
63.919521
 20
144.344601
 30
0.0
 10
63.845208
 20
144.439848
 30
0.0
 10
63.751556
 20
144.536456
 30
0.0
 10
63.638338
 20
144.632976
 30
0.0
 10
63.505430
 20
144.727932
 30
0.0
 10
63.360135
 20
144.815733
 30
0.0
 10
63.301622
 20
144.871466
 30
0.0
 10
63.206465
 20
144.978009
 30
0.0
 10
63.084709
 20
145.139422
 30
0.0
 10
63.015851
 20
145.243355
 30
0.0
 10
62.944550
 20
145.361378
 30
0.0
 10
62.869627
 20
145.498027
 30
0.0
 10
62.794552
 20
145.649694
 30
0.0
 10
62.719408
 20
145.819021
 30
0.0
 10
62.646113
 20
146.004810
 30
0.0
 10
62.576158
 20
146.206383
 30
0.0
 10
62.509521
 20
146.427945
 30
0.0
 10
62.448871
 20
146.665254
 30
0.0
 10
62.402913
 20
146.880316
 30
0.0
  0
SPLINE
  5
10f
100
AcDbEntity
  8
0
 62
7
100
AcDbSpline
 70
8
 71
3
 72
8
 73
4
 74
0
 40
0
 40
0
 40
0
 40
0
 40
1
 40
1
 40
1
 40
1
 10
67.074352
 20
149.851404
 30
0.0
 10
67.366043
 20
149.943132
 30
0.0
 10
67.661534
 20
150.022308
 30
0.0
 10
67.960010
 20
150.088715
 30
0.0
  0
LWPOLYLINE
  5
110
100
AcDbEntity
  8
0
 62
7
100
AcDbPolyline
 90
53
 70
0
 10
63.051260
 20
147.528663
 30
0.0
 10
63.266322
 20
147.482705
 30
0.0
 10
63.503630
 20
147.422054
 30
0.0
 10
63.725192
 20
147.355417
 30
0.0
 10
63.926766
 20
147.285462
 30
0.0
 10
64.112554
 20
147.212167
 30
0.0
 10
64.281881
 20
147.137023
 30
0.0
 10
64.433548
 20
147.061948
 30
0.0
 10
64.570197
 20
146.987025
 30
0.0
 10
64.688220
 20
146.915724
 30
0.0
 10
64.792154
 20
146.846866
 30
0.0
 10
64.953566
 20
146.725111
 30
0.0
 10
65.060109
 20
146.629954
 30
0.0
 10
65.115842
 20
146.571441
 30
0.0
 10
65.203643
 20
146.426145
 30
0.0
 10
65.298599
 20
146.293237
 30
0.0
 10
65.395119
 20
146.180019
 30
0.0
 10
65.491728
 20
146.086367
 30
0.0
 10
65.586975
 20
146.012054
 30
0.0
 10
65.679398
 20
145.956792
 30
0.0
 10
65.767589
 20
145.920160
 30
0.0
 10
65.850160
 20
145.901703
 30
0.0
 10
65.925760
 20
145.900860
 30
0.0
 10
65.993066
 20
145.916983
 30
0.0
 10
66.030353
 20
145.935359
 30
0.0
 10
66.266452
 20
146.088483
 30
0.0
 10
66.488040
 20
146.221463
 30
0.0
 10
66.713997
 20
146.346873
 30
0.0
 10
66.964656
 20
146.474779
 30
0.0
 10
66.999214
 20
146.497883
 30
0.0
 10
67.046830
 20
146.548110
 30
0.0
 10
67.083900
 20
146.614003
 30
0.0
 10
67.109201
 20
146.694740
 30
0.0
 10
67.121572
 20
146.789432
 30
0.0
 10
67.119922
 20
146.897104
 30
0.0
 10
67.103189
 20
147.016746
 30
0.0
 10
67.070388
 20
147.147238
 30
0.0
 10
67.020598
 20
147.287436
 30
0.0
 10
66.952974
 20
147.436125
 30
0.0
 10
66.871045
 20
147.584810
 30
0.0
 10
66.848238
 20
147.662333
 30
0.0
 10
66.819101
 20
147.802180
 30
0.0
 10
66.794364
 20
148.002846
 30
0.0
 10
66.786694
 20
148.127284
 30
0.0
 10
66.783954
 20
148.265145
 30
0.0
 10
66.787394
 20
148.420949
 30
0.0
 10
66.798211
 20
148.589833
 30
0.0
 10
66.817798
 20
148.774047
 30
0.0
 10
66.847217
 20
148.971592
 30
0.0
 10
66.887421
 20
149.181137
 30
0.0
 10
66.940493
 20
149.406334
 30
0.0
 10
67.006622
 20
149.642175
 30
0.0
 10
67.074352
 20
149.851404
 30
0.0
  0
SPLINE
  5
111
100
AcDbEntity
  8
0
 62
7
100
AcDbSpline
 70
8
 71
3
 72
8
 73
4
 74
0
 40
0
 40
0
 40
0
 40
0
 40
1
 40
1
 40
1
 40
1
 10
72.605495
 20
150.088722
 30
0.0
 10
72.903971
 20
150.022315
 30
0.0
 10
73.199462
 20
149.943139
 30
0.0
 10
73.491154
 20
149.851411
 30
0.0
  0
LWPOLYLINE
  5
112
100
AcDbEntity
  8
0
 62
7
100
AcDbPolyline
 90
53
 70
0
 10
67.960010
 20
150.088715
 30
0.0
 10
68.123280
 20
149.941383
 30
0.0
 10
68.298470
 20
149.770203
 30
0.0
 10
68.457030
 20
149.601713
 30
0.0
 10
68.596620
 20
149.440343
 30
0.0
 10
68.720870
 20
149.283973
 30
0.0
 10
68.829940
 20
149.134233
 30
0.0
 10
68.923750
 20
148.993383
 30
0.0
 10
69.004630
 20
148.860173
 30
0.0
 10
69.071190
 20
148.739413
 30
0.0
 10
69.126770
 20
148.627813
 30
0.0
 10
69.205680
 20
148.441664
 30
0.0
 10
69.250369
 20
148.305984
 30
0.0
 10
69.269379
 20
148.227444
 30
0.0
 10
69.272769
 20
148.057714
 30
0.0
 10
69.288549
 20
147.895134
 30
0.0
 10
69.315529
 20
147.748824
 30
0.0
 10
69.352369
 20
147.619414
 30
0.0
 10
69.397699
 20
147.507434
 30
0.0
 10
69.450109
 20
147.413364
 30
0.0
 10
69.508169
 20
147.337544
 30
0.0
 10
69.570449
 20
147.280274
 30
0.0
 10
69.635499
 20
147.241744
 30
0.0
 10
69.701849
 20
147.222054
 30
0.0
 10
69.743329
 20
147.219324
 30
0.0
 10
70.024359
 20
147.233884
 30
0.0
 10
70.282756
 20
147.238262
 30
0.0
 10
70.541146
 20
147.233892
 30
0.0
 10
70.822176
 20
147.219332
 30
0.0
 10
70.863656
 20
147.222062
 30
0.0
 10
70.930006
 20
147.241752
 30
0.0
 10
70.995056
 20
147.280282
 30
0.0
 10
71.057336
 20
147.337552
 30
0.0
 10
71.115396
 20
147.413372
 30
0.0
 10
71.167806
 20
147.507442
 30
0.0
 10
71.213136
 20
147.619422
 30
0.0
 10
71.249976
 20
147.748832
 30
0.0
 10
71.276956
 20
147.895141
 30
0.0
 10
71.292736
 20
148.057721
 30
0.0
 10
71.296126
 20
148.227451
 30
0.0
 10
71.315136
 20
148.305991
 30
0.0
 10
71.359826
 20
148.441671
 30
0.0
 10
71.438736
 20
148.627821
 30
0.0
 10
71.494316
 20
148.739421
 30
0.0
 10
71.560876
 20
148.860181
 30
0.0
 10
71.641756
 20
148.993391
 30
0.0
 10
71.735565
 20
149.134241
 30
0.0
 10
71.844635
 20
149.283981
 30
0.0
 10
71.968885
 20
149.440350
 30
0.0
 10
72.108475
 20
149.601720
 30
0.0
 10
72.267035
 20
149.770210
 30
0.0
 10
72.442225
 20
149.941390
 30
0.0
 10
72.605495
 20
150.088722
 30
0.0
  0
SPLINE
  5
113
100
AcDbEntity
  8
0
 62
7
100
AcDbSpline
 70
8
 71
3
 72
8
 73
4
 74
0
 40
0
 40
0
 40
0
 40
0
 40
1
 40
1
 40
1
 40
1
 10
77.514246
 20
147.528670
 30
0.0
 10
77.739530
 20
147.321922
 30
0.0
 10
77.955844
 20
147.105608
 30
0.0
 10
78.162593
 20
146.880323
 30
0.0
  0
LWPOLYLINE
  5
114
100
AcDbEntity
  8
0
 62
7
100
AcDbPolyline
 90
53
 70
0
 10
73.491154
 20
149.851411
 30
0.0
 10
73.558884
 20
149.642182
 30
0.0
 10
73.625012
 20
149.406341
 30
0.0
 10
73.678084
 20
149.181145
 30
0.0
 10
73.718288
 20
148.971599
 30
0.0
 10
73.747707
 20
148.774054
 30
0.0
 10
73.767294
 20
148.589841
 30
0.0
 10
73.778111
 20
148.420956
 30
0.0
 10
73.781551
 20
148.265153
 30
0.0
 10
73.778811
 20
148.127292
 30
0.0
 10
73.771141
 20
148.002853
 30
0.0
 10
73.746404
 20
147.802188
 30
0.0
 10
73.717267
 20
147.662341
 30
0.0
 10
73.694460
 20
147.584818
 30
0.0
 10
73.612531
 20
147.436132
 30
0.0
 10
73.544908
 20
147.287444
 30
0.0
 10
73.495118
 20
147.147246
 30
0.0
 10
73.462317
 20
147.016754
 30
0.0
 10
73.445584
 20
146.897111
 30
0.0
 10
73.443934
 20
146.789439
 30
0.0
 10
73.456305
 20
146.694747
 30
0.0
 10
73.481606
 20
146.614010
 30
0.0
 10
73.518676
 20
146.548117
 30
0.0
 10
73.566292
 20
146.497890
 30
0.0
 10
73.600849
 20
146.474786
 30
0.0
 10
73.851508
 20
146.346881
 30
0.0
 10
74.077466
 20
146.221470
 30
0.0
 10
74.299053
 20
146.088491
 30
0.0
 10
74.535152
 20
145.935367
 30
0.0
 10
74.572440
 20
145.916991
 30
0.0
 10
74.639746
 20
145.900868
 30
0.0
 10
74.715346
 20
145.901711
 30
0.0
 10
74.797917
 20
145.920168
 30
0.0
 10
74.886107
 20
145.956800
 30
0.0
 10
74.978530
 20
146.012062
 30
0.0
 10
75.073777
 20
146.086375
 30
0.0
 10
75.170386
 20
146.180026
 30
0.0
 10
75.266906
 20
146.293245
 30
0.0
 10
75.361862
 20
146.426153
 30
0.0
 10
75.449663
 20
146.571448
 30
0.0
 10
75.505396
 20
146.629961
 30
0.0
 10
75.611939
 20
146.725118
 30
0.0
 10
75.773352
 20
146.846874
 30
0.0
 10
75.877285
 20
146.915732
 30
0.0
 10
75.995308
 20
146.987033
 30
0.0
 10
76.131957
 20
147.061956
 30
0.0
 10
76.283624
 20
147.137031
 30
0.0
 10
76.452951
 20
147.212175
 30
0.0
 10
76.638740
 20
147.285469
 30
0.0
 10
76.840313
 20
147.355424
 30
0.0
 10
77.061875
 20
147.422061
 30
0.0
 10
77.299184
 20
147.482712
 30
0.0
 10
77.514246
 20
147.528670
 30
0.0
  0
SPLINE
  5
115
100
AcDbEntity
  8
0
 62
7
100
AcDbSpline
 70
8
 71
3
 72
8
 73
4
 74
0
 40
0
 40
0
 40
0
 40
0
 40
1
 40
1
 40
1
 40
1
 10
80.485334
 20
142.857231
 30
0.0
 10
80.577062
 20
142.565540
 30
0.0
 10
80.656238
 20
142.270049
 30
0.0
 10
80.722645
 20
141.971573
 30
0.0
  0
LWPOLYLINE
  5
116
100
AcDbEntity
  8
0
 62
7
100
AcDbPolyline
 90
53
 70
0
 10
78.162593
 20
146.880323
 30
0.0
 10
78.116635
 20
146.665261
 30
0.0
 10
78.055984
 20
146.427952
 30
0.0
 10
77.989347
 20
146.206391
 30
0.0
 10
77.919392
 20
146.004817
 30
0.0
 10
77.846097
 20
145.819029
 30
0.0
 10
77.770953
 20
145.649701
 30
0.0
 10
77.695878
 20
145.498035
 30
0.0
 10
77.620955
 20
145.361386
 30
0.0
 10
77.549654
 20
145.243363
 30
0.0
 10
77.480796
 20
145.139429
 30
0.0
 10
77.359041
 20
144.978016
 30
0.0
 10
77.263884
 20
144.871474
 30
0.0
 10
77.205371
 20
144.815741
 30
0.0
 10
77.060075
 20
144.727940
 30
0.0
 10
76.927167
 20
144.632984
 30
0.0
 10
76.813949
 20
144.536464
 30
0.0
 10
76.720297
 20
144.439855
 30
0.0
 10
76.645984
 20
144.344608
 30
0.0
 10
76.590722
 20
144.252185
 30
0.0
 10
76.554090
 20
144.163994
 30
0.0
 10
76.535633
 20
144.081423
 30
0.0
 10
76.534790
 20
144.005823
 30
0.0
 10
76.550913
 20
143.938517
 30
0.0
 10
76.569289
 20
143.901229
 30
0.0
 10
76.722413
 20
143.665130
 30
0.0
 10
76.855393
 20
143.443543
 30
0.0
 10
76.980803
 20
143.217586
 30
0.0
 10
77.108709
 20
142.966927
 30
0.0
 10
77.131813
 20
142.932369
 30
0.0
 10
77.182040
 20
142.884753
 30
0.0
 10
77.247933
 20
142.847683
 30
0.0
 10
77.328670
 20
142.822382
 30
0.0
 10
77.423362
 20
142.810011
 30
0.0
 10
77.531034
 20
142.811661
 30
0.0
 10
77.650676
 20
142.828394
 30
0.0
 10
77.781168
 20
142.861195
 30
0.0
 10
77.921366
 20
142.910985
 30
0.0
 10
78.070055
 20
142.978609
 30
0.0
 10
78.218740
 20
143.060538
 30
0.0
 10
78.296263
 20
143.083345
 30
0.0
 10
78.436110
 20
143.112482
 30
0.0
 10
78.636776
 20
143.137219
 30
0.0
 10
78.761214
 20
143.144889
 30
0.0
 10
78.899075
 20
143.147629
 30
0.0
 10
79.054878
 20
143.144189
 30
0.0
 10
79.223763
 20
143.133372
 30
0.0
 10
79.407976
 20
143.113785
 30
0.0
 10
79.605522
 20
143.084366
 30
0.0
 10
79.815067
 20
143.044162
 30
0.0
 10
80.040264
 20
142.991090
 30
0.0
 10
80.276105
 20
142.924961
 30
0.0
 10
80.485334
 20
142.857231
 30
0.0
  0
SPLINE
  5
117
100
AcDbEntity
  8
0
 62
7
100
AcDbSpline
 70
8
 71
3
 72
8
 73
4
 74
0
 40
0
 40
0
 40
0
 40
0
 40
1
 40
1
 40
1
 40
1
 10
80.722652
 20
137.326088
 30
0.0
 10
80.656245
 20
137.027612
 30
0.0
 10
80.577069
 20
136.732121
 30
0.0
 10
80.485341
 20
136.440429
 30
0.0
  0
LWPOLYLINE
  5
118
100
AcDbEntity
  8
0
 62
7
100
AcDbPolyline
 90
53
 70
0
 10
80.722645
 20
141.971573
 30
0.0
 10
80.575320
 20
141.808295
 30
0.0
 10
80.404140
 20
141.633105
 30
0.0
 10
80.235650
 20
141.474545
 30
0.0
 10
80.074280
 20
141.334955
 30
0.0
 10
79.917910
 20
141.210706
 30
0.0
 10
79.768170
 20
141.101636
 30
0.0
 10
79.627321
 20
141.007826
 30
0.0
 10
79.494111
 20
140.926946
 30
0.0
 10
79.373351
 20
140.860386
 30
0.0
 10
79.261751
 20
140.804806
 30
0.0
 10
79.075601
 20
140.725896
 30
0.0
 10
78.939921
 20
140.681206
 30
0.0
 10
78.861381
 20
140.662196
 30
0.0
 10
78.691651
 20
140.658806
 30
0.0
 10
78.529071
 20
140.643026
 30
0.0
 10
78.382761
 20
140.616046
 30
0.0
 10
78.253351
 20
140.579206
 30
0.0
 10
78.141371
 20
140.533876
 30
0.0
 10
78.047302
 20
140.481466
 30
0.0
 10
77.971482
 20
140.423406
 30
0.0
 10
77.914212
 20
140.361126
 30
0.0
 10
77.875682
 20
140.296076
 30
0.0
 10
77.855992
 20
140.229726
 30
0.0
 10
77.853262
 20
140.188246
 30
0.0
 10
77.867822
 20
139.907216
 30
0.0
 10
77.872192
 20
139.648827
 30
0.0
 10
77.867822
 20
139.390437
 30
0.0
 10
77.853262
 20
139.109407
 30
0.0
 10
77.855992
 20
139.067927
 30
0.0
 10
77.875682
 20
139.001577
 30
0.0
 10
77.914212
 20
138.936527
 30
0.0
 10
77.971482
 20
138.874247
 30
0.0
 10
78.047302
 20
138.816187
 30
0.0
 10
78.141371
 20
138.763777
 30
0.0
 10
78.253351
 20
138.718447
 30
0.0
 10
78.382761
 20
138.681607
 30
0.0
 10
78.529071
 20
138.654627
 30
0.0
 10
78.691651
 20
138.638847
 30
0.0
 10
78.861381
 20
138.635457
 30
0.0
 10
78.939921
 20
138.616447
 30
0.0
 10
79.075601
 20
138.571757
 30
0.0
 10
79.261751
 20
138.492847
 30
0.0
 10
79.373351
 20
138.437267
 30
0.0
 10
79.494111
 20
138.370707
 30
0.0
 10
79.627321
 20
138.289827
 30
0.0
 10
79.768170
 20
138.196017
 30
0.0
 10
79.917910
 20
138.086948
 30
0.0
 10
80.074280
 20
137.962698
 30
0.0
 10
80.235650
 20
137.823108
 30
0.0
 10
80.404140
 20
137.664548
 30
0.0
 10
80.575320
 20
137.489358
 30
0.0
 10
80.722652
 20
137.326088
 30
0.0
  0
SPLINE
  5
119
100
AcDbEntity
  8
0
 62
7
100
AcDbSpline
 70
8
 71
3
 72
8
 73
4
 74
0
 40
0
 40
0
 40
0
 40
0
 40
1
 40
1
 40
1
 40
1
 10
78.162600
 20
132.417329
 30
0.0
 10
77.955852
 20
132.192044
 30
0.0
 10
77.739539
 20
131.975729
 30
0.0
 10
77.514255
 20
131.768981
 30
0.0
  0
LWPOLYLINE
  5
11a
100
AcDbEntity
  8
0
 62
7
100
AcDbPolyline
 90
53
 70
0
 10
80.485341
 20
136.440429
 30
0.0
 10
80.276112
 20
136.372699
 30
0.0
 10
80.040271
 20
136.306571
 30
0.0
 10
79.815075
 20
136.253499
 30
0.0
 10
79.605529
 20
136.213295
 30
0.0
 10
79.407984
 20
136.183876
 30
0.0
 10
79.223770
 20
136.164289
 30
0.0
 10
79.054886
 20
136.153472
 30
0.0
 10
78.899083
 20
136.150033
 30
0.0
 10
78.761222
 20
136.152770
 30
0.0
 10
78.636783
 20
136.160437
 30
0.0
 10
78.436118
 20
136.185174
 30
0.0
 10
78.296270
 20
136.214311
 30
0.0
 10
78.218748
 20
136.237118
 30
0.0
 10
78.070063
 20
136.319047
 30
0.0
 10
77.921374
 20
136.386671
 30
0.0
 10
77.781176
 20
136.436461
 30
0.0
 10
77.650684
 20
136.469261
 30
0.0
 10
77.531041
 20
136.485994
 30
0.0
 10
77.423369
 20
136.487641
 30
0.0
 10
77.328677
 20
136.475270
 30
0.0
 10
77.247940
 20
136.449968
 30
0.0
 10
77.182047
 20
136.412898
 30
0.0
 10
77.131820
 20
136.365283
 30
0.0
 10
77.108716
 20
136.330725
 30
0.0
 10
76.980810
 20
136.080066
 30
0.0
 10
76.855400
 20
135.854109
 30
0.0
 10
76.722421
 20
135.632522
 30
0.0
 10
76.569296
 20
135.396423
 30
0.0
 10
76.550920
 20
135.359135
 30
0.0
 10
76.534797
 20
135.291829
 30
0.0
 10
76.535640
 20
135.216229
 30
0.0
 10
76.554097
 20
135.133658
 30
0.0
 10
76.590729
 20
135.045467
 30
0.0
 10
76.645991
 20
134.953044
 30
0.0
 10
76.720304
 20
134.857797
 30
0.0
 10
76.813956
 20
134.761188
 30
0.0
 10
76.927174
 20
134.664668
 30
0.0
 10
77.060083
 20
134.569712
 30
0.0
 10
77.205378
 20
134.481911
 30
0.0
 10
77.263891
 20
134.426178
 30
0.0
 10
77.359048
 20
134.319636
 30
0.0
 10
77.480803
 20
134.158223
 30
0.0
 10
77.549661
 20
134.054289
 30
0.0
 10
77.620962
 20
133.936267
 30
0.0
 10
77.695885
 20
133.799618
 30
0.0
 10
77.770960
 20
133.647951
 30
0.0
 10
77.846104
 20
133.478623
 30
0.0
 10
77.919399
 20
133.292835
 30
0.0
 10
77.989354
 20
133.091262
 30
0.0
 10
78.055991
 20
132.869700
 30
0.0
 10
78.116642
 20
132.632391
 30
0.0
 10
78.162600
 20
132.417329
 30
0.0
  0
SPLINE
  5
11b
100
AcDbEntity
  8
0
 62
7
100
AcDbSpline
 70
8
 71
3
 72
8
 73
4
 74
0
 40
0
 40
0
 40
0
 40
0
 40
1
 40
1
 40
1
 40
1
 10
73.491162
 20
129.446242
 30
0.0
 10
73.199468
 20
129.354514
 30
0.0
 10
72.903974
 20
129.275338
 30
0.0
 10
72.605495
 20
129.208931
 30
0.0
  0
LWPOLYLINE
  5
11c
100
AcDbEntity
  8
0
 62
7
100
AcDbPolyline
 90
53
 70
0
 10
77.514255
 20
131.768981
 30
0.0
 10
77.299193
 20
131.814939
 30
0.0
 10
77.061884
 20
131.875590
 30
0.0
 10
76.840322
 20
131.942227
 30
0.0
 10
76.638749
 20
132.012183
 30
0.0
 10
76.452960
 20
132.085478
 30
0.0
 10
76.283633
 20
132.160621
 30
0.0
 10
76.131966
 20
132.235696
 30
0.0
 10
75.995317
 20
132.310619
 30
0.0
 10
75.877295
 20
132.381921
 30
0.0
 10
75.773361
 20
132.450779
 30
0.0
 10
75.611948
 20
132.572534
 30
0.0
 10
75.505405
 20
132.667692
 30
0.0
 10
75.449672
 20
132.726204
 30
0.0
 10
75.361871
 20
132.871500
 30
0.0
 10
75.266916
 20
133.004408
 30
0.0
 10
75.170395
 20
133.117626
 30
0.0
 10
75.073786
 20
133.211278
 30
0.0
 10
74.978539
 20
133.285591
 30
0.0
 10
74.886116
 20
133.340853
 30
0.0
 10
74.797925
 20
133.377485
 30
0.0
 10
74.715353
 20
133.395942
 30
0.0
 10
74.639754
 20
133.396785
 30
0.0
 10
74.572448
 20
133.380662
 30
0.0
 10
74.535160
 20
133.362286
 30
0.0
 10
74.299061
 20
133.209162
 30
0.0
 10
74.077474
 20
133.076183
 30
0.0
 10
73.851517
 20
132.950772
 30
0.0
 10
73.600858
 20
132.822867
 30
0.0
 10
73.566300
 20
132.799763
 30
0.0
 10
73.518684
 20
132.749536
 30
0.0
 10
73.481614
 20
132.683643
 30
0.0
 10
73.456313
 20
132.602906
 30
0.0
 10
73.443942
 20
132.508214
 30
0.0
 10
73.445592
 20
132.400542
 30
0.0
 10
73.462325
 20
132.280900
 30
0.0
 10
73.495126
 20
132.150407
 30
0.0
 10
73.544916
 20
132.010209
 30
0.0
 10
73.612540
 20
131.861521
 30
0.0
 10
73.694469
 20
131.712835
 30
0.0
 10
73.717276
 20
131.635313
 30
0.0
 10
73.746413
 20
131.495465
 30
0.0
 10
73.771150
 20
131.294800
 30
0.0
 10
73.778820
 20
131.170361
 30
0.0
 10
73.781560
 20
131.032500
 30
0.0
 10
73.778120
 20
130.876697
 30
0.0
 10
73.767303
 20
130.707812
 30
0.0
 10
73.747716
 20
130.523599
 30
0.0
 10
73.718297
 20
130.326054
 30
0.0
 10
73.678093
 20
130.116508
 30
0.0
 10
73.625021
 20
129.891312
 30
0.0
 10
73.558892
 20
129.655471
 30
0.0
 10
73.491162
 20
129.446242
 30
0.0
  0
SPLINE
  5
11d
100
AcDbEntity
  8
0
 62
7
100
AcDbSpline
 70
8
 71
3
 72
8
 73
4
 74
0
 40
0
 40
0
 40
0
 40
0
 40
1
 40
1
 40
1
 40
1
 10
67.960018
 20
129.208931
 30
0.0
 10
67.661542
 20
129.275338
 30
0.0
 10
67.366051
 20
129.354514
 30
0.0
 10
67.074359
 20
129.446242
 30
0.0
  0
LWPOLYLINE
  5
11e
100
AcDbEntity
  8
0
 62
7
100
AcDbPolyline
 90
53
 70
0
 10
72.605495
 20
129.208931
 30
0.0
 10
72.442225
 20
129.356263
 30
0.0
 10
72.267035
 20
129.527443
 30
0.0
 10
72.108475
 20
129.695933
 30
0.0
 10
71.968885
 20
129.857303
 30
0.0
 10
71.844635
 20
130.013673
 30
0.0
 10
71.735565
 20
130.163412
 30
0.0
 10
71.641756
 20
130.304262
 30
0.0
 10
71.560876
 20
130.437472
 30
0.0
 10
71.494316
 20
130.558232
 30
0.0
 10
71.438736
 20
130.669832
 30
0.0
 10
71.359826
 20
130.855982
 30
0.0
 10
71.315136
 20
130.991662
 30
0.0
 10
71.296126
 20
131.070202
 30
0.0
 10
71.292736
 20
131.239932
 30
0.0
 10
71.276956
 20
131.402512
 30
0.0
 10
71.249976
 20
131.548822
 30
0.0
 10
71.213136
 20
131.678231
 30
0.0
 10
71.167806
 20
131.790211
 30
0.0
 10
71.115396
 20
131.884281
 30
0.0
 10
71.057336
 20
131.960101
 30
0.0
 10
70.995056
 20
132.017371
 30
0.0
 10
70.930006
 20
132.055901
 30
0.0
 10
70.863656
 20
132.075591
 30
0.0
 10
70.822176
 20
132.078321
 30
0.0
 10
70.541146
 20
132.063761
 30
0.0
 10
70.282756
 20
132.059391
 30
0.0
 10
70.024367
 20
132.063761
 30
0.0
 10
69.743337
 20
132.078321
 30
0.0
 10
69.701857
 20
132.075591
 30
0.0
 10
69.635507
 20
132.055901
 30
0.0
 10
69.570457
 20
132.017371
 30
0.0
 10
69.508177
 20
131.960101
 30
0.0
 10
69.450117
 20
131.884281
 30
0.0
 10
69.397707
 20
131.790211
 30
0.0
 10
69.352377
 20
131.678231
 30
0.0
 10
69.315537
 20
131.548822
 30
0.0
 10
69.288557
 20
131.402512
 30
0.0
 10
69.272777
 20
131.239932
 30
0.0
 10
69.269387
 20
131.070202
 30
0.0
 10
69.250377
 20
130.991662
 30
0.0
 10
69.205687
 20
130.855982
 30
0.0
 10
69.126777
 20
130.669832
 30
0.0
 10
69.071197
 20
130.558232
 30
0.0
 10
69.004637
 20
130.437472
 30
0.0
 10
68.923757
 20
130.304262
 30
0.0
 10
68.829947
 20
130.163412
 30
0.0
 10
68.720877
 20
130.013673
 30
0.0
 10
68.596627
 20
129.857303
 30
0.0
 10
68.457037
 20
129.695933
 30
0.0
 10
68.298478
 20
129.527443
 30
0.0
 10
68.123288
 20
129.356263
 30
0.0
 10
67.960018
 20
129.208931
 30
0.0
  0
SPLINE
  5
11f
100
AcDbEntity
  8
0
 62
7
100
AcDbSpline
 70
8
 71
3
 72
8
 73
4
 74
0
 40
0
 40
0
 40
0
 40
0
 40
1
 40
1
 40
1
 40
1
 10
63.051259
 20
131.768983
 30
0.0
 10
62.825974
 20
131.975730
 30
0.0
 10
62.609659
 20
132.192044
 30
0.0
 10
62.402911
 20
132.417328
 30
0.0
  0
LWPOLYLINE
  5
120
100
AcDbEntity
  8
0
 62
7
100
AcDbPolyline
 90
53
 70
0
 10
67.074359
 20
129.446242
 30
0.0
 10
67.006629
 20
129.655471
 30
0.0
 10
66.940500
 20
129.891312
 30
0.0
 10
66.887428
 20
130.116508
 30
0.0
 10
66.847224
 20
130.326054
 30
0.0
 10
66.817805
 20
130.523599
 30
0.0
 10
66.798218
 20
130.707812
 30
0.0
 10
66.787401
 20
130.876697
 30
0.0
 10
66.783961
 20
131.032500
 30
0.0
 10
66.786701
 20
131.170361
 30
0.0
 10
66.794371
 20
131.294800
 30
0.0
 10
66.819108
 20
131.495465
 30
0.0
 10
66.848245
 20
131.635312
 30
0.0
 10
66.871052
 20
131.712835
 30
0.0
 10
66.952981
 20
131.861521
 30
0.0
 10
67.020605
 20
132.010209
 30
0.0
 10
67.070395
 20
132.150407
 30
0.0
 10
67.103196
 20
132.280899
 30
0.0
 10
67.119929
 20
132.400542
 30
0.0
 10
67.121579
 20
132.508214
 30
0.0
 10
67.109208
 20
132.602906
 30
0.0
 10
67.083907
 20
132.683643
 30
0.0
 10
67.046837
 20
132.749536
 30
0.0
 10
66.999221
 20
132.799763
 30
0.0
 10
66.964655
 20
132.822867
 30
0.0
 10
66.713996
 20
132.950772
 30
0.0
 10
66.488039
 20
133.076183
 30
0.0
 10
66.266452
 20
133.209162
 30
0.0
 10
66.030353
 20
133.362286
 30
0.0
 10
65.993065
 20
133.380662
 30
0.0
 10
65.925759
 20
133.396785
 30
0.0
 10
65.850159
 20
133.395943
 30
0.0
 10
65.767588
 20
133.377486
 30
0.0
 10
65.679397
 20
133.340854
 30
0.0
 10
65.586974
 20
133.285592
 30
0.0
 10
65.491727
 20
133.211279
 30
0.0
 10
65.395118
 20
133.117627
 30
0.0
 10
65.298598
 20
133.004409
 30
0.0
 10
65.203642
 20
132.871500
 30
0.0
 10
65.115841
 20
132.726205
 30
0.0
 10
65.060108
 20
132.667692
 30
0.0
 10
64.953566
 20
132.572535
 30
0.0
 10
64.792153
 20
132.450779
 30
0.0
 10
64.688219
 20
132.381921
 30
0.0
 10
64.570196
 20
132.310620
 30
0.0
 10
64.433547
 20
132.235698
 30
0.0
 10
64.281881
 20
132.160623
 30
0.0
 10
64.112553
 20
132.085479
 30
0.0
 10
63.926765
 20
132.012184
 30
0.0
 10
63.725191
 20
131.942229
 30
0.0
 10
63.503630
 20
131.875592
 30
0.0
 10
63.266321
 20
131.814941
 30
0.0
 10
63.051259
 20
131.768983
 30
0.0
  0
LWPOLYLINE
  5
121
100
AcDbEntity
  8
0
 62
7
100
AcDbPolyline
 90
2
 70
0
 10
62.402911
 20
132.417328
 30
0.0
 10
62.448869
 20
132.632390
 30
0.0
  0
LWPOLYLINE
  5
122
100
AcDbEntity
  8
0
 62
7
100
AcDbPolyline
 90
2
 70
0
 10
0.000000
 20
140.848826
 30
0.0
 10
0.000000
 20
138.448827
 30
0.0
  0
SPLINE
  5
123
100
AcDbEntity
  8
0
 62
7
100
AcDbSpline
 70
8
 71
3
 72
8
 73
4
 74
0
 40
0
 40
0
 40
0
 40
0
 40
1
 40
1
 40
1
 40
1
 10
0.000000
 20
141.648825
 30
0.0
 10
-0.808924
 20
141.648825
 30
0.0
 10
-1.538196
 20
141.161541
 30
0.0
 10
-1.847758
 20
140.414193
 30
0.0
  0
SPLINE
  5
124
100
AcDbEntity
  8
0
 62
7
100
AcDbSpline
 70
8
 71
3
 72
8
 73
4
 74
0
 40
0
 40
0
 40
0
 40
0
 40
1
 40
1
 40
1
 40
1
 10
-1.847758
 20
140.414193
 30
0.0
 10
-2.157320
 20
139.666845
 30
0.0
 10
-1.986208
 20
138.806609
 30
0.0
 10
-1.414213
 20
138.234614
 30
0.0
  0
SPLINE
  5
125
100
AcDbEntity
  8
0
 62
7
100
AcDbSpline
 70
8
 71
3
 72
8
 73
4
 74
0
 40
0
 40
0
 40
0
 40
0
 40
1
 40
1
 40
1
 40
1
 10
-1.414213
 20
138.234614
 30
0.0
 10
-0.842217
 20
137.662618
 30
0.0
 10
0.018018
 20
137.491507
 30
0.0
 10
0.765366
 20
137.801069
 30
0.0
  0
SPLINE
  5
126
100
AcDbEntity
  8
0
 62
7
100
AcDbSpline
 70
8
 71
3
 72
8
 73
4
 74
0
 40
0
 40
0
 40
0
 40
0
 40
1
 40
1
 40
1
 40
1
 10
0.765366
 20
137.801069
 30
0.0
 10
1.512715
 20
138.110630
 30
0.0
 10
1.999999
 20
138.839903
 30
0.0
 10
1.999999
 20
139.648827
 30
0.0
  0
SPLINE
  5
127
100
AcDbEntity
  8
0
 62
7
100
AcDbSpline
 70
8
 71
3
 72
8
 73
4
 74
0
 40
0
 40
0
 40
0
 40
0
 40
1
 40
1
 40
1
 40
1
 10
1.999999
 20
139.648827
 30
0.0
 10
1.999999
 20
140.179259
 30
0.0
 10
1.789285
 20
140.687967
 30
0.0
 10
1.414213
 20
141.063039
 30
0.0
  0
SPLINE
  5
128
100
AcDbEntity
  8
0
 62
7
100
AcDbSpline
 70
8
 71
3
 72
8
 73
4
 74
0
 40
0
 40
0
 40
0
 40
0
 40
1
 40
1
 40
1
 40
1
 10
1.414213
 20
141.063039
 30
0.0
 10
1.039140
 20
141.438112
 30
0.0
 10
0.530433
 20
141.648825
 30
0.0
 10
-0.000000
 20
141.648825
 30
0.0
  0
LWPOLYLINE
  5
129
100
AcDbEntity
  8
0
 62
7
100
AcDbPolyline
 90
2
 70
0
 10
-1.199999
 20
139.648827
 30
0.0
 10
1.199999
 20
139.648827
 30
0.0
  0
LWPOLYLINE
  5
12a
100
AcDbEntity
  8
0
 62
7
100
AcDbPolyline
 90
1
 70
1
 10
-0.000000
 20
141.648825
 30
0.0
  0
SPLINE
  5
12b
100
AcDbEntity
  8
0
 62
7
100
AcDbSpline
 70
8
 71
3
 72
8
 73
4
 74
0
 40
0
 40
0
 40
0
 40
0
 40
1
 40
1
 40
1
 40
1
 10
62.640412
 20
140.245596
 30
0.0
 10
62.644202
 20
139.847758
 30
0.0
 10
62.644202
 20
139.449893
 30
0.0
 10
62.640412
 20
139.052055
 30
0.0
  0
LWPOLYLINE
  5
12c
100
AcDbEntity
  8
0
 62
7
100
AcDbPolyline
 90
26
 70
0
 10
62.040321
 20
143.738280
 30
0.0
 10
61.601300
 20
143.526951
 30
0.0
 10
61.182650
 20
143.336108
 30
0.0
 10
60.782440
 20
143.163693
 30
0.0
 10
60.401117
 20
143.008803
 30
0.0
 10
60.042293
 20
142.871730
 30
0.0
 10
59.545748
 20
142.691947
 30
0.0
 10
59.492408
 20
142.658527
 30
0.0
 10
59.476058
 20
142.641612
 30
0.0
 10
59.466558
 20
142.624767
 30
0.0
 10
59.463958
 20
142.608112
 30
0.0
 10
59.471558
 20
142.454614
 30
0.0
 10
59.491598
 20
141.986260
 30
0.0
 10
59.508358
 20
141.517778
 30
0.0
 10
59.512758
 20
141.364153
 30
0.0
 10
59.516658
 20
141.347753
 30
0.0
 10
59.527428
 20
141.331703
 30
0.0
 10
59.545058
 20
141.316123
 30
0.0
 10
59.600858
 20
141.286991
 30
0.0
 10
60.109978
 20
141.146721
 30
0.0
 10
60.478450
 20
141.038224
 30
0.0
 10
60.870750
 20
140.913729
 30
0.0
 10
61.283254
 20
140.773246
 30
0.0
 10
61.715587
 20
140.615838
 30
0.0
 10
62.169835
 20
140.439606
 30
0.0
 10
62.640412
 20
140.245596
 30
0.0
  0
SPLINE
  5
12d
100
AcDbEntity
  8
0
 62
7
100
AcDbSpline
 70
8
 71
3
 72
8
 73
4
 74
0
 40
0
 40
0
 40
0
 40
0
 40
1
 40
1
 40
1
 40
1
 10
62.494225
 20
135.329038
 30
0.0
 10
62.466791
 20
134.932129
 30
0.0
 10
62.435576
 20
134.535490
 30
0.0
 10
62.400585
 20
134.139176
 30
0.0
  0
LWPOLYLINE
  5
12e
100
AcDbEntity
  8
0
 62
7
100
AcDbPolyline
 90
27
 70
0
 10
62.640412
 20
139.052055
 30
0.0
 10
62.169835
 20
138.858045
 30
0.0
 10
61.715587
 20
138.681813
 30
0.0
 10
61.283254
 20
138.524405
 30
0.0
 10
60.870750
 20
138.383921
 30
0.0
 10
60.478450
 20
138.259427
 30
0.0
 10
60.109978
 20
138.150930
 30
0.0
 10
59.600858
 20
138.010660
 30
0.0
 10
59.545058
 20
137.981528
 30
0.0
 10
59.527428
 20
137.965948
 30
0.0
 10
59.516658
 20
137.949898
 30
0.0
 10
59.512758
 20
137.933498
 30
0.0
 10
59.508358
 20
137.779873
 30
0.0
 10
59.491598
 20
137.311390
 30
0.0
 10
59.471558
 20
136.843036
 30
0.0
 10
59.463958
 20
136.689538
 30
0.0
 10
59.466558
 20
136.672883
 30
0.0
 10
59.476058
 20
136.656038
 30
0.0
 10
59.492408
 20
136.639123
 30
0.0
 10
59.545748
 20
136.605703
 30
0.0
 10
60.042293
 20
136.425921
 30
0.0
 10
60.401117
 20
136.288848
 30
0.0
 10
60.782440
 20
136.133958
 30
0.0
 10
61.182650
 20
135.961543
 30
0.0
 10
61.601300
 20
135.770699
 30
0.0
 10
62.040321
 20
135.559371
 30
0.0
 10
62.494225
 20
135.329038
 30
0.0
  0
SPLINE
  5
12f
100
AcDbEntity
  8
0
 62
7
100
AcDbSpline
 70
8
 71
3
 72
8
 73
4
 74
0
 40
0
 40
0
 40
0
 40
0
 40
1
 40
1
 40
1
 40
1
 10
61.962626
 20
130.439113
 30
0.0
 10
61.904133
 20
130.045581
 30
0.0
 10
61.841894
 20
129.652614
 30
0.0
 10
61.775915
 20
129.260267
 30
0.0
  0
LWPOLYLINE
  5
130
100
AcDbEntity
  8
0
 62
7
100
AcDbPolyline
 90
27
 70
0
 10
62.400585
 20
134.139176
 30
0.0
 10
61.916238
 20
133.982685
 30
0.0
 10
61.449562
 20
133.842636
 30
0.0
 10
61.006211
 20
133.719634
 30
0.0
 10
60.583957
 20
133.611948
 30
0.0
 10
60.183100
 20
133.518617
 30
0.0
 10
59.807250
 20
133.439364
 30
0.0
 10
59.288694
 20
133.339471
 30
0.0
 10
59.230784
 20
133.314807
 30
0.0
 10
59.211994
 20
133.300658
 30
0.0
 10
59.200004
 20
133.285503
 30
0.0
 10
59.194804
 20
133.269460
 30
0.0
 10
59.178344
 20
133.116657
 30
0.0
 10
59.124874
 20
132.650933
 30
0.0
 10
59.068144
 20
132.185596
 30
0.0
 10
59.048484
 20
132.033170
 30
0.0
 10
59.049784
 20
132.016363
 30
0.0
 10
59.057884
 20
131.998826
 30
0.0
 10
59.072854
 20
131.980680
 30
0.0
 10
59.123404
 20
131.943179
 30
0.0
 10
59.604312
 20
131.724992
 30
0.0
 10
59.951276
 20
131.560188
 30
0.0
 10
60.319271
 20
131.375857
 30
0.0
 10
60.704719
 20
131.172574
 30
0.0
 10
61.107105
 20
130.949472
 30
0.0
 10
61.528193
 20
130.704349
 30
0.0
 10
61.962626
 20
130.439113
 30
0.0
  0
SPLINE
  5
131
100
AcDbEntity
  8
0
 62
7
100
AcDbSpline
 70
8
 71
3
 72
8
 73
4
 74
0
 40
0
 40
0
 40
0
 40
0
 40
1
 40
1
 40
1
 40
1
 10
61.049015
 20
125.605978
 30
0.0
 10
60.959827
 20
125.218248
 30
0.0
 10
60.866947
 20
124.831376
 30
0.0
 10
60.770388
 20
124.445415
 30
0.0
  0
LWPOLYLINE
  5
132
100
AcDbEntity
  8
0
 62
7
100
AcDbPolyline
 90
27
 70
0
 10
61.775915
 20
129.260267
 30
0.0
 10
61.280782
 20
129.142260
 30
0.0
 10
60.804557
 20
129.039257
 30
0.0
 10
60.352923
 20
128.951417
 30
0.0
 10
59.923522
 20
128.877197
 30
0.0
 10
59.516577
 20
128.815607
 30
0.0
 10
59.135667
 20
128.766087
 30
0.0
 10
58.610873
 20
128.707187
 30
0.0
 10
58.551203
 20
128.687147
 30
0.0
 10
58.531363
 20
128.674517
 30
0.0
 10
58.518213
 20
128.660347
 30
0.0
 10
58.511813
 20
128.644757
 30
0.0
 10
58.483413
 20
128.493716
 30
0.0
 10
58.393563
 20
128.033624
 30
0.0
 10
58.300503
 20
127.574172
 30
0.0
 10
58.268943
 20
127.423759
 30
0.0
 10
58.268904
 20
127.406899
 30
0.0
 10
58.275604
 20
127.388779
 30
0.0
 10
58.289104
 20
127.369519
 30
0.0
 10
58.336554
 20
127.328169
 30
0.0
 10
58.798860
 20
127.072923
 30
0.0
 10
59.131824
 20
126.881405
 30
0.0
 10
59.484222
 20
126.668771
 30
0.0
 10
59.852533
 20
126.435872
 30
0.0
 10
60.236174
 20
126.181887
 30
0.0
 10
60.636731
 20
125.904482
 30
0.0
 10
61.049015
 20
125.605978
 30
0.0
  0
SPLINE
  5
133
100
AcDbEntity
  8
0
 62
7
100
AcDbSpline
 70
8
 71
3
 72
8
 73
4
 74
0
 40
0
 40
0
 40
0
 40
0
 40
1
 40
1
 40
1
 40
1
 10
59.759016
 20
120.859427
 30
0.0
 10
59.639682
 20
120.479889
 30
0.0
 10
59.516735
 20
120.101497
 30
0.0
 10
59.390191
 20
119.724302
 30
0.0
  0
LWPOLYLINE
  5
134
100
AcDbEntity
  8
0
 62
7
100
AcDbPolyline
 90
27
 70
0
 10
60.770388
 20
124.445415
 30
0.0
 10
60.267524
 20
124.366615
 30
0.0
 10
59.784685
 20
124.301295
 30
0.0
 10
59.327551
 20
124.249165
 30
0.0
 10
58.893650
 20
124.208855
 30
0.0
 10
58.483128
 20
124.179385
 30
0.0
 10
58.099507
 20
124.159905
 30
0.0
 10
57.571709
 20
124.142365
 30
0.0
 10
57.510649
 20
124.127065
 30
0.0
 10
57.489869
 20
124.116035
 30
0.0
 10
57.475649
 20
124.102945
 30
0.0
 10
57.468049
 20
124.087905
 30
0.0
 10
57.427879
 20
123.939558
 30
0.0
 10
57.302212
 20
123.487934
 30
0.0
 10
57.173387
 20
123.037200
 30
0.0
 10
57.130128
 20
122.889727
 30
0.0
 10
57.128728
 20
122.872927
 30
0.0
 10
57.134028
 20
122.854337
 30
0.0
 10
57.145978
 20
122.834077
 30
0.0
 10
57.190037
 20
122.789127
 30
0.0
 10
57.630892
 20
122.498395
 30
0.0
 10
57.947804
 20
122.281343
 30
0.0
 10
58.282432
 20
122.041715
 30
0.0
 10
58.631335
 20
121.780637
 30
0.0
 10
58.993865
 20
121.497335
 30
0.0
 10
59.371423
 20
121.189358
 30
0.0
 10
59.759016
 20
120.859427
 30
0.0
  0
SPLINE
  5
135
100
AcDbEntity
  8
0
 62
7
100
AcDbSpline
 70
8
 71
3
 72
8
 73
4
 74
0
 40
0
 40
0
 40
0
 40
0
 40
1
 40
1
 40
1
 40
1
 10
58.100537
 20
116.228679
 30
0.0
 10
57.951792
 20
115.859674
 30
0.0
 10
57.799536
 20
115.492095
 30
0.0
 10
57.643788
 20
115.125991
 30
0.0
  0
LWPOLYLINE
  5
136
100
AcDbEntity
  8
0
 62
7
100
AcDbPolyline
 90
27
 70
0
 10
59.390191
 20
119.724302
 30
0.0
 10
58.882693
 20
119.685202
 30
0.0
 10
58.396219
 20
119.657962
 30
0.0
 10
57.936404
 20
119.641852
 30
0.0
 10
57.500678
 20
119.635752
 30
0.0
 10
57.089109
 20
119.638552
 30
0.0
 10
56.705142
 20
119.649232
 30
0.0
 10
56.177595
 20
119.673152
 30
0.0
 10
56.115525
 20
119.662692
 30
0.0
 10
56.093945
 20
119.653292
 30
0.0
 10
56.078745
 20
119.641352
 30
0.0
 10
56.069945
 20
119.626962
 30
0.0
 10
56.018265
 20
119.482224
 30
0.0
 10
55.857551
 20
119.041851
 30
0.0
 10
55.693759
 20
118.602614
 30
0.0
 10
55.639059
 20
118.458990
 30
0.0
 10
55.636359
 20
118.442350
 30
0.0
 10
55.640159
 20
118.423400
 30
0.0
 10
55.650479
 20
118.402260
 30
0.0
 10
55.690879
 20
118.353990
 30
0.0
 10
56.107565
 20
118.029565
 30
0.0
 10
56.406471
 20
117.788318
 30
0.0
 10
56.721267
 20
117.523174
 30
0.0
 10
57.048609
 20
117.235525
 30
0.0
 10
57.387795
 20
116.924654
 30
0.0
 10
57.740025
 20
116.588003
 30
0.0
 10
58.100537
 20
116.228679
 30
0.0
  0
SPLINE
  5
137
100
AcDbEntity
  8
0
 62
7
100
AcDbSpline
 70
8
 71
3
 72
8
 73
4
 74
0
 40
0
 40
0
 40
0
 40
0
 40
1
 40
1
 40
1
 40
1
 10
56.083812
 20
111.742268
 30
0.0
 10
55.906574
 20
111.386071
 30
0.0
 10
55.725947
 20
111.031571
 30
0.0
 10
55.541956
 20
110.678816
 30
0.0
  0
LWPOLYLINE
  5
138
100
AcDbEntity
  8
0
 62
7
100
AcDbPolyline
 90
27
 70
0
 10
57.643788
 20
115.125991
 30
0.0
 10
57.134788
 20
115.126831
 30
0.0
 10
56.647676
 20
115.137851
 30
0.0
 10
56.188015
 20
115.157871
 30
0.0
 10
55.753150
 20
115.185941
 30
0.0
 10
55.343072
 20
115.221051
 30
0.0
 10
54.961126
 20
115.261821
 30
0.0
 10
54.437082
 20
115.327061
 30
0.0
 10
54.374382
 20
115.321461
 30
0.0
 10
54.352132
 20
115.313761
 30
0.0
 10
54.336042
 20
115.303051
 30
0.0
 10
54.326142
 20
115.289391
 30
0.0
 10
54.263262
 20
115.149154
 30
0.0
 10
54.068492
 20
114.722748
 30
0.0
 10
53.870744
 20
114.297715
 30
0.0
 10
53.804944
 20
114.158826
 30
0.0
 10
53.800944
 20
114.142446
 30
0.0
 10
53.803244
 20
114.123256
 30
0.0
 10
53.811844
 20
114.101376
 30
0.0
 10
53.848334
 20
114.050086
 30
0.0
 10
54.238280
 20
113.693970
 30
0.0
 10
54.517336
 20
113.430014
 30
0.0
 10
54.810358
 20
113.140988
 30
0.0
 10
55.114123
 20
112.828544
 30
0.0
 10
55.427873
 20
112.492017
 30
0.0
 10
55.752603
 20
112.128770
 30
0.0
 10
56.083812
 20
111.742268
 30
0.0
  0
SPLINE
  5
139
100
AcDbEntity
  8
0
 62
7
100
AcDbSpline
 70
8
 71
3
 72
8
 73
4
 74
0
 40
0
 40
0
 40
0
 40
0
 40
1
 40
1
 40
1
 40
1
 10
53.721453
 20
107.427979
 30
0.0
 10
53.516814
 20
107.086785
 30
0.0
 10
53.308930
 20
106.747550
 30
0.0
 10
53.097829
 20
106.410317
 30
0.0
  0
LWPOLYLINE
  5
13a
100
AcDbEntity
  8
0
 62
7
100
AcDbPolyline
 90
27
 70
0
 10
55.541956
 20
110.678816
 30
0.0
 10
55.034590
 20
110.719586
 30
0.0
 10
54.549844
 20
110.768785
 30
0.0
 10
54.093170
 20
110.824805
 30
0.0
 10
53.661850
 20
110.886905
 30
0.0
 10
53.255789
 20
110.954075
 30
0.0
 10
52.878219
 20
111.024685
 30
0.0
 10
52.360909
 20
111.130838
 30
0.0
 10
52.297970
 20
111.130213
 30
0.0
 10
52.275190
 20
111.124313
 30
0.0
 10
52.258310
 20
111.114913
 30
0.0
 10
52.247390
 20
111.102073
 30
0.0
 10
52.173700
 20
110.967201
 30
0.0
 10
51.946075
 20
110.557392
 30
0.0
 10
51.715588
 20
110.149185
 30
0.0
 10
51.639088
 20
110.015886
 30
0.0
 10
51.633888
 20
109.999866
 30
0.0
 10
51.634684
 20
109.980556
 30
0.0
 10
51.641584
 20
109.958066
 30
0.0
 10
51.673934
 20
109.904076
 30
0.0
 10
52.034739
 20
109.518462
 30
0.0
 10
52.292225
 20
109.233426
 30
0.0
 10
52.561666
 20
108.922301
 30
0.0
 10
52.839981
 20
108.586987
 30
0.0
 10
53.126360
 20
108.226881
 30
0.0
 10
53.421590
 20
107.839274
 30
0.0
 10
53.721453
 20
107.427979
 30
0.0
  0
SPLINE
  5
13b
100
AcDbEntity
  8
0
 62
7
100
AcDbSpline
 70
8
 71
3
 72
8
 73
4
 74
0
 40
0
 40
0
 40
0
 40
0
 40
1
 40
1
 40
1
 40
1
 10
51.027818
 20
103.312285
 30
0.0
 10
50.797041
 20
102.988200
 30
0.0
 10
50.563182
 20
102.666320
 30
0.0
 10
50.326273
 20
102.346691
 30
0.0
  0
LWPOLYLINE
  5
13c
100
AcDbEntity
  8
0
 62
7
100
AcDbPolyline
 90
27
 70
0
 10
53.097829
 20
106.410317
 30
0.0
 10
52.595226
 20
106.490777
 30
0.0
 10
52.115835
 20
106.577857
 30
0.0
 10
51.664965
 20
106.669537
 30
0.0
 10
51.239846
 20
106.765287
 30
0.0
 10
50.840307
 20
106.864117
 30
0.0
 10
50.469443
 20
106.964134
 30
0.0
 10
49.962056
 20
107.110549
 30
0.0
 10
49.899256
 20
107.114849
 30
0.0
 10
49.876086
 20
107.110749
 30
0.0
 10
49.858516
 20
107.102649
 30
0.0
 10
49.846626
 20
107.090699
 30
0.0
 10
49.762586
 20
106.962025
 30
0.0
 10
49.503510
 20
106.571337
 30
0.0
 10
49.241706
 20
106.182472
 30
0.0
 10
49.154986
 20
106.055586
 30
0.0
 10
49.148486
 20
106.040026
 30
0.0
 10
49.147764
 20
106.020716
 30
0.0
 10
49.152864
 20
105.997756
 30
0.0
 10
49.180884
 20
105.941396
 30
0.0
 10
49.510321
 20
105.528663
 30
0.0
 10
49.744650
 20
105.224303
 30
0.0
 10
49.988851
 20
104.892997
 30
0.0
 10
50.239999
 20
104.536880
 30
0.0
 10
50.497242
 20
104.155416
 30
0.0
 10
50.761150
 20
103.745841
 30
0.0
 10
51.027818
 20
103.312285
 30
0.0
  0
SPLINE
  5
13d
100
AcDbEntity
  8
0
 62
7
100
AcDbSpline
 70
8
 71
3
 72
8
 73
4
 74
0
 40
0
 40
0
 40
0
 40
0
 40
1
 40
1
 40
1
 40
1
 10
48.019629
 20
99.420658
 30
0.0
 10
47.764186
 20
99.115747
 30
0.0
 10
47.505845
 20
98.813276
 30
0.0
 10
47.244641
 20
98.513286
 30
0.0
  0
LWPOLYLINE
  5
13e
100
AcDbEntity
  8
0
 62
7
100
AcDbPolyline
 90
27
 70
0
 10
50.326273
 20
102.346691
 30
0.0
 10
49.831532
 20
102.466331
 30
0.0
 10
49.360450
 20
102.590757
 30
0.0
 10
48.918164
 20
102.717530
 30
0.0
 10
48.501867
 20
102.846339
 30
0.0
 10
48.111314
 20
102.976210
 30
0.0
 10
47.749439
 20
103.105017
 30
0.0
 10
47.255105
 20
103.290789
 30
0.0
 10
47.192845
 20
103.299989
 30
0.0
 10
47.169425
 20
103.297789
 30
0.0
 10
47.151275
 20
103.291089
 30
0.0
 10
47.138485
 20
103.280109
 30
0.0
 10
47.044605
 20
103.158425
 30
0.0
 10
46.755674
 20
102.789269
 30
0.0
 10
46.464167
 20
102.422144
 30
0.0
 10
46.367757
 20
102.302454
 30
0.0
 10
46.360057
 20
102.287454
 30
0.0
 10
46.357857
 20
102.268254
 30
0.0
 10
46.361157
 20
102.244964
 30
0.0
 10
46.384667
 20
102.186574
 30
0.0
 10
46.680706
 20
101.749265
 30
0.0
 10
46.890432
 20
101.427458
 30
0.0
 10
47.107887
 20
101.078013
 30
0.0
 10
47.330320
 20
100.703290
 30
0.0
 10
47.556839
 20
100.302818
 30
0.0
 10
47.787799
 20
99.873799
 30
0.0
 10
48.019629
 20
99.420658
 30
0.0
  0
SPLINE
  5
13f
100
AcDbEntity
  8
0
 62
7
100
AcDbSpline
 70
8
 71
3
 72
8
 73
4
 74
0
 40
0
 40
0
 40
0
 40
0
 40
1
 40
1
 40
1
 40
1
 10
44.715532
 20
95.777338
 30
0.0
 10
44.436899
 20
95.493344
 30
0.0
 10
44.155566
 20
95.212011
 30
0.0
 10
43.871572
 20
94.933377
 30
0.0
  0
LWPOLYLINE
  5
140
100
AcDbEntity
  8
0
 62
7
100
AcDbPolyline
 90
27
 70
0
 10
47.244641
 20
98.513286
 30
0.0
 10
46.760812
 20
98.671375
 30
0.0
 10
46.300945
 20
98.832378
 30
0.0
 10
45.869969
 20
98.993462
 30
0.0
 10
45.465062
 20
99.154537
 30
0.0
 10
45.085902
 20
99.314649
 30
0.0
 10
44.735249
 20
99.471451
 30
0.0
 10
44.257014
 20
99.695435
 30
0.0
 10
44.195664
 20
99.709515
 30
0.0
 10
44.172144
 20
99.709115
 30
0.0
 10
44.153534
 20
99.703915
 30
0.0
 10
44.139924
 20
99.694015
 30
0.0
 10
44.036788
 20
99.580072
 30
0.0
 10
43.719784
 20
99.234724
 30
0.0
 10
43.400372
 20
98.891601
 30
0.0
 10
43.294871
 20
98.779844
 30
0.0
 10
43.286071
 20
98.765494
 30
0.0
 10
43.282371
 20
98.746534
 30
0.0
 10
43.283771
 20
98.723054
 30
0.0
 10
43.302621
 20
98.663004
 30
0.0
 10
43.563437
 20
98.203817
 30
0.0
 10
43.747268
 20
97.866547
 30
0.0
 10
43.936635
 20
97.501119
 30
0.0
 10
44.128982
 20
97.110098
 30
0.0
 10
44.323383
 20
96.693088
 30
0.0
 10
44.519970
 20
96.247271
 30
0.0
 10
44.715532
 20
95.777338
 30
0.0
  0
SPLINE
  5
141
100
AcDbEntity
  8
0
 62
7
100
AcDbSpline
 70
8
 71
3
 72
8
 73
4
 74
0
 40
0
 40
0
 40
0
 40
0
 40
1
 40
1
 40
1
 40
1
 10
41.135595
 20
92.404214
 30
0.0
 10
40.835539
 20
92.142957
 30
0.0
 10
40.533000
 20
91.884564
 30
0.0
 10
40.228020
 20
91.629071
 30
0.0
  0
LWPOLYLINE
  5
142
100
AcDbEntity
  8
0
 62
7
100
AcDbPolyline
 90
27
 70
0
 10
43.871572
 20
94.933377
 30
0.0
 10
43.401610
 20
95.128884
 30
0.0
 10
42.955793
 20
95.325471
 30
0.0
 10
42.538784
 20
95.519873
 30
0.0
 10
42.147763
 20
95.712220
 30
0.0
 10
41.782334
 20
95.901587
 30
0.0
 10
41.445064
 20
96.085418
 30
0.0
 10
40.985878
 20
96.346233
 30
0.0
 10
40.925828
 20
96.365083
 30
0.0
 10
40.902348
 20
96.366483
 30
0.0
 10
40.883388
 20
96.362783
 30
0.0
 10
40.869038
 20
96.353983
 30
0.0
 10
40.757281
 20
96.248482
 30
0.0
 10
40.414158
 20
95.929071
 30
0.0
 10
40.068809
 20
95.612067
 30
0.0
 10
39.954866
 20
95.508931
 30
0.0
 10
39.944966
 20
95.495321
 30
0.0
 10
39.939766
 20
95.476711
 30
0.0
 10
39.939366
 20
95.453191
 30
0.0
 10
39.953446
 20
95.391841
 30
0.0
 10
40.177430
 20
94.913605
 30
0.0
 10
40.334233
 20
94.562953
 30
0.0
 10
40.494345
 20
94.183793
 30
0.0
 10
40.655420
 20
93.778886
 30
0.0
 10
40.816504
 20
93.347909
 30
0.0
 10
40.977507
 20
92.888043
 30
0.0
 10
41.135595
 20
92.404214
 30
0.0
  0
SPLINE
  5
143
100
AcDbEntity
  8
0
 62
7
100
AcDbSpline
 70
8
 71
3
 72
8
 73
4
 74
0
 40
0
 40
0
 40
0
 40
0
 40
1
 40
1
 40
1
 40
1
 10
37.301987
 20
89.322428
 30
0.0
 10
36.982357
 20
89.085518
 30
0.0
 10
36.660478
 20
88.851659
 30
0.0
 10
36.336392
 20
88.620882
 30
0.0
  0
LWPOLYLINE
  5
144
100
AcDbEntity
  8
0
 62
7
100
AcDbPolyline
 90
27
 70
0
 10
40.228020
 20
91.629071
 30
0.0
 10
39.774878
 20
91.860901
 30
0.0
 10
39.345860
 20
92.091861
 30
0.0
 10
38.945388
 20
92.318381
 30
0.0
 10
38.570664
 20
92.540814
 30
0.0
 10
38.221219
 20
92.758269
 30
0.0
 10
37.899412
 20
92.967995
 30
0.0
 10
37.462104
 20
93.264033
 30
0.0
 10
37.403714
 20
93.287543
 30
0.0
 10
37.380424
 20
93.290843
 30
0.0
 10
37.361224
 20
93.288643
 30
0.0
 10
37.346224
 20
93.280943
 30
0.0
 10
37.226534
 20
93.184533
 30
0.0
 10
36.859408
 20
92.893027
 30
0.0
 10
36.490252
 20
92.604096
 30
0.0
 10
36.368568
 20
92.510216
 30
0.0
 10
36.357588
 20
92.497426
 30
0.0
 10
36.350888
 20
92.479276
 30
0.0
 10
36.348688
 20
92.455856
 30
0.0
 10
36.357888
 20
92.393596
 30
0.0
 10
36.543660
 20
91.899261
 30
0.0
 10
36.672467
 20
91.537386
 30
0.0
 10
36.802338
 20
91.146834
 30
0.0
 10
36.931147
 20
90.730537
 30
0.0
 10
37.057921
 20
90.288250
 30
0.0
 10
37.182347
 20
89.817168
 30
0.0
 10
37.301987
 20
89.322428
 30
0.0
  0
SPLINE
  5
145
100
AcDbEntity
  8
0
 62
7
100
AcDbSpline
 70
8
 71
3
 72
8
 73
4
 74
0
 40
0
 40
0
 40
0
 40
0
 40
1
 40
1
 40
1
 40
1
 10
33.238360
 20
86.550872
 30
0.0
 10
32.901128
 20
86.339770
 30
0.0
 10
32.561892
 20
86.131886
 30
0.0
 10
32.220699
 20
85.927248
 30
0.0
  0
LWPOLYLINE
  5
146
100
AcDbEntity
  8
0
 62
7
100
AcDbPolyline
 90
27
 70
0
 10
36.336392
 20
88.620882
 30
0.0
 10
35.902837
 20
88.887550
 30
0.0
 10
35.493262
 20
89.151459
 30
0.0
 10
35.111797
 20
89.408702
 30
0.0
 10
34.755680
 20
89.659850
 30
0.0
 10
34.424375
 20
89.904050
 30
0.0
 10
34.120015
 20
90.138379
 30
0.0
 10
33.707281
 20
90.467816
 30
0.0
 10
33.650921
 20
90.495836
 30
0.0
 10
33.627961
 20
90.500936
 30
0.0
 10
33.608651
 20
90.500214
 30
0.0
 10
33.593091
 20
90.493714
 30
0.0
 10
33.466205
 20
90.406994
 30
0.0
 10
33.077340
 20
90.145190
 30
0.0
 10
32.686653
 20
89.886114
 30
0.0
 10
32.557979
 20
89.802074
 30
0.0
 10
32.546029
 20
89.790184
 30
0.0
 10
32.537929
 20
89.772615
 30
0.0
 10
32.533829
 20
89.749445
 30
0.0
 10
32.538129
 20
89.686645
 30
0.0
 10
32.684544
 20
89.179258
 30
0.0
 10
32.784561
 20
88.808393
 30
0.0
 10
32.883391
 20
88.408854
 30
0.0
 10
32.979141
 20
87.983736
 30
0.0
 10
33.070820
 20
87.532866
 30
0.0
 10
33.157900
 20
87.053474
 30
0.0
 10
33.238360
 20
86.550872
 30
0.0
  0
SPLINE
  5
147
100
AcDbEntity
  8
0
 62
7
100
AcDbSpline
 70
8
 71
3
 72
8
 73
4
 74
0
 40
0
 40
0
 40
0
 40
0
 40
1
 40
1
 40
1
 40
1
 10
28.969862
 20
84.106745
 30
0.0
 10
28.617107
 20
83.922753
 30
0.0
 10
28.262606
 20
83.742126
 30
0.0
 10
27.906410
 20
83.564888
 30
0.0
  0
LWPOLYLINE
  5
148
100
AcDbEntity
  8
0
 62
7
100
AcDbPolyline
 90
27
 70
0
 10
32.220699
 20
85.927248
 30
0.0
 10
31.809403
 20
86.227111
 30
0.0
 10
31.421796
 20
86.522341
 30
0.0
 10
31.061691
 20
86.808719
 30
0.0
 10
30.726377
 20
87.087034
 30
0.0
 10
30.415251
 20
87.356476
 30
0.0
 10
30.130215
 20
87.613962
 30
0.0
 10
29.744602
 20
87.974767
 30
0.0
 10
29.690612
 20
88.007117
 30
0.0
 10
29.668122
 20
88.014017
 30
0.0
 10
29.648812
 20
88.014813
 30
0.0
 10
29.632792
 20
88.009613
 30
0.0
 10
29.499493
 20
87.933113
 30
0.0
 10
29.091286
 20
87.702626
 30
0.0
 10
28.681476
 20
87.475001
 30
0.0
 10
28.546604
 20
87.401311
 30
0.0
 10
28.533764
 20
87.390391
 30
0.0
 10
28.524364
 20
87.373511
 30
0.0
 10
28.518464
 20
87.350731
 30
0.0
 10
28.517839
 20
87.287791
 30
0.0
 10
28.623992
 20
86.770481
 30
0.0
 10
28.694602
 20
86.392912
 30
0.0
 10
28.761772
 20
85.986851
 30
0.0
 10
28.823872
 20
85.555530
 30
0.0
 10
28.879892
 20
85.098856
 30
0.0
 10
28.929092
 20
84.614111
 30
0.0
 10
28.969862
 20
84.106745
 30
0.0
  0
SPLINE
  5
149
100
AcDbEntity
  8
0
 62
7
100
AcDbSpline
 70
8
 71
3
 72
8
 73
4
 74
0
 40
0
 40
0
 40
0
 40
0
 40
1
 40
1
 40
1
 40
1
 10
24.522687
 20
82.004912
 30
0.0
 10
24.156583
 20
81.849165
 30
0.0
 10
23.789003
 20
81.696908
 30
0.0
 10
23.419998
 20
81.548164
 30
0.0
  0
LWPOLYLINE
  5
14a
100
AcDbEntity
  8
0
 62
7
100
AcDbPolyline
 90
27
 70
0
 10
27.906410
 20
83.564888
 30
0.0
 10
27.519908
 20
83.896097
 30
0.0
 10
27.156660
 20
84.220828
 30
0.0
 10
26.820133
 20
84.534578
 30
0.0
 10
26.507690
 20
84.838343
 30
0.0
 10
26.218664
 20
85.131364
 30
0.0
 10
25.954708
 20
85.410420
 30
0.0
 10
25.598591
 20
85.800367
 30
0.0
 10
25.547301
 20
85.836857
 30
0.0
 10
25.525421
 20
85.845457
 30
0.0
 10
25.506231
 20
85.847757
 30
0.0
 10
25.489851
 20
85.843757
 30
0.0
 10
25.350962
 20
85.777957
 30
0.0
 10
24.925930
 20
85.580208
 30
0.0
 10
24.499524
 20
85.385438
 30
0.0
 10
24.359287
 20
85.322558
 30
0.0
 10
24.345627
 20
85.312658
 30
0.0
 10
24.334917
 20
85.296568
 30
0.0
 10
24.327217
 20
85.274318
 30
0.0
 10
24.321617
 20
85.211618
 30
0.0
 10
24.386857
 20
84.687575
 30
0.0
 10
24.427627
 20
84.305629
 30
0.0
 10
24.462737
 20
83.895550
 30
0.0
 10
24.490807
 20
83.460685
 30
0.0
 10
24.510827
 20
83.001025
 30
0.0
 10
24.521847
 20
82.513913
 30
0.0
 10
24.522687
 20
82.004912
 30
0.0
  0
SPLINE
  5
14b
100
AcDbEntity
  8
0
 62
7
100
AcDbSpline
 70
8
 71
3
 72
8
 73
4
 74
0
 40
0
 40
0
 40
0
 40
0
 40
1
 40
1
 40
1
 40
1
 10
19.924376
 20
80.258509
 30
0.0
 10
19.547180
 20
80.131966
 30
0.0
 10
19.168788
 20
80.009019
 30
0.0
 10
18.789250
 20
79.889685
 30
0.0
  0
LWPOLYLINE
  5
14c
100
AcDbEntity
  8
0
 62
7
100
AcDbPolyline
 90
27
 70
0
 10
23.419998
 20
81.548164
 30
0.0
 10
23.060675
 20
81.908675
 30
0.0
 10
22.724024
 20
82.260905
 30
0.0
 10
22.413152
 20
82.600092
 30
0.0
 10
22.125503
 20
82.927434
 30
0.0
 10
21.860359
 20
83.242230
 30
0.0
 10
21.619113
 20
83.541135
 30
0.0
 10
21.294688
 20
83.957821
 30
0.0
 10
21.246418
 20
83.998221
 30
0.0
 10
21.225278
 20
84.008541
 30
0.0
 10
21.206328
 20
84.012341
 30
0.0
 10
21.189688
 20
84.009641
 30
0.0
 10
21.046064
 20
83.954941
 30
0.0
 10
20.606826
 20
83.791149
 30
0.0
 10
20.166453
 20
83.630435
 30
0.0
 10
20.021716
 20
83.578755
 30
0.0
 10
20.007326
 20
83.569955
 30
0.0
 10
19.995386
 20
83.554755
 30
0.0
 10
19.985986
 20
83.533175
 30
0.0
 10
19.975526
 20
83.471105
 30
0.0
 10
19.999446
 20
82.943559
 30
0.0
 10
20.010126
 20
82.559592
 30
0.0
 10
20.012926
 20
82.148022
 30
0.0
 10
20.006826
 20
81.712297
 30
0.0
 10
19.990716
 20
81.252482
 30
0.0
 10
19.963476
 20
80.766007
 30
0.0
 10
19.924376
 20
80.258509
 30
0.0
  0
SPLINE
  5
14d
100
AcDbEntity
  8
0
 62
7
100
AcDbSpline
 70
8
 71
3
 72
8
 73
4
 74
0
 40
0
 40
0
 40
0
 40
0
 40
1
 40
1
 40
1
 40
1
 10
15.203263
 20
78.878312
 30
0.0
 10
14.817302
 20
78.781753
 30
0.0
 10
14.430430
 20
78.688874
 30
0.0
 10
14.042699
 20
78.599685
 30
0.0
  0
LWPOLYLINE
  5
14e
100
AcDbEntity
  8
0
 62
7
100
AcDbPolyline
 90
27
 70
0
 10
18.789250
 20
79.889685
 30
0.0
 10
18.459320
 20
80.277277
 30
0.0
 10
18.151343
 20
80.654835
 30
0.0
 10
17.868041
 20
81.017366
 30
0.0
 10
17.606962
 20
81.366269
 30
0.0
 10
17.367334
 20
81.700897
 30
0.0
 10
17.150282
 20
82.017808
 30
0.0
 10
16.859551
 20
82.458663
 30
0.0
 10
16.814601
 20
82.502723
 30
0.0
 10
16.794341
 20
82.514673
 30
0.0
 10
16.775751
 20
82.519973
 30
0.0
 10
16.758951
 20
82.518573
 30
0.0
 10
16.611478
 20
82.475313
 30
0.0
 10
16.160744
 20
82.346488
 30
0.0
 10
15.709119
 20
82.220821
 30
0.0
 10
15.560772
 20
82.180651
 30
0.0
 10
15.545732
 20
82.173051
 30
0.0
 10
15.532642
 20
82.158831
 30
0.0
 10
15.521612
 20
82.138051
 30
0.0
 10
15.506312
 20
82.076991
 30
0.0
 10
15.488772
 20
81.549194
 30
0.0
 10
15.469292
 20
81.165573
 30
0.0
 10
15.439822
 20
80.755050
 30
0.0
 10
15.399512
 20
80.321149
 30
0.0
 10
15.347382
 20
79.864016
 30
0.0
 10
15.282063
 20
79.381177
 30
0.0
 10
15.203263
 20
78.878312
 30
0.0
  0
SPLINE
  5
14f
100
AcDbEntity
  8
0
 62
7
100
AcDbSpline
 70
8
 71
3
 72
8
 73
4
 74
0
 40
0
 40
0
 40
0
 40
0
 40
1
 40
1
 40
1
 40
1
 10
10.388565
 20
77.872873
 30
0.0
 10
9.996215
 20
77.806899
 30
0.0
 10
9.603246
 20
77.744664
 30
0.0
 10
9.209710
 20
77.686177
 30
0.0
  0
LWPOLYLINE
  5
150
100
AcDbEntity
  8
0
 62
7
100
AcDbPolyline
 90
27
 70
0
 10
14.042699
 20
78.599685
 30
0.0
 10
13.744349
 20
79.012056
 30
0.0
 10
13.466945
 20
79.412614
 30
0.0
 10
13.212960
 20
79.796255
 30
0.0
 10
12.980061
 20
80.164565
 30
0.0
 10
12.767426
 20
80.516963
 30
0.0
 10
12.575908
 20
80.849927
 30
0.0
 10
12.320662
 20
81.312234
 30
0.0
 10
12.279312
 20
81.359684
 30
0.0
 10
12.260052
 20
81.373184
 30
0.0
 10
12.241932
 20
81.379884
 30
0.0
 10
12.225072
 20
81.379845
 30
0.0
 10
12.074660
 20
81.348285
 30
0.0
 10
11.615208
 20
81.255225
 30
0.0
 10
11.155115
 20
81.165375
 30
0.0
 10
11.004074
 20
81.136975
 30
0.0
 10
10.988484
 20
81.130575
 30
0.0
 10
10.974314
 20
81.117425
 30
0.0
 10
10.961684
 20
81.097585
 30
0.0
 10
10.941644
 20
81.037915
 30
0.0
 10
10.882744
 20
80.513120
 30
0.0
 10
10.833224
 20
80.132210
 30
0.0
 10
10.771634
 20
79.725266
 30
0.0
 10
10.697414
 20
79.295865
 30
0.0
 10
10.609574
 20
78.844230
 30
0.0
 10
10.506571
 20
78.368006
 30
0.0
 10
10.388565
 20
77.872873
 30
0.0
  0
SPLINE
  5
151
100
AcDbEntity
  8
0
 62
7
100
AcDbSpline
 70
8
 71
3
 72
8
 73
4
 74
0
 40
0
 40
0
 40
0
 40
0
 40
1
 40
1
 40
1
 40
1
 10
5.509648
 20
77.248217
 30
0.0
 10
5.113334
 20
77.213226
 30
0.0
 10
4.716695
 20
77.182011
 30
0.0
 10
4.319786
 20
77.154577
 30
0.0
  0
LWPOLYLINE
  5
152
100
AcDbEntity
  8
0
 62
7
100
AcDbPolyline
 90
27
 70
0
 10
9.209710
 20
77.686177
 30
0.0
 10
8.944474
 20
78.120610
 30
0.0
 10
8.699352
 20
78.541697
 30
0.0
 10
8.476250
 20
78.944083
 30
0.0
 10
8.272967
 20
79.329532
 30
0.0
 10
8.088636
 20
79.697527
 30
0.0
 10
7.923832
 20
80.044491
 30
0.0
 10
7.705645
 20
80.525398
 30
0.0
 10
7.668143
 20
80.575948
 30
0.0
 10
7.649997
 20
80.590918
 30
0.0
 10
7.632460
 20
80.599018
 30
0.0
 10
7.615653
 20
80.600318
 30
0.0
 10
7.463228
 20
80.580658
 30
0.0
 10
6.997890
 20
80.523928
 30
0.0
 10
6.532167
 20
80.470458
 30
0.0
 10
6.379363
 20
80.453998
 30
0.0
 10
6.363320
 20
80.448798
 30
0.0
 10
6.348165
 20
80.436808
 30
0.0
 10
6.334016
 20
80.418018
 30
0.0
 10
6.309352
 20
80.360108
 30
0.0
 10
6.209460
 20
79.841553
 30
0.0
 10
6.130207
 20
79.465703
 30
0.0
 10
6.036876
 20
79.064845
 30
0.0
 10
5.929190
 20
78.642591
 30
0.0
 10
5.806188
 20
78.199241
 30
0.0
 10
5.666139
 20
77.732565
 30
0.0
 10
5.509648
 20
77.248217
 30
0.0
  0
SPLINE
  5
153
100
AcDbEntity
  8
0
 62
7
100
AcDbSpline
 70
8
 71
3
 72
8
 73
4
 74
0
 40
0
 40
0
 40
0
 40
0
 40
1
 40
1
 40
1
 40
1
 10
0.596769
 20
77.008414
 30
0.0
 10
0.198931
 20
77.004624
 30
0.0
 10
-0.198934
 20
77.004624
 30
0.0
 10
-0.596772
 20
77.008414
 30
0.0
  0
LWPOLYLINE
  5
154
100
AcDbEntity
  8
0
 62
7
100
AcDbPolyline
 90
27
 70
0
 10
4.319786
 20
77.154577
 30
0.0
 10
4.089453
 20
77.608505
 30
0.0
 10
3.878125
 20
78.047527
 30
0.0
 10
3.687282
 20
78.466177
 30
0.0
 10
3.514867
 20
78.866386
 30
0.0
 10
3.359977
 20
79.247709
 30
0.0
 10
3.222903
 20
79.606534
 30
0.0
 10
3.043121
 20
80.103079
 30
0.0
 10
3.009701
 20
80.156418
 30
0.0
 10
2.992786
 20
80.172768
 30
0.0
 10
2.975941
 20
80.182268
 30
0.0
 10
2.959286
 20
80.184868
 30
0.0
 10
2.805788
 20
80.177268
 30
0.0
 10
2.337434
 20
80.157228
 30
0.0
 10
1.868951
 20
80.140468
 30
0.0
 10
1.715326
 20
80.136068
 30
0.0
 10
1.698926
 20
80.132168
 30
0.0
 10
1.682876
 20
80.121399
 30
0.0
 10
1.667296
 20
80.103769
 30
0.0
 10
1.638164
 20
80.047969
 30
0.0
 10
1.497894
 20
79.538849
 30
0.0
 10
1.389397
 20
79.170376
 30
0.0
 10
1.264903
 20
78.778076
 30
0.0
 10
1.124419
 20
78.365573
 30
0.0
 10
0.967011
 20
77.933240
 30
0.0
 10
0.790779
 20
77.478991
 30
0.0
 10
0.596769
 20
77.008414
 30
0.0
  0
SPLINE
  5
155
100
AcDbEntity
  8
0
 62
7
100
AcDbSpline
 70
8
 71
3
 72
8
 73
4
 74
0
 40
0
 40
0
 40
0
 40
0
 40
1
 40
1
 40
1
 40
1
 10
-4.319789
 20
77.154601
 30
0.0
 10
-4.716698
 20
77.182035
 30
0.0
 10
-5.113336
 20
77.213250
 30
0.0
 10
-5.509650
 20
77.248241
 30
0.0
  0
LWPOLYLINE
  5
156
100
AcDbEntity
  8
0
 62
7
100
AcDbPolyline
 90
27
 70
0
 10
-0.596772
 20
77.008414
 30
0.0
 10
-0.790782
 20
77.478991
 30
0.0
 10
-0.967014
 20
77.933240
 30
0.0
 10
-1.124422
 20
78.365573
 30
0.0
 10
-1.264905
 20
78.778076
 30
0.0
 10
-1.389399
 20
79.170376
 30
0.0
 10
-1.497897
 20
79.538849
 30
0.0
 10
-1.638167
 20
80.047969
 30
0.0
 10
-1.667299
 20
80.103769
 30
0.0
 10
-1.682879
 20
80.121399
 30
0.0
 10
-1.698929
 20
80.132168
 30
0.0
 10
-1.715329
 20
80.136068
 30
0.0
 10
-1.868953
 20
80.140468
 30
0.0
 10
-2.337436
 20
80.157228
 30
0.0
 10
-2.805790
 20
80.177268
 30
0.0
 10
-2.959288
 20
80.184868
 30
0.0
 10
-2.975943
 20
80.182268
 30
0.0
 10
-2.992788
 20
80.172768
 30
0.0
 10
-3.009703
 20
80.156418
 30
0.0
 10
-3.043123
 20
80.103079
 30
0.0
 10
-3.222906
 20
79.606534
 30
0.0
 10
-3.359979
 20
79.247709
 30
0.0
 10
-3.514869
 20
78.866386
 30
0.0
 10
-3.687284
 20
78.466177
 30
0.0
 10
-3.878127
 20
78.047527
 30
0.0
 10
-4.089456
 20
77.608505
 30
0.0
 10
-4.319789
 20
77.154601
 30
0.0
  0
SPLINE
  5
157
100
AcDbEntity
  8
0
 62
7
100
AcDbSpline
 70
8
 71
3
 72
8
 73
4
 74
0
 40
0
 40
0
 40
0
 40
0
 40
1
 40
1
 40
1
 40
1
 10
-9.209713
 20
77.686201
 30
0.0
 10
-9.603246
 20
77.744693
 30
0.0
 10
-9.996213
 20
77.806933
 30
0.0
 10
-10.388560
 20
77.872912
 30
0.0
  0
LWPOLYLINE
  5
158
100
AcDbEntity
  8
0
 62
7
100
AcDbPolyline
 90
27
 70
0
 10
-5.509650
 20
77.248241
 30
0.0
 10
-5.666141
 20
77.732589
 30
0.0
 10
-5.806190
 20
78.199265
 30
0.0
 10
-5.929193
 20
78.642615
 30
0.0
 10
-6.036878
 20
79.064869
 30
0.0
 10
-6.130209
 20
79.465727
 30
0.0
 10
-6.209462
 20
79.841577
 30
0.0
 10
-6.309355
 20
80.360132
 30
0.0
 10
-6.334019
 20
80.418042
 30
0.0
 10
-6.348168
 20
80.436832
 30
0.0
 10
-6.363323
 20
80.448822
 30
0.0
 10
-6.379366
 20
80.454022
 30
0.0
 10
-6.532170
 20
80.470482
 30
0.0
 10
-6.997893
 20
80.523952
 30
0.0
 10
-7.463231
 20
80.580682
 30
0.0
 10
-7.615656
 20
80.600342
 30
0.0
 10
-7.632463
 20
80.599042
 30
0.0
 10
-7.650000
 20
80.590942
 30
0.0
 10
-7.668146
 20
80.575972
 30
0.0
 10
-7.705648
 20
80.525422
 30
0.0
 10
-7.923835
 20
80.044515
 30
0.0
 10
-8.088638
 20
79.697551
 30
0.0
 10
-8.272969
 20
79.329556
 30
0.0
 10
-8.476253
 20
78.944107
 30
0.0
 10
-8.699355
 20
78.541721
 30
0.0
 10
-8.944477
 20
78.120634
 30
0.0
 10
-9.209713
 20
77.686201
 30
0.0
  0
SPLINE
  5
159
100
AcDbEntity
  8
0
 62
7
100
AcDbSpline
 70
8
 71
3
 72
8
 73
4
 74
0
 40
0
 40
0
 40
0
 40
0
 40
1
 40
1
 40
1
 40
1
 10
-14.042848
 20
78.599811
 30
0.0
 10
-14.430579
 20
78.689000
 30
0.0
 10
-14.817451
 20
78.781879
 30
0.0
 10
-15.203412
 20
78.878438
 30
0.0
  0
LWPOLYLINE
  5
15a
100
AcDbEntity
  8
0
 62
7
100
AcDbPolyline
 90
27
 70
0
 10
-10.388560
 20
77.872912
 30
0.0
 10
-10.506566
 20
78.368045
 30
0.0
 10
-10.609569
 20
78.844269
 30
0.0
 10
-10.697409
 20
79.295904
 30
0.0
 10
-10.771629
 20
79.725305
 30
0.0
 10
-10.833219
 20
80.132249
 30
0.0
 10
-10.882739
 20
80.513159
 30
0.0
 10
-10.941639
 20
81.037954
 30
0.0
 10
-10.961679
 20
81.097624
 30
0.0
 10
-10.974309
 20
81.117464
 30
0.0
 10
-10.988479
 20
81.130614
 30
0.0
 10
-11.004069
 20
81.137014
 30
0.0
 10
-11.155110
 20
81.165414
 30
0.0
 10
-11.615203
 20
81.255264
 30
0.0
 10
-12.074655
 20
81.348324
 30
0.0
 10
-12.225067
 20
81.379884
 30
0.0
 10
-12.241927
 20
81.379923
 30
0.0
 10
-12.260047
 20
81.373223
 30
0.0
 10
-12.279307
 20
81.359723
 30
0.0
 10
-12.320657
 20
81.312273
 30
0.0
 10
-12.575903
 20
80.849966
 30
0.0
 10
-12.767421
 20
80.517002
 30
0.0
 10
-12.980056
 20
80.164604
 30
0.0
 10
-13.212955
 20
79.796294
 30
0.0
 10
-13.466940
 20
79.412653
 30
0.0
 10
-13.744344
 20
79.012095
 30
0.0
 10
-14.042848
 20
78.599811
 30
0.0
  0
SPLINE
  5
15b
100
AcDbEntity
  8
0
 62
7
100
AcDbSpline
 70
8
 71
3
 72
8
 73
4
 74
0
 40
0
 40
0
 40
0
 40
0
 40
1
 40
1
 40
1
 40
1
 10
-18.789399
 20
79.889811
 30
0.0
 10
-19.168937
 20
80.009145
 30
0.0
 10
-19.547329
 20
80.132092
 30
0.0
 10
-19.924525
 20
80.258635
 30
0.0
  0
LWPOLYLINE
  5
15c
100
AcDbEntity
  8
0
 62
7
100
AcDbPolyline
 90
27
 70
0
 10
-15.203412
 20
78.878438
 30
0.0
 10
-15.282212
 20
79.381303
 30
0.0
 10
-15.347531
 20
79.864142
 30
0.0
 10
-15.399661
 20
80.321275
 30
0.0
 10
-15.439971
 20
80.755176
 30
0.0
 10
-15.469441
 20
81.165699
 30
0.0
 10
-15.488921
 20
81.549320
 30
0.0
 10
-15.506461
 20
82.077117
 30
0.0
 10
-15.521761
 20
82.138177
 30
0.0
 10
-15.532791
 20
82.158957
 30
0.0
 10
-15.545881
 20
82.173177
 30
0.0
 10
-15.560921
 20
82.180777
 30
0.0
 10
-15.709268
 20
82.220947
 30
0.0
 10
-16.160893
 20
82.346614
 30
0.0
 10
-16.611627
 20
82.475439
 30
0.0
 10
-16.759100
 20
82.518699
 30
0.0
 10
-16.775900
 20
82.520099
 30
0.0
 10
-16.794490
 20
82.514799
 30
0.0
 10
-16.814750
 20
82.502849
 30
0.0
 10
-16.859700
 20
82.458789
 30
0.0
 10
-17.150431
 20
82.017934
 30
0.0
 10
-17.367483
 20
81.701023
 30
0.0
 10
-17.607111
 20
81.366395
 30
0.0
 10
-17.868190
 20
81.017492
 30
0.0
 10
-18.151492
 20
80.654961
 30
0.0
 10
-18.459469
 20
80.277403
 30
0.0
 10
-18.789399
 20
79.889811
 30
0.0
  0
SPLINE
  5
15d
100
AcDbEntity
  8
0
 62
7
100
AcDbSpline
 70
8
 71
3
 72
8
 73
4
 74
0
 40
0
 40
0
 40
0
 40
0
 40
1
 40
1
 40
1
 40
1
 10
-23.420147
 20
81.548290
 30
0.0
 10
-23.789152
 20
81.697034
 30
0.0
 10
-24.156732
 20
81.849291
 30
0.0
 10
-24.522836
 20
82.005038
 30
0.0
  0
LWPOLYLINE
  5
15e
100
AcDbEntity
  8
0
 62
7
100
AcDbPolyline
 90
27
 70
0
 10
-19.924525
 20
80.258635
 30
0.0
 10
-19.963625
 20
80.766133
 30
0.0
 10
-19.990865
 20
81.252608
 30
0.0
 10
-20.006975
 20
81.712423
 30
0.0
 10
-20.013075
 20
82.148148
 30
0.0
 10
-20.010275
 20
82.559718
 30
0.0
 10
-19.999595
 20
82.943685
 30
0.0
 10
-19.975675
 20
83.471231
 30
0.0
 10
-19.986135
 20
83.533301
 30
0.0
 10
-19.995535
 20
83.554881
 30
0.0
 10
-20.007475
 20
83.570081
 30
0.0
 10
-20.021865
 20
83.578881
 30
0.0
 10
-20.166602
 20
83.630561
 30
0.0
 10
-20.606975
 20
83.791275
 30
0.0
 10
-21.046213
 20
83.955067
 30
0.0
 10
-21.189837
 20
84.009767
 30
0.0
 10
-21.206477
 20
84.012467
 30
0.0
 10
-21.225427
 20
84.008667
 30
0.0
 10
-21.246567
 20
83.998347
 30
0.0
 10
-21.294837
 20
83.957947
 30
0.0
 10
-21.619262
 20
83.541261
 30
0.0
 10
-21.860508
 20
83.242356
 30
0.0
 10
-22.125652
 20
82.927560
 30
0.0
 10
-22.413301
 20
82.600218
 30
0.0
 10
-22.724173
 20
82.261031
 30
0.0
 10
-23.060824
 20
81.908801
 30
0.0
 10
-23.420147
 20
81.548290
 30
0.0
  0
SPLINE
  5
15f
100
AcDbEntity
  8
0
 62
7
100
AcDbSpline
 70
8
 71
3
 72
8
 73
4
 74
0
 40
0
 40
0
 40
0
 40
0
 40
1
 40
1
 40
1
 40
1
 10
-27.906559
 20
83.565014
 30
0.0
 10
-28.262755
 20
83.742252
 30
0.0
 10
-28.617256
 20
83.922879
 30
0.0
 10
-28.970011
 20
84.106871
 30
0.0
  0
LWPOLYLINE
  5
160
100
AcDbEntity
  8
0
 62
7
100
AcDbPolyline
 90
27
 70
0
 10
-24.522836
 20
82.005038
 30
0.0
 10
-24.521996
 20
82.514039
 30
0.0
 10
-24.510976
 20
83.001151
 30
0.0
 10
-24.490956
 20
83.460811
 30
0.0
 10
-24.462886
 20
83.895676
 30
0.0
 10
-24.427776
 20
84.305755
 30
0.0
 10
-24.387006
 20
84.687701
 30
0.0
 10
-24.321766
 20
85.211744
 30
0.0
 10
-24.327366
 20
85.274444
 30
0.0
 10
-24.335066
 20
85.296694
 30
0.0
 10
-24.345776
 20
85.312784
 30
0.0
 10
-24.359436
 20
85.322684
 30
0.0
 10
-24.499673
 20
85.385564
 30
0.0
 10
-24.926079
 20
85.580334
 30
0.0
 10
-25.351111
 20
85.778083
 30
0.0
 10
-25.490000
 20
85.843883
 30
0.0
 10
-25.506380
 20
85.847883
 30
0.0
 10
-25.525570
 20
85.845583
 30
0.0
 10
-25.547450
 20
85.836983
 30
0.0
 10
-25.598740
 20
85.800493
 30
0.0
 10
-25.954857
 20
85.410546
 30
0.0
 10
-26.218813
 20
85.131490
 30
0.0
 10
-26.507839
 20
84.838469
 30
0.0
 10
-26.820282
 20
84.534704
 30
0.0
 10
-27.156809
 20
84.220954
 30
0.0
 10
-27.520057
 20
83.896223
 30
0.0
 10
-27.906559
 20
83.565014
 30
0.0
  0
SPLINE
  5
161
100
AcDbEntity
  8
0
 62
7
100
AcDbSpline
 70
8
 71
3
 72
8
 73
4
 74
0
 40
0
 40
0
 40
0
 40
0
 40
1
 40
1
 40
1
 40
1
 10
-32.220848
 20
85.927374
 30
0.0
 10
-32.562041
 20
86.132012
 30
0.0
 10
-32.901277
 20
86.339896
 30
0.0
 10
-33.238509
 20
86.550998
 30
0.0
  0
LWPOLYLINE
  5
162
100
AcDbEntity
  8
0
 62
7
100
AcDbPolyline
 90
27
 70
0
 10
-28.970011
 20
84.106871
 30
0.0
 10
-28.929241
 20
84.614237
 30
0.0
 10
-28.880041
 20
85.098982
 30
0.0
 10
-28.824021
 20
85.555656
 30
0.0
 10
-28.761921
 20
85.986977
 30
0.0
 10
-28.694751
 20
86.393038
 30
0.0
 10
-28.624141
 20
86.770607
 30
0.0
 10
-28.517988
 20
87.287917
 30
0.0
 10
-28.518613
 20
87.350857
 30
0.0
 10
-28.524513
 20
87.373637
 30
0.0
 10
-28.533913
 20
87.390517
 30
0.0
 10
-28.546753
 20
87.401437
 30
0.0
 10
-28.681625
 20
87.475127
 30
0.0
 10
-29.091435
 20
87.702752
 30
0.0
 10
-29.499642
 20
87.933239
 30
0.0
 10
-29.632941
 20
88.009739
 30
0.0
 10
-29.648961
 20
88.014939
 30
0.0
 10
-29.668271
 20
88.014143
 30
0.0
 10
-29.690761
 20
88.007243
 30
0.0
 10
-29.744751
 20
87.974893
 30
0.0
 10
-30.130364
 20
87.614088
 30
0.0
 10
-30.415400
 20
87.356602
 30
0.0
 10
-30.726526
 20
87.087160
 30
0.0
 10
-31.061840
 20
86.808845
 30
0.0
 10
-31.421945
 20
86.522467
 30
0.0
 10
-31.809552
 20
86.227237
 30
0.0
 10
-32.220848
 20
85.927374
 30
0.0
  0
SPLINE
  5
163
100
AcDbEntity
  8
0
 62
7
100
AcDbSpline
 70
8
 71
3
 72
8
 73
4
 74
0
 40
0
 40
0
 40
0
 40
0
 40
1
 40
1
 40
1
 40
1
 10
-36.336541
 20
88.621008
 30
0.0
 10
-36.660627
 20
88.851785
 30
0.0
 10
-36.982506
 20
89.085644
 30
0.0
 10
-37.302136
 20
89.322554
 30
0.0
  0
LWPOLYLINE
  5
164
100
AcDbEntity
  8
0
 62
7
100
AcDbPolyline
 90
27
 70
0
 10
-33.238509
 20
86.550998
 30
0.0
 10
-33.158049
 20
87.053600
 30
0.0
 10
-33.070969
 20
87.532992
 30
0.0
 10
-32.979290
 20
87.983862
 30
0.0
 10
-32.883540
 20
88.408980
 30
0.0
 10
-32.784710
 20
88.808519
 30
0.0
 10
-32.684693
 20
89.179384
 30
0.0
 10
-32.538278
 20
89.686771
 30
0.0
 10
-32.533978
 20
89.749571
 30
0.0
 10
-32.538078
 20
89.772741
 30
0.0
 10
-32.546178
 20
89.790310
 30
0.0
 10
-32.558128
 20
89.802200
 30
0.0
 10
-32.686802
 20
89.886240
 30
0.0
 10
-33.077489
 20
90.145316
 30
0.0
 10
-33.466354
 20
90.407120
 30
0.0
 10
-33.593240
 20
90.493840
 30
0.0
 10
-33.608800
 20
90.500340
 30
0.0
 10
-33.628110
 20
90.501062
 30
0.0
 10
-33.651070
 20
90.495962
 30
0.0
 10
-33.707430
 20
90.467942
 30
0.0
 10
-34.120164
 20
90.138505
 30
0.0
 10
-34.424524
 20
89.904176
 30
0.0
 10
-34.755829
 20
89.659976
 30
0.0
 10
-35.111946
 20
89.408828
 30
0.0
 10
-35.493411
 20
89.151585
 30
0.0
 10
-35.902986
 20
88.887676
 30
0.0
 10
-36.336541
 20
88.621008
 30
0.0
  0
SPLINE
  5
165
100
AcDbEntity
  8
0
 62
7
100
AcDbSpline
 70
8
 71
3
 72
8
 73
4
 74
0
 40
0
 40
0
 40
0
 40
0
 40
1
 40
1
 40
1
 40
1
 10
-40.228169
 20
91.629197
 30
0.0
 10
-40.533149
 20
91.884690
 30
0.0
 10
-40.835688
 20
92.143083
 30
0.0
 10
-41.135744
 20
92.404340
 30
0.0
  0
LWPOLYLINE
  5
166
100
AcDbEntity
  8
0
 62
7
100
AcDbPolyline
 90
27
 70
0
 10
-37.302136
 20
89.322554
 30
0.0
 10
-37.182496
 20
89.817294
 30
0.0
 10
-37.058070
 20
90.288376
 30
0.0
 10
-36.931296
 20
90.730663
 30
0.0
 10
-36.802487
 20
91.146960
 30
0.0
 10
-36.672616
 20
91.537512
 30
0.0
 10
-36.543809
 20
91.899387
 30
0.0
 10
-36.358037
 20
92.393722
 30
0.0
 10
-36.348837
 20
92.455982
 30
0.0
 10
-36.351037
 20
92.479402
 30
0.0
 10
-36.357737
 20
92.497552
 30
0.0
 10
-36.368717
 20
92.510342
 30
0.0
 10
-36.490401
 20
92.604222
 30
0.0
 10
-36.859557
 20
92.893153
 30
0.0
 10
-37.226683
 20
93.184659
 30
0.0
 10
-37.346373
 20
93.281069
 30
0.0
 10
-37.361373
 20
93.288769
 30
0.0
 10
-37.380573
 20
93.290969
 30
0.0
 10
-37.403863
 20
93.287669
 30
0.0
 10
-37.462253
 20
93.264159
 30
0.0
 10
-37.899561
 20
92.968121
 30
0.0
 10
-38.221368
 20
92.758395
 30
0.0
 10
-38.570813
 20
92.540940
 30
0.0
 10
-38.945537
 20
92.318507
 30
0.0
 10
-39.346009
 20
92.091987
 30
0.0
 10
-39.775027
 20
91.861027
 30
0.0
 10
-40.228169
 20
91.629197
 30
0.0
  0
SPLINE
  5
167
100
AcDbEntity
  8
0
 62
7
100
AcDbSpline
 70
8
 71
3
 72
8
 73
4
 74
0
 40
0
 40
0
 40
0
 40
0
 40
1
 40
1
 40
1
 40
1
 10
-43.871693
 20
94.933448
 30
0.0
 10
-44.155687
 20
95.212082
 30
0.0
 10
-44.437020
 20
95.493415
 30
0.0
 10
-44.715653
 20
95.777409
 30
0.0
  0
LWPOLYLINE
  5
168
100
AcDbEntity
  8
0
 62
7
100
AcDbPolyline
 90
27
 70
0
 10
-41.135744
 20
92.404340
 30
0.0
 10
-40.977656
 20
92.888169
 30
0.0
 10
-40.816653
 20
93.348035
 30
0.0
 10
-40.655569
 20
93.779012
 30
0.0
 10
-40.494494
 20
94.183919
 30
0.0
 10
-40.334382
 20
94.563079
 30
0.0
 10
-40.177579
 20
94.913731
 30
0.0
 10
-39.953595
 20
95.391967
 30
0.0
 10
-39.939515
 20
95.453317
 30
0.0
 10
-39.939915
 20
95.476837
 30
0.0
 10
-39.945115
 20
95.495447
 30
0.0
 10
-39.955015
 20
95.509057
 30
0.0
 10
-40.068958
 20
95.612193
 30
0.0
 10
-40.414307
 20
95.929197
 30
0.0
 10
-40.757430
 20
96.248608
 30
0.0
 10
-40.869187
 20
96.354109
 30
0.0
 10
-40.883537
 20
96.362909
 30
0.0
 10
-40.902497
 20
96.366609
 30
0.0
 10
-40.925977
 20
96.365209
 30
0.0
 10
-40.986027
 20
96.346359
 30
0.0
 10
-41.445213
 20
96.085544
 30
0.0
 10
-41.782483
 20
95.901713
 30
0.0
 10
-42.147912
 20
95.712346
 30
0.0
 10
-42.538933
 20
95.519999
 30
0.0
 10
-42.955942
 20
95.325597
 30
0.0
 10
-43.401759
 20
95.129010
 30
0.0
 10
-43.871693
 20
94.933448
 30
0.0
  0
SPLINE
  5
169
100
AcDbEntity
  8
0
 62
7
100
AcDbSpline
 70
8
 71
3
 72
8
 73
4
 74
0
 40
0
 40
0
 40
0
 40
0
 40
1
 40
1
 40
1
 40
1
 10
-47.244762
 20
98.513357
 30
0.0
 10
-47.506019
 20
98.813414
 30
0.0
 10
-47.764411
 20
99.115953
 30
0.0
 10
-48.019904
 20
99.420933
 30
0.0
  0
LWPOLYLINE
  5
16a
100
AcDbEntity
  8
0
 62
7
100
AcDbPolyline
 90
27
 70
0
 10
-44.715653
 20
95.777409
 30
0.0
 10
-44.520091
 20
96.247342
 30
0.0
 10
-44.323504
 20
96.693159
 30
0.0
 10
-44.129103
 20
97.110169
 30
0.0
 10
-43.936756
 20
97.501190
 30
0.0
 10
-43.747389
 20
97.866618
 30
0.0
 10
-43.563558
 20
98.203888
 30
0.0
 10
-43.302742
 20
98.663075
 30
0.0
 10
-43.283892
 20
98.723125
 30
0.0
 10
-43.282492
 20
98.746605
 30
0.0
 10
-43.286192
 20
98.765565
 30
0.0
 10
-43.294992
 20
98.779915
 30
0.0
 10
-43.400493
 20
98.891672
 30
0.0
 10
-43.719905
 20
99.234795
 30
0.0
 10
-44.036909
 20
99.580143
 30
0.0
 10
-44.140045
 20
99.694086
 30
0.0
 10
-44.153655
 20
99.703986
 30
0.0
 10
-44.172265
 20
99.709186
 30
0.0
 10
-44.195785
 20
99.709586
 30
0.0
 10
-44.257135
 20
99.695506
 30
0.0
 10
-44.735370
 20
99.471522
 30
0.0
 10
-45.086023
 20
99.314720
 30
0.0
 10
-45.465183
 20
99.154608
 30
0.0
 10
-45.870090
 20
98.993533
 30
0.0
 10
-46.301066
 20
98.832449
 30
0.0
 10
-46.760933
 20
98.671446
 30
0.0
 10
-47.244762
 20
98.513357
 30
0.0
  0
SPLINE
  5
16b
100
AcDbEntity
  8
0
 62
7
100
AcDbSpline
 70
8
 71
3
 72
8
 73
4
 74
0
 40
0
 40
0
 40
0
 40
0
 40
1
 40
1
 40
1
 40
1
 10
-50.326548
 20
102.346966
 30
0.0
 10
-50.563457
 20
102.666595
 30
0.0
 10
-50.797316
 20
102.988475
 30
0.0
 10
-51.028093
 20
103.312560
 30
0.0
  0
LWPOLYLINE
  5
16c
100
AcDbEntity
  8
0
 62
7
100
AcDbPolyline
 90
27
 70
0
 10
-48.019904
 20
99.420933
 30
0.0
 10
-47.788074
 20
99.874074
 30
0.0
 10
-47.557114
 20
100.303093
 30
0.0
 10
-47.330595
 20
100.703565
 30
0.0
 10
-47.108162
 20
101.078288
 30
0.0
 10
-46.890707
 20
101.427733
 30
0.0
 10
-46.680981
 20
101.749540
 30
0.0
 10
-46.384942
 20
102.186849
 30
0.0
 10
-46.361432
 20
102.245239
 30
0.0
 10
-46.358132
 20
102.268529
 30
0.0
 10
-46.360332
 20
102.287729
 30
0.0
 10
-46.368032
 20
102.302729
 30
0.0
 10
-46.464442
 20
102.422419
 30
0.0
 10
-46.755949
 20
102.789544
 30
0.0
 10
-47.044880
 20
103.158700
 30
0.0
 10
-47.138760
 20
103.280384
 30
0.0
 10
-47.151550
 20
103.291364
 30
0.0
 10
-47.169700
 20
103.298064
 30
0.0
 10
-47.193120
 20
103.300264
 30
0.0
 10
-47.255380
 20
103.291064
 30
0.0
 10
-47.749714
 20
103.105292
 30
0.0
 10
-48.111589
 20
102.976485
 30
0.0
 10
-48.502142
 20
102.846614
 30
0.0
 10
-48.918439
 20
102.717805
 30
0.0
 10
-49.360725
 20
102.591032
 30
0.0
 10
-49.831807
 20
102.466606
 30
0.0
 10
-50.326548
 20
102.346966
 30
0.0
  0
SPLINE
  5
16d
100
AcDbEntity
  8
0
 62
7
100
AcDbSpline
 70
8
 71
3
 72
8
 73
4
 74
0
 40
0
 40
0
 40
0
 40
0
 40
1
 40
1
 40
1
 40
1
 10
-53.098104
 20
106.410592
 30
0.0
 10
-53.309205
 20
106.747825
 30
0.0
 10
-53.517089
 20
107.087060
 30
0.0
 10
-53.721728
 20
107.428254
 30
0.0
  0
LWPOLYLINE
  5
16e
100
AcDbEntity
  8
0
 62
7
100
AcDbPolyline
 90
27
 70
0
 10
-51.028093
 20
103.312560
 30
0.0
 10
-50.761425
 20
103.746116
 30
0.0
 10
-50.497517
 20
104.155691
 30
0.0
 10
-50.240274
 20
104.537155
 30
0.0
 10
-49.989126
 20
104.893272
 30
0.0
 10
-49.744925
 20
105.224578
 30
0.0
 10
-49.510596
 20
105.528938
 30
0.0
 10
-49.181159
 20
105.941671
 30
0.0
 10
-49.153139
 20
105.998031
 30
0.0
 10
-49.148039
 20
106.020991
 30
0.0
 10
-49.148761
 20
106.040301
 30
0.0
 10
-49.155261
 20
106.055861
 30
0.0
 10
-49.241981
 20
106.182747
 30
0.0
 10
-49.503785
 20
106.571612
 30
0.0
 10
-49.762861
 20
106.962300
 30
0.0
 10
-49.846901
 20
107.090974
 30
0.0
 10
-49.858791
 20
107.102924
 30
0.0
 10
-49.876361
 20
107.111024
 30
0.0
 10
-49.899531
 20
107.115124
 30
0.0
 10
-49.962331
 20
107.110824
 30
0.0
 10
-50.469718
 20
106.964409
 30
0.0
 10
-50.840582
 20
106.864392
 30
0.0
 10
-51.240121
 20
106.765562
 30
0.0
 10
-51.665240
 20
106.669812
 30
0.0
 10
-52.116110
 20
106.578132
 30
0.0
 10
-52.595501
 20
106.491052
 30
0.0
 10
-53.098104
 20
106.410592
 30
0.0
  0
SPLINE
  5
16f
100
AcDbEntity
  8
0
 62
7
100
AcDbSpline
 70
8
 71
3
 72
8
 73
4
 74
0
 40
0
 40
0
 40
0
 40
0
 40
1
 40
1
 40
1
 40
1
 10
-55.542231
 20
110.679091
 30
0.0
 10
-55.726222
 20
111.031846
 30
0.0
 10
-55.906849
 20
111.386346
 30
0.0
 10
-56.084087
 20
111.742543
 30
0.0
  0
LWPOLYLINE
  5
170
100
AcDbEntity
  8
0
 62
7
100
AcDbPolyline
 90
27
 70
0
 10
-53.721728
 20
107.428254
 30
0.0
 10
-53.421865
 20
107.839549
 30
0.0
 10
-53.126635
 20
108.227156
 30
0.0
 10
-52.840256
 20
108.587262
 30
0.0
 10
-52.561941
 20
108.922576
 30
0.0
 10
-52.292500
 20
109.233701
 30
0.0
 10
-52.035014
 20
109.518737
 30
0.0
 10
-51.674209
 20
109.904351
 30
0.0
 10
-51.641859
 20
109.958341
 30
0.0
 10
-51.634959
 20
109.980831
 30
0.0
 10
-51.634163
 20
110.000141
 30
0.0
 10
-51.639363
 20
110.016161
 30
0.0
 10
-51.715863
 20
110.149460
 30
0.0
 10
-51.946350
 20
110.557667
 30
0.0
 10
-52.173975
 20
110.967476
 30
0.0
 10
-52.247665
 20
111.102348
 30
0.0
 10
-52.258585
 20
111.115188
 30
0.0
 10
-52.275465
 20
111.124588
 30
0.0
 10
-52.298245
 20
111.130488
 30
0.0
 10
-52.361184
 20
111.131113
 30
0.0
 10
-52.878494
 20
111.024960
 30
0.0
 10
-53.256064
 20
110.954350
 30
0.0
 10
-53.662125
 20
110.887180
 30
0.0
 10
-54.093445
 20
110.825080
 30
0.0
 10
-54.550119
 20
110.769060
 30
0.0
 10
-55.034865
 20
110.719861
 30
0.0
 10
-55.542231
 20
110.679091
 30
0.0
  0
SPLINE
  5
171
100
AcDbEntity
  8
0
 62
7
100
AcDbSpline
 70
8
 71
3
 72
8
 73
4
 74
0
 40
0
 40
0
 40
0
 40
0
 40
1
 40
1
 40
1
 40
1
 10
-57.644063
 20
115.126266
 30
0.0
 10
-57.799811
 20
115.492370
 30
0.0
 10
-57.952067
 20
115.859949
 30
0.0
 10
-58.100812
 20
116.228954
 30
0.0
  0
LWPOLYLINE
  5
172
100
AcDbEntity
  8
0
 62
7
100
AcDbPolyline
 90
27
 70
0
 10
-56.084087
 20
111.742543
 30
0.0
 10
-55.752878
 20
112.129045
 30
0.0
 10
-55.428148
 20
112.492292
 30
0.0
 10
-55.114398
 20
112.828819
 30
0.0
 10
-54.810633
 20
113.141263
 30
0.0
 10
-54.517611
 20
113.430289
 30
0.0
 10
-54.238555
 20
113.694245
 30
0.0
 10
-53.848609
 20
114.050361
 30
0.0
 10
-53.812119
 20
114.101651
 30
0.0
 10
-53.803519
 20
114.123531
 30
0.0
 10
-53.801219
 20
114.142721
 30
0.0
 10
-53.805219
 20
114.159101
 30
0.0
 10
-53.871019
 20
114.297990
 30
0.0
 10
-54.068767
 20
114.723023
 30
0.0
 10
-54.263537
 20
115.149429
 30
0.0
 10
-54.326417
 20
115.289666
 30
0.0
 10
-54.336317
 20
115.303326
 30
0.0
 10
-54.352407
 20
115.314036
 30
0.0
 10
-54.374657
 20
115.321736
 30
0.0
 10
-54.437357
 20
115.327336
 30
0.0
 10
-54.961401
 20
115.262096
 30
0.0
 10
-55.343347
 20
115.221326
 30
0.0
 10
-55.753425
 20
115.186216
 30
0.0
 10
-56.188290
 20
115.158146
 30
0.0
 10
-56.647951
 20
115.138126
 30
0.0
 10
-57.135063
 20
115.127106
 30
0.0
 10
-57.644063
 20
115.126266
 30
0.0
  0
SPLINE
  5
173
100
AcDbEntity
  8
0
 62
7
100
AcDbSpline
 70
8
 71
3
 72
8
 73
4
 74
0
 40
0
 40
0
 40
0
 40
0
 40
1
 40
1
 40
1
 40
1
 10
-59.390466
 20
119.724577
 30
0.0
 10
-59.517010
 20
120.101772
 30
0.0
 10
-59.639957
 20
120.480164
 30
0.0
 10
-59.759291
 20
120.859702
 30
0.0
  0
LWPOLYLINE
  5
174
100
AcDbEntity
  8
0
 62
7
100
AcDbPolyline
 90
27
 70
0
 10
-58.100812
 20
116.228954
 30
0.0
 10
-57.740300
 20
116.588278
 30
0.0
 10
-57.388070
 20
116.924929
 30
0.0
 10
-57.048884
 20
117.235800
 30
0.0
 10
-56.721542
 20
117.523449
 30
0.0
 10
-56.406746
 20
117.788593
 30
0.0
 10
-56.107840
 20
118.029840
 30
0.0
 10
-55.691154
 20
118.354265
 30
0.0
 10
-55.650754
 20
118.402535
 30
0.0
 10
-55.640434
 20
118.423675
 30
0.0
 10
-55.636634
 20
118.442625
 30
0.0
 10
-55.639334
 20
118.459265
 30
0.0
 10
-55.694034
 20
118.602889
 30
0.0
 10
-55.857826
 20
119.042126
 30
0.0
 10
-56.018540
 20
119.482499
 30
0.0
 10
-56.070220
 20
119.627237
 30
0.0
 10
-56.079020
 20
119.641627
 30
0.0
 10
-56.094220
 20
119.653567
 30
0.0
 10
-56.115800
 20
119.662967
 30
0.0
 10
-56.177870
 20
119.673427
 30
0.0
 10
-56.705417
 20
119.649507
 30
0.0
 10
-57.089384
 20
119.638827
 30
0.0
 10
-57.500953
 20
119.636027
 30
0.0
 10
-57.936679
 20
119.642127
 30
0.0
 10
-58.396494
 20
119.658237
 30
0.0
 10
-58.882968
 20
119.685477
 30
0.0
 10
-59.390466
 20
119.724577
 30
0.0
  0
SPLINE
  5
175
100
AcDbEntity
  8
0
 62
7
100
AcDbSpline
 70
8
 71
3
 72
8
 73
4
 74
0
 40
0
 40
0
 40
0
 40
0
 40
1
 40
1
 40
1
 40
1
 10
-60.770663
 20
124.445690
 30
0.0
 10
-60.867222
 20
124.831651
 30
0.0
 10
-60.960102
 20
125.218523
 30
0.0
 10
-61.049290
 20
125.606253
 30
0.0
  0
LWPOLYLINE
  5
176
100
AcDbEntity
  8
0
 62
7
100
AcDbPolyline
 90
27
 70
0
 10
-59.759291
 20
120.859702
 30
0.0
 10
-59.371698
 20
121.189633
 30
0.0
 10
-58.994140
 20
121.497610
 30
0.0
 10
-58.631610
 20
121.780912
 30
0.0
 10
-58.282707
 20
122.041990
 30
0.0
 10
-57.948079
 20
122.281618
 30
0.0
 10
-57.631167
 20
122.498670
 30
0.0
 10
-57.190312
 20
122.789402
 30
0.0
 10
-57.146253
 20
122.834352
 30
0.0
 10
-57.134303
 20
122.854612
 30
0.0
 10
-57.129003
 20
122.873202
 30
0.0
 10
-57.130403
 20
122.890002
 30
0.0
 10
-57.173662
 20
123.037475
 30
0.0
 10
-57.302487
 20
123.488209
 30
0.0
 10
-57.428154
 20
123.939833
 30
0.0
 10
-57.468324
 20
124.088180
 30
0.0
 10
-57.475924
 20
124.103220
 30
0.0
 10
-57.490144
 20
124.116310
 30
0.0
 10
-57.510924
 20
124.127340
 30
0.0
 10
-57.571984
 20
124.142640
 30
0.0
 10
-58.099782
 20
124.160180
 30
0.0
 10
-58.483403
 20
124.179660
 30
0.0
 10
-58.893925
 20
124.209130
 30
0.0
 10
-59.327826
 20
124.249440
 30
0.0
 10
-59.784960
 20
124.301570
 30
0.0
 10
-60.267799
 20
124.366890
 30
0.0
 10
-60.770663
 20
124.445690
 30
0.0
  0
SPLINE
  5
177
100
AcDbEntity
  8
0
 62
7
100
AcDbSpline
 70
8
 71
3
 72
8
 73
4
 74
0
 40
0
 40
0
 40
0
 40
0
 40
1
 40
1
 40
1
 40
1
 10
-61.776190
 20
129.260542
 30
0.0
 10
-61.842169
 20
129.652889
 30
0.0
 10
-61.904408
 20
130.045855
 30
0.0
 10
-61.962901
 20
130.439388
 30
0.0
  0
LWPOLYLINE
  5
178
100
AcDbEntity
  8
0
 62
7
100
AcDbPolyline
 90
27
 70
0
 10
-61.049290
 20
125.606253
 30
0.0
 10
-60.637006
 20
125.904757
 30
0.0
 10
-60.236449
 20
126.182162
 30
0.0
 10
-59.852808
 20
126.436147
 30
0.0
 10
-59.484497
 20
126.669046
 30
0.0
 10
-59.132099
 20
126.881680
 30
0.0
 10
-58.799135
 20
127.073198
 30
0.0
 10
-58.336829
 20
127.328444
 30
0.0
 10
-58.289379
 20
127.369794
 30
0.0
 10
-58.275879
 20
127.389054
 30
0.0
 10
-58.269179
 20
127.407174
 30
0.0
 10
-58.269218
 20
127.424034
 30
0.0
 10
-58.300778
 20
127.574447
 30
0.0
 10
-58.393838
 20
128.033899
 30
0.0
 10
-58.483688
 20
128.493991
 30
0.0
 10
-58.512088
 20
128.645032
 30
0.0
 10
-58.518488
 20
128.660622
 30
0.0
 10
-58.531638
 20
128.674792
 30
0.0
 10
-58.551478
 20
128.687422
 30
0.0
 10
-58.611148
 20
128.707462
 30
0.0
 10
-59.135942
 20
128.766362
 30
0.0
 10
-59.516852
 20
128.815882
 30
0.0
 10
-59.923797
 20
128.877472
 30
0.0
 10
-60.353198
 20
128.951692
 30
0.0
 10
-60.804832
 20
129.039532
 30
0.0
 10
-61.281057
 20
129.142535
 30
0.0
 10
-61.776190
 20
129.260542
 30
0.0
  0
SPLINE
  5
179
100
AcDbEntity
  8
0
 62
7
100
AcDbSpline
 70
8
 71
3
 72
8
 73
4
 74
0
 40
0
 40
0
 40
0
 40
0
 40
1
 40
1
 40
1
 40
1
 10
-62.400860
 20
134.139451
 30
0.0
 10
-62.435851
 20
134.535765
 30
0.0
 10
-62.467066
 20
134.932403
 30
0.0
 10
-62.494500
 20
135.329312
 30
0.0
  0
LWPOLYLINE
  5
17a
100
AcDbEntity
  8
0
 62
7
100
AcDbPolyline
 90
27
 70
0
 10
-61.962901
 20
130.439388
 30
0.0
 10
-61.528468
 20
130.704624
 30
0.0
 10
-61.107380
 20
130.949747
 30
0.0
 10
-60.704994
 20
131.172848
 30
0.0
 10
-60.319546
 20
131.376132
 30
0.0
 10
-59.951551
 20
131.560463
 30
0.0
 10
-59.604587
 20
131.725266
 30
0.0
 10
-59.123679
 20
131.943453
 30
0.0
 10
-59.073129
 20
131.980955
 30
0.0
 10
-59.058159
 20
131.999101
 30
0.0
 10
-59.050059
 20
132.016638
 30
0.0
 10
-59.048759
 20
132.033445
 30
0.0
 10
-59.068419
 20
132.185870
 30
0.0
 10
-59.125149
 20
132.651208
 30
0.0
 10
-59.178619
 20
133.116931
 30
0.0
 10
-59.195079
 20
133.269735
 30
0.0
 10
-59.200279
 20
133.285778
 30
0.0
 10
-59.212269
 20
133.300933
 30
0.0
 10
-59.231059
 20
133.315082
 30
0.0
 10
-59.288969
 20
133.339746
 30
0.0
 10
-59.807525
 20
133.439639
 30
0.0
 10
-60.183375
 20
133.518892
 30
0.0
 10
-60.584232
 20
133.612223
 30
0.0
 10
-61.006486
 20
133.719909
 30
0.0
 10
-61.449837
 20
133.842911
 30
0.0
 10
-61.916513
 20
133.982960
 30
0.0
 10
-62.400860
 20
134.139451
 30
0.0
  0
SPLINE
  5
17b
100
AcDbEntity
  8
0
 62
7
100
AcDbSpline
 70
8
 71
3
 72
8
 73
4
 74
0
 40
0
 40
0
 40
0
 40
0
 40
1
 40
1
 40
1
 40
1
 10
-62.640687
 20
139.052330
 30
0.0
 10
-62.644477
 20
139.450167
 30
0.0
 10
-62.644477
 20
139.848032
 30
0.0
 10
-62.640687
 20
140.245870
 30
0.0
  0
LWPOLYLINE
  5
17c
100
AcDbEntity
  8
0
 62
7
100
AcDbPolyline
 90
27
 70
0
 10
-62.494500
 20
135.329312
 30
0.0
 10
-62.040596
 20
135.559645
 30
0.0
 10
-61.601575
 20
135.770974
 30
0.0
 10
-61.182925
 20
135.961817
 30
0.0
 10
-60.782715
 20
136.134232
 30
0.0
 10
-60.401392
 20
136.289122
 30
0.0
 10
-60.042568
 20
136.426195
 30
0.0
 10
-59.546023
 20
136.605978
 30
0.0
 10
-59.492683
 20
136.639398
 30
0.0
 10
-59.476333
 20
136.656313
 30
0.0
 10
-59.466833
 20
136.673158
 30
0.0
 10
-59.464233
 20
136.689813
 30
0.0
 10
-59.471833
 20
136.843311
 30
0.0
 10
-59.491873
 20
137.311665
 30
0.0
 10
-59.508633
 20
137.780148
 30
0.0
 10
-59.513033
 20
137.933772
 30
0.0
 10
-59.516933
 20
137.950172
 30
0.0
 10
-59.527703
 20
137.966222
 30
0.0
 10
-59.545333
 20
137.981802
 30
0.0
 10
-59.601133
 20
138.010934
 30
0.0
 10
-60.110253
 20
138.151204
 30
0.0
 10
-60.478725
 20
138.259702
 30
0.0
 10
-60.871025
 20
138.384196
 30
0.0
 10
-61.283529
 20
138.524679
 30
0.0
 10
-61.715862
 20
138.682087
 30
0.0
 10
-62.170110
 20
138.858319
 30
0.0
 10
-62.640687
 20
139.052330
 30
0.0
  0
SPLINE
  5
17d
100
AcDbEntity
  8
0
 62
7
100
AcDbSpline
 70
8
 71
3
 72
8
 73
4
 74
0
 40
0
 40
0
 40
0
 40
0
 40
1
 40
1
 40
1
 40
1
 10
-62.494500
 20
143.968888
 30
0.0
 10
-62.467066
 20
144.365796
 30
0.0
 10
-62.435851
 20
144.762435
 30
0.0
 10
-62.400860
 20
145.158749
 30
0.0
  0
LWPOLYLINE
  5
17e
100
AcDbEntity
  8
0
 62
7
100
AcDbPolyline
 90
27
 70
0
 10
-62.640687
 20
140.245870
 30
0.0
 10
-62.170110
 20
140.439880
 30
0.0
 10
-61.715862
 20
140.616112
 30
0.0
 10
-61.283529
 20
140.773520
 30
0.0
 10
-60.871025
 20
140.914004
 30
0.0
 10
-60.478725
 20
141.038498
 30
0.0
 10
-60.110253
 20
141.146996
 30
0.0
 10
-59.601133
 20
141.287266
 30
0.0
 10
-59.545333
 20
141.316398
 30
0.0
 10
-59.527703
 20
141.331978
 30
0.0
 10
-59.516933
 20
141.348028
 30
0.0
 10
-59.513033
 20
141.364428
 30
0.0
 10
-59.508633
 20
141.518052
 30
0.0
 10
-59.491873
 20
141.986535
 30
0.0
 10
-59.471833
 20
142.454889
 30
0.0
 10
-59.464233
 20
142.608387
 30
0.0
 10
-59.466833
 20
142.625042
 30
0.0
 10
-59.476333
 20
142.641887
 30
0.0
 10
-59.492683
 20
142.658802
 30
0.0
 10
-59.546023
 20
142.692222
 30
0.0
 10
-60.042568
 20
142.872005
 30
0.0
 10
-60.401392
 20
143.009078
 30
0.0
 10
-60.782715
 20
143.163968
 30
0.0
 10
-61.182925
 20
143.336383
 30
0.0
 10
-61.601575
 20
143.527226
 30
0.0
 10
-62.040596
 20
143.738554
 30
0.0
 10
-62.494500
 20
143.968888
 30
0.0
  0
SPLINE
  5
17f
100
AcDbEntity
  8
0
 62
7
100
AcDbSpline
 70
8
 71
3
 72
8
 73
4
 74
0
 40
0
 40
0
 40
0
 40
0
 40
1
 40
1
 40
1
 40
1
 10
-61.962901
 20
148.858812
 30
0.0
 10
-61.904408
 20
149.252345
 30
0.0
 10
-61.842169
 20
149.645311
 30
0.0
 10
-61.776190
 20
150.037658
 30
0.0
  0
LWPOLYLINE
  5
180
100
AcDbEntity
  8
0
 62
7
100
AcDbPolyline
 90
27
 70
0
 10
-62.400860
 20
145.158749
 30
0.0
 10
-61.916513
 20
145.315240
 30
0.0
 10
-61.449837
 20
145.455289
 30
0.0
 10
-61.006486
 20
145.578291
 30
0.0
 10
-60.584232
 20
145.685977
 30
0.0
 10
-60.183375
 20
145.779308
 30
0.0
 10
-59.807525
 20
145.858561
 30
0.0
 10
-59.288969
 20
145.958454
 30
0.0
 10
-59.231059
 20
145.983118
 30
0.0
 10
-59.212269
 20
145.997267
 30
0.0
 10
-59.200279
 20
146.012422
 30
0.0
 10
-59.195079
 20
146.028465
 30
0.0
 10
-59.178619
 20
146.181269
 30
0.0
 10
-59.125149
 20
146.646992
 30
0.0
 10
-59.068419
 20
147.112329
 30
0.0
 10
-59.048759
 20
147.264755
 30
0.0
 10
-59.050059
 20
147.281562
 30
0.0
 10
-59.058159
 20
147.299099
 30
0.0
 10
-59.073129
 20
147.317245
 30
0.0
 10
-59.123679
 20
147.354747
 30
0.0
 10
-59.604587
 20
147.572934
 30
0.0
 10
-59.951551
 20
147.737737
 30
0.0
 10
-60.319546
 20
147.922068
 30
0.0
 10
-60.704994
 20
148.125352
 30
0.0
 10
-61.107380
 20
148.348453
 30
0.0
 10
-61.528468
 20
148.593576
 30
0.0
 10
-61.962901
 20
148.858812
 30
0.0
  0
SPLINE
  5
181
100
AcDbEntity
  8
0
 62
7
100
AcDbSpline
 70
8
 71
3
 72
8
 73
4
 74
0
 40
0
 40
0
 40
0
 40
0
 40
1
 40
1
 40
1
 40
1
 10
-61.049290
 20
153.691947
 30
0.0
 10
-60.960102
 20
154.079677
 30
0.0
 10
-60.867222
 20
154.466549
 30
0.0
 10
-60.770663
 20
154.852510
 30
0.0
  0
LWPOLYLINE
  5
182
100
AcDbEntity
  8
0
 62
7
100
AcDbPolyline
 90
27
 70
0
 10
-61.776190
 20
150.037658
 30
0.0
 10
-61.281057
 20
150.155665
 30
0.0
 10
-60.804832
 20
150.258668
 30
0.0
 10
-60.353198
 20
150.346508
 30
0.0
 10
-59.923797
 20
150.420728
 30
0.0
 10
-59.516852
 20
150.482318
 30
0.0
 10
-59.135942
 20
150.531838
 30
0.0
 10
-58.611148
 20
150.590738
 30
0.0
 10
-58.551478
 20
150.610778
 30
0.0
 10
-58.531638
 20
150.623408
 30
0.0
 10
-58.518488
 20
150.637578
 30
0.0
 10
-58.512088
 20
150.653168
 30
0.0
 10
-58.483688
 20
150.804209
 30
0.0
 10
-58.393838
 20
151.264301
 30
0.0
 10
-58.300778
 20
151.723753
 30
0.0
 10
-58.269218
 20
151.874166
 30
0.0
 10
-58.269179
 20
151.891026
 30
0.0
 10
-58.275879
 20
151.909146
 30
0.0
 10
-58.289379
 20
151.928406
 30
0.0
 10
-58.336829
 20
151.969756
 30
0.0
 10
-58.799135
 20
152.225002
 30
0.0
 10
-59.132099
 20
152.416520
 30
0.0
 10
-59.484497
 20
152.629154
 30
0.0
 10
-59.852808
 20
152.862053
 30
0.0
 10
-60.236449
 20
153.116038
 30
0.0
 10
-60.637006
 20
153.393443
 30
0.0
 10
-61.049290
 20
153.691947
 30
0.0
  0
SPLINE
  5
183
100
AcDbEntity
  8
0
 62
7
100
AcDbSpline
 70
8
 71
3
 72
8
 73
4
 74
0
 40
0
 40
0
 40
0
 40
0
 40
1
 40
1
 40
1
 40
1
 10
-59.759291
 20
158.438498
 30
0.0
 10
-59.639957
 20
158.818036
 30
0.0
 10
-59.517010
 20
159.196428
 30
0.0
 10
-59.390466
 20
159.573623
 30
0.0
  0
LWPOLYLINE
  5
184
100
AcDbEntity
  8
0
 62
7
100
AcDbPolyline
 90
27
 70
0
 10
-60.770663
 20
154.852510
 30
0.0
 10
-60.267799
 20
154.931310
 30
0.0
 10
-59.784960
 20
154.996630
 30
0.0
 10
-59.327826
 20
155.048760
 30
0.0
 10
-58.893925
 20
155.089070
 30
0.0
 10
-58.483403
 20
155.118540
 30
0.0
 10
-58.099782
 20
155.138020
 30
0.0
 10
-57.571984
 20
155.155560
 30
0.0
 10
-57.510924
 20
155.170860
 30
0.0
 10
-57.490144
 20
155.181890
 30
0.0
 10
-57.475924
 20
155.194980
 30
0.0
 10
-57.468324
 20
155.210020
 30
0.0
 10
-57.428154
 20
155.358367
 30
0.0
 10
-57.302487
 20
155.809991
 30
0.0
 10
-57.173662
 20
156.260725
 30
0.0
 10
-57.130403
 20
156.408198
 30
0.0
 10
-57.129003
 20
156.424998
 30
0.0
 10
-57.134303
 20
156.443588
 30
0.0
 10
-57.146253
 20
156.463848
 30
0.0
 10
-57.190312
 20
156.508798
 30
0.0
 10
-57.631167
 20
156.799530
 30
0.0
 10
-57.948079
 20
157.016582
 30
0.0
 10
-58.282707
 20
157.256210
 30
0.0
 10
-58.631610
 20
157.517288
 30
0.0
 10
-58.994140
 20
157.800590
 30
0.0
 10
-59.371698
 20
158.108567
 30
0.0
 10
-59.759291
 20
158.438498
 30
0.0
  0
SPLINE
  5
185
100
AcDbEntity
  8
0
 62
7
100
AcDbSpline
 70
8
 71
3
 72
8
 73
4
 74
0
 40
0
 40
0
 40
0
 40
0
 40
1
 40
1
 40
1
 40
1
 10
-58.100812
 20
163.069246
 30
0.0
 10
-57.952067
 20
163.438251
 30
0.0
 10
-57.799811
 20
163.805830
 30
0.0
 10
-57.644063
 20
164.171934
 30
0.0
  0
LWPOLYLINE
  5
186
100
AcDbEntity
  8
0
 62
7
100
AcDbPolyline
 90
27
 70
0
 10
-59.390466
 20
159.573623
 30
0.0
 10
-58.882968
 20
159.612723
 30
0.0
 10
-58.396494
 20
159.639963
 30
0.0
 10
-57.936679
 20
159.656073
 30
0.0
 10
-57.500953
 20
159.662173
 30
0.0
 10
-57.089384
 20
159.659373
 30
0.0
 10
-56.705417
 20
159.648693
 30
0.0
 10
-56.177870
 20
159.624773
 30
0.0
 10
-56.115800
 20
159.635233
 30
0.0
 10
-56.094220
 20
159.644633
 30
0.0
 10
-56.079020
 20
159.656573
 30
0.0
 10
-56.070220
 20
159.670963
 30
0.0
 10
-56.018540
 20
159.815701
 30
0.0
 10
-55.857826
 20
160.256074
 30
0.0
 10
-55.694034
 20
160.695311
 30
0.0
 10
-55.639334
 20
160.838935
 30
0.0
 10
-55.636634
 20
160.855575
 30
0.0
 10
-55.640434
 20
160.874525
 30
0.0
 10
-55.650754
 20
160.895665
 30
0.0
 10
-55.691154
 20
160.943935
 30
0.0
 10
-56.107840
 20
161.268360
 30
0.0
 10
-56.406746
 20
161.509607
 30
0.0
 10
-56.721542
 20
161.774751
 30
0.0
 10
-57.048884
 20
162.062400
 30
0.0
 10
-57.388070
 20
162.373271
 30
0.0
 10
-57.740300
 20
162.709922
 30
0.0
 10
-58.100812
 20
163.069246
 30
0.0
  0
SPLINE
  5
187
100
AcDbEntity
  8
0
 62
7
100
AcDbSpline
 70
8
 71
3
 72
8
 73
4
 74
0
 40
0
 40
0
 40
0
 40
0
 40
1
 40
1
 40
1
 40
1
 10
-56.084087
 20
167.555657
 30
0.0
 10
-55.906849
 20
167.911854
 30
0.0
 10
-55.726222
 20
168.266354
 30
0.0
 10
-55.542231
 20
168.619110
 30
0.0
  0
LWPOLYLINE
  5
188
100
AcDbEntity
  8
0
 62
7
100
AcDbPolyline
 90
27
 70
0
 10
-57.644063
 20
164.171934
 30
0.0
 10
-57.135063
 20
164.171094
 30
0.0
 10
-56.647951
 20
164.160074
 30
0.0
 10
-56.188290
 20
164.140054
 30
0.0
 10
-55.753425
 20
164.111984
 30
0.0
 10
-55.343347
 20
164.076874
 30
0.0
 10
-54.961401
 20
164.036104
 30
0.0
 10
-54.437357
 20
163.970864
 30
0.0
 10
-54.374657
 20
163.976464
 30
0.0
 10
-54.352407
 20
163.984164
 30
0.0
 10
-54.336317
 20
163.994874
 30
0.0
 10
-54.326417
 20
164.008534
 30
0.0
 10
-54.263537
 20
164.148771
 30
0.0
 10
-54.068767
 20
164.575177
 30
0.0
 10
-53.871019
 20
165.000210
 30
0.0
 10
-53.805219
 20
165.139099
 30
0.0
 10
-53.801219
 20
165.155479
 30
0.0
 10
-53.803519
 20
165.174669
 30
0.0
 10
-53.812119
 20
165.196549
 30
0.0
 10
-53.848609
 20
165.247839
 30
0.0
 10
-54.238555
 20
165.603955
 30
0.0
 10
-54.517611
 20
165.867911
 30
0.0
 10
-54.810633
 20
166.156937
 30
0.0
 10
-55.114398
 20
166.469381
 30
0.0
 10
-55.428148
 20
166.805908
 30
0.0
 10
-55.752878
 20
167.169155
 30
0.0
 10
-56.084087
 20
167.555657
 30
0.0
  0
SPLINE
  5
189
100
AcDbEntity
  8
0
 62
7
100
AcDbSpline
 70
8
 71
3
 72
8
 73
4
 74
0
 40
0
 40
0
 40
0
 40
0
 40
1
 40
1
 40
1
 40
1
 10
-53.721728
 20
171.869947
 30
0.0
 10
-53.517089
 20
172.211140
 30
0.0
 10
-53.309205
 20
172.550375
 30
0.0
 10
-53.098104
 20
172.887608
 30
0.0
  0
LWPOLYLINE
  5
18a
100
AcDbEntity
  8
0
 62
7
100
AcDbPolyline
 90
27
 70
0
 10
-55.542231
 20
168.619110
 30
0.0
 10
-55.034865
 20
168.578340
 30
0.0
 10
-54.550119
 20
168.529140
 30
0.0
 10
-54.093445
 20
168.473120
 30
0.0
 10
-53.662125
 20
168.411020
 30
0.0
 10
-53.256064
 20
168.343850
 30
0.0
 10
-52.878494
 20
168.273240
 30
0.0
 10
-52.361184
 20
168.167087
 30
0.0
 10
-52.298245
 20
168.167712
 30
0.0
 10
-52.275465
 20
168.173612
 30
0.0
 10
-52.258585
 20
168.183012
 30
0.0
 10
-52.247665
 20
168.195852
 30
0.0
 10
-52.173975
 20
168.330724
 30
0.0
 10
-51.946350
 20
168.740533
 30
0.0
 10
-51.715863
 20
169.148740
 30
0.0
 10
-51.639363
 20
169.282039
 30
0.0
 10
-51.634163
 20
169.298059
 30
0.0
 10
-51.634959
 20
169.317369
 30
0.0
 10
-51.641859
 20
169.339859
 30
0.0
 10
-51.674209
 20
169.393849
 30
0.0
 10
-52.035014
 20
169.779463
 30
0.0
 10
-52.292500
 20
170.064499
 30
0.0
 10
-52.561941
 20
170.375624
 30
0.0
 10
-52.840256
 20
170.710938
 30
0.0
 10
-53.126635
 20
171.071044
 30
0.0
 10
-53.421865
 20
171.458651
 30
0.0
 10
-53.721728
 20
171.869947
 30
0.0
  0
SPLINE
  5
18b
100
AcDbEntity
  8
0
 62
7
100
AcDbSpline
 70
8
 71
3
 72
8
 73
4
 74
0
 40
0
 40
0
 40
0
 40
0
 40
1
 40
1
 40
1
 40
1
 10
-51.028093
 20
175.985640
 30
0.0
 10
-50.797316
 20
176.309725
 30
0.0
 10
-50.563457
 20
176.631605
 30
0.0
 10
-50.326548
 20
176.951234
 30
0.0
  0
LWPOLYLINE
  5
18c
100
AcDbEntity
  8
0
 62
7
100
AcDbPolyline
 90
27
 70
0
 10
-53.098104
 20
172.887608
 30
0.0
 10
-52.595501
 20
172.807148
 30
0.0
 10
-52.116110
 20
172.720068
 30
0.0
 10
-51.665240
 20
172.628388
 30
0.0
 10
-51.240121
 20
172.532638
 30
0.0
 10
-50.840582
 20
172.433808
 30
0.0
 10
-50.469718
 20
172.333791
 30
0.0
 10
-49.962331
 20
172.187376
 30
0.0
 10
-49.899531
 20
172.183076
 30
0.0
 10
-49.876361
 20
172.187176
 30
0.0
 10
-49.858791
 20
172.195276
 30
0.0
 10
-49.846901
 20
172.207226
 30
0.0
 10
-49.762861
 20
172.335900
 30
0.0
 10
-49.503785
 20
172.726588
 30
0.0
 10
-49.241981
 20
173.115453
 30
0.0
 10
-49.155261
 20
173.242339
 30
0.0
 10
-49.148761
 20
173.257899
 30
0.0
 10
-49.148039
 20
173.277209
 30
0.0
 10
-49.153139
 20
173.300169
 30
0.0
 10
-49.181159
 20
173.356529
 30
0.0
 10
-49.510596
 20
173.769262
 30
0.0
 10
-49.744925
 20
174.073622
 30
0.0
 10
-49.989126
 20
174.404928
 30
0.0
 10
-50.240274
 20
174.761045
 30
0.0
 10
-50.497517
 20
175.142509
 30
0.0
 10
-50.761425
 20
175.552084
 30
0.0
 10
-51.028093
 20
175.985640
 30
0.0
  0
SPLINE
  5
18d
100
AcDbEntity
  8
0
 62
7
100
AcDbSpline
 70
8
 71
3
 72
8
 73
4
 74
0
 40
0
 40
0
 40
0
 40
0
 40
1
 40
1
 40
1
 40
1
 10
-48.019904
 20
179.877268
 30
0.0
 10
-47.764411
 20
180.182247
 30
0.0
 10
-47.506019
 20
180.484786
 30
0.0
 10
-47.244762
 20
180.784843
 30
0.0
  0
LWPOLYLINE
  5
18e
100
AcDbEntity
  8
0
 62
7
100
AcDbPolyline
 90
27
 70
0
 10
-50.326548
 20
176.951234
 30
0.0
 10
-49.831807
 20
176.831594
 30
0.0
 10
-49.360725
 20
176.707169
 30
0.0
 10
-48.918439
 20
176.580395
 30
0.0
 10
-48.502142
 20
176.451586
 30
0.0
 10
-48.111589
 20
176.321715
 30
0.0
 10
-47.749714
 20
176.192908
 30
0.0
 10
-47.255380
 20
176.007136
 30
0.0
 10
-47.193120
 20
175.997936
 30
0.0
 10
-47.169700
 20
176.000136
 30
0.0
 10
-47.151550
 20
176.006836
 30
0.0
 10
-47.138760
 20
176.017816
 30
0.0
 10
-47.044880
 20
176.139500
 30
0.0
 10
-46.755949
 20
176.508656
 30
0.0
 10
-46.464442
 20
176.875781
 30
0.0
 10
-46.368032
 20
176.995471
 30
0.0
 10
-46.360332
 20
177.010471
 30
0.0
 10
-46.358132
 20
177.029671
 30
0.0
 10
-46.361432
 20
177.052961
 30
0.0
 10
-46.384942
 20
177.111351
 30
0.0
 10
-46.680981
 20
177.548660
 30
0.0
 10
-46.890707
 20
177.870467
 30
0.0
 10
-47.108162
 20
178.219912
 30
0.0
 10
-47.330595
 20
178.594635
 30
0.0
 10
-47.557114
 20
178.995107
 30
0.0
 10
-47.788074
 20
179.424126
 30
0.0
 10
-48.019904
 20
179.877268
 30
0.0
  0
SPLINE
  5
18f
100
AcDbEntity
  8
0
 62
7
100
AcDbSpline
 70
8
 71
3
 72
8
 73
4
 74
0
 40
0
 40
0
 40
0
 40
0
 40
1
 40
1
 40
1
 40
1
 10
-44.715653
 20
183.520791
 30
0.0
 10
-44.437020
 20
183.804785
 30
0.0
 10
-44.155687
 20
184.086118
 30
0.0
 10
-43.871693
 20
184.364752
 30
0.0
  0
LWPOLYLINE
  5
190
100
AcDbEntity
  8
0
 62
7
100
AcDbPolyline
 90
27
 70
0
 10
-47.244762
 20
180.784843
 30
0.0
 10
-46.760933
 20
180.626754
 30
0.0
 10
-46.301066
 20
180.465751
 30
0.0
 10
-45.870090
 20
180.304667
 30
0.0
 10
-45.465183
 20
180.143592
 30
0.0
 10
-45.086023
 20
179.983480
 30
0.0
 10
-44.735370
 20
179.826678
 30
0.0
 10
-44.257135
 20
179.602694
 30
0.0
 10
-44.195785
 20
179.588614
 30
0.0
 10
-44.172265
 20
179.589014
 30
0.0
 10
-44.153655
 20
179.594214
 30
0.0
 10
-44.140045
 20
179.604114
 30
0.0
 10
-44.036909
 20
179.718057
 30
0.0
 10
-43.719905
 20
180.063405
 30
0.0
 10
-43.400493
 20
180.406528
 30
0.0
 10
-43.294992
 20
180.518285
 30
0.0
 10
-43.286192
 20
180.532635
 30
0.0
 10
-43.282492
 20
180.551595
 30
0.0
 10
-43.283892
 20
180.575075
 30
0.0
 10
-43.302742
 20
180.635125
 30
0.0
 10
-43.563558
 20
181.094312
 30
0.0
 10
-43.747389
 20
181.431582
 30
0.0
 10
-43.936756
 20
181.797010
 30
0.0
 10
-44.129103
 20
182.188031
 30
0.0
 10
-44.323504
 20
182.605041
 30
0.0
 10
-44.520091
 20
183.050858
 30
0.0
 10
-44.715653
 20
183.520791
 30
0.0
  0
SPLINE
  5
191
100
AcDbEntity
  8
0
 62
7
100
AcDbSpline
 70
8
 71
3
 72
8
 73
4
 74
0
 40
0
 40
0
 40
0
 40
0
 40
1
 40
1
 40
1
 40
1
 10
-41.135744
 20
186.893860
 30
0.0
 10
-40.835688
 20
187.155117
 30
0.0
 10
-40.533149
 20
187.413510
 30
0.0
 10
-40.228169
 20
187.669003
 30
0.0
  0
LWPOLYLINE
  5
192
100
AcDbEntity
  8
0
 62
7
100
AcDbPolyline
 90
27
 70
0
 10
-43.871693
 20
184.364752
 30
0.0
 10
-43.401759
 20
184.169190
 30
0.0
 10
-42.955942
 20
183.972603
 30
0.0
 10
-42.538933
 20
183.778201
 30
0.0
 10
-42.147912
 20
183.585854
 30
0.0
 10
-41.782483
 20
183.396487
 30
0.0
 10
-41.445213
 20
183.212656
 30
0.0
 10
-40.986027
 20
182.951841
 30
0.0
 10
-40.925977
 20
182.932991
 30
0.0
 10
-40.902497
 20
182.931591
 30
0.0
 10
-40.883537
 20
182.935291
 30
0.0
 10
-40.869187
 20
182.944091
 30
0.0
 10
-40.757430
 20
183.049592
 30
0.0
 10
-40.414307
 20
183.369003
 30
0.0
 10
-40.068958
 20
183.686007
 30
0.0
 10
-39.955015
 20
183.789143
 30
0.0
 10
-39.945115
 20
183.802753
 30
0.0
 10
-39.939915
 20
183.821363
 30
0.0
 10
-39.939515
 20
183.844883
 30
0.0
 10
-39.953595
 20
183.906233
 30
0.0
 10
-40.177579
 20
184.384469
 30
0.0
 10
-40.334382
 20
184.735122
 30
0.0
 10
-40.494494
 20
185.114281
 30
0.0
 10
-40.655569
 20
185.519188
 30
0.0
 10
-40.816653
 20
185.950165
 30
0.0
 10
-40.977656
 20
186.410031
 30
0.0
 10
-41.135744
 20
186.893860
 30
0.0
  0
SPLINE
  5
193
100
AcDbEntity
  8
0
 62
7
100
AcDbSpline
 70
8
 71
3
 72
8
 73
4
 74
0
 40
0
 40
0
 40
0
 40
0
 40
1
 40
1
 40
1
 40
1
 10
-37.302136
 20
189.975646
 30
0.0
 10
-36.982506
 20
190.212556
 30
0.0
 10
-36.660627
 20
190.446415
 30
0.0
 10
-36.336541
 20
190.677192
 30
0.0
  0
LWPOLYLINE
  5
194
100
AcDbEntity
  8
0
 62
7
100
AcDbPolyline
 90
27
 70
0
 10
-40.228169
 20
187.669003
 30
0.0
 10
-39.775027
 20
187.437173
 30
0.0
 10
-39.346009
 20
187.206213
 30
0.0
 10
-38.945537
 20
186.979693
 30
0.0
 10
-38.570813
 20
186.757260
 30
0.0
 10
-38.221368
 20
186.539805
 30
0.0
 10
-37.899561
 20
186.330080
 30
0.0
 10
-37.462253
 20
186.034041
 30
0.0
 10
-37.403863
 20
186.010531
 30
0.0
 10
-37.380573
 20
186.007231
 30
0.0
 10
-37.361373
 20
186.009431
 30
0.0
 10
-37.346373
 20
186.017131
 30
0.0
 10
-37.226683
 20
186.113541
 30
0.0
 10
-36.859557
 20
186.405047
 30
0.0
 10
-36.490401
 20
186.693978
 30
0.0
 10
-36.368717
 20
186.787858
 30
0.0
 10
-36.357737
 20
186.800648
 30
0.0
 10
-36.351037
 20
186.818798
 30
0.0
 10
-36.348837
 20
186.842218
 30
0.0
 10
-36.358037
 20
186.904478
 30
0.0
 10
-36.543809
 20
187.398813
 30
0.0
 10
-36.672616
 20
187.760688
 30
0.0
 10
-36.802487
 20
188.151240
 30
0.0
 10
-36.931296
 20
188.567537
 30
0.0
 10
-37.058070
 20
189.009824
 30
0.0
 10
-37.182496
 20
189.480906
 30
0.0
 10
-37.302136
 20
189.975646
 30
0.0
  0
SPLINE
  5
195
100
AcDbEntity
  8
0
 62
7
100
AcDbSpline
 70
8
 71
3
 72
8
 73
4
 74
0
 40
0
 40
0
 40
0
 40
0
 40
1
 40
1
 40
1
 40
1
 10
-33.238509
 20
192.747203
 30
0.0
 10
-32.901277
 20
192.958304
 30
0.0
 10
-32.562041
 20
193.166188
 30
0.0
 10
-32.220848
 20
193.370826
 30
0.0
  0
LWPOLYLINE
  5
196
100
AcDbEntity
  8
0
 62
7
100
AcDbPolyline
 90
27
 70
0
 10
-36.336541
 20
190.677192
 30
0.0
 10
-35.902986
 20
190.410524
 30
0.0
 10
-35.493411
 20
190.146615
 30
0.0
 10
-35.111946
 20
189.889372
 30
0.0
 10
-34.755829
 20
189.638224
 30
0.0
 10
-34.424524
 20
189.394024
 30
0.0
 10
-34.120164
 20
189.159695
 30
0.0
 10
-33.707430
 20
188.830258
 30
0.0
 10
-33.651070
 20
188.802238
 30
0.0
 10
-33.628110
 20
188.797138
 30
0.0
 10
-33.608800
 20
188.797860
 30
0.0
 10
-33.593240
 20
188.804360
 30
0.0
 10
-33.466354
 20
188.891080
 30
0.0
 10
-33.077489
 20
189.152884
 30
0.0
 10
-32.686802
 20
189.411960
 30
0.0
 10
-32.558128
 20
189.496000
 30
0.0
 10
-32.546178
 20
189.507890
 30
0.0
 10
-32.538078
 20
189.525460
 30
0.0
 10
-32.533978
 20
189.548630
 30
0.0
 10
-32.538278
 20
189.611430
 30
0.0
 10
-32.684693
 20
190.118816
 30
0.0
 10
-32.784710
 20
190.489681
 30
0.0
 10
-32.883540
 20
190.889220
 30
0.0
 10
-32.979290
 20
191.314338
 30
0.0
 10
-33.070969
 20
191.765208
 30
0.0
 10
-33.158049
 20
192.244600
 30
0.0
 10
-33.238509
 20
192.747203
 30
0.0
  0
SPLINE
  5
197
100
AcDbEntity
  8
0
 62
7
100
AcDbSpline
 70
8
 71
3
 72
8
 73
4
 74
0
 40
0
 40
0
 40
0
 40
0
 40
1
 40
1
 40
1
 40
1
 10
-28.970011
 20
195.191329
 30
0.0
 10
-28.617256
 20
195.375321
 30
0.0
 10
-28.262755
 20
195.555948
 30
0.0
 10
-27.906559
 20
195.733186
 30
0.0
  0
LWPOLYLINE
  5
198
100
AcDbEntity
  8
0
 62
7
100
AcDbPolyline
 90
27
 70
0
 10
-32.220848
 20
193.370826
 30
0.0
 10
-31.809552
 20
193.070963
 30
0.0
 10
-31.421945
 20
192.775734
 30
0.0
 10
-31.061840
 20
192.489355
 30
0.0
 10
-30.726526
 20
192.211040
 30
0.0
 10
-30.415400
 20
191.941598
 30
0.0
 10
-30.130364
 20
191.684112
 30
0.0
 10
-29.744751
 20
191.323307
 30
0.0
 10
-29.690761
 20
191.290957
 30
0.0
 10
-29.668271
 20
191.284057
 30
0.0
 10
-29.648961
 20
191.283261
 30
0.0
 10
-29.632941
 20
191.288461
 30
0.0
 10
-29.499642
 20
191.364961
 30
0.0
 10
-29.091435
 20
191.595448
 30
0.0
 10
-28.681625
 20
191.823073
 30
0.0
 10
-28.546753
 20
191.896763
 30
0.0
 10
-28.533913
 20
191.907683
 30
0.0
 10
-28.524513
 20
191.924563
 30
0.0
 10
-28.518613
 20
191.947343
 30
0.0
 10
-28.517988
 20
192.010283
 30
0.0
 10
-28.624141
 20
192.527593
 30
0.0
 10
-28.694751
 20
192.905162
 30
0.0
 10
-28.761921
 20
193.311223
 30
0.0
 10
-28.824021
 20
193.742544
 30
0.0
 10
-28.880041
 20
194.199218
 30
0.0
 10
-28.929241
 20
194.683963
 30
0.0
 10
-28.970011
 20
195.191329
 30
0.0
  0
SPLINE
  5
199
100
AcDbEntity
  8
0
 62
7
100
AcDbSpline
 70
8
 71
3
 72
8
 73
4
 74
0
 40
0
 40
0
 40
0
 40
0
 40
1
 40
1
 40
1
 40
1
 10
-24.522836
 20
197.293162
 30
0.0
 10
-24.156732
 20
197.448910
 30
0.0
 10
-23.789152
 20
197.601166
 30
0.0
 10
-23.420147
 20
197.749910
 30
0.0
  0
LWPOLYLINE
  5
19a
100
AcDbEntity
  8
0
 62
7
100
AcDbPolyline
 90
27
 70
0
 10
-27.906559
 20
195.733186
 30
0.0
 10
-27.520057
 20
195.401977
 30
0.0
 10
-27.156809
 20
195.077246
 30
0.0
 10
-26.820282
 20
194.763496
 30
0.0
 10
-26.507839
 20
194.459731
 30
0.0
 10
-26.218813
 20
194.166710
 30
0.0
 10
-25.954857
 20
193.887654
 30
0.0
 10
-25.598740
 20
193.497707
 30
0.0
 10
-25.547450
 20
193.461217
 30
0.0
 10
-25.525570
 20
193.452617
 30
0.0
 10
-25.506380
 20
193.450317
 30
0.0
 10
-25.490000
 20
193.454317
 30
0.0
 10
-25.351111
 20
193.520117
 30
0.0
 10
-24.926079
 20
193.717866
 30
0.0
 10
-24.499673
 20
193.912636
 30
0.0
 10
-24.359436
 20
193.975516
 30
0.0
 10
-24.345776
 20
193.985416
 30
0.0
 10
-24.335066
 20
194.001506
 30
0.0
 10
-24.327366
 20
194.023756
 30
0.0
 10
-24.321766
 20
194.086456
 30
0.0
 10
-24.387006
 20
194.610499
 30
0.0
 10
-24.427776
 20
194.992445
 30
0.0
 10
-24.462886
 20
195.402524
 30
0.0
 10
-24.490956
 20
195.837389
 30
0.0
 10
-24.510976
 20
196.297049
 30
0.0
 10
-24.521996
 20
196.784161
 30
0.0
 10
-24.522836
 20
197.293162
 30
0.0
  0
SPLINE
  5
19b
100
AcDbEntity
  8
0
 62
7
100
AcDbSpline
 70
8
 71
3
 72
8
 73
4
 74
0
 40
0
 40
0
 40
0
 40
0
 40
1
 40
1
 40
1
 40
1
 10
-19.924525
 20
199.039565
 30
0.0
 10
-19.547329
 20
199.166108
 30
0.0
 10
-19.168937
 20
199.289055
 30
0.0
 10
-18.789399
 20
199.408389
 30
0.0
  0
LWPOLYLINE
  5
19c
100
AcDbEntity
  8
0
 62
7
100
AcDbPolyline
 90
27
 70
0
 10
-23.420147
 20
197.749910
 30
0.0
 10
-23.060824
 20
197.389399
 30
0.0
 10
-22.724173
 20
197.037169
 30
0.0
 10
-22.413301
 20
196.697982
 30
0.0
 10
-22.125652
 20
196.370640
 30
0.0
 10
-21.860508
 20
196.055844
 30
0.0
 10
-21.619262
 20
195.756939
 30
0.0
 10
-21.294837
 20
195.340253
 30
0.0
 10
-21.246567
 20
195.299853
 30
0.0
 10
-21.225427
 20
195.289533
 30
0.0
 10
-21.206477
 20
195.285733
 30
0.0
 10
-21.189837
 20
195.288433
 30
0.0
 10
-21.046213
 20
195.343133
 30
0.0
 10
-20.606975
 20
195.506925
 30
0.0
 10
-20.166602
 20
195.667639
 30
0.0
 10
-20.021865
 20
195.719319
 30
0.0
 10
-20.007475
 20
195.728119
 30
0.0
 10
-19.995535
 20
195.743319
 30
0.0
 10
-19.986135
 20
195.764899
 30
0.0
 10
-19.975675
 20
195.826969
 30
0.0
 10
-19.999595
 20
196.354515
 30
0.0
 10
-20.010275
 20
196.738482
 30
0.0
 10
-20.013075
 20
197.150052
 30
0.0
 10
-20.006975
 20
197.585778
 30
0.0
 10
-19.990865
 20
198.045592
 30
0.0
 10
-19.963625
 20
198.532067
 30
0.0
 10
-19.924525
 20
199.039565
 30
0.0
  0
SPLINE
  5
19d
100
AcDbEntity
  8
0
 62
7
100
AcDbSpline
 70
8
 71
3
 72
8
 73
4
 74
0
 40
0
 40
0
 40
0
 40
0
 40
1
 40
1
 40
1
 40
1
 10
-15.203412
 20
200.419762
 30
0.0
 10
-14.817451
 20
200.516321
 30
0.0
 10
-14.430579
 20
200.609201
 30
0.0
 10
-14.042848
 20
200.698389
 30
0.0
  0
LWPOLYLINE
  5
19e
100
AcDbEntity
  8
0
 62
7
100
AcDbPolyline
 90
27
 70
0
 10
-18.789399
 20
199.408389
 30
0.0
 10
-18.459469
 20
199.020797
 30
0.0
 10
-18.151492
 20
198.643239
 30
0.0
 10
-17.868190
 20
198.280708
 30
0.0
 10
-17.607111
 20
197.931805
 30
0.0
 10
-17.367483
 20
197.597178
 30
0.0
 10
-17.150431
 20
197.280266
 30
0.0
 10
-16.859700
 20
196.839411
 30
0.0
 10
-16.814750
 20
196.795351
 30
0.0
 10
-16.794490
 20
196.783401
 30
0.0
 10
-16.775900
 20
196.778101
 30
0.0
 10
-16.759100
 20
196.779501
 30
0.0
 10
-16.611627
 20
196.822761
 30
0.0
 10
-16.160893
 20
196.951586
 30
0.0
 10
-15.709268
 20
197.077253
 30
0.0
 10
-15.560921
 20
197.117423
 30
0.0
 10
-15.545881
 20
197.125023
 30
0.0
 10
-15.532791
 20
197.139243
 30
0.0
 10
-15.521761
 20
197.160023
 30
0.0
 10
-15.506461
 20
197.221083
 30
0.0
 10
-15.488921
 20
197.748880
 30
0.0
 10
-15.469441
 20
198.132501
 30
0.0
 10
-15.439971
 20
198.543024
 30
0.0
 10
-15.399661
 20
198.976925
 30
0.0
 10
-15.347531
 20
199.434058
 30
0.0
 10
-15.282212
 20
199.916897
 30
0.0
 10
-15.203412
 20
200.419762
 30
0.0
  0
SPLINE
  5
19f
100
AcDbEntity
  8
0
 62
7
100
AcDbSpline
 70
8
 71
3
 72
8
 73
4
 74
0
 40
0
 40
0
 40
0
 40
0
 40
1
 40
1
 40
1
 40
1
 10
-10.388560
 20
201.425288
 30
0.0
 10
-9.996213
 20
201.491267
 30
0.0
 10
-9.603246
 20
201.553507
 30
0.0
 10
-9.209713
 20
201.611999
 30
0.0
  0
LWPOLYLINE
  5
1a0
100
AcDbEntity
  8
0
 62
7
100
AcDbPolyline
 90
27
 70
0
 10
-14.042848
 20
200.698389
 30
0.0
 10
-13.744344
 20
200.286105
 30
0.0
 10
-13.466940
 20
199.885547
 30
0.0
 10
-13.212955
 20
199.501906
 30
0.0
 10
-12.980056
 20
199.133596
 30
0.0
 10
-12.767421
 20
198.781198
 30
0.0
 10
-12.575903
 20
198.448234
 30
0.0
 10
-12.320657
 20
197.985927
 30
0.0
 10
-12.279307
 20
197.938477
 30
0.0
 10
-12.260047
 20
197.924977
 30
0.0
 10
-12.241927
 20
197.918277
 30
0.0
 10
-12.225067
 20
197.918316
 30
0.0
 10
-12.074655
 20
197.949876
 30
0.0
 10
-11.615203
 20
198.042936
 30
0.0
 10
-11.155110
 20
198.132786
 30
0.0
 10
-11.004069
 20
198.161186
 30
0.0
 10
-10.988479
 20
198.167586
 30
0.0
 10
-10.974309
 20
198.180736
 30
0.0
 10
-10.961679
 20
198.200576
 30
0.0
 10
-10.941639
 20
198.260246
 30
0.0
 10
-10.882739
 20
198.785041
 30
0.0
 10
-10.833219
 20
199.165951
 30
0.0
 10
-10.771629
 20
199.572895
 30
0.0
 10
-10.697409
 20
200.002296
 30
0.0
 10
-10.609569
 20
200.453931
 30
0.0
 10
-10.506566
 20
200.930155
 30
0.0
 10
-10.388560
 20
201.425288
 30
0.0
  0
SPLINE
  5
1a1
100
AcDbEntity
  8
0
 62
7
100
AcDbSpline
 70
8
 71
3
 72
8
 73
4
 74
0
 40
0
 40
0
 40
0
 40
0
 40
1
 40
1
 40
1
 40
1
 10
-5.509650
 20
202.049959
 30
0.0
 10
-5.113336
 20
202.084950
 30
0.0
 10
-4.716698
 20
202.116165
 30
0.0
 10
-4.319789
 20
202.143599
 30
0.0
  0
LWPOLYLINE
  5
1a2
100
AcDbEntity
  8
0
 62
7
100
AcDbPolyline
 90
27
 70
0
 10
-9.209713
 20
201.611999
 30
0.0
 10
-8.944477
 20
201.177566
 30
0.0
 10
-8.699355
 20
200.756479
 30
0.0
 10
-8.476253
 20
200.354093
 30
0.0
 10
-8.272969
 20
199.968644
 30
0.0
 10
-8.088638
 20
199.600649
 30
0.0
 10
-7.923835
 20
199.253686
 30
0.0
 10
-7.705648
 20
198.772778
 30
0.0
 10
-7.668146
 20
198.722228
 30
0.0
 10
-7.650000
 20
198.707258
 30
0.0
 10
-7.632463
 20
198.699158
 30
0.0
 10
-7.615656
 20
198.697858
 30
0.0
 10
-7.463231
 20
198.717518
 30
0.0
 10
-6.997893
 20
198.774248
 30
0.0
 10
-6.532170
 20
198.827718
 30
0.0
 10
-6.379366
 20
198.844178
 30
0.0
 10
-6.363323
 20
198.849378
 30
0.0
 10
-6.348168
 20
198.861368
 30
0.0
 10
-6.334019
 20
198.880158
 30
0.0
 10
-6.309355
 20
198.938068
 30
0.0
 10
-6.209462
 20
199.456623
 30
0.0
 10
-6.130209
 20
199.832473
 30
0.0
 10
-6.036878
 20
200.233331
 30
0.0
 10
-5.929193
 20
200.655585
 30
0.0
 10
-5.806190
 20
201.098935
 30
0.0
 10
-5.666141
 20
201.565611
 30
0.0
 10
-5.509650
 20
202.049959
 30
0.0
  0
SPLINE
  5
1a3
100
AcDbEntity
  8
0
 62
7
100
AcDbSpline
 70
8
 71
3
 72
8
 73
4
 74
0
 40
0
 40
0
 40
0
 40
0
 40
1
 40
1
 40
1
 40
1
 10
-0.596772
 20
202.289786
 30
0.0
 10
-0.198934
 20
202.293576
 30
0.0
 10
0.198931
 20
202.293576
 30
0.0
 10
0.596769
 20
202.289786
 30
0.0
  0
LWPOLYLINE
  5
1a4
100
AcDbEntity
  8
0
 62
7
100
AcDbPolyline
 90
27
 70
0
 10
-4.319789
 20
202.143599
 30
0.0
 10
-4.089456
 20
201.689695
 30
0.0
 10
-3.878127
 20
201.250673
 30
0.0
 10
-3.687284
 20
200.832024
 30
0.0
 10
-3.514869
 20
200.431814
 30
0.0
 10
-3.359979
 20
200.050491
 30
0.0
 10
-3.222906
 20
199.691666
 30
0.0
 10
-3.043123
 20
199.195122
 30
0.0
 10
-3.009703
 20
199.141782
 30
0.0
 10
-2.992788
 20
199.125432
 30
0.0
 10
-2.975943
 20
199.115932
 30
0.0
 10
-2.959288
 20
199.113332
 30
0.0
 10
-2.805790
 20
199.120932
 30
0.0
 10
-2.337436
 20
199.140972
 30
0.0
 10
-1.868953
 20
199.157732
 30
0.0
 10
-1.715329
 20
199.162132
 30
0.0
 10
-1.698929
 20
199.166032
 30
0.0
 10
-1.682879
 20
199.176802
 30
0.0
 10
-1.667299
 20
199.194432
 30
0.0
 10
-1.638167
 20
199.250232
 30
0.0
 10
-1.497897
 20
199.759351
 30
0.0
 10
-1.389399
 20
200.127824
 30
0.0
 10
-1.264905
 20
200.520124
 30
0.0
 10
-1.124422
 20
200.932627
 30
0.0
 10
-0.967014
 20
201.364960
 30
0.0
 10
-0.790782
 20
201.819209
 30
0.0
 10
-0.596772
 20
202.289786
 30
0.0
  0
SPLINE
  5
1a5
100
AcDbEntity
  8
0
 62
7
100
AcDbSpline
 70
8
 71
3
 72
8
 73
4
 74
0
 40
0
 40
0
 40
0
 40
0
 40
1
 40
1
 40
1
 40
1
 10
4.319787
 20
202.143599
 30
0.0
 10
4.716695
 20
202.116165
 30
0.0
 10
5.113334
 20
202.084950
 30
0.0
 10
5.509648
 20
202.049959
 30
0.0
  0
LWPOLYLINE
  5
1a6
100
AcDbEntity
  8
0
 62
7
100
AcDbPolyline
 90
27
 70
0
 10
0.596769
 20
202.289786
 30
0.0
 10
0.790779
 20
201.819209
 30
0.0
 10
0.967011
 20
201.364960
 30
0.0
 10
1.124419
 20
200.932627
 30
0.0
 10
1.264903
 20
200.520124
 30
0.0
 10
1.389397
 20
200.127824
 30
0.0
 10
1.497894
 20
199.759351
 30
0.0
 10
1.638164
 20
199.250232
 30
0.0
 10
1.667296
 20
199.194432
 30
0.0
 10
1.682876
 20
199.176802
 30
0.0
 10
1.698926
 20
199.166032
 30
0.0
 10
1.715326
 20
199.162132
 30
0.0
 10
1.868951
 20
199.157732
 30
0.0
 10
2.337434
 20
199.140972
 30
0.0
 10
2.805788
 20
199.120932
 30
0.0
 10
2.959286
 20
199.113332
 30
0.0
 10
2.975941
 20
199.115932
 30
0.0
 10
2.992786
 20
199.125432
 30
0.0
 10
3.009701
 20
199.141782
 30
0.0
 10
3.043121
 20
199.195122
 30
0.0
 10
3.222903
 20
199.691666
 30
0.0
 10
3.359977
 20
200.050491
 30
0.0
 10
3.514867
 20
200.431814
 30
0.0
 10
3.687282
 20
200.832024
 30
0.0
 10
3.878125
 20
201.250673
 30
0.0
 10
4.089453
 20
201.689695
 30
0.0
 10
4.319787
 20
202.143599
 30
0.0
  0
SPLINE
  5
1a7
100
AcDbEntity
  8
0
 62
7
100
AcDbSpline
 70
8
 71
3
 72
8
 73
4
 74
0
 40
0
 40
0
 40
0
 40
0
 40
1
 40
1
 40
1
 40
1
 10
9.209711
 20
201.611999
 30
0.0
 10
9.603243
 20
201.553507
 30
0.0
 10
9.996210
 20
201.491267
 30
0.0
 10
10.388557
 20
201.425288
 30
0.0
  0
LWPOLYLINE
  5
1a8
100
AcDbEntity
  8
0
 62
7
100
AcDbPolyline
 90
27
 70
0
 10
5.509648
 20
202.049959
 30
0.0
 10
5.666139
 20
201.565611
 30
0.0
 10
5.806188
 20
201.098935
 30
0.0
 10
5.929190
 20
200.655585
 30
0.0
 10
6.036876
 20
200.233331
 30
0.0
 10
6.130207
 20
199.832473
 30
0.0
 10
6.209460
 20
199.456623
 30
0.0
 10
6.309353
 20
198.938068
 30
0.0
 10
6.334017
 20
198.880158
 30
0.0
 10
6.348166
 20
198.861368
 30
0.0
 10
6.363321
 20
198.849378
 30
0.0
 10
6.379364
 20
198.844178
 30
0.0
 10
6.532168
 20
198.827718
 30
0.0
 10
6.997891
 20
198.774248
 30
0.0
 10
7.463228
 20
198.717518
 30
0.0
 10
7.615654
 20
198.697858
 30
0.0
 10
7.632461
 20
198.699158
 30
0.0
 10
7.649998
 20
198.707258
 30
0.0
 10
7.668144
 20
198.722228
 30
0.0
 10
7.705646
 20
198.772778
 30
0.0
 10
7.923833
 20
199.253686
 30
0.0
 10
8.088636
 20
199.600649
 30
0.0
 10
8.272967
 20
199.968644
 30
0.0
 10
8.476250
 20
200.354093
 30
0.0
 10
8.699352
 20
200.756479
 30
0.0
 10
8.944475
 20
201.177566
 30
0.0
 10
9.209711
 20
201.611999
 30
0.0
  0
SPLINE
  5
1a9
100
AcDbEntity
  8
0
 62
7
100
AcDbSpline
 70
8
 71
3
 72
8
 73
4
 74
0
 40
0
 40
0
 40
0
 40
0
 40
1
 40
1
 40
1
 40
1
 10
14.042845
 20
200.698389
 30
0.0
 10
14.430576
 20
200.609201
 30
0.0
 10
14.817448
 20
200.516321
 30
0.0
 10
15.203409
 20
200.419762
 30
0.0
  0
LWPOLYLINE
  5
1aa
100
AcDbEntity
  8
0
 62
7
100
AcDbPolyline
 90
27
 70
0
 10
10.388557
 20
201.425288
 30
0.0
 10
10.506563
 20
200.930155
 30
0.0
 10
10.609566
 20
200.453931
 30
0.0
 10
10.697406
 20
200.002296
 30
0.0
 10
10.771626
 20
199.572895
 30
0.0
 10
10.833216
 20
199.165951
 30
0.0
 10
10.882736
 20
198.785041
 30
0.0
 10
10.941636
 20
198.260246
 30
0.0
 10
10.961676
 20
198.200576
 30
0.0
 10
10.974306
 20
198.180736
 30
0.0
 10
10.988476
 20
198.167586
 30
0.0
 10
11.004066
 20
198.161186
 30
0.0
 10
11.155107
 20
198.132786
 30
0.0
 10
11.615200
 20
198.042936
 30
0.0
 10
12.074652
 20
197.949876
 30
0.0
 10
12.225064
 20
197.918316
 30
0.0
 10
12.241924
 20
197.918277
 30
0.0
 10
12.260044
 20
197.924977
 30
0.0
 10
12.279304
 20
197.938477
 30
0.0
 10
12.320654
 20
197.985927
 30
0.0
 10
12.575900
 20
198.448234
 30
0.0
 10
12.767418
 20
198.781198
 30
0.0
 10
12.980053
 20
199.133596
 30
0.0
 10
13.212952
 20
199.501906
 30
0.0
 10
13.466937
 20
199.885547
 30
0.0
 10
13.744341
 20
200.286105
 30
0.0
 10
14.042845
 20
200.698389
 30
0.0
  0
SPLINE
  5
1ab
100
AcDbEntity
  8
0
 62
7
100
AcDbSpline
 70
8
 71
3
 72
8
 73
4
 74
0
 40
0
 40
0
 40
0
 40
0
 40
1
 40
1
 40
1
 40
1
 10
18.789396
 20
199.408389
 30
0.0
 10
19.168934
 20
199.289055
 30
0.0
 10
19.547326
 20
199.166108
 30
0.0
 10
19.924522
 20
199.039565
 30
0.0
  0
LWPOLYLINE
  5
1ac
100
AcDbEntity
  8
0
 62
7
100
AcDbPolyline
 90
27
 70
0
 10
15.203409
 20
200.419762
 30
0.0
 10
15.282209
 20
199.916897
 30
0.0
 10
15.347528
 20
199.434058
 30
0.0
 10
15.399658
 20
198.976925
 30
0.0
 10
15.439968
 20
198.543024
 30
0.0
 10
15.469438
 20
198.132501
 30
0.0
 10
15.488918
 20
197.748880
 30
0.0
 10
15.506458
 20
197.221083
 30
0.0
 10
15.521758
 20
197.160023
 30
0.0
 10
15.532788
 20
197.139243
 30
0.0
 10
15.545878
 20
197.125023
 30
0.0
 10
15.560918
 20
197.117423
 30
0.0
 10
15.709265
 20
197.077253
 30
0.0
 10
16.160890
 20
196.951586
 30
0.0
 10
16.611624
 20
196.822761
 30
0.0
 10
16.759097
 20
196.779501
 30
0.0
 10
16.775897
 20
196.778101
 30
0.0
 10
16.794487
 20
196.783401
 30
0.0
 10
16.814747
 20
196.795351
 30
0.0
 10
16.859697
 20
196.839411
 30
0.0
 10
17.150428
 20
197.280266
 30
0.0
 10
17.367480
 20
197.597178
 30
0.0
 10
17.607108
 20
197.931805
 30
0.0
 10
17.868187
 20
198.280708
 30
0.0
 10
18.151489
 20
198.643239
 30
0.0
 10
18.459466
 20
199.020797
 30
0.0
 10
18.789396
 20
199.408389
 30
0.0
  0
SPLINE
  5
1ad
100
AcDbEntity
  8
0
 62
7
100
AcDbSpline
 70
8
 71
3
 72
8
 73
4
 74
0
 40
0
 40
0
 40
0
 40
0
 40
1
 40
1
 40
1
 40
1
 10
23.420144
 20
197.749910
 30
0.0
 10
23.789149
 20
197.601166
 30
0.0
 10
24.156729
 20
197.448910
 30
0.0
 10
24.522833
 20
197.293162
 30
0.0
  0
LWPOLYLINE
  5
1ae
100
AcDbEntity
  8
0
 62
7
100
AcDbPolyline
 90
27
 70
0
 10
19.924522
 20
199.039565
 30
0.0
 10
19.963622
 20
198.532067
 30
0.0
 10
19.990862
 20
198.045592
 30
0.0
 10
20.006972
 20
197.585778
 30
0.0
 10
20.013072
 20
197.150052
 30
0.0
 10
20.010272
 20
196.738482
 30
0.0
 10
19.999592
 20
196.354515
 30
0.0
 10
19.975672
 20
195.826969
 30
0.0
 10
19.986132
 20
195.764899
 30
0.0
 10
19.995532
 20
195.743319
 30
0.0
 10
20.007472
 20
195.728119
 30
0.0
 10
20.021862
 20
195.719319
 30
0.0
 10
20.166599
 20
195.667639
 30
0.0
 10
20.606972
 20
195.506925
 30
0.0
 10
21.046210
 20
195.343133
 30
0.0
 10
21.189834
 20
195.288433
 30
0.0
 10
21.206474
 20
195.285733
 30
0.0
 10
21.225424
 20
195.289533
 30
0.0
 10
21.246564
 20
195.299853
 30
0.0
 10
21.294834
 20
195.340253
 30
0.0
 10
21.619259
 20
195.756939
 30
0.0
 10
21.860505
 20
196.055844
 30
0.0
 10
22.125649
 20
196.370640
 30
0.0
 10
22.413298
 20
196.697982
 30
0.0
 10
22.724170
 20
197.037169
 30
0.0
 10
23.060821
 20
197.389399
 30
0.0
 10
23.420144
 20
197.749910
 30
0.0
  0
SPLINE
  5
1af
100
AcDbEntity
  8
0
 62
7
100
AcDbSpline
 70
8
 71
3
 72
8
 73
4
 74
0
 40
0
 40
0
 40
0
 40
0
 40
1
 40
1
 40
1
 40
1
 10
27.906556
 20
195.733186
 30
0.0
 10
28.262752
 20
195.555948
 30
0.0
 10
28.617253
 20
195.375321
 30
0.0
 10
28.970008
 20
195.191329
 30
0.0
  0
LWPOLYLINE
  5
1b0
100
AcDbEntity
  8
0
 62
7
100
AcDbPolyline
 90
27
 70
0
 10
24.522833
 20
197.293162
 30
0.0
 10
24.521993
 20
196.784161
 30
0.0
 10
24.510973
 20
196.297049
 30
0.0
 10
24.490953
 20
195.837389
 30
0.0
 10
24.462883
 20
195.402524
 30
0.0
 10
24.427773
 20
194.992445
 30
0.0
 10
24.387003
 20
194.610499
 30
0.0
 10
24.321763
 20
194.086456
 30
0.0
 10
24.327363
 20
194.023756
 30
0.0
 10
24.335063
 20
194.001506
 30
0.0
 10
24.345773
 20
193.985416
 30
0.0
 10
24.359433
 20
193.975516
 30
0.0
 10
24.499670
 20
193.912636
 30
0.0
 10
24.926076
 20
193.717866
 30
0.0
 10
25.351108
 20
193.520117
 30
0.0
 10
25.489997
 20
193.454317
 30
0.0
 10
25.506377
 20
193.450317
 30
0.0
 10
25.525567
 20
193.452617
 30
0.0
 10
25.547447
 20
193.461217
 30
0.0
 10
25.598737
 20
193.497707
 30
0.0
 10
25.954854
 20
193.887654
 30
0.0
 10
26.218810
 20
194.166710
 30
0.0
 10
26.507836
 20
194.459731
 30
0.0
 10
26.820279
 20
194.763496
 30
0.0
 10
27.156806
 20
195.077246
 30
0.0
 10
27.520054
 20
195.401977
 30
0.0
 10
27.906556
 20
195.733186
 30
0.0
  0
SPLINE
  5
1b1
100
AcDbEntity
  8
0
 62
7
100
AcDbSpline
 70
8
 71
3
 72
8
 73
4
 74
0
 40
0
 40
0
 40
0
 40
0
 40
1
 40
1
 40
1
 40
1
 10
32.220845
 20
193.370826
 30
0.0
 10
32.562038
 20
193.166188
 30
0.0
 10
32.901274
 20
192.958304
 30
0.0
 10
33.238506
 20
192.747203
 30
0.0
  0
LWPOLYLINE
  5
1b2
100
AcDbEntity
  8
0
 62
7
100
AcDbPolyline
 90
27
 70
0
 10
28.970008
 20
195.191329
 30
0.0
 10
28.929238
 20
194.683963
 30
0.0
 10
28.880038
 20
194.199218
 30
0.0
 10
28.824018
 20
193.742544
 30
0.0
 10
28.761918
 20
193.311223
 30
0.0
 10
28.694748
 20
192.905162
 30
0.0
 10
28.624138
 20
192.527593
 30
0.0
 10
28.517985
 20
192.010283
 30
0.0
 10
28.518610
 20
191.947343
 30
0.0
 10
28.524510
 20
191.924563
 30
0.0
 10
28.533910
 20
191.907683
 30
0.0
 10
28.546750
 20
191.896763
 30
0.0
 10
28.681622
 20
191.823073
 30
0.0
 10
29.091432
 20
191.595448
 30
0.0
 10
29.499639
 20
191.364961
 30
0.0
 10
29.632938
 20
191.288461
 30
0.0
 10
29.648958
 20
191.283261
 30
0.0
 10
29.668268
 20
191.284057
 30
0.0
 10
29.690758
 20
191.290957
 30
0.0
 10
29.744748
 20
191.323307
 30
0.0
 10
30.130361
 20
191.684112
 30
0.0
 10
30.415397
 20
191.941598
 30
0.0
 10
30.726523
 20
192.211040
 30
0.0
 10
31.061837
 20
192.489355
 30
0.0
 10
31.421942
 20
192.775734
 30
0.0
 10
31.809549
 20
193.070963
 30
0.0
 10
32.220845
 20
193.370826
 30
0.0
  0
SPLINE
  5
1b3
100
AcDbEntity
  8
0
 62
7
100
AcDbSpline
 70
8
 71
3
 72
8
 73
4
 74
0
 40
0
 40
0
 40
0
 40
0
 40
1
 40
1
 40
1
 40
1
 10
36.336538
 20
190.677192
 30
0.0
 10
36.660624
 20
190.446415
 30
0.0
 10
36.982503
 20
190.212556
 30
0.0
 10
37.302133
 20
189.975646
 30
0.0
  0
LWPOLYLINE
  5
1b4
100
AcDbEntity
  8
0
 62
7
100
AcDbPolyline
 90
27
 70
0
 10
33.238506
 20
192.747203
 30
0.0
 10
33.158046
 20
192.244600
 30
0.0
 10
33.070966
 20
191.765208
 30
0.0
 10
32.979287
 20
191.314338
 30
0.0
 10
32.883537
 20
190.889220
 30
0.0
 10
32.784707
 20
190.489681
 30
0.0
 10
32.684690
 20
190.118816
 30
0.0
 10
32.538275
 20
189.611430
 30
0.0
 10
32.533975
 20
189.548630
 30
0.0
 10
32.538075
 20
189.525460
 30
0.0
 10
32.546175
 20
189.507890
 30
0.0
 10
32.558125
 20
189.496000
 30
0.0
 10
32.686799
 20
189.411960
 30
0.0
 10
33.077486
 20
189.152884
 30
0.0
 10
33.466351
 20
188.891080
 30
0.0
 10
33.593237
 20
188.804360
 30
0.0
 10
33.608797
 20
188.797860
 30
0.0
 10
33.628107
 20
188.797138
 30
0.0
 10
33.651067
 20
188.802238
 30
0.0
 10
33.707427
 20
188.830258
 30
0.0
 10
34.120161
 20
189.159695
 30
0.0
 10
34.424521
 20
189.394024
 30
0.0
 10
34.755826
 20
189.638224
 30
0.0
 10
35.111943
 20
189.889372
 30
0.0
 10
35.493408
 20
190.146615
 30
0.0
 10
35.902983
 20
190.410524
 30
0.0
 10
36.336538
 20
190.677192
 30
0.0
  0
SPLINE
  5
1b5
100
AcDbEntity
  8
0
 62
7
100
AcDbSpline
 70
8
 71
3
 72
8
 73
4
 74
0
 40
0
 40
0
 40
0
 40
0
 40
1
 40
1
 40
1
 40
1
 10
40.228166
 20
187.669003
 30
0.0
 10
40.533146
 20
187.413510
 30
0.0
 10
40.835685
 20
187.155117
 30
0.0
 10
41.135741
 20
186.893860
 30
0.0
  0
LWPOLYLINE
  5
1b6
100
AcDbEntity
  8
0
 62
7
100
AcDbPolyline
 90
27
 70
0
 10
37.302133
 20
189.975646
 30
0.0
 10
37.182493
 20
189.480906
 30
0.0
 10
37.058067
 20
189.009824
 30
0.0
 10
36.931293
 20
188.567537
 30
0.0
 10
36.802484
 20
188.151240
 30
0.0
 10
36.672613
 20
187.760688
 30
0.0
 10
36.543806
 20
187.398813
 30
0.0
 10
36.358034
 20
186.904478
 30
0.0
 10
36.348834
 20
186.842218
 30
0.0
 10
36.351034
 20
186.818798
 30
0.0
 10
36.357734
 20
186.800648
 30
0.0
 10
36.368714
 20
186.787858
 30
0.0
 10
36.490398
 20
186.693978
 30
0.0
 10
36.859554
 20
186.405047
 30
0.0
 10
37.226680
 20
186.113541
 30
0.0
 10
37.346370
 20
186.017131
 30
0.0
 10
37.361370
 20
186.009431
 30
0.0
 10
37.380570
 20
186.007231
 30
0.0
 10
37.403860
 20
186.010531
 30
0.0
 10
37.462250
 20
186.034041
 30
0.0
 10
37.899558
 20
186.330080
 30
0.0
 10
38.221365
 20
186.539805
 30
0.0
 10
38.570810
 20
186.757260
 30
0.0
 10
38.945534
 20
186.979693
 30
0.0
 10
39.346006
 20
187.206213
 30
0.0
 10
39.775024
 20
187.437173
 30
0.0
 10
40.228166
 20
187.669003
 30
0.0
  0
SPLINE
  5
1b7
100
AcDbEntity
  8
0
 62
7
100
AcDbSpline
 70
8
 71
3
 72
8
 73
4
 74
0
 40
0
 40
0
 40
0
 40
0
 40
1
 40
1
 40
1
 40
1
 10
43.871690
 20
184.364752
 30
0.0
 10
44.155684
 20
184.086118
 30
0.0
 10
44.437017
 20
183.804785
 30
0.0
 10
44.715650
 20
183.520791
 30
0.0
  0
LWPOLYLINE
  5
1b8
100
AcDbEntity
  8
0
 62
7
100
AcDbPolyline
 90
27
 70
0
 10
41.135741
 20
186.893860
 30
0.0
 10
40.977653
 20
186.410031
 30
0.0
 10
40.816650
 20
185.950165
 30
0.0
 10
40.655566
 20
185.519188
 30
0.0
 10
40.494491
 20
185.114281
 30
0.0
 10
40.334379
 20
184.735122
 30
0.0
 10
40.177576
 20
184.384469
 30
0.0
 10
39.953592
 20
183.906233
 30
0.0
 10
39.939512
 20
183.844883
 30
0.0
 10
39.939912
 20
183.821363
 30
0.0
 10
39.945112
 20
183.802753
 30
0.0
 10
39.955012
 20
183.789143
 30
0.0
 10
40.068955
 20
183.686007
 30
0.0
 10
40.414304
 20
183.369003
 30
0.0
 10
40.757427
 20
183.049592
 30
0.0
 10
40.869184
 20
182.944091
 30
0.0
 10
40.883534
 20
182.935291
 30
0.0
 10
40.902494
 20
182.931591
 30
0.0
 10
40.925974
 20
182.932991
 30
0.0
 10
40.986024
 20
182.951841
 30
0.0
 10
41.445210
 20
183.212656
 30
0.0
 10
41.782480
 20
183.396487
 30
0.0
 10
42.147909
 20
183.585854
 30
0.0
 10
42.538930
 20
183.778201
 30
0.0
 10
42.955939
 20
183.972603
 30
0.0
 10
43.401756
 20
184.169190
 30
0.0
 10
43.871690
 20
184.364752
 30
0.0
  0
SPLINE
  5
1b9
100
AcDbEntity
  8
0
 62
7
100
AcDbSpline
 70
8
 71
3
 72
8
 73
4
 74
0
 40
0
 40
0
 40
0
 40
0
 40
1
 40
1
 40
1
 40
1
 10
47.244759
 20
180.784843
 30
0.0
 10
47.506016
 20
180.484786
 30
0.0
 10
47.764408
 20
180.182247
 30
0.0
 10
48.019901
 20
179.877268
 30
0.0
  0
LWPOLYLINE
  5
1ba
100
AcDbEntity
  8
0
 62
7
100
AcDbPolyline
 90
27
 70
0
 10
44.715650
 20
183.520791
 30
0.0
 10
44.520088
 20
183.050858
 30
0.0
 10
44.323501
 20
182.605041
 30
0.0
 10
44.129100
 20
182.188031
 30
0.0
 10
43.936753
 20
181.797010
 30
0.0
 10
43.747386
 20
181.431582
 30
0.0
 10
43.563555
 20
181.094312
 30
0.0
 10
43.302739
 20
180.635125
 30
0.0
 10
43.283889
 20
180.575075
 30
0.0
 10
43.282489
 20
180.551595
 30
0.0
 10
43.286189
 20
180.532635
 30
0.0
 10
43.294989
 20
180.518285
 30
0.0
 10
43.400490
 20
180.406528
 30
0.0
 10
43.719902
 20
180.063405
 30
0.0
 10
44.036906
 20
179.718057
 30
0.0
 10
44.140042
 20
179.604114
 30
0.0
 10
44.153652
 20
179.594214
 30
0.0
 10
44.172262
 20
179.589014
 30
0.0
 10
44.195782
 20
179.588614
 30
0.0
 10
44.257132
 20
179.602694
 30
0.0
 10
44.735367
 20
179.826678
 30
0.0
 10
45.086020
 20
179.983480
 30
0.0
 10
45.465180
 20
180.143592
 30
0.0
 10
45.870087
 20
180.304667
 30
0.0
 10
46.301063
 20
180.465751
 30
0.0
 10
46.760930
 20
180.626754
 30
0.0
 10
47.244759
 20
180.784843
 30
0.0
  0
SPLINE
  5
1bb
100
AcDbEntity
  8
0
 62
7
100
AcDbSpline
 70
8
 71
3
 72
8
 73
4
 74
0
 40
0
 40
0
 40
0
 40
0
 40
1
 40
1
 40
1
 40
1
 10
50.326545
 20
176.951234
 30
0.0
 10
50.563454
 20
176.631605
 30
0.0
 10
50.797313
 20
176.309725
 30
0.0
 10
51.028090
 20
175.985640
 30
0.0
  0
LWPOLYLINE
  5
1bc
100
AcDbEntity
  8
0
 62
7
100
AcDbPolyline
 90
27
 70
0
 10
48.019901
 20
179.877268
 30
0.0
 10
47.788071
 20
179.424126
 30
0.0
 10
47.557111
 20
178.995107
 30
0.0
 10
47.330592
 20
178.594635
 30
0.0
 10
47.108159
 20
178.219912
 30
0.0
 10
46.890704
 20
177.870467
 30
0.0
 10
46.680978
 20
177.548660
 30
0.0
 10
46.384939
 20
177.111351
 30
0.0
 10
46.361429
 20
177.052961
 30
0.0
 10
46.358129
 20
177.029671
 30
0.0
 10
46.360329
 20
177.010471
 30
0.0
 10
46.368029
 20
176.995471
 30
0.0
 10
46.464439
 20
176.875781
 30
0.0
 10
46.755946
 20
176.508656
 30
0.0
 10
47.044877
 20
176.139500
 30
0.0
 10
47.138757
 20
176.017816
 30
0.0
 10
47.151547
 20
176.006836
 30
0.0
 10
47.169697
 20
176.000136
 30
0.0
 10
47.193117
 20
175.997936
 30
0.0
 10
47.255377
 20
176.007136
 30
0.0
 10
47.749711
 20
176.192908
 30
0.0
 10
48.111586
 20
176.321715
 30
0.0
 10
48.502139
 20
176.451586
 30
0.0
 10
48.918436
 20
176.580395
 30
0.0
 10
49.360722
 20
176.707169
 30
0.0
 10
49.831804
 20
176.831594
 30
0.0
 10
50.326545
 20
176.951234
 30
0.0
  0
SPLINE
  5
1bd
100
AcDbEntity
  8
0
 62
7
100
AcDbSpline
 70
8
 71
3
 72
8
 73
4
 74
0
 40
0
 40
0
 40
0
 40
0
 40
1
 40
1
 40
1
 40
1
 10
53.098101
 20
172.887608
 30
0.0
 10
53.309202
 20
172.550375
 30
0.0
 10
53.517086
 20
172.211140
 30
0.0
 10
53.721725
 20
171.869947
 30
0.0
  0
LWPOLYLINE
  5
1be
100
AcDbEntity
  8
0
 62
7
100
AcDbPolyline
 90
27
 70
0
 10
51.028090
 20
175.985640
 30
0.0
 10
50.761422
 20
175.552084
 30
0.0
 10
50.497514
 20
175.142509
 30
0.0
 10
50.240271
 20
174.761045
 30
0.0
 10
49.989123
 20
174.404928
 30
0.0
 10
49.744922
 20
174.073622
 30
0.0
 10
49.510593
 20
173.769262
 30
0.0
 10
49.181156
 20
173.356529
 30
0.0
 10
49.153136
 20
173.300169
 30
0.0
 10
49.148036
 20
173.277209
 30
0.0
 10
49.148758
 20
173.257899
 30
0.0
 10
49.155258
 20
173.242339
 30
0.0
 10
49.241978
 20
173.115453
 30
0.0
 10
49.503782
 20
172.726588
 30
0.0
 10
49.762858
 20
172.335900
 30
0.0
 10
49.846898
 20
172.207226
 30
0.0
 10
49.858788
 20
172.195276
 30
0.0
 10
49.876358
 20
172.187176
 30
0.0
 10
49.899528
 20
172.183076
 30
0.0
 10
49.962328
 20
172.187376
 30
0.0
 10
50.469715
 20
172.333791
 30
0.0
 10
50.840579
 20
172.433808
 30
0.0
 10
51.240118
 20
172.532638
 30
0.0
 10
51.665237
 20
172.628388
 30
0.0
 10
52.116107
 20
172.720068
 30
0.0
 10
52.595498
 20
172.807148
 30
0.0
 10
53.098101
 20
172.887608
 30
0.0
  0
SPLINE
  5
1bf
100
AcDbEntity
  8
0
 62
7
100
AcDbSpline
 70
8
 71
3
 72
8
 73
4
 74
0
 40
0
 40
0
 40
0
 40
0
 40
1
 40
1
 40
1
 40
1
 10
55.542228
 20
168.619110
 30
0.0
 10
55.726219
 20
168.266354
 30
0.0
 10
55.906846
 20
167.911854
 30
0.0
 10
56.084084
 20
167.555657
 30
0.0
  0
LWPOLYLINE
  5
1c0
100
AcDbEntity
  8
0
 62
7
100
AcDbPolyline
 90
27
 70
0
 10
53.721725
 20
171.869947
 30
0.0
 10
53.421862
 20
171.458651
 30
0.0
 10
53.126632
 20
171.071044
 30
0.0
 10
52.840253
 20
170.710938
 30
0.0
 10
52.561938
 20
170.375624
 30
0.0
 10
52.292497
 20
170.064499
 30
0.0
 10
52.035011
 20
169.779463
 30
0.0
 10
51.674206
 20
169.393849
 30
0.0
 10
51.641856
 20
169.339859
 30
0.0
 10
51.634956
 20
169.317369
 30
0.0
 10
51.634160
 20
169.298059
 30
0.0
 10
51.639360
 20
169.282039
 30
0.0
 10
51.715860
 20
169.148740
 30
0.0
 10
51.946347
 20
168.740533
 30
0.0
 10
52.173972
 20
168.330724
 30
0.0
 10
52.247662
 20
168.195852
 30
0.0
 10
52.258582
 20
168.183012
 30
0.0
 10
52.275462
 20
168.173612
 30
0.0
 10
52.298242
 20
168.167712
 30
0.0
 10
52.361181
 20
168.167087
 30
0.0
 10
52.878491
 20
168.273240
 30
0.0
 10
53.256061
 20
168.343850
 30
0.0
 10
53.662122
 20
168.411020
 30
0.0
 10
54.093442
 20
168.473120
 30
0.0
 10
54.550116
 20
168.529140
 30
0.0
 10
55.034862
 20
168.578340
 30
0.0
 10
55.542228
 20
168.619110
 30
0.0
  0
SPLINE
  5
1c1
100
AcDbEntity
  8
0
 62
7
100
AcDbSpline
 70
8
 71
3
 72
8
 73
4
 74
0
 40
0
 40
0
 40
0
 40
0
 40
1
 40
1
 40
1
 40
1
 10
57.644060
 20
164.171934
 30
0.0
 10
57.799808
 20
163.805830
 30
0.0
 10
57.952064
 20
163.438251
 30
0.0
 10
58.100809
 20
163.069246
 30
0.0
  0
LWPOLYLINE
  5
1c2
100
AcDbEntity
  8
0
 62
7
100
AcDbPolyline
 90
27
 70
0
 10
56.084084
 20
167.555657
 30
0.0
 10
55.752875
 20
167.169155
 30
0.0
 10
55.428145
 20
166.805908
 30
0.0
 10
55.114395
 20
166.469381
 30
0.0
 10
54.810630
 20
166.156937
 30
0.0
 10
54.517608
 20
165.867911
 30
0.0
 10
54.238552
 20
165.603955
 30
0.0
 10
53.848606
 20
165.247839
 30
0.0
 10
53.812116
 20
165.196549
 30
0.0
 10
53.803516
 20
165.174669
 30
0.0
 10
53.801216
 20
165.155479
 30
0.0
 10
53.805216
 20
165.139099
 30
0.0
 10
53.871016
 20
165.000210
 30
0.0
 10
54.068764
 20
164.575177
 30
0.0
 10
54.263534
 20
164.148771
 30
0.0
 10
54.326414
 20
164.008534
 30
0.0
 10
54.336314
 20
163.994874
 30
0.0
 10
54.352404
 20
163.984164
 30
0.0
 10
54.374654
 20
163.976464
 30
0.0
 10
54.437354
 20
163.970864
 30
0.0
 10
54.961398
 20
164.036104
 30
0.0
 10
55.343344
 20
164.076874
 30
0.0
 10
55.753422
 20
164.111984
 30
0.0
 10
56.188287
 20
164.140054
 30
0.0
 10
56.647948
 20
164.160074
 30
0.0
 10
57.135060
 20
164.171094
 30
0.0
 10
57.644060
 20
164.171934
 30
0.0
  0
SPLINE
  5
1c3
100
AcDbEntity
  8
0
 62
7
100
AcDbSpline
 70
8
 71
3
 72
8
 73
4
 74
0
 40
0
 40
0
 40
0
 40
0
 40
1
 40
1
 40
1
 40
1
 10
59.390463
 20
159.573623
 30
0.0
 10
59.517007
 20
159.196428
 30
0.0
 10
59.639954
 20
158.818036
 30
0.0
 10
59.759288
 20
158.438498
 30
0.0
  0
LWPOLYLINE
  5
1c4
100
AcDbEntity
  8
0
 62
7
100
AcDbPolyline
 90
27
 70
0
 10
58.100809
 20
163.069246
 30
0.0
 10
57.740297
 20
162.709922
 30
0.0
 10
57.388067
 20
162.373271
 30
0.0
 10
57.048881
 20
162.062400
 30
0.0
 10
56.721539
 20
161.774751
 30
0.0
 10
56.406743
 20
161.509607
 30
0.0
 10
56.107837
 20
161.268360
 30
0.0
 10
55.691151
 20
160.943935
 30
0.0
 10
55.650751
 20
160.895665
 30
0.0
 10
55.640431
 20
160.874525
 30
0.0
 10
55.636631
 20
160.855575
 30
0.0
 10
55.639331
 20
160.838935
 30
0.0
 10
55.694031
 20
160.695311
 30
0.0
 10
55.857823
 20
160.256074
 30
0.0
 10
56.018537
 20
159.815701
 30
0.0
 10
56.070217
 20
159.670963
 30
0.0
 10
56.079017
 20
159.656573
 30
0.0
 10
56.094217
 20
159.644633
 30
0.0
 10
56.115797
 20
159.635233
 30
0.0
 10
56.177867
 20
159.624773
 30
0.0
 10
56.705414
 20
159.648693
 30
0.0
 10
57.089381
 20
159.659373
 30
0.0
 10
57.500950
 20
159.662173
 30
0.0
 10
57.936676
 20
159.656073
 30
0.0
 10
58.396491
 20
159.639963
 30
0.0
 10
58.882965
 20
159.612723
 30
0.0
 10
59.390463
 20
159.573623
 30
0.0
  0
SPLINE
  5
1c5
100
AcDbEntity
  8
0
 62
7
100
AcDbSpline
 70
8
 71
3
 72
8
 73
4
 74
0
 40
0
 40
0
 40
0
 40
0
 40
1
 40
1
 40
1
 40
1
 10
60.770660
 20
154.852510
 30
0.0
 10
60.867219
 20
154.466549
 30
0.0
 10
60.960099
 20
154.079677
 30
0.0
 10
61.049287
 20
153.691947
 30
0.0
  0
LWPOLYLINE
  5
1c6
100
AcDbEntity
  8
0
 62
7
100
AcDbPolyline
 90
27
 70
0
 10
59.759288
 20
158.438498
 30
0.0
 10
59.371695
 20
158.108567
 30
0.0
 10
58.994137
 20
157.800590
 30
0.0
 10
58.631607
 20
157.517288
 30
0.0
 10
58.282704
 20
157.256210
 30
0.0
 10
57.948076
 20
157.016582
 30
0.0
 10
57.631164
 20
156.799530
 30
0.0
 10
57.190309
 20
156.508798
 30
0.0
 10
57.146250
 20
156.463848
 30
0.0
 10
57.134300
 20
156.443588
 30
0.0
 10
57.129000
 20
156.424998
 30
0.0
 10
57.130400
 20
156.408198
 30
0.0
 10
57.173659
 20
156.260725
 30
0.0
 10
57.302484
 20
155.809991
 30
0.0
 10
57.428151
 20
155.358367
 30
0.0
 10
57.468321
 20
155.210020
 30
0.0
 10
57.475921
 20
155.194980
 30
0.0
 10
57.490141
 20
155.181890
 30
0.0
 10
57.510921
 20
155.170860
 30
0.0
 10
57.571981
 20
155.155560
 30
0.0
 10
58.099779
 20
155.138020
 30
0.0
 10
58.483400
 20
155.118540
 30
0.0
 10
58.893922
 20
155.089070
 30
0.0
 10
59.327823
 20
155.048760
 30
0.0
 10
59.784957
 20
154.996630
 30
0.0
 10
60.267796
 20
154.931310
 30
0.0
 10
60.770660
 20
154.852510
 30
0.0
  0
SPLINE
  5
1c7
100
AcDbEntity
  8
0
 62
7
100
AcDbSpline
 70
8
 71
3
 72
8
 73
4
 74
0
 40
0
 40
0
 40
0
 40
0
 40
1
 40
1
 40
1
 40
1
 10
61.776187
 20
150.037658
 30
0.0
 10
61.842166
 20
149.645311
 30
0.0
 10
61.904405
 20
149.252345
 30
0.0
 10
61.962898
 20
148.858812
 30
0.0
  0
LWPOLYLINE
  5
1c8
100
AcDbEntity
  8
0
 62
7
100
AcDbPolyline
 90
27
 70
0
 10
61.049287
 20
153.691947
 30
0.0
 10
60.637003
 20
153.393443
 30
0.0
 10
60.236446
 20
153.116038
 30
0.0
 10
59.852805
 20
152.862053
 30
0.0
 10
59.484494
 20
152.629154
 30
0.0
 10
59.132096
 20
152.416520
 30
0.0
 10
58.799132
 20
152.225002
 30
0.0
 10
58.336826
 20
151.969756
 30
0.0
 10
58.289376
 20
151.928406
 30
0.0
 10
58.275876
 20
151.909146
 30
0.0
 10
58.269176
 20
151.891026
 30
0.0
 10
58.269215
 20
151.874166
 30
0.0
 10
58.300775
 20
151.723753
 30
0.0
 10
58.393835
 20
151.264301
 30
0.0
 10
58.483685
 20
150.804209
 30
0.0
 10
58.512085
 20
150.653168
 30
0.0
 10
58.518485
 20
150.637578
 30
0.0
 10
58.531635
 20
150.623408
 30
0.0
 10
58.551475
 20
150.610778
 30
0.0
 10
58.611145
 20
150.590738
 30
0.0
 10
59.135939
 20
150.531838
 30
0.0
 10
59.516849
 20
150.482318
 30
0.0
 10
59.923794
 20
150.420728
 30
0.0
 10
60.353195
 20
150.346508
 30
0.0
 10
60.804829
 20
150.258668
 30
0.0
 10
61.281054
 20
150.155665
 30
0.0
 10
61.776187
 20
150.037658
 30
0.0
  0
SPLINE
  5
1c9
100
AcDbEntity
  8
0
 62
7
100
AcDbSpline
 70
8
 71
3
 72
8
 73
4
 74
0
 40
0
 40
0
 40
0
 40
0
 40
1
 40
1
 40
1
 40
1
 10
62.400857
 20
145.158749
 30
0.0
 10
62.435848
 20
144.762435
 30
0.0
 10
62.467063
 20
144.365796
 30
0.0
 10
62.494497
 20
143.968888
 30
0.0
  0
LWPOLYLINE
  5
1ca
100
AcDbEntity
  8
0
 62
7
100
AcDbPolyline
 90
27
 70
0
 10
61.962898
 20
148.858812
 30
0.0
 10
61.528465
 20
148.593576
 30
0.0
 10
61.107377
 20
148.348453
 30
0.0
 10
60.704991
 20
148.125352
 30
0.0
 10
60.319543
 20
147.922068
 30
0.0
 10
59.951548
 20
147.737737
 30
0.0
 10
59.604584
 20
147.572934
 30
0.0
 10
59.123676
 20
147.354747
 30
0.0
 10
59.073126
 20
147.317245
 30
0.0
 10
59.058156
 20
147.299099
 30
0.0
 10
59.050056
 20
147.281562
 30
0.0
 10
59.048756
 20
147.264755
 30
0.0
 10
59.068416
 20
147.112329
 30
0.0
 10
59.125146
 20
146.646992
 30
0.0
 10
59.178616
 20
146.181269
 30
0.0
 10
59.195076
 20
146.028465
 30
0.0
 10
59.200276
 20
146.012422
 30
0.0
 10
59.212266
 20
145.997267
 30
0.0
 10
59.231056
 20
145.983118
 30
0.0
 10
59.288966
 20
145.958454
 30
0.0
 10
59.807522
 20
145.858561
 30
0.0
 10
60.183372
 20
145.779308
 30
0.0
 10
60.584229
 20
145.685977
 30
0.0
 10
61.006483
 20
145.578291
 30
0.0
 10
61.449834
 20
145.455289
 30
0.0
 10
61.916510
 20
145.315240
 30
0.0
 10
62.400857
 20
145.158749
 30
0.0
  0
LWPOLYLINE
  5
1cb
100
AcDbEntity
  8
0
 62
7
100
AcDbPolyline
 90
2
 70
0
 10
62.494497
 20
143.968888
 30
0.0
 10
62.040321
 20
143.738280
 30
0.0
  0
ENDSEC
  0
SECTION
  2
OBJECTS
  0
DICTIONARY
  5
C
330
0
100
AcDbDictionary
  3
ACAD_GROUP
350
D
  3
ACAD_MLINESTYLE
350
17
  0
DICTIONARY
  5
D
330
C
100
AcDbDictionary
  0
DICTIONARY
  5
1A
330
C
100
AcDbDictionary
  0
DICTIONARY
  5
17
330
C
100
AcDbDictionary
  3
STANDARD
350
18
  0
DICTIONARY
  5
19
330
C
100
AcDbDictionary
  0
ENDSEC
  0
EOF
